<svg xmlns="http://www.w3.org/2000/svg" viewBox="0 0 163 171"><defs><style>.cls-1{fill:#9eca73;}.cls-2{fill:#ceab89;}.cls-3{fill:#a67c52;}.cls-4{fill:#ccc;}.cls-5{fill:#fff;}.cls-6{fill:red;}.cls-7{fill:#9ec972;}</style></defs><title>Artboard 14</title><g id="Layer_11" data-name="Layer 11"><path class="cls-1" d="M152.76,72.12a1.69,1.69,0,0,0-.19-.32c-.87-1.75-1.9-3.41-2.86-5.2-1.33-2.48-1.59-5.32-4.58-5.84h0c-3.39-4-4.09-9.44-8.87-12.31l-.16-.08A9,9,0,0,0,134,47.25c-1.29-.52-2.5-1.11-3.73-1.7a1.75,1.75,0,0,0-.11-1.06,56.7,56.7,0,0,1-2.42-8.89l-.21-.92a2,2,0,0,0-.37-1.27c-.52-1.54-1.33-2.87-3.16-3.23a2.17,2.17,0,0,0-.92,0c-3.32-2.95-5.34-6.49-4.93-11.62.14-1.79-1.76-2.32-3-1.61a1.89,1.89,0,0,0-1.84,1.91c-.11,7.18-.66,15.09-5.55,20.54-2.49-.16-5-3-7.29-3.89a12.45,12.45,0,0,0-4.46-.84,2,2,0,0,0-1-1A3.7,3.7,0,0,0,93.39,33a4.48,4.48,0,0,1-1.17-.85c-1.3-1.33-.47-2.74.06-4.24C92.93,26,94,24.3,94.71,22.43s.53-3.59-1.58-4.28a1.87,1.87,0,0,0-.89-.09,2.18,2.18,0,0,0-.7-.18c-3.24-.25-6.33.95-9.54.31a7.68,7.68,0,0,0-4.35.45,1.81,1.81,0,0,0-.69,0,15.27,15.27,0,0,0-7.61,4.17,12.79,12.79,0,0,0-2.51,5.83c-3.82-1.48-7.9-3.54-11.88-2A15.49,15.49,0,0,0,49.73,30a39.2,39.2,0,0,0-2.83,3.84,3.26,3.26,0,0,0-1.32-.48,2.47,2.47,0,0,0-2.82,2.36,9.16,9.16,0,0,1-.26,2.9,13.19,13.19,0,0,1-1.78,2.56,14.37,14.37,0,0,0-1.93,3.93,22.3,22.3,0,0,1-7,2.82h-1a1.74,1.74,0,0,0-1.58-.74,4.57,4.57,0,0,0-2.32.69h-.09a2.11,2.11,0,0,0-2,1.9,2.3,2.3,0,0,1-.64.34,5.79,5.79,0,0,0-.67-.31c-1.21-.14-1.87-.37-3,.38a25.76,25.76,0,0,0-3.17,2.92,2.09,2.09,0,0,0-.38.49,6,6,0,0,0-.84.07,5.2,5.2,0,0,0-2.49,1.16,8.13,8.13,0,0,0-1.28,1.4,2.29,2.29,0,0,0-2.56.17c-1.29,1-1.3,2.29-1.77,3.8s-1.63,3-1.41,4.61,1.42,3.24,2.17,4.61c.94,1.69,2,3.33,3,5-.43,1.29-1.06,3.15-.3,3.71A2,2,0,0,0,8.59,79.3c-.39,2,.38,3,1.33,4.81a25.86,25.86,0,0,1,2.48,8.33,1.55,1.55,0,0,0,1.16,1.39c.89,2.38,1.65,5,.78,6.88-.94,2.08-2.78,3.48-3.61,5.71a1.94,1.94,0,0,0,.51,2c2,1.71,4.33,1.87,6.63,2.45,4.12,3.23,9.23.93,12-3a2.56,2.56,0,0,0,.22-.39c1.25-.62,2.46.31,3.71.73a5.91,5.91,0,0,0,3.17.17,2.25,2.25,0,0,0,.44,0c1.07-.2,2.35-.66,3.4-.26s1.73,1.28,3.11,1.25c2.23,0,3.37-2.1,4.07-4,1.32-.8,2.6-.87,4.06-1.36,1.16-.4,1.52-1.12,2.39-1.86,1.08-.93,2.41-.52,3.75-.69a5.63,5.63,0,0,0,1.81-.54c4.13-.16,8-2.22,12.13-2.79,2.47,1.72,5.08,3.32,8.11,3.78.62.1,1.39,0,2,.18,1.24.36,1.72,1.19,2.68,1.77a9.6,9.6,0,0,0,1.8.84,20.67,20.67,0,0,1,1.36,4.16c.34,1.63.83,3.47,2.9,3.4,1.78-.06,2.39-1.65,3.05-3a7.41,7.41,0,0,1,2.19-2.89,3.3,3.3,0,0,1,.25,2.74,2,2,0,0,0,1.93,2.54c.12,0,.86-.15,1.35-.23a4.89,4.89,0,0,0,.41,1.75,9,9,0,0,0,2.2,3.29,1.9,1.9,0,0,0,.83.49c.38,1.52.78,3,1.25,4.55s.92,3.67,2.13,4.94c1.65,1.74,4.6,1.91,6.92,1.1a5.74,5.74,0,0,0,4.49,2.08,4.24,4.24,0,0,0,2.57-1.08c.38-.33,1.15-1.64,1.62-1.63a1.73,1.73,0,0,0,1.38-.51,6.54,6.54,0,0,1,2.3,1.25c.92.79,1.38,2,2.3,2.72,2,1.67,4,.28,5-1.54l.26-.17c.84-.66,2.71.22,3.63.38a5.38,5.38,0,0,0,2.95-.15c1.89-.73,2.24-2.32,2.22-4a2,2,0,0,0,.28-1c0-4.62,2.22-9.24,4.07-13.78a1.77,1.77,0,0,0,.7-.79c3.1-6.24,6.38-12.86,8.28-19.59C157.24,83.55,155.28,77.63,152.76,72.12ZM105.7,80.26l.36,1.21-.81-1.25Z"/><path class="cls-2" d="M147.67,98.3c-.31-.28-.55-.5-.77-.67a.42.42,0,0,0-.36-.6q-3.57-.21-7.14-.24a.36.36,0,0,0-.35.22c-1.15-.08-2.32-.13-3.49-.14a38,38,0,0,0-5.54.07c-1.89.17-3.73,0-5.6,0-.48,0-1,0-1.44,0h0a40,40,0,0,0-6.57.08q-3.12-.09-6.24-.14a.4.4,0,0,0-.17,0,35,35,0,0,0-5.22-.18c-2.26.07-4.67.49-6.92.13l-.11,0-.32,0a.43.43,0,0,0-.44.66L95.9,98.53a.41.41,0,0,0,.5.65c.14-.07.3-.12.45-.18a6.15,6.15,0,0,0,2.4.15l5.63-.08q6.06-.09,12.13-.22a.39.39,0,0,0,.39-.36l1.21,0a.37.37,0,0,0,.28.12.4.4,0,0,0,.31-.14l.57,0a.41.41,0,0,0,.48.29c2.41-.43,4.77,0,7.19.05,1.69.07,3.46.11,5.18.08a.4.4,0,0,0,.34.08l.71-.11H134a.31.31,0,0,0,.13,0c1.5-.13,3.1,0,4.56-.15a16.68,16.68,0,0,1,2,0l1.36.1.48,0h.09l.81.09a.38.38,0,0,0,.19,0c1.27.08,2.53.16,3.78.19A.42.42,0,0,0,147.67,98.3Z"/><path class="cls-3" d="M104.7,96.37l0-.12a5.27,5.27,0,0,0-.92-2c-.54-1-1.12-1.91-1.7-2.84a16,16,0,0,0-2.79-3.71l-.07-.14a.32.32,0,0,0-.37-.21c-.4-.23-.76.44-.36.75l.11.1,1.52,3.51-2.92,4.46a.38.38,0,0,0,.16.56.39.39,0,0,0,.49.29,12,12,0,0,1,3.54.1,14.7,14.7,0,0,0,3.11-.1C104.89,97,104.89,96.59,104.7,96.37Z"/><path class="cls-3" d="M111.18,96.18a12.48,12.48,0,0,0-5-1.85.44.44,0,0,0-.53.4c0,.52,0,1-.08,1.54,0,.3.21.42.45.39l.1,0c1.6.15,3.21.24,4.82.27A.41.41,0,0,0,111.18,96.18Z"/><path class="cls-3" d="M106.38,85.49c-.56-.72-1.13-1.42-1.71-2.11a.33.33,0,0,0-.28-.13c-.3-.15-.73.07-.59.45A10.86,10.86,0,0,0,105,86.21c.39.56.95,1.55,1.67,1.66a.59.59,0,0,0,.19,0,.45.45,0,0,0,.55-.5A4.62,4.62,0,0,0,106.38,85.49Z"/><path class="cls-3" d="M113.05,84.18A18.24,18.24,0,0,1,112,82.3a.38.38,0,0,0-.09-.12c-.08-.52-.87-.3-.8.22a3,3,0,0,0,.39,1.41,3.89,3.89,0,0,0,1,.94A.42.42,0,0,0,113.05,84.18Z"/><path class="cls-3" d="M113.63,81c-.76-1.81-2-3.38-2.85-5.13-.24-.47-1-.05-.71.42a2.12,2.12,0,0,0,.11.21v0l.9,3.39c.15.54.19,1.44.84,1.63a.35.35,0,0,0,.11,0,2.55,2.55,0,0,0,1.25,0A.42.42,0,0,0,113.63,81Z"/><path class="cls-3" d="M116.77,95.94c-.27-.54-1.08-.75-1.59-1a27.85,27.85,0,0,0-2.67-.89.42.42,0,0,0-.52.4c0,.73,0,1.45-.07,2.18a.4.4,0,0,0,.59.35c.43.29,1.55.13,2,.12C115.19,97.13,117.41,97.23,116.77,95.94Z"/><path class="cls-3" d="M127.75,95.65c-.33-.83-2.51-1.42-3.31-1.56-1.47-.25-2.27,1-3.29,1.92a.47.47,0,0,0-.09.12l-.33,0c-.53.06-.54.89,0,.83a57.64,57.64,0,0,1,5.88-.09C127.26,96.9,128.13,96.6,127.75,95.65Z"/><path class="cls-3" d="M135.05,96.33a6.7,6.7,0,0,0-.85-1.52c-.19-.37-.22-.64-.62-.75a4.82,4.82,0,0,0-1.91.38,28.55,28.55,0,0,0-2.86.87.39.39,0,0,0-.28.41.34.34,0,0,0,0,.18,7.89,7.89,0,0,0,.1.85.42.42,0,0,0,.46.3.46.46,0,0,0,.21,0l2.82-.17c.43,0,.85-.06,1.28,0a2.92,2.92,0,0,0,.93,0,.37.37,0,0,0,.17-.1A.43.43,0,0,0,135.05,96.33Z"/><path class="cls-4" d="M110.94,95.15l-.14-.3c-.7-2.54-1.31-5.15-3-7.21-.33-.39-.87.13-.62.53l0,.08a51.12,51.12,0,0,1-1.44,5.7.42.42,0,0,0,.29.51,16.07,16.07,0,0,1,4.21,1.18.42.42,0,0,0,.62,0A.41.41,0,0,0,110.94,95.15Z"/><path class="cls-4" d="M114.12,81.75a.44.44,0,0,0-.78.15h0a.42.42,0,0,0-.25.61,37.61,37.61,0,0,1,3.38,9.33h0c.11.94.19,1.87.25,2.76l0,0a.35.35,0,0,0,0-.25q-1.4-5-3.27-9.8c-.19-.5-1-.28-.8.22l.06.15a81.4,81.4,0,0,1-.32,9,.42.42,0,0,0,.3.4c1.17.29,2.3.64,3.43,1,.38.14.59-.27.47-.56a.48.48,0,0,0,.09-.11.38.38,0,0,0,0,.28,3.19,3.19,0,0,1,.18.8c.07.46.84.35.81-.11C117.37,91.2,116.7,85.55,114.12,81.75Z"/><path class="cls-4" d="M133.6,94.38a30.45,30.45,0,0,0-6.33-6.19h0l0-.09a.43.43,0,0,0-.68,0,.36.36,0,0,0-.43.28c0,.19-.08.37-.13.55a.43.43,0,0,0-.31.38c0,.45-.1.89-.18,1.33a9.17,9.17,0,0,1-1.69,3.13.42.42,0,0,0,.29.71,3.9,3.9,0,0,1,2.58.81.38.38,0,0,0,.33.24.41.41,0,0,0,.56-.55c-.05-.11-.1-.21-.14-.32-.16-1.74-.35-3.46-.6-5.19h0s0-.07,0-.11a.33.33,0,0,0-.05-.12.83.83,0,0,1,0-.15c1,1.86.93,3.85,1.32,5.89a.36.36,0,0,0,.49.28h.2a15.1,15.1,0,0,1,4.45-.19A.43.43,0,0,0,133.6,94.38Z"/><path class="cls-4" d="M146.44,94.24c-.45-.71-.91-1.4-1.39-2.08C144.8,91.8,144.47,91,144,91s-.73.56-.93.88a15.69,15.69,0,0,0-1.19,2.26.41.41,0,0,0,0,.39.43.43,0,0,0,.52.45c1.27-.24,2.53.23,3.79-.12A.41.41,0,0,0,146.44,94.24Z"/><path class="cls-5" d="M152,88.11a11.46,11.46,0,0,0-7.58,2.5c-.32.26,0,.66.29.68a.43.43,0,0,0,.11.21c.16.17.38.47.63.8a.43.43,0,0,0,.4.54h0c.63.73,1.39,1.36,2,.85a18.41,18.41,0,0,0,1.94-2.49,24.72,24.72,0,0,1,2.43-2.37A.42.42,0,0,0,152,88.11Z"/><path class="cls-5" d="M112.49,84.38a.54.54,0,0,0-.24-.16s0,0,0,0c-2-1.61-5.29-1.78-7.78-1.92a.34.34,0,0,0-.39.35.37.37,0,0,0,0,.56c3.7,3.47,5.43,8.17,7,12.87a.37.37,0,0,0,0,.32l.19.34a.42.42,0,0,0,.76-.1.41.41,0,0,0,.46-.4l.16-6.94C112.69,88,113.28,85.46,112.49,84.38Z"/><path class="cls-5" d="M143.19,90.65a12,12,0,0,1-2.54-.58,11,11,0,0,0-2.36-.18.42.42,0,0,0-.16,0l.08-.24c.61-1.79,1.51-3.52,1.63-5.42a.41.41,0,0,0-.41-.41c-3.61,0-8,.08-11.2,2.08a2.18,2.18,0,0,0-1.26-1,2,2,0,0,0-1.88.3c-.45-.61-.94-1.2-1.28-1.69-.71-1-1.4-2-2.19-3a9.18,9.18,0,0,0-2.48-2.06,21.73,21.73,0,0,0-6.68-3.17,1,1,0,0,0-.46,0,2,2,0,0,0-1.74,0,.42.42,0,0,0-.09.65l.25.22a2.57,2.57,0,0,0,.19.47.89.89,0,0,0,.2.48l.11.15a3.58,3.58,0,0,0,.74,1.17.54.54,0,0,0,.18.1c.63.91,1.22,1.84,1.77,2.8a.88.88,0,0,0-.1.22c-.49-.07-1-.14-1.46-.17a.35.35,0,0,0-.37.22.45.45,0,0,0-.09.64,6,6,0,0,1,.46.66,2.55,2.55,0,0,1,.17.33,1.5,1.5,0,0,1,.09.18.4.4,0,0,0,.19.42.34.34,0,0,0,.12.06c.63,1.57,1.26,3.14,1.84,4.73.34.95.66,1.92.94,2.89.23.79,1,2.62.93,3.57a.36.36,0,0,0,0,.33v0a.45.45,0,0,0,.42.29,1,1,0,0,0,.91,1.43,7.45,7.45,0,0,0,2.94-.28,8.71,8.71,0,0,0,2.1-2.3,28.67,28.67,0,0,0,3.57-5.26,1.83,1.83,0,0,0,1.41-.47,17.94,17.94,0,0,1,6.47,6.81.89.89,0,0,0,1,.49.4.4,0,0,0,.54,0,.41.41,0,0,0,.73-.12c.43-1.87.94-3.71,1.52-5.54a.47.47,0,0,0,.06.09A30.15,30.15,0,0,0,141,93.84a.24.24,0,0,0,.09.06c0,.38.55.64.77.24a30.69,30.69,0,0,1,1.74-2.86A.42.42,0,0,0,143.19,90.65Zm-26,4.6a6,6,0,0,0-.34-1.67c-.32-1.4-.72-2.78-1.18-4.15-.65-1.92-1.41-3.82-2.17-5.71,0-.22,0-.43,0-.65s0-.26-.07-.4a3.12,3.12,0,0,1,.43-.15,21.29,21.29,0,0,1,3.77,12.54s0,0,0,.06A1,1,0,0,0,117.14,95.25Z"/><path class="cls-5" d="M106.88,87.75c-.89-.79-2.75-1-3.71-1.3a5.66,5.66,0,0,0-4.35,0c-.33-.12-.77.22-.51.58,2.15,3,5,5.6,6.32,9.15a.4.4,0,0,0,.29.26.41.41,0,0,0,.73-.25,16.43,16.43,0,0,1,1.74-7.82A.44.44,0,0,0,106.88,87.75Z"/><path d="M152.78,88.17a.21.21,0,0,0-.1-.23c-1.1-.67-3.45.16-4.54.52a10,10,0,0,0-4.24,2.42s0,0,0,0c-1.33-1.46-3.33-1.28-5.15-1.37a20.66,20.66,0,0,0,.89-2.58,8.45,8.45,0,0,0,.64-3,.19.19,0,0,0-.15-.19.23.23,0,0,0-.19-.19,19.26,19.26,0,0,0-11.71,2.14,3,3,0,0,0-3-.81,10.35,10.35,0,0,0-1-1.66,19.38,19.38,0,0,0-1.6-2.31,12.33,12.33,0,0,0-4-3.18.1.1,0,0,0-.07-.07,21.86,21.86,0,0,0-4.7-2.26,6,6,0,0,0-3.87-.1c-.14-.09-.38,0-.32.22q.85,3,1.64,6c-.38.12-.31.47-.27.85s.05.54.08.81a1,1,0,0,0,0,.17,13.36,13.36,0,0,0-3.5-1.06,7.15,7.15,0,0,0-3.64-.12l0,0a.21.21,0,0,0-.31.12,2,2,0,0,0,0,1.14.17.17,0,0,0,0,.17,13.12,13.12,0,0,0,1.52,3.1,12.58,12.58,0,0,0-4.17-.91c-.75,0-2.51,0-2.93.77a.2.2,0,0,0-.08.22,48.66,48.66,0,0,0,1.65,4.66.17.17,0,0,0,0,.14c.2.5-.59,1.44-.84,1.87l-1.09,1.91L95.6,99a.2.2,0,0,0,.05.26.19.19,0,0,0,.2.21q7.8-.24,15.6-.15a.17.17,0,0,0,.13-.05.21.21,0,0,0,.11,0,16.85,16.85,0,0,1,3.48-.08c1.13,0,2.25-.18,3.38-.22,2.2-.07,4.42.1,6.62.16a.17.17,0,0,0,.17-.1c2.89-.14,5.8.17,8.68,0a.17.17,0,0,0,.1,0h.08a.17.17,0,0,0,.12,0,11.33,11.33,0,0,1,2.18,0c.69,0,1.38-.06,2.07-.06,1.29,0,2.65.29,3.94.23a.17.17,0,0,0,.1,0c1.93,0,3.67-.36,5.61,0a.21.21,0,0,0,.21-.34.2.2,0,0,0-.09-.21,4.83,4.83,0,0,1-.76-.92l-.7-.87v0c-.07-.63-.1-1.26-.11-1.89,2.16-1.72,3.59-4.15,5.67-6a.18.18,0,0,0,.06-.2A1.47,1.47,0,0,0,152.78,88.17Zm-.75.48a.17.17,0,0,0,0,.11c-1.94,1.73-3.33,4-5.32,5.64a.21.21,0,0,0-.33.16,20.13,20.13,0,0,0,.12,2.2.14.14,0,0,0,0,.06.18.18,0,0,0,0,.18l.85,1.07c.15.18.29.39.45.57a12.93,12.93,0,0,0-2.16-.16c-.83,0-1.66.16-2.49.21a.15.15,0,0,0-.15,0c-1.57.21-3.27-.21-4.87-.18-.72,0-1.45.07-2.18.07a6.16,6.16,0,0,0-1.92.08c-2.95.17-5.92-.17-8.87,0a.2.2,0,0,0-.16.09c-2.28-.07-4.6-.26-6.88-.13-1.13.06-2.25.19-3.38.21a14.15,14.15,0,0,0-3.19.08l-.08,0h0q-7.7-.1-15.4.14,1.24-2.17,2.48-4.35c.4-.69.81-1.38,1.19-2.08a1.58,1.58,0,0,0,.34-.94.14.14,0,0,0,0-.14c-.49-1.61-1.31-3.1-1.69-4.75h0c.22-.43,1.39-.48,1.77-.52a7.22,7.22,0,0,1,2,0,25.7,25.7,0,0,1,3.19.91c.19.06.3-.16.23-.3a.23.23,0,0,0,0-.3,10.07,10.07,0,0,1-1.32-2.49.21.21,0,0,0,0-.19,2.56,2.56,0,0,1-.29-1.35.12.12,0,0,0,.08,0,7.45,7.45,0,0,1,3.8.19,11.42,11.42,0,0,1,3.43,1.17.21.21,0,0,0,.24-.33h0a.19.19,0,0,0,0-.2,1.31,1.31,0,0,0,0-.28c0-.15,0-.31,0-.47s0-.27,0-.41-.08-.3.07-.34a.21.21,0,0,0,.27-.24c-.52-2-1.07-4-1.63-5.93,1.2-.61,3.14-.09,4.31.35a25.44,25.44,0,0,1,3.42,1.72.21.21,0,0,0,.13.15,11.64,11.64,0,0,1,4.22,3.17,17.1,17.1,0,0,1,1.46,2.06l.54.89a5.93,5.93,0,0,1,.67,1.08h0a.22.22,0,0,0,.15.26h0a.25.25,0,0,0,.21-.07h0a2.69,2.69,0,0,1,2.78.78.21.21,0,0,0,.29,0l.1,0A18.83,18.83,0,0,1,139.84,84a8.07,8.07,0,0,1-.62,2.91,17.49,17.49,0,0,1-.91,2.61.18.18,0,0,0,0,.14.22.22,0,0,0,.16.34c1.79.12,3.85-.19,5.17,1.29a.19.19,0,0,0,.32,0,.18.18,0,0,0,.26,0,9.49,9.49,0,0,1,3.88-2.26,14.39,14.39,0,0,1,1.95-.53,5.12,5.12,0,0,1,1.39-.19C151.81,88.23,152.41,88.11,152,88.65Z"/><path d="M142,96.44c-.14-.5,0-1.06-.21-1.54A3.47,3.47,0,0,0,141,94a29.7,29.7,0,0,1-2.76-3.17.22.22,0,0,0-.27-.06c-.09-.15-.34-.18-.38,0a13.56,13.56,0,0,1-.29,1.67c-.19.61-.38,1.2-.53,1.82a11.25,11.25,0,0,1-.62,1.8c-.07.18-.21.36-.14.55.2.51,1.63.42,2,.45a14.12,14.12,0,0,0,3.73-.17.2.2,0,0,0,.14-.27A.19.19,0,0,0,142,96.44Zm-3.59.28c-.39,0-.79,0-1.17-.1-1-.11-.73-.1-.5-.78a33.65,33.65,0,0,0,1.21-4.69,29.78,29.78,0,0,0,2,2.36,13.24,13.24,0,0,1,1.18,1.19,4.33,4.33,0,0,1,.46,1.73.24.24,0,0,0-.14.14A13.88,13.88,0,0,1,138.38,96.72Z"/><path class="cls-6" d="M152.89,94.48a5.18,5.18,0,0,0-1-2.49,5.74,5.74,0,0,0-4.74-2.35,5.48,5.48,0,0,0-.7,0A6,6,0,0,0,142.57,92a5,5,0,0,0-.81,1.68,6,6,0,0,0,.15,3.92,38.78,38.78,0,0,0,5.05,9.54.39.39,0,0,0,.25.16.32.32,0,0,0,.46-.23l0,0a.43.43,0,0,0,.19-.14,36.29,36.29,0,0,0,3.77-6.89C152.32,98.51,153.66,96.18,152.89,94.48Zm-2.7,1.8a2.64,2.64,0,0,1-1.59,1.8,3.74,3.74,0,0,1-2.24.16,3.19,3.19,0,0,1-1.79-1.4c-.61-1.36-.53-3.09.9-3.89a3.75,3.75,0,0,1,2.62-.23,3,3,0,0,1,2.12,1.72c0,.14.07.29.12.43A3.14,3.14,0,0,1,150.19,96.28Z"/><path d="M150.45,95a3.21,3.21,0,0,0-3.77-2.63h0c-1.81.14-2.75,1.63-2.5,3.46a3,3,0,0,0,3.56,2.4A3.81,3.81,0,0,0,150,97.22,3,3,0,0,0,150.45,95Zm-.88,2a3.56,3.56,0,0,1-1.93.79,2.63,2.63,0,0,1-3-1.79A2.41,2.41,0,0,1,147,92.84a.2.2,0,0,0,.15-.06A2.79,2.79,0,0,1,150,95,2.44,2.44,0,0,1,149.57,97.06Z"/><path d="M153.82,75.66c-.34-.55-1.2,0-.87.5,3.45,5.61,2,12,.2,17.94a5.25,5.25,0,0,0-.77-2,6,6,0,0,0-7.17-2.3A6.89,6.89,0,0,0,142,92.3a5.45,5.45,0,0,0-.59,4.48,20.4,20.4,0,0,0,2.34,5.55,24.81,24.81,0,0,0,3.14,5,.16.16,0,0,0,.08.06.71.71,0,0,0,.57.2c.59,0,.89-.72,1.14-1.16,1-1.69,1.83-3.43,2.69-5.17a16.49,16.49,0,0,0,1.83-5.16.47.47,0,0,0,.49-.34C155.74,89.17,157.68,81.93,153.82,75.66Zm-3.68,27.07c-.37.75-.76,1.49-1.15,2.22l-.61,1.1-.27.48a1.4,1.4,0,0,0-.1.16c-.15.35-.42.4-.8.16a.18.18,0,0,0-.24-.15,19.62,19.62,0,0,1-2.11-3.22c-.68-1.24-1.38-2.48-2-3.75a12.46,12.46,0,0,1-1.23-4.44,4.52,4.52,0,0,1,1.73-3.86,5.88,5.88,0,0,1,7.1-.63,5.3,5.3,0,0,1,2.32,4.46,1.21,1.21,0,0,1,0,.18.47.47,0,0,0,0,.39,8.45,8.45,0,0,1-.47,2.37A42.75,42.75,0,0,1,150.14,102.73Z"/><path class="cls-7" d="M134.85,139.75a6.63,6.63,0,0,0-4.68,1.25c-.88.54-1.41.74-2.17-.07-2.48-2.61-6.66.12-5.85,3.41a5.24,5.24,0,0,0,2,3,4.45,4.45,0,0,0,0,1.09,6.65,6.65,0,0,0,6.23,5.5,6,6,0,0,0,5.86-5.22,3.31,3.31,0,0,0,1.48-1A4.82,4.82,0,0,0,134.85,139.75Z"/><path d="M138.67,146.52c.63-2.24.31-4.71-1.7-6.22-2.46-1.84-5.34-.41-7.89.66-2.08-1.92-4.32-2.12-6.28.41-2.3,3,.63,5.53,1.68,8.4,1,2.67,2.5,4.84,5.7,4.51,3.37-.34,5.66-3.85,7.63-6.49a.39.39,0,0,0,.5-.24c.11-.26.2-.54.29-.81A.57.57,0,0,0,138.67,146.52Zm-12.43,4.95c-.94-1.46-1.15-3.33-2-4.85-.74-1.26-1.91-2.22-1-4.08a3.08,3.08,0,0,1,4.84-1.13c-.4.31-.15,1.08.4.88l.47-.19a.52.52,0,0,0,.58-.25c1.75-.77,4-1.83,5.6-1.39,2.64.7,3.27,3.52,2.62,5.84C135.39,149.22,130,157.24,126.24,151.47Z"/><path d="M154.92,77.25a87.71,87.71,0,0,1-4.81-11.45,10.57,10.57,0,0,0-4.51-5.68.43.43,0,0,0-.42,0c-2-2.81-3.51-5.76-5.91-8.26a29,29,0,0,0-3.37-3c-1.66-1.26-3.62-2.17-4.69-4h0c-1.47-3.51-2-6.95-2.88-10.69-.69-2.8-2.44-4-5.06-4.86h-.12a.44.44,0,0,0-.31-.12.59.59,0,0,0-.2,0,16.66,16.66,0,0,1-3.48-7.62c-.31-1.81.2-4-1.29-5.39a.49.49,0,0,0-.63,0,6.26,6.26,0,0,0-3.6,1.42.4.4,0,0,0-.08.57l0,.12c-.74,6.45-.76,15.13-5.46,20.17a.45.45,0,0,0-.12-.06c-1.88-.49-3.55-1.86-5.4-2.53a22.12,22.12,0,0,0-5.63-1.22.17.17,0,0,0-.1,0,11.87,11.87,0,0,0-2.64-1.72l-.14,0c-4.22-3.16,2.07-8,1.23-12.2s-6-2.91-9.06-2.74a.5.5,0,0,0-.37.19c-7.68-.22-17.8.07-19,9.59-3.54-.94-8-2.2-11.55-1.4s-6.3,4.37-8.4,7a.49.49,0,0,0-.41-.27c-2.66-.19-4.33,1.46-4.86,4a12.13,12.13,0,0,1-2.35,5A6.72,6.72,0,0,0,38,44.63l-.08,0a46.77,46.77,0,0,1-6.74,2.91,3,3,0,0,0-2.65-.79,4.28,4.28,0,0,0-1.87.87c-.47.36-1.35,1.77-1.95,2-2.45-.86-4.2.29-6,2-1.1,1-2.18,1.2-3.52,1.76a8,8,0,0,0-2.92,2.34C9.11,54.08,7.53,61.24,7,63a.44.44,0,0,0,0,.38A3.86,3.86,0,0,0,7,67c1.2,2.5,2.9,4.87,4.33,7.26a4.84,4.84,0,0,0-.56,2.83C8.87,77,8.07,78.66,8.29,80.61A16.65,16.65,0,0,0,10,85.43,30.15,30.15,0,0,1,12.2,92c.1,1.74,1.45,3.1,1.55,4.9.17,3-1.51,5.57-2.7,8.15-.45,1-1.13,2.12-.55,3.17s2.1,1.66,3.29,2.1a.48.48,0,0,0,.22.41c1.21.79,2.33.35,3.66.69s2.36,1.65,3.89,1.82c3.44.39,6.77-3.24,9.23-5.1a.52.52,0,0,0,.2-.54.53.53,0,0,0,.11.09,11.16,11.16,0,0,0,4.94,1.5,8.25,8.25,0,0,0,1.72-.29,7,7,0,0,1,4.18.24c3.54,1.28,3.91-1.34,5.84-3.47a.41.41,0,0,0,.39-.15c.9-1,3.5-.75,4.74-1.65.56-.41,1-.93,1.55-1.37a6,6,0,0,1,4-1.14C63,101.3,67,98.91,71.43,98.84a.47.47,0,0,0,.46-.36,13.07,13.07,0,0,0,7.18,3.36c2.4.43,4.12.68,6,2.46,1.7,1.64,1.93,3.25,2.64,5.32.5,1.45,1.59,3.13,3.35,3,2.36-.16,3.6-3.88,4.57-5.55a.66.66,0,0,0,.15,0c.53.09.46,1.79.53,2.21A3.57,3.57,0,0,0,97,111a2.46,2.46,0,0,0,2.54.82,9.85,9.85,0,0,0,3.32,4.43,20.1,20.1,0,0,0,3.43,9.37c1.71,2.3,4.1,2.53,6.76,2.35l0,0c2.13,1.51,4.68,2.94,7.16,1.3,2.14-1.41,2.76-3.39,5.73-.66,1,1,1.53,1.79,2.9,2.31l.16,0a.39.39,0,0,0,.34.29,4.2,4.2,0,0,0,2.68-.48c1.22-.54,2-1.24,3.34-1.21a23,23,0,0,0,2.34.18,4.89,4.89,0,0,0,3.77-2.83.5.5,0,0,0,.31-.23c1.47-2.52,1.42-5.55,2.08-8.33a36.6,36.6,0,0,1,4.1-10,.5.5,0,0,0-.86-.5,37.5,37.5,0,0,0-3.75,8.53c-.81,2.77-.79,6.05-1.92,8.74a.44.44,0,0,0-.26.23,8.34,8.34,0,0,1-1.61,2.52c-1.36,1.23-2.63.71-4.2.68-2.09,0-3.78,2-5.75,1.72a.66.66,0,0,0-.2,0,.46.46,0,0,0-.3-.32c-2.28-.86-3.29-4.43-6.14-3.88a5,5,0,0,0-2.23,1.4c-2.5,2.08-4.46,1.48-6.77-.08a.43.43,0,0,0-.47-.51h-.09a.41.41,0,0,0-.28-.1.46.46,0,0,0-.34.14c-2.84.15-4.89-.4-6.49-3.16a20.58,20.58,0,0,1-2.5-7.7.51.51,0,0,0-.1-.25.47.47,0,0,0-.21-.35,8.7,8.7,0,0,1-3.09-4.11.49.49,0,0,0-.44-.7l-.12,0a.49.49,0,0,0-.26,0c-1.9.86-2.3-1.43-2.43-2.72-.09-.76-.2-1.76-1.12-1.92a.54.54,0,0,0-.55.26.47.47,0,0,0-.72.12c-.63,1.07-1.24,2.14-1.87,3.2A3.11,3.11,0,0,1,89.54,111c-.55-.24-.92-1.81-1.1-2.4a10,10,0,0,0-3-5.26c-3.74-3.35-9.18-1.91-12.88-5.58a.5.5,0,0,0-.82.21.46.46,0,0,0-.32-.12,24.43,24.43,0,0,0-6.81,1.35,23.94,23.94,0,0,1-4.87,1.14c-1.1.1-2.25-.07-3.34.13-1.79.32-2.64,1.62-4.06,2.58s-3.14.54-4.4,1.39a.45.45,0,0,0-.44.12,11.1,11.1,0,0,0-1.73,2.4c-1.53,2.4-3.26,1-5.34.59a5.75,5.75,0,0,0-2.56.29c-2.46.61-4,.09-6.28-1a.53.53,0,0,0-.75.52.4.4,0,0,0-.57-.06c-2.48,1.88-6.41,6.15-9.86,4.55a20.33,20.33,0,0,0-2.17-1.25c-1.08-.37-2.31-.07-3.36-.52a.5.5,0,0,0-.33-.51c-1.67-.64-3-1.47-2.83-3.58a10.35,10.35,0,0,1,1.18-2.44,19.2,19.2,0,0,0,1.6-4.13A8.71,8.71,0,0,0,14.65,96c-.22-1.18-1.06-2.28-1.36-3.45a.38.38,0,0,0,0-.15c0-.18-.07-.35-.11-.53s0-.21,0-.32a.41.41,0,0,0-.13-.35,24.89,24.89,0,0,0-1.48-4.75c-.53-1.25-1.19-2.44-1.67-3.72-.36-1-1.83-5.32,1.28-4.6a.51.51,0,0,0,.62-.62,3.37,3.37,0,0,1,.39-2.84.47.47,0,0,0,0-.45.43.43,0,0,0,0-.45L9.5,69.3c-1.2-2-2.61-3.6-1.27-6.1a.49.49,0,0,0-.09-.59c.59-2.13,2-7.22,4-5.78a.43.43,0,0,0,.66-.18h0A6.56,6.56,0,0,1,16.8,54c.6-.1.85.16,1.45-.2s.89-1.08,1.28-1.52a4.53,4.53,0,0,1,4.67-1.75.39.39,0,0,0,.39.18l.12,0a.39.39,0,0,0,.51-.18c.6-.33.94-1,1.46-1.52,1-1.06,3-2.07,4.1-.46a.53.53,0,0,0,.93-.12A47.44,47.44,0,0,0,38.1,45.7a.53.53,0,0,0,.84-.38c.15-2.29,2.21-3.55,3-5.54,1-2.5.61-6.07,4.49-5.79l.19,0c.12.32.51.52.78.18,2-2.5,4.84-6.22,8.11-6.94,3.64-.8,8.33.7,11.86,1.61a.5.5,0,0,0,.43-.88.56.56,0,0,0,0-.34c1.18-9.17,11.7-8.76,18.76-8.52a.44.44,0,0,0,.44-.29c2.83-.26,7.39-.83,7.32,3,0,2.26-1.58,3.71-2.42,5.64a5,5,0,0,0,2.21,6.62.45.45,0,0,0,.33,0A11.32,11.32,0,0,1,96.84,36a.51.51,0,0,0,.85-.31,21.1,21.1,0,0,1,5.55,1.48c1.44.61,2.73,1.63,4.23,2.08a.51.51,0,0,0,.85.32c5.41-5.22,5.37-14.33,6.18-21.34a.13.13,0,0,0,0-.09,5.15,5.15,0,0,1,2.79-1h.06c.76,1,.58,2.78.72,3.91a17.06,17.06,0,0,0,1,3.91,18.4,18.4,0,0,0,3.5,5.68.47.47,0,0,0,.82-.25c1.89.67,3.32,1.61,3.92,3.67.4,1.38.49,2.86.76,4.27a33.58,33.58,0,0,0,2.89,8.31.42.42,0,0,0,.58.2c1.72,1.78,4.16,3,5.93,4.64,2.92,2.71,4.67,6,6.93,9.22a.51.51,0,0,0,.59.19.5.5,0,0,0,.15.18,9.8,9.8,0,0,1,3.38,3.33,42.59,42.59,0,0,1,1.9,5.21,80.75,80.75,0,0,0,3.69,8.23C154.35,78.33,155.21,77.82,154.92,77.25Z"/></g></svg>