<svg xmlns="http://www.w3.org/2000/svg" viewBox="0 0 235 350"><defs><style>.cls-1{fill:#808285;}.cls-2{fill:#58595b;}.cls-3{fill:#e6e7e8;}.cls-4{fill:#231f20;}</style></defs><title>Artboard 7</title><g id="Layer_2" data-name="Layer 2"><path class="cls-1" d="M36.18,166q-.48,35.47.35,71a177.39,177.39,0,0,1,1,28.18v0c.93,16.77-.12,33.53-.68,50.29-.34.42-.65.87-1,1.32.2,2,.31,3.95.39,5.91.63,5.18.75,10.41,1.16,15.62.56,0,1.13,0,1.69,0A16,16,0,0,0,48,342.52c1.78,0,3.56,0,5.34.08l1.32,0,.19.08c6.6.23,13.21.7,19.94,1,14.91.55,29.92-.43,44.81-1.29,15.91-.91,31.86-1.26,47.8-1.72l.58-.34c0,.11,0,.22.05.33l11.66-.37V306c-.08-97.28-.83-194.6-6-291.76-2.54-.67-5.09-1.33-7.64-2q-1.68-.24-3.39-.42c-13.58,2.13-27.37,3.16-40.9,5.44-5.16.88-10.35,1.37-15.55,1.84-1,.16-2,.33-3.06.48-2.78.21-5.56.45-8.34.69-5.83,1.25-11.73,2.25-17.65,3.19-9,2-18.08,3.17-27.13,4.73q-6,1.49-12,3.2a2.48,2.48,0,0,0-.19.7c-.16,1.15-.3,2.29-.44,3.43a219.83,219.83,0,0,1-.68,35.08q.11,6.34.08,12.69c-.11,26-.45,52.09-1.36,78.12C35.75,163,36,164.48,36.18,166Z"/></g><g id="Layer_3" data-name="Layer 3"><path class="cls-2" d="M181.09,336.91c-1.77-10.75-.28-21.67-2.18-32.34a2.29,2.29,0,0,0-.49-1.09,3.13,3.13,0,0,0-.19-.54,2.15,2.15,0,0,0-1.52-1.44l-.34-.48a2,2,0,0,0-2.94-.38,2.5,2.5,0,0,0-1.28,0l-67.67,15.72C82.72,321.4,61,326.68,40.13,334.89a2.73,2.73,0,0,0-1.31,3.89,2.61,2.61,0,0,0,2.76,3.84l2.16-.4,21.68-.3a2.2,2.2,0,0,0,2.09,1.17l54-1.06c7.44.09,14.89,0,22.32-.37l1.74-.1,29-.56a2.35,2.35,0,0,0,2.27-1.65C178.12,341,181.54,339.59,181.09,336.91Z"/><path class="cls-2" d="M176.85,57.06c-.63-2.37-1.18-4.74-1.68-7.12L173,31.38q-.69-5.88-1.39-11.78a31.43,31.43,0,0,0-.6-5c0-.39-.06-.78-.08-1.17A2.52,2.52,0,0,0,168.7,11a6.72,6.72,0,0,0-4.17-.26c-1.81.32-3.61.7-5.42,1.07-2,.2-3.9.43-5.84.67-4.54.54-9.08,1.19-13.6,1.9-12.37,1.32-24.71,3-37,4.81C86,21.76,69.2,24.14,52.92,28.58c-3.37.27-6.76.49-10.16.61A2.29,2.29,0,0,0,41,28.45a2.43,2.43,0,0,0-2.34,3.12,2.91,2.91,0,0,0,0,.66,2.06,2.06,0,0,0-1.46,2.87c3.2,8.17,14.91,7,22,7.77q19.51,2.09,38.91,5Q135.7,53.5,172.68,62.2a2.54,2.54,0,0,0,3.11-2.46A2.29,2.29,0,0,0,176.85,57.06Z"/></g><g id="Layer_4" data-name="Layer 4"><path class="cls-3" d="M179.58,133.15a3.49,3.49,0,0,0-1.51-3.13,4.12,4.12,0,0,0-2.28-5.22,3.64,3.64,0,0,0-2.28-1.58l-2.33-.59a3.5,3.5,0,0,0-2-1c-2.28-.38-4.52-.88-6.74-1.43-1.77-.5-3.55-1-5.34-1.44l-5.78-1.67c-13-2-26.09-3.57-39.2-4.94a3.23,3.23,0,0,0-2.6,2.14,2.37,2.37,0,0,0-1.52,2.18,604.74,604.74,0,0,0,4.49,106.84,2.71,2.71,0,0,0,2.45,2.34,2.44,2.44,0,0,0,1.33.46c9.73.55,19.79-1.6,29.43-2.8L175,219.67a2.65,2.65,0,0,0,2.21-1.8,3.5,3.5,0,0,0,3.4-3.83Q178.56,173.63,179.58,133.15Z"/></g><g id="Layer_6" data-name="Layer 6"><path class="cls-4" d="M181.7,143.64a1.21,1.21,0,0,0,.33-.07c-.14-3.65.12-7.4,0-10.55-.24-5.44-1.94-12.16-.85-17.82,0-.25,0-.5,0-.75a2.6,2.6,0,0,1,.05-.39,2.09,2.09,0,0,0-.28-.24c-1-33.86-2.27-67.73-6-101.41a2.1,2.1,0,0,0-1.77-1.86,1.88,1.88,0,0,0-1.5-.76c-10.94-.39-22,1.68-32.78,3.11s-21.66,2.95-32.47,4.53-21.91,3.28-32.85,5S51.33,27,40.18,26.82a38,38,0,0,0-3.54,1.45c1.28,11.43,2.35,23.81.79,35.36,0,1.24.07,2.48,0,3.73.07-.84.15-1.68.22-2.52,0,.71,0,1.42,0,2.13.27,11.85-1,23.35-1.7,35.14s.17,23.58,0,35.34c-.16,10.05-.56,20.1-1,30.15.87,15.29,1.25,30.56-.78,45.78.24,3.22.55,6.45.51,9.69-.06,5.52-.58,11-.86,16.54a2.67,2.67,0,0,1-.42,1.36c.29,13.65,2.22,27.29,2.89,40.93a6.64,6.64,0,0,1,.39,3.64c0,.13.06.26.08.41.53,5.95-.26,11.86-1,17.76.49,5.86,0,11.68,0,17.63.05,6.89,1.27,13.69,1.72,20.55A19.2,19.2,0,0,0,41,345.25c45.71-1.69,91.49-4.14,137.24-3.66a1.83,1.83,0,0,0,1.52-.71,1.75,1.75,0,0,0,1-1.73c-1.19-38.88.51-77.95,1.69-116.88l.16-.06A89.72,89.72,0,0,1,183,209c0-.95-.05-1.89-.05-2.83s.05-1.87.07-2.8a1.8,1.8,0,0,0,0-.41c.09-3.55.28-7.1.45-10.66a199.79,199.79,0,0,0-.52-24.47Q182,155.73,181.7,143.64Zm-141-112.8c9.78.1,19.52-2.17,29.12-3.74q16.89-2.75,33.8-5.24,17.15-2.53,34.31-4.83c10.93-1.45,22.1-3.57,33.16-3.25,1.7,15.4,2.87,30.84,3.74,46.3q-34-7-67.91-14.63-17.31-3.91-34.58-8C61.74,34.92,51.2,31.93,40.36,31A1.14,1.14,0,0,0,40.65,30.84Zm1,310.39-.54-.54a1.87,1.87,0,0,0-.61-.39c43.68-18,90-26.94,135.89-37.1-.07,11.47,0,22.93.33,34.38C131.71,337.17,86.66,339.56,41.67,341.23Zm134.78-42a2.07,2.07,0,0,0-.65,0c-45.69,10.11-91.73,19-135.22,36.75a226.64,226.64,0,0,0-1-32.75,2,2,0,0,0,.56-1.24c2.06-21.89-2.87-43.8-2.67-65.73,0-4.56.17-9.12.34-13.68q.66-8.28.67-16.6c.39-10.26.61-20.52,0-30.78a2,2,0,0,0,.23-.87c.54-12,1.07-23.93,1.29-35.91s-.69-24.27,0-36.33c.68-11.47,2-22.68,1.72-34.2-.23-11-.64-21.93-1-32.9,11,1,21.7,4.2,32.38,6.73q17.26,4.09,34.58,8Q141.29,57.32,175,64.21c1,18.7,1.57,37.42,2.13,56.14a2,2,0,0,0,.47,1.24c0,.2,0,.39,0,.59a403.76,403.76,0,0,0-68-11.36h-.29A2.18,2.18,0,0,0,106,113c2.65,18.46-.81,37.62-1,56.17a428.1,428.1,0,0,0,3.27,55.9,2.19,2.19,0,0,0,2.34,1.89,1.92,1.92,0,0,0,.69.1l67.07-2.81C177.64,249.2,176.69,274.22,176.45,299.21Zm2.41-90.91c-.1,4-.22,7.95-.33,11.93L112.07,223a426.61,426.61,0,0,1-3-55.81c.22-17.35,3.08-35,1.16-52.32a397.81,397.81,0,0,1,67.34,11.41Q177.4,148,179,169.68C180,182.47,178.38,195.48,178.86,208.3Z"/></g></svg>