<svg id="Layer_2" data-name="Layer 2" xmlns="http://www.w3.org/2000/svg" viewBox="0 0 90 35"><defs><style>.cls-1{fill:#fff;}.cls-2{fill:#231f20;}</style></defs><title>Artboard 5</title><rect class="cls-1" x="-24.89" y="-19.41" width="129" height="71.83"/><path class="cls-2" d="M89.17,8.58l-.1,0h0v0a.49.49,0,0,0,0-.24V8.22a.11.11,0,0,0-.1-.07h-.06a1.88,1.88,0,0,0-.6,0H88.2L87,8.14a19.68,19.68,0,0,0-2.77-.09,25.11,25.11,0,0,0-3.68,0l-.36,0c-.07,0-.09,0-.09.1h-.12a.12.12,0,0,0-.07.07A.25.25,0,0,0,80,8.5h-.16a.09.09,0,0,0-.1.09c0,.49.88.33,1.15.33.9,0,1.79,0,2.69,0,1.71,0,3.43-.09,5.14-.18l.41,0C89.25,8.78,89.27,8.61,89.17,8.58ZM80,8.7a5.65,5.65,0,0,1,1.06,0,1.73,1.73,0,0,0,.32,0l.11,0h0C81.37,8.74,80,8.71,80,8.7Z"/><path class="cls-2" d="M89.34,7A68.29,68.29,0,0,0,80,6.94c-.13,0-.13.2,0,.19a69.92,69.92,0,0,1,9.38.08C89.47,7.22,89.46,7,89.34,7Z"/><path class="cls-2" d="M89,7.51a48.8,48.8,0,0,0-7.55-.14l-1.44,0c-.13,0-.13.19,0,.19h.24c0,.06,0,.11.09.1l1.11-.07L89,7.71C89.17,7.71,89.16,7.53,89,7.51Z"/><path class="cls-2" d="M89.2,25.45c-3.17-.08-6.35-.1-9.53-.08a.1.1,0,0,0,0,.2q4.77,0,9.53.07A.1.1,0,0,0,89.2,25.45Z"/><path class="cls-2" d="M88.12,26.16l-2.72,0-1.05,0L82,26.2a10.93,10.93,0,0,0-1.81,0,.79.79,0,0,0-.22.06h0v-.09a.1.1,0,1,0-.19,0v.09s0,0,0,0a.08.08,0,0,0,0,.08v0l0,.07h-.07c-.09,0-.14.14,0,.18l.06,0a.71.71,0,0,0,0,.14s.05.07.09.07a39.4,39.4,0,0,0,5.75.07c.8.06,1.61.13,2.41.12l.21,0a2.84,2.84,0,0,0,1-.25.09.09,0,0,0,0-.08C89.15,26.15,88.57,26.15,88.12,26.16Zm-.3.2c-.09,0-.11.16,0,.18s.32,0,.46.05h.11a.48.48,0,0,1-.31.3,4.85,4.85,0,0,1-.66,0h.14c.13,0,.13-.2,0-.19l-1.35.07-.84-.05h1.47a.09.09,0,0,0,.08-.05h.25c.12,0,.12-.2,0-.19H85.83l.58,0a.1.1,0,0,0,.08,0h1.33Zm-7.56,0a2,2,0,0,1,.65,0l-.37.1h-.47A.22.22,0,0,1,80.26,26.4Zm8.51.36-.16,0a.41.41,0,0,0,0-.39.09.09,0,0,0-.11-.05,1.22,1.22,0,0,1-.63,0H88a1.88,1.88,0,0,1,.53,0C88.76,26.34,88.83,26.47,88.77,26.76Z"/><path class="cls-2" d="M88.9,25.88a24.47,24.47,0,0,0-4.19.09c-1.51,0-3-.06-4.52-.09a.1.1,0,0,0,0,.2c1.44,0,2.89.07,4.33.08a26.12,26.12,0,0,1,4.33-.09C89,26.09,89,25.91,88.9,25.88Z"/><path class="cls-2" d="M88.73,23.48c-2.81-.08-5.63-.12-8.45-.14a.1.1,0,0,0,0,.19q4.23,0,8.45.14A.1.1,0,1,0,88.73,23.48Z"/><path class="cls-2" d="M79.81,25a.1.1,0,0,0,0,.19A.1.1,0,1,0,79.81,25Z"/><path class="cls-2" d="M88.92,25.07l-1.4-.1c.06,0,0-.18-.06-.17a1.34,1.34,0,0,1-.75-.17.1.1,0,0,0-.09.17,1.43,1.43,0,0,0,.34.14q-.72,0-1.44-.06a.09.09,0,0,0-.08-.14,1.34,1.34,0,0,1-.76-.13c-.11-.05-.21.12-.1.17a1.09,1.09,0,0,0,.23.09c-1.55,0-3.11,0-4.67.13-.12,0-.12.2,0,.2a54.76,54.76,0,0,1,8.78.07C89,25.28,89,25.09,88.92,25.07Z"/><path class="cls-2" d="M82.16,23.67l-1.45.06a.1.1,0,0,0,0,.2l1.45-.06C82.28,23.86,82.28,23.67,82.16,23.67Z"/><path class="cls-2" d="M84.15,23.88a2.1,2.1,0,0,0-.75,0l-.05,0a.09.09,0,0,0-.06,0,.1.1,0,0,0,0,.2.08.08,0,0,0,.07,0,.09.09,0,0,0,.09,0,1.77,1.77,0,0,1,.65,0C84.22,24.09,84.28,23.9,84.15,23.88Z"/><path class="cls-2" d="M83.73,24.39a2.89,2.89,0,0,0-.77-.13c-.13,0-.13.18,0,.19a2.85,2.85,0,0,1,.72.12A.09.09,0,1,0,83.73,24.39Z"/><path class="cls-2" d="M82.16,24.65a3.41,3.41,0,0,1-1.15,0c-.13,0-.18.16-.06.19a4.09,4.09,0,0,0,1.21.06C82.28,24.83,82.28,24.64,82.16,24.65Z"/><path class="cls-2" d="M82.37,24.09a1.37,1.37,0,0,1-.75-.07c-.12,0-.17.15-.05.19a1.63,1.63,0,0,0,.85.07C82.54,24.26,82.49,24.07,82.37,24.09Z"/><path class="cls-2" d="M86.24,23.88H85.5a.05.05,0,0,0,0,0c-.12,0-.13.18,0,.19a.06.06,0,0,0,.06,0h.75A.1.1,0,0,0,86.24,23.88Z"/><path class="cls-2" d="M88.28,23.9a1.56,1.56,0,0,1-.61,0c-.12,0-.17.17,0,.19a1.88,1.88,0,0,0,.71,0A.1.1,0,0,0,88.28,23.9Z"/><path class="cls-2" d="M89,24.68l-.47-.11c-.12,0-.17.16,0,.19l.47.11A.1.1,0,0,0,89,24.68Z"/><path class="cls-2" d="M88.73,12.27a44.3,44.3,0,0,1-8.54-.11c-.12,0-.12.18,0,.19a43.52,43.52,0,0,0,8.54.11C88.85,12.45,88.85,12.25,88.73,12.27Z"/><path class="cls-2" d="M89,14.17c-1.62-.05-3.25-.1-4.87-.12L81.7,14H80.55c-.22,0-.44,0-.61.1a.08.08,0,0,0,0,.09.17.17,0,0,0,.14.14.11.11,0,0,0,.11,0l0,0a.08.08,0,0,0,0-.08l.36,0h1.72l2.2,0c1.5,0,3,.06,4.49.12A.1.1,0,0,0,89,14.17Z"/><path class="cls-2" d="M89,16c-2.93-.48-5.89,0-8.84-.14-.12,0-.12.19,0,.2,2.93.17,5.88-.35,8.79.13C89,16.21,89.07,16,89,16Z"/><path class="cls-2" d="M88.58,18.06a50.26,50.26,0,0,0-8.76-.19c-.13,0-.13.21,0,.2l.79-.05v.21a.1.1,0,1,0,.19,0v-.18s0,0,0,0a50.64,50.64,0,0,1,7.79.24C88.71,18.26,88.71,18.07,88.58,18.06Z"/><path class="cls-2" d="M88.73,19.58a67.31,67.31,0,0,0-8.87-.08.1.1,0,0,0,0,.2,67.31,67.31,0,0,1,8.87.07C88.86,19.78,88.86,19.59,88.73,19.58Z"/><path class="cls-2" d="M88.45,21.38H80.38a.1.1,0,0,0,0,.2h8.07A.1.1,0,0,0,88.45,21.38Z"/><path class="cls-2" d="M81.81,23.11a1.22,1.22,0,0,1-.6-.06.08.08,0,0,0-.11.07,1.5,1.5,0,0,1-.29-.06.09.09,0,1,0,0,.18,2.16,2.16,0,0,0,1,.06h0C81.94,23.28,81.91,23.1,81.81,23.11Z"/><path class="cls-2" d="M80.82,22.6a.39.39,0,0,1-.26,0c-.11-.05-.21.11-.09.17a.61.61,0,0,0,.4,0C81,22.76,80.94,22.57,80.82,22.6Z"/><path class="cls-2" d="M81.22,22.28a.21.21,0,0,1-.24,0,.1.1,0,0,0-.09.17.44.44,0,0,0,.43,0C81.42,22.38,81.32,22.21,81.22,22.28Z"/><path class="cls-2" d="M81.74,21.66H81.6a.1.1,0,0,0,0,.18.19.19,0,0,0,0,.27c.1.08.2-.09.1-.16h0a.08.08,0,0,0,.06-.1A.1.1,0,0,0,81.74,21.66Z"/><path class="cls-2" d="M82.65,21.78a.2.2,0,0,0-.13,0h0a.09.09,0,0,0,0-.08c-.11-.07-.23,0-.21.16a.15.15,0,0,0,.12.11h0a.1.1,0,0,0,.14.09l.16-.09A.09.09,0,0,0,82.65,21.78Z"/><path class="cls-2" d="M84.08,22.08h-.33a.9.9,0,0,0-.28,0c-.13,0-.07.2,0,.18h.06a3.43,3.43,0,0,1-.45.16.1.1,0,0,0,.05.19,3.52,3.52,0,0,0,.84-.37h.06C84.21,22.29,84.21,22.09,84.08,22.08Z"/><path class="cls-2" d="M84.5,22.84a.1.1,0,0,1-.16-.05c0-.11-.22,0-.16.1a.29.29,0,0,0,.42.12C84.7,22.94,84.61,22.77,84.5,22.84Z"/><path class="cls-2" d="M85.35,22.27a1.32,1.32,0,0,1-.44-.05.1.1,0,0,0,0,.19,1.34,1.34,0,0,0,.49.05C85.47,22.45,85.48,22.26,85.35,22.27Z"/><path class="cls-2" d="M85.58,22a.42.42,0,0,1-.16-.25c0-.12-.2-.13-.19,0a.56.56,0,0,0,.26.41C85.59,22.24,85.69,22.08,85.58,22Z"/><path class="cls-2" d="M87.25,22.19l-.85-.27c-.11,0-.17.14-.05.18l.85.28C87.32,22.42,87.37,22.23,87.25,22.19Z"/><path class="cls-2" d="M89.17,23.07c-.15-.32-.5-.37-.75-.57s-.25-.26-.4-.36a4.29,4.29,0,0,1-.63-.36c-.09-.09-.22,0-.13.13a1.44,1.44,0,0,0,.44.28,1.44,1.44,0,0,1,.48.37c.24.23.68.3.82.61C89.06,23.28,89.22,23.19,89.17,23.07Z"/><path class="cls-2" d="M88.19,22.84l-.37-.06c-.12,0-.18.17,0,.19l.37.06C88.26,23.05,88.31,22.86,88.19,22.84Z"/><path class="cls-2" d="M86.83,22.74a1.3,1.3,0,0,0-.52,0c-.12,0-.07.23,0,.19a1,1,0,0,1,.42,0C86.9,23,87,22.76,86.83,22.74Z"/><path class="cls-2" d="M88.82,22.08a.56.56,0,0,0-.3.12c-.09.09,0,.22.14.14a.33.33,0,0,1,.16-.07C89,22.26,89,22.07,88.82,22.08Z"/><path class="cls-2" d="M80.85,18.36a1.12,1.12,0,0,0-.45.07c-.12,0-.07.22,0,.18a1.34,1.34,0,0,1,.4-.06A.1.1,0,0,0,80.85,18.36Z"/><path class="cls-2" d="M80.56,19a.18.18,0,0,1-.21,0c-.09-.09-.23.05-.14.13a.38.38,0,0,0,.45.06C80.77,19.1,80.67,18.94,80.56,19Z"/><path class="cls-2" d="M81.87,18.75a.18.18,0,0,1-.22-.06c-.08-.09-.22,0-.13.14a.38.38,0,0,0,.45.09C82.08,18.87,82,18.7,81.87,18.75Z"/><path class="cls-2" d="M82.72,18.59a1.74,1.74,0,0,1-.69-.25c-.1-.06-.2.11-.09.17a1.83,1.83,0,0,0,.61.25c0,.07.09.14.15.06l.06-.06C82.8,18.71,82.8,18.61,82.72,18.59Z"/><path class="cls-2" d="M85.12,18.89a1,1,0,0,1-.38-.09.09.09,0,0,0-.09-.1.09.09,0,0,0-.07,0,.06.06,0,0,0-.08,0,2.92,2.92,0,0,1-.78,0c-.16,0-.35-.14-.5-.08a.11.11,0,0,0-.08.09.13.13,0,0,0,0,.12.11.11,0,0,0,.12,0h0l0,0c.07,0,.15,0,.21.06l.28.05a3.42,3.42,0,0,0,.64,0h0a.1.1,0,0,0,0,.05,1.22,1.22,0,0,0,.56.17C85.24,19.09,85.24,18.9,85.12,18.89Z"/><path class="cls-2" d="M82.77,18.14a.1.1,0,0,0,0,.19A.1.1,0,0,0,82.77,18.14Z"/><path class="cls-2" d="M83.12,18l-.14.05c-.12,0-.07.23,0,.19l.14-.05C83.29,18.19,83.24,18,83.12,18Z"/><path class="cls-2" d="M85.14,18.23a1.19,1.19,0,0,1-.59-.07c-.11-.05-.21.11-.09.16a1.29,1.29,0,0,0,.73.1C85.31,18.4,85.26,18.22,85.14,18.23Z"/><path class="cls-2" d="M86.5,18.81l-.84.18c-.13,0-.07.21,0,.19l.84-.18C86.67,19,86.62,18.79,86.5,18.81Z"/><path class="cls-2" d="M87.11,18.19a1,1,0,0,1-.49.09c-.13,0-.12.19,0,.19a1.23,1.23,0,0,0,.54-.09C87.28,18.34,87.23,18.15,87.11,18.19Z"/><path class="cls-2" d="M87.58,19.19a3.31,3.31,0,0,0-.77-.09c-.13,0-.13.18,0,.19a3.55,3.55,0,0,1,.72.09C87.65,19.4,87.7,19.22,87.58,19.19Z"/><path class="cls-2" d="M88.4,18.85a.2.2,0,0,0-.09.21c0,.11.2.07.19,0A.1.1,0,0,0,88.4,18.85Z"/><path class="cls-2" d="M81.08,16.45a.74.74,0,0,1-.55-.2c-.08-.08-.2,0-.15.12h0c-.13,0-.18.16-.06.18a.87.87,0,0,1,.31.14.1.1,0,0,0,.14-.09.74.74,0,0,0,.33.05C81.2,16.63,81.2,16.44,81.08,16.45Z"/><path class="cls-2" d="M83.58,16.71a1.07,1.07,0,0,1-.53.05.29.29,0,0,0-.19-.06.1.1,0,0,0,0,.19l.13,0a0,0,0,0,0,0,0,.08.08,0,0,0,.11,0,1.11,1.11,0,0,0,.54-.07C83.74,16.85,83.69,16.66,83.58,16.71Z"/><path class="cls-2" d="M82.37,17.11a1.18,1.18,0,0,1-.56-.08c-.12-.05-.17.13-.06.18a1.28,1.28,0,0,0,.67.08C82.54,17.27,82.49,17.09,82.37,17.11Z"/><path class="cls-2" d="M82.44,17.31c-.09,0-.9.05-1.27.09a.13.13,0,0,0-.17-.1.12.12,0,0,0-.07.07c0,.2.11.23.28.23l1.23-.09C82.56,17.5,82.56,17.3,82.44,17.31Z"/><path class="cls-2" d="M85.35,17.09a6.06,6.06,0,0,1-.74,0c-.12,0-.12.19,0,.2h.13c.21,0,.41,0,.61,0S85.48,17.08,85.35,17.09Z"/><path class="cls-2" d="M85.92,16.18a6.41,6.41,0,0,0-1,.13.1.1,0,0,0,0,.19,4.83,4.83,0,0,1,.93-.12C86,16.37,86,16.18,85.92,16.18Z"/><path class="cls-2" d="M87.91,16.59a2.49,2.49,0,0,1-.77,0c-.13,0-.13.18,0,.2a2.83,2.83,0,0,0,.82,0C88.08,16.76,88,16.57,87.91,16.59Z"/><path class="cls-2" d="M87.21,17.2a3.74,3.74,0,0,0-.87-.13.1.1,0,0,0,0,.2,3.24,3.24,0,0,1,.82.11A.09.09,0,0,0,87.21,17.2Z"/><path class="cls-2" d="M87.7,17.73l-1-.06c-.12,0-.12.19,0,.19l1,.06C87.82,17.93,87.82,17.73,87.7,17.73Z"/><path class="cls-2" d="M88.7,17.4a1.06,1.06,0,0,0-.56,0,.1.1,0,0,0,0,.19.9.9,0,0,1,.46,0C88.77,17.63,88.82,17.45,88.7,17.4Z"/><path class="cls-2" d="M81.78,14.48a5.47,5.47,0,0,0-1.06.08c-.12,0-.07.21.06.19a5.62,5.62,0,0,1,1-.08A.1.1,0,1,0,81.78,14.48Z"/><path class="cls-2" d="M81.15,15.24,80,15.06a.1.1,0,0,0-.08,0c0-.06,0-.14-.09-.14a.1.1,0,0,0,0,.19.08.08,0,0,0,.06,0,.08.08,0,0,0,.06.13l1.17.18C81.22,15.45,81.27,15.26,81.15,15.24Z"/><path class="cls-2" d="M82.77,15.47,81,15.58c-.12,0-.12.2,0,.19l1.74-.11C82.89,15.65,82.89,15.46,82.77,15.47Z"/><path class="cls-2" d="M85,15.37a1.76,1.76,0,0,1-1.13.09.1.1,0,0,0,0,.19A2,2,0,0,0,85,15.56C85.11,15.51,85.07,15.32,85,15.37Z"/><path class="cls-2" d="M84.88,14.5l-1.45.1c-.12,0-.12.2,0,.2l1.45-.1C85,14.69,85,14.5,84.88,14.5Z"/><path class="cls-2" d="M86.85,15a4,4,0,0,1-.77,0h0c-.11-.06-.21.11-.1.17h0l.06,0a.09.09,0,0,0,.1,0,4.09,4.09,0,0,0,.7,0C87,15.17,87,15,86.85,15Z"/><path class="cls-2" d="M88.4,14.8a1.57,1.57,0,0,1-.88-.13c-.11-.05-.21.11-.1.16a1.84,1.84,0,0,0,1,.17C88.52,15,88.53,14.79,88.4,14.8Z"/><path class="cls-2" d="M88.12,15.51l-1.24,0c-.18,0-.43-.06-.49.16a.09.09,0,0,0,.18,0,8.13,8.13,0,0,1,1.55,0C88.24,15.71,88.24,15.51,88.12,15.51Z"/><path class="cls-2" d="M83.47,13.22a.6.6,0,0,1-.14.21.33.33,0,0,0-.13.07s0,0,0,.05a.31.31,0,0,1-.1,0,.1.1,0,0,0,.05.19,1.08,1.08,0,0,0,.45-.2.1.1,0,0,0,0-.14,1.62,1.62,0,0,0,.1-.18C83.71,13.15,83.52,13.1,83.47,13.22Z"/><path class="cls-2" d="M82.24,13.42a.1.1,0,0,0,0,.2A.1.1,0,0,0,82.24,13.42Z"/><path class="cls-2" d="M81.22,13l-.14,0c-.11,0-.06.23.06.19l.14,0C81.39,13.09,81.34,12.91,81.22,13Z"/><path class="cls-2" d="M82.57,13a10.65,10.65,0,0,1-1.13,0c-.12,0-.12.18,0,.19a7.11,7.11,0,0,0,1.13,0C82.69,13.13,82.69,12.94,82.57,13Z"/><path class="cls-2" d="M80.73,12.79a.62.62,0,0,0-.71,0c-.11.06,0,.23.1.17a.45.45,0,0,1,.52,0C80.74,13,80.83,12.86,80.73,12.79Z"/><path class="cls-2" d="M81.37,13.8a.26.26,0,0,1-.24-.06.09.09,0,1,0-.13.13.43.43,0,0,0,.42.11A.09.09,0,1,0,81.37,13.8Z"/><path class="cls-2" d="M84.63,12.82a7.57,7.57,0,0,1-.94-.07.11.11,0,0,0-.12-.12.27.27,0,0,0-.19.14.09.09,0,0,0,.05.14,9.73,9.73,0,0,0,1.2.11A.1.1,0,0,0,84.63,12.82Z"/><path class="cls-2" d="M88.15,13.09a.15.15,0,0,0-.07,0s0,0-.07,0-.1-.14-.13-.19a.5.5,0,0,0-.14-.15.6.6,0,0,0-.49,0,.11.11,0,0,0-.06.07.09.09,0,0,0-.07,0,2.54,2.54,0,0,0-1.06.13.1.1,0,0,0,0,.19,2.31,2.31,0,0,1,1-.13.09.09,0,0,0,.09-.07.15.15,0,0,0,.07,0,1.61,1.61,0,0,0,.37,0,.36.36,0,0,1,.1.15c.06.11.13.2.26.2l.07,0a.15.15,0,0,0,.07,0A.1.1,0,0,0,88.15,13.09Z"/><path class="cls-2" d="M85.43,13.41a3.47,3.47,0,0,1-.91-.16c-.12,0-.17.14-.06.18a3.24,3.24,0,0,0,1,.17C85.56,13.61,85.56,13.41,85.43,13.41Z"/><path class="cls-2" d="M86.48,13.56l-.6-.18a.09.09,0,1,0,0,.18h0c-.1,0,0,.2.07.18a1.46,1.46,0,0,1,.51,0A.1.1,0,0,0,86.48,13.56Z"/><path class="cls-2" d="M87.19,13.29l-.33,0c-.12,0-.07.21,0,.19l.33,0C87.36,13.46,87.31,13.27,87.19,13.29Z"/><path class="cls-2" d="M87.72,13.91l-.23,0a.1.1,0,0,0-.09-.12h-.09a.09.09,0,0,0-.09.1h-.06a.1.1,0,0,0-.14-.1l-.32.15c-.11,0,0,.2.07.18a2,2,0,0,1,.9,0A.1.1,0,0,0,87.72,13.91Z"/><path class="cls-2" d="M88.19,13.62a.09.09,0,0,0-.08-.06.1.1,0,0,0-.09.06.08.08,0,0,0-.09.13.22.22,0,0,0,.35,0C88.35,13.71,88.27,13.61,88.19,13.62Z"/><path class="cls-2" d="M88.89,13.05a.42.42,0,0,0-.24-.23h0a.1.1,0,0,0-.05-.19.38.38,0,0,0-.25.24c0,.05,0,.13.1.12a.25.25,0,0,1,.28.16C88.78,13.26,88.94,13.16,88.89,13.05Z"/><path class="cls-2" d="M88.89,13.66l0,0-.1-.05c-.11-.05-.21.11-.09.17l.09,0s0,0,0,0a.1.1,0,0,0,.19,0v-.05C89,13.69,89,13.66,88.89,13.66Z"/><path class="cls-2" d="M85.46,12a.1.1,0,0,0-.15,0,.1.1,0,0,0-.09,0,.51.51,0,0,0-.4,0c-.11.05,0,.22.1.16a.29.29,0,0,1,.27,0,.1.1,0,0,0,.13-.05C85.44,12.19,85.58,12.09,85.46,12Z"/><path class="cls-2" d="M82.75,11.53a.1.1,0,0,0-.07.07h0l-.19,0a.43.43,0,0,0,0-.14.23.23,0,0,0-.24-.27c-.12,0-.12.2,0,.2s0,.1,0,.15a.57.57,0,0,0-.22.19c0,.07,0,.16.11.14l.4-.1a.84.84,0,0,0,.27-.08A.12.12,0,0,0,82.75,11.53Z"/><path class="cls-2" d="M81.45,11.32h0a.1.1,0,0,0-.05-.15.77.77,0,0,0-.54,0c-.12,0,0,.21.09.16a.48.48,0,0,1,.29,0,.08.08,0,0,0,0,.1h0a.1.1,0,0,0,.14.14l0-.05a.05.05,0,0,0,0,0A.09.09,0,0,0,81.45,11.32Z"/><path class="cls-2" d="M80.62,10.89l-.84.11c-.13,0-.07.2,0,.19l.84-.12C80.79,11.06,80.74,10.87,80.62,10.89Z"/><path class="cls-2" d="M81.62,11.83a.08.08,0,0,0,0-.08.1.1,0,0,0-.09-.11.09.09,0,0,0-.1.1.18.18,0,0,0,.14.27C81.69,12,81.7,11.87,81.62,11.83Z"/><path class="cls-2" d="M82.73,12a.29.29,0,0,1-.28-.06c-.1-.08-.23.06-.14.14a.53.53,0,0,0,.47.11A.1.1,0,0,0,82.73,12Z"/><path class="cls-2" d="M83.21,12.07a.09.09,0,0,0-.08-.06c-.12,0-.12.19,0,.2a.1.1,0,0,0,.19,0v0A.09.09,0,0,0,83.21,12.07Z"/><path class="cls-2" d="M83.93,10.93h-.38a1.23,1.23,0,0,0-.27,0,.13.13,0,0,0,0,.26.08.08,0,0,0,.09-.08h.52A.1.1,0,0,0,83.93,10.93Z"/><path class="cls-2" d="M85.81,10.89h-.24a.1.1,0,0,0,0,.19h.24A.1.1,0,0,0,85.81,10.89Z"/><path class="cls-2" d="M87.56,11.19a.07.07,0,0,0-.09,0,.27.27,0,0,1-.26,0l.15-.07c.08,0,0-.19,0-.18l-.89.06c-.13,0-.13.2,0,.19l.5,0v0a.44.44,0,0,0,.3.23,1,1,0,0,1-.34.08c-.13,0-.13.2,0,.19a1.22,1.22,0,0,0,.73-.28A.09.09,0,0,0,87.56,11.19Z"/><path class="cls-2" d="M88.9,11a.44.44,0,0,0-.3,0c-.07,0-.08.08-.06.13h0a.08.08,0,0,0-.07,0h0a.1.1,0,0,0-.14.12.1.1,0,0,0,.14.13.16.16,0,0,0,.06-.08h0a.7.7,0,0,0,.37-.11A.1.1,0,0,0,88.9,11Z"/><path class="cls-2" d="M88.38,11.8a1.18,1.18,0,0,0-.72-.05c-.12,0-.07.21,0,.18a1.1,1.1,0,0,1,.62.06C88.44,12,88.49,11.85,88.38,11.8Z"/><path class="cls-2" d="M89.09,10.32H89a.06.06,0,0,0-.06,0,2.18,2.18,0,0,1-.44,0c-.13,0-.13.19,0,.19a2.49,2.49,0,0,0,.47,0h.09A.1.1,0,0,0,89.09,10.32Z"/><path class="cls-2" d="M88.58,9.76h-.47a.1.1,0,1,0,0,.19h.47A.1.1,0,0,0,88.58,9.76Z"/><path class="cls-2" d="M88.75,9.33l-.19,0,0,0a.39.39,0,0,0-.35,0c-.08,0-.06.19,0,.18a1.27,1.27,0,0,1,.48,0C88.82,9.54,88.87,9.36,88.75,9.33Z"/><path class="cls-2" d="M87.57,10.37a.46.46,0,0,0-.26,0,.6.6,0,0,0-.23-.19c-.12-.06-.21.11-.1.16l0,0-.14,0c-.08,0,0,.15,0,.17l.14,0a.09.09,0,0,0,.11-.09h0s.08.08.13,0a.31.31,0,0,1,.21,0C87.64,10.58,87.69,10.39,87.57,10.37Z"/><path class="cls-2" d="M87.56,9.38a7.29,7.29,0,0,1-.89.43c-.11,0-.06.23,0,.19a9,9,0,0,0,.94-.45C87.77,9.49,87.67,9.32,87.56,9.38Z"/><path class="cls-2" d="M86.84,8.92a.1.1,0,0,0,0,.19A.1.1,0,0,0,86.84,8.92Z"/><path class="cls-2" d="M86.3,9.07a.91.91,0,0,0-.66.13.1.1,0,0,0,0,.18,1.35,1.35,0,0,0,.63-.1.08.08,0,0,0,.05-.1A.09.09,0,0,0,86.3,9.07Z"/><path class="cls-2" d="M85.41,9.63h0l-.06,0-.44,0a.33.33,0,0,0-.22,0,.1.1,0,0,0,0,.19l.16,0h0l.21,0c0,.07,0,.15.11.12l.26-.09C85.58,9.78,85.53,9.59,85.41,9.63Z"/><path class="cls-2" d="M84.57,9.16l-.2.14h0a.1.1,0,0,0,0,.14.1.1,0,0,0,.12.09.14.14,0,0,0,.11-.16l.08-.06C84.76,9.26,84.67,9.09,84.57,9.16Z"/><path class="cls-2" d="M85.79,10l-.39.24c-.1.07,0,.24.1.17l.38-.24C86,10.13,85.89,10,85.79,10Z"/><path class="cls-2" d="M88.92,10.7c-1.55,0-3.1,0-4.65,0a.09.09,0,0,0,.07-.06.09.09,0,0,0,.1,0,2.72,2.72,0,0,0,.57,0c.12,0,.12-.2,0-.19a3,3,0,0,1-.73,0,.08.08,0,0,0-.08,0,.09.09,0,0,0-.08.1,5.61,5.61,0,0,1-1.52-.24c-.12,0-.17.15,0,.19a6,6,0,0,0,1.26.23c-1.27,0-2.54-.07-3.81-.14a.1.1,0,0,0,0,.2c1.5.07,3,.12,4.52.16-.09,0-.11.16,0,.18l.43.1c.12,0,.18-.16,0-.19l-.42-.09q2.18,0,4.35,0A.1.1,0,0,0,88.92,10.7Z"/><path class="cls-2" d="M83.53,9.09c-.12.1-.25.19-.36.3a.23.23,0,0,0-.1.2,1.69,1.69,0,0,0-.36.17.1.1,0,0,0,.05.18.58.58,0,0,0,.42-.1.1.1,0,0,0,0-.09.16.16,0,0,0,.17-.1c0-.07,0-.12-.1-.12l0,0,.11-.09.24-.19C83.77,9.15,83.63,9,83.53,9.09Z"/><path class="cls-2" d="M82.78,9.08a1.74,1.74,0,0,1-.54.43c-.11.05,0,.22.1.16a1.82,1.82,0,0,0,.58-.45C83,9.13,82.86,9,82.78,9.08Z"/><path class="cls-2" d="M81.71,9.84l0,0s0,0,0,0,0,0,0,0-.05-.21-.14-.13a.16.16,0,0,0-.06.08l0,0a.1.1,0,0,0-.15.08.24.24,0,0,0,.2.27.12.12,0,0,0,.09,0l.06,0C81.72,10.08,81.82,9.91,81.71,9.84Z"/><path class="cls-2" d="M80.69,9.51Z"/><path class="cls-2" d="M80.71,9.32s0,0-.07,0h-.08a.28.28,0,0,0-.18.14c-.06.09.05.17.13.12a.2.2,0,0,0,.08.12c.1.07.19-.1.1-.17h0A.1.1,0,0,0,80.71,9.32Z"/><path class="cls-2" d="M81.56,10.28l-.14,0a.09.09,0,0,0-.11-.05,3.31,3.31,0,0,1-1,.07.1.1,0,0,0,0,.2,4.13,4.13,0,0,0,1-.07.27.27,0,0,0,.3.07C81.73,10.43,81.68,10.24,81.56,10.28Z"/><path class="cls-2" d="M15.25,28.11C15,26,12.76,24.34,10,24.77c-.12,0-.11.12,0,.17a6,6,0,0,0-4.64,2.12,3.5,3.5,0,0,0-.63,2.83A4.07,4.07,0,0,0,6,32.51a5.15,5.15,0,0,0,3.08.89,10.9,10.9,0,0,0,3.47-.2,3.08,3.08,0,0,0,2.06-1.87A5.79,5.79,0,0,0,15.25,28.11Zm-.52,2.34A3.61,3.61,0,0,1,13,32.83a7,7,0,0,1-2.89.41A8.67,8.67,0,0,1,7,32.84c-1.9-.78-2.41-3.22-1.92-4.74.59-1.85,3.69-3.61,6-2.76.14.05.26-.12.12-.17A3.85,3.85,0,0,0,10.15,25a4.14,4.14,0,0,1,4.77,2.74A4.75,4.75,0,0,1,14.73,30.45Z"/><path class="cls-2" d="M11.35,31.42l-2.29.26a13.82,13.82,0,0,0,1.27-1.11,1.07,1.07,0,0,0,.35-1.13c-.37-.92-1.5-.4-2,.09-.1.09.07.23.17.13a2.78,2.78,0,0,1,.32-.26,1.63,1.63,0,0,1,.34-.21l.67,0c.54.25.34.84.09,1.17a11.29,11.29,0,0,1-1.59,1.4c-.09.08,0,.18.12.17l2.64-.3C11.57,31.59,11.5,31.41,11.35,31.42Z"/><path class="cls-2" d="M48.58,29.62c-.12-.23-.54-.69-.91-.47a.24.24,0,0,0-.12.3c.09.19.33.09.51.05a.09.09,0,0,0,.08-.08.9.9,0,0,1,.21.27.41.41,0,0,1,.06.32.22.22,0,0,1-.19.18c-.08,0-.25-.07-.2-.16s0-.13-.09-.14a.11.11,0,0,0-.1-.05h-.09c-.16,0-.16.2,0,.2h0c0,.2.26.38.53.33S48.7,29.86,48.58,29.62Z"/><path class="cls-2" d="M48.77,29.32v.16c0,.12.24.12.24,0v-.16C49,29.2,48.77,29.2,48.77,29.32Z"/><path class="cls-2" d="M49.59,30c-.06,0-.06-.09-.05-.12l.07-.08.14-.18a.27.27,0,0,0,0-.31.15.15,0,0,0-.14-.05,1,1,0,0,0-.51.32s0,0,0,.05a.12.12,0,0,0-.13,0,.22.22,0,0,0,0,.38c.11.08.29-.06.17-.14s0-.05,0-.07.06-.06.05-.1a.15.15,0,0,0,.19,0,.61.61,0,0,1,.26-.18c0,.09-.14.19-.2.27a.28.28,0,0,0-.06.23.31.31,0,0,0,.42.18C49.85,30.11,49.73,30,49.59,30Z"/><path class="cls-2" d="M50.83,29.7a.5.5,0,0,0-.27,0c-.09,0-.23.09-.29,0s.31-.29.46-.31.09-.21-.06-.19c-.32.05-.72.17-.66.49a.3.3,0,0,0,.24.23.82.82,0,0,0,.35,0,.35.35,0,0,1-.11,0c-.16,0-.09.21.06.19a.4.4,0,0,0,.37-.29Q50.94,29.73,50.83,29.7Z"/><path class="cls-2" d="M52,29.64a5.23,5.23,0,0,0-.64-.5h0c0-.12-.25-.07-.23.05s0,.09,0,.13l-.1.5v.07c0,.12.18.17.23.05h0l.56-.15C52,29.87,52.14,29.73,52,29.64Zm-.62-.23.27.21-.31.09C51.4,29.61,51.41,29.51,51.42,29.41Z"/><path class="cls-2" d="M53.61,29.61l-.12-.46c0-.06-.11-.08-.18,0a.68.68,0,0,0-.29.16,2.05,2.05,0,0,0-.43-.26.14.14,0,0,0-.14,0,.43.43,0,0,0,.2.73c.14.05.26-.11.12-.16a.29.29,0,0,1-.2-.36,1.6,1.6,0,0,1,.37.25c.05.05.15,0,.19,0a.48.48,0,0,1,.16-.12l.09.33C53.41,29.78,53.64,29.73,53.61,29.61Z"/><path class="cls-2" d="M54.59,28.93a.75.75,0,0,0-.23,1.32c.11.09.28-.05.17-.14a.58.58,0,0,1,.18-1C54.85,29,54.72,28.87,54.59,28.93Z"/><path class="cls-2" d="M55.29,29.18a.14.14,0,0,0-.21,0l0,.1c-.06-.08-.24-.06-.23,0l.06.6c0,.12.23.12.24,0a1.22,1.22,0,0,1,.09-.46c.11.2.16.43-.13.54s0,.22.12.16C55.7,30,55.49,29.48,55.29,29.18Z"/><path class="cls-2" d="M57.08,29.85a.85.85,0,0,1-.48-.24.21.21,0,0,1,.17-.35c.1,0,.16-.11.09-.17a.65.65,0,0,0-.73,0l0,0a.16.16,0,0,0-.22,0,.62.62,0,0,0,0,.84c.06.07.24.06.22-.05a.8.8,0,0,1,0-.55.43.43,0,0,1,.28-.18.35.35,0,0,0-.14.35c0,.28.39.43.69.5S57.23,29.88,57.08,29.85Z"/><path class="cls-2" d="M58.5,28.75c-.15,0-.21.15-.06.19a1,1,0,0,1,.26.1,3.28,3.28,0,0,1-.41.08c0-.07-.18-.05-.22,0h-.24l0,0c0-.12-.19-.18-.23-.06a1.72,1.72,0,0,0-.35.05.35.35,0,0,0-.15.21.45.45,0,0,0,0,.3c0,.14.21.35,0,.48s0,.22.17.13.1-.44,0-.66-.06-.18,0-.25.16-.06.25-.07,0,.09.11.09.25,0,.37,0l.17.78c0,.12.26.07.24-.05l-.17-.76a2.66,2.66,0,0,0,.56-.12c.31.33.16.86-.44,1-.15,0-.09.22.06.19A.82.82,0,0,0,58.5,28.75Z"/><path class="cls-2" d="M62.21,28.91,62,29.5l-.81-.7c-.07-.06-.21,0-.2.07A2.47,2.47,0,0,1,60.8,30c0,.12.18.17.23.05a2.31,2.31,0,0,0,.19-.93l.73.64a.14.14,0,0,0,.21,0l.28-.76C62.48,28.84,62.25,28.79,62.21,28.91Z"/><path class="cls-2" d="M63.54,29.22a.67.67,0,0,0-.63,0,.33.33,0,0,0-.14.44.38.38,0,0,0,.48.15c.19-.07.29-.25.19-.4A.1.1,0,0,0,63.54,29.22Zm-.32.26c.05.06,0,.14-.1.16a.14.14,0,0,1-.15-.13c0-.16.17-.19.32-.16C63.23,29.37,63.18,29.42,63.22,29.48Z"/><path class="cls-2" d="M64.67,29.4a.82.82,0,0,1-.15.36l-.67-.66c-.1-.09-.27,0-.17.14l.76.75a.14.14,0,0,0,.17,0,1,1,0,0,0,.3-.59C64.92,29.27,64.68,29.28,64.67,29.4Z"/><path class="cls-2" d="M66.93,29.24l.16-.15a.09.09,0,0,0,0-.16,1,1,0,0,0-1,.35c-.07.11.14.21.21.1a.64.64,0,0,1,.45-.27l-.15.14c-.1.09,0,.2.14.16s.19.07.21.13,0,.17-.13.23a1.6,1.6,0,0,1-.45.16c-.14,0-.08.22.07.18.31-.07.76-.21.76-.53A.4.4,0,0,0,66.93,29.24Z"/><path class="cls-2" d="M67.55,29.91c0-.12-.27-.07-.23.05a.32.32,0,0,1,0,.3c-.06.11.14.21.21.1A.52.52,0,0,0,67.55,29.91Z"/><path class="cls-2" d="M68.68,29.88a.51.51,0,0,1-.15.07,1.08,1.08,0,0,1,.07-.31c.07,0,.13-.05.1-.12s0,0,0-.05a1.63,1.63,0,0,1,.11-.17c0-.08-.07-.19-.17-.13a.33.33,0,0,0-.18.26,1.28,1.28,0,0,0-.16.63c0,.06,0,.1.12.1a.72.72,0,0,0,.45-.15C69,29.93,68.79,29.79,68.68,29.88Z"/><path class="cls-2" d="M69.73,29.37c0-.12-.26-.07-.23.06a.58.58,0,0,1,0,.32.32.32,0,0,1,.09-.6.1.1,0,1,0-.06-.19c-.61.19-.6.84,0,1a.13.13,0,0,0,.14-.07A.75.75,0,0,0,69.73,29.37Z"/><path class="cls-2" d="M70.31,29.29c.06-.11-.15-.21-.21-.09a.75.75,0,0,0,0,.79c.06.11.27,0,.21-.1A.59.59,0,0,1,70.31,29.29Z"/><path class="cls-2" d="M70.92,29a.79.79,0,0,1-.27.1c-.15,0-.09.21.06.18a.8.8,0,0,0,.38-.15C71.21,29,71,28.9,70.92,29Z"/><path class="cls-2" d="M71.21,29.48a.85.85,0,0,1-.71-.18c-.11-.09-.28.05-.17.14a1.12,1.12,0,0,0,.78.24.23.23,0,0,1-.12.16c-.12.07,0,.24.12.16a.45.45,0,0,0,.26-.43A.13.13,0,0,0,71.21,29.48Z"/><path class="cls-2" d="M70.24,24.68H69.8a18.5,18.5,0,0,0-.17-4.87c-.07-.44-.16-.87-.27-1.31,0-.23-.06-.62-.28-.81a1.4,1.4,0,0,0-.71-.15c-.58-.05-1.17-.08-1.76-.12a102.21,102.21,0,0,0-13.78.15.1.1,0,0,0-.11.07s0,0,0,0c-.07,1.11-.11,2.22-.1,3.33,0,.54,0,1.07,0,1.61,0,.25,0,.51,0,.76s0,.32,0,.47,0,.13,0,.19a.16.16,0,0,0,0,.12c-.08,0-.18,0-.15.11a.2.2,0,0,0,.16.14l-.3,0c-.15,0-.08.2.07.18,5.65-.72,11.33.17,17,.24l0,.29c0,.13.22.13.24,0l0-.28h.45C70.4,24.87,70.4,24.68,70.24,24.68ZM53,24.38s0,0,0-.06a43.8,43.8,0,0,1-.07-6.58,102.24,102.24,0,0,1,12.38-.2c1,.05,2.07,0,3.05.18.77.12.73.67.85,1.19s.17.84.23,1.26a19.36,19.36,0,0,1,.12,4.5C64,24.6,58.49,23.76,53,24.38Z"/><path class="cls-2" d="M55.1,20.76l-.1,0a1.16,1.16,0,0,0-.52-.69c-.45-.23-1.19-.05-1.09.45s.83.6,1.41.49a1,1,0,0,1,0,.35c-.11.33-.7.64-1,.28-.09-.11-.3,0-.21.09a.9.9,0,0,0,1.3-.06A1,1,0,0,0,55,21l.12,0A.1.1,0,1,0,55.1,20.76Zm-1.33,0a.31.31,0,0,1,.14-.56.72.72,0,0,1,.66.27,1.14,1.14,0,0,1,.19.4A1.14,1.14,0,0,1,53.77,20.75Z"/><path class="cls-2" d="M55.7,20.92a.12.12,0,0,1,0-.17c.1-.09-.07-.23-.17-.14a.28.28,0,0,0,0,.44C55.64,21.14,55.81,21,55.7,20.92Z"/><path class="cls-2" d="M55.58,21.61v.08c0,.12.24.12.24,0v-.08C55.82,21.49,55.58,21.49,55.58,21.61Z"/><path class="cls-2" d="M55.8,22a.1.1,0,1,0,0,.19C56,22.17,56,22,55.8,22Z"/><path class="cls-2" d="M57.13,19.72a1.8,1.8,0,0,1-1.29.24c-.15,0-.22.16-.07.19A2.21,2.21,0,0,0,57,20a3.82,3.82,0,0,0,0,2c0,.12.26.07.23-.06a3.62,3.62,0,0,1,0-2.16C57.36,19.71,57.22,19.67,57.13,19.72Z"/><path class="cls-2" d="M59.79,20.08a.93.93,0,0,0-.94.14,1.81,1.81,0,0,0-.43-.14c-.15,0-.21.16-.06.19a1.42,1.42,0,0,1,.33.11,1.31,1.31,0,0,0-.24.34c-.19.36-.47,1.12.28,1.23a.75.75,0,0,0,.82-.87,1.08,1.08,0,0,0-.51-.75.61.61,0,0,1,.62-.08C59.8,20.3,59.93,20.13,59.79,20.08Zm-.58,1.45c-.09.19-.3.24-.61.15a.43.43,0,0,1-.11-.47,1.27,1.27,0,0,1,.13-.32,2.33,2.33,0,0,1,.26-.41C59.26,20.74,59.51,21.17,59.21,21.53Z"/><path class="cls-2" d="M61.62,20.13a1.67,1.67,0,0,1-.5.25c-.14.05,0,.22.12.17.39-.14,1.26-.65.53-.91a1,1,0,0,0-1.21.4c-.05.09.1.14.19.09a1.54,1.54,0,0,0,.3.85c.08.1.29,0,.21-.1a1.36,1.36,0,0,1-.26-1,.89.89,0,0,1,.62-.09c.09,0,.22.07.18.18S61.67,20.09,61.62,20.13Z"/><path class="cls-2" d="M64.44,21.2c-.11-.45-.23-.9-.34-1.35,0-.1-.19-.08-.23,0l-.23.44-.12.23c-.08.13-.16.14-.23,0s-.27-.25-.38-.34l-.37-.34c-.09-.07-.23,0-.21.1l.16.5a2.29,2.29,0,0,1,.09.51c-.15,0-.21.15-.07.19.44.12.32-.44.19-.86l.32.29c.1.09.25.28.43.27a.31.31,0,0,0,.24-.18,4.31,4.31,0,0,0,.26-.47c.08.35.17.7.26,1C64.24,21.38,64.48,21.32,64.44,21.2Z"/><path class="cls-2" d="M54.86,23a1.67,1.67,0,0,0-.44-.3.35.35,0,0,0-.26.1c-.12.11-.39.46-.56.17-.06-.11-.27,0-.2.1a.42.42,0,0,0,.41.19.65.65,0,0,0,.48-.27c.06-.06.07-.1.16-.07s.06.06.08.08.09.1.14.14a.29.29,0,0,0,.31,0A.1.1,0,1,0,54.86,23Z"/><path class="cls-2" d="M58.71,23a7.87,7.87,0,0,0-3.1-.05c-.15,0-.16.2,0,.19a8.06,8.06,0,0,1,3,0C58.73,23.25,58.85,23.09,58.71,23Z"/><path class="cls-2" d="M66.93,23.07a29.69,29.69,0,0,0-4.31-.26c-.25,0-.48.07-.72.1a.82.82,0,0,1-.74-.09s-.06-.08-.11-.09-.11-.07-.32,0-.64.52-1.09.15c-.11-.09-.27,0-.17.14.32.26.65.16,1,.05.22-.07.26-.15.52,0,.07,0,.12.09.19.12a1.14,1.14,0,0,0,.52,0A9.21,9.21,0,0,1,62.93,23c.4,0,.8,0,1.2,0,.93.05,1.87.13,2.8.22C67.08,23.27,67.08,23.08,66.93,23.07Z"/><path class="cls-2" d="M65.69,19a3,3,0,0,0-2.12-.32,6.43,6.43,0,0,1-1.91,0c-.29-.08-.28-.12-.57,0a.77.77,0,0,1-1,0,1.37,1.37,0,0,0-.22-.19.56.56,0,0,0-.23-.06.65.65,0,0,0-.23.09,2.13,2.13,0,0,1-1,.26h-.29a3,3,0,0,0-1.4,0c-.62.1-1.24.22-1.85.33a.26.26,0,0,0,0-.23l.24,0a.09.09,0,0,0,0-.18,1.53,1.53,0,0,0-1.21.07.22.22,0,0,0,0-.13s-.06-.05-.1-.05h-.06a.1.1,0,0,0-.11.07v0c0,.08,0,.12.12.12a.29.29,0,0,0-.11.18l0,0a1.08,1.08,0,0,0-.19.35c0,.1.16.17.22.07a2.46,2.46,0,0,0,.22-.36,1.12,1.12,0,0,1,.73-.3.09.09,0,0,0,0,.09l-.33.37c-.15,0-.09.21.06.19l1.8-.33a8.61,8.61,0,0,1,1.15-.17.79.79,0,0,0-.39.28s0,0,0,.05a.43.43,0,0,1,0,.07c0,.12.18.17.24.06a.08.08,0,0,1,0-.05,2,2,0,0,1,1.09-.27.15.15,0,0,0,.08,0h.32a2.63,2.63,0,0,0,.69-.13l.16-.09c.22-.11.37-.09.46.06s.16.12.28.16a1,1,0,0,0,.64,0c.09,0,.18-.09.27-.11a1.65,1.65,0,0,1,.59.05,5.66,5.66,0,0,0,1.09,0c.81-.05,2.06-.31,2.69.22C65.63,19.22,65.8,19.08,65.69,19Z"/><path class="cls-2" d="M21.07,21.75l-1-1.76a.13.13,0,0,0-.19,0,2.39,2.39,0,0,0-.22.23.13.13,0,0,0-.17,0A4.35,4.35,0,0,0,19,21.37a.1.1,0,0,0-.07,0,4,4,0,0,0-.94-1l0-.1c0-.12-.19-.18-.23-.05s0,0,0,0a.14.14,0,0,0-.11,0,8.48,8.48,0,0,0-1,2.06c0,.11.14.17.22.07a7.06,7.06,0,0,0,1-1.84,3.53,3.53,0,0,1,.76.84,5,5,0,0,0-1.27.31c-.14.05,0,.22.12.17a4.83,4.83,0,0,1,1.26-.3l.09.17-.09-.06c-.13-.07-.25.1-.12.17L19,22c.09,0,.21,0,.18-.1l-.09-.21a3.55,3.55,0,0,1,.88-1.5l.71,1.32a1.17,1.17,0,0,0-.67,0c0-.05-.06-.08-.13-.06l-.48.14c-.13,0-.11.19,0,.19a2.32,2.32,0,0,0,.64-.11,1,1,0,0,1,.79.16l.23.43c0,.09.24.05.23,0A.79.79,0,0,0,21.07,21.75Z"/><path class="cls-2" d="M22.54,19.91A1,1,0,0,0,21.43,21a.6.6,0,0,0,.49.55c.38.06.75-.18,1.11-.22.16,0,.09-.21-.06-.19a2.52,2.52,0,0,0-.54.14,1,1,0,0,1-.3.07.55.55,0,0,1-.45-.3.76.76,0,0,1,.73-.92c1.58-.14.71,2.14-.32,1.53-.12-.07-.24.1-.12.17C23.28,22.58,24.37,20,22.54,19.91Z"/><path class="cls-2" d="M24.38,19.87c-.66.09-1,.67-.75,1.17.43.72,1.49.28,2-.08l0,0a1.34,1.34,0,0,1,0,.2.93.93,0,0,1-.15.45,1.06,1.06,0,0,1-.68.21h-.92c-.16,0-.16.19,0,.19a3.62,3.62,0,0,0,1.61-.09,1,1,0,0,0,.38-.86A1.29,1.29,0,0,0,24.38,19.87Zm1.11.95c-.44.3-1.45.74-1.69,0-.17-.51.42-.89,1-.78a1,1,0,0,1,.83.76A.15.15,0,0,0,25.49,20.82Z"/><path class="cls-2" d="M27.73,20.09c-.41-.05-1.22-.22-1.57,0s-.22.85-.17,1.14c0,.08.14.08.2,0,.39-.24,1-.2,1.16.24s-.41.73-.86.46c-.13-.07-.25.1-.12.17.57.33,1.36-.05,1.24-.62s-.86-.71-1.41-.48c-.05-.32-.08-.75.35-.83a3.73,3.73,0,0,1,1.11.07C27.82,20.3,27.88,20.11,27.73,20.09Z"/><path class="cls-2" d="M36.51,21.19c.34-.15.65-.39.48-.72a.75.75,0,0,0-1.08-.07.11.11,0,0,0,0,.12.16.16,0,0,0,.15,0c.05,0,.11,0,.12-.07v0h0a.66.66,0,0,1,.25-.05c.33.13.41.27.23.42s-.36.23-.57.3a.09.09,0,0,0,0,.18c.23.07,1,.06,1.07.3.13.43-1.09.34-1.31.31s-.22.17-.07.19c.41.05,1.54.13,1.65-.34S37,21.26,36.51,21.19Z"/><path class="cls-2" d="M39.81,21l-.12-.05c.35-.15,1.14-.3.82-.71a.59.59,0,0,0-.45-.17,2.5,2.5,0,0,0-1,0c-.4.2,0,.66.21.83a1.71,1.71,0,0,0,.23.13c-.47.11-.75.54-.44.89s1.14.22,1.5-.11S40.14,21.13,39.81,21Zm-.59-.4c-.23-.39.25-.34.57-.34a1.22,1.22,0,0,1,.27,0l-.13.39-.13,0a3.31,3.31,0,0,0-.33.15A.82.82,0,0,1,39.22,20.58ZM40,21.91c-.85.27-1.09-.57-.36-.68a.1.1,0,0,0,.09-.08,4,4,0,0,1,.42.2C40.46,21.54,40.31,21.81,40,21.91Z"/><path class="cls-2" d="M41.4,20c0-.12-.26-.07-.23.05a3.56,3.56,0,0,1,.1.92,3.93,3.93,0,0,1-.06.48s-.15.56-.31.43-.27,0-.17.13c.28.25.55,0,.64-.23A3.08,3.08,0,0,0,41.4,20Z"/><path class="cls-2" d="M7.07,15.08a4.6,4.6,0,0,1-.2-1.42c0-.09-.13-.13-.2-.07a2.83,2.83,0,0,0-.89,1.07,2.38,2.38,0,0,1-.12.32c-.21.14-.3-.11-.36-.21a3,3,0,0,1-.4-.93c0-.09-.2-.08-.24,0A2.68,2.68,0,0,0,4.54,15c0,.12.26.12.24,0a2.89,2.89,0,0,1,0-.72c.17.46.47,1.08.88,1,.24-.06.25-.36.32-.52a2.51,2.51,0,0,1,.64-.86,4.66,4.66,0,0,0,.21,1.23C6.87,15.26,7.11,15.2,7.07,15.08Z"/><path class="cls-2" d="M7.67,13.22a4.91,4.91,0,0,0-.25,2c0,.12.25.12.24,0a4.77,4.77,0,0,1,.24-1.91C7.94,13.15,7.7,13.1,7.67,13.22Z"/><path class="cls-2" d="M9.35,14.59h.1c.16,0,.16-.19,0-.19H9.27l-.36-.87a.14.14,0,0,0-.22,0,2.84,2.84,0,0,0-.55.9.09.09,0,0,0,0,.12,2.39,2.39,0,0,0-.1.66c0,.12.24.12.24,0a2,2,0,0,1,.09-.6H9.1l.2.48c0,.11.28.06.23-.06ZM8.4,14.4a2.22,2.22,0,0,1,.36-.63L9,14.4Z"/><path class="cls-2" d="M12.46,14.26,11.92,14a1.18,1.18,0,0,0-.37-.2h0c-.14-.05-.2.11-.1.17a2.26,2.26,0,0,0,.31.15.48.48,0,0,1,.15.2c-.64.12-1.23-.5-1.92-.25-.14.05,0,.22.12.17.66-.24,1.29.47,2,.23.06,0,.1-.06.08-.11h0a.77.77,0,0,1,.29.27c.13.11.11.19-.07.25l-.23.17-.53.4c-.12.08.05.22.17.13a10.41,10.41,0,0,0,.92-.68c.07-.07.15-.13.14-.24S12.59,14.33,12.46,14.26Z"/><path class="cls-2" d="M15.22,14.27c0-.12-.26-.07-.24.05a1,1,0,0,1-.14.78c-.48-.12-1-.33-1.09-.76a.45.45,0,0,1,.31-.58.53.53,0,0,1,.65.22c0,.12.27.07.23-.05-.19-.55-1.16-.49-1.39,0-.35.73.59,1.21,1.33,1.38a.14.14,0,0,0,.13,0A1.22,1.22,0,0,0,15.22,14.27Z"/><path class="cls-2" d="M17.15,15.11c-.1.07-.5-.45-.59-.52a.76.76,0,0,0-.19-.12c.29-.07.57-.21.49-.49s-.79-.5-1.21-.35a.09.09,0,0,0-.05.11,1.34,1.34,0,0,1,.08,1c0,.12.2.17.23.05a1.25,1.25,0,0,0,.07-.31,1.23,1.23,0,0,1,.56.34c.1.11.14.26.26.36a.42.42,0,0,0,.52,0C17.43,15.17,17.26,15,17.15,15.11Zm-.58-1c0,.22-.32.24-.57.25h0a1.58,1.58,0,0,0-.13-.56C16.16,13.71,16.62,13.78,16.57,14.07Z"/><path class="cls-2" d="M18.72,13.73c0-.12-.26-.12-.24,0a1.2,1.2,0,0,1-.7,1.25,2,2,0,0,1-.33-1.34c0-.12-.23-.12-.24,0a2.21,2.21,0,0,0,.43,1.53.13.13,0,0,0,.16,0A1.42,1.42,0,0,0,18.72,13.73Z"/><path class="cls-2" d="M8.06,6.83A.55.55,0,0,0,7.69,7L7.56,7V7c0-.09-.16,0-.18,0a1.52,1.52,0,0,1-.61-.13.09.09,0,0,0-.13,0c0,.06,0,.24,0,.28s-.13-.07-.25-.12a.59.59,0,0,0-.23,0,.94.94,0,0,0-.22.12,1.63,1.63,0,0,1-.5.2.31.31,0,0,0,.15-.18c.15-.29-.19-.45-.39-.31a.18.18,0,0,0-.25-.14.1.1,0,0,0-.07.09A.78.78,0,0,0,5,7.26c.07.27.58.29.8.19s.18-.14.39-.12.1.06.24.1.09.08.2.05.12-.25.14-.4a1.75,1.75,0,0,0,.67.11l.11.09a.1.1,0,0,0,.15,0L8,7l.08,0A.1.1,0,0,0,8.06,6.83Z"/><path class="cls-2" d="M8.69,6.85a.32.32,0,0,0-.33.32c0,.12.19.12.2,0A.13.13,0,0,1,8.69,7C8.82,7.05,8.82,6.86,8.69,6.85Z"/><path class="cls-2" d="M9.49,6.7A2.82,2.82,0,0,0,8.44,8c0,.11.14.16.19,0a2.5,2.5,0,0,1,1-1.17C9.69,6.8,9.6,6.63,9.49,6.7Z"/><path class="cls-2" d="M13.42,7l-.15-.33a.09.09,0,0,0-.15,0c-.31.25-1.06.77-1.3.1a.1.1,0,0,0-.18,0c-.19.28-.63.05-.89.17s-.23.24-.36.37h-.06l-.2-.13C10,7,9.9,7.16,10,7.24l.06,0L10,7.3c-.07,0-.11.14,0,.18a.37.37,0,0,0,.43,0,1.33,1.33,0,0,0,.45,0,.1.1,0,0,0,0-.19l-.24-.07,0,0c.31-.28.76-.08,1.06-.31.31.55,1,.24,1.45-.08l.11.23C13.31,7.16,13.47,7.07,13.42,7Z"/><path class="cls-2" d="M7.18,9.16c-.51.39-.63-.16-1-.28C5.93,8.8,5.73,9,5.49,9a.27.27,0,0,0-.18-.28c0-.07,0-.13-.11-.1A1.08,1.08,0,0,0,4.71,9c-.08.1,0,.23.14.14l0-.06c.1-.09.23-.09.4,0a.11.11,0,0,0,.07.12c.17.05.24,0,.4,0a.66.66,0,0,1,.52.1s.07.09.12.12a.74.74,0,0,0,.88,0C7.37,9.26,7.28,9.09,7.18,9.16Z"/><path class="cls-2" d="M10.33,8.71c0-.12-.2-.07-.18,0s-.59,0-.65,0a.45.45,0,0,0-.2,0c-.23.11-.17.43-.52.15-.13-.11-.11-.23-.31-.24a.48.48,0,0,0-.38.24.7.7,0,0,0-1-.13c-.1.07,0,.24.1.16a.51.51,0,0,1,.79.2.1.1,0,0,0,.17,0,1.59,1.59,0,0,1,.48,0s0,.08,0,.11.1.11.19.13.24-.13.35-.24c.3-.26.4-.06.7,0a.62.62,0,0,0,.23,0A.26.26,0,0,0,10.33,8.71Z"/><path class="cls-2" d="M12.88,8.7c-.26.17-.47.33-.8.23-.15,0-.27-.16-.43-.17a.51.51,0,0,0-.17,0,.72.72,0,0,0-.2.09c0-.16.05-.2.18-.15s.13-.18,0-.19-.56,0-.61.28a.27.27,0,0,0,.3.33c.12,0,.21-.12.33-.15s.45.11.68.14a.91.91,0,0,0,.46,0A1.28,1.28,0,0,0,12.87,9s.64-.55.61,0c0,.13.18.13.19,0C13.7,8.43,13.16,8.52,12.88,8.7Z"/><path class="cls-2" d="M16.2,8.82a1.58,1.58,0,0,0-.91.1c-.27.09-.44.07-.6-.17a.85.85,0,0,0-.24-.26.09.09,0,0,0-.11,0l-.61.54c-.09.08,0,.21.14.13a2.74,2.74,0,0,1,.36-.32c.15-.09.15-.15.32,0s.11.23.24.31a.39.39,0,0,0,.3,0,1.38,1.38,0,0,0,.3-.14A1.11,1.11,0,0,1,16.15,9C16.27,9,16.32,8.85,16.2,8.82Z"/><path class="cls-2" d="M24.52,8.79h0l-.12,0A2.08,2.08,0,0,0,24,8.61a.1.1,0,0,0-.08-.15l-.06,0a.08.08,0,0,0-.09-.08,1.48,1.48,0,0,0-.66.26.1.1,0,0,0-.15.05h-.28a.09.09,0,0,0-.18,0,.69.69,0,0,1-.05.13.41.41,0,0,0-.07-.3c-.15-.21-.36-.09-.49.07l-.32-.15a.1.1,0,0,0-.14,0v0a.1.1,0,0,0-.16,0,1.7,1.7,0,0,1-.13.4h0a.48.48,0,0,0,0-.29.09.09,0,0,0-.16-.05.45.45,0,0,0-.12.16.08.08,0,0,0,0,0,.15.15,0,0,0-.24.11l0,0-.11-.07a.44.44,0,0,0-.16,0,.58.58,0,0,0-.18,0l.1-.07c.1-.07,0-.24-.1-.17a1.14,1.14,0,0,0-.22.22.1.1,0,0,0-.14.09h-.31l0-.11s0,0,0,0,0-.11-.22-.12a1.15,1.15,0,0,0-.42.08.09.09,0,0,0-.07-.11.48.48,0,0,0-.6.29l-.08-.06a.52.52,0,0,0-.25-.07.74.74,0,0,1,.22-.25c.1-.08,0-.21-.14-.14a.93.93,0,0,0-.35.61h0v0c0,.11.17.13.19,0v0c0-.08.25.05.4.13a.05.05,0,0,0,.05,0l.07,0a.41.41,0,0,0,.22,0l.07,0a.1.1,0,0,0,.05,0c.29.19.51-.07.63-.32l.1.14a.13.13,0,0,0,.07,0,.53.53,0,0,0,.13.13.33.33,0,0,0,.32,0,.09.09,0,0,0,.13,0l.09-.1a.43.43,0,0,0,.57,0,.1.1,0,0,0,.05,0,.6.6,0,0,0,.22.06.46.46,0,0,0,.13.21.09.09,0,0,0,.13,0,1.86,1.86,0,0,0,.21-.28h0A4.68,4.68,0,0,1,21.71,9a.32.32,0,0,0,.26.3c.29.07.47-.15.59-.38a.28.28,0,0,0,.22.1.12.12,0,0,0,.09,0,1,1,0,0,0,.6-.12.47.47,0,0,0,.42.39.45.45,0,0,0,.28-.09l0,.06a.1.1,0,0,0,.18-.08L24.33,9l.05-.07h0C24.5,9,24.61,8.87,24.52,8.79Zm-.76.27a.23.23,0,0,1-.12-.2.27.27,0,0,0,.18,0,.08.08,0,0,0,.07-.08l.24.05a.29.29,0,0,0,0,.2C24,9.22,23.85,9.23,23.76,9.06Z"/><path class="cls-2" d="M67.8,28.18q-12.21-.39-24.44-.44h-7c-.16,0-.16.19,0,.19q12.23,0,24.44.25c2.32.05,4.63.12,6.95.19A.1.1,0,1,0,67.8,28.18Z"/><path class="cls-2" d="M41.89,29.18a.77.77,0,0,1-.85,0,.15.15,0,0,0-.17,0,.89.89,0,0,1-1.13.15.13.13,0,0,0-.18.06c-.15.36-.73-.13-.89-.19a1.24,1.24,0,0,0-.38-.09,2.72,2.72,0,0,0-1.1.2h0c-.11,0,0,.22.1.18h0l.06.05c-.07.12.14.21.21.1a.19.19,0,0,0,0-.1.06.06,0,0,0,0,0s0-.05,0-.07,0-.05,0,0a.16.16,0,0,0,.11,0,1.44,1.44,0,0,1,.68,0c.3.08.48.32.78.37a.52.52,0,0,0,.53-.14A1.17,1.17,0,0,0,41,29.39a1.06,1.06,0,0,0,1.06-.08C42.18,29.24,42,29.1,41.89,29.18Z"/><path class="cls-2" d="M45.07,31.58c-.56.45-.64,0-1-.06s-.73.41-.94-.14a.13.13,0,0,0-.22,0c-.39.42-.75.25-1.24.15a.59.59,0,0,0-.35,0c-.23.1-.27.34-.63.33s-.45-.16-.7-.15a1.2,1.2,0,0,0-.46.16c-.21.08-.06.26-.55.06,0,0-.06-.11-.12-.12s-.13-.11-.33-.1-.11,0-.17,0l-.13.07a.56.56,0,0,1-.63-.07c.11-.08-.06-.22-.17-.13-.37.28,0,.65.47.58.14,0,.22-.11.35-.14a1,1,0,0,1,.56,0l.12.1a.51.51,0,0,0,.53,0c.23-.12.36-.28.68-.25s.41.14.63.15a.78.78,0,0,0,.51-.16.56.56,0,0,1,.43-.12c.06,0,.11.05.17.06a1.75,1.75,0,0,0,.51,0,1.14,1.14,0,0,0,.59-.26c.17.25.47.26.84.2.57-.08.93.36,1.46-.06C45.35,31.63,45.18,31.5,45.07,31.58Z"/><path class="cls-2" d="M49.43,31.47c-.35-.06-.65.17-1,.1-.15,0-.22.16-.07.19a1.18,1.18,0,0,0,.59-.05c.15,0,.6-.14.63.08s.25.13.24,0S49.65,31.51,49.43,31.47Z"/><path class="cls-2" d="M50.32,31.57a2.12,2.12,0,0,0-2.66-.07c-.1.09.07.23.17.14a1.84,1.84,0,0,1,2.32.06C50.25,31.8,50.42,31.66,50.32,31.57Z"/><path class="cls-2" d="M47.83,30.69a.1.1,0,1,0,0,.19C48,30.88,48,30.69,47.83,30.69Z"/><path class="cls-2" d="M9.65,22.92l-.09-.15a.13.13,0,0,0-.21,0,.13.13,0,0,0-.18-.08,1.11,1.11,0,0,1-.78.1A3.26,3.26,0,0,0,8,22.65a.7.7,0,0,0-.29,0,.52.52,0,0,0-.13.06.5.5,0,0,1-.49,0c.11-.09-.06-.22-.17-.13l-.06.05c-.2-.24-.62-.17-.91,0a1.1,1.1,0,0,1-.61.22c-.16,0-.22-.08-.36-.09a.22.22,0,0,0-.26.14.1.1,0,0,0,.06.11.22.22,0,0,0,.21,0H5a.87.87,0,0,0,.23.06.74.74,0,0,0,.33,0c.27-.07,1-.63,1.13-.22a.13.13,0,0,0,.14.06.56.56,0,0,0,.59.12,1.3,1.3,0,0,1,.69-.15c.13,0,.25.1.38.12a1.41,1.41,0,0,0,.84-.14.1.1,0,0,0,.05,0,.06.06,0,0,0,0,0l.09.15C9.51,23.13,9.72,23,9.65,22.92Z"/><path class="cls-2" d="M5.78,21.18H4.65a.1.1,0,1,0,0,.19h.18a.14.14,0,0,0,.13.05,2.35,2.35,0,0,1,.37-.05h.45C5.94,21.37,5.94,21.19,5.78,21.18Z"/><path class="cls-2" d="M7.22,21.19A.62.62,0,0,1,6.89,21c0-.05-.17-.07-.21,0l-.09.16h0a.1.1,0,1,0,0,.19h.62C7.33,21.38,7.36,21.21,7.22,21.19Z"/><path class="cls-2" d="M9,20.87a3.24,3.24,0,0,0-.88.06L7.7,21c-.1,0-.12.17,0,.18l.28,0a.14.14,0,0,0,.15-.1h0A5.69,5.69,0,0,1,9,21.06C9.15,21.07,9.15,20.88,9,20.87Z"/><path class="cls-2" d="M6.72,18.49c-.13,0-1.33.34-1.34.12s-.16-.13-.22-.05-.17.2-.32.07c.16,0,.16-.2,0-.19s-.49.25-.31.46.5.07.7-.1a.53.53,0,0,0,.41.11c.09,0,1.34-.22,1.36,0s.26.13.24,0A.47.47,0,0,0,6.72,18.49Z"/><path class="cls-2" d="M13.8,20.48a4.42,4.42,0,0,1-.05-1.66c0-.12-.2-.17-.23-.05a3.94,3.94,0,0,0,0,1.53L13.72,22c0,.13.25.13.24,0C13.9,21.52,13.85,21,13.8,20.48Z"/><path class="cls-2" d="M18.2,18.63c-.05-.15-.21-.2-.39-.18s-.38.32-.62.38h0a1,1,0,0,0,.06-.35c0-.1-.16-.12-.22-.05a.51.51,0,0,0-.11.44l0,0-.18-.37c-.06-.12-.29-.07-.23.05l.29.59a.13.13,0,0,0,.22,0c0-.06.07-.12.11-.17a.49.49,0,0,0,.31-.09s.48-.48.55-.27S18.24,18.75,18.2,18.63Z"/><path class="cls-2" d="M19.77,18.75l-.16,0a.14.14,0,0,0-.19,0c-.07.07-.2.18-.33.1s-.06-.09-.1-.12a.54.54,0,0,0-.28-.11.56.56,0,0,0-.52.23c-.06.11.15.21.21.1a.29.29,0,0,1,.42-.08c.1.07.1.17.24.21a.5.5,0,0,0,.44-.12.43.43,0,0,0,.4,0C20,18.85,19.91,18.69,19.77,18.75Z"/><path class="cls-2" d="M37.47,19a.52.52,0,0,1-.06.13l0-.22a.13.13,0,0,0-.23-.05c-.09.12-.37.3-.54.17.16-.05.28-.19.22-.34a0,0,0,0,1,0,0,.13.13,0,0,0-.12-.09.35.35,0,0,0-.26.08.45.45,0,0,0-.11-.17c-.11-.09-.28,0-.18.14a.19.19,0,0,1,.05.22c0,.07,0,.11.11.11l0,0a.24.24,0,0,0,0,.13.6.6,0,0,0,.78,0l0,.21a.12.12,0,0,0,.18.08.53.53,0,0,0,.33-.36C37.73,18.94,37.5,18.89,37.47,19Z"/><path class="cls-2" d="M39.74,18.66l-.25-.12a.12.12,0,0,0-.18.09.59.59,0,0,1-.12.35,1.8,1.8,0,0,0-.4-.25c-.14-.06-.26.11-.13.17a1.49,1.49,0,0,1,.46.31.14.14,0,0,0,.17,0,.81.81,0,0,0,.24-.43l.09,0C39.76,18.89,39.88,18.72,39.74,18.66Z"/><path class="cls-2" d="M50.13,17.72c-5.86.23-11.74.24-17.61.11s-11.7-.47-17.56-.65c-1.65-.05-3.3-.07-5,0s-3.22.19-4.83.07c-.15,0-.15.18,0,.2,1.45.1,2.91,0,4.36-.07s2.83,0,4.24,0c2.92.06,5.83.23,8.74.35,5.87.25,11.74.42,17.62.42,3.33,0,6.66-.07,10-.2C50.29,17.9,50.29,17.71,50.13,17.72Z"/><path class="cls-2" d="M8.6,16.27a.78.78,0,0,0-.43,0c-.16,0-.89.45-1,.06,0-.07-.14-.09-.2,0-.24.27-.59.24-1-.07,0-.1-.15-.17-.22-.07l0,0-.12-.41c0-.07-.18-.1-.22,0a2.82,2.82,0,0,1-.62.72v-.23c.06-.11-.14-.21-.21-.09a.55.55,0,0,0,0,.58.13.13,0,0,0,.2,0,3.2,3.2,0,0,0,.72-.7l.09.3a.12.12,0,0,0,.14.07l.08,0a.54.54,0,0,0,.38.35A1.1,1.1,0,0,0,7,16.53c.25.43,1.13-.15,1.5-.07C8.69,16.49,8.75,16.31,8.6,16.27Z"/><path class="cls-2" d="M16.61,16.43a2,2,0,0,1-.48-.37.15.15,0,0,0-.19,0c-.27.4-.61.39-1,0,0-.1-.16-.13-.22-.05-.31.42-.95-.23-1.23-.35a.86.86,0,0,0-.61-.06,1.89,1.89,0,0,0-.48.28.66.66,0,0,1-.59.12l-.13,0a.91.91,0,0,0-.17,0,.52.52,0,0,0-.3.2c-.07.07-.13.27-.27.27l-.2-.19a1.11,1.11,0,0,0-.47-.17,1.15,1.15,0,0,0-.32,0l-.16,0a.49.49,0,0,1-.5,0c.14-.06,0-.22-.12-.17a.23.23,0,0,0,0,.43.46.46,0,0,0,.38,0c.25,0,.28-.17.6-.17a.77.77,0,0,1,.66.37.14.14,0,0,0,.14.05c.38-.1.39-.51.81-.47s.43.08.73-.11a3.06,3.06,0,0,1,.29-.21,1,1,0,0,1,.94.15,2,2,0,0,0,.43.24.8.8,0,0,0,.61,0,.57.57,0,0,0,.46.34,1,1,0,0,0,.89-.33,2,2,0,0,0,.44.31C16.61,16.66,16.74,16.49,16.61,16.43Z"/><path class="cls-2" d="M51.66,16.41a2,2,0,0,1-.37.13A1.24,1.24,0,0,1,50,16c0-.06-.17-.1-.22,0l-.3.5c0-.32.13-.69-.43-.7a6.05,6.05,0,0,0-1.32.32,4.12,4.12,0,0,1-1.34.15h.05a.16.16,0,0,0,.15,0,.44.44,0,0,0,.16-.38c0-.09-.17-.14-.22-.05a1.08,1.08,0,0,1-.16.2l-.27,0a1.08,1.08,0,0,0-.45.13c-.07,0-.09.14,0,.17l.11,0-.38.08c-.19,0-1.75.22-1.59-.12,0-.07-.1-.16-.18-.11a4,4,0,0,1-.77.39.62.62,0,0,1,.27-.73c.11-.08-.06-.22-.17-.14a.78.78,0,0,0-.28,1,.13.13,0,0,0,.17.05,3.83,3.83,0,0,0,.71-.32c.14.32,1.15.21,1.4.19a4.42,4.42,0,0,0,1.16-.23,4.06,4.06,0,0,0,1.79-.13c.36-.09,1.21-.48,1.37,0,.08.2-.05.38.08.59a.13.13,0,0,0,.21,0l.34-.58a1.56,1.56,0,0,0,1.34.51c.15,0,.28-.09.42-.1a2.81,2.81,0,0,1,.41,0C51.93,16.58,51.85,16.36,51.66,16.41Z"/><path class="cls-2" d="M52,16.66c.05,0,.1,0,.17,0l-.08,0Z"/><path class="cls-2" d="M68.4,16.12a.83.83,0,0,0-.93.09c-.19-.3-.72-.15-1.07-.06-.6.15-1.41,0-1.81.42a5,5,0,0,0-.68-.71.15.15,0,0,0-.19,0,.9.9,0,0,1-.23.32c-.08.14-.22.16-.42.05-.23.06-.36,0-.38-.15s-.07-.13-.22-.19a.16.16,0,0,0-.15,0,1,1,0,0,1-.85.28c-.08,0-.14-.06-.22-.07a.62.62,0,0,0-.41.12c-.32.2-.44.34-.73-.06-.09-.12-.11-.21-.27-.3a.14.14,0,0,0-.16,0c-.17.21-.5.66-.87.48-.12-.05-.13-.16-.3-.2a.94.94,0,0,0-.47,0,1.09,1.09,0,0,0-.23.09l-.14.06a.52.52,0,0,1-.69-.13c.06-.11-.15-.16-.22-.06a.57.57,0,0,0-.64-.27,1.5,1.5,0,0,0-.51.24A1.27,1.27,0,0,1,54,16.07a.14.14,0,0,0-.19,0,.76.76,0,0,1-1.08,0,.14.14,0,0,0-.2,0,1.54,1.54,0,0,1-.3.47.72.72,0,0,0,.45-.29,1.05,1.05,0,0,0,1.24-.06,1.48,1.48,0,0,0,1,.33,1.45,1.45,0,0,0,.5-.11,1.67,1.67,0,0,0,.23-.12l.14-.09c.22-.22.48-.21.77,0,0,.1.12.15.19.11a.43.43,0,0,0,.25.22c.42.18.68-.14,1.06-.21a.78.78,0,0,1,.58.18s0,.08.07.1a.48.48,0,0,0,.24.07c.35,0,.66-.4.86-.65.2.21.14.64.6.61.23,0,.32-.16.48-.26.39-.21.52,0,.88,0a.7.7,0,0,0,.33-.09c.24-.11.17-.25.42-.11s.1.23.32.31a.9.9,0,0,0,1-.48,4.78,4.78,0,0,1,.64.71.13.13,0,0,0,.2,0c.28-.48,1-.35,1.48-.42.22,0,1-.37,1.13,0,0,.07.14.08.2,0a.79.79,0,0,1,.73-.19C68.35,16.34,68.52,16.2,68.4,16.12Z"/><path class="cls-2" d="M12,4.42c-.23.47-.33-.46-.33-.45-.08-.17,0-.14-.11-.29a.48.48,0,0,0-.29-.17c-.29,0-.59.14-.87.17A.47.47,0,0,0,10.48,3a.11.11,0,0,0-.14,0,3,3,0,0,0-1.11.9c-.06.09-.1.29-.18.36-.29.24-.48.07-.56-.18l.21-.15c.18-.13.6-.35.57-.63a.36.36,0,0,0-.49-.25A1.09,1.09,0,0,0,8.21,4a.25.25,0,0,1-.12,0c-.22-.07-.2-.31-.37-.46a.6.6,0,0,0-.43-.12,1,1,0,0,0-.72.5,2.52,2.52,0,0,0-.1-.46.09.09,0,0,0-.17,0l-.22.39v0a.1.1,0,0,0-.13,0,2.82,2.82,0,0,1-.45.18,5.65,5.65,0,0,0-.24-.8.1.1,0,0,0-.16,0L5,3.23l.09-.35a.1.1,0,0,0-.19,0c-.07.33-.16.65-.26,1A4.86,4.86,0,0,0,4.08,5a.09.09,0,0,0,.17.07,7.72,7.72,0,0,0,.41-.93,6.29,6.29,0,0,0,.79.76.1.1,0,0,0,.16-.07,5.18,5.18,0,0,0-.09-.78,2.41,2.41,0,0,0,.42-.16l0,.12a.1.1,0,0,0,.17,0l.19-.34a3.06,3.06,0,0,1,.06.45.1.1,0,0,0,.18,0c.2-.34.5-.81.94-.52.19.13.16.16.26.33a.39.39,0,0,0,.14.17.33.33,0,0,0,.29,0,.58.58,0,0,0,.35.45c.29.11.5-.07.64-.31a2.62,2.62,0,0,1,.44-.66,3.17,3.17,0,0,1,.56-.4L10,3.6a.09.09,0,0,0-.07.17.69.69,0,0,0,.53.09c.14,0,.27-.08.41-.11s.21-.08.27,0,.3.45.36.6.11.34.32.38a.29.29,0,0,0,.34-.17C12.24,4.4,12.08,4.3,12,4.42ZM4.78,3.86a4.41,4.41,0,0,1,.35-.53A6.29,6.29,0,0,1,5.3,4a2.64,2.64,0,0,1-.57,0S4.76,3.91,4.78,3.86Zm.62.78c-.16-.15-.32-.3-.47-.46a2.58,2.58,0,0,0,.4,0C5.36,4.3,5.38,4.47,5.4,4.64ZM8.6,3.51c.05-.17.17-.17.34,0l-.27.2-.21.16A.42.42,0,0,1,8.6,3.51Z"/><path class="cls-2" d="M15.38,4a15,15,0,0,0-1.26-1.6.74.74,0,0,0-1-.18.09.09,0,0,0,0,.15,15.69,15.69,0,0,1,1.77,2.6A.1.1,0,0,0,15,5l.18.35a.1.1,0,0,0,.17-.09,2.12,2.12,0,0,0-.11-.21c.27.06.62.1.73-.13S15.55,4.16,15.38,4Zm.21,1c-.05.06-.33,0-.47-.06a16.72,16.72,0,0,0-1.75-2.58c.57-.2,1.24,1,1.52,1.34l.53.68C15.53,4.45,15.73,4.74,15.59,4.93Z"/><path class="cls-2" d="M26.53,4.07l0-.07a.4.4,0,0,0-.45-.18c-.1,0-.11.09-.19.16s.23.16-.34.11c-.34,0-.25,0-.38-.2s-.21-.31-.44-.24a.41.41,0,0,0-.2.15s-.1.19-.15.2c-.23-.06-.35-.14-.36-.23a.88.88,0,0,0,.18-.33A.1.1,0,0,0,24,3.36a1.92,1.92,0,0,0-.18.32c-.32.29-.94.18-1.33.16l-.33,0a.39.39,0,0,0-.21-.21.64.64,0,0,0-.52.18h-.1a.1.1,0,0,0-.09.13l-.09,0a.27.27,0,0,0-.33-.05.1.1,0,0,0,0,.18l.07,0v.39c-.28.09-.47,0-.58-.15A.78.78,0,0,1,20.14,4c0-.05,0-.1,0-.15h0v0a.1.1,0,0,0-.18,0,.11.11,0,0,0-.18,0,1.1,1.1,0,0,0,0,.8.09.09,0,0,0,.17,0,1.11,1.11,0,0,0,.13-.27.61.61,0,0,0,.89.31.58.58,0,0,0,.25-.58L21.41,4a2.66,2.66,0,0,1,.81.31l.1.06h0c.1,0,.16-.12.07-.18l-.1-.06a.31.31,0,0,1-.07-.09,6,6,0,0,0,1.12,0,1.18,1.18,0,0,0,.38-.1.36.36,0,0,0,.17.34c.38.29.55-.29.85-.33s.2,0,.34.25a.74.74,0,0,0,.16.19.49.49,0,0,0,.44.11c.14,0,.14-.13.24-.23s.12-.19.26,0c-.32.25-.75.7-.3.83s.64-.45.64-.83h0A.09.09,0,0,0,26.53,4.07Zm-.19.35-.11.25c-.17,0-.18-.12,0-.2l.11-.08Z"/><path class="cls-2" d="M31.16,4.3a.74.74,0,0,0-.75-.55,2.43,2.43,0,0,0-1.05.41.74.74,0,0,0-.65-.3c-.53,0-.56.56-.9.84a.71.71,0,0,1,.48-1,.1.1,0,0,0-.05-.19.91.91,0,0,0-.55,1.35.11.11,0,0,0,.14,0c.22-.13.29-.32.43-.53a.55.55,0,0,1,.62-.33.57.57,0,0,1,.31.18,1.22,1.22,0,0,1-.6.12.1.1,0,0,0-.05.18.9.9,0,0,0,.9,0,.1.1,0,0,0,0-.11l0-.08h0c.41-.22,1.31-.77,1.52,0A.09.09,0,1,0,31.16,4.3Z"/><path class="cls-2" d="M40,3.93c-.12-.43-.46-.21-.72-.1-.65.29-.38,0-.77-.12-.18,0-.88.25-1,0l.06,0a.1.1,0,0,0,0-.19.18.18,0,0,1-.23,0L37,4a.77.77,0,0,1,.25-.43c.1-.08,0-.22-.13-.13a.9.9,0,0,0-.32.83c0,.07.11.14.17.07l.39-.46c.12.2.48.14.7.1a.5.5,0,0,1,.5,0,.54.54,0,0,0,.15.15.38.38,0,0,0,.18.06c.19,0,.81-.51.88-.23A.1.1,0,0,0,40,3.93Z"/><path class="cls-2" d="M43.43,3.92c-.29-.33-.56-.27-.93-.17s-.35-.06-.57-.08-.63.35-.73.16a.09.09,0,0,0-.16,0l-.36.1c0-.12-.16-.17-.19-.05a.28.28,0,0,0,.19.36.41.41,0,0,0,.44-.2c.16.14.37,0,.57-.09s.44.09.67.08c0,0,.07,0,.11,0,.32-.1.55-.24.82.07C43.38,4.15,43.51,4,43.43,3.92Z"/><path class="cls-2" d="M48.47,3.87a.5.5,0,0,0-.34-.21A.09.09,0,0,0,48,3.59a1,1,0,0,1-1,.1.09.09,0,0,0-.12.09s-.08,0-.18,0l0-.15a.11.11,0,0,0-.07-.09.51.51,0,0,0-.39.1A1.67,1.67,0,0,0,46,3.56l-.12,0-.06-.05c-.23-.13-.5.05-.71.25a.37.37,0,0,0-.26-.22.34.34,0,0,0-.22,0,.35.35,0,0,0-.3-.19c-.54-.05-.55.62-.15.83,0,0,.05,0,.08,0a.22.22,0,0,0,.07.09.09.09,0,0,0,.14,0A.94.94,0,0,0,44.63,4a.84.84,0,0,1,.22.1l0,0c-.06.08,0,.21.12.15l0,0h0a.29.29,0,0,0,.12-.15.65.65,0,0,1,.2-.17q.1-.17.27,0a.39.39,0,0,0,.12.41.1.1,0,0,0,.15,0,1,1,0,0,0,.11-.32.28.28,0,0,1,.24-.11.38.38,0,0,0,.08.42c.32.38.77.07.84-.32a1.17,1.17,0,0,0,.49,0,.09.09,0,0,0,.08.13.54.54,0,0,0,.19,0l.53.11a.09.09,0,0,0,.18,0l0-.18A.1.1,0,0,0,48.47,3.87Z"/><path class="cls-2" d="M59.53,3.11c-.26-.17-.2-.59-.53-.67s-.73.22-1,.39c-.5.39-.72,1.12-.09,1.5a.85.85,0,0,0,1.3-.6,1,1,0,0,0-.53-1.06c.47-.11.39.41.7.6A.09.09,0,1,0,59.53,3.11Zm-.44.43a.76.76,0,0,1-.21.55.67.67,0,0,1-1.12-.46,1.07,1.07,0,0,1,.56-.77.09.09,0,0,0,.13,0C58.85,2.67,59.08,3.28,59.09,3.54Z"/><path class="cls-2" d="M65.83,2.32a3.89,3.89,0,0,0-1-.18c-.27,0-.36.25-.61.22s-.16-.16-.35-.22-.91.5-.89.08a.11.11,0,0,0-.13-.1,4.44,4.44,0,0,1-.62.19l.16-.24c.12,0,.07-.21-.06-.18a.46.46,0,0,0-.36.58.1.1,0,0,0,.12.07,5.28,5.28,0,0,0,.71-.19.36.36,0,0,0,.38.28.64.64,0,0,0,.35-.14c.11-.07.22-.17.34,0s0,.12,0,.16a.31.31,0,0,0,.43.07c.26-.13.2-.34.59-.34a4.26,4.26,0,0,1,.79.16C65.9,2.53,66,2.34,65.83,2.32Z"/><path class="cls-2" d="M61.9,6.8a10.81,10.81,0,0,1-.57-4.37c0-.13-.18-.12-.19,0a11.07,11.07,0,0,0,.57,4.42C61.75,7,61.94,6.91,61.9,6.8Z"/><path class="cls-2" d="M65.62,3.71c-.67.2-1.35-.55-2-.14-.06,0-.11.1-.16.14a1.5,1.5,0,0,1-.7.12c-.14,0-.23-.09-.39-.06a.35.35,0,0,0-.31.34c0,.13.18.13.19,0,0-.32.75,0,.95,0s.44-.43.8-.47c.58-.06,1,.42,1.65.24A.09.09,0,1,0,65.62,3.71Z"/><path class="cls-2" d="M67.86,6c-.18-.11-.18-.37-.39-.44s-.29.05-.44.12c-.34.16-.45-.09-.75-.13-.12,0-.17,0-.28,0a2.42,2.42,0,0,1-.54,0,.9.9,0,0,0-.42.08c-.16,0-.1.19-.37,0,0,0,0-.1-.07-.12a.48.48,0,0,0-.35-.09.76.76,0,0,0-.21.08s-.76.61-.64.16a.1.1,0,0,0-.1-.12L62,5.6c-.12,0-.12.2,0,.19l1.18,0c0,.27.37.34.61.21s.38-.51.69-.17c0,0,0,.14,0,.17s.18.12.33.06.2-.3.53-.29c.08,0,.17.06.26.07a1.65,1.65,0,0,0,.38,0c.42,0,.32.09.6.17s.29,0,.48-.11c.41-.16.36.15.63.32A.1.1,0,0,0,67.86,6Z"/><path class="cls-2" d="M74,5.57a1.15,1.15,0,0,0-.88-.11.5.5,0,0,0-.21-.34.63.63,0,0,0-.92.33c-.52-.16-1.15-.25-1.5.21a.57.57,0,0,0-.82-.3A.61.61,0,0,0,69,5.12c-.63.24.2,1,.27,1.27a.1.1,0,0,0,.19,0,1.69,1.69,0,0,0-.32-.51L69,5.58c.13-.32.3-.35.52-.09l0,0a.39.39,0,0,0,.37.56A.1.1,0,0,0,70,6a1.86,1.86,0,0,0-.09-.24c0-.38.17-.32.47.19a.1.1,0,0,0,.18,0c.28-.59,1-.42,1.47-.26a.1.1,0,0,0,.11-.07.43.43,0,0,1,.32-.35c.3-.09.39,0,.28.41l-.08.06c-.07.06,0,.16.07.17a.33.33,0,0,0,.37-.21.91.91,0,0,1,.8.07A.1.1,0,0,0,74,5.57Z"/><path class="cls-2" d="M63.72,7a.57.57,0,0,0-.28.11c-.11.06-.17.15-.33.06S63,7.13,63,7.1A.28.28,0,0,0,62.75,7s-.36.22-.37.15-.21-.07-.19,0a.2.2,0,0,0,.19.17c.19,0,.31-.19.47-.14s.2.2.38.19.3-.21.49-.23S63.84,7,63.72,7Z"/><path class="cls-2" d="M64.65,7h-.16a.1.1,0,0,0,0,.19h.16A.1.1,0,0,0,64.65,7Z"/><path class="cls-2" d="M66.35,7.17c-.28-.47-.76-.29-1.12,0V7.1L65.3,7a.1.1,0,0,0-.13-.13.43.43,0,0,0-.22.37,2.69,2.69,0,0,1-.57.65c-.09.08.05.22.14.14a3.23,3.23,0,0,0,.5-.55.1.1,0,0,0,.13,0c.25-.24.76-.66,1-.21C66.25,7.37,66.42,7.27,66.35,7.17Z"/><path class="cls-2" d="M82.09,28.68c-.13-.33-.37-.34-.66-.26a.74.74,0,0,1-.48,0,1.89,1.89,0,0,0-.23-.05.3.3,0,0,0-.19.08l-.12-.13a.08.08,0,0,0-.11,0c-.1.06-.29.26-.4.11a.45.45,0,0,0-.12-.34.1.1,0,0,0-.16.07c0,.09-.16.17-.2.08a.1.1,0,0,0-.16-.05.4.4,0,0,0-.09.36.1.1,0,0,0,.19-.05.25.25,0,0,1,0-.08.36.36,0,0,0,.36,0,.38.38,0,0,1,0,.1.08.08,0,0,0,.07.11s0,.05.11.13a.09.09,0,0,0,.12,0c.19-.13.29-.27.47-.07a.1.1,0,0,0,.15,0c.07-.16.46.08.6.07s.55-.37.68,0C81.94,28.85,82.13,28.8,82.09,28.68Z"/><path class="cls-2" d="M88.75,28.42a.54.54,0,0,0-.39-.28.11.11,0,0,0-.12.07l-.06.24h-.12c-.07,0-.1.06-.16.08l-.08.12c-.24,0-.36-.06-.37-.24a.1.1,0,0,0-.18,0c.06-.09-.34-.3-.42-.3-.3,0-.42.36-.62.54l-.18-.36a.11.11,0,0,0-.14,0l-.17.12a.38.38,0,0,0-.17-.25.09.09,0,0,0-.15,0c0,.05-.08.11-.12.15a.12.12,0,0,0-.13,0l0,0-.52,0a.1.1,0,0,0-.14,0,1.68,1.68,0,0,1-.18.21c-.2.25-.35.25-.44,0a.32.32,0,0,0,0-.26.1.1,0,0,0-.12-.07l-.07,0-.05-.11a.11.11,0,0,0-.14,0l-.38.2a.29.29,0,0,0-.52.21,1.81,1.81,0,0,1-.48-.16c-.11,0-.21.11-.09.17a1.91,1.91,0,0,0,.6.19s0,0,0,.07.09.1.15.06L83,28.7c.09-.05,0-.19,0-.18h-.15a.29.29,0,0,1,.13-.11.11.11,0,0,0,.15.11l.41-.21,0,0c-.17.24.09.64.47.58a.77.77,0,0,0,.37-.19c.25-.22.06-.13.29-.11H85v.05a.11.11,0,0,0,.17,0,2.82,2.82,0,0,0,.33-.36l.08.18a.1.1,0,0,0,.15.08l.22-.16a3.59,3.59,0,0,1,.17.34.1.1,0,0,0,.14.06,1.35,1.35,0,0,0,.28-.25.26.26,0,0,1,.25-.14c.13-.13.21-.14.26,0s0,.08.07.09a1,1,0,0,0,.2.05c0,.17.15.36.33.39a.36.36,0,0,0,.18,0s.31-.34.34-.28.15,0,.17,0l.08-.26.18.13A.1.1,0,0,0,88.75,28.42Z"/><path class="cls-2" d="M76.17,32.62a.88.88,0,0,1-.58-.25.7.7,0,0,0-.13-.17c-.08-.06-.21,0-.15.12a.18.18,0,0,0,0,.07c-.32-.11-.8.19-1.11.13a1,1,0,0,0-.17-.46.11.11,0,0,0-.14,0,2.85,2.85,0,0,1-.46.31.09.09,0,0,0-.09-.09.38.38,0,0,0-.44.42.1.1,0,0,0,.14.09,4.68,4.68,0,0,0,.87-.5l0,.07a.09.09,0,0,0-.13.13v0l.19.36a.1.1,0,0,0,.19,0,.76.76,0,0,0,0-.15c.44,0,1-.34,1.16.05,0,0,0,0,0,0a.1.1,0,0,0,.19,0,.78.78,0,0,0,0-.14,1,1,0,0,0,.51.14A.1.1,0,1,0,76.17,32.62Z"/><path class="cls-2" d="M84.15,32.6a.36.36,0,0,0-.31-.19c-.24,0-.92.48-.94-.12,0-.06-.06-.12-.12-.09-.38.14-.19-.17-.42-.32a.23.23,0,0,0-.28,0S82,32,82,32a1.17,1.17,0,0,1-.46.23,1.84,1.84,0,0,0-.4.06.86.86,0,0,1-.61.06c-.15,0-.25-.16-.41-.16-.33,0-.52.31-.88.22s-.3-.25-.56-.22a1.15,1.15,0,0,0-.32.14.55.55,0,0,1-.39.12c-.1,0-.15-.06-.25-.07s-.44.1-.64.11a1,1,0,0,0-.25-.06c-.1,0-.11.13,0,.18a.33.33,0,0,0,.29.07.76.76,0,0,1,.27.21c.08.09.22,0,.14-.13a1.1,1.1,0,0,0-.16-.15h.05c.28-.06.5.12.77.06a1.91,1.91,0,0,0,.32-.16.66.66,0,0,1,.69.08.52.52,0,0,0,.5,0c.24-.11.29-.28.62-.17.12,0,.22.15.35.18.3.07.55-.16.85-.19s.44,0,.61-.18,0-.29.23-.1.07.2.12.27a.09.09,0,0,0,.11,0l.19-.07a.44.44,0,0,0,.3.37c.24.09.82-.28,1-.09S84.22,32.71,84.15,32.6Z"/><path class="cls-2" d="M89.75,32.54a.78.78,0,0,0-.5-.21,1.1,1.1,0,0,0-.26.06c-.28.07,0,.14-.49,0-.17,0-.11-.13-.33-.09-.53.11,0,.25-.93.12a.63.63,0,0,0-.19,0c-.15,0-.19.17-.31.22-.3.13-.35-.22-.58-.29a.42.42,0,0,0-.33.06c-.07,0-.11.11-.18.14-.45.24-.56,0-.49-.41,0-.12-.16-.17-.19-.05,0,.29-.07.8.33.84.21,0,.33-.14.49-.24a.34.34,0,0,1,.49,0c.08.06.12.15.23.19a.33.33,0,0,0,.29,0c.24-.15.09-.19.51-.16a1.35,1.35,0,0,0,.35.06,1.5,1.5,0,0,0,.32-.1.33.33,0,0,1,.45,0l.11.08c.4.09.66-.37,1.07,0C89.71,32.76,89.84,32.62,89.75,32.54Z"/><path class="cls-2" d="M91.13,34.45l-.63-.05,0-6.44a.43.43,0,0,0,.26-.43c-.11-3.6-.17-7.2-.21-10.79l0-5.25a.54.54,0,0,0,0-.22A79,79,0,0,0,90.32.61a.5.5,0,0,0-.12-.9v0c-.09-.55-.8-.43-1,0-3.88.07-7.77.08-11.65,0a.47.47,0,0,0-.3-.1A51.48,51.48,0,0,1,71-.65c-2.27-.19-4.51.25-6.79.16h-.05C60.57-.57,57-.53,53.48-.4a.37.37,0,0,0-.15,0c-4.91-.45-9.78.79-14.68.31a.48.48,0,0,0-.35-.18c-6.55-.43-13.09-.06-19.64.06-2.9.06-5.8-.08-8.7-.15a.52.52,0,0,0-.61-.42C8.25-.64,7.14-.5,6-.42c-.83,0-1.66,0-2.48.1-.28,0-.55,0-.82,0a7.67,7.67,0,0,0-2.3,0A.52.52,0,0,0-.46.1,20.06,20.06,0,0,1,0,2.77a.49.49,0,0,0-.36.45C-.6,6-.68,8.84-.85,11.64c-.11,1.88-.09,3.76,0,5.64q-.21,5.31-.33,10.63c0,.54.91.7,1,.13l.09-.65c0,.63.06,1.26.11,1.89-.09,1.78-.21,3.56-.39,5.34A.39.39,0,0,0-.31,35a.41.41,0,0,0,.47.42A73.5,73.5,0,0,1,10.85,35a.56.56,0,0,0,.23.05h.52c1.84.09,3.67.25,5.5.48a.42.42,0,0,0,.46-.54q5.64,0,11.26.28a.42.42,0,0,0,.47.44c1.09-.09,2.17-.15,3.25-.22h.16a.46.46,0,0,0,.21,0q7.26-.48,14.52-.58a.47.47,0,0,0,.37.17c7.31.14,14.66.5,22,.35,2.16,0,4.3-.25,6.46-.4a.52.52,0,0,0,.61.49,18.64,18.64,0,0,1,4.41.19l4.48.35c.64,0,.64-1,0-1l-.51,0c1.46.09,2.92.2,4.38.31a.53.53,0,0,0,.75.06l.78.06C91.77,35.51,91.77,34.51,91.13,34.45ZM89.55,13.81c0,1,0,2,0,3.08q0,8.71-.08,17.43c-3-.24-6.09-.45-9.14-.46-3.55,0-7,.49-10.59.57-4.26.09-8.53,0-12.8-.11a.19.19,0,0,0,0-.08l-2.47-.15c-3,.08-6,0-9,0-4.19,0-8.36.82-12.53.41l-.39,0q-10.45-.69-20.94-.44a73.52,73.52,0,0,0-11,.25c.12-1.23.22-2.46.3-3.68A.43.43,0,0,0,1,30.28c0-.33,0-.67-.06-1s0-.77,0-1.16Q.8,15.14.47,2.18a1.28,1.28,0,0,1,.3-.89c0-.12,0-.24-.05-.36C1.93.77,3.16.67,4.39.61c.5,0,.9,0,1.05,0L6.36.55c4.41-.07,8.86.28,13.26.18C25.5.6,31.39.32,37.27.64a.49.49,0,0,0,.23.11A29.91,29.91,0,0,0,43.25.9s0,0,0,0a.86.86,0,0,1,.52-.14c.77,0,1.54.07,2.31.15C52.54.58,58.93.33,65.36.55a.65.65,0,0,0,.21,0L67.05.43a.52.52,0,0,0,.23.06q11,.39,22,.2C89.9,5,89.53,9.47,89.55,13.81Z"/></svg>