<svg xmlns="http://www.w3.org/2000/svg" viewBox="0 0 600 345"><defs><style>.cls-1{fill:#58595b;}.cls-2{fill:#d3ecf4;}.cls-3{fill:#eff2d4;}.cls-4{fill:#b9e5f7;}.cls-5{fill:#2b2b2b;}.cls-6{fill:#a7a9ac;}.cls-7{fill:#f1f2f2;}.cls-8{fill:#231f20;}</style></defs><title>Artboard 4</title><g id="Layer_2" data-name="Layer 2"><path class="cls-1" d="M590.84,199.81c-2.21-5.46-5.76-10.18-9.13-15-2.87-4.09-5.57-8.71-9-12.54a40.36,40.36,0,0,0-10.71-12.1c-7.44-5.5-16.92-8.13-25.48-11.34l-28-10.48c-9.19-3.44-18.51-6.67-27.49-10.64a151.49,151.49,0,0,1-24.6-14.25c-15.51-10.67-31.24-21-47.35-30.73q-24.54-14.85-50-28.09a4.79,4.79,0,0,0-2-1.53c-1.13-.47-2.28-.88-3.43-1.27l-2.14-1.11a4.51,4.51,0,0,0-3.06-.42c-12.65-3.13-26.43-2.83-39.2-3.22-17.92-.55-35.84-.54-53.76-.31-35.17.44-70.34,1.34-105.5,2.06l-60.7,1.25A4.36,4.36,0,0,0,85,54.74l-1.24.43C74.44,58.8,66.22,66.73,59.17,73.66A258.06,258.06,0,0,0,38.49,97.18c-6,7.56-13.16,15.16-16.53,24.36-6.4,9.29-5.89,21.48-4.25,32.51,1,6.54,2.49,16.2.73,23.95q-2.11,4.09-4.11,8.24a14.08,14.08,0,0,1-7.87,4A3.64,3.64,0,0,0,3.34,193c-1.88,4-.51,11.16.06,14.7A104.86,104.86,0,0,0,4.66,220.9a101.13,101.13,0,0,0,4,17.94c1.26,3.88,2.68,8.94,5,12.82a6.47,6.47,0,0,0,.07,1.57,4.43,4.43,0,0,0,3.14,3.14,4.67,4.67,0,0,0,3.82-.52,5.69,5.69,0,0,0,.65-.52l.36-.15a4.42,4.42,0,0,0,2.23-3.89v-.46a24.85,24.85,0,0,1,1.94-2.17c1.19-1.19,2.8-2.18,3.84-3.53a4.47,4.47,0,0,0,3-5.3c-1-4.59,6.61-12.07,9.36-15.09a42.34,42.34,0,0,1,13-10A44.45,44.45,0,0,1,67.49,211a3.89,3.89,0,0,0,4.15.9c12-3.9,25.52,5.38,34.37,12.84s15.84,16.9,18.28,28.48a3.85,3.85,0,0,0,2.23,2.9c2.75,3,7.82,3.23,12.27,3.3l29.52.42,50.66.72a3.73,3.73,0,0,0,2.54,1.41c17.9,2.62,35.88,2.22,53.92,2.13s35.65,2.06,53.59,3.17c36.2,2.25,72.48-1.92,108.66,1a4.58,4.58,0,0,0,.83,0c.19.27.37.54.58.81,3.48,4.53,11.3.05,7.77-4.54-4.38-5.7-2.86-12.4-.17-18.53a73.85,73.85,0,0,1,10.45-17.45C466,218,477.4,212.53,491.23,213.53c12.65.91,30.5,1.7,39.15,12.36s13.25,25.83,10.26,39.22a4.37,4.37,0,0,0,.47,3.26c-.85,2.69.49,6,4.07,5.73,10.65-.84,21.62-3.27,30.45-9.6,9.56-6.84,14.49-17,16.25-28.43S595.24,210.68,590.84,199.81Z"/></g><g id="Layer_3" data-name="Layer 3"><path class="cls-2" d="M583.65,185.07l-.79-1.17a5.22,5.22,0,0,0-.54-.7c-2.49-6.07-5.7-12.16-12-14.57.94-4.32-4.65-8.73-8.33-4.72-5.5,6-2,12.52,1.83,18.29,1.8,2.7,3.48,5.77,5.94,7.93,2.73,2.4,6.11,2.93,9.61,3.16a4.35,4.35,0,0,0,4.8-4.4A5,5,0,0,0,583.65,185.07Z"/><path class="cls-3" d="M27.32,123.49c-.32-3.39-5.11-6.39-8.76-3.46-13.35,10.72-4.89,31.49-1.78,45,1.07,4.66,8.71,4.87,9.64,0,1.61-8.39,3.24-16.87,3.52-25.43C30.11,134.64,30.5,127.75,27.32,123.49Z"/></g><g id="Layer_4" data-name="Layer 4"><path class="cls-4" d="M393.24,135.12a88.69,88.69,0,0,1,16.51,1.22,4.89,4.89,0,0,0,1-.41,8.87,8.87,0,0,1,.92-2.19l0-.08a4.83,4.83,0,0,0-.68-.17c-19.09-25.21-43.39-46.42-71.77-60.59a188.51,188.51,0,0,0-25.91-10.64c-3.56.14-7.12.26-10.68.24-10.64,0-21.3-.63-31.94-.87-9.49-.21-19-.24-28.48-.53-.48,16.53-.5,33.08-.48,49.62.21,4.88.41,9.76.66,14.62a4.78,4.78,0,0,0,2.33,4,5.38,5.38,0,0,0,1.08,2.75c18.9-.34,37.86.58,56.69,1.65l9.37.54a1.28,1.28,0,0,1,.94-.42,226.74,226.74,0,0,1,28.67.85c2,.19,4,.29,6,.36l3.37.06c5.85,0,11.72-.28,17.58-.33,7.93-.07,15.74.84,23.62,1.36A1.29,1.29,0,0,1,393.24,135.12Z"/><path class="cls-4" d="M468.4,123.26l.62-.08c0-.15-.09-.31-.15-.47-.17-.42-.38-.81-.58-1.2-3.26-2.11-6.71-3.91-9.78-6.29a44.84,44.84,0,0,1-4.39-4.1q-1.35-.87-2.7-1.77c-1.37-.71-2.69-1.42-3.89-2.19-9.4-6-18.15-12.79-27.78-18.51L389.22,70.52c-6.65-4-13.31-8-20.5-10.81a3,3,0,0,0-1.29-.82,72,72,0,0,0-12-6.53,2.2,2.2,0,0,0-.17-.25c-.48-.28-.94-.59-1.39-.9a2.29,2.29,0,0,1-1.76,0c-.8-.33-1.62-.62-2.45-.88a5.64,5.64,0,0,0-2,1.14,10.16,10.16,0,0,0-3.21,6.93c10,6,20.47,11.18,30.66,16.86,10.92,6.07,20.8,13.45,31,20.52,11.13,7.69,22.69,14.6,34.3,21.51a118.88,118.88,0,0,1,12,8.11C457.77,124.61,463.08,123.92,468.4,123.26Z"/><path class="cls-4" d="M215.34,100.59c.38-13.12,1.66-26.13,1.59-39.24l-.86.07c-.58.06-1.15.11-1.73.13-4.75.36-9.5.59-14.27.55-17.62-.15-35-.67-52.63.36q-14.94.87-29.79,2.62c-1.54.58-3.06,1.18-4.58,1.81A98.77,98.77,0,0,0,104,71.21a1.19,1.19,0,0,1-.67,1C98.2,75,94,78.94,89.5,82.58c-1.73,1.85-3.42,3.73-5.11,5.61a1.15,1.15,0,0,1-1.17.4,48.71,48.71,0,0,0-3,4.68A80,80,0,0,0,72.25,115c-.54,2.37-1.35,4.79-1,7.05a1.38,1.38,0,0,0-.86,1.32c0,1,0,2.08,0,3.13a3.08,3.08,0,0,0,.76,2.43,3.14,3.14,0,0,0,2.63.5c.41,0,.81-.13,1.21-.21a4.45,4.45,0,0,0,3.76,1.74l130.38-1a5,5,0,0,0,2-.39,5.67,5.67,0,0,0,3.08.52,33.64,33.64,0,0,1-.13-10.93C214.72,112.91,215.17,106.79,215.34,100.59Z"/></g><g id="Layer_5" data-name="Layer 5"><path class="cls-5" d="M121.53,240.73a38.12,38.12,0,0,0-7.44-9.26A46.56,46.56,0,0,0,98.73,216.6a45.41,45.41,0,0,0-35-4.7,32.86,32.86,0,0,0-17.33,7.47,4.35,4.35,0,0,0-.44.41,4.92,4.92,0,0,0-1.21,1,46.2,46.2,0,0,0-3.36,4.07,39.93,39.93,0,0,0-11.48,17.49A45.91,45.91,0,0,0,29.77,269c-.14,7.24,1.39,14.14,6.21,20a32.61,32.61,0,0,0,12.43,12.68,40.08,40.08,0,0,0,16.93,5.3,34,34,0,0,0,13,1.89c13.73-.88,28.3-9.33,36.89-20a29.61,29.61,0,0,0,6.52-16.6,42.52,42.52,0,0,0,1.86-5.86C125.6,258.11,125.78,248.36,121.53,240.73Z"/><path class="cls-5" d="M544.1,253.42a5.08,5.08,0,0,0-.93-2.62,56.68,56.68,0,0,0-12.55-27.39c-6.38-7.36-16.42-9.35-25.7-10.13a67,67,0,0,0-12.9.17c-1.45-.08-2.92-.09-4.42,0-7.64.33-16.27,1.56-22.74,5.92a29.27,29.27,0,0,0-8.8,9.81c-7.72,7.58-11.12,17.61-12,28.57s-.5,23.13,6.37,32.18c.54,1.17,1.11,2.34,1.76,3.48,8.24,14.59,23,21.93,39.49,22.24,14,.26,29.88-3.64,39.23-14.79a29.71,29.71,0,0,0,2-2.68C545.08,287.46,545.3,268.9,544.1,253.42Z"/></g><g id="Layer_6" data-name="Layer 6"><path class="cls-6" d="M88.57,252.46c-.13-.55-.25-1.1-.39-1.66a.43.43,0,0,0,.29-.31c.34-1.3-.76-2.65-1.88-3.64a1,1,0,0,0-.22-.19,10.77,10.77,0,0,0-1-.78c-.38-.27-.77-.51-1.17-.74a8,8,0,0,0-5.59-2.84,19.4,19.4,0,0,1-2.22-1.36c-.46-.33-1,.42-.61.78s.75.59,1.16.88a2.16,2.16,0,0,0-.34.17c-.52.36,0,1.23.51.86a2.11,2.11,0,0,1,.9-.32c3,1.89,6.28,3.6,7.15,7.19.15.62,1.12.36,1-.27a7.8,7.8,0,0,0-1.81-3.4.53.53,0,0,0,.51-.11l.54.4a.54.54,0,0,0,.41.32c1.22,1.23,1.49,3.72,1.87,5.28C87.76,253.35,88.73,253.08,88.57,252.46Z"/><path class="cls-6" d="M93.76,253.1c-2-7.65-10.61-12.44-18.42-12.38a14.68,14.68,0,0,0-1.72-.38,13.06,13.06,0,0,0-6,.22,14.76,14.76,0,0,0-6.69,3.81,17.06,17.06,0,0,0-2.28,2.75A15.87,15.87,0,0,0,55.84,264,17.24,17.24,0,0,0,60.16,273c6.71,7.31,18.43,8,26.4,2.34A16.51,16.51,0,0,0,92.44,268,22.42,22.42,0,0,0,93.76,253.1Zm-10.18-7.87a17.62,17.62,0,0,0-7.8-3.31,10.34,10.34,0,0,1,2.47.47,14.41,14.41,0,0,1,8.91,6.37.59.59,0,0,1,.1.47A13.6,13.6,0,0,0,83.58,245.23Z"/><path class="cls-6" d="M502.92,240.19a24.73,24.73,0,0,0-20.25,1.55,13.42,13.42,0,0,0-4.31,3.8l-.13.1c-8.64,7.12-5.7,19.89-.25,28.12,5.88,8.89,16.58,14,26.83,9,7.6-3.74,11.2-11.44,10.66-19.25C516.86,253.93,513.42,244.21,502.92,240.19Z"/><path class="cls-7" d="M257.28,103.29c.58-10.29.22-20.15,1-30.7a2.55,2.55,0,0,0-.73-2.1,3.06,3.06,0,0,0-5.29-.21,24.29,24.29,0,0,0-1.31,2.53,3,3,0,0,0-2.07,2.65,99.16,99.16,0,0,0-.46,12.05c0,1.94.08,3.89.16,5.83q.27,6.91.9,13.82c.31,3.35.14,7.09,3,9.36,1.16.94,3.25,1.26,4.32,0,1,.15,2.59-.12,2.68-1.49C259.63,112,258.12,107.07,257.28,103.29Z"/><path class="cls-7" d="M126.43,73.22A51.09,51.09,0,0,0,97.29,87.57a75.31,75.31,0,0,0-11.12,13.91C83.3,106,80.61,110.71,81,116.22a2.94,2.94,0,0,0,1.2,2.24,3,3,0,0,0,3.7,2.64C91.58,120,98,85.93,126.5,75,127.91,73.13,129.29,72.86,126.43,73.22Z"/><path class="cls-7" d="M264.38,214c-.27-6.43-6.47-45.83-8.64-53.29-.08-.21-.14-.43-.21-.64-.16-.44-.28-.64-.38-.56-3.08,2.77-2.15,7.17-1.93,10.89.2,11.82,2.2,23.81,3.09,35.6.35,4.61-.73,9-.27,13.61q.18,3.09.35,6.17a3.08,3.08,0,0,0,.47,1.47c.4,2.78,1.15,5.42,3.49,7.34a3.06,3.06,0,0,0,5-1.33C267.77,227.4,264.63,220.17,264.38,214Z"/><path class="cls-7" d="M542.44,160.85c-23.89-8.53-50.11-21.77-73.68-17.1-3.57.71,40,6.93,62,19.74l8.25,3.28,1.85-.15.79.12C545.19,167.2,545.41,161.91,542.44,160.85Z"/><path class="cls-8" d="M595.82,225.59c0-.05,0-.11,0-.16-.06-1.12-.06-2.24,0-3.35q-.06-1-.09-2l-.06-.08c-1.08-9.62-.79-19.11-5.07-28.34a95.45,95.45,0,0,0-15.78-23.39l-.45-.4c-1.19-1.07-2.29-2.22-3.4-3.37a11.68,11.68,0,0,1-1.19-1.14,1.12,1.12,0,0,0-.31,0,51.55,51.55,0,0,0-14.19-9.15c-7-3-14.09-5.82-21.13-8.72-4.29-1.76-8.7-3.44-13.12-5.14l.06-.12a74.53,74.53,0,0,1-12.56-5c-3.13-1.54-9.09-2.21-11.68-5.06a53.87,53.87,0,0,0-9.64-3.49,13.77,13.77,0,0,1-5.63-2.51c-16.3-6.89-30.47-17.73-44.92-27.83-1.92-1.34-3.87-2.65-5.83-3.95-3.37-1.24-6.33-3.46-9.21-5.62-3.76-2.83-7.63-5.54-11.47-8.28q-10.35-5.3-20.61-10.76-9.45-5-18.86-10.18l-8.57-4.69c-.92-.51-2.92-1.33-4.86-2.28a1.33,1.33,0,0,1-.8-.16c-2.88-1.5-6-2.57-8.88-4q-12.66-.45-25.32-1c-7.41.59-15.11.13-22.48,0-8.66-.17-17.3-1-26-1.17-9.22-.22-18.45-.41-27.67-.46-5.74,0-11.45.43-17.13.15l-16.59.45c-1,0-1.95-.11-2.93-.18-1.74.12-3.49.19-5.25.17-2.19.16-4.38.28-6.58.34a.19.19,0,0,0,0,.08c-36.86,1-73.73,1.9-110.53,4.27-2,1.32-3.74,2.88-5.66,4.27-.35.26-.71.5-1.07.75l-.9.71c-1.14,1-2.3,1.95-3.5,2.87A299.83,299.83,0,0,0,20.68,118a2.37,2.37,0,0,0-.19.34c-10,2.5-10.52,18.63-10,27a73.1,73.1,0,0,0,3.69,18.57c.83,2.5,2.17,5.59,4.43,7.09-.66,3.42-.81,6.81-3.27,9.7s-5.55,4.53-8.76,6.13l-.08-.08a16.88,16.88,0,0,1-4.85,1.71c-1.31,2.08-1.33,4.79-.95,7.44,1,7.13,2.36,14.19,3.22,21.36,1.61,13.43,3.39,26.82,9.39,39.11a2,2,0,0,0,2.73.72,31.68,31.68,0,0,0,10.62-7.81l.15.05a64.35,64.35,0,0,0,9.45,39.36c8.13,12.85,21.27,19.2,36.09,21.27,29.56,4.11,53.19-20.82,52.4-49.2.11-.72.19-1.44.25-2.15l.25,0c32.3,1.9,64.59,4,96.92,5.4,16,.68,32.09,1.14,48.15,1.2,11.87,0,23.75-.08,35.59.67a1.91,1.91,0,0,0,.46.48,39.25,39.25,0,0,1,5.31.62c21,1.08,42.09,2.42,63.14,2.53,22.35.12,44.48-3.22,66.76-.58a68.41,68.41,0,0,0,15.14,32c5,5.93,12.12,12.82,20,15.81a1.84,1.84,0,0,0,1.27.47h0a20.64,20.64,0,0,0,7.75,1c17,1.71,34.65-4.42,46.35-17.2a54,54,0,0,0,12.72-24.81,2,2,0,0,0,.78,0c13.12-2.3,29-5.76,37.69-16.78A61.11,61.11,0,0,0,595.69,229c.07,0,.12-.09.18-.13C595.84,227.77,595.81,226.68,595.82,225.59ZM563,163.49a54.08,54.08,0,0,1,6,4.94,1.93,1.93,0,0,0,.86.49,97.76,97.76,0,0,1,14.36,19.28,1.27,1.27,0,0,0-.89.73c-2.59,5.08-8.38,2.77-12.15.56a17.89,17.89,0,0,1-7.13-7C561.14,177.2,556.66,168.05,563,163.49Zm-213.26-113H350c2.78,3.17,8.6,5,11.76,6.73q9.58,5.27,19.23,10.46a2,2,0,0,0,.69.61c18.58,10.06,37,20.29,54.31,32.46,11.31,7.94,22.49,16.15,34.67,22.59-5.72.84-12.14,2.09-17.49.8a1.41,1.41,0,0,0-.69-1.53C416.66,100.9,381,78.89,344.93,57.55ZM16.54,157.77a65.84,65.84,0,0,1-2-11.58c-.44-5.83-.89-23.5,7.76-24.17a2.05,2.05,0,0,0,1.21-.5c5.95,1.35,4,16.76,3.95,21a103.39,103.39,0,0,1-.56,10.71c-.38,3.27-.86,9.84-3.08,12.48C19.48,170.9,17.22,160.4,16.54,157.77Zm103.89,98.48c.18,1.45.26,2.9.3,4.34-.07.45-.14.89-.22,1.34a2,2,0,0,0,.21,1.4c-.8,24.42-20.61,45.76-46.64,42.83-14.63-1.65-27.65-8.08-35.25-20.94a60.9,60.9,0,0,1-7.49-40.63,2,2,0,0,0-.73-1.94c5.84-21.15,33.66-33.39,53.87-30,20.79,3.52,37,21.13,36.77,41.88A1.55,1.55,0,0,0,120.43,256.25Zm408.89,42a51.72,51.72,0,0,1-42.46,16.13,2,2,0,0,0-.83-.08,50.11,50.11,0,0,1-6.64-1.15,2,2,0,0,0-1.28.1C469.62,310.08,461.6,301.18,457,295a65,65,0,0,1-10.5-22.15,1.71,1.71,0,0,0,.08-1.45c-4-11.39-.88-27.73,5.74-37.66,6.92-10.37,18.35-16.89,30.47-19.14,12.56-2.34,27.12-1.23,38.57,4.76,10,5.25,14.76,14.32,18.24,24.31l-.24.17a31.23,31.23,0,0,1,.91,6.14C544.91,266.61,541.15,285.31,529.32,298.23Zm50.21-40.38c-8,9.33-22.26,12.31-33.93,14.37a56.47,56.47,0,0,0-.62-20c-1.12-3.28-2.09-6.61-3-10-1.05-3.8-2.42-7.5-3.5-11.28a36.31,36.31,0,0,0-14.35-14.78c-12.49-6.86-28.55-8.18-42.37-5.54-12.9,2.47-24.92,9.44-32.43,20.37-6.06,8.82-9.55,22.32-8.25,33.81-22.11-2.54-44.08.75-66.26.63-17.49-.09-35-1-52.47-2a1.33,1.33,0,0,1-.94.12c-.37-.09-.75-.16-1.13-.23l-.91-.05a1.68,1.68,0,0,0-.33-.16c-1.2-.19-2.41-.35-3.61-.52l-2.06-.21-.16-.12c-.5-.08-1-.18-1.49-.28a2.15,2.15,0,0,0-.59.19c-13.56-1.19-27.19-1-40.81-1.07-16.06-.06-32.11-.52-48.15-1.2-32.33-1.37-64.62-3.5-96.92-5.4h0c.14-23.06-17.8-42.68-41.18-46C61.32,205.34,32.13,219.46,26.45,243a.75.75,0,0,0-.11.13A28.25,28.25,0,0,1,16,252.65c-4.56-10.1-6.31-21-7.65-32-.58-4.76-1.11-9.54-1.78-14.29-.43-3-3.33-11.53-1.73-15.28a2,2,0,0,0,1.93.06c4.5-2.21,9-4.56,12.18-8.61,2.6-3.37,2.75-7,3.57-10.76h.08c4.22-.73,5.67-5.75,6.64-9.26,1.79-6.48,2.18-13.27,2.26-20,.08-6,2.12-22.2-5.75-24.83A294,294,0,0,1,86.82,54a2.14,2.14,0,0,0,.71-1c39.81-2.54,79.7-3.4,119.57-4.5l5.25-.15c21.05,1.07,42.17-.94,63.26-.47,23.53.53,47.07,1.57,70.6,2.43-1.07,1.56-2.14,3.13-3.22,4.69a.36.36,0,0,1,0,.11c-.53,1-1.14,2-1.71,2.93a25.31,25.31,0,0,1,4.81,3.59c35.08,20.79,69.8,42.21,104.66,63.38a1.43,1.43,0,0,0,1,1.82c6.89,2,15.31-.24,22.28-1a1.5,1.5,0,0,0,.91-.4,111.16,111.16,0,0,0,10.33,4.39,1.82,1.82,0,0,0,.8.12,32.09,32.09,0,0,0,7.66,2.8c10.77,5.66,22.67,9.64,33.81,14.22s22.85,8.25,32.92,14.68c-7.07,6.35-2.14,18.15,2.64,24.73,4.64,6.38,17.47,13.54,22.64,4.41.48.94.95,1.88,1.38,2.84,4.36,9.57,3.62,19.75,5,29.83C591.75,235.68,587.42,248.61,579.53,257.85Z"/><path class="cls-8" d="M79.84,239.8a2.27,2.27,0,0,0-.17-.5,38.77,38.77,0,0,0-10.45-1.12C60.44,239.58,53,245,52.39,255.29c-.74,12.29,7,24.79,19.42,27.53,10.94,2.42,23-4.29,24.78-15.81C98.21,256.58,90.44,242.76,79.84,239.8Zm13,25.73c-1.05,10.24-12.06,15.84-21.41,13s-15.07-12.22-15-21.72c0-11.27,9.35-15.42,19-15,0,0,0,0,0,0a10.76,10.76,0,0,1,2.9.5,14.47,14.47,0,0,1,8.9,6.37.62.62,0,0,1,0,.79C91,254.11,93.32,260.3,92.79,265.53Z"/><path class="cls-8" d="M518.49,258c-.84-8.42-6.4-16.22-13.88-19.15-3.39-.48-6.76-1.12-10.16-1.54-3.8-.48-7,.33-10.38,1.19a23.65,23.65,0,0,0-13.47,22.45c.69,13.92,12.3,24.26,25.93,25,6,.31,12.45-1.09,16.29-6C517.39,274.06,519.22,265.26,518.49,258Zm-7.8,17.94c-3.33,5.42-9.68,6.53-15.62,5.86-10.84-1.22-19.87-9.76-20.47-20.85a19.58,19.58,0,0,1,15-20.14.64.64,0,0,1,.41-.23c3.9-.57,8.88-.29,12.49,1.76,7.07,2.28,12,10.1,12.17,18A29.61,29.61,0,0,1,510.69,275.93Z"/><path class="cls-8" d="M452.3,162.29c-.33-1.9-3.22-1.09-2.89.8,1.66,9.43,7.65,16.68,2.4,26.24-4,7.28-11.39,11.77-17.26,17.36A55.31,55.31,0,0,0,421.8,225c-2.92,6.84-4.6,23.36-15.48,20.38a1.37,1.37,0,0,0-1.63.69l-121.72-3c-7.36-.17-14.76-.17-22.14-.37a1.3,1.3,0,0,1-.93.09l-.65-.14-1,0a.6.6,0,0,0-.14-.21c-3.79-.62-7.78-.48-11.37-1.93l-.31,0c-2.87-.42-7-.31-9.7-1.53-4.27-2-4.9-10.21-5.4-14.16-.47-3.72-.65-7.47-.85-11.21-.87-15.83-1.92-31.68-2.33-47.53-.83-32,1.94-64,4.7-95.86.17-1.93-2.83-1.92-3,0-3,35.08-5.92,70.21-4.36,105.45.75,16.86.7,34.28,3.09,51,.66,4.65,1.23,12,5.85,14.6,2.63,1.49,6.52,1.45,9.39,1.87l3.2.46c2.94.35,5.86.82,8.79,1.24,1.93.27,4,.43,6,.78l6.49.16,26.46.64,52.81,1.28,60.23,1.46a1.34,1.34,0,0,0,1.12-.49c5.77-.26,9.86-5.48,11.84-11,1.9-5.29,3.1-10.59,5.78-15.6a52.72,52.72,0,0,1,10.16-13.31c6.79-6.46,15.37-11.65,19-20.7C459.52,178.71,453.91,171.39,452.3,162.29Z"/><path class="cls-8" d="M215.49,147.6v0a10.71,10.71,0,0,0-2.53.6l-.26.06c-4.89,30.15-2.89,60.61-.34,90.88-.65,0-1.28-.05-1.92-.12a1.09,1.09,0,0,1-1,.36c-2.29-.24-4.58-.49-6.85-.85l-47-2.33c-8.4-.41-19.29.36-24.67-7.47-4-5.77-5.71-12.73-9.89-18.46-8.65-11.88-21.24-13.81-34.81-16.29-1.58-.28-3.16-.58-4.73-1-4.23-1-6.44-1.12-7.59-6.53-.9-4.2-.29-9.46-.3-13.71,0-9.15.35-18.28,1-27.4.14-1.93-2.86-1.92-3,0-.77,10.42-1.13,20.86-1,31.32.08,6.15-1.52,15,5.35,17.88s14.93,2.93,22.1,4.6c9.49,2.2,16.85,6.86,22.11,15.16,3.93,6.21,5.61,14.75,11.39,19.58,5,4.19,11.94,4.64,18.17,5,19.12,1.06,38.26,1.91,57.39,2.85,2.74-.49,5.69,0,8.49.27-2.65-31.08-5-62.45.05-93.41A1.51,1.51,0,0,0,215.49,147.6Z"/><path class="cls-8" d="M308.56,164.28c-9.79-1.44-20.36-1.64-30,.63a1.34,1.34,0,0,0-1,1.75A1.47,1.47,0,0,0,275.4,168c0,2.71-.25,7.3,1.83,9.37s7.7,1,10.45.89q8.34-.3,16.63-1.4c3.2-.42,7.53-.4,10.09-2.7C319.39,169.64,313,164.94,308.56,164.28Zm1.82,8.13c-.12.56-.65.83-1.61.78-2,1.33-6.88,1-9.34,1.23s-5.21.48-7.83.64a72.31,72.31,0,0,1-8.83.29c-1.76-.11-3-.06-3.8-1.49s-.56-4.31-.57-5.88a2.06,2.06,0,0,0,0-.26,1.52,1.52,0,0,0,1,.08,63.94,63.94,0,0,1,17.29-1.41c2.51.1,5,.28,7.53.49a17.22,17.22,0,0,1,4,.39,1.89,1.89,0,0,1,1.32.24,3,3,0,0,1,2.64,2.36C312.31,171.06,311.58,171.87,310.38,172.41Z"/><path class="cls-8" d="M120.55,155.45c-2.57-3.65-6.86-5.22-11.35-6a1.19,1.19,0,0,1-.67.1c-2.9-.32-5.8-.71-8.72-.75a1.33,1.33,0,0,0-.53.31c-2.94-.28-5.9-.49-8.85-.53-1.87,0-4.05-.31-5.64.95A17.59,17.59,0,0,0,81.21,155a2.8,2.8,0,0,0,.73,3c3,3.22,12.09,2.81,16,2.72,7.31-.17,14.53-1.6,21.67-3A1.51,1.51,0,0,0,120.55,155.45Zm-30.64,1.78c-1.14-.16-5-.29-5.49-1.47-.32-.78,2.37-3,2.79-3.3,1.86-1.21,4.75-1.24,7.64-1,3.37-.29,6.77-.46,10,.48,4,.27,8.58,1,11.52,3.28C107.64,157,98.75,158.5,89.91,157.23Z"/><path class="cls-8" d="M216.61,60.61a1.46,1.46,0,0,0-.26-.34c-.52-.11-1-.21-1.57-.3-8.43,2.35-17.86.57-26.49.25s-17-.4-25.51-.27c-15.44.23-33.12-.7-47.62,5.41-24.85,10.48-48.06,34-46.68,62.56a1.49,1.49,0,0,0,.34.9A3.05,3.05,0,0,0,71.13,131c3.09-.21,6.14.51,9.21,1,38.37.33,76.85,1,115.18-1.08a2.32,2.32,0,0,1,.77-.1c2.23.11,4.45.14,6.67.15l7.08-.14a1.7,1.7,0,0,0,.09.24c2,.06,4.08.18,6.12.39a1.61,1.61,0,0,0,.39-1q1.52-34.17,1.53-68.37A1.42,1.42,0,0,0,216.61,60.61Zm-2.87,67.09-1,0a1.25,1.25,0,0,1-1,.5c-9.65,0-19.3.29-28.95.3a1.52,1.52,0,0,1-.38-.05c-33.35,1.28-66.78.79-100.14.49-2.9.48-6,1-8.47-.45h-.44a1.37,1.37,0,0,1-1-.4c-.46,0-.71,0-.76-.3a1.39,1.39,0,0,0-.19-.53c-.53-15,6.11-29,16.46-39.64,9.42-9.72,22.57-18.91,35.9-22,7.53-1.76,15.56-1.82,23.25-2.18s15.7-.55,23.55-.55,15.7.2,23.55.59c7,.34,14.11,1.29,21-.51Q215.13,95.34,213.74,127.7Z"/><path class="cls-8" d="M410.39,136.81l1.56-.07a27.08,27.08,0,0,1-.56-3.91.89.89,0,0,1,0-.23c-15.1-25.85-39.59-44.37-65.59-58.47-6.57-3.57-13.27-7.2-20.32-9.75-7.95-2.88-16.48-3.44-24.83-4.16a470.07,470.07,0,0,0-59.22-1.28,1.55,1.55,0,0,0-1.28,2.27l0,.11c-1.95,23.69-3.7,47.68,2.06,71h0a34.12,34.12,0,0,1,4.16.16q.79.12,1.59.3,81.19,2.09,162.41,4Zm-165.34-7.1a1.37,1.37,0,0,0-.36,0c-5.14-22.31-3.47-45.24-1.6-67.86a468.18,468.18,0,0,1,53.63,1c8.78.68,17.95,1,26.38,3.81,7.38,2.43,14.39,6.32,21.2,10,25.44,13.8,49.41,31.79,64.29,57Q326.83,131.75,245.05,129.71Z"/><path class="cls-8" d="M545.48,162.71a1.57,1.57,0,0,0-.94-2c-13.76-5.21-27.55-10.51-41.47-15.28a62.46,62.46,0,0,0-18.93-3.53c-5.8-.15-12.34-.86-18,.52a1.4,1.4,0,0,0-.93,2,1.5,1.5,0,0,0,1.12,2.46c8.88-.14,18.62,2.2,27.36,3.82,8,1.48,14.81,4.49,22.08,8.09,6.21,3.08,12.83,5.3,19.34,7.65,3.93,1.42,9.23,3,10.8-2.31A1.33,1.33,0,0,0,545.48,162.71Zm-40.24-12.13c-6-2.12-12.26-3-18.5-4-4-.62-8.09-1.48-12.18-2.06,3.82,0,7.75.29,11.29.44,6.89.3,13.25,2.21,19.69,4.54q18.78,6.78,37.47,13.84s0,0,0,0C541.34,168.93,509.16,152,505.24,150.58Z"/><path class="cls-8" d="M268.41,227.35c-.52-3.56-1.71-7-2.36-10.52-.75-4.07-1-8.24-1.49-12.35a326.51,326.51,0,0,0-7.45-40.56,26,26,0,0,1-2.16-6,1.55,1.55,0,0,0-2,1.37,1.32,1.32,0,0,0-.28.94q1.25,24.19,2.5,48.39c.37,7.25.34,14.68,1.45,21.87.82,5.31,2.59,5.57,6.88,5.69a14.75,14.75,0,0,0,3.57-1.68,2,2,0,0,0-.13-.43C269,232.87,268.8,230,268.41,227.35ZM265,231.68a1.6,1.6,0,0,0-1.43,1.6,5.58,5.58,0,0,1-2.5-.43c-1.87-1-1.67-3.37-1.9-5.59-.32-3.23-.41-6.49-.58-9.73q-.48-9.37-1-18.76l-1.31-25.24c1.67,7.55,3.08,15.15,4.18,22.8.85,5.9,1.36,11.83,2.13,17.74C262.85,215.81,266.79,231.49,265,231.68Z"/><path class="cls-8" d="M259.59,102.84c.23-6.45.83-12.89.67-19.34-.08-3.38.31-11.8-2.4-14.42-2.18-2.1-6,.34-8,1.73a1.47,1.47,0,0,0-.59.83A1.22,1.22,0,0,0,248,72.72c-2.22,12.56-3.13,25.82-1.22,38.49.42,2.76,1.05,5.16,3.83,6.33,2.26,1,7,2.12,8.69-.25,1-1.49.44-3.57.35-5.25C259.45,109,259.49,105.91,259.59,102.84Zm-2.42-12c-.14,3.69-.4,7.38-.54,11.07s.57,7.58.05,11l.15,1.83a3.38,3.38,0,0,1-3.24.37c-3-.61-3.74-3.13-4-5.85-.43-3.8-.64-7.63-.7-11.45a128.46,128.46,0,0,1,2-24.21,1.31,1.31,0,0,0,.56-.25c1.75-1.25,3.31-2.68,4.73-.35,1.05,1.73.79,4.75.95,6.81A98.08,98.08,0,0,1,257.17,90.84Z"/><path class="cls-8" d="M126.62,76a35.35,35.35,0,0,1,3.49-2.93,1.57,1.57,0,0,0-1.73-1C103.82,76.25,82.67,94,78.88,119.36a1.54,1.54,0,0,0,.43,1.34,1.27,1.27,0,0,0,1,1c2.42.53,4.86.93,7.32,1.22a1.22,1.22,0,0,0,1-.27,1.46,1.46,0,0,0,1.42-.66c2.68-4,3-9.29,5.2-13.6a91.43,91.43,0,0,1,8.48-13.11c5.13-6.92,11.46-11.43,18.63-15.27C123.79,78.67,125.19,77.31,126.62,76ZM103.12,91.2a107.28,107.28,0,0,0-9.18,13.4,47.8,47.8,0,0,0-3.16,6.62c-1.08,2.85-1.43,6.11-3,8.75l-.13,0c-1.91-.23-3.81-.56-5.69-1,3.73-21.57,20.39-37,40.82-42.58C115.35,80.15,108.44,84.46,103.12,91.2Z"/></g></svg>