<svg xmlns="http://www.w3.org/2000/svg" viewBox="0 0 1024 200"><defs><style>.cls-1{fill:#fff;}</style></defs><title>Artboard 2</title><g id="Layer_1" data-name="Layer 1"><rect class="cls-1" width="1024" height="200"/></g><g id="Layer_2" data-name="Layer 2"><path d="M1024,198.61q-5.36-.18-10.72-.16a.44.44,0,0,0-.39.21h0l-.11,0-18.41,0c-6.1,0-12.32.31-18.4-.18a.41.41,0,0,0-.39.17l-37.44.35a.51.51,0,0,0-.22-.06q-25.35-.74-50.71-.14l-.12,0c-5.56-.14-11.12-.27-16.68-.32s-11.26.32-16.85.05a.52.52,0,0,0-.23,0l-24.76-.14a.45.45,0,0,0-.45.31c-11-.53-22,.47-33.05.17l-.17,0q-6.14-.22-12.29-.22c-4,0-8.13.48-12.13.21a.4.4,0,0,0-.35.12c-11.44-.49-22.86-.86-34.29-.37a.44.44,0,0,0-.28-.08c-4.78.16-9.55.27-14.32.3-4.25,0-8.57-.25-12.82.06a.46.46,0,0,0-.31-.12c-11.33.14-22.65.29-34-.25a.42.42,0,0,0-.38.18q-14.78-.07-29.56,0a.4.4,0,0,0-.3-.1c-4.43.17-8.88.43-13.31.48-4.71,0-9.38-.71-14.09-.24a.61.61,0,0,0-.28.13c-10.54-.87-21.26-.15-31.81,0a.58.58,0,0,0-.28.1c-4.43-.32-8.87-.3-13.31-.34s-9-.18-13.54.1q-14.09-.33-28.18-.35a.43.43,0,0,0-.39.21c-6.47-.23-12.95-.1-19.42-.08s-13.08-.35-19.51.41h-.05a.43.43,0,0,0-.31-.13c-5.41-.25-10.83-.3-16.25-.11a48.89,48.89,0,0,1-7.46-.15c-2.74-.33-5.46.27-8.17,0h0l-.6,0a.52.52,0,0,0-.31,0H421.43a.43.43,0,0,0-.41.24q-15.27-.24-30.53-.16a.48.48,0,0,0-.18,0c-9.8-.07-19.6-.24-29.4-.1a.7.7,0,0,0-.23.06c-5.16.22-10.33.25-15.49.05s-10.31.18-15.47,0a.42.42,0,0,0-.37.16c-9.77.11-19.54.29-29.3-.23a.49.49,0,0,0-.25.06c-5.54-.26-11.07.35-16.61.2-2.5-.06-5-.39-7.48-.39a71.91,71.91,0,0,1-8.93-.13.38.38,0,0,0-.39.16c-11.42.24-22.86,0-34.28-.09a.42.42,0,0,0-.26.08.46.46,0,0,0-.23.12l-15.44,0c-4.26,0-8.58-.16-12.85,0a.41.41,0,0,0-.43-.23c-5.29.57-10.81.14-16.14.13l-16.32,0a.45.45,0,0,0-.37.16l-18.61-.23c-4.46-.06-9,.17-13.42.07a.42.42,0,0,1-.26.08c-1.55,0-3.08.12-4.61,0a.8.8,0,0,0,0,.15l-20-.05-10.34,0c-2,0-4.07.08-6.12.08a.44.44,0,0,1-.29.1,9.82,9.82,0,0,1-1.09-.12c-.36,0-.72,0-1.07,0a.45.45,0,0,0-.12-.21l-.62-.13c-16.42.53-32.85-.52-49.26.27a.45.45,0,0,0-.23.07q-21.85-.09-43.73-.05a.5.5,0,0,0,0,1q22.08,0,44.17.05a.43.43,0,0,0,.26-.09c15.49-.71,31,.17,46.49-.2a70.43,70.43,0,0,0,9.64.26l11.32,0,17.78,0a.47.47,0,0,1,.37-.22,34.88,34.88,0,0,1,5.87-.08h0c5.09.24,10.2-.06,15.29,0l19.27.23a.42.42,0,0,0,.37-.16l15.66,0c4.48,0,9.1.31,13.61.07a.4.4,0,0,0,.39.17c5.1-.39,10.3-.13,15.42-.14l16,0a.45.45,0,0,0,.38-.19c11.55.06,23.12.34,34.66.07a.55.55,0,0,0,.27-.1,74.76,74.76,0,0,0,7.78.08c2.66,0,5.29.32,7.95.39,5.77.16,11.53-.52,17.31-.18a.37.37,0,0,0,.24,0c9.76.49,19.52.3,29.29.19a.46.46,0,0,0,.34-.14c4.94.15,9.87-.19,14.82,0,5.27.21,10.55.17,15.82-.06a.46.46,0,0,0,.21-.05c9.8-.13,19.61,0,29.42.1a.46.46,0,0,0,.21,0q15.28-.09,30.58.16a.44.44,0,0,0,.41-.24H457.5c2.12.12,4.21-.35,6.36-.22,2.81.16,5.47.5,8.3.39q8.61-.33,17.21.07h0a.42.42,0,0,0,.36.12c6.43-.76,13-.39,19.51-.41,6.65,0,13.32-.16,20,.1a.41.41,0,0,0,.41-.23q13.75,0,27.51.35h.14c4.49-.28,9-.14,13.5-.1,4.68,0,9.37,0,14,.38a.39.39,0,0,0,.38-.16c10.59-.22,21.32-.91,31.87,0a.4.4,0,0,0,.44-.26c4.36-.28,8.68.36,13,.31,4.15-.05,8.31-.28,12.47-.45a.43.43,0,0,0,.24.07q15.6-.07,31.19,0a.46.46,0,0,0,.36-.15c10.87.49,21.73.36,32.61.23a.42.42,0,0,0,.38.15c4.43-.39,9-.08,13.4-.1,3.88,0,7.77-.11,11.65-.23a.47.47,0,0,0,.35.13c12.42-.68,24.82-.27,37.24.27a.46.46,0,0,0,.34-.13c3.89.23,7.9-.2,11.79-.22s7.75.06,11.62.2a.46.46,0,0,0,.21.05c11.47.36,22.94-.76,34.41-.13a.43.43,0,0,0,.46-.34l24.08.14a.54.54,0,0,0,.22,0c5.58.27,11.21-.09,16.8-.05,5.75.05,11.5.19,17.25.33a.45.45,0,0,0,.24-.05q24.69-.57,49.4.14a.56.56,0,0,0,.26.07l39-.35a.48.48,0,0,0,.3-.12c5.8.4,11.72.11,17.53.13l18.41,0a.57.57,0,0,0,.15,0l.11,0a.48.48,0,0,0,.38-.18c3.53,0,7.06.05,10.59.16C1024.6,199.63,1024.6,198.63,1024,198.61Z"/></g></svg>