<svg id="Layer_1" data-name="Layer 1" xmlns="http://www.w3.org/2000/svg" viewBox="0 0 27 27"><title>Artboard 1</title><path d="M25.41,12.75c.18-3.55,0-7.08.07-10.63a.5.5,0,0,0-.81-.38l-.09,0c-3.8-.3-7.59.16-11.39.05-3.52-.1-7.12.3-10.62,0-.25-.28-.76-.29-.83.16-.55,3.62.11,7,.12,10.62,0,3.9-.08,7.81-.13,11.71a.53.53,0,0,0,.09.81c1,.51,2.65.23,3.75.28,1.93.08,3.81,0,5.74-.11,4.35-.16,8.72,0,13.07,0a.44.44,0,0,0,.36-.16c.23.42,1,.16.91-.41A58.81,58.81,0,0,1,25.41,12.75ZM12.46,24.21c-1.51,0-3,.18-4.52.2-.79,0-1.58,0-2.37-.07a20.85,20.85,0,0,1-2.84,0c0-3.68.1-7.36.13-11s-.64-7-.22-10.52c3.48.29,7-.1,10.55,0,3.77.11,7.52-.34,11.28,0-.06,3.66.07,7.3-.11,11a58.84,58.84,0,0,0,.24,10.62.48.48,0,0,0-.22,0C20.41,24.24,16.43,24.17,12.46,24.21Z"/></svg>