<svg xmlns="http://www.w3.org/2000/svg" viewBox="0 0 27 27"><defs><style>.cls-1{fill:red;}</style></defs><title>Artboard 3</title><g id="Layer_1" data-name="Layer 1"><path d="M25.41,12.75c.18-3.55,0-7.08.07-10.63a.5.5,0,0,0-.81-.38l-.09,0c-3.8-.3-7.59.16-11.39.05-3.52-.1-7.12.3-10.62,0-.25-.28-.76-.29-.83.16-.55,3.62.11,7,.12,10.62,0,3.9-.08,7.81-.13,11.71a.53.53,0,0,0,.09.81c1,.51,2.65.23,3.75.28,1.93.08,3.81,0,5.74-.11,4.35-.16,8.72,0,13.07,0a.44.44,0,0,0,.36-.16c.23.42,1,.16.91-.41A58.81,58.81,0,0,1,25.41,12.75ZM12.46,24.21c-1.51,0-3,.18-4.52.2-.79,0-1.58,0-2.37-.07a20.85,20.85,0,0,1-2.84,0c0-3.68.1-7.36.13-11s-.64-7-.22-10.52c3.48.29,7-.1,10.55,0,3.77.11,7.52-.34,11.28,0-.06,3.66.07,7.3-.11,11a58.84,58.84,0,0,0,.24,10.62.48.48,0,0,0-.22,0C20.41,24.24,16.43,24.17,12.46,24.21Z"/></g><g id="Layer_2" data-name="Layer 2"><path class="cls-1" d="M26.14,3.92a.42.42,0,0,0,0-.1c-.05-.06-.12-.11-.18-.17-.32-.2-.65-.41-1-.64-.57-.43-1.12-.89-1.66-1.36L23,1.44l0-.06-.31-.26a.52.52,0,0,0-.5-.43.55.55,0,0,0-.18,0,.5.5,0,0,0-.68,0,108.19,108.19,0,0,0-13,17.06h0a63.85,63.85,0,0,1-3.26-6.58A.51.51,0,0,0,4.38,11q-.64.44-1.23.9a.47.47,0,0,0-.26.15l-.09.09a.54.54,0,0,0-.15.15l-.12.12c-.4.36-.8.74-1.17,1.14a.6.6,0,0,0-.06.11l-.25.24a.42.42,0,0,0-.15.25.48.48,0,0,0,0,.61,83.13,83.13,0,0,1,6.76,8.68c.52.72,1,.78,1.47.53A.38.38,0,0,0,9.56,24l.08,0c1.14-1.41,2.26-2.9,3.38-4.41l.41-.6.56-.72c3.74-5.09,7.6-10.31,12.6-13.95Z"/><path d="M26.73,3.61l0,0A25.29,25.29,0,0,1,22.2.21a.47.47,0,0,0-.65,0,.41.41,0,0,0-.48.13A106.45,106.45,0,0,0,8.55,16.64a27,27,0,0,1-3.17-6.21.54.54,0,0,0-.74-.27.36.36,0,0,0-.36.08A24.26,24.26,0,0,0,.4,13.8a.46.46,0,0,0-.12.27.42.42,0,0,0,0,.51A81.51,81.51,0,0,0,5.89,21.9c.89,1,2.43,3.31,3.89,2.42a.43.43,0,0,0,.28-.22h0a.38.38,0,0,0,.13-.19c1-1.55,2.28-2.86,3.36-4.32,1.42-1.9,2.68-3.87,4.23-5.67a65.12,65.12,0,0,1,9.06-9A.39.39,0,0,0,27,4.47.5.5,0,0,0,26.73,3.61ZM16.56,13.82c-1.22,1.45-2.25,3-3.36,4.55-1.24,1.72-2.76,3.23-3.87,5-1.09.71-6.81-7.39-8-9.11a24.2,24.2,0,0,1,3.33-3.07,25.14,25.14,0,0,0,3.58,6.6c.28.35.71.1.8-.25a.43.43,0,0,0,.26-.21A104.3,104.3,0,0,1,21.7,1.11,27.2,27.2,0,0,0,26,4.3,65.08,65.08,0,0,0,16.56,13.82Z"/></g></svg>