<svg xmlns="http://www.w3.org/2000/svg" viewBox="0 0 163 171"><defs><style>.cls-1{fill:#9eca73;}.cls-2{fill:#ceab89;}.cls-3{fill:#a67c52;}.cls-4{fill:red;}</style></defs><title>Artboard 8</title><g id="Layer_11" data-name="Layer 11"><path class="cls-1" d="M153.55,137.8a5.71,5.71,0,0,0-2.87.27,1.49,1.49,0,0,0-.3-.18c-3.57-1.62-7.75-4.37-5.07-8.81a1.36,1.36,0,0,0-.05-1.55,1.34,1.34,0,0,0-1-.67,5.42,5.42,0,0,0-1.71-1.35l-.07,0a5.79,5.79,0,0,1-1.26-2.29,1.39,1.39,0,0,0,.41-.78l.22-.16a6.33,6.33,0,0,0,2.08-2.4,2.63,2.63,0,0,0,1.17-1.24,4,4,0,0,0,.17-3.14c-.54-1.38-3-2.23-3.17-3.54a1.18,1.18,0,0,0-1.33-1.08c0-.63,1.38-2.33,1.56-2.7a3.9,3.9,0,0,0,.41-2.53,4.82,4.82,0,0,0-1.13-2,3.43,3.43,0,0,1-.9-2.41,2.58,2.58,0,0,0-2.54-2.65c-1.61-.08-2.63,1.07-3.39,2.33a4.42,4.42,0,0,0-.56.73,4.54,4.54,0,0,0-2.1,1.67c0-.63.09-1.27.08-1.78a19.14,19.14,0,0,1,.05-3.47c.4-2,2.53-3.06,3.38-4.93a1.52,1.52,0,0,0,.06-1.14,5.84,5.84,0,0,0,.39-1.09c.22-.83.17-1.14.81-1.67a19.69,19.69,0,0,1,1.85-.87,8.1,8.1,0,0,0,2.76-2.85c.26-.47,1.43-3.25.64-3.5a1.51,1.51,0,0,0,.46.07c2.44,1,4.7-.26,5.1-3,.31-2.12,0-4.38.05-6.52S149,68.19,149,66a58.41,58.41,0,0,1,3.48-8.77,1.51,1.51,0,0,0-.36-3,1.85,1.85,0,0,0-.23,0,2.09,2.09,0,0,0-1.07-.26,1.58,1.58,0,0,0-.79,0,3,3,0,0,1-3-.7,5.15,5.15,0,0,0-2.13-1.15,2.84,2.84,0,0,0-3,1.23c-.87-.34-1.67-1.05-2.5-1.41a4.39,4.39,0,0,0-3.7,0,1,1,0,0,0-.2.11l-.08-.1c-.38-.63-.69-1.81-.88-2.13a6.82,6.82,0,0,0-2.12-2A3.71,3.71,0,0,0,130,47a3.27,3.27,0,0,0-1.09.37,2.62,2.62,0,0,0-.51.3l-.22.12a1.33,1.33,0,0,0-.74,0c-1.52-1-3.74-.15-5.56-1.29-1.16-.72-2-1.85-3.2-2.49-1.69-.89-5-1.11-3.74-4,.77-1.75-1.81-3.28-2.59-1.51a6.49,6.49,0,0,0-.54,2.13,16.61,16.61,0,0,1-3,.15c0-.16-.06-.32-.09-.49a3.68,3.68,0,0,0,0-.58A5.24,5.24,0,0,0,108,37a4.88,4.88,0,0,0-1.38-1.51,5.37,5.37,0,0,0-4-1.72l-1.15-1.08a1.51,1.51,0,0,0-3-.4c.42-1.36-.87-4-2.55-4.36-.92-.21-1.77.32-2.68,0A12.37,12.37,0,0,1,90,25.7c1.53-.6.72-3.18-1.07-2.81-2.72.57-7.68.53-9.18,3.38a6.49,6.49,0,0,0-.38,3.7,22.58,22.58,0,0,1-.62,7c-.55.68-1.1,1.38-1.69,2.1-.09.1-.19.2-.27.3a14.51,14.51,0,0,1-3.34,2.55c-1.8.95-3.94.84-5.61,2.06a1.94,1.94,0,0,0-.32.32c-2,.49-4.29,1.26-3.77,3.58a3,3,0,0,0,1.78,2A17.11,17.11,0,0,0,62,52c-2.52-.5-5-1-7.58-1.4-1.69-.26-3.43-.25-4.69.93a3.1,3.1,0,0,1-.6-4.16,1.51,1.51,0,0,0-1.3-2.25l-2-.12a1.28,1.28,0,0,0-1.14.48,7.16,7.16,0,0,1-.86-.21A1.51,1.51,0,0,0,42,47.16a21,21,0,0,0,2.44,6.31c.19,3.61-.27,8.32,2.92,10.72a6.18,6.18,0,0,1-5.13-.61,1.42,1.42,0,0,0-2.09.73,6.19,6.19,0,0,0-1.33-.94,2.32,2.32,0,0,0-1.14-.08c-.38.07-.82.52-1.13.54-.12,0-.31-.17-.7-.33a2.25,2.25,0,0,0-1.31,0,4.36,4.36,0,0,0-2.11,1.21l-.7-.52a4.64,4.64,0,0,1-1.36-1.84,5.4,5.4,0,0,0-2.81-2.58,3.94,3.94,0,0,0-5.22,2.8c-1-.71-2.05-1.24-3.18-.61a2.08,2.08,0,0,0-.51.42c-1.32-.18-2.49-1-4-.67a9.65,9.65,0,0,0-4.74,2.2,2.09,2.09,0,0,0-.07,3c1.3,1.18,3.12-.28,4.64.12a1.36,1.36,0,0,0,.25.31,1.36,1.36,0,0,1,.43.87.13.13,0,0,0,0,.06,1.63,1.63,0,0,1-.33,1,1.19,1.19,0,0,0-.2.51c-1.84.82-4.75,1.27-3.39,3.7.59,1,1.53,2.79,2.92,2.63a2.61,2.61,0,0,0,1.67-1.14l.27-.31A43.69,43.69,0,0,1,22.61,78a1.37,1.37,0,0,0,.9.23h0a1.37,1.37,0,0,0,.36,0,2.78,2.78,0,0,0,1.42.84,8.47,8.47,0,0,1,1.14.19l.08,0a3.16,3.16,0,0,0,.2.59,2.53,2.53,0,0,0,2.12,1.48c1.05.13,2.17-.21,2.64,1.06a1.59,1.59,0,0,0,2.23.84l.44.24a4,4,0,0,0-.73.81A1.52,1.52,0,0,0,34,86.33a1.41,1.41,0,0,0,1.26.09,1.49,1.49,0,0,0,1.06.14,5.83,5.83,0,0,1,2.56,0,2,2,0,0,0-.94.62,2.77,2.77,0,0,0-.35,3,3,3,0,0,0,1,1.13c-1.67,2.31.66,5.44,2.65,7.77a2.46,2.46,0,0,0,1.48,2.28,43.61,43.61,0,0,0,5.4,1.75,5.36,5.36,0,0,1,.77,1.48,9.84,9.84,0,0,1,0,2.17,8.13,8.13,0,0,0,.91,3.2,4.34,4.34,0,0,1-1.78,1.64,1.52,1.52,0,0,0,.36,2.74l.67.26a13.39,13.39,0,0,1,4.38,5.58c.34,1.45.67,2.9,1,4.34l.09.39a5.56,5.56,0,0,0-.77-.39,27.33,27.33,0,0,1-2.68-6.34,1.71,1.71,0,0,0-3.26.42c0,2.35.13,4.73,0,7.07a6.85,6.85,0,0,1-.11.91,5.12,5.12,0,0,0-.91,2.84,5.27,5.27,0,0,0,1.1,3.13c.08,1.37-.84,2.72-1.31,4a17.78,17.78,0,0,0-1.09,6.21,1.79,1.79,0,0,0,.05.42c-.46,1.57-.93,3.13-1.46,4.67-.77,2.21-1.86,3-3.11,4.8-1.83,2.65,2.51,3.89,3.68,5.47a1.64,1.64,0,0,0,.46.42,1.43,1.43,0,0,0,.92.85,12.64,12.64,0,0,0,2.89.57,2.11,2.11,0,0,0,.27.36,17.92,17.92,0,0,0,4.86,3.14,5.75,5.75,0,0,0,4.57.25A6.47,6.47,0,0,0,63.15,165,7.8,7.8,0,0,1,66,165a4.74,4.74,0,0,0,2.74,0,1.43,1.43,0,0,0,.94-.88A1.64,1.64,0,0,0,70,163l.36,0,.14,0a11.47,11.47,0,0,1,1.13.37,15.53,15.53,0,0,1,2.13,1,1.38,1.38,0,0,0,1.49,0,2.85,2.85,0,0,0,1.21.34,5.68,5.68,0,0,0,1.09-.11,2.63,2.63,0,0,1,.39-.06l.07,0a15.65,15.65,0,0,1,.91,1.38,3.08,3.08,0,0,0,1.49,1,1.3,1.3,0,0,0,1.37-.3c.26,0,.53,0,.66,0h0a1.37,1.37,0,0,1,0,.16c0,1.15-.08,2.23.83,3.1a1.53,1.53,0,0,0,2.56-1.08,1.69,1.69,0,0,0,.17-.29c0,1,.82,1.92,1.77,1.56a1.66,1.66,0,0,0,1.39-.54c.72.07,1.31.79,2.15,1.13a4.3,4.3,0,0,0,3.73-.31,2.14,2.14,0,0,1,.92-.7,3,3,0,0,1,2.63-.48c1.72.48,2.48-1.79,1.15-2.74-.83-.6-.57-2.33-.5-3.17a1.28,1.28,0,0,0-.4-1.1,5.9,5.9,0,0,1,1.54-4.11,1.32,1.32,0,0,0,.46-1.09l.06-.14c.36-1.28,2.07-1.45,3.07-2.12a8.91,8.91,0,0,0,2-1.82,1.61,1.61,0,0,0,.48-.26c1.61-1.31,3.72-3,5.81-2.38a2.46,2.46,0,0,0,1.57,1.27,2.9,2.9,0,0,0,1.49,0,4.85,4.85,0,0,0,1.26-.74,3.59,3.59,0,0,0,.7,1.11,2.76,2.76,0,0,0,1.59.78,2.23,2.23,0,0,0,1.51-.32,3.59,3.59,0,0,0,.64-.63,1.3,1.3,0,0,0,.75,0c.53-.16,1.57-.62,2.12-.31.16.09.12.06.25.24-.61.76-.39,2.25.73,2.41l.64.08a1.81,1.81,0,0,0,1.22-.23,14.23,14.23,0,0,0,3.79,1.51c.92.18,2.42,0,3.55.15a1.58,1.58,0,0,0,.6.42c2.39.93,6.91,1.56,7.9-1.63a6.53,6.53,0,0,0,.59-2.1c.26-1.17,1.57-1.67,2.5-2.24a7.26,7.26,0,0,0,2.25-2,1.32,1.32,0,0,0,.57-.63c.51-1.1,2.59-1.18,3.49-2a3.56,3.56,0,0,0,1-2c.12-.79-.37-2.37.59-2.66C154.84,140.3,155.11,138,153.55,137.8Z"/><path class="cls-2" d="M98.55,67.13a.44.44,0,0,0-.42-.42l-1-.06L97,66.44h0q-2.73-4.37-5.27-8.84a.41.41,0,0,0-.16-.16l.06-2a.45.45,0,0,0-.31-.41c-.2,0-.39-.1-.59-.13l.12-.14a.81.81,0,0,0,.31,0,.39.39,0,0,0,.27-.54.43.43,0,0,0-.22-.67,1.75,1.75,0,0,0-1.13,0l-.14.08-.84-.27a29.51,29.51,0,0,0-1.31-3.66c-.25-.8-.49-1.61-.73-2.41v0a.19.19,0,0,0,0-.09l-.12-.4.34.17a.42.42,0,0,0,.42-.73,2.92,2.92,0,0,1-.87-.88,3.14,3.14,0,0,1,.88-1.19.42.42,0,0,0-.3-.71l-1.27-.05c-.23-1.52-.44-3-.63-4.54s-.3-3.09-.52-4.63c-.07-.75-.13-1.5-.19-2.25a.93.93,0,0,0,.1.05.54.54,0,0,0,.42-1,1.76,1.76,0,0,0-.62-.29v0h0c-.15-2.39-.29-4.77-.44-7.15l-.06-3.8a7.48,7.48,0,0,0-.25-2.27l.11.05a.42.42,0,0,0,.41-.11,1.68,1.68,0,0,0,.27-1.19,7.39,7.39,0,0,0-.14-1.62.39.39,0,0,0-.32-.28,1.11,1.11,0,0,0-.37-.2l0-.06h0a1.12,1.12,0,0,0,.3-.88,1.37,1.37,0,0,0-.32-.53L83.32,12a.34.34,0,0,0-.16-.1c0-1.81,0-3.61.15-5.42,0-.54-.8-.53-.83,0q-.21,2.94-.15,5.88a2.89,2.89,0,0,0-.66,1,1,1,0,0,0,.28,1h-.28c-.58,0-.69.43-.72,1a5,5,0,0,0,.06.94,5.46,5.46,0,0,0,.1,1.33.36.36,0,0,0,.45.29,6.36,6.36,0,0,1,.28.59,66.46,66.46,0,0,0-.54,9.23c-.11,1-.21,2-.3,2.95a.85.85,0,0,0-.36.14.79.79,0,0,0-.35.82.85.85,0,0,0,.56.6h0l0,.47a14.23,14.23,0,0,0-.34,2.47.48.48,0,0,0,0,.18l-1.14,8.1a.29.29,0,0,0-.17,0H79a.43.43,0,0,0-.41.53l.52,1.74a8.65,8.65,0,0,1-.47.76A.4.4,0,0,0,79,47c-.46,1.4-.88,2.81-1.28,4.23-.28.8-.58,1.59-.88,2.38a5.26,5.26,0,0,0-1.63,0,.45.45,0,0,0-.37.11.71.71,0,0,0-.21.74.37.37,0,0,0,.41.29c.08.13.16.26.25.38l-.17,0a.46.46,0,0,0-.59.5c.09.62.22,1.24.36,1.84a.76.76,0,0,1-.08.11.41.41,0,0,0-.19.16l-.39.66c-.33.51-.62,1-.89,1.42-.68,1-1.32,2-1.93,3.09-.81,1.23-1.64,2.46-2.49,3.67a4.6,4.6,0,0,1-.57-.08c-.22-.29-.78-.22-.75.22v.12a.43.43,0,0,0,.1.25c-.15.26,0,.66.33.63a13.28,13.28,0,0,1,2.6.07.41.41,0,0,0,.35.2,17.24,17.24,0,0,0,3-.09c.36,0,.59,0,.8-.38a.42.42,0,0,0,0-.42,1.67,1.67,0,0,0-.73-.61c.31-.91.63-1.82,1-2.71l.51-.93a10.38,10.38,0,0,1,4.63-3,12,12,0,0,1,7.06.07,12.9,12.9,0,0,1,5,6.39.35.35,0,0,0-.27.21,1.24,1.24,0,0,0-.18.77.43.43,0,0,0,.42.42l.3,0,.18,0a.42.42,0,0,0,.64.07,5.12,5.12,0,0,0,.56,0c.47,0,.94,0,1.41,0a12,12,0,0,0,1.69,0l1.25.09a.42.42,0,0,0,.4-.31A1.5,1.5,0,0,0,98.55,67.13ZM84,43.44l-.7.05A9.15,9.15,0,0,0,82,43.44L82.21,40h1.46C83.78,41.15,83.88,42.3,84,43.44ZM83,32.83c.14,1.44.27,2.88.4,4.31l-1,0Zm-.7,5.26a.41.41,0,0,0,.41-.12h.77l.11,1.18c-.45,0-.89,0-1.34-.07l0-1ZM80.9,49.66c.24-1,.49-1.93.73-2.9l1,.05c.56,0,1.11,0,1.66-.06a7.86,7.86,0,0,0,.35,1.68c.31,1.19.62,2.37.92,3.55a.35.35,0,0,0,.32.29c.08.44.17.88.26,1.32a47.73,47.73,0,0,0-5.86-.06C80.49,52.24,80.7,51,80.9,49.66ZM88.22,59a.38.38,0,0,0-.57.18l-.12-.05-.17-.06a12.93,12.93,0,0,0-6.85-.2,9.58,9.58,0,0,0-4,1.91c.42-.87.81-1.75,1.18-2.64a17.33,17.33,0,0,0,5.19.29h5.59c.2.39.41.79.62,1.17A9.93,9.93,0,0,0,88.22,59Z"/><path class="cls-3" d="M84.66,30.51a11.91,11.91,0,0,1-1.2-.14,8.27,8.27,0,0,0,1.24-.89.21.21,0,0,0,0-.25.19.19,0,0,0-.18-.29h-.1l-1-1-.18-.17v0c.37-.4.77-.8,1.18-1.17.19,0,.26-.35,0-.4h0a14,14,0,0,0-1.15-1.38c.39-.33.79-.62,1-.82a.21.21,0,0,0,0-.29l0,0c.13-.12.09-.38-.12-.37H84l-.78-.86a5.92,5.92,0,0,0,.85-.78.56.56,0,0,0,.09-.74c.2-.08.18-.42-.06-.39l-.18,0c-.17-.24-.36-.48-.56-.71.24-.28.48-.56.7-.87a.22.22,0,0,0,0-.22.21.21,0,0,0-.18-.3h-.2l-.43-.34c0-.12,0-.23,0-.35a.2.2,0,0,0,0-.14h.78a.21.21,0,0,0,0-.42l-2.7,0a.21.21,0,0,0,0,.41h.91a.18.18,0,0,0,0,.23l.15.1a4.89,4.89,0,0,0-.41.37c-.16-.1-.35.09-.29.27-.12.16,0,.43.25.31l.86,1a9.34,9.34,0,0,1-1.07.89h-.06a.22.22,0,0,0-.11.4h0c.34.4.7.79,1,1.18a4.31,4.31,0,0,0-.76.78h-.13c-.27,0-.38.36-.11.4h.09a.58.58,0,0,0,0,.19c.1.37.71.71,1,.95l.1.09a4,4,0,0,0-1.12,1h-.15a.22.22,0,0,0-.21.21.46.46,0,0,0,.08.32.16.16,0,0,0,.19.1c.13.49.75.92,1,1.22l.09.08-.06.05q-.57.66-1.08,1.38a.62.62,0,0,0-.17.11.21.21,0,0,0,.16.35l.62.77c-.39.06-.77.15-1.16.24s-.15.47.12.41a10.26,10.26,0,0,1,1.34-.27l.1.12c.13.16.33,0,.34-.15H83c.55,0,1.07.18,1.62.18A.21.21,0,0,0,84.66,30.51ZM83.19,18.84h.2c0,.09,0,.19-.14.43a.86.86,0,0,0-.07.1C83.18,19.19,83.19,19,83.19,18.84Zm-.41-.57v.15h-.36l.27-.22Zm-.39.54.38,0v.38C82.64,19.08,82.51,19,82.39,18.81ZM82,21.16l.7-.08v.86Zm.7,1.66v.44l-.27,0A1.65,1.65,0,0,1,82.74,22.82Zm-.32.83.32,0c0,.18,0,.36,0,.54A1.14,1.14,0,0,1,82.42,23.65Zm.35,1.6c0,.22,0,.44,0,.65l-.5,0A2.91,2.91,0,0,1,82.77,25.25Zm-.6,1.41a.58.58,0,0,1,0-.39l.66.05c0,.36,0,.71,0,1.06A2.51,2.51,0,0,1,82.17,26.66Zm.49,1.71.18-.2,0,.85-.33,0h-.47A5.54,5.54,0,0,1,82.66,28.37Zm.2,1.87a.2.2,0,0,0-.09.09h-.19a2.57,2.57,0,0,1-.62-.81v-.08a4.75,4.75,0,0,1,.92,0l0,.78Zm.3-9.21.43-.05a.57.57,0,0,1,.07.43,1.92,1.92,0,0,1-.5.47Zm0,2.67h.52c.06.18,0,.21-.23.45a1.52,1.52,0,0,1-.28.29C83.17,24.2,83.16,24,83.16,23.7Zm0,1.52a3.75,3.75,0,0,1,.66.83l-.65-.1C83.19,25.71,83.19,25.47,83.18,25.22Zm0,1.15.7.11a2.42,2.42,0,0,1-.67.75Zm.06,1.89a3.08,3.08,0,0,1,.66.71l-.63,0Zm0,1.16.79,0c0,.12-.13.19-.4.37s-.24.16-.37.23C83.32,29.79,83.31,29.61,83.3,29.42Z"/><path class="cls-3" d="M84.38,31.61a15.48,15.48,0,0,1-1.66-.14,10.3,10.3,0,0,1-1.84.06c-.26-.06-.37.35-.11.41a7.44,7.44,0,0,0,1.7-.05c.64,0,1.26.17,1.91.14C84.65,32,84.65,31.6,84.38,31.61Z"/><path class="cls-3" d="M83.66,14a4.18,4.18,0,0,0-2.35.12c-.26.09-.15.49.11.4a3.77,3.77,0,0,1,2.13-.11C83.81,14.51,83.92,14.1,83.66,14Z"/><path class="cls-3" d="M86.76,43.49c-2.13-.32-4.26.11-6.39-.11a5.31,5.31,0,0,0,.68-.49c.13.11.25.23.39.33s.5-.12.29-.29-.25-.21-.36-.32c.28-.28.52-.66.91-.79s.14-.49-.11-.41l-.08,0-.6-.89a3.09,3.09,0,0,0,.74-.79.18.18,0,0,0,0-.17.11.11,0,0,0,0-.08c.53,0,1.06.06,1.59.11a1.26,1.26,0,0,0,.17.44,1.57,1.57,0,0,0,.44.45,12.34,12.34,0,0,0-.85.92c-.14.18.06.42.22.35a2.39,2.39,0,0,0,.69.78,2.71,2.71,0,0,0-.24.25c-.18.2.11.5.29.3a4.24,4.24,0,0,1,.3-.31c.28.17.58.34.87.55s.43-.21.21-.36-.53-.34-.78-.49a4.12,4.12,0,0,0,.38-.47.21.21,0,0,0,.16-.33.79.79,0,0,0,0-.48,1.54,1.54,0,0,0-.56-.7l0,0c.14-.12.27-.26.42-.37A.17.17,0,0,0,85.6,40a.2.2,0,0,0,0-.17v0a.22.22,0,0,0-.12-.38h0a3,3,0,0,0-.5-.64,3.46,3.46,0,0,0-.31-.26,7.23,7.23,0,0,1,.59-.54.19.19,0,0,0,.06-.15.37.37,0,0,0,0-.2.19.19,0,0,0-.29-.17c-.17-.21-.35-.44-.51-.67.21-.25.43-.49.66-.73a.16.16,0,0,0,0-.11.2.2,0,0,0,0-.21h0c.09-.13,0-.35-.16-.33H85a3.36,3.36,0,0,0-.51-.56l-.17-.11c.19-.35.43-.69.57-.94a.21.21,0,0,0-.07-.28,3.66,3.66,0,0,1-.58-.39c.17-.21.35-.42.52-.64s-.2-.42-.37-.21-.31.39-.46.58a3.47,3.47,0,0,1-.55-.74.2.2,0,0,0-.32,0,.19.19,0,0,0-.31.06.17.17,0,0,0-.22,0l-.56.43-.39-.38a.2.2,0,0,0-.3,0,.21.21,0,0,0,.11.39h0l.23.22-.73.55a.23.23,0,0,0,0,.31c-.1.13-.05.36.15.34h.13c.19.23.37.47.54.71l-.71.54a.4.4,0,0,1-.1-.12.21.21,0,0,0-.36.21l.06.09h0a.71.71,0,0,0,0,.14l-.09.07c-.2.16.06.43.27.31.12.15.27.28.38.41a.64.64,0,0,0,.1.13l-.67.67h0a.2.2,0,0,0-.12.29l.69,1.07-.56.57h-.38a.21.21,0,0,0,0,.42h0a.25.25,0,0,0,0,.07l.64.9-.21.12a1.7,1.7,0,0,0-.66.58.21.21,0,0,0-.12.37.21.21,0,0,0,.09.15.08.08,0,0,0,0,.05,9.19,9.19,0,0,0,.74.89,6.51,6.51,0,0,1-.6.43.21.21,0,0,0,0,.33l-.15,0c-.26,0-.37.37-.11.41,2.26.32,4.54-.2,6.8.14C86.91,43.93,87,43.53,86.76,43.49Zm-2.92-4.28c-.61-.06-1.22-.09-1.84-.11l-.34-.55c.2-.2.39-.41.6-.61a.21.21,0,0,0,.26-.28v0h.15a.2.2,0,0,0,.17-.12q.32,0,.63.06s0,0,0,0a1.42,1.42,0,0,0,.58.93l0,0A2.06,2.06,0,0,0,83.84,39.21Zm-1.67-2.13c-.12-.2-.25-.39-.39-.58l.63-.66a.21.21,0,0,0,.36-.16l.75.12a2.84,2.84,0,0,0,.51.89l-.36.45-.4,0A5.78,5.78,0,0,0,82.17,37.08ZM85,42a1.23,1.23,0,0,1-.17.25,2.16,2.16,0,0,1-.5-.5l.7.17Zm-.7-.69c.16-.19.33-.37.5-.54a.87.87,0,0,1,.33.74Zm.9-1.56,0,.08-.43.39a1.08,1.08,0,0,1-.5-.58Zm-.27-.45-.64-.07a2.08,2.08,0,0,1,.15-.44A5.9,5.9,0,0,1,84.9,39.32Zm-.31-1.51h0a1.22,1.22,0,0,1-.28.4,1.23,1.23,0,0,1-.41-.57A5.63,5.63,0,0,1,84.59,37.81Zm.22-2h0c-.18.19-.36.38-.53.58a2.54,2.54,0,0,1-.25-.57C84.3,35.82,84.55,35.82,84.81,35.8Zm-.3-.4H84a2.19,2.19,0,0,1,.12-.33A3.61,3.61,0,0,1,84.51,35.4Zm-.13-1.57c-.12.19-.27.41-.41.64-.23-.13-.44-.24-.44-.19a.24.24,0,0,0-.1-.22l.24-.28A4.17,4.17,0,0,1,84.38,33.83Zm-1.23-1.36a3.88,3.88,0,0,0,.54.66l-.21.24h-.33A4.51,4.51,0,0,1,83.15,32.47ZM83,34.24a.18.18,0,0,0,.16.07c0,.29.39.37.65.5a2.42,2.42,0,0,0-.24.56l-.34,0-.42-.07a.21.21,0,0,0-.16-.13.19.19,0,0,0-.15,0l-.21-.33C82.49,34.6,82.72,34.41,83,34.24Zm-.23-1.76a6.77,6.77,0,0,0,0,.78l-.44-.44Zm-.78.6.37.36-1,.09Zm-.3.84,1-.1.06,0-.74.56ZM81.92,35l.12.18h-.2a.2.2,0,0,0-.11.06l-.19,0C81.66,35.21,81.79,35.12,81.92,35Zm-.81.68a2.44,2.44,0,0,0,.92-.07l-.51.53a.64.64,0,0,0-.1-.13S81.22,35.84,81.11,35.71Zm.37,1.09.22.32-.31,0-.23,0Zm-.48.71a5.36,5.36,0,0,0,1,.12l-.54.56Zm-.27,2h0l1,0,.06.1a2.8,2.8,0,0,1-.59.6Zm.4,1.3.23.33a2.49,2.49,0,0,1-.86.08A2.44,2.44,0,0,1,81.13,40.79Zm-.67.82a2.83,2.83,0,0,0,1.15-.12l.12.17a3.41,3.41,0,0,0-.43.42l-.24.23A5.69,5.69,0,0,1,80.46,41.61Z"/><path class="cls-3" d="M91.05,53.3l-3.26,0A2.26,2.26,0,0,0,88,53c.15-.22.28-.54.54-.64a.21.21,0,0,0,.12-.28.22.22,0,0,0-.18-.38l-.07,0c-.51-.31-1-.63-1.49-1,.23-.38.47-.76.7-1.15h0a.21.21,0,0,0,0-.42c-.36,0-.72,0-1.08.07l-.17-.76c.28.2.56.4.83.61s.51-.13.3-.3L86.51,48c.19-.28.39-.56.57-.85s-.22-.44-.36-.22-.31.48-.47.71l-.18-.77a.21.21,0,0,0-.11-.13,8.32,8.32,0,0,1,1.12.1c.27,0,.38-.36.11-.4a19.61,19.61,0,0,0-4,0c-1.47,0-2.93.06-4.4,0a.21.21,0,0,0,0,.42h.32a8.94,8.94,0,0,0,.47,1.15l-.07,0a5.37,5.37,0,0,1-1.49.71c-.17,0-.18.2-.1.31-.22,0-.29.36,0,.41l.22,0a4.86,4.86,0,0,0,.55,1.31,4.74,4.74,0,0,1-1.41.59.15.15,0,0,0-.13.11.19.19,0,0,0-.08.33l.08.05a.21.21,0,0,0,0,.22c.21.4.44.78.68,1.16a10.84,10.84,0,0,1-1.27-.09c-.27,0-.38.36-.11.4a46.73,46.73,0,0,0,7,0q3.82,0,7.65.06C91.32,53.73,91.32,53.31,91.05,53.3Zm-3.2-.81a2.7,2.7,0,0,1-.27.39c-.07-.15-.12-.3-.18-.45l.66-.21A1.39,1.39,0,0,0,87.85,52.49Zm.05-.65-.62.21c-.07-.24-.13-.49-.19-.73Zm-.92.71c.07.18.15.36.22.53a0,0,0,0,1,0,0c-.37-.17-.74-.33-1.12-.47A2.53,2.53,0,0,0,87,52.55Zm.18-2.95-.33.54v-.06l-.11-.45Zm-.57,1.72c.08.29.16.57.26.85a2.39,2.39,0,0,1-.8,0Zm-.25-1-.69-.54c.19,0,.37,0,.56-.06C86.25,49.87,86.29,50.07,86.34,50.27ZM86,48.7c0,.19.07.37.1.56l-.56.06Zm-6.45-1.78h.53a.2.2,0,0,0-.14.13l-.15.49C79.72,47.34,79.65,47.13,79.57,46.92Zm.86,2.5-.71-.05c.07-.24.14-.48.2-.71C80.08,48.92,80.25,49.17,80.43,49.42Zm-.82.36c.27,0,.55,0,.82.06a7.7,7.7,0,0,0-1,.54Zm-.1-1.19-.21.74c-.34,0-.68-.09-1-.16A5.31,5.31,0,0,0,79.51,48.59Zm-.93,1.06.61.09-.21.83A4.2,4.2,0,0,1,78.58,49.65Zm.47,2.43c0-.15.07-.31.11-.47a2.65,2.65,0,0,1,.32.54l0,0Zm.64.58a1.4,1.4,0,0,0,.1.16c-.32.08-.63.16-1,.22l.12-.55Zm-.88-1.4c-.06.25-.12.49-.17.73a5.82,5.82,0,0,1-1-.21A4.7,4.7,0,0,0,78.81,51.26Zm-.57,1.07.31.07c0,.25-.11.5-.16.75a.16.16,0,0,0-.11.19h0c-.25-.38-.49-.76-.7-1.16C77.79,52.24,78,52.28,78.24,52.33Zm2.06,1-.7,0,.54-.14a.21.21,0,0,0,0-.38.13.13,0,0,0,0-.13.2.2,0,0,0-.09-.33l-.12,0a5.16,5.16,0,0,0-.47-.94l-.2-.28,0-.12a9.06,9.06,0,0,1,1.39-.79.23.23,0,0,0,.11-.32s.07-.05.1-.08a.23.23,0,0,0,0-.32,7.83,7.83,0,0,1-.8-1.2l1-.56c.24-.13,0-.49-.21-.36l-.78.42.18-.58a.19.19,0,0,0-.14-.24c.86,0,1.72,0,2.58,0s2-.14,3-.13a.22.22,0,0,0-.14.25c0,.16.08.34.11.51l-1-.62c-.24-.13-.45.23-.22.36.46.27.92.54,1.36.84v.06c-.26.38-.54.74-.82,1.1a.42.42,0,0,0,0,.1.2.2,0,0,0-.14.3.24.24,0,0,0,.14.12c.44.37.89.73,1.35,1.06l-.86,1.39a.2.2,0,0,0,.13.3l0,0,.12,0a.21.21,0,0,0,0,.4l.73.28H83.82Z"/><path class="cls-3" d="M90.72,54.75c-5.08.31-10.19.22-15.28.26a.21.21,0,0,0,0,.41c5.09,0,10.2.06,15.28-.25C91,55.16,91,54.74,90.72,54.75Z"/><path class="cls-3" d="M97.17,66.6a1.65,1.65,0,0,0-1-.17.18.18,0,0,0,0-.32l-1.52-.71c.38-.38.75-.77,1.11-1.18a.2.2,0,0,0,0-.22.21.21,0,0,0-.18-.37l-.28.06a16.62,16.62,0,0,0-2.06-.81l-.13-.24a7.32,7.32,0,0,1,.35-.81l.68-.17a.21.21,0,0,0-.11-.41l-.29.08,0-.09a.25.25,0,0,0-.17-.47A11.13,11.13,0,0,1,92,60.1a4,4,0,0,0,.59-1.19.21.21,0,0,0-.41-.11s0,0,0,.05a.16.16,0,0,0-.19-.13,10.4,10.4,0,0,0-1.11.1l-.07-.11c.27-.05.54-.12.8-.19l.28.09c.22.07.33-.23.18-.36a.2.2,0,0,0-.25-.23l-.21.06-1-.31a6,6,0,0,1,.4-.46h0a.2.2,0,0,0,.13-.15l.43-.21c.24-.12,0-.48-.21-.36l-.66.31-15.88-.12a.21.21,0,0,0,0,.42H75a.15.15,0,0,0,0,.11l.69.8h-.78a.21.21,0,0,0-.19-.07l-.37.08a.21.21,0,0,0,.06.41h.17l-.52.09c-.16,0-.18.17-.12.28a0,0,0,0,0,0,0,.22.22,0,0,0,.13.38l.45,1a6.08,6.08,0,0,1-1.84.47.21.21,0,0,0-.14.36v0c-.19.06-.25.35,0,.39h0a6,6,0,0,0,.4,1.12,2,2,0,0,1,.1.21l-2.59,1a.24.24,0,0,0,0,.4h0a.23.23,0,0,0,0,.36c.31.24.62.49.91.76-.5.19-1,.41-1.48.65a.17.17,0,0,0-.1.19l-.56-.1c-.26,0-.38.36-.11.4a22.32,22.32,0,0,0,3.26.5.21.21,0,0,0,0-.42,6.13,6.13,0,0,1-.74-.05s0,0,0,0c.12-.17.23-.35.35-.53l.38.42c.18.21.47-.09.3-.29l-.45-.5a1.63,1.63,0,0,0,.11-.17c.49-.17,1-.31,1.48-.43l.25.08c.18.07.29-.12.24-.27a.29.29,0,0,0,0-.09.2.2,0,0,0,0-.13l-.61-1.38.14-.25a4.58,4.58,0,0,1,1.77-.47.21.21,0,0,0,0-.41.18.18,0,0,0,0-.13L76,62c.26,0,.37-.36.11-.4l-.55-.08c-.12-.3-.23-.59-.36-.88l.15-.28a10.61,10.61,0,0,1,1.64-.57.19.19,0,0,0,.13-.27.22.22,0,0,0,.13-.36l-.59-.69,2.76,0a7.3,7.3,0,0,0-2.9,1.79c-.18.19.11.49.3.3l.2-.19a3.07,3.07,0,0,1,.43.69s0,.05,0,.06a12,12,0,0,0-3.57,5.3c-.08.26.32.37.41.12a10.54,10.54,0,0,1,6.44-6.77.21.21,0,0,0,.34-.11c.22-.06.43-.11.65-.15a.22.22,0,0,0,.3-.06,7.3,7.3,0,0,1,.94-.09s0,0,0,0a.21.21,0,0,0,.42,0,.43.43,0,0,1,0-.05,9.08,9.08,0,0,1,.91.05.43.43,0,0,1,0,0,.21.21,0,0,0,.42,0c3.63.63,5.72,3.8,7.36,7,.12.24.48,0,.36-.21a26.88,26.88,0,0,0-2-3.53h0a.39.39,0,0,1,.21-.17.23.23,0,0,0,.14-.21.17.17,0,0,0,.12-.1l0-.06.08,0a.18.18,0,0,0,.19.16h0a10.28,10.28,0,0,0,1.31.59,8,8,0,0,0-.3,1.19.24.24,0,0,0,0,.15.2.2,0,0,0-.07.35c-.06.15,0,.35.23.28l.2-.08,1.25.58c-.21.21-.42.42-.64.62a.18.18,0,0,0,0,.23h0a.23.23,0,0,0-.1.24l0,.07a.2.2,0,0,0,.35.07L94,67a4.51,4.51,0,0,0,.82,0c.55,0,1.64-.36,2.13,0C97.18,67.12,97.39,66.75,97.17,66.6ZM94.38,65l-.3-.57c.37-.12.75-.21,1.12-.31C94.93,64.44,94.66,64.73,94.38,65Zm.26-1.17-.76.22-.36-.65C93.9,63.55,94.27,63.69,94.64,63.85Zm-1.29-2.72-.18.33-.66.14-.66-1.12A12.35,12.35,0,0,0,93.35,61.13Zm-1.37-2,.09,0a4.17,4.17,0,0,1-.46.79l-.12,0c-.13-.21-.25-.43-.38-.65A6.38,6.38,0,0,1,92,59.14Zm-1.32.14c.08.13.15.27.24.4a4.16,4.16,0,0,1-.82-.28C90.27,59.36,90.46,59.31,90.66,59.28Zm-.23-.38a7,7,0,0,0-.79.2h0l.18-.25.59-.06A.75.75,0,0,0,90.43,58.9Zm-.07-1.59,0,0-.24.28h0l-.19-.32ZM73,61.19v-.06a7.41,7.41,0,0,0,1.73-.48c-.14.24-.26.49-.4.73Zm-1.68,5.15a.19.19,0,0,0,0,.18l-1-.19c.47-.23.94-.43,1.43-.62h0Zm.78-1.21-.27.1c-.31-.29-.64-.57-1-.83a13.33,13.33,0,0,1,1.56.24ZM71.26,64l1.82-.7.13,0-.59,1C72.17,64.17,71.72,64.09,71.26,64Zm2.59.58h0l-.8-.23.4-.68C73.58,64,73.72,64.31,73.85,64.61Zm-.3-1.91-.09,0A5.79,5.79,0,0,1,73,61.62l1,.15C73.91,62.08,73.73,62.39,73.55,62.7Zm1.66-.76.06.16,0,0a4.75,4.75,0,0,0-1.12.3l.34-.6Zm-.47-.49.16-.29.13.33ZM75,60.09l-.07,0c-.12-.27-.25-.53-.37-.79l.83.05Zm-.19-1.17a4.07,4.07,0,0,0,1-.26c-.06.1-.11.21-.16.31Zm1.92.54a9.23,9.23,0,0,0-1.12.38c.08-.15.16-.29.23-.44ZM76,59c.06-.11.11-.21.16-.32l.29.34Zm1.73,1.93s0,0,0,0a3.75,3.75,0,0,0-.48-.76l.46-.34a3.17,3.17,0,0,0,.55.67l.06,0C78.15,60.65,78,60.78,77.77,60.93Zm.88-.6a.17.17,0,0,0-.07-.14,3.2,3.2,0,0,1-.49-.61c.16-.1.34-.18.51-.27a4.79,4.79,0,0,0,.4.82Zm.72-.39a4.54,4.54,0,0,1-.39-.8,5.59,5.59,0,0,1,.57-.22,3.18,3.18,0,0,0,.16.86Zm2.27-1.36v.58l-.63.15-.11-.46a.05.05,0,0,0,0,0,.19.19,0,0,0-.19-.17.21.21,0,0,0-.19.28v0l.1.47-.5.18A2.46,2.46,0,0,1,80,58.8h0a9.58,9.58,0,0,1,1.09-.24l.59,0ZM83,59h-.07a8.08,8.08,0,0,0-.86.1v-.51l1,0C83,58.73,83,58.86,83,59Zm1.37.07c-.32,0-.64-.06-1-.07a2.79,2.79,0,0,1,.07-.38h.29l.83,0A1.19,1.19,0,0,0,84.36,59.06Zm-.3-1a12.7,12.7,0,0,0-3,0c-1.42,0-2.84,0-4.26,0A2.13,2.13,0,0,1,78,57.74c.27,0,.27-.41,0-.42a2.41,2.41,0,0,0-1.26.28c0-.2-.28-.35-.38-.13l-.24.47-.63-.74,13,.09a.21.21,0,0,0,.13.29l1.28.4h0c-.12.15-.23.31-.34.46a25.89,25.89,0,0,1-3.73-.09C85.21,58.23,84.63,58.15,84.06,58.09Zm1.24,1.14-.51-.11a.66.66,0,0,1,.17-.24.18.18,0,0,0,.05-.19l.5,0A2.21,2.21,0,0,0,85.3,59.23Zm1.65-.1-.31.56a6.24,6.24,0,0,0-.94-.35,2.08,2.08,0,0,1,.19-.43.15.15,0,0,0,0-.11,9.19,9.19,0,0,1,1.06.29A.05.05,0,0,0,87,59.13Zm1,1.24a9.93,9.93,0,0,0-.9-.51l.29-.52a.23.23,0,0,0,0-.11,5.88,5.88,0,0,1,1,.51h0l-.39.6Zm1.29.42-.14.49-.52-.46-.31-.22.06-.05.38-.58a5,5,0,0,1,.71.67A.2.2,0,0,0,89.21,60.79Zm1.3,1.33a.25.25,0,0,0,0,.12.88.88,0,0,0-.36.24,10,10,0,0,0-.73-.86l.21-.7c.06.09.12.17.17.26a.21.21,0,0,0,.36-.21,5.19,5.19,0,0,0-2.61-2.11c.57,0,1.14,0,1.7,0l-.07.1a.2.2,0,0,0,.08.28.21.21,0,0,0,.21.34l.1,0a5.32,5.32,0,0,0,1.64.63,1.18,1.18,0,0,1,.11.19l0,0A15.19,15.19,0,0,0,90.51,62.12Zm.6-.3h0c.15-.35.3-.7.48-1,.18.29.35.58.52.88Zm.43.35.75-.11.33.6A8.73,8.73,0,0,1,91.54,62.17Zm1,2.3a.18.18,0,0,0,.07-.11,7.54,7.54,0,0,1,.28-1.16h0l.55,1-.85.3Zm.6.28.52-.17c.09.17.18.36.28.53Zm.5,1.67-.08,0,.69-.68h0l.44.84A3,3,0,0,1,93.66,66.42Zm1.56.12h0L94.89,66l1,.45Z"/><path d="M84.06,43.22A9.58,9.58,0,0,1,83.72,40a.21.21,0,0,0-.27-.2,2.09,2.09,0,0,1-.94.14c-.09-.14-.34-.17-.38,0v.09a.22.22,0,0,0-.05.12L82,42c0,.31-.2,1,0,1.22s.19.15.34.19a8.5,8.5,0,0,0,1.6.08A.21.21,0,0,0,84.06,43.22ZM82.94,43c-.5,0-.63-.09-.59-.64s.08-1.36.13-2a2.34,2.34,0,0,0,.82-.08,9.7,9.7,0,0,0,.28,2.79C83.37,43,83.15,43,82.94,43Z"/><path d="M83.53,38.48a1.91,1.91,0,0,0-.1-.52c-.16-.34-.5-.05-.74-.2a.2.2,0,0,0-.3.17.23.23,0,0,0,0,.25v.58c0,.14,0,.31.08.43a.46.46,0,0,0,.37.13l.61,0a.21.21,0,0,0,.21-.26Zm-.62.43h-.09c0,.06,0,.07,0,0a1.53,1.53,0,0,1,0-.37v-.29h0a.71.71,0,0,0,.21,0c.08,0,0,0,.07,0a2.31,2.31,0,0,1,.08.47l0,.23h-.11A.49.49,0,0,0,82.91,38.91Z"/><path d="M83.32,36.21c-.06-.27-.17-.56-.47-.6a.23.23,0,0,0-.36.16l-.1.76a1.1,1.1,0,0,0,0,.54c.08.15.22.16.37.17a1.61,1.61,0,0,0,.58,0,.28.28,0,0,0,.17-.31A4.53,4.53,0,0,0,83.32,36.21Zm-.54.61c0-.06,0-.14,0-.15l.08-.57a1.89,1.89,0,0,1,.07.32l.07.28a.58.58,0,0,0,0,.13Z"/><path d="M83.2,34.71a.17.17,0,0,0-.11-.14v-.1c0-.27-.39-.27-.42,0a2.5,2.5,0,0,0,0,.72.21.21,0,0,0,.38.05A.71.71,0,0,0,83.2,34.71Z"/><path d="M85.9,53h0a.17.17,0,0,0,0-.1,42.67,42.67,0,0,1-1.36-6,.14.14,0,0,0-.06-.11h0a.18.18,0,0,0-.09-.06h0a.17.17,0,0,0-.18,0c-.76,0-1.52,0-2.28,0-.13-.08-.34,0-.32.16a12.53,12.53,0,0,1-.73,3.21,29.59,29.59,0,0,0-.45,3,.16.16,0,0,0,0,.1.22.22,0,0,0,.2.25,25.67,25.67,0,0,0,5.33.07C86.17,53.39,86.17,53,85.9,53Zm-5.12,0a28.63,28.63,0,0,1,.61-3.55A12,12,0,0,0,82,47.09c.73,0,1.45,0,2.18,0A40.93,40.93,0,0,0,85.47,53v0A24.61,24.61,0,0,1,80.78,53Z"/><path d="M128,46.9a12.56,12.56,0,0,1-5.4-.73h-.11c-1.12-.34-1.86-1.65-3-2.15s-2.63-.68-3.62-1.75a.33.33,0,0,0-.14-.1c-.76-1.13-.23-2.44-.8-3.62a1.7,1.7,0,0,0-1.55-1.06,2.09,2.09,0,0,0-1.65,1.26c-.21.36-.38,1.13-.69,1.39a4.48,4.48,0,0,1-1.9.19,15,15,0,0,1-.63-2.66,6.29,6.29,0,0,0-1-1.8,5.8,5.8,0,0,0-3.32-2,.41.41,0,0,0-.32-.27c-.58-.13-.91-.74-1.37-1.08a9.45,9.45,0,0,1-1.18-1.27c-.79-.84-1.64-.23-2.58-.25a4.18,4.18,0,0,0-2.19-3.27,5.31,5.31,0,0,0-2.28-.13c-1.54,0-2.66-1.15-3.81-2.06a.47.47,0,0,0,0-.17c0-.08.22-.31.27-.44a1.63,1.63,0,0,0,.09-.93A1.87,1.87,0,0,0,90,22.66a3.38,3.38,0,0,0-1.94.05l-3.21.49a.39.39,0,0,0-.15.06q-.14-2.67-.12-5.34a1.09,1.09,0,0,1,.26,0c.12.13.38.09.37-.12l-.07-2A8.59,8.59,0,0,0,85,14.44a.2.2,0,0,0-.07-.27s0,0,0,0l-.05,0a1.7,1.7,0,0,0-.44-.18c.24-.28.51-.62.31-.92a13.34,13.34,0,0,0-1.39-1.53c0-1.77.08-3.54.21-5.31A.18.18,0,0,0,83.42,6a.21.21,0,0,0-.17-.1A2.74,2.74,0,0,0,82.4,6a.2.2,0,0,0-.13.28.18.18,0,0,0-.11.17c0,1.79-.08,3.58-.11,5.37a.17.17,0,0,0,0,.13h0l-.71.8a.17.17,0,0,0-.12.15l-.22.27c-.21.29,0,.48.16.7a1.24,1.24,0,0,0-.27,0,.24.24,0,0,0-.13.11.22.22,0,0,0-.16.19,14,14,0,0,0,.12,3.42c.09.54.18.79.61.64.43,1.87-.16,4.07-.3,6s-.21,4-.19,6.07a.78.78,0,0,0-.56.3c-.16.21,0,.66,0,.92s0,.59.13.76a.25.25,0,0,0,.25.08c-.29,1.69-.57,3.38-.72,5.09a25.41,25.41,0,0,1-.81,5.63h0a4.62,4.62,0,0,1-.66.06.21.21,0,0,0-.17.11.19.19,0,0,0-.12.24L78.65,45c.12.37.21.55,0,.9-.11.2-.34.35-.43.56-.19.41,0,.5.38.64-.18.52-1.79,5.75-2,5.72a.22.22,0,0,0-.25.16,7,7,0,0,0-2,.6.2.2,0,0,0-.08.28c.14.28.29.55.43.82-.3,0-.6.11-.66.41a4.32,4.32,0,0,0,.11,1l.15,1.28a.14.14,0,0,1,0,.06q-2.78,4.46-5.81,8.75a1.65,1.65,0,0,0-1.06,0,.43.43,0,0,0-.2.39c0,.29,0,.57-.07.85a.18.18,0,0,0,.15.2c-.09.56,1.41.52,1.63.54a28.79,28.79,0,0,0,5.57-.08.22.22,0,0,0,.19-.17.21.21,0,0,0,.17-.19c0-.34.06-.68.06-1a.28.28,0,0,0-.24-.32c.87-1.78,1.6-3.64,3.19-4.91l.07,0a8.26,8.26,0,0,1,7.46-1.41h.06a9.73,9.73,0,0,1,1.7.58,6,6,0,0,1,1.92,1.84,15.82,15.82,0,0,1,2.42,4.07c-.31.21-.12.91-.07,1.23a.34.34,0,0,0,0,.08.22.22,0,0,0,.17.34c1.25.08,2.42-.22,3.68-.06a18.54,18.54,0,0,0,3.16.06.21.21,0,0,0,.19-.28.22.22,0,0,0,.37-.14l.09-1a.21.21,0,0,0-.21-.21,5.06,5.06,0,0,1-1.55-.18.12.12,0,0,0,0-.09c-2-2.79-3.24-6-5.4-8.73a.19.19,0,0,0,0-.13,9.67,9.67,0,0,1-.08-1.2c0-.35.08-.73.06-1.07s-.36-.44-.69-.48A6.79,6.79,0,0,0,92,53.54a.21.21,0,0,0-.14-.3.16.16,0,0,0-.15-.14,7.85,7.85,0,0,0-2.27,0q-.89-3-1.88-5.94l.21,0a.2.2,0,0,0,.13-.1.42.42,0,0,0,.16-.59,3.72,3.72,0,0,0-.48-.57c-.16-.19-.31-.39-.46-.58.33-.48.67-1,1-1.42.12-.17-.06-.33-.23-.3l0,0a9.21,9.21,0,0,0-1.28-.32,92.75,92.75,0,0,1-1.24-11,.45.45,0,0,0,.46-.29,1.15,1.15,0,0,0,0-.49l-.09-.68h0a.21.21,0,0,0,0-.38,1.1,1.1,0,0,0-.36,0c-.25-2.06-.44-4.13-.55-6.21a.45.45,0,0,0,.38.09l3.4-.51c.55-.09,1.45-.26,1.41.65,0,.42-.44.64-.4,1.09a.42.42,0,0,0,.09.25.38.38,0,0,0,.09.56c1.06.82,2.28,2.13,3.65,2.38.69.13,1.39-.16,2.06,0,1.7.29,2.21,1.59,2.47,3.12a.42.42,0,0,0,.59.33l.13,0c.52.06,1-.24,1.48-.21.65,0,.88.78,1.29,1.15s.79.6,1.16,1a2.91,2.91,0,0,0,.56.45.52.52,0,0,0,.45.38,5,5,0,0,1,4.24,3.76c.27,1,0,2.11.88,2.65a.43.43,0,0,0,.26.13s0,0,0,0a.41.41,0,0,0,.29,0,5.14,5.14,0,0,0,2.33-.32c.51-.29.65-.93.91-1.44.1-.21.21-.41.33-.61l1.24,0c.38.22.19,1.86.25,2.27a3.78,3.78,0,0,0,.87,1.85.42.42,0,0,0,.26.15,8.91,8.91,0,0,0,3.35,1.61c1.42.53,2.13,2.08,3.61,2.39h.09a13,13,0,0,0,5.54.73C128.63,47.84,128.64,46.84,128,46.9ZM84.87,30.5a.2.2,0,0,0,.12.23s0,0,0,0a.21.21,0,0,0,.27.2h0l.06.46c0,.05.07.28,0,.31s-.15,0-.19,0a.17.17,0,0,0-.17.09.18.18,0,0,0-.12.19,90.76,90.76,0,0,0,1.24,11.15c-.15.09-.17.34,0,.37l.08,0a.19.19,0,0,0,.13,0,9.83,9.83,0,0,1,1.19.29c-.28.38-.55.76-.82,1.15-.14,0-.25.15-.15.29l0,0a.18.18,0,0,0,0,.07c.14.19.28.37.43.54s.39.6.64.66a.2.2,0,0,0-.23.09.59.59,0,0,1-.29-.05c-.22-.09-.33.22-.18.36.69,2.06,1.35,4.12,2,6.2a.2.2,0,0,0,.12.13.22.22,0,0,0,.24.14,7.27,7.27,0,0,1,2,0,.18.18,0,0,0,.08.09,7.74,7.74,0,0,1-.69,1.18.19.19,0,0,0,.09.28.16.16,0,0,0,.14.1l.39.07c.17,0,.22,0,.13.22a4.12,4.12,0,0,1,0,.78,8.54,8.54,0,0,0,.09,1.34.22.22,0,0,0,0,.27c2.19,2.68,3.43,6,5.43,8.76l.09.07a.2.2,0,0,0,.15.2,5.7,5.7,0,0,0,1.49.21c0,.25,0,.49-.07.74a.16.16,0,0,0,0,.07.18.18,0,0,0-.15-.07,21.15,21.15,0,0,1-3.47-.1,30.53,30.53,0,0,0-3.18.11.24.24,0,0,0,0-.12,7,7,0,0,0-.12-.77.23.23,0,0,0,.22-.35.2.2,0,0,0,0-.07,16.61,16.61,0,0,0-2.8-4.63,5.72,5.72,0,0,0-1.61-1.49,15.69,15.69,0,0,0-2.52-.89.22.22,0,0,0-.16,0,8.7,8.7,0,0,0-7.11,1.62l-.09,0c-1.72,1.34-2.47,3.37-3.41,5.26a.19.19,0,0,0,0,.18.17.17,0,0,0,.15.18l.15,0c0,.14,0,.29,0,.43l0,.48a28.29,28.29,0,0,1-3.32.17c-.53,0-1.06,0-1.59-.05a8.44,8.44,0,0,0-1.8-.15.2.2,0,0,0-.15-.3l0-.4c0-.08,0-.17,0-.26s0-.11.06-.15a1.09,1.09,0,0,1,.44,0,2.28,2.28,0,0,1,.52.1c.2.06.31-.17.23-.32q3-4.32,5.85-8.81a.2.2,0,0,0,0-.26c-.05-.46-.11-.92-.16-1.38,0-.12-.15-.6-.09-.69a.79.79,0,0,1,.46-.12.19.19,0,0,0,.32,0c.18-.09.15-.41-.08-.39h0l-.42-.79a6.67,6.67,0,0,1,1.76-.49.21.21,0,0,0,.18-.15c.51-.12.61-1.08.75-1.49q.76-2.26,1.54-4.53a.19.19,0,0,0-.1-.23.22.22,0,0,0-.13-.25c-.33-.13.17-.49.3-.7a.82.82,0,0,0,.18-.36,2.27,2.27,0,0,0-.26-.9c-.13-.41-.27-.82-.41-1.23l.61-.06a.14.14,0,0,0,.13-.12.19.19,0,0,0,.17-.14,20.76,20.76,0,0,0,.78-5c.14-2,.45-3.89.78-5.82a.21.21,0,0,0-.14-.24c0-.13-.1-.23-.23-.23a.17.17,0,0,0,0-.1v-.23c0-.12,0-.24,0-.36a1.45,1.45,0,0,1,0-.36c0-.15.25-.16.4-.15a.2.2,0,0,0,.2-.23.22.22,0,0,0,0-.09c0-2.19.06-4.39.23-6.57.15-1.87.7-3.92.23-5.77a.19.19,0,0,0-.13-.14.21.21,0,0,0-.28-.07q-.18.29-.15-.18l0-.29q-.09-.63-.12-1.26a15.28,15.28,0,0,1,0-1.79.74.74,0,0,1,.39,0,.21.21,0,0,0,.17-.37.21.21,0,0,0,0-.25c-.16-.19-.21-.2-.08-.42a3.73,3.73,0,0,1,.26-.3l.62-.72a.2.2,0,0,0,0-.27.22.22,0,0,0,.07-.16l.12-5.37s0,0,0-.06a2.48,2.48,0,0,1,.54-.06c-.12,1.77-.15,3.55-.2,5.32a.18.18,0,0,0,.16.2l.88,1c.16.18.4.32.32.6a2.07,2.07,0,0,1-.4.56l0,0,0,0v0h0a.16.16,0,0,0,0,.19.19.19,0,0,0,.17.09,1.27,1.27,0,0,1,.58.14,8,8,0,0,1,.11,1.69c0,.46,0,.92,0,1.38a1.9,1.9,0,0,0-.71,0c-.26.05-.16.43.09.4A95.75,95.75,0,0,0,84.87,30.5Z"/><path d="M79.17,58.29h0l0,0-1-.06a.92.92,0,0,0-.61.1c-.36.26-.54.93-.73,1.32a.21.21,0,0,0,.06.26.21.21,0,0,0,.31,0,4.76,4.76,0,0,1,2.1-1.23A.21.21,0,0,0,79.17,58.29Zm-1.48.49a.79.79,0,0,1,.63-.17,5,5,0,0,0-.8.48A1,1,0,0,1,77.69,58.78Z"/><path d="M89.39,59.68,89,58.89a.84.84,0,0,0-.3-.39,1.25,1.25,0,0,0-.61-.06h-.9a.21.21,0,0,0,0,.41v0a2,2,0,0,0,.72.45A4,4,0,0,1,89,60a.23.23,0,0,0,.36-.11A.19.19,0,0,0,89.39,59.68Zm-1.53-.82a1.57,1.57,0,0,1,.53,0c.16,0,.29.25.4.47a3.26,3.26,0,0,0-.4-.24Z"/><path class="cls-4" d="M97.63,53.08a5.13,5.13,0,0,0-1-2.49,5.75,5.75,0,0,0-4.74-2.35,4.2,4.2,0,0,0-.7,0,6,6,0,0,0-3.88,2.35,5.18,5.18,0,0,0-.8,1.69,6,6,0,0,0,.15,3.91,38.78,38.78,0,0,0,5,9.54.35.35,0,0,0,.25.16.32.32,0,0,0,.46-.23s0,0,0,0a.39.39,0,0,0,.2-.14,37.44,37.44,0,0,0,3.77-6.89C97.06,57.11,98.4,54.79,97.63,53.08Zm-2.71,1.8a2.59,2.59,0,0,1-1.59,1.8,3.71,3.71,0,0,1-2.23.16,3.19,3.19,0,0,1-1.79-1.4c-.61-1.36-.53-3.09.9-3.89a3.75,3.75,0,0,1,2.62-.23A3,3,0,0,1,95,53a3.6,3.6,0,0,0,.12.44A3.27,3.27,0,0,1,94.92,54.88Z"/><path d="M95.19,53.64A3.22,3.22,0,0,0,91.41,51h0c-1.82.14-2.75,1.63-2.51,3.46a3,3,0,0,0,3.57,2.4,3.68,3.68,0,0,0,2.3-1.06A2.94,2.94,0,0,0,95.19,53.64Zm-.89,2a3.63,3.63,0,0,1-1.92.78,2.62,2.62,0,0,1-3-1.78,2.41,2.41,0,0,1,2.41-3.23.21.21,0,0,0,.15,0,2.79,2.79,0,0,1,2.86,2.25A2.46,2.46,0,0,1,94.3,55.67Z"/><path d="M97.12,50.74A6.06,6.06,0,0,0,90,48.44a7,7,0,0,0-3.21,2.46,5.45,5.45,0,0,0-.58,4.48,20.56,20.56,0,0,0,2.33,5.56,26,26,0,0,0,3.14,4.94l.08.06a.73.73,0,0,0,.57.2c.59,0,.89-.72,1.14-1.15,1-1.7,1.84-3.43,2.7-5.18C97.5,57,99,53.69,97.12,50.74Zm-2.24,10.6c-.38.74-.76,1.48-1.16,2.21-.19.37-.39.73-.6,1.1-.09.16-.18.32-.28.48l-.09.16c-.15.35-.42.4-.81.16a.17.17,0,0,0-.23-.15,19.62,19.62,0,0,1-2.11-3.22c-.68-1.24-1.38-2.48-2-3.75a12.26,12.26,0,0,1-1.23-4.44A4.52,4.52,0,0,1,88.11,50a5.88,5.88,0,0,1,7.1-.62C97.69,51.06,98,54.17,97,56.8A41.82,41.82,0,0,1,94.88,61.34Z"/><path d="M153.75,137.28a5.25,5.25,0,0,0-1.59-.09,8.34,8.34,0,0,1-3.76-1.36c-2.6-1.7-3.35-4-2.86-7l.08,0a1.34,1.34,0,0,0-.29-2.13c-.55-.38-1.21-.55-1.77-.92A3.67,3.67,0,0,1,142,123.6a.42.42,0,0,0,.09-.44c0-.15,2-2.19,2.22-2.48a7.67,7.67,0,0,0,1.36-2.39c.56-2-.45-3.77-1.58-5.35a.52.52,0,0,0-.44-.21c-.38-.38-.62-1-1-1.38a2.47,2.47,0,0,0-1.19-.81c.38-1.3,1.28-2.4,1.48-3.77s-.49-2.45-1.07-3.72a.45.45,0,0,0-.18-.2.5.5,0,0,0,0-.43c-.49-1-.47-2.1-1.18-3a3.32,3.32,0,0,0-2.08-1.22c-2.22-.33-3.51,1.42-4.45,3.15a.64.64,0,0,0-.05.17c-.39.19-.79.29-1.19.47a1.39,1.39,0,0,0-.39.28,16.27,16.27,0,0,1,.52-4.66.41.41,0,0,0,.27-.25A11.58,11.58,0,0,1,135,94.63a4.6,4.6,0,0,0,1.11-2.25.41.41,0,0,0,0-.11.48.48,0,0,0,.06-.22c.18-2.77,3-3.12,4.57-4.9a8.5,8.5,0,0,0,2.07-4.44,3.92,3.92,0,0,0,2.32.06,4.74,4.74,0,0,0,2.47-2.4.53.53,0,0,0,.07-.2,8,8,0,0,0,1-4.07c.11-2.31.23-4.62.4-6.93a.4.4,0,0,0,.11-.35c-.42-4.3,2.55-8,4.63-11.56a.46.46,0,0,0-.06-.57c.38-.81.57-1.74-.22-2.38a6.91,6.91,0,0,0-3.29-1,.51.51,0,0,0-.24-.19c-.9-.32-1.81.12-2.68-.35-.64-.34-1-1-1.73-1.2-1.29-.48-2.52.2-3.58.89a.39.39,0,0,0-.16.18c-2-.65-4-2.56-6.07-1.2a13,13,0,0,1-1.53-2.42,6,6,0,0,0-1.63-1.59,4.47,4.47,0,0,0-4.73-.46.5.5,0,0,0,.51.87c2-1.15,4.36.54,5.33,2.24a5.73,5.73,0,0,0,1.93,2.51.48.48,0,0,0,.73-.35c1.86-1,4,1.23,5.85,1.53a.54.54,0,0,0,.6-.66,3.52,3.52,0,0,1,1.73-.7c.89,0,1.42.66,2.08,1.11.86.58,1.64.33,2.5.44a.44.44,0,0,0,.32.24c.83.15,1.68.27,2.5.47.34.08.92.2,1.09.54s-.21,1-.39,1.34a.47.47,0,0,0,0,.55c-2,3.4-4.68,7-4.56,11.05a.24.24,0,0,0,0,.08c-.17,2-.31,4-.39,6.08s0,3.94-1.15,5.59a.48.48,0,0,0-.09.23,3.82,3.82,0,0,1-1.3,1.46,2.61,2.61,0,0,1-2.46-.07.51.51,0,0,0-.81.58.38.38,0,0,0-.11.23,7.79,7.79,0,0,1-4.4,5.92,4.13,4.13,0,0,0-2.29,3.75h0a.19.19,0,0,0,0,.07,5.19,5.19,0,0,1-1.46,2.5,9.08,9.08,0,0,0-1.24,1.93.46.46,0,0,0-.42.34,16.83,16.83,0,0,0-.66,6.11.5.5,0,0,0,.5.48.49.49,0,0,0,.84,0,1.2,1.2,0,0,1,.83-.67,4.42,4.42,0,0,0,1.15-.52.47.47,0,0,0,.22-.52c.81-1.47,2.11-3.31,4.07-2.31,1.34.68,1.25,2.3,1.85,3.49a.46.46,0,0,1,.19.62c.75,1.62,1.33,2.61.53,4.41a12.4,12.4,0,0,0-1.14,2.74.5.5,0,0,0,.18.49.45.45,0,0,0,.43.27c.62,0,1.07.71,1.35,1.19a3,3,0,0,0,1,1.14.35.35,0,0,0,.13,0,5.39,5.39,0,0,1,1.23,3.34,6.48,6.48,0,0,1-2,3.89c-.48.56-1.68,1.34-1.6,2.19a.48.48,0,0,0-.12.44,4.42,4.42,0,0,0,1.48,2.49,6.93,6.93,0,0,0,1.16.78c.16.08,1.57.61,1.37,1.05a.39.39,0,0,0-.36.35c-.51,2.71-.26,5.51,2,7.43a11.33,11.33,0,0,0,3.33,1.93c1.23.43,4.85.28,3,2.34a.44.44,0,0,0-.12.41.41.41,0,0,0-.16.22c-.51,1.49.23,3.05-1.09,4.26-.9.82-2.32.75-3,1.79a.06.06,0,0,0,0,0,.52.52,0,0,0-.16.14,9.91,9.91,0,0,1-2.89,2.58,7.11,7.11,0,0,0-2.45,1.65s0,.05,0,.07a.37.37,0,0,0-.13.22c-.5,2.08-1.16,3.9-3.53,4.44a8.38,8.38,0,0,1-5.75-.84.52.52,0,0,0-.38,0,27,27,0,0,1-3-.29,16.3,16.3,0,0,1-2.9-.92.45.45,0,0,0-.39-.2,5.78,5.78,0,0,1-2.06-.29,1,1,0,0,1-.47-1.6.43.43,0,0,0-.28-.69.39.39,0,0,0-.36-.11,7.29,7.29,0,0,0-1.48.37.42.42,0,0,0-.26-.15,2.41,2.41,0,0,0-1.1.06.52.52,0,0,0-.31.29,2.06,2.06,0,0,1-1.85.4,1.88,1.88,0,0,1-.76-.44c-.09-.08-.67-.71-.56-.86.31-.44-.25-.85-.66-.67a.45.45,0,0,0-.57.09c-.7.71-2.88,1.37-3.38.09a.53.53,0,0,0-.54-.33c-.8-.48-1.53-.07-2.39.35q-2.19,1.09-4.26,2.39a.45.45,0,0,0-.4.15c-.38.42-.77.84-1.16,1.25s-.73,1-1.22,1.16-.75.09-1.11.23a2.2,2.2,0,0,0-.64.39.47.47,0,0,0-.44.24,4.33,4.33,0,0,0-.4,1.37A4.29,4.29,0,0,1,99.19,159a5,5,0,0,0-1,3.18.51.51,0,0,0,.08.27.57.57,0,0,0,.08.24c.65,1,.4,2.43.73,3.58.19.66,1.23,2,0,2.34a.46.46,0,0,0-.29.23,5.62,5.62,0,0,0-2.73.18c-.58.24-1,.66-1.62.9s-3,.72-3.57-.1a.48.48,0,0,0-.44-.21,1.15,1.15,0,0,0-.88-.2c-.4.07-.77.27-1.18.34s-1.73.08-1.68-.73a.47.47,0,0,0-.75-.4.48.48,0,0,0-.32.22.82.82,0,0,1-1.2.27,2.34,2.34,0,0,1-.9-.53,7.09,7.09,0,0,1-.79-2.22.49.49,0,0,0-.67-.31H81.9c-.94.2-1.93.63-2.55-.33-.37-.57-.57-1.27-1.22-1.6a.48.48,0,0,0-.42,0h0c-.23,0-.51.11-.73.12a5.07,5.07,0,0,1-1.11-.22c-.89-.19-1.72.07-2.61-.28-1.29-.51-2.13-1.57-3.59-1.37a5.8,5.8,0,0,0-.48.76c-.32,2.07-3.93,1.06-5.29,1.17a5.2,5.2,0,0,1-3.31-.35c-.58-.3-1.07-.7-1.66-1a.53.53,0,0,0-.56.09h-.07c-3.18.35-6.65-.63-8.45-3.53a.48.48,0,0,0-.67-.16.44.44,0,0,0-.22-.15c-1-.35-2.83-.31-3.34-1.47a.39.39,0,0,0-.37-.25,22.82,22.82,0,0,0-1.75-1.51c-.63-.48-1.59-.93-2-1.68a.47.47,0,0,0,0-.17c-.14-1.28,1-2.35,1.69-3.29a7,7,0,0,0,1.27-2.38.37.37,0,0,0,0-.18.52.52,0,0,0,.2-.48,9,9,0,0,0,.66-1.65c.19-.7.2-1.45.44-2.13a.51.51,0,0,0,.19-.27,7.92,7.92,0,0,0,.1-2.48.47.47,0,0,0,.23-.39c.15-2.86,1.93-5.29,2.19-8.12a.49.49,0,0,0,.17-.66,8.53,8.53,0,0,1-.95-2.11,3,3,0,0,1-.05-1.46c.05-.23.23-.94.44-1a.41.41,0,0,0,.33-.58.14.14,0,0,0,0-.06,21,21,0,0,0,.33-4.11c0-1.31-.3-2.59-.36-3.89a.47.47,0,0,0,.12-.22.94.94,0,0,1,1.8-.24h0c.95,2.62,1.18,5.21,3.57,7a.42.42,0,0,0,.66-.21.38.38,0,0,0,.31-.45c-.51-4.83-2-8.7-6.41-11.08-.8-1,.41-1.56,1.08-2.14a4.51,4.51,0,0,0,1.26-1.92.46.46,0,0,0,0-.39.52.52,0,0,0-.2-.28c-.92-1.12-.77-3-.86-4.31a.54.54,0,0,0-.12-.29.4.4,0,0,0,0-.39,3.44,3.44,0,0,0-2.53-2c-1.52-.47-6-.63-5.46-3.16a.54.54,0,0,0-.06-.38.48.48,0,0,0-.12-.33c-1.19-1.41-3.57-4.93-2.05-6.72a.95.95,0,0,0,0-.89c-.46-.52-1.1-.69-1.15-1.5a1.86,1.86,0,0,1,.43-1.35.5.5,0,0,0,.49-.83.54.54,0,0,0-.45-.7c-1-.11-2,0-3,0-.68,0-1.84-.12-1.93-1.06-.06-.6.44-1.17.77-1.62a.41.41,0,0,0-.16-.64.44.44,0,0,0-.3-.28A3.33,3.33,0,0,0,33,82.46a1.64,1.64,0,0,1-1.29-.83,1.92,1.92,0,0,0-1-.75.52.52,0,0,0-.36-.18,6.35,6.35,0,0,1-2.2-.45c-.62-.31-.78-.76-1.2-1.25-.58-.67-1.64-.49-2.4-1l-.08,0a.53.53,0,0,0-.73-.32c-1.18.57-2.53-1-3.35-1.71a.5.5,0,0,0-.25-.22c-1.24-.46-2.47-1-3.74-1.41-.92-.28-1.28.28-2.14.48l-.06,0c-1.23.1-2.86-1.61-2.09-2.82.49-.77,1.57-.89,2.32-1.29h0l.07,0h0a2.35,2.35,0,0,0,.61-3.79.44.44,0,0,0-.61-.05c-1.41-.46-3.22.1-4.45-.78a.48.48,0,0,0-.29-.51c-.54-3.05,6.63-3.37,8.29-2.4a.45.45,0,0,0,.59-.09.45.45,0,0,0,.26-.07,2.12,2.12,0,0,1,2.35,0c.47.33.92.66,1.41.15a.5.5,0,0,0,.13-.42.45.45,0,0,0,.19-.26c.72-2.45,3.86-2.81,5.6-1.38a22.64,22.64,0,0,1,2,2.08c.69.74,1.75,2,2.86,1.92a.48.48,0,0,0,.42-.29,1.34,1.34,0,0,0,.26-.09,5.94,5.94,0,0,1,.92-.43c.71-.19.81.18,1.47.41a1.4,1.4,0,0,0,.7.09c.21,0,.39-.23.58-.27a2,2,0,0,1,1.69.4.5.5,0,0,0,.72-.05.47.47,0,0,0,.25-.13c1.12-1.21,2.49,0,3.7.23a8.94,8.94,0,0,0,2.78,0,.52.52,0,0,0,.45-.41.45.45,0,0,0,.14-.63c-1.89-3.11-2.29-6.11-2.67-9.65a10.9,10.9,0,0,0-.69-2.92c-.42-1.08-2.23-3.92-1.21-4.93a27.29,27.29,0,0,0,3,0,5.71,5.71,0,0,1,2.14,0c1.17.62.48,1.48.33,2.22a3,3,0,0,0,1,2.9.53.53,0,0,0,.2.5c.28.21.39.16.71.16A14.19,14.19,0,0,0,52,51.73a10.32,10.32,0,0,1,3.32.13c2.41.41,4.64,1.1,7.11.85a.52.52,0,0,0,.46-.44q1.35-.78,2.64-1.65l.11-.12a.48.48,0,0,0,.34-.83c-1.12-1-1.45-1.09-.88-2.64s.62-1.31,1.92-1.9a19.73,19.73,0,0,0,3-1.7,10,10,0,0,1,1.23-.7.46.46,0,0,0,.32.12.46.46,0,0,0,.46-.37l.07,0,.84-.46a14,14,0,0,0,3.22-1.65.54.54,0,0,0,.18-.58,10.13,10.13,0,0,0,3.21-3.93c.54-1.33.29-2.71.28-4.12a20.21,20.21,0,0,1,1.09-6.54.34.34,0,0,0,0-.14l.29-.1c.6-.2.34-1.17-.27-1l-.34.11a.49.49,0,0,0-.34.51.47.47,0,0,0-.32.32,26.42,26.42,0,0,0-1.06,8.43c0,3.44-3.11,5.84-6,7.51A16.85,16.85,0,0,0,70.36,42c-.83.48-1.56,1.12-2.39,1.6s-2,.79-2.93,1.35c-2.29,1.4-1.8,3.41-.27,5-.85.57-1.72,1.12-2.61,1.63a.54.54,0,0,0-.18.19c-2.5.14-4.82-.65-7.29-1a11.17,11.17,0,0,0-2.77-.07c-.13,0-1,.26-1.53.38a.6.6,0,0,0-.08-.08C48,49.58,51,47.2,49,45.75a3.72,3.72,0,0,0-2.52-.41,34.71,34.71,0,0,1-4.08,0,.46.46,0,0,0-.46.62c-1.29,1.92,1.38,5.66,1.72,7.45s.28,3.83.72,5.72a17.62,17.62,0,0,0,2,4.83,7.63,7.63,0,0,1-1.85,0,16.44,16.44,0,0,1-2.29-.83,2.23,2.23,0,0,0-2.43.74,2.48,2.48,0,0,0-1.13-.62c-.73-.15-1.26.5-1.89.39-.47-.09-.81-.57-1.4-.56-.93,0-1.56.89-2.5.8a.38.38,0,0,0-.15,0c-1.12-.54-2.26-2.39-3-3.11a5.7,5.7,0,0,0-2.94-1.7A4.62,4.62,0,0,0,22,62.2a.71.71,0,0,0,0,.14c-.22-.12-.5-.37-.64-.43a3.07,3.07,0,0,0-.94-.27,3.12,3.12,0,0,0-2,.47l-.05,0c-2.77-1.3-11.27-.33-9.42,4.13a.44.44,0,0,0,.2.24.41.41,0,0,0,.13.17c1.56,1.21,3.43.45,5.15,1.13a.44.44,0,0,0,.22,0A1.34,1.34,0,0,1,14,69.79h0c-1.17.69-4,1.45-3.17,3.41a7.74,7.74,0,0,0,1.51,2.09,2,2,0,0,0,2.38.43.45.45,0,0,0,.22-.15,4.09,4.09,0,0,1,.42-.2,2.13,2.13,0,0,1,1.58.21l2.66,1h0c1.17,1,2.57,2.54,4.22,2a.48.48,0,0,0,.17.21,7.25,7.25,0,0,0,1.7.67c.57.19.68.65,1.14,1.06a5.13,5.13,0,0,0,3,1.05.38.38,0,0,0,.41.21c.62-.07,1.07,1,1.6,1.31a3.42,3.42,0,0,0,1.53.24c-.61,1-1,2.28.13,3.11s2.88.61,4.37.59a2.91,2.91,0,0,0-.6,1.91,2.36,2.36,0,0,0,.39,1.3,3.81,3.81,0,0,0,.84.71c-1.53,2.34.64,5.82,2.19,7.69a2.79,2.79,0,0,0,1.54,3c1.64.92,5.68.54,6.46,2.53a.38.38,0,0,0,.11.16.4.4,0,0,0-.05.25c.11,1.63,0,3.52,1.05,4.88A3.5,3.5,0,0,1,48.65,111a4.77,4.77,0,0,0-1.06.89,1.88,1.88,0,0,0,0,2.31s0,0,0,0a.44.44,0,0,0,.23.28c4,2.07,5.39,5.37,5.94,9.52-1.54-1.58-1.75-3.81-2.49-5.86l-.06-.1a.76.76,0,0,0,0-.11,1.94,1.94,0,0,0-3.43,0,.45.45,0,0,0-.38.46c0,2.83.58,5.4.1,8.25v.09a3.3,3.3,0,0,0-.89,2.16,6.18,6.18,0,0,0,.95,3.25s0,0,0,.06c-.06,2.85-1.8,5.28-2.17,8.07a.43.43,0,0,0-.33.46,10,10,0,0,1,0,2.68.48.48,0,0,0-.17.22,15.86,15.86,0,0,0-.39,1.94,8.43,8.43,0,0,1-.83,2.1.49.49,0,0,0,0,.37.47.47,0,0,0-.08.14c-.58,2.05-3.12,3.52-3,5.77a.44.44,0,0,0-.06.41,3.58,3.58,0,0,0,1.57,1.8,21.61,21.61,0,0,1,2.68,2.2.44.44,0,0,0,.15.1c.76,1.25,2.56,1.27,3.8,1.69a.42.42,0,0,0,.37,0c2,3.12,5.7,4.3,9.23,3.91a.49.49,0,0,0,.28-.13c1.16.56,1.82,1.35,3.2,1.51s2.94-.26,4.49,0c1.84.32,3.55.11,3.89-2.06,0,0,0,0,0-.05,1.28,0,2.54,1.54,3.88,1.65a8.29,8.29,0,0,1,1.92.19c.78.22.91,0,1.76-.06l.07,0c.41.3.6.95.88,1.34a2.22,2.22,0,0,0,.84.77,3.67,3.67,0,0,0,2.44-.1,3.89,3.89,0,0,0,1.7,2.74,2.91,2.91,0,0,0,1.7.5,1.31,1.31,0,0,0,.7-.36,2.11,2.11,0,0,0,1.16.73,3.19,3.19,0,0,0,1.34,0c.3,0,.59-.16.88-.22.52-.09.64,0,1,.35a.49.49,0,0,0,.44.11,5.06,5.06,0,0,0,2.88.23,4.92,4.92,0,0,0,1.72-.68,6.82,6.82,0,0,1,3.77-.68.47.47,0,0,0,.47-.39,2,2,0,0,0,1.16-2.26c-.16-.46-.55-.59-.78-1a5.37,5.37,0,0,1-.29-1.66,4.36,4.36,0,0,0-.58-2.32l0,0a5.19,5.19,0,0,1,1.53-3.36,5.55,5.55,0,0,0,.7-1.9.48.48,0,0,0,.24-.27c.64-.59,1.53-.4,2.2-.94a16.64,16.64,0,0,0,2-2.11l.13,0c.9-.57,1.82-1.12,2.75-1.63.51-.28,2.63-1.71,3.18-1.26a.46.46,0,0,0,.26.11c.92,1.41,3.1,1.25,4.41.3a3.53,3.53,0,0,0,1.56,1.63,3.06,3.06,0,0,0,3.29-.5l.05-.06a1,1,0,0,1,.24,0,.55.55,0,0,0,.67.21,4.82,4.82,0,0,1,.91-.29,2.1,2.1,0,0,0,.52,1.76,4.3,4.3,0,0,0,2.94.82l.09.06a18.49,18.49,0,0,0,3.31,1.06c1.07.17,2.16.21,3.24.3a9.27,9.27,0,0,0,6.93.66c2.36-.75,3-2.69,3.58-5,0,0,0,0,.06-.05a4.31,4.31,0,0,1,1.66-1,10.61,10.61,0,0,0,1.46-.93,10.81,10.81,0,0,0,2.22-2.26s0,0,0,0a.64.64,0,0,0,.17-.16c.32-.5,1.34-.62,1.86-.9a4.75,4.75,0,0,0,1.47-1.24c1-1.32.35-2.71.84-4.14a.43.43,0,0,0,0-.19h0C154.5,139.81,155.41,138,153.75,137.28Z"/></g></svg>