<svg xmlns="http://www.w3.org/2000/svg" viewBox="0 0 163 171"><defs><style>.cls-1{fill:#9eca73;}.cls-2{fill:#ceab89;}.cls-3{fill:#a67c52;}.cls-4{fill:red;}</style></defs><title>Artboard 11</title><g id="Layer_11" data-name="Layer 11"><path class="cls-1" d="M106.41,154.36c.61-.88.54-2,.85-3a1.24,1.24,0,0,0,0-.18,1,1,0,0,0,.17-.18q2.2-3.57,4.18-7.27a1,1,0,0,0-1.37-1.36l-2.47,1.06a1,1,0,0,0-.72.25l-.3.26a.88.88,0,0,0-.33.66,3.87,3.87,0,0,1-.82.51.75.75,0,0,0-.18-.07c-1.45-.28-3.23-1-4.65-.29-1.7.83-2.76,2.26-4.55,2.86-1.93.22-3.72-.51-5.61-.26a8.55,8.55,0,0,1-2.25.38c-1.21-.12-1.92-.92-2.86-1.66a1.06,1.06,0,0,0-.7-.22,7.42,7.42,0,0,0-1-1.14,2.14,2.14,0,0,0-1.74-.31,3.67,3.67,0,0,0-1.59,1.13,10.68,10.68,0,0,1-2.3,1.77l0,0a3,3,0,0,1-1.68-.71.88.88,0,0,0-.94-.84h-.2a1,1,0,0,0-.94.69,6.3,6.3,0,0,0-1.93,1.81,2.69,2.69,0,0,0-.38,1.32c0,.43.44,1.11.32,1.48,0,0,0,0,0,.06a1,1,0,0,0-.4,1,3.2,3.2,0,0,0,2,2.53,3.27,3.27,0,0,0,1.26.16,1,1,0,0,0,1.08.49c1-.22,2-.65,2.68.24a3.73,3.73,0,0,0,2,1.26,10.16,10.16,0,0,0,3,2.06c1.09.54,2.38.8,3.16,1.8a.83.83,0,0,0,.55.34c2.12,1.61,5.44,1,8,1.4.21.28.45.56.65.84a22.49,22.49,0,0,1,1.24,2.06,4.22,4.22,0,0,0,3,2.06,1.92,1.92,0,0,0,1.92.58c.4-.09.82-.43,1.23-.39a1.7,1.7,0,0,1,1,.75,1,1,0,0,0,1.33.34,1.05,1.05,0,0,0,.83-1.5c-1-1.95,1-3.08,1.91-4.52a.83.83,0,0,0,.06-.89.91.91,0,0,0-.45-.86,6.05,6.05,0,0,1-.77-.56l-.07-.07s0,0,0-.08a2.33,2.33,0,0,0,0-.59,1.68,1.68,0,0,0-.52-1,.91.91,0,0,0-.47-.38c-.7-.27-.94-2-.86-2.68A2.51,2.51,0,0,1,106.41,154.36Z"/><path class="cls-1" d="M145.51,111.35c-.49-2.57-3.12-5.28-5.48-6.19l-.19,0a9.3,9.3,0,0,0-2.06-2c-1.54-1-3.36-1.4-4.94-2.31-2.85-1.63-4.76-3.35-8.15-3.66a19.53,19.53,0,0,0-5.53-1.87,1.22,1.22,0,0,0-.27,0L117,94.39a1,1,0,0,0-.5-.43,8.33,8.33,0,0,1-3.23-1.75c-1.49-1.59-.19-2.75,1.24-3.64a1,1,0,0,0,.46-.68,1.89,1.89,0,0,0-.1-3.31c-1-.55-2.64-.16-3.7-.09l-6.05.37a1,1,0,0,0-.62.27c-1.36-.38-2.55-1.19-3.93-1.5-2.37-1.39-4.64-3.82-6.72-5.65a22.74,22.74,0,0,1-5-6.66c-1.08-3.88-1.24-8.83-4.13-11.63-1.4-1.36-3.74-2.42-5.3-3.61-.37-.29-.75-.56-1.13-.82a.79.79,0,0,0-.68-.66,3.59,3.59,0,0,1-.69-.2c-.49-.28-1-.54-1.52-.78a14.11,14.11,0,0,1-4.3-5.1,18.28,18.28,0,0,1-1.56-4.26,3.43,3.43,0,0,1,.14-3.44,1.22,1.22,0,0,1,1.42-1.27c1.39-1.56.89-2.21-.37-4.28a1.1,1.1,0,0,0-.34-.34,9,9,0,0,1,.11-3.16,2.87,2.87,0,0,1,2.59-2.69c2.13-.47,3.7-2.81,5.78-3.06a1,1,0,0,0,1.17-.42c.27-.63.91-.7,1.53-.79a7.35,7.35,0,0,0,1.75-.43A1,1,0,0,0,85,23.65c-.11-1.6.17-3.35-.09-4.92-.19-1.12-1.2-1.76-2.13-2.28-.25-.26-.26-.46-.12-.64a1.84,1.84,0,0,0,.49-.38c.59-.32,1.46-.61,1.73-1.13a2,2,0,0,0-.58-2.44c-1.23-1.06-3.1-.44-4.54-.49a24.11,24.11,0,0,1-7.5-1.88.82.82,0,0,0-.69,0,1.09,1.09,0,0,0-.25-.38A7.12,7.12,0,0,1,69,4.51c-.08-.46.05-.84-.31-1.25-.88-1-2.36-.1-3.29.35a10.29,10.29,0,0,1-4.18,1.51c-1,0-1.93-.48-2.91-.36A1.86,1.86,0,0,0,56.56,7,2.5,2.5,0,0,1,54.34,8a8.48,8.48,0,0,1-1.66-.67A3.92,3.92,0,0,0,50.25,7c-1.72.57-.92,1.91-1.1,3.16s-.91.22-1.72.05a1.54,1.54,0,0,0-1.64.5c-1,1.27.1,3.43.72,4.73-.15.43-1.08.29-1.36.08s-.58-.85-1-1.17a1.75,1.75,0,0,0-2.12,0C39.86,15,40,12.8,38.35,12a1,1,0,0,0-1,0,2.78,2.78,0,0,0-1.12,1.7A8.46,8.46,0,0,0,36.05,15c-.15,1.41-.66,1.7-1.55,2.67-.43.46-.7.59-.86,1.23-.29,1.18.91,4.62-1.4,3.92-.07-.27-.18-.82-.2-1a3.13,3.13,0,0,0-.26-1.21,1.21,1.21,0,0,0-.64-.53,1.72,1.72,0,0,0-.26-.66A.94.94,0,0,0,30,18l-.21,0A6.35,6.35,0,0,0,29.05,17,4.32,4.32,0,0,1,28,13.44a1,1,0,0,0-1.71-.71c-1.36,1.14-1.63,2.92-2.49,4.4a8.16,8.16,0,0,1-1.84,2.08c-.4.36-.89,1.19-1.39,1.6-1.44-1-2.67-2.08-4.45-1.35-1.17.47-2.15,1.2-3.46,1.22a4.15,4.15,0,0,0-2.21.33,1,1,0,0,0-.35,1.37,6.63,6.63,0,0,0,1,1.41,2,2,0,0,0,.38.72c.07.08.34.28.38.38s0,.47.05.65a3.36,3.36,0,0,0,.27.75,3,3,0,0,0,1.45,1.62,4.58,4.58,0,0,0-.78,3,5.67,5.67,0,0,0-.72.1,3.8,3.8,0,0,0-1.16.65,1.85,1.85,0,0,1-1.78.42,3,3,0,0,0-1.66,0,1,1,0,0,0-.7,1.23c.36,1.08,1.44,1.47,1.83,2.41s.95,1.75,2.07,1.79a1.48,1.48,0,0,1,.19,2,3.59,3.59,0,0,0-1.49,1.73,6.83,6.83,0,0,0,.11,3,3.71,3.71,0,0,0,1.93,3.87,9.83,9.83,0,0,0,6,.74,1,1,0,0,0,.18-.09.5.5,0,0,1,.1.46c0,.08,0,.14,0,.19a4.73,4.73,0,0,0-.56.35,5.82,5.82,0,0,0-.88,1.6c-.3.54-.82.87-.92,1.52A1.51,1.51,0,0,0,16,54.39a.8.8,0,0,0,1.06,0,5.25,5.25,0,0,0,2.27-.43c.68-.29,1.42-.39,2.09-.68,1.35-.59,2.41-2.69,3.17-3.91a1,1,0,0,0,.46-.4,7.32,7.32,0,0,1,1.9-2.44,8.85,8.85,0,0,1,2.79-1.15.94.94,0,0,0,.65-.66.29.29,0,0,0,.1,0,3.08,3.08,0,0,1,1.88.62,4.9,4.9,0,0,0,1.53,1.14,2.18,2.18,0,0,0,.83.79c.64.31,1.3.07,1.95.24.82.21,1.28,1,1.91,1.52a7.71,7.71,0,0,0,2.09,1A4.59,4.59,0,0,0,42,51.12a4.8,4.8,0,0,0,2.23.24,1,1,0,0,0,.4.27c1.83,2.14,2,4.37,2.34,7.08a6.51,6.51,0,0,0,2,4.29A6.66,6.66,0,0,1,49,67.12a1,1,0,0,0,0,.53l-.24.2a1,1,0,0,0,0,1.41,1,1,0,0,0,1.42,0,5.11,5.11,0,0,1,.55-.48.47.47,0,0,1,.09.1c.12.16.28.3.41.45a3.16,3.16,0,0,1,.92,1.72A1,1,0,0,0,53,72c1.28.34,1.32,1.22,2.06,2.13a6.75,6.75,0,0,0,1,.73c.49.44.12,1-.17,1.5a1,1,0,0,0,.85,1.49,1,1,0,0,0,.92,0c.28-.15.48-.37.8-.35a3.72,3.72,0,0,1,1.22.66l2.11,1.27h.05a4.75,4.75,0,0,0,1.21,2.18,6.37,6.37,0,0,0,1,1,.79.79,0,0,0,.12.15,46.09,46.09,0,0,1,6.24,6.84,15.59,15.59,0,0,0,2.37,2.69c1.16.87,3.67,1.22,4.09,2.77a.9.9,0,0,0,.84.71,2.11,2.11,0,0,0,1.89.71,8.91,8.91,0,0,1,1.68-.33,3.44,3.44,0,0,1,1.64.76.86.86,0,0,0,1,0h0c.84,0,1.1-.86,1.88-.85s1.4.78,1.87,1.38a10.94,10.94,0,0,0,1.19,1.91,18.09,18.09,0,0,1,1.32,2,1,1,0,0,0-.13.41,1.58,1.58,0,0,0,1.87,1.8,2.79,2.79,0,0,1,1.92.46,8.34,8.34,0,0,0,1.13.54,5.1,5.1,0,0,0-.72.89,1,1,0,0,0,1.13,1.47c1.28-.34,2.88.06,3.77-1.08a1,1,0,0,0,.46,0,1.07,1.07,0,0,1,1,.42,10.13,10.13,0,0,0,.84,2.18,8.09,8.09,0,0,1,.55.93c.19.64-.36,1.22-.66,1.71a.85.85,0,0,0,0,.92.78.78,0,0,0,.27,1,2.49,2.49,0,0,0,1.52.62c1,.05,1.42,0,2.13.87a1.8,1.8,0,0,0,1.39.78,1.53,1.53,0,0,0,1.77.26c.26-.13.55-.53.81-.6s.78.45,1,.66a.92.92,0,0,0,.78.28,1.53,1.53,0,0,0,.21.14s0,0,0,0a6,6,0,0,1,1.38,2.22.94.94,0,0,0-.3.67c0,1.36.72,2.11,1.52,3l.21.49a.84.84,0,0,0,.58.49,11.44,11.44,0,0,1,1.69,4.85,1,1,0,0,0,.12.31,5.43,5.43,0,0,0,.55,2.84c.84,1.47,2.8,2.45,1.14,4.29,0,0,0,.07-.05.1a10.5,10.5,0,0,1-1.2.13,9.72,9.72,0,0,0-2.14.46,1.12,1.12,0,0,0-.8,1.31c.12.57.65.85,1.13,1.13a9.28,9.28,0,0,1-.38,1.72l-.57,2.22a.92.92,0,0,0,0,.23,3.94,3.94,0,0,0-1.66.73,2.75,2.75,0,0,0-.74,1.85c-.07,1.5.1,2.86,1.71,3.35,1.17.35,3.76,1,4.78,0a2.66,2.66,0,0,0,.56-1.77,8.06,8.06,0,0,1,.62-2.72,17.58,17.58,0,0,1,2.9-2.81,2.69,2.69,0,0,0,1.24-2c.12-1.17-.41-2.35-.3-3.52a3.41,3.41,0,0,1,1.08-2.43l0,0c.11-.12.23-.23.35-.34a9.48,9.48,0,0,0,.91-.69,3.15,3.15,0,0,1,1.3-.45c.56-.05,1.11.06,1.67.05a1.11,1.11,0,0,0,1.71-.75c.17-1.39-.5-2.34-.86-3.61s.5-2.74-.26-4.07a5.35,5.35,0,0,0-2.66-1.87c-.89-.41-4.07-.83-4.29-1.87a.83.83,0,0,0-.33-.53,6.45,6.45,0,0,1,.19-1.36l.4-2.05s0,0,0-.08l0-.12a1,1,0,0,0-.06-.56c-.09-1.24.84-2.4,1.33-3.48a19.81,19.81,0,0,0,1-2.71,20,20,0,0,1,2.17-1.61,3.64,3.64,0,0,1,1.51-.46h.42a1.07,1.07,0,0,0,.32.12,1.05,1.05,0,0,0,.51,1.3.94.94,0,0,0,.61.47c1.68.45,3.26,1.53,5,1.13a1,1,0,0,0,.56.07,3.82,3.82,0,0,1,1.11-.16c.37.07.54.36.8.62a12,12,0,0,0,1.46,1.21c.12.5-.08.92,0,1.43a5.25,5.25,0,0,0,.84,1.69c.53.9,1.21,1.74,2.37,1.67h0a.86.86,0,0,0,.8.42c.9,0,1.19-.65,1.28-1.46a7.8,7.8,0,0,1,.73-2.28A2.42,2.42,0,0,0,145.51,111.35Z"/><path class="cls-2" d="M79.14,78.35a25.22,25.22,0,0,0-.49-3.78.54.54,0,0,0-.12-.24l-.19-2.77a.65.65,0,0,0-.75-.59c-.35-.14-.7-.27-1-.38h-.09A16.87,16.87,0,0,0,73.37,70c-1.74-.23-3.48-.43-5.22-.53s-3.59-.11-5.38-.06q-1.17,0-2.31.09a3.32,3.32,0,0,0-1.57.27,7.77,7.77,0,0,1-.5-1,4.1,4.1,0,0,0-.24-.93,1,1,0,0,0-.87-.67,12.81,12.81,0,0,1-.75-1.91c.28-.51-.26-1.26-.83-.86l0,0a.5.5,0,0,0-.34.24,9.24,9.24,0,0,0-2.1,2,5,5,0,0,0-.65,2.84c-.15,1-.28,1.92-.4,2.88-.29,2.35-.5,4.72-.65,7.09a.7.7,0,0,0-.05.85.61.61,0,0,0,1,.45,21.09,21.09,0,0,0,5.47.8c2.22,0,4.43-.28,6.64-.1a31.45,31.45,0,0,0,6.06-.06h.14l4.08-.26,2-.14a5.67,5.67,0,0,0,1.75-.19C79.64,80.42,79.22,79.15,79.14,78.35Z"/><path class="cls-3" d="M55.48,70c0-.27-.21-.71-.54-.72s-.48.37-.52.64a8.33,8.33,0,0,0,0,1.58.22.22,0,0,0,.4.1.16.16,0,0,0,.1,0l.18,0,.06,0a.21.21,0,0,0,.28-.19A5.75,5.75,0,0,0,55.48,70Z"/><path class="cls-3" d="M60.91,71.33a12,12,0,0,0-4,.11,1.1,1.1,0,0,0,.29-.11.22.22,0,0,0,.1-.19s0,0,0,0c.07-.58.46-2.55-.69-2.38s-.8,1.91-.77,2.62a.22.22,0,0,0,.35.16,2.25,2.25,0,0,0,.26,0h-.07c-.76.11-1.58.2-2.38.35a.09.09,0,0,0,0,0c-.05-.51,0-1,0-1.53,0-.25-.11-.54-.4-.56-.75-.06-.52,1.59-.48,2a.23.23,0,0,0,.33.17h0l.16.07a9.14,9.14,0,0,0-1.68.53c-.24.11,0,.47.21.36a15.69,15.69,0,0,1,4.3-.9,13.3,13.3,0,0,1,4.31-.19C61.07,71.79,61.18,71.39,60.91,71.33Z"/><path class="cls-3" d="M53,70.6c0-.17-.08-.44-.29-.47a.21.21,0,0,0-.23.1,1.89,1.89,0,0,0-.14.75,5.46,5.46,0,0,0,0,1,.21.21,0,0,0,.41,0,.23.23,0,0,0,.23-.26C52.93,71.37,53.05,71,53,70.6Z"/><path class="cls-3" d="M58,68a3.11,3.11,0,0,0-2.24.29c-1.09.38-2.18.8-3.26,1.2-.25.1-.15.5.11.41l2.53-1c.83-.29,1.89-.87,2.75-.55C58.19,68.47,58.29,68.07,58,68Z"/><path class="cls-3" d="M58,67.3a9.22,9.22,0,0,0-1.06,0,6.18,6.18,0,0,0-1.08.35V66a.19.19,0,0,0-.08-.16l0-.74a2.33,2.33,0,0,1,.49-.21.21.21,0,0,0-.12-.4,6.29,6.29,0,0,0-1.89,1.17,5.76,5.76,0,0,0-1.53,1.38c-.15.22.21.43.36.21a3,3,0,0,1,.27-.35,4.7,4.7,0,0,0,0,.75,2.06,2.06,0,0,0,.09.74s0,.06.07.09c-.35.1-.71.2-1.07.27s-.15.46.11.41c1.87-.4,3.54-1.3,5.45-1.47C58.27,67.7,58.27,67.28,58,67.3Zm-3.58-1.19a.19.19,0,0,0-.19.2,8.32,8.32,0,0,0,.13,1.93l-.45.14a.19.19,0,0,0,.07-.13,13.82,13.82,0,0,0,0-1.82s0,0,0,0c.15-.12.3-.22.45-.33Zm.5,1.93h0a22.25,22.25,0,0,1,0-2.31l.24-.18,0,1.28a2,2,0,0,0,.1,1.06l0,0Z"/><path class="cls-3" d="M52.9,67.58h0a.19.19,0,0,0-.12.19,4.42,4.42,0,0,1,0,.63c0,.23.37.29.41,0l.13-.76C53.35,67.42,53,67.31,52.9,67.58Z"/><path class="cls-3" d="M60.89,72a9.76,9.76,0,0,0-4.13.23,43.34,43.34,0,0,0-4.54.73c-.25.09-.14.49.11.4a26,26,0,0,1,3.83-.58,12,12,0,0,1,4.61-.37C61,72.47,61.15,72.06,60.89,72Z"/><path class="cls-3" d="M59.79,73.27a.7.7,0,0,0-.86-.57c-.6.11-.69.6-.72,1.12s0,.76,0,1.14a1.46,1.46,0,0,0,.1.75.2.2,0,0,0,.31.05.17.17,0,0,0,.14,0,2,2,0,0,1,.31-.08.19.19,0,0,0,.18,0,.34.34,0,0,0,.15-.06,1.57,1.57,0,0,1,.3,0,.22.22,0,0,0,.27-.2A6.54,6.54,0,0,0,59.79,73.27Z"/><path class="cls-3" d="M57.07,73.32c-.37-.42-.86-.18-1.08.25a4.89,4.89,0,0,0-.2,2.22.22.22,0,0,0,.35.16h.07a4.43,4.43,0,0,1,.81-.07c.09,0,.25,0,.34,0s.14-.37.15-.55A3,3,0,0,0,57.07,73.32Z"/><path class="cls-3" d="M55.45,75.35a8.52,8.52,0,0,0-.11-1.23c0-.21-.06-.48-.26-.6-.55-.35-.76.56-.82.88a4.87,4.87,0,0,0-.08,1.07c0,.21,0,.57.18.7a.22.22,0,0,0,.29-.07h0a.16.16,0,0,0,0-.08,1.12,1.12,0,0,0,.67-.11C55.51,75.77,55.46,75.54,55.45,75.35Z"/><path class="cls-3" d="M53.89,74.35c0-.23-.06-.64-.4-.61s-.33.49-.37.72A8.35,8.35,0,0,0,53,76a.2.2,0,0,0,.29.18.24.24,0,0,0,.23,0l.08-.07a.21.21,0,0,0,.34-.15A9.22,9.22,0,0,0,53.89,74.35Z"/><path class="cls-3" d="M52.72,74.09a.21.21,0,0,0-.4,0,3.79,3.79,0,0,0-.08,2.06.21.21,0,0,0,.39,0,.19.19,0,0,0,.12-.18c0-.36,0-.72,0-1.08A1.84,1.84,0,0,0,52.72,74.09Z"/><path class="cls-3" d="M63.72,76a7.83,7.83,0,0,0-2.51,0,32.78,32.78,0,0,0-3.29.09,43.47,43.47,0,0,1-6,.56.21.21,0,0,0,0,.42,35.43,35.43,0,0,0,5.34-.47,19.77,19.77,0,0,1,3.17-.19,12.69,12.69,0,0,1,3.2,0A.21.21,0,0,0,63.72,76Z"/><path class="cls-3" d="M63.63,76.5c-1,0-1.88.27-2.83.31s-1.95.11-2.92.2a38.44,38.44,0,0,1-6.07.12c-.27,0-.27.4,0,.42a38.44,38.44,0,0,0,6.07-.12c1-.09,1.94-.15,2.92-.2s1.91-.35,2.83-.31C63.9,76.93,63.9,76.51,63.63,76.5Z"/><path class="cls-3" d="M52.51,78.21a.21.21,0,0,0-.36,0c-.2.26-.13.68-.14,1,0,.46,0,.91,0,1.36a.21.21,0,0,0,.09.17c.1.13.33.15.36,0A4.39,4.39,0,0,0,52.51,78.21Z"/><path class="cls-3" d="M53.81,79.19c0-.29,0-1-.4-1.07a.23.23,0,0,0-.23.1,1.84,1.84,0,0,0-.17,1c0,.22,0,.44,0,.66a1.13,1.13,0,0,0,.07.85v.05a.23.23,0,0,0,.4.12l0,0A3.39,3.39,0,0,0,53.81,79.19Z"/><path class="cls-3" d="M55.12,78.61c-.08-.28-.4-.73-.71-.44a.7.7,0,0,0-.17.49,9.24,9.24,0,0,0-.1,1.17c0,.32-.15,1.09.24,1.24a.19.19,0,0,0,.15,0h0l.08,0a.17.17,0,0,0,.23-.11.23.23,0,0,0,.28-.2A6.44,6.44,0,0,0,55.12,78.61Z"/><path class="cls-3" d="M56.42,77.8c-.53.14-.63.74-.68,1.2a11.85,11.85,0,0,0-.07,1.33,1.69,1.69,0,0,0,.11.87.21.21,0,0,0,.39-.08h.08a.14.14,0,0,0,.09,0,3.66,3.66,0,0,1,.73.16.22.22,0,0,0,.27-.21C57.4,80.44,57.89,77.42,56.42,77.8Z"/><path class="cls-3" d="M59.16,77.63c-1.29-.24-1,2.91-1,3.53a.21.21,0,0,0,.31.17,3.84,3.84,0,0,0,1.22,0c.08,0,.19-.06.2-.16C60,80.38,60.39,77.86,59.16,77.63Z"/><path class="cls-3" d="M62.68,78.84c-.08-.5-.22-1.17-.81-1.27s-.85.62-1,1.12a6.47,6.47,0,0,0,0,2.63c0,.24.36.18.4,0a2.09,2.09,0,0,0,1.46.19.2.2,0,0,0,.14-.14A7.1,7.1,0,0,0,62.68,78.84Z"/><path class="cls-3" d="M63.32,74.69c0-.26,0-1-.39-1.15a.65.65,0,0,0-.28-.21l-.13-.07a.19.19,0,0,0-.13,0,.74.74,0,0,0-.48.14.17.17,0,0,0-.06.06.19.19,0,0,0-.22,0c-.13.16-.09.28,0,.46s.24.64.36,1c.07.17.13.48.3.6s.45.07.65.08a.22.22,0,0,0,.21-.21c0-.18,0-.36,0-.53A.2.2,0,0,0,63.32,74.69Z"/><path class="cls-3" d="M62.47,70c-1.17,0-.88,2-1,2.65,0,.21.22.25.35.13h0a4.63,4.63,0,0,0,1.18.06.23.23,0,0,0,.21-.21C63.36,72,63.68,69.93,62.47,70Z"/><path class="cls-3" d="M66.54,71.72a3.92,3.92,0,0,0-.08-.84,1.05,1.05,0,0,0-.84-.86c-1.19-.13-1.08,1.87-1.11,2.58a3,3,0,0,1,.39.29,2.83,2.83,0,0,0,.77,0,2.1,2.1,0,0,0,.75,0,.21.21,0,0,0,.15-.2A6.29,6.29,0,0,0,66.54,71.72Z"/><path class="cls-3" d="M66.71,76.31a6.91,6.91,0,0,0-.08-1.53c0-.08,0-.17,0-.26a1.16,1.16,0,0,0-.22-.85.93.93,0,0,0-.91-.34l-.15,0c-.46,0-.71.31-.83.72a8.41,8.41,0,0,0-.23,2.6.21.21,0,0,0,.4.09l.07,0a11.47,11.47,0,0,0,1.66.06c.14,0,.29-.18.18-.31h0A.25.25,0,0,0,66.71,76.31Z"/><path class="cls-3" d="M66.77,81.11c-.19-.9.19-1.88-.23-2.76a1.12,1.12,0,0,0-1.33-.67c-1.35.48-.65,2.94-.24,3.8a.19.19,0,0,0,.33,0,.14.14,0,0,0,.11,0,1,1,0,0,0,.25-.06,1.63,1.63,0,0,0,1-.09A.22.22,0,0,0,66.77,81.11Z"/><path class="cls-3" d="M69.72,71.35c0-.48-.09-1-.6-1.2-1.39-.52-1.34,1.79-1.25,2.52a.24.24,0,0,0,.36.16.39.39,0,0,0,.3.11,2.52,2.52,0,0,0,1-.06.27.27,0,0,0,.18-.23A4.71,4.71,0,0,0,69.72,71.35Z"/><path class="cls-3" d="M72.13,71.31c-.1-.6-.36-1.11-1-.84a.83.83,0,0,0-.5.67,3.37,3.37,0,0,0,0,1.84.21.21,0,0,0,.27.13.14.14,0,0,0,.11,0,3.88,3.88,0,0,1,1,0,.21.21,0,0,0,.26-.2A6.2,6.2,0,0,0,72.13,71.31Z"/><path class="cls-3" d="M69.72,74.63a1,1,0,0,0-.43-.95.9.9,0,0,0-.55-.27c-1.28-.19-1,2.5-.94,3.18a.22.22,0,0,0,.37.14.21.21,0,0,0,.13,0c.36,0,.71,0,1.06,0a.21.21,0,0,0,.19-.12.21.21,0,0,0,.12-.18c0-.25,0-.59,0-1A8.42,8.42,0,0,0,69.72,74.63Z"/><path class="cls-3" d="M69.52,78a.8.8,0,0,0-1.34,0,1.92,1.92,0,0,0-.23,1.2c0,.69,0,1.37,0,2.06,0,.23.28.26.39.1a.21.21,0,0,0,.2.08l.6-.09a1.09,1.09,0,0,0,.55-.09c.22-.14.15-.33.14-.56C69.77,79.86,70.11,78.82,69.52,78Z"/><path class="cls-3" d="M71.64,77.71c-.57,0-.67.54-.75,1a8.86,8.86,0,0,0-.09,2.67c0,.21.29.18.37,0h.07l.43-.12h.78a.2.2,0,0,0,.21-.21C72.66,80.29,73,77.75,71.64,77.71Z"/><path class="cls-3" d="M72.34,74.66c-.08-.48-.3-1.11-.9-1.14-1.21,0-.92,2.48-.75,3.13a1.55,1.55,0,0,1,.5.1,4.5,4.5,0,0,0,1.1,0,.21.21,0,0,0,.15-.14A5.41,5.41,0,0,0,72.34,74.66Z"/><path class="cls-3" d="M73.71,70.7c-1,.12-.68,1.7-.62,2.33a.22.22,0,0,0,.32.17l0,0c.07,0,.12,0,.2,0a1.62,1.62,0,0,1,.66,0,.21.21,0,0,0,.26-.2C74.51,72.46,74.81,70.57,73.71,70.7Z"/><path class="cls-3" d="M75.93,71.72c-.07-.24-.13-.56-.43-.55-.75,0-.3,1.69-.29,2.09a.21.21,0,0,0,.36.14h.09l.3-.06a.23.23,0,0,0,.15-.2A6.14,6.14,0,0,0,75.93,71.72Z"/><path class="cls-3" d="M77.15,72c0-.22-.14-.55-.41-.52-.62,0-.21,1.53-.18,1.86a.23.23,0,0,0,.32.18l.15,0a.23.23,0,0,0,.21-.21C77.21,72.85,77.2,72.4,77.15,72Z"/><path class="cls-3" d="M78.05,73.26a5.37,5.37,0,0,0-.12-1.5.21.21,0,0,0-.35-.09c-.19.17-.1.53-.09.75s.08.68.14,1,.41.16.4-.08A.2.2,0,0,0,78.05,73.26Z"/><path class="cls-3" d="M74.89,76.43c-.11-.57.12-2.94-1-2.76-.45.07-.56.63-.61,1a6.73,6.73,0,0,0,.1,2.1c0,.24.38.17.41,0h.07c.32-.09.61.1.93,0A.23.23,0,0,0,74.89,76.43Z"/><path class="cls-3" d="M76.42,75.87c0-.4-.07-.78-.12-1.17a.84.84,0,0,0-.19-.57c-.34-.3-.62.12-.68.42a6.33,6.33,0,0,0,0,1.23,2.14,2.14,0,0,0,.1.84.21.21,0,0,0,.24.1h0a.19.19,0,0,0,.08,0l.06,0C76.51,76.83,76.45,76.34,76.42,75.87Z"/><path class="cls-3" d="M77.48,75c0-.22-.07-.53-.29-.64a.33.33,0,0,0-.45.15,2.19,2.19,0,0,0-.08,1,2.7,2.7,0,0,0,.17,1.1.21.21,0,0,0,.24.1h0a.2.2,0,0,0,.12-.08l.09,0c.2,0,.27-.14.29-.3A6,6,0,0,0,77.48,75Z"/><path class="cls-3" d="M78.39,76.51a.3.3,0,0,0,0-.1,4.53,4.53,0,0,0-.26-1.8.22.22,0,0,0-.39,0,4,4,0,0,0,.23,2c.06.26.47.15.4-.11Z"/><path class="cls-3" d="M75,78.67c-.06-.35-.38-.87-.78-.89s-.55.4-.61.74a11.53,11.53,0,0,0-.09,2.56.22.22,0,0,0,.37.14.39.39,0,0,0,.43,0l.06,0a3.55,3.55,0,0,0,.5,0,.21.21,0,0,0,.21-.21A16.31,16.31,0,0,0,75,78.67Z"/><path class="cls-3" d="M75.91,78c-.37.07-.42.73-.45,1a6.12,6.12,0,0,0,.21,2,.21.21,0,0,0,.39,0,1,1,0,0,0,.3.09.21.21,0,0,0,.27-.2C76.59,80.51,76.69,77.83,75.91,78Z"/><path class="cls-3" d="M77.84,80.6c-.08-.5,0-1-.12-1.52,0-.25-.06-.71-.33-.85a.22.22,0,0,0-.31.13,6.06,6.06,0,0,0,0,2.51.22.22,0,0,0,.32.18.2.2,0,0,0,.3-.18v0h0A.22.22,0,0,0,77.84,80.6Z"/><path class="cls-3" d="M78.53,79.12c0-.27,0-.67-.25-.82a.21.21,0,0,0-.31.18l0,2.31a.22.22,0,0,0,.41.08.21.21,0,0,0,.26-.19A9,9,0,0,0,78.53,79.12Z"/><path d="M145.54,108.92c-1-1.89-2.86-2.72-4.41-4a.4.4,0,0,0-.16-.31,15.13,15.13,0,0,0-3.05-2,21.61,21.61,0,0,1-3.36-1.61.4.4,0,0,0-.4-.06,44.8,44.8,0,0,0-5.07-3.29c-2-.94-4.31-1.18-6.44-1.82h-.11c-1.41-.5-2.72-1.29-4.13-1.83s-4.24-1.3-4.9-2.93a.44.44,0,0,0-.05-.52c.37-.9,2.11-1.93,2.6-2.37a2.43,2.43,0,0,0,1-2.07c-.22-1.81-2.38-2.58-3.94-2.54a.65.65,0,0,0-.21,0l-.14,0a7.55,7.55,0,0,0-1.63.3,7,7,0,0,1-.71.12c-1.12.08-2.24.14-3.36.11a5.73,5.73,0,0,0-2.42.31l-.08,0a3.84,3.84,0,0,1-1.37-.57.46.46,0,0,0-.44,0c-1.32-.26-2.3-1.32-3.33-2.13-.87-.69-1.75-1.36-2.65-2a53.63,53.63,0,0,1-5.67-6.19.49.49,0,0,0-.2-.16,9.8,9.8,0,0,1-2-4.64.47.47,0,0,0-.11-.27c-.17-.76-.4-1.51-.53-2.29s-.35-1.82-.59-2.72a.48.48,0,0,0,0-.24c-.56-2.45-2.55-3.78-4.33-5.38a.5.5,0,0,0-.39-.13c-1.25-1-2.56-1.94-3.87-2.88a.44.44,0,0,0-.19-.22c-.3-.19-.61-.35-.92-.52a.41.41,0,0,0-.22-.27A11.47,11.47,0,0,1,72,48.28.4.4,0,0,0,71.7,48c-1-1.71-1.91-3.85-1.51-5.85a.54.54,0,0,0,0-.22,4.08,4.08,0,0,1,.33-1.2c.23-.42.88-.42,1.28-.6a.39.39,0,0,0,.22-.53,3.33,3.33,0,0,0,.58-2,4,4,0,0,0-.92-2.06l-.06-.06a.66.66,0,0,0-.06-.22,5.19,5.19,0,0,1,.7-5.08,25.91,25.91,0,0,0,2.82-1.13c.94-.58,1.78-1.3,2.69-1.91l.08,0c.59-.36,1.26.08,1.9-.19s.79-.73,1.15-1.15h0c.24-.15.57,0,.83,0a3.12,3.12,0,0,0,.75-.15c.4-.14.74-.4,1.13-.56l0,0a1.52,1.52,0,0,0,1.94-1.36,22.42,22.42,0,0,0,.21-2.59c0-.52-.14-1.13-.17-1.69a.4.4,0,0,0,.13-.36,3.57,3.57,0,0,0-2-3h0a3.37,3.37,0,0,0,2-2,3,3,0,0,0-1.33-3.22.51.51,0,0,0-.35-.06.46.46,0,0,0-.22-.11c-1.44-.29-2.9,0-4.37-.23a21.29,21.29,0,0,1-4.2-.94.4.4,0,0,0-.39,0,8.78,8.78,0,0,0-3-.89,1.61,1.61,0,0,0-.3-.48c-.19-.2-.57-.3-.69-.54a.4.4,0,0,0-.16-.18A3.65,3.65,0,0,1,70,5.24a5.23,5.23,0,0,0-.13-1.72A2,2,0,0,0,68,2.14a.46.46,0,0,0-.25.07l-.1,0c-2.23,0-3.87,2.16-6,2.33a.46.46,0,0,0-.21,0c-1.28,0-2.86-.79-4.09-.22a2.72,2.72,0,0,0-1.53,2.42l0,0a3.79,3.79,0,0,1-.51.47,2.47,2.47,0,0,0-.38.21l-.18-.1,0,0a9,9,0,0,0-3.61-1.19.42.42,0,0,0-.39.17A2.4,2.4,0,0,0,49,7.33a12.09,12.09,0,0,0-.67,2.53c-1.05-.39-2.31-.46-3,.6s-.37,2.76.11,4c-.46-.29-.86-.84-1.32-1.05a.63.63,0,0,0-.22,0,.43.43,0,0,0-.2,0,4.59,4.59,0,0,0-1.21.26c-.4.13-1,.36-1.34.06a.41.41,0,0,0-.21-.1c-.71-.74-1.19-1.72-2.12-2.21a1.93,1.93,0,0,0-2.39.36.51.51,0,0,0-.11.43c-.87,1.4-.87,3.12-1.87,4.49a.31.31,0,0,0,0,.12,5,5,0,0,0-1.46,2,16.89,16.89,0,0,0-.11,2,2.47,2.47,0,0,0-.11-.36,2.53,2.53,0,0,0-1.13-1.11s0,0,0-.06c-.19-.44-.12-.92-.44-1.31a1.58,1.58,0,0,0-.94-.52c-.31-.67-.79-1.26-1.05-1.95-.31-.85-.16-1.78-.5-2.61a.53.53,0,0,0-.29-.3c-1.15-1-2.44-.17-3.23.9a32.17,32.17,0,0,0-1.64,2.78,26.34,26.34,0,0,1-1.85,2.46.38.38,0,0,0-.23.16l-.81,1a5.06,5.06,0,0,0-2.75-1.47c-1.45-.16-2.74.68-4,1.26a.65.65,0,0,0-.19,0,10,10,0,0,1-2,.17,4.48,4.48,0,0,0-1.86.53.43.43,0,0,0-.23.31,1.79,1.79,0,0,0-.13,1.53c.14.4.38,1,.81,1.15.94,1.46,1.13,3.71,2.65,4.73A6,6,0,0,0,12,30.33a3.39,3.39,0,0,0-1.21.28c-.22.12-.39.31-.61.45a2.72,2.72,0,0,1-.8.28h0c-.35,0-.69-.12-1-.15a4,4,0,0,0-1.29.14.43.43,0,0,0-.21.12h0a1.53,1.53,0,0,0-.93,1.39,1.78,1.78,0,0,0,.46,1.3.55.55,0,0,0,.12.19c.35.36.69.72,1,1.1a14.93,14.93,0,0,1,.84,1.38,3.09,3.09,0,0,0,1.88,1.29.54.54,0,0,0,.07.13.34.34,0,0,1,.06.21.7.7,0,0,0,0,.14c0,.67-.68,1.2-1,1.76a4.52,4.52,0,0,0-.41,1.4,8.85,8.85,0,0,0,0,3s0,0,0,.07a4.81,4.81,0,0,0,.92,2.46c.37.48,1.11,1.33,1.79,1.36a9.66,9.66,0,0,0,4.9.91c-.11.09-.22.18-.32.28a2.34,2.34,0,0,0-.43.66.43.43,0,0,0-.25.23,9.34,9.34,0,0,0-.92,1.63A2.52,2.52,0,0,0,14.75,54a1.87,1.87,0,0,0,2.49,1,10.92,10.92,0,0,0,2.3-.52c.63-.19,1.31-.31,1.93-.55a.46.46,0,0,0,.39,0A7.6,7.6,0,0,0,24,51.84c.3-.42.53-.85.79-1.28a4,4,0,0,1,.74-.88.36.36,0,0,0,.2-.17l0,0,.13-.13A.45.45,0,0,0,26,49a6.77,6.77,0,0,1,.9-1.27,4.06,4.06,0,0,1,1.65-.85,6.15,6.15,0,0,0,2.06-1.26,5.25,5.25,0,0,1,1.34.67c.51.3,1,.58,1.57.85h.06s0,.05,0,.07a3.59,3.59,0,0,0,2.6,1.11.43.43,0,0,0,.33-.11c.7.18,1.24,1.2,1.77,1.58a5.05,5.05,0,0,0,1.92.74,0,0,0,0,0,0,0A4.84,4.84,0,0,0,42,51.8a9.42,9.42,0,0,0,2.2.39h0a9.57,9.57,0,0,1,2,4.65v0a16.09,16.09,0,0,0,.37,3.53,10,10,0,0,0,1.64,2.87v0a16.73,16.73,0,0,1,.2,2.92c0,.3-.09.71-.08,1.07a1.64,1.64,0,0,0-.12,2.35,1.71,1.71,0,0,0,1.72.43.46.46,0,0,0,.27,0,1.41,1.41,0,0,0,.27-.18,1.69,1.69,0,0,0,.31-.21h0a3.75,3.75,0,0,1,.78,1.57.46.46,0,0,0,.62.33l0,.23c-.06.28-.26.38-.31.63a.7.7,0,0,0,0,.29,3.38,3.38,0,0,1,.05.53.09.09,0,0,0-.05.09c.19,1.48-.28,2.94-.18,4.42h0c0,1-.11,2-.23,3,0,.08,0,.11.11.1a21.75,21.75,0,0,0,3.12.35c1.14,0,2.27,0,3.41,0l4.62.33a.39.39,0,0,0,.1.53,30.34,30.34,0,0,1,5,5.15.32.32,0,0,0,.09.08.54.54,0,0,0,.1.16c1.15,1.21,2.16,2.46,3.21,3.76A5.67,5.67,0,0,0,75,93.43a.52.52,0,0,0,.31,0,3.81,3.81,0,0,1,1.18,1.08c.32.49.47,1.07.79,1.57a4.23,4.23,0,0,0,2.68,1.55.5.5,0,0,0,.27-1,3.66,3.66,0,0,1-1.93-.91,6.89,6.89,0,0,1-.8-1.49,5.7,5.7,0,0,0-2.3-2.08.46.46,0,0,0-.65.16,6.05,6.05,0,0,1-3.27-2.59,29.43,29.43,0,0,0-2.57-2.9l0,0s0,0,0,0a31.58,31.58,0,0,0-4.84-5.1l1.16.09a.09.09,0,0,0,.1-.11s0,0,0-.05a12.72,12.72,0,0,1,2.31,0c.77,0,1.54-.15,2.31-.19s1.39,0,2.09.06,1.51,0,2.26-.08a8.7,8.7,0,0,0,1.12-.12c.44,0,.87,0,1.31,0,.94-.06,1.86-.21,2.79-.36a.09.09,0,0,0,0,0c.07,0,.15,0,.14-.09l0-.24a.08.08,0,0,0,0-.07q-.32-4.74-1-9.43a.07.07,0,0,0-.08-.08.09.09,0,0,0-.08-.09,53.68,53.68,0,0,0-9.54-1.31.12.12,0,0,0-.08,0,34,34,0,0,0-4.84-.07c-1.63,0-3.26.12-4.89.29-.17-.4-.32-.8-.46-1.22a.09.09,0,0,0,0-.06,2.57,2.57,0,0,0-.1-1.11c-.13-.22-.43-.21-.66-.24s-.41,0-.53-.34-.15-.51-.23-.76c-.18-.57-.38-1.13-.58-1.69a.13.13,0,0,0-.09-.07c.06-.07,0-.21-.1-.17a8.42,8.42,0,0,0-2.77,2,3.41,3.41,0,0,0-.95,2.58.11.11,0,0,0-.06.09c0,.53-.07,1.08-.1,1.62A4.86,4.86,0,0,0,51.45,69a.27.27,0,0,0-.08-.07l0-.06a.46.46,0,0,0-.46-.37.45.45,0,0,0-.37.16,6.8,6.8,0,0,0-.71.48.8.8,0,0,1-.92-.13c-.33-.36-.12-.73.17-1a.55.55,0,0,0,.26-.62c0-.69.06-1.42,0-2.11a16.2,16.2,0,0,0-.18-2,.4.4,0,0,0-.06-.4,8.79,8.79,0,0,1-1.6-2.72A14.47,14.47,0,0,1,47.16,57a.4.4,0,0,0,0-.19A10.51,10.51,0,0,0,45,51.64a.42.42,0,0,0-.35-.38c-.64-.13-1.27,0-1.89-.24a4,4,0,0,1-1.69-1,.42.42,0,0,0-.33-.32,6.55,6.55,0,0,1-1.58-.47A6.12,6.12,0,0,1,37.88,48a2.07,2.07,0,0,0-2-.68l-.07,0a2.26,2.26,0,0,1-1.5-.75.53.53,0,0,0-.17-.14.47.47,0,0,0-.13-.11,20.92,20.92,0,0,0-3-1.56.46.46,0,0,0-.77-.13c-.92,1-2.05,1.18-3.2,1.79A6,6,0,0,0,25,48.79a7.6,7.6,0,0,0-.71.68,7.51,7.51,0,0,0-.64,1.1,7.47,7.47,0,0,1-2,2.33.49.49,0,0,0-.22.06,13.11,13.11,0,0,1-2.08.61,13.38,13.38,0,0,1-1.84.46.48.48,0,0,0-.37,0c-.85.42-1.57-.24-1.52-1.14,0-.69.55-1.1.85-1.68a.43.43,0,0,0,.29-.31c.11-.37.46-.58.72-.84a2.29,2.29,0,0,0,.54-.85.45.45,0,0,0-.05-.4.52.52,0,0,0-.61-.43A8.26,8.26,0,0,1,12,47.68a.43.43,0,0,0-.17-.06l-.09,0-.12-.07a2.53,2.53,0,0,1-.42-.31,3.63,3.63,0,0,1-.65-.71,3.93,3.93,0,0,1-.65-2,.46.46,0,0,0-.05-.2,5.45,5.45,0,0,1,.5-3.69,4,4,0,0,0,.9-1.77.11.11,0,0,0,0-.06,1.38,1.38,0,0,0-.21-1.07.42.42,0,0,0-.35-.47c-1.11-.23-1.47-.77-2-1.71A8,8,0,0,0,7.3,33.77a.5.5,0,0,0-.23-.3c-.17-.09-.19-.44-.18-.61s.19-.4.43-.53l0,0a2.75,2.75,0,0,1,1.21-.06,6.13,6.13,0,0,0,1.12.14.45.45,0,0,0,.39-.2,2.78,2.78,0,0,0,.87-.45,3.2,3.2,0,0,1,1.57-.47.53.53,0,0,0,.2-.09.41.41,0,0,0,.29-.45,4.93,4.93,0,0,1,.83-2.5.47.47,0,0,0,0-.5.4.4,0,0,0-.25-.31c-1-.51-1.23-1.7-1.62-2.63a12.17,12.17,0,0,0-1-2.11.52.52,0,0,0-.27-.18l-.07-.06a1.17,1.17,0,0,1-.22-1.29c1.09-.55,2.36-.15,3.51-.52l.11-.06a.54.54,0,0,0,.27,0,8.83,8.83,0,0,1,3-1.15,4,4,0,0,1,2.91,1.45.45.45,0,0,0,.34.12.38.38,0,0,0,.54-.1l.9-1.15a.5.5,0,0,0,.27-.19,36.27,36.27,0,0,0,2.32-3.17c.41-.74,1.95-4.24,3.16-3l0,0c.23.74.15,1.56.41,2.31s.82,1.4,1.14,2.16a.57.57,0,0,0,.08.13.41.41,0,0,0,.36.4c.36.05.63.1.73.49a4.09,4.09,0,0,0,.25.91.86.86,0,0,0,.07.1.51.51,0,0,0,.2.27c.44.27.81.45.91,1s.06,1,.15,1.44a.41.41,0,0,0,.3.34.59.59,0,0,0,.31.14c1.09.09,1.2-.77,1.2-1.67a8.28,8.28,0,0,1,.05-2.28c.22-.73.9-1.18,1.38-1.73a.49.49,0,0,0,.11-.26,6.51,6.51,0,0,0,1-2,8,8,0,0,1,.93-2.55.42.42,0,0,0,.07-.25c1.09-.76,2.37,1.6,3,2.21a.48.48,0,0,0,.36.13,1.78,1.78,0,0,0,1.1.22c.64-.06,1.22-.4,1.86-.44h0c.84.45,1.32,1.46,2.41,1.32a.54.54,0,0,0,.45-.38.38.38,0,0,0,.08-.45,7.85,7.85,0,0,1-.71-2.63,1.73,1.73,0,0,1,.35-1.38c.56-.51,1.38-.23,2,0a.34.34,0,0,0,.19,0,.44.44,0,0,0,.6-.2c.62-1.16.21-3.46,2-3.55a.43.43,0,0,0,.26-.09,7.79,7.79,0,0,1,2.85,1,1,1,0,0,0,.52.26.4.4,0,0,0,.24,0H55a2.47,2.47,0,0,0,1.43-.85A.42.42,0,0,0,56.85,7c-.16-1.41.9-2.14,2.22-1.86a14,14,0,0,0,2,.28.54.54,0,0,0,.29.11c2.33,0,4-2.33,6.29-2.36a.49.49,0,0,0,.25-.07l.1,0c1.41,0,.92,2.23,1.08,3.1a4.51,4.51,0,0,0,1.12,2.19.24.24,0,0,0,.08.06c.29.27.69.4.79.83a.3.3,0,0,0,0,.08.46.46,0,0,0,.6.37,2.79,2.79,0,0,1,1.85.43,8.35,8.35,0,0,0,1.46.49.51.51,0,0,0,.33,0,24.86,24.86,0,0,0,3.92.84c1.45.26,2.94-.06,4.37.24a.48.48,0,0,0,.24,0l.08.07a1.85,1.85,0,0,1,.73,2.39,3.24,3.24,0,0,1-1.94,1.28.46.46,0,0,0-.14.07.55.55,0,0,0-.46.64c.1.4.66.76,1,1a.41.41,0,0,0,.45,0,2.55,2.55,0,0,1,1.14,1.55c-.11,1,.66,5.15-.8,5.35a.48.48,0,0,0-.36,0c-.55.13-1,.54-1.52.69a12.86,12.86,0,0,0-1.42.15.43.43,0,0,0-.36.15c-.42.44-.62,1.13-1.33,1.05a2.81,2.81,0,0,0-1.16,0,.41.41,0,0,0-.29.07c-1,.64-1.89,1.43-2.92,2a12.89,12.89,0,0,1-2.3.93.49.49,0,0,0-.47.09l-.14.16h0a.46.46,0,0,0-.22.24,6.14,6.14,0,0,0-.74,6.17l0,.05a.53.53,0,0,0,.08.23,3.47,3.47,0,0,1,.77,1.5,2.4,2.4,0,0,1-.5,1.65.34.34,0,0,0-.07.15c-.49.17-1,.23-1.29.74a6.69,6.69,0,0,0-.61,2.07.46.46,0,0,0,0,.31,10.57,10.57,0,0,0,1.74,6.1.48.48,0,0,0,.24.21,12,12,0,0,0,5.59,5.48.43.43,0,0,0,.22.24c.33.17.64.35,1,.54h0c1.62,1.2,3.28,2.28,4.81,3.61a.48.48,0,0,0,.37.12c1.36,1.18,2.82,2.27,3.45,4a.42.42,0,0,0,0,.22,24,24,0,0,1,.74,3.34c.18,1.06.55,2.07.7,3.14a.44.44,0,0,0,.08.21,12.55,12.55,0,0,0,2.29,4.59.46.46,0,0,0,.26.18,57.45,57.45,0,0,0,5.56,6,.63.63,0,0,0,.18.12c1.14.84,2.27,1.71,3.37,2.6a6,6,0,0,0,2.79,1.56.55.55,0,0,0,.26,0,4.32,4.32,0,0,0,1.46.59.48.48,0,0,0,.55.06,6.7,6.7,0,0,1,3.15-.29c.55,0,1.1,0,1.65-.06a.39.39,0,0,0,.57.06.87.87,0,0,1,.29-.12l.26,0a.55.55,0,0,0,.22-.06,3.87,3.87,0,0,0,.43-.07,6.3,6.3,0,0,1,1.36-.27.46.46,0,0,0,.21,0l.14,0a3.67,3.67,0,0,1,1.79.34c.76.39,1,.7.88,1.56s-.29.92-.91,1.41c-.28.23-.57.45-.85.7-.81.72-1.9,1.56-1.54,2.74a.51.51,0,0,0,.21.28c.62,1.38,2.15,2,3.52,2.56,2,.88,4,1.91,6.11,2.64a.47.47,0,0,0,.16,0c2.07.61,4.26.86,6.23,1.77a53.52,53.52,0,0,1,5.22,3.39.44.44,0,0,0,.41,0,19.18,19.18,0,0,0,2.71,1.27,13,13,0,0,1,2.47,1.45.5.5,0,0,0,.1.17c1.11,1.16,2.61,1.78,3.77,2.88,1.68,1.6,2.55,3.88,1.29,6a.42.42,0,0,0-.06.32s0,0,0,0a2.75,2.75,0,0,1-.46,1.61,1.19,1.19,0,0,1-1.35.37.37.37,0,0,0-.32-.24,3.52,3.52,0,0,1-2.5-1.44,5,5,0,0,1-.61-2.17,3.07,3.07,0,0,0-.11-.36.4.4,0,0,0,0-.45,4.9,4.9,0,0,0-3.05-2.28c-1.63-.33-6.25-.27-6.52-2.55-.07-.57-.9-.62-1-.14l-.06,0a5.59,5.59,0,0,0-3.22,1.38,2.51,2.51,0,0,0-1.17,2.19,19.65,19.65,0,0,0-2,6s0,0,0,.06a18.48,18.48,0,0,0-.33,2.56.39.39,0,0,0-.18.52c1.21,3.1,7.1,1.94,7.87,4.79,0,1.21-.48,2.31-.31,3.52.12.87,1.6,4.15-.41,3.92a.38.38,0,0,0-.4.19,7.34,7.34,0,0,0-.94.14.48.48,0,0,0-.43-.29c-1.51-.06-2.84,1.32-3.46,2.6-.82,1.75-.31,3.91-.53,5.78,0,0,0,0,0,0-.7,1.5-2.35,2.17-3.36,3.43a7.1,7.1,0,0,0-1.22,3.83.45.45,0,0,0,0,.24c-.42,1.19-1.34,1.19-2.5,1.18a5.58,5.58,0,0,1-3-.46c-2-1.25-1-4.17.67-5.38a.53.53,0,0,0,.75-.27,18.31,18.31,0,0,0,.88-3.5.48.48,0,0,0-.07-.34.5.5,0,0,0,0-.33c-.19-.34-.58-.63-.69-1-.22-.69.45-1.06,1-1.19a14.57,14.57,0,0,0,2.55-.41.55.55,0,0,0,.24-.21.58.58,0,0,0,.19-.14c1.82-2.27-.94-3.89-1.78-5.87a16.36,16.36,0,0,0-3.3-8.74c-.38-.51-1.25,0-.86.5a15.57,15.57,0,0,1,3.16,8.19.43.43,0,0,0,0,.27s0,0,0,.05a.42.42,0,0,0,.1.2,7.61,7.61,0,0,0,1,1.77c.67.86,1.84,1.77.91,2.92a.67.67,0,0,0-.06.12c-1.2.45-2.67,0-3.68,1a1.75,1.75,0,0,0-.57,1.43c.06.7.56,1,.87,1.61a17.62,17.62,0,0,1-.68,2.78,5.26,5.26,0,0,0-2.3,2.63.49.49,0,0,0-.4.21,17.57,17.57,0,0,0-1.95,4c-.16.42-.34.83-.53,1.23a.49.49,0,0,0-.44.2,13.88,13.88,0,0,0-2.46,5.71,3.33,3.33,0,0,0,.13,2c.41,1,1.5,1.54,1.65,2.65a.53.53,0,0,0,.49.47,2.24,2.24,0,0,1,.46,2.48c-.35.63-1,1.06-1.37,1.69a4,4,0,0,0-.31,3.34.41.41,0,0,0,.07.11,1.89,1.89,0,0,1-1.47.22c-.45-.18-.74-.63-1.14-.89a1.13,1.13,0,0,0-1.54.22c-.84.1-1.23-.44-1.94-.8-.51-.26-1.2-.15-1.67-.45a.45.45,0,0,0-.35-.41c-.89-.26-1.23-1.72-1.72-2.4a2.62,2.62,0,0,0-2-1.19.49.49,0,0,0-.33.12,11,11,0,0,0-2.63-.31,7.62,7.62,0,0,1-5.69-2.36c-.44-.47-1.15.24-.7.71a8.3,8.3,0,0,0,3.8,2.36c2,.54,4.12-.11,5.93,1a.44.44,0,0,0,.56-.06,7.18,7.18,0,0,1,1,1.55,3.26,3.26,0,0,0,1.18,1.36.55.55,0,0,0,.08.15,1.78,1.78,0,0,0,1,.6,3.68,3.68,0,0,1,1.64.58,2.72,2.72,0,0,0,2.07.52.38.38,0,0,0,.29,0,.39.39,0,0,0,.25-.16c.47-.2,1.46.85,2,1a3.81,3.81,0,0,0,2.31-.58.45.45,0,0,0,0-.79.47.47,0,0,0,0-.29c-.76-2.45,1.43-3.16,2.06-5.13.47-1.44-.48-2-1.28-3.07a.74.74,0,0,0-.2-.16c-.5-1.26-1.77-2.17-1.63-3.68a7.56,7.56,0,0,1,.26-1.36.53.53,0,0,0,.3-.22,35.46,35.46,0,0,0,2.44-4.49c.46-1.1.86-2.21,1.38-3.26a3,3,0,0,0,1.32,2.42c1.34.91,3.4.82,4.94.7a2.47,2.47,0,0,0,2.44-2.29.45.45,0,0,0-.08-.4,6.05,6.05,0,0,1,2.53-4.35,6,6,0,0,0,2.08-2.59.41.41,0,0,0,0-.41c.09-1.11,0-2.15,0-3.26a4.79,4.79,0,0,1,.53-2,.44.44,0,0,0,.42-.13,5.31,5.31,0,0,1,3.56-1.53.51.51,0,0,0,.34-.15c1.28.09,2.11-.51,2-1.9a19.43,19.43,0,0,0-.67-2.57,8.91,8.91,0,0,1,.16-3.1.45.45,0,0,0,.13-.36,4.34,4.34,0,0,0-.09-.52v-.08a.48.48,0,0,0,0-.18,3.06,3.06,0,0,0-1.82-2.11c-1.62-.72-4.85-.66-5.88-2.35a.56.56,0,0,0,0-.23,13.88,13.88,0,0,1,.3-2.65s0,0,0-.06a.14.14,0,0,0,0-.07,17.81,17.81,0,0,1,2-5.71.54.54,0,0,0,.12-.31.57.57,0,0,0,0-.29c0-.78.73-1.26,1.32-1.62a3.9,3.9,0,0,1,2.08-.83.51.51,0,0,0,.22,0,2.51,2.51,0,0,0,2,1.75,35,35,0,0,0,3.53.7,10.87,10.87,0,0,1,2.14.51.49.49,0,0,0,.22.48c.84.58,1.51,1,1.73,2.07a5.22,5.22,0,0,0,.59,1.84,4.37,4.37,0,0,0,3,2,.49.49,0,0,0,.29.23,2.27,2.27,0,0,0,2.46-.44,3.5,3.5,0,0,0,.87-2.42A5.26,5.26,0,0,0,145.54,108.92ZM63.78,69.62a35,35,0,0,1,4.58,0s0,0,.09.06A53.3,53.3,0,0,1,78.19,71h0v0c.44,3.17.77,6.34,1,9.53a.16.16,0,0,0,0,.08h0a25.15,25.15,0,0,1-2.73.35c-.38,0-.76,0-1.14,0s-.8.14-1.18.13h-.21a.08.08,0,0,0-.09,0c-.72,0-1.45.07-2.18,0s-1.45-.08-2.18,0-1.54.17-2.31.18a11.12,11.12,0,0,0-2.16,0c-.23-.79-.44-1.57-.64-2.36a.05.05,0,0,0,0-.05c-.09-.47-.17-.93-.22-1.41A14.13,14.13,0,0,0,64,76.12c-.15-.7-1.21-.65-1.8-.6h0a21.32,21.32,0,0,1-.73-2.31,8.44,8.44,0,0,0-.49-2,.08.08,0,0,0-.08,0,2.1,2.1,0,0,0-1.42-.2l0,0c-.18-.33-.35-.66-.51-1C60.58,69.74,62.18,69.67,63.78,69.62ZM52.32,71.9c0-.16,0-.31,0-.46a.47.47,0,0,0,.13-.46c0-.08-.05-.16-.07-.24,0-.61.11-1.23.16-1.84a.1.1,0,0,0,.08-.1,3.31,3.31,0,0,1,1-2.72,8.57,8.57,0,0,1,2.48-1.8v0c.35.94.66,1.88.93,2.84a.1.1,0,0,0,.1.08h.35c.26,0,.43,0,.59.24a1.5,1.5,0,0,1,.13.82.09.09,0,0,0,0,.11A13,13,0,0,0,59.31,71a.12.12,0,0,0,.12.17,2,2,0,0,1,1.42.17,4.78,4.78,0,0,1,.26,1.07c.07.35.15.69.24,1A19.38,19.38,0,0,0,62,75.57l0,0a.1.1,0,0,0,.1.13,2.91,2.91,0,0,1,1.28.07c.54.21.41.91.45,1.38a14.33,14.33,0,0,0,.38,2.36s0,.06,0,.07c.16.64.34,1.28.52,1.92l-1.31-.09,0,0a.51.51,0,0,0-.62,0l-4.61-.32C57.19,81,56.13,81,55.05,81a21.65,21.65,0,0,1-3.41-.34c.11-1,.19-2,.22-2.94v0c-.09-1.37.32-2.73.21-4.1,0,0,0,0,0,0,0-.35-.13-.93.05-1.22A.7.7,0,0,0,52.32,71.9Z"/><path class="cls-4" d="M78,74a5.23,5.23,0,0,0-1-2.49,5.78,5.78,0,0,0-4.74-2.35,5.62,5.62,0,0,0-.7.05,6,6,0,0,0-3.88,2.35,5,5,0,0,0-.8,1.69A6,6,0,0,0,67,77.14a39.14,39.14,0,0,0,5,9.54.37.37,0,0,0,.25.15.32.32,0,0,0,.46-.23s0,0,0,0a.37.37,0,0,0,.2-.14,37.12,37.12,0,0,0,3.77-6.89C77.43,78,78.77,75.68,78,74Zm-2.71,1.8a2.6,2.6,0,0,1-1.59,1.8,3.71,3.71,0,0,1-2.23.16,3.19,3.19,0,0,1-1.79-1.4c-.62-1.36-.54-3.09.9-3.89a3.75,3.75,0,0,1,2.62-.22,3,3,0,0,1,2.12,1.71c0,.15.07.29.11.44A3.09,3.09,0,0,1,75.3,75.77Z"/><path d="M75.56,74.53a3.2,3.2,0,0,0-3.77-2.63h0c-1.81.14-2.74,1.64-2.5,3.46a3,3,0,0,0,3.57,2.4,3.72,3.72,0,0,0,2.3-1A3,3,0,0,0,75.56,74.53Zm-.88,2a3.64,3.64,0,0,1-1.92.79,2.63,2.63,0,0,1-3-1.79,2.41,2.41,0,0,1,2.41-3.23.17.17,0,0,0,.15,0,2.77,2.77,0,0,1,2.85,2.25A2.4,2.4,0,0,1,74.68,76.56Z"/><path d="M77.49,71.63a6.05,6.05,0,0,0-7.17-2.3,7,7,0,0,0-3.2,2.47,5.42,5.42,0,0,0-.58,4.47,20.12,20.12,0,0,0,2.33,5.56,25.74,25.74,0,0,0,3.14,5l.08,0a.72.72,0,0,0,.57.2c.59,0,.89-.71,1.14-1.15,1-1.69,1.84-3.43,2.7-5.18C77.88,77.92,79.37,74.58,77.49,71.63Zm-2.23,10.6c-.38.74-.76,1.48-1.16,2.22l-.6,1.09c-.09.16-.18.33-.28.48l-.1.16c-.14.35-.41.41-.8.16a.17.17,0,0,0-.24-.14A20.85,20.85,0,0,1,70,83c-.67-1.24-1.37-2.47-2-3.75a12.26,12.26,0,0,1-1.23-4.43,4.54,4.54,0,0,1,1.72-3.87,5.89,5.89,0,0,1,7.11-.62c2.48,1.65,2.78,4.77,1.83,7.39A42.83,42.83,0,0,1,75.26,82.23Z"/><path d="M108.76,142.5c-1.43.64-2.66,2.2-4.42,1.91-.86-.14-1.52-.67-2.44-.64a3.91,3.91,0,0,0-3.13,1.78,5.71,5.71,0,0,1-4.11,1.76c-1.21,0-2.21-.64-3.37-.83-1-.16-1.51.31-2.41.37-1.09.07-1.91-.79-2.92-1h-.11a.55.55,0,0,0-.29-.27c-1.37-.53-2.52-2-4.14-1.59-1.36.32-2.61,1.88-3.57,2.79h0c-.86.13-1.56-1.29-2.51-1.35a1.89,1.89,0,0,0-1.74,1.09,4.11,4.11,0,0,1-1.47,1.31,1.55,1.55,0,0,0-.67.78,3,3,0,0,0,.07,2.08,2.5,2.5,0,0,0,.14,2.95A6.23,6.23,0,0,0,73.05,155a3.21,3.21,0,0,0,1.72.45,1.54,1.54,0,0,0,1.14.63c.72.06,1.43-.41,2.14-.18a.47.47,0,0,0,.16,0c.6,1,1.82.92,2.69,1.75a6.76,6.76,0,0,0,2.88,2h0c.74.41,1.47.85,2.17,1.32.54.36,1-.51.51-.87s-1.31-.82-2-1.19a.39.39,0,0,0-.25-.17A5.31,5.31,0,0,1,81.61,157c-.63-.65-2.28-.8-2.59-1.6a.5.5,0,0,0-.52-.33.54.54,0,0,0-.18-.11,2.6,2.6,0,0,0-1.27,0c-.47.09-1.24.44-1.53-.12a.31.31,0,0,0-.07-.09l0-.05,0,0a.49.49,0,0,0-.29-.13,3.68,3.68,0,0,1-1.37-.22,4.15,4.15,0,0,1-.93-.79,1.88,1.88,0,0,1-.59-1.89.54.54,0,0,0,.43-.7.46.46,0,0,0-.15-.41,1.67,1.67,0,0,1,.16-1.73c.22-.21.66-.35.91-.55a9.4,9.4,0,0,0,.91-1.11c1-1.18,1.56,0,2.29.47a1.82,1.82,0,0,0,1.36.24.41.41,0,0,0,.24-.11.55.55,0,0,0,.19-.12c.84-.79,2.21-2.53,3.44-2.59s2.3,1.22,3.32,1.62l.08,0a.41.41,0,0,0,.33.25c1.14.21,1.41,1.15,2.62,1.15.56,0,1-.36,1.53-.42,1.6-.21,2.34.4,3.73.65a6.62,6.62,0,0,0,5.74-1.83.39.39,0,0,0,.18-.16h0l0,0a.45.45,0,0,0,.1-.14c1.84-2.45,4.11.08,6.37-.72a8.77,8.77,0,0,0,1.86-1.16c.87-.6,3.48-1.95,2.29.13-.31.56.55,1.07.87.51C112.53,142.18,111.65,141.2,108.76,142.5Z"/><path d="M113.72,121.29c-1-1.32-.74-2.94-1.42-4.39a3.26,3.26,0,0,0-2.71-2,.52.52,0,0,0-.6-.13,4.92,4.92,0,0,1-1.3.56c-.7.06-1-.49-1.37-1a5,5,0,0,0-1.5-1.58.48.48,0,0,0-.48,0c-.66.06-1.73.31-2.23-.24s0-1.53.52-2a.44.44,0,0,0,.13-.48.38.38,0,0,0,.07-.44,6.85,6.85,0,0,0-1.09-1.43,5,5,0,0,1-.7-2.29c-.06-.44-.52-.44-.78-.21a2.34,2.34,0,0,0-1.6.2,3.67,3.67,0,0,1-2,.35,6.8,6.8,0,0,1-.9-.17c-.34-.1-1.17-.17-.5-.55a.46.46,0,0,0,.14-.7c-.17-.75-.9-1-1.63-1.15a12.39,12.39,0,0,0-1.49-.07c-.77-.06-2.26-.84-1.68-1.89a.46.46,0,0,0,.05-.37.41.41,0,0,0,.14-.64c-1.2-1.56-2.6-4.27-4.75-4.65a2.56,2.56,0,0,0-1.14,0,4.32,4.32,0,0,1-2.53.07,3.72,3.72,0,0,0-2.19,0,.5.5,0,0,0,.26,1c1.27-.32,2.38.52,3.65.22,3-.69,4.22,1.67,5.75,3.7a.36.36,0,0,0-.1.11,2.08,2.08,0,0,0,.69,2.69,2.8,2.8,0,0,0,1.32.66c.4.07,2.49-.1,2.65.35-.76.64-.58,1.48.47,1.93a6.19,6.19,0,0,0,2.29.45,3.86,3.86,0,0,0,1.07-.11c.63-.18,1.28-.8,2-.44a5.69,5.69,0,0,0,.44,1.51c.3.64,1,1,1.26,1.64h0a2.49,2.49,0,0,0-.75,2.95c.66,1.2,2.1,1,3.25.92a.45.45,0,0,0,.11,0c.91.63,1.19,2,2.16,2.5.79.45,1.77-.08,2.55-.46a.51.51,0,0,0,.26.1c1.83.1,2.22,2,2.43,3.45a4.85,4.85,0,0,0,1,2.44C113.24,122.3,114.11,121.81,113.72,121.29Z"/></g></svg>