<svg xmlns="http://www.w3.org/2000/svg" viewBox="0 0 163 171"><defs><style>.cls-1{fill:#9eca73;}.cls-2{fill:#ccc;}.cls-3{fill:#92d2f3;}.cls-4{fill:#666;}.cls-5{fill:red;}</style></defs><title>Artboard 12</title><g id="Layer_11" data-name="Layer 11"><path class="cls-1" d="M152.85,23.41c-.39-1.91-1.6-3.57-2-5.51,0,0,0,0,0-.08a13.07,13.07,0,0,1,1.59-3.25c.68-1.1-1-2.1-1.73-1a18.36,18.36,0,0,0-1.5,2.85.91.91,0,0,0-.7.45,1.43,1.43,0,0,1-.15.18,5.27,5.27,0,0,1-1.12-.07,9.3,9.3,0,0,1-1.05.09l-.41,0a4.46,4.46,0,0,1-.67-.49.82.82,0,0,0-.42-.29l-.1,0-.05,0c-2-.3-3.58-.44-5.32-1.59a14,14,0,0,0-3.33-1.81l-.24-.26a20.15,20.15,0,0,0-4.32-3.71,9.53,9.53,0,0,0-1.18-2.23,9.87,9.87,0,0,0-3.24-3l-.46-.73a1,1,0,0,0-1.73,0,3.05,3.05,0,0,1-.54.69,1,1,0,0,0-.89.72c-.45,1.13.25,2.62.69,3.63A14.81,14.81,0,0,1,125,11.13a.9.9,0,0,0-.41.56,15.09,15.09,0,0,0-.41,3.21,7.24,7.24,0,0,1-1.25,4.49c-1.37,2.18-.38,4.14-.7,6.58-1,1.25-3.14.87-4.48.19-.91-.46-1.74-1.27-2.81-1a1,1,0,0,0-.7.7c-.38,1.56,1.15,2.81,1,4.26-.23.2-.44.41-.63.6a8.88,8.88,0,0,0-.71.79,1.36,1.36,0,0,0-1,.06,1.62,1.62,0,0,0-.8.77v0a2.23,2.23,0,0,0-.45-.06,1.55,1.55,0,0,0-1.41,1.43,11.33,11.33,0,0,0,.08,1.64,10.64,10.64,0,0,1-.09,1.69.77.77,0,0,0,.63.91c.75.58,2,.84,2.38,1.7s-.62,2.45-.77,3.34c-.2,1.21.3,3,1.73,2.7a.74.74,0,0,0,.58-.12,2.52,2.52,0,0,0,1-1.2,3.49,3.49,0,0,0,.12-.72c0-.28.15-.6.16-.88a.93.93,0,0,1,0-.13h0a1.34,1.34,0,0,0,.55-.23c.38-.27.43-.61.63-.95a3.2,3.2,0,0,1,1.11.39,4.06,4.06,0,0,0,1.78.37,1,1,0,0,0,.27-2c-1.07-.42-1.49-1.27-2.29-2a1,1,0,0,0-1.34-.18,7.9,7.9,0,0,1-2.06-1.35,1.72,1.72,0,0,1-.23-.32,8.42,8.42,0,0,1,1.08-3,2.82,2.82,0,0,1,1.54.28c.6.34,1.18.74,1.76,1.11a1.77,1.77,0,0,0,2.72,0,15.47,15.47,0,0,1,2.89-2.07,1,1,0,0,0,.55-.12c.67-.39,2.09.62,2.83.78.44.1.87.16,1.3.24a.89.89,0,0,0,.22.3A9.86,9.86,0,0,0,131,35.48a3.46,3.46,0,0,0,1.14.37,9.29,9.29,0,0,0,3.2,1.94,8,8,0,0,0,1.37.43,3.42,3.42,0,0,0,.6.51,1,1,0,0,0,1.46-.6,5.3,5.3,0,0,0,.11-2.06,6.22,6.22,0,0,1,1.33-3.27,21.25,21.25,0,0,1,3.51-4.27,1.14,1.14,0,0,0,.3-.09c.8-.37,1.54-1.11,2.42-1,.56.07,1,.54,1.57.55,1.21,0,2.65-1.2,3.53-1.91S153.11,24.68,152.85,23.41Z"/><path class="cls-1" d="M101.9,81.06c.13-.2.25-.39.35-.56.68-1.1-1-2.11-1.72-1a17.07,17.07,0,0,0-.88,1.63c-.27.57-.55,1.17-.08,1.73a1.31,1.31,0,0,0,.38.33,1,1,0,0,0,2,.15l.41-1.19A.87.87,0,0,0,101.9,81.06Z"/><path class="cls-1" d="M69.75,124.84a1,1,0,0,1-.41-.67,6.06,6.06,0,0,0-.24-.86.92.92,0,0,0-.86-.78,2.09,2.09,0,0,0-.44-.16c-.4-.09-.56,0-.82-.24a3.34,3.34,0,0,0-.83-.76c-.41-.21-.89-.17-1.3-.37a1,1,0,0,0-1.11.15,3.82,3.82,0,0,0-2.13,1.12,8.21,8.21,0,0,0-1.44,2.86,5.75,5.75,0,0,0-1.54-.09,5.94,5.94,0,0,1-2.41.13,2.55,2.55,0,0,0-.58-.7,1.34,1.34,0,0,0-1.75.24,3,3,0,0,0-1.06,1.43c-.1.34,0,.7-.21,1a3.88,3.88,0,0,1-.72.74l-.2.06c-1.19.66-1.94,1.47-1.78,2.89a2,2,0,0,0,.8,1.5l.26.16a2.9,2.9,0,0,0-.3,2.54,1.63,1.63,0,0,0,.92.92,1.31,1.31,0,0,0,.34.09l-.1.12a1,1,0,0,0,.2,1.57,1.92,1.92,0,0,0,2.34-.31c.52-.54.58-1.32,1.12-1.84h0c.78-.59,1.92-1.32,1.9-2.32a1.23,1.23,0,0,0-.2-.6l-.09-.16a5.64,5.64,0,0,1,.31-.53,8.49,8.49,0,0,0,.84-.75,2,2,0,0,1,1.67-.71,1,1,0,0,0,.45-.12,5.46,5.46,0,0,1,2.24,0,2.56,2.56,0,0,1,1.64,1.55.9.9,0,0,0,1.41.56,1,1,0,0,0,.61-1.7.41.41,0,0,0,0-.1c0-.11,0-.23,0-.34s0-.46,0-.68l0,0c.11.17.82-.14,1-.29.37-.26.49-.67.83-.94a7,7,0,0,0,.75-.64,1.09,1.09,0,0,0,.92-.63A1.65,1.65,0,0,0,69.75,124.84Z"/><path class="cls-1" d="M129.53,62c-.2-1.23-.79-2.3-1.1-3.51a6.16,6.16,0,0,0-2-3.54,1.16,1.16,0,0,0-.35-.21,9.16,9.16,0,0,1-1.59-3.57.91.91,0,0,0-.18-.41l.51-4.24c.07-.55-.51-1-1-1a8.65,8.65,0,0,1-2.93-.6.78.78,0,0,0-.9.18,1,1,0,0,0-.52.41c-.4.61-1,1.47-.72,2.22a1,1,0,0,0,1.23.7l1.88-.79a2.4,2.4,0,0,0,.46-.27l.39.06-.51,4.25c-.67-.41-1.07-1.4-2-1.45a1.63,1.63,0,0,0-1.46.92,14.45,14.45,0,0,1-.15-1.44,3.94,3.94,0,0,0-.25-1.44A2.13,2.13,0,0,0,116,47.23c-1.19.34-1,1.62-1,2.58l.05,2.62c-1.06.32-2.2.13-3,1.21a2.42,2.42,0,0,0-.07,2.61c.56,1.18,1,.84.64,2.43a7.88,7.88,0,0,0-.37,2.15,6.73,6.73,0,0,0,1.56,3c-.49,2.7-2.12,5-2.16,7.84a.94.94,0,0,0,.08.43,21.43,21.43,0,0,1-1.24,3.64c-.73,1.64-1.21,3.41-1.94,5.05a1.18,1.18,0,0,0-.24.17c-.82.88-1.92,1.55-2.65,2.49a10,10,0,0,0-1.39,3.11,7.22,7.22,0,0,0-1.71,1.52,15.37,15.37,0,0,1-2.25,2.83.93.93,0,0,0-.44,0c-1.71.37-2.87,1.85-4.63,2.26-1.59.37-2.67.87-3.31,2.37a5.34,5.34,0,0,0-1.62-.65c-1.32-.24-.48-.47-.57-1.51-.07-.83-1.08-1.57-.47-2.37.34-.45,2.6-1.12,1.61-1.65,1.14.61,2.15-1.11,1-1.72-1.36-.74-2.2.73-3.25,1.41-1.2.78-2.23,1.71-1.59,3.26.12.28.39.55.48.84.15.48.12.66.06.8-1.22,1-1.65,2.66-2.42,4s-2,2.15-2.54,3.46A4.22,4.22,0,0,0,81,103.66a2.53,2.53,0,0,0,.31,1.47c.19.45.66,1,.61,1.48-.09.94.15,0-.43.27a3.08,3.08,0,0,0-1.69,1.55,1,1,0,0,0-.94-.05,3.68,3.68,0,0,1-.67.21h0a1.36,1.36,0,0,0-.52.09c-.69,0-1.36-.09-2.11-.08-.2,0-.75.17-.92.06s.44-.55.7-.76c.85-.66-.09-1.86-1-1.67A5.93,5.93,0,0,0,72,107.43a8.37,8.37,0,0,0-3.27-.05,5,5,0,0,0-2.09.67,26.76,26.76,0,0,0-6.49.67,21,21,0,0,1-2.59.46,1,1,0,0,0-.5,0v.09h0v-.16a1,1,0,0,0-1.27-1,3.76,3.76,0,0,0-2.4,1.69c-.32.4-.66.77-1,1.13a.81.81,0,0,0-.8.32c-.38.48-.77.93-1.16,1.37l-.26.19a1,1,0,0,0-.38.5,12.89,12.89,0,0,1-2.32,1.88,18.53,18.53,0,0,0-3.93,2.87l0,.06a1.79,1.79,0,0,0-.14.13,5.42,5.42,0,0,1-3.46,1.41,1.25,1.25,0,0,0-.23.07,1.27,1.27,0,0,0-.34-.2c-1.2-.48-1.89,1.17-2,2.06a4.17,4.17,0,0,0,0,.71,1,1,0,0,0-.38.71,8.54,8.54,0,0,1-.18,1,1,1,0,0,0-.69.63,11.22,11.22,0,0,0-2.19.18,2.57,2.57,0,0,0-1.34,1.37,6.67,6.67,0,0,1-.34,1c-.4.58-.87.48-1.47.66a3.17,3.17,0,0,0-1.77,1.24,9.1,9.1,0,0,0-1.17,1.69,2.14,2.14,0,0,1-.21-.25.92.92,0,0,0-.95-.91,1.08,1.08,0,0,0-1.09,1c0,.66.65,1.28,1.07,1.72a3.85,3.85,0,0,1,1.14,1.68,2.11,2.11,0,0,0,.95,1.54c.19.7,1,1.18,1.61.48a2.21,2.21,0,0,0,.42-2.28,2,2,0,0,0-.24-.53l-.05-.08h0a5,5,0,0,0,1.15-.53l.06,0a1.86,1.86,0,0,1,1,.47c.33.42.12.89.12,1.36a1.73,1.73,0,0,0,.56,1.3,8.11,8.11,0,0,0,.89.54,1,1,0,0,1,.13.4c0,.14-.13.15-.21.33a1.46,1.46,0,0,0-.23,1.2,6.05,6.05,0,0,1,0,2.47c-.51.76-1,1.53-1.42,2.34a3.76,3.76,0,0,1-1.12,1.16,2.41,2.41,0,0,0-.67.68l0,0c0,.06-.06.12-.09.17a3.87,3.87,0,0,0-.21,2.75,10.21,10.21,0,0,1,.55,1.92.64.64,0,0,1-.27,1,.76.76,0,0,0-.28.25,1.67,1.67,0,0,0-.2,1.88,1,1,0,0,0,.87.5,5.89,5.89,0,0,0,1.51-.12,1,1,0,0,0,.74-1,5.31,5.31,0,0,0-.36-1.65v0a1,1,0,0,0,.29-.9,1.26,1.26,0,0,1,1.27-1.4,1.29,1.29,0,0,1,.48,0,.16.16,0,0,0,.1,0,.2.2,0,0,0,0,.09,5.31,5.31,0,0,1-.27,1.23,1,1,0,0,0,0,.25,1.16,1.16,0,0,0-.34.66,1.63,1.63,0,0,0,.39,1.23c.26.33.49.32.32.72a4,4,0,0,1-1,1.15c-.93.89.49,2.3,1.42,1.41a12.87,12.87,0,0,0,1-1,1.21,1.21,0,0,0,.19-.2c.08-.12.15-.25.22-.38l0,0c0-.09.1-.19.14-.28A1.8,1.8,0,0,0,37,153a3.67,3.67,0,0,0,.28-1.59s0,0,0-.07h.44a4,4,0,0,0,1-.11c.89.84,2-.06,2.14-1.2.11-.66-.12-1.37.25-1.92a6.43,6.43,0,0,0,.77-1.88.94.94,0,0,0,0-.58c.12-.9.4-1.79.51-2.69.06-.46.11-.93.18-1.4a.92.92,0,0,0,.61-.62c.49-1.45,1.74-2,2.55-3.26s.32-2.49-.06-3.93c0-.06-.05-.09-.07-.14a2,2,0,0,0-.53-1.18,3.17,3.17,0,0,0-1.94-.44c-.12,0-1.22,0-1.26-.22s.91-.42,1-.44a3.47,3.47,0,0,0,1.7-1,1.58,1.58,0,1,0-2.17-2.29c-.3.24-.58.49-.87.74-.53,0-1-.49-1.46-.65-.66-.2-1.42-.09-1.77-.85s.07-1.57.24-2.3a11.15,11.15,0,0,0,.2-1.13h0a.76.76,0,0,0,.42,0,6.14,6.14,0,0,1,1,.82,1.05,1.05,0,0,0,1.64-.31,1,1,0,0,0,.72.14c1.57-.28,2.45.25,3.84.65a2.91,2.91,0,0,0,1.31.32c1-.19.84-.87,1.27-1.53,2.82-4.38,2-2.08,4.18-1.63.59.12,1.47-.4,1.93-.56a38.59,38.59,0,0,1,4.37-1.18,1,1,0,0,0,.4-.17c1.6-.44,3.37-.32,4.85-1.17A5.89,5.89,0,0,0,66,118a3.76,3.76,0,0,1,2-1.1.86.86,0,0,0,.48.29c1.63.39,3.49,1.14,5.17,1.14.74,0,1.4-.33,2.14-.36a3.34,3.34,0,0,1,.91.12,6.15,6.15,0,0,1-.34.84,7.25,7.25,0,0,1-2,2.41.92.92,0,0,0-.29.3,1.15,1.15,0,0,0-.81.83,1.36,1.36,0,0,0,.16,1c.16.28.31.37.29.7,0,.77-.22,1.28.25,2a4.35,4.35,0,0,0,.34.41.81.81,0,0,0,0,.22,1.39,1.39,0,0,0,1.29,1.08,2,2,0,0,0,.35,0,.45.45,0,0,1,.12,0c0,.13,0,.55,0,.67a2.23,2.23,0,0,0,2.2,2.2h0a1.82,1.82,0,0,0,2.62-1,8.8,8.8,0,0,1,1-2.28,18,18,0,0,0,1.5-2.08.93.93,0,0,0-.1-1.1c.73-1.14,2.54-1.61,3.68-2a1.06,1.06,0,0,0,.43-.31l0,0c.8,1,2.2-.41,1.41-1.41s-2.35-1.49-2.29-2.83c0-.8,1.07-3,2.14-3.28a2.55,2.55,0,0,0,1.76,2.29c.9.34,1.86.23,2.77.55a12.08,12.08,0,0,0,2.48.91,6,6,0,0,0,4.43-1,15,15,0,0,0,1.94-2.13c.37-.46.58-1.33.93-1.83a16.9,16.9,0,0,1,2.37-.06,3.25,3.25,0,0,1-.18.43,3.77,3.77,0,0,0-.46,1c-.15.88.24,1.84.17,2.76a1,1,0,0,0,1.51.87c1.58-1,1.38-2.64,1.59-4.24a1.18,1.18,0,0,0,0-.27,3.2,3.2,0,0,0,.07-.33,14.78,14.78,0,0,1,0-1.62c.14-.48,2.29-1.78,2.69-1.2a1,1,0,0,0,.75.44,1,1,0,0,0,1.94-.25,8.78,8.78,0,0,1,.42-2.81,4.71,4.71,0,0,0,.57-.38,6.59,6.59,0,0,0,.84-.83c.35.21.7.42,1.06.62-.22.29-.45.58-.68.86a1,1,0,0,0-1.07,1,6.55,6.55,0,0,1-.72,2.13,11.73,11.73,0,0,0-.18,2.29,1,1,0,0,0,1.83.77c.3-.53.81-1.34,1.44-1.49s1.06,0,1.58-.52a.9.9,0,0,0,.24-.91s0,0,0,0a8.89,8.89,0,0,1,1.38-4.41.86.86,0,0,0,.68-1.18c-.54-1.44-1.86-1.55-2.77-2.63s-.08-1.47.76-1.92a1,1,0,0,0,1.16-.67c0-.1,0-.2.08-.31a.83.83,0,0,0,.11-.45c.3-1.43.27-2.91.64-4.33a22.27,22.27,0,0,1,1.24-3,.89.89,0,0,0,.6-.64,12.59,12.59,0,0,0,.59-5.09,26.27,26.27,0,0,0-1.58-4.57,20.88,20.88,0,0,1,.08-2.85,3.41,3.41,0,0,1,.93-1.1c.9-.66,2-.49,3-.59a1,1,0,0,0,1-1.27,8.93,8.93,0,0,1,.34-4.25,1,1,0,0,0,1-.65A17.33,17.33,0,0,0,129.53,62ZM82.76,111.42a6.82,6.82,0,0,1-2,1.4,1.9,1.9,0,0,1-.35-.34l-.06-.07c1.17-.77,1.87-2,2.93-2.91C83.61,110,83.06,111,82.76,111.42Z"/><path class="cls-2" d="M107.47,68c-.16-.11-.54,0-.72-.06h-.31a.3.3,0,0,0,0-.1c0-.14,0-.28,0-.42a.17.17,0,0,0,.07-.14c0-.81.05-1.61.07-2.42v-.16c0-.06,0-.13,0-.19a.16.16,0,0,0-.1-.16.23.23,0,0,0-.07-.07c-.06-1.64-.13-3.28-.2-4.93a29.29,29.29,0,0,0-.21-4.28,15.13,15.13,0,0,0,0-2.61.36.36,0,0,0,.22-.34.08.08,0,0,0,0,0c.06-.35.11-1.1-.34-1.24-.12,0-.17,0-.28,0a1.43,1.43,0,0,0-.23,0,.37.37,0,0,0-.2.12.16.16,0,0,0-.15.17c0,.37,0,.73.07,1.09a.29.29,0,0,0,0,.09c0,.53,0,1.06.08,1.59,0,.29,0,.57,0,.86a26.27,26.27,0,0,0-.14,4.16c0,1.31-.09,2.62-.17,3.94,0,0,0,0,0,0v.17c0,.33,0,.66-.07,1-.33,0-.58.19-.54.5l-.06.1a5.32,5.32,0,0,0,.05,1.59c0,.53,0,1.05.09,1.57a1.77,1.77,0,0,0-.94.13c-.35.23-.18.66-.2,1a.16.16,0,0,0,.15.17.23.23,0,0,0,.13.07,11.52,11.52,0,0,0,4-.21.19.19,0,0,0,.14-.18C107.63,68.52,107.72,68.18,107.47,68Z"/><path class="cls-2" d="M109.45,98.21q-.39-3.33-.72-6.66-.58-5.94-1-11.89l0,0c.25-.52.51-1,.77-1.55a3.55,3.55,0,0,0,.5-1.06.54.54,0,0,0-.75-.62h0c0-.21,0-.43,0-.62a4.38,4.38,0,0,0-.06-1.09c-.07-.21-.28-.21-.47-.23a4.87,4.87,0,0,0-.73,0c0-.1,0-.21,0-.32a.2.2,0,0,0,0-.09l0-.31c-.06-1.11-.15-2.21-.29-3.31a.19.19,0,0,0-.34-.1.18.18,0,0,0-.34.08v0H106a.18.18,0,0,0-.23,0c0-.18-.33-.16-.36,0v.06s0,0-.06,0a.83.83,0,0,0-.07.13.16.16,0,0,0,0-.07l0-.49a.18.18,0,0,0-.35,0c0,.13-.05.26-.08.39a.2.2,0,0,0-.22-.06.18.18,0,0,0-.33,0l0,0a16.9,16.9,0,0,0-.29,3.75l-.29.2c-.16,0-.32,0-.48,0s-.23-.09-.27,0a.21.21,0,0,0,0,.24,10.66,10.66,0,0,0-.1,1.6h-.28v0a.17.17,0,0,0-.28.06.85.85,0,0,0-.34.11.2.2,0,0,0-.18.18.83.83,0,0,0-.06.65,5.58,5.58,0,0,0,.71,1.37,3.24,3.24,0,0,0,.9,1.22.14.14,0,0,0,.16,0c-.24,1.52-.4,3-.49,4.57-1,6.47-.87,13.08-2.2,19.51a1.11,1.11,0,0,0,1,1.38c1.73.11,3.27,0,3.37-2.09l0-.82c.12-.24.26-.47.4-.7a13.31,13.31,0,0,0,.73,2A2.15,2.15,0,0,0,108,105a1.15,1.15,0,0,0,1-.1l.18-.06a1,1,0,0,0,.49-.63,1,1,0,0,0,.33-.54C110.26,102,109.65,99.91,109.45,98.21Z"/><path class="cls-3" d="M107.48,68.85a24,24,0,0,1-3.88,0,.65.65,0,0,0-.63.5c.19.7.17,1.07.92,1.14a13.84,13.84,0,0,0,2.73,0l.21,0c.65.06.86-.72,1-1.25A.37.37,0,0,0,107.48,68.85Z"/><path class="cls-3" d="M108.18,77.65h-2a9.57,9.57,0,0,0-1.86,0c-.52,0-1-.12-1.49-.14a.63.63,0,0,0-.53.22.3.3,0,0,0-.1.18c-.19.24,0,.61.15.87a.36.36,0,0,0,.49.13s0,0,.06,0c1.24.13,2.46,0,3.7,0,.79,0,1.75.19,1.93-.8A.37.37,0,0,0,108.18,77.65Z"/><path class="cls-3" d="M108.08,74.9q-2.58.07-5.16.12a.19.19,0,0,0,0,.37l5.16-.13C108.31,75.25,108.32,74.89,108.08,74.9Z"/><path class="cls-3" d="M107.9,75.54l-2.4.1a11.54,11.54,0,0,1-2.56,0c-.22,0-.32.31-.09.35a9.83,9.83,0,0,0,2.3,0l2.75-.11A.18.18,0,1,0,107.9,75.54Z"/><path class="cls-3" d="M107.08,91a.91.91,0,0,0-.1-.29l.22-5a27.35,27.35,0,0,0,0-5.72.65.65,0,0,0-1.07-.37c-.35-.06-.7-.12-1-.16s-.84-.09-1.14.25a.77.77,0,0,0-.3,1c0,3.51,0,7,0,10.54a26.4,26.4,0,0,0,.16,6.15,37.12,37.12,0,0,1,0,6.75.56.56,0,0,0,.33.63.71.71,0,0,0,.71.66c2.74.07,2.07-2.05,2.13-4.25C107,97.77,107.5,94.32,107.08,91Z"/><path class="cls-4" d="M106.13,64.14a2.6,2.6,0,0,1-1.41,0c-.22-.07-.32.28-.09.35a3,3,0,0,0,1.59,0C106.45,64.44,106.35,64.09,106.13,64.14Z"/><path class="cls-4" d="M106.44,67.78a7,7,0,0,1-1.37,0,2,2,0,0,0-.93,0c-.22.08-.13.43.09.35a2.58,2.58,0,0,1,1.07,0,7.23,7.23,0,0,0,1.14,0C106.67,68.12,106.67,67.76,106.44,67.78Z"/><path class="cls-4" d="M107.66,69c-1.44,0-2.87,0-4.31,0a.19.19,0,0,0,0,.37h.7a7,7,0,0,1-.27,2.89c-.11.72-.19,1.44-.26,2.16a.18.18,0,0,0,0,.34.2.2,0,0,0,.26,0c.92,0,1.85,0,2.77,0a1.83,1.83,0,0,0,.25.06.18.18,0,0,0,.19-.08l.43,0c.23,0,.23-.37,0-.36h-.22L107,71.88a7.29,7.29,0,0,1,0-2.55h.69C107.89,69.34,107.89,69,107.66,69Zm-1,3.48c-.19-.15-.38-.3-.58-.44,0-.14,0-.27,0-.41l.49-.3a2,2,0,0,1,0,.25C106.63,71.85,106.66,72.15,106.68,72.45Zm-.57,0,.36.27-.36.26Zm.49-3.13a5,5,0,0,0,0,1.63.18.18,0,0,0-.14,0l-.32.2,0-1.8s0,0,0,0Zm-.83,5h-1v0l0-.17.38-.23a4.21,4.21,0,0,0,.58.39ZM104.55,73l-.07-.07c-.22-.25-.11-.23.08-.41,0,0,0,0,0,0Zm.69-3.68h.47a.07.07,0,0,0,0,0l0,2-.3.18c-.12-.08-.24-.16-.37-.23ZM105,72.26l.26-.15.19-.11.31.2c0,.34,0,.68,0,1-.17.11-.35.21-.52.3l-.34-.23Zm-.54-2.93h.44l-.16,1.81-.35-.19h0A3.71,3.71,0,0,0,104.44,69.33Zm-.15,2,.39.22-.05.52-.25.15-.25.14C104.18,72,104.23,71.66,104.29,71.32Zm-.09,1.86a3.55,3.55,0,0,1,.31.23l-.05.56a5.12,5.12,0,0,0-.55.4h0q.06-.65.15-1.29Zm2.42,1.13a2.62,2.62,0,0,1-.49-.19c0-.24,0-.48,0-.71.21-.13.41-.27.61-.42,0,.44.08.87.11,1.31Z"/><path class="cls-4" d="M108.31,76.16c-1.77-.2-3.55.09-5.32,0a.16.16,0,0,0-.13-.06h0a.18.18,0,0,0-.11.32.18.18,0,0,0,.14.09c1.82.17,3.64-.15,5.46,0C108.54,76.55,108.54,76.19,108.31,76.16Z"/><path class="cls-4" d="M108.88,76.9q-3.66-.08-7.31.21c-.24,0-.24.38,0,.36q3.65-.28,7.31-.21C109.11,77.27,109.11,76.9,108.88,76.9Z"/><path class="cls-4" d="M103.64,77.79c0-.23-.39-.13-.35.1l.18,1.26c0,.23.38.13.35-.1Z"/><path class="cls-4" d="M104.38,77.84l0,1.18a.18.18,0,1,0,.36,0l0-1.18A.18.18,0,0,0,104.38,77.84Z"/><path class="cls-4" d="M105.59,77.87a5.31,5.31,0,0,0-.16,1.12c0,.23.35.23.36,0a4.33,4.33,0,0,1,.15-1A.18.18,0,0,0,105.59,77.87Z"/><path class="cls-4" d="M107.24,77.65c0-.23-.38-.23-.36,0a2.4,2.4,0,0,1-.1,1c-.07.22.28.32.35.09A2.5,2.5,0,0,0,107.24,77.65Z"/><path class="cls-4" d="M109.62,103.9l-.49.31-.16-.09-.09-1.21.19-.1c.14.06.27.14.4.21s.39-.21.18-.32l-.19-.1.34-.18a.19.19,0,0,0-.19-.32l-.54.3-.24-.13c0-.42-.07-.85-.11-1.27l.39-.22.44.26c.19.13.37-.19.18-.31l-.25-.15.15-.09c.2-.11,0-.42-.18-.31l-.33.18-.47-.29-.06-.77v0l.24-.16.05,0c.16.1.31-.1.25-.24l.22-.15c.19-.14,0-.45-.18-.32l-.36.25h0a.18.18,0,0,0-.12-.22l-.14,0c0-.38,0-.75,0-1.12l.22-.09.52.3a.19.19,0,0,0,.19-.32l-.31-.17a.19.19,0,0,0-.06-.29.21.21,0,0,0-.17-.23l-.4,0c0-.39,0-.77,0-1.15l.24-.15,0,0c.21.07.3-.25.11-.34a.17.17,0,0,0-.16-.07l-.23-.09h0c.23,0,.23-.33,0-.36h0c0-.22,0-.44,0-.66V93.4l.17.1a.18.18,0,1,0,.18-.31l-.16-.09a.18.18,0,0,0,0-.14h0a.19.19,0,0,0,0-.29l-.19,0c0-.37,0-.75,0-1.12l.19-.11a.19.19,0,0,0,0-.31h.12c.23,0,.23-.35,0-.37h-.33c0-.37,0-.73,0-1.1l0,0a.2.2,0,0,0,0-.33l-.08,0a.19.19,0,0,0,0-.34c0-.28,0-.57,0-.86a.17.17,0,0,0,.09-.29l-.1-.09,0-.74v0c0-.28,0-.56,0-.83a.18.18,0,0,0,0-.29l-.21-4.07a.52.52,0,0,1-.13-.41l-.14-.11a.18.18,0,0,0-.15-.27h-.25l-.25-.19v0l.83-.48a.18.18,0,0,0-.18-.31l-.66.38v-.36l.41,0c.23,0,.23-.35,0-.36-.7,0-1.41-.07-2.11-.09h0L103,79.35a.18.18,0,0,0,0,.36l.83,0c0,.18,0,.36,0,.54l-.55-.34c-.2-.13-.38.19-.19.32l.41.24-.19.1a.13.13,0,0,0-.07.09h-.15c-.24,0-.23.35,0,.36l.76,0c0,.35,0,.69,0,1l-.26.17-.34-.15c0-.14,0-.28.06-.42s-.32-.33-.35-.1a11.36,11.36,0,0,0-.16,1.29.16.16,0,0,0,0,.16l0,.61a.15.15,0,0,0,0,.23l0,0c0,.23,0,.46,0,.7l-.17.15c-.15.13,0,.33.17.29h0c0,.16,0,.33,0,.5-.19,0-.33.23-.14.33l.14.08v.41l-.26.14a.18.18,0,0,0,.11.33.2.2,0,0,0,.08,0h.08c0,.26,0,.51,0,.77l-.21-.06a.18.18,0,0,0-.09.35l.31.09v.48a.47.47,0,0,0-.2.1.18.18,0,0,0-.22-.2h0a.2.2,0,0,0-.13.18v0a.17.17,0,0,0,.13.17l.11,0s0,0,0,.08l0,0c-.19-.14-.37.18-.19.32l.57.41c0,.27,0,.54,0,.81h-.44c-.19,0-.22.25-.1.34a.21.21,0,0,0,0,.13.15.15,0,0,0-.09.25,2.48,2.48,0,0,0,.55.52c0,.26,0,.52-.05.78a1.37,1.37,0,0,1-.2.13l-.26,0a.19.19,0,0,0-.16.25.19.19,0,0,0,.12.3l0,0,.41.3c0,.28,0,.56-.07.84a.17.17,0,0,0-.19.17v.1l0,0-.1,0a.15.15,0,0,0-.11.09l-.16.09h0c-.18,0-.32.23-.13.33l.52.26c0,.25,0,.49,0,.74h-.45a.19.19,0,0,0,0,.37.17.17,0,0,0-.06.32h0c-.21.11,0,.42.18.31l.25-.13.08,0,0,1.45-.14.08h-.14a.17.17,0,0,0-.17.19l-.33.2a.18.18,0,0,0,.18.31l.54-.32h0l0,1.15-.1.07-.27.15-.41-.18c-.21-.09-.31.26-.09.35l.11.06a1.1,1.1,0,0,0-.48.5.17.17,0,0,0,0,.18l.06.06a.18.18,0,0,0,.22,0l.06,0a.17.17,0,0,0,0-.3.78.78,0,0,0,.53-.23h0l.3.14c0,.41,0,.82,0,1.24l-.27.12c-.22-.1-.43-.2-.66-.28s-.32.27-.1.35l.34.14-.39.2a.18.18,0,0,0,.18.32c.21-.12.42-.23.64-.33l.24.13,0,1.48-.06,0a3.22,3.22,0,0,1-.79-.64c-.16-.17-.41.09-.26.26a4.1,4.1,0,0,0,.72.6c-.12.14,0,.39.22.27l.13-.07,0,0a.18.18,0,0,0,.21.09l.09,0c.22.08.32-.27.1-.35l0,0v0l.83-.53v.65a.19.19,0,0,0,.37,0c0-.29,0-.58,0-.88l.08,0c.2.11.4.2.61.29s.31-.27.1-.35l-.34-.15.61-.35A.18.18,0,0,0,105,103v0l.15-.08c.2-.11,0-.41-.17-.32v-.06a.19.19,0,0,0,0-.33l-.06,0,0-.76.48-.23c0,.12,0,.25,0,.37s.39.23.37,0,0-.37,0-.56h0l.48.28c0,.24,0,.48,0,.71-.26.16-.48.34-.46.55a.2.2,0,0,0,.09.15.18.18,0,0,0-.07.35,3.68,3.68,0,0,1,.47.15c0,.1,0,.21,0,.31a.18.18,0,0,0,.36,0v-.17l.41.19-.55.3c-.2.11,0,.42.18.31l.59-.32,0,1.08a.18.18,0,0,0,.36,0v-.3a.24.24,0,0,0,0-.08c0-.23,0-.46,0-.69l1,.56v.18l-.28.17c-.19.13,0,.45.19.32l.12-.08v0c0,.23.38.23.36,0l0-.26.13-.08.22.12c.21.11.39-.2.19-.31l-.06,0,.3-.2A.18.18,0,0,0,109.62,103.9Zm-4.89-24.14v.08l-.52.28c0-.12,0-.25,0-.38Zm-.49,3.45h.34v.41l-.35.16C104.23,83.59,104.24,83.4,104.24,83.21Zm0-.92.34-.19c0,.21,0,.42,0,.63l-.33-.17Zm0-.4c0-.27,0-.54,0-.81h.39c0,.2,0,.4,0,.6Zm0,2.28.37-.16c0,.27,0,.55,0,.83h-.22a2.12,2.12,0,0,1-.2-.12C104.23,84.53,104.23,84.35,104.23,84.17Zm.18,1,.25.14v.08l-.46.24c0-.15,0-.31,0-.47Zm.23-4.51-.37-.19.4-.22Zm-.45,5.39.49-.25c0,.27,0,.54,0,.81h-.12l-.42-.26C104.18,86.29,104.19,86.18,104.19,86.08Zm0,.92h.32l.24.15c0,.14,0,.27,0,.4l-.62.41C104.13,87.63,104.15,87.32,104.16,87Zm-.51-4.32.23.1v.09c-.18,0-.36,0-.54,0A2.44,2.44,0,0,1,103.65,82.68Zm-.51.6.74,0c0,.24,0,.48,0,.72l-.41.21a2.81,2.81,0,0,1-.34-.35C103.13,83.64,103.13,83.46,103.14,83.28Zm.29,1.31a4,4,0,0,0,.34.23h-.66A3.62,3.62,0,0,1,103.43,84.59Zm.42.59c0,.23,0,.45,0,.67l-.32.17-.42-.24v-.61Zm-.26,13.09v-.1l.42-.25.5.26v0Zm.92,1.45-.42-.28.42-.24ZM104,97.51l-.4-.19v-.77l.83,0,.11.06c0,.19,0,.38,0,.57Zm.52-1.3-.43-.23.47-.27c0,.17,0,.33,0,.5Zm0,5.32c0,.12,0,.24,0,.35l-.33-.21Zm-.83-5.75a.31.31,0,0,0-.1,0c0-.32,0-.64,0-1l.66-.07.27.16c0,.14,0,.28,0,.41Zm-.08-5.9-.52-.38c0-.19,0-.37,0-.56h.18l.39,0Zm-.08.38-.46.21c0-.18,0-.36,0-.53Zm-.43-2.07.36.14-.36.21h0Zm0-.38c0-.28,0-.56,0-.84l.69,0c0,.34,0,.69,0,1C103.54,88,103.34,87.88,103.12,87.81Zm0-1.19.37-.19.3.17v.06Zm.67,5.74.45.22h-.47C103.8,92.5,103.8,92.43,103.81,92.36ZM103,92a1.35,1.35,0,0,0,.26.15l-.28.17C103,92.17,103,92.06,103,92Zm-.57-.91.25-.06c0,.1,0,.2,0,.3A1.36,1.36,0,0,1,102.46,91Zm.18,4.59.61.31V96l-.25.14h-.37C102.63,96,102.64,95.81,102.64,95.63Zm0,1.17.47-.26h.15v.61l-.63-.29Zm.62,3.41-.44,0,.29-.18.15-.08Zm-.63-3,.62.3V98l-.65.37Zm.62,1.7a4.36,4.36,0,0,0-.6-.23l.05,0,.54,0C103.22,98.75,103.23,98.85,103.23,99Zm-.66.13a3.56,3.56,0,0,1,.66.25v.18c-.23.13-.45.28-.68.42C102.55,99.64,102.56,99.36,102.57,99.08Zm0,1.46.71,0c0,.17,0,.34,0,.51l-.72-.37Zm0,.57c.25.13.49.25.73.39v.19l-.75.32C102.51,101.71,102.52,101.41,102.52,101.11Zm0,1.29.76-.32v1l-.78-.44Zm0,1.66c0-.35,0-.7,0-1l.79.45v.08Zm.81-8.52-.49-.25,0-.38.48-.08C103.28,95.07,103.27,95.3,103.27,95.54Zm.06-1.46-.46.24c0-.18,0-.36,0-.55l.42.29Zm0-.44-.42-.29,0-.4h.43C103.38,93.18,103.37,93.41,103.36,93.64Zm.14-1.89a4.71,4.71,0,0,1-.45-.22c0-.22,0-.45,0-.67h.49C103.55,91.16,103.52,91.45,103.5,91.75Zm.09,7.38v-.5l.92-.07v.23l-.19.09-.58.34Zm0,.59a1,1,0,0,1,.17-.1c.25.15.5.32.74.49a.71.71,0,0,1,0,.14l-.92,0Zm0,.86.93,0c0,.17,0,.35,0,.53l-.68.29-.25-.15C103.61,101.06,103.61,100.82,103.6,100.58Zm.1,2.71-.07,0c0-.44,0-.88,0-1.32l.21-.09.76.49c0,.14,0,.29,0,.43Zm.9-9-.21,0c-.11-.08-.23-.15-.35-.22l.58-.33C104.62,93.94,104.61,94.12,104.6,94.3Zm0-1-.94.52.06-.93h.89Zm0-1c-.18-.1-.36-.2-.55-.29l.57-.33C104.68,91.91,104.68,92.12,104.67,92.32Zm0-1.18v.13l-.84.49c0-.3,0-.59.07-.89h.53l.25.17Zm0-.61h-.14l-.33-.23.48-.26C104.72,90.2,104.72,90.37,104.72,90.53Zm0-.89c-.24.13-.48.27-.74.4,0-.35.05-.7.07-1.06l.68,0C104.73,89.22,104.74,89.43,104.73,89.64Zm-.47-1.38.48-.31v.56Zm1.28-3.39-.54,0c0-.34,0-.67,0-1l.28-.13.21-.1.06,0Zm-.45-5.1h.21c0,.33.06.65.08,1H105C105,80.42,105.05,80.1,105.09,79.77ZM105,81.9l.48-.27.06,1.25-.55,0C104.94,82.54,104.94,82.22,105,81.9Zm0,13.59.36-.21,0,0,0,.94-.4,0C104.92,96,104.92,95.74,104.93,95.49Zm0,1.92.4-.23c0,.32,0,.65,0,1h0l-.39-.2C104.88,97.78,104.88,97.59,104.89,97.41Zm0,1.59.07,0,.34-.17c0,.49,0,1,0,1.48l-.46-.3Zm.36,1.82-.33.15c0-.11,0-.23,0-.34h.38l.09.06v0Zm.13-6-.08,0a3.37,3.37,0,0,1-.32-.19v0l.41,0C105.37,94.68,105.36,94.74,105.36,94.81Zm0-.57-.41,0c0-.24,0-.47,0-.71l.43-.24C105.41,93.62,105.4,93.93,105.38,94.24Zm.07-1.65h-.35l-.08,0c0-.35,0-.7,0-1.05l.16-.09.26.16Zm0-2-.42,0c0-.23,0-.46,0-.69l.42-.23C105.51,89.93,105.51,90.24,105.5,90.56Zm-.4-1.12v-.33l.28.17-.18.1Zm.43-.75h-.12l-.31,0v-.94l.09-.06.2-.12.15.1C105.53,88,105.53,88.34,105.53,88.69Zm0-1.64-.14.08-.27-.16.41,0Zm-.46-.42c0-.33,0-.66,0-1l.07,0,.43.28v.72Zm3.19,13.2-.3-.18.27-.16Zm-.19-11h-.14l-.42-.3.54-.31C108.07,88.42,108.07,88.62,108.08,88.82ZM108,87.28l-.34-.29L108,87A1.93,1.93,0,0,1,108,87.28Zm-.11-2.43-.51-.39.48-.24Zm-.07-1.41c0,.13,0,.27,0,.4l-.07,0-.53.26c0-.25,0-.5,0-.74Zm0-.64a2.5,2.5,0,0,1-.41-.25l.38-.22Zm-.49-1.6.46.34a.16.16,0,0,0,0,.11l0,.3a.2.2,0,0,0-.1,0l-.44.27,0-1Zm-.74,18.87c0-.26,0-.53,0-.79l.63.35v.08C107,99.84,106.79,100,106.58,100.07Zm.63.06v.23l-.37,0Zm-.62.55.63,0,0,.69-.64-.38C106.6,100.91,106.59,100.8,106.59,100.68Zm.59-2.14,0,.67-.64-.35V98.5C106.77,98.5,107,98.52,107.18,98.54Zm0-.37c-.19,0-.39,0-.58,0l.35-.16.23.13Zm0-.69-.2.1-.41-.24c0-.22,0-.44,0-.67l.61,0Zm-1-15.5c0,.29,0,.57,0,.85l-.13.08h-.19c0-.39,0-.78,0-1.17Zm.38.31.25.22a1.71,1.71,0,0,0-.23.13C106.52,82.52,106.51,82.41,106.51,82.29Zm-.29,8.12-.29.16h-.07c0-.32,0-.64,0-1l.35.24C106.22,90,106.22,90.22,106.22,90.41ZM106,92.6h-.14l0-.81.36.23c0,.15,0,.29,0,.44Zm.24.36c0,.12,0,.23,0,.35l-.34-.23.21-.12Zm-.34-1.59V91l.17-.09h.19c0,.22,0,.44,0,.66Zm.39-2.64-.35,0c0-.27,0-.55,0-.83l.34.22Zm-.34-1.28v-.18l.35-.2v.6Zm.35-.87h-.34v-.47l.33.24Zm-.31-.88,0,0v-.44h.33c0,.22,0,.44,0,.67Zm.28-1.06-.32.16c0-.31,0-.62,0-.93l.33.22C106.22,84.27,106.22,84.46,106.22,84.64Zm-.35-1.2v0l.25-.13h.07c0,.12,0,.25,0,.38Zm.31,10.3v.48h-.43l0-.76Zm0,1v.63c-.15-.09-.3-.18-.46-.26V95Zm0,1.05v.45l-.08.05-.43,0,0-.76Zm0,.87v.47l-.41-.23Zm.95-1-.19.11c-.14-.07-.27-.15-.4-.23,0-.33,0-.66,0-1h.56Zm0-2-.14.09-.41-.27c0-.2,0-.4,0-.6h.52Zm0-1.79-.14.09-.35-.22v-.13c0-.24,0-.49,0-.73l.46,0Zm0-1.33-.41,0,.37-.2,0,0Zm0-.66-.42-.3c0-.18,0-.36,0-.55l.4,0C107,89.41,107,89.68,107,90Zm0-1.81-.37-.24v-1H107Zm0-1.86-.1,0-.23-.17c0-.3,0-.61,0-.91h.32C106.93,85.61,106.93,86,106.94,86.29Zm0-1.38h-.32v0l.32-.16Zm0-.81-.33-.21c0-.19,0-.39,0-.58l.33,0C106.89,83.59,106.89,83.85,106.9,84.1Zm0-2-.38-.32,0-.63h.39Zm0-1.74-.46-.4a.91.91,0,0,1,0-.17l.46,0Zm-1.13-.59a.18.18,0,0,0,0,.15l.27.23c0,.21,0,.41,0,.62h-.32c0-.33,0-.66-.08-1Zm0,17.45.53.31c0,.13,0,.26,0,.39l-.42.19h-.12Zm0,3.06c0-.51,0-1,0-1.53l.55.31c0,.4,0,.8,0,1.2l0,0h-.48Zm.92,1.16.29.16-.29.14Zm-.61,1.22a.15.15,0,0,0,.15-.18s0-.06.11-.11c0,.12,0,.25,0,.38C106.18,102.74,106.09,102.7,106,102.68Zm.64.22c0-.25,0-.5,0-.75l.61-.34h0l0,1.36C107.06,103.08,106.85,103,106.64,102.9Zm.66-16.78c0-.28,0-.56,0-.84l.65,0h0c0,.16,0,.32,0,.48Zm0,.39.67-.33c0,.16,0,.33,0,.49a5.4,5.4,0,0,0-.69-.08Zm0,.66c.25.2.49.4.72.61v0l-.06,0-.64.36Zm0,2,.46,0a2.83,2.83,0,0,0,.28.2v0l-.73.39Zm0,1c.24-.13.48-.26.73-.38,0,.29,0,.58,0,.87h-.19l-.56-.43Zm0,.81.41,0,.33.26h0l-.73.44Zm0,1.16.72-.44c0,.29,0,.58,0,.86l-.31,0-.42-.25Zm0,.76h.22l.38.22-.58.38Zm0,1,.7-.46v.18c0,.21,0,.42,0,.63l-.5,0-.18-.1Zm0,1.54c0-.29,0-.58,0-.88h.08a6.36,6.36,0,0,0,.58.3v.2Zm0,.42.64-.37c0,.3,0,.6,0,.91h-.05l-.57-.32Zm0,.84.45,0,.16.09a1.28,1.28,0,0,1,0,.19l-.61.26Zm0,1,.61-.26c0,.28,0,.56,0,.84l-.63-.38Zm0,.87c.19,0,.39.06.58.11l.06,0c0,.12,0,.24,0,.36l-.59.37-.06,0C107.56,99.14,107.55,98.86,107.55,98.58Zm0,1.33.06,0c.23.13.45.28.67.41l0,.29a5.06,5.06,0,0,0-.75-.17Zm0,.86a3.39,3.39,0,0,1,.55.13l-.54.31Zm0,.84h0l.24-.13.53-.29c0,.29,0,.59.07.88C108.16,101.92,107.88,101.77,107.61,101.61Zm0,1.56,0-1.14.87.46,0,.22Zm.2.3.69-.37.06.8Z"/><path d="M119.25,49.88h0c-.47-1.54-1.1-3.92-3.08-3.52s-1.87,3.68-1.8,5.46a.47.47,0,0,0-.29,0,3.17,3.17,0,0,0-2.76,1.82c-.42,1.21.41,2.11.62,3.25.24,1.39-.51,2.52-.41,3.85a6.64,6.64,0,0,0,.45,1.58,6.12,6.12,0,0,1,.52,3.46,30.52,30.52,0,0,1-1.07,3.45.6.6,0,0,0,0,.23.48.48,0,0,0-.17.33,32.46,32.46,0,0,1-1.69,7.35.16.16,0,0,0-.13-.18l0-.43a.38.38,0,0,0-.15-.34,1,1,0,0,0-.42-.05h-.3c0-.27,0-.53-.07-.8a4,4,0,0,0-.09-.78c-.11-.34-.56-.29-.88-.29L107.22,71a.43.43,0,0,0,.22.09.3.3,0,0,0,.25-.17,2.77,2.77,0,0,0,.22-.63,9.1,9.1,0,0,1,.37-.85.18.18,0,0,0,0-.22l-.28-.32.06-.59c0-.14.07-.33,0-.44s-.32-.09-.46-.11l-.55-.1a27.29,27.29,0,0,0,0-2.86c0-.55,0-.71-.51-.76a47.73,47.73,0,0,0-.1-5.48c0-2,0-4,0-5.94.29-.17.19-.76.2-1s.19-1-.18-1.09a1.71,1.71,0,0,0-.78,0c-.17,0-.46,0-.59.16s-.09.44-.09.61c0,.38,0,.75,0,1.12a.18.18,0,0,0,.19.18c-.48,3.79-.49,7.63-.62,11.45,0,0,0,0,0,0-.72.11-.64.29-.62,1.07,0,.5,0,1,0,1.5,0,.32.1.73.1,1.06-.36,0-.92-.07-1.1.18s0,.4,0,.57a1,1,0,0,1-.08.52s-.09.08-.1.15a3.24,3.24,0,0,0,.38,1.37c.18.42.32.48.68.37a26.76,26.76,0,0,0-.18,3.35c-.32,0-.83-.07-.94.23a2.25,2.25,0,0,0,0,.73c0,.26,0,.52,0,.78h0c-.25.19-.61,0-.89.13s-.28.48-.44.76c0,0,0,0,0,0a.17.17,0,0,0-.12.21,6.84,6.84,0,0,0,1,1.86c.12.2.38.88.7.94v0q-.66,7-1.31,14a.11.11,0,0,0,0,.08,102.93,102.93,0,0,0-.74,10.82.2.2,0,0,0,0,.09.18.18,0,0,0,0,.2l0,0a.19.19,0,0,0,.26,0h0a3.26,3.26,0,0,1,.62,0l.84,0c.52,0,1,0,1.56,0a.15.15,0,0,0,.13-.06.19.19,0,0,0,.07-.08,24.72,24.72,0,0,1,1.21-2.55,9.62,9.62,0,0,0,.93,2.59.19.19,0,0,0,.31,0,28.86,28.86,0,0,1,2.94.08h0a.18.18,0,0,0,.3-.13,66.11,66.11,0,0,0-.63-8.19s0,0,0,0q-.21-3.45-.72-6.87a.14.14,0,0,0-.1-.12c-.07-1.38-.08-2.76-.12-4.14,0-.92-.07-1.83-.16-2.74,0-.42-.13-.85-.2-1.29a.44.44,0,0,0,.64-.19,33.71,33.71,0,0,0,3.44-11.61s0,0,0-.07a.45.45,0,0,0,.16-.23c.74-2.38,2-4.58.9-6.92a5.32,5.32,0,0,1-.45-3.7,8.82,8.82,0,0,0,.21-1.38c-.07-1.69-2-4.14,1.29-4.7a.51.51,0,0,0,.22-.11.5.5,0,0,0,.81-.38c0-.68,0-1.36,0-2s-.06-2,.5-2.47c.84-.71,1.59,0,2,.8a18.1,18.1,0,0,1,.64,2.21.52.52,0,0,0,.94.09A.5.5,0,0,0,119.25,49.88ZM108.39,91.42a.18.18,0,0,0,.21.17c.19,1.49.33,3,.43,4.47a.17.17,0,0,0-.06.18,51.72,51.72,0,0,1,.71,8.45,29.77,29.77,0,0,0-3-.08,14.94,14.94,0,0,1-.93-2.76.18.18,0,0,0-.33,0,23.84,23.84,0,0,0-1.39,2.88c-.61,0-1.22,0-1.83,0a6.54,6.54,0,0,0-1.07,0q.09-5,.66-10a.3.3,0,0,0,0-.1q.69-7.4,1.39-14.8a.15.15,0,0,0-.13-.17.17.17,0,0,0-.22-.2,6.89,6.89,0,0,0-.65-1.19,6.7,6.7,0,0,1-.69-1.26.23.23,0,0,0,.07-.07,1.2,1.2,0,0,0,.13-.36c.06-.2.12-.27.34-.28a1.14,1.14,0,0,0,.73-.11l0,0a.18.18,0,0,0,.19-.18,12.12,12.12,0,0,1-.08-1.48,3,3,0,0,1,.73,0,.17.17,0,0,0,.16-.13.15.15,0,0,0,.06-.13,28.24,28.24,0,0,1,.22-3.79c0-.2-.25-.22-.34-.07h0c-.23.08-.21.12-.33,0a2.24,2.24,0,0,1-.21-.6,1.29,1.29,0,0,1-.12-.54c0-.19.07-.14.11-.31s0-.41,0-.63.08-.23.35-.28.41,0,.61,0a.18.18,0,0,0,.16-.11.29.29,0,0,0,0-.1c.08-.67-.63-3.33.3-3.46.14,0,.16-.14.11-.24a.15.15,0,0,0,.07-.14c.13-3.85.15-7.73.64-11.57a.15.15,0,0,0-.21-.16v-.88c0-.17,0-.38.1-.51s.43-.06.57-.07h.2c.09-.08.11-.06.07.09a1.43,1.43,0,0,1,0,.46c0,.06,0,.64,0,.84a.16.16,0,0,0-.18.17v.07h0c0,1.91,0,3.82,0,5.73s.37,4,.08,6a.19.19,0,0,0,.29.19c.52.18.29,2.89.27,3.31a.17.17,0,0,0,.1.16.15.15,0,0,0,.13.14l.47.08c.11,0,.26,0,.38,0l0,.3c0,.13,0,.25,0,.38a.17.17,0,0,0,0,.23l.28.33a6.82,6.82,0,0,0-.37.88c-.05.13-.09.4-.2.4s-.2-.09-.29-.1H107a.16.16,0,0,0-.13.17c.08,1.18.17,2.36.26,3.54a.09.09,0,0,0,0,0,.16.16,0,0,0,.09.27l.45.05c.06,0,.22,0,.27,0s.1.24.11.34c0,.38.07.77.11,1.15,0,0,0,0,0,0a.18.18,0,0,0,.13.3H109s0,0,0,0,0,.12,0,.15l0,.35a.16.16,0,0,0,.09.14c-.34.84-1,1.6-1.37,2.41a.18.18,0,0,0,0,.19,5.22,5.22,0,0,0,.07,2.15,29.08,29.08,0,0,1,.28,3.37C108.2,87.3,108.17,89.36,108.39,91.42Zm-.34-10.84a2.48,2.48,0,0,1,.12-.9.14.14,0,0,0,0-.11c.41-.77,1-1.48,1.3-2.28A33.9,33.9,0,0,1,108.05,80.58Z"/><path class="cls-5" d="M116.63,94.08a5.13,5.13,0,0,0-1-2.49,5.75,5.75,0,0,0-4.74-2.35,4.2,4.2,0,0,0-.7.05,6,6,0,0,0-3.88,2.35,5.18,5.18,0,0,0-.8,1.69,6,6,0,0,0,.15,3.91,38.78,38.78,0,0,0,5,9.54.35.35,0,0,0,.25.16.32.32,0,0,0,.46-.23s0,0,0,0a.39.39,0,0,0,.2-.14,37.44,37.44,0,0,0,3.77-6.89C116.06,98.11,117.4,95.79,116.63,94.08Zm-2.71,1.8a2.59,2.59,0,0,1-1.59,1.8,3.71,3.71,0,0,1-2.23.16,3.19,3.19,0,0,1-1.79-1.4c-.61-1.36-.53-3.09.9-3.89a3.75,3.75,0,0,1,2.62-.23A3,3,0,0,1,114,94a3.6,3.6,0,0,0,.12.44A3.27,3.27,0,0,1,113.92,95.88Z"/><path d="M114.19,94.64A3.22,3.22,0,0,0,110.41,92h0c-1.82.14-2.75,1.63-2.51,3.46a3,3,0,0,0,3.57,2.4,3.68,3.68,0,0,0,2.3-1.06A2.94,2.94,0,0,0,114.19,94.64Zm-.89,2a3.63,3.63,0,0,1-1.92.78,2.62,2.62,0,0,1-3-1.78,2.41,2.41,0,0,1,2.41-3.23.21.21,0,0,0,.15,0,2.79,2.79,0,0,1,2.86,2.25A2.46,2.46,0,0,1,113.3,96.67Z"/><path d="M116.12,91.74a6.06,6.06,0,0,0-7.17-2.3,7,7,0,0,0-3.21,2.46,5.45,5.45,0,0,0-.58,4.48,20.56,20.56,0,0,0,2.33,5.56,26,26,0,0,0,3.14,4.94l.08.06a.73.73,0,0,0,.57.2c.59,0,.89-.72,1.14-1.15,1-1.7,1.84-3.43,2.7-5.18C116.5,98,118,94.69,116.12,91.74Zm-2.24,10.6c-.38.74-.76,1.48-1.16,2.21-.19.37-.39.73-.6,1.1-.09.16-.18.32-.28.48l-.09.16c-.15.35-.42.4-.81.16a.17.17,0,0,0-.23-.15,19.62,19.62,0,0,1-2.11-3.22c-.68-1.24-1.38-2.48-2-3.75a12.26,12.26,0,0,1-1.23-4.44A4.52,4.52,0,0,1,107.11,91a5.88,5.88,0,0,1,7.1-.62c2.48,1.65,2.79,4.76,1.83,7.39A41.82,41.82,0,0,1,113.88,102.34Z"/><path d="M70.38,123.4a11.25,11.25,0,0,0-2.46-2.46.54.54,0,0,0-.87.41c-.38.08-.91-.24-1.19-.35a9.57,9.57,0,0,1-1.24-.52c-.24-.26-.71-.25-.83,0a3.85,3.85,0,0,0-2.6,1.37,11.47,11.47,0,0,0-1.06,1.52c-.19.3-.5,1-.86,1.11s-1-.28-1.26-.37a.45.45,0,0,0-.6.44h-.08c-.38.13-.73-.23-1-.41a5.44,5.44,0,0,0-1.08-.47.44.44,0,0,0-.59.36,4,4,0,0,0-2,1.3,6.66,6.66,0,0,0-.65,1.2,6.46,6.46,0,0,1-1.39,1.74,3.07,3.07,0,0,0-.68,4.21.51.51,0,0,0,0,.62c-.05,0-.07.05,0,.2l0,.44a6.26,6.26,0,0,0,0,.75,2.25,2.25,0,0,0,.37,1.08,1.49,1.49,0,0,0,1,.62,1.35,1.35,0,0,0,.33,1.69,2.54,2.54,0,0,0,2.91,0c1-.72,1.29-2.13,2.32-2.92A3,3,0,0,0,57.93,134c.22-.48,0-.83,0-1.26l.07-.08a4.4,4.4,0,0,1,3.16-1.85,3.33,3.33,0,0,1,1.63.07c.55.25.9,1,1.33,1.42a.48.48,0,0,0,.39.14,1.52,1.52,0,0,0,2.17-.14,3.09,3.09,0,0,0,.67-1.18,1.46,1.46,0,0,0,0-.59.14.14,0,0,0,0-.06.33.33,0,0,0,.07-.13c.68-2.14,3.11-2.32,3.22-4.73A3.61,3.61,0,0,0,70.38,123.4Zm-1.56,3.79a8.63,8.63,0,0,0-2.06,2.14.49.49,0,0,0-.62.47,1.54,1.54,0,0,0,.13.6.78.78,0,0,1-.1.86c-.1.17-.29.52-.5.57s-.58-.21-.77-.34a.54.54,0,0,0-.22-.08c-.44-.5-.7-1.09-1.34-1.39A4.24,4.24,0,0,0,61,129.8a5.38,5.38,0,0,0-3.67,2.09.5.5,0,0,0-.43.46c-.09.79.3,1.18-.47,1.76a5.94,5.94,0,0,0-1.21,1.14c-.29.39-.46.82-.72,1.22a1.58,1.58,0,0,1-1.29.92c-.3,0-1.56-.14-1-.79a.49.49,0,0,0,.07-.58c.33-.34-.13-1-.64-.75-.73.35-.79-1-.77-1.37a2.43,2.43,0,0,0-.06-1.26.38.38,0,0,0,0-.53,2.12,2.12,0,0,1,.09-2.77c.41-.42,1-.62,1.38-1.08,1-1.19.8-2.63,2.61-3.22a.49.49,0,0,0,.28-.24c.77.35,1.52,1.08,2.38.78a.5.5,0,0,0,.33-.39c.87.3,1.71.63,2.37-.17,1.15-1.37,1.7-3.59,3.89-3.49a.48.48,0,0,0,.18,0,13.72,13.72,0,0,0,1.34.51,2.15,2.15,0,0,0,2,.11C69.24,123.46,70.71,125.4,68.82,127.19Z"/><path d="M82.88,109.61a5.07,5.07,0,0,0-.58.87l-.57.68-.06.08a10.43,10.43,0,0,1-1.34,1,.51.51,0,0,0,.12.92,1.37,1.37,0,0,0,1.44-.62c.14-.17.29-.34.43-.52l.13-.1a4.57,4.57,0,0,0,.62-.7,1.89,1.89,0,0,0,.17-.28l.22-.27a.51.51,0,0,0,.12-.32v0C84,109.84,83.32,109.13,82.88,109.61Z"/><path d="M102.15,79c-1.06-.89-2.18.16-2.72,1.16-.78,1.08-1.15,2.61,0,3.62a1.85,1.85,0,0,0,3-.87,3.44,3.44,0,0,0,.22-1.14,7.86,7.86,0,0,1,.24-1.3A1.71,1.71,0,0,0,102.15,79Zm-.53,1.9a4.33,4.33,0,0,0,0,.72c0,.72-.4,2.11-1.41,1.51-.74-.44-.57-1.36-.21-2a.48.48,0,0,0,.21-.25c.14-.38,1.25-2,1.59-.74C101.86,80.39,101.66,80.66,101.62,80.93Z"/><path d="M128.28,57.52a.55.55,0,0,0-.27-.27c-2.16-3.66-3.51-7-2.56-11.38a.5.5,0,0,0-.41-.6.44.44,0,0,0-.29-.13,17.87,17.87,0,0,1-2.63-.25c-.53-.12-1-.43-1.54-.5a2,2,0,0,0-2.08,1.45,2.68,2.68,0,0,0,.54,2.75c.83.69,2,0,2.76-.54a.47.47,0,0,0,.17,0,10.16,10.16,0,0,0-.08,1.23,7.7,7.7,0,0,0,.09,1,.5.5,0,0,0-.1-.12,7.63,7.63,0,0,0-1-.85.35.35,0,0,0-.22-.08.49.49,0,0,0-.5,0,1.51,1.51,0,0,1-.69.15.5.5,0,0,0,0,1,2.49,2.49,0,0,0,.9-.18h0a8.74,8.74,0,0,1,1.5,1.54c.22.24.36.38.7.36a.52.52,0,0,0,.5-.5,17,17,0,0,0-.16-2,12.71,12.71,0,0,1,.2-2.39.51.51,0,0,0-.61-.62,2,2,0,0,0-.37.14.86.86,0,0,0-.17,0,.43.43,0,0,0-.44.32.52.52,0,0,0-.13.06,4.6,4.6,0,0,1-.63.42c-.42.41-.75.34-1-.19a.59.59,0,0,1-.38-.77c0-1.33,1.25-1.11,2.13-.83a12,12,0,0,0,2.88.36c-.83,4.49.55,8,2.89,11.86a.48.48,0,0,0,.18.17,24.08,24.08,0,0,1,2,5.93c.26,2-.73,6.85-2.59,8.15a.49.49,0,0,0-.16.2.45.45,0,0,0-.28.44c0,1.54.39,4.68-1.72,4.91a5,5,0,0,0-2.57.51,1.92,1.92,0,0,0-.76,1.92,20.86,20.86,0,0,0,.78,4,12.23,12.23,0,0,1-.47,8,28.06,28.06,0,0,0-1.53,4.29c-.34,1.44-.12,4.39-1.85,4.67a.4.4,0,0,0-.35.44.47.47,0,0,0-.23.31c-.51,2.28,3,2.54,2,5.06-.23.57-.66,1.06-.87,1.67a24.79,24.79,0,0,0-.76,3.6.41.41,0,0,0-.13.1c-.38.47-1,.11-1.52.44s-1,1.55-1.66,1.44a.42.42,0,0,0-.3,0,2.45,2.45,0,0,1-.38-2.59,6.68,6.68,0,0,1,1.13-2.76c.51-.5,1.54-.85,1-1.8-.47-.79-1.59-.33-2.17.05-1.13.73-1.31,2.46-1.68,3.63a.57.57,0,0,0,0,.13c-.87.14-1.64-1-2.6-.78a3.07,3.07,0,0,0-2.05,1.81c-.49,1.27,0,2.69-.38,4a3,3,0,0,1-.74,1.32l-1.2.1-.14-.47c-.47-1,.12-2.52.63-3.36a.48.48,0,0,0-.31-.71s0,0,0,0a2.35,2.35,0,0,0-1.83-.21.45.45,0,0,0-.32.31.32.32,0,0,0-.16,0c-3.06,1.41-4.44,5.81-8.38,4.34a10.06,10.06,0,0,0-2.4-1c-.45,0-1,.15-1.42.07-1.4-.28-1.95-1.41-2.3-2.63a.5.5,0,0,0-1,.27.56.56,0,0,0,0,.12c-1.29,1.24-2,3-1.14,4.67a7.61,7.61,0,0,0,.78,1.08c.8.55.84,1.21.12,2-.43,0-.86.1-1.3.16a8,8,0,0,0-2.82,1.13.61.61,0,0,0-.16.16.42.42,0,0,0-.18.52c.45,1.31-1.67,3.46-2.25,4.6-.45.88-.93,1.66-2,1.72s-2.77-.66-2.55-1.94a.53.53,0,0,0-.21-.76.42.42,0,0,0-.58-.3c-.57.2-1-.4-1.18-.82a2,2,0,0,1-.2-1.37,1.58,1.58,0,0,0-.31-1.39.42.42,0,0,0-.16-.14s0,0,0,0c-.32-.65,0-.94.44-1.37a14.1,14.1,0,0,0,1.17-1.15A16.15,16.15,0,0,0,77,118.63a.43.43,0,0,0,0-.51.44.44,0,0,0-.45-.63c-1.86.2-3.55.62-5.44.21-1.17-.26-2.39-1.21-3.59-.77a.43.43,0,0,0-.19.13.45.45,0,0,0-.42.11c-2.13,1.88-4.81,2.25-7.48,2.83a30.67,30.67,0,0,0-5.82,2c-1.41-.72-2.12-2.27-3.59-.4-1.18,1.52-1.51,3.62-4.11,2.94-1.33-.34-2.31-1-3.72-.78a.48.48,0,0,0-.42.32,1.33,1.33,0,0,1-2-.26.51.51,0,0,0-.24-.18.46.46,0,0,0-.76.24,5.37,5.37,0,0,1-1,2.56.4.4,0,0,0-.34.35c-.34,1.92,1.84,1.74,3.08,2.17a1.85,1.85,0,0,0,2-.34l.53-.42c1.19.21,1.46.74.81,1.61a2.38,2.38,0,0,1-2.22,1.23c-.52-.07-.61.57-.28.86a.53.53,0,0,0,.57.75c3-.61,4.82,2,3.4,4.66a19,19,0,0,1-2.79,3.5.45.45,0,0,0-.26.22c-1.07,2.19-.37,11.53-4.53,10.08a.41.41,0,0,0-.53.21l-.06.07a22.32,22.32,0,0,1-1.2,2.79c-.23.31-.38.49-.78.46a.66.66,0,0,1-.66-.48c-.28-.64.31-.8.71-1.14a.41.41,0,0,0,.13-.18.42.42,0,0,0,.16-.65c-.32-.44-.72-.7-.66-1.31s.32-.9.4-1.37c.11-.66-.3-1.25-1-1.06a3,3,0,0,0-1.64,1.7,2.53,2.53,0,0,0,.34,2.39,2.94,2.94,0,0,1-1,.49c-.48.33-.82.19-1-.43-.58-.3-.67-.67-.28-1.1.13-.48.54-.78.64-1.24a2.36,2.36,0,0,0-.38-1.46,4.68,4.68,0,0,1-.26-3.13.5.5,0,0,0,.68-.31c.68-2,2.78-2.75,3.1-4.88.14-1,0-1.94.14-2.91.08-.64.32-.68.15-1.37-.07-.29-.41-.35-.57-.56A2.63,2.63,0,0,1,33,133.87a4.32,4.32,0,0,0-.4-.77,1.64,1.64,0,0,0-1.87-.57.49.49,0,0,0-.29.72.49.49,0,0,0,0,.3c.12.64.49,1.86-.19,2.25s-1.38-.74-1.72-1.27A16.18,16.18,0,0,0,26.12,132a.45.45,0,0,0-.29-.13,4.44,4.44,0,0,1-.24-.49c-.49-1.21,1.53-1.84,1.63-.93.08.63,1.08.64,1,0a.53.53,0,0,0,0-.18.48.48,0,0,0,.5-.34c.36-1.18.76-1.72,2.22-1.78.29,0,.47.1.74.07a1.3,1.3,0,0,0,1.05-.76,4.43,4.43,0,0,0,.28-.68c.38-.92,1.11-1.1,2-1.37a2.73,2.73,0,0,0,1.6-.78.5.5,0,0,0,.12-.33l0,0a8,8,0,0,0,1-2.84c.1-.68.11-1.34,1-1.45a11.21,11.21,0,0,1,1.83,0,.44.44,0,0,0,.42-.22c2.81-.74,5.25-3,7.6-4.57a.5.5,0,0,0,.21-.49.37.37,0,0,0,.16-.09,21.47,21.47,0,0,0,2.2-2.38c.76-.88,1.71-1.12,2.57-1.84,1-.87,1.57-2.13,3-1.33.48.27.57.54,1.19.56a.45.45,0,0,0,.24-.06c1.93.47,4.27-.49,6.15-.7,2.39-.27,4.87-.4,7.2-.9a.42.42,0,0,0,.32-.25A4.07,4.07,0,0,0,73,107.4c.19-.08,1.58-.77,1.72-.48s-.29.56-.37.71a1.81,1.81,0,0,0-.18.68.4.4,0,0,0,.39.47A.47.47,0,0,0,75,109a13.08,13.08,0,0,0,1.86-.21c.72-.08,1.45,0,2.17,0,1.26-.13,1.74-.79,2.72-1.46a.45.45,0,0,0,.15-.16.51.51,0,0,0,.25-.69c-.54-1.07-1.08-2.21-.44-3.36a10.64,10.64,0,0,1,2-2.09s0,0,0-.06a.47.47,0,0,0,.25-.2l2.13-3.44a14.58,14.58,0,0,0,2-3.37,4.2,4.2,0,0,0,0-1c0-1.37-.38-2.35.64-3.5a6.5,6.5,0,0,1,2.84-1.75.46.46,0,0,0,.26-.23.41.41,0,0,0,.17.2c1,.7-1,1.71-1.45,2A14.28,14.28,0,0,0,89,91.2a.44.44,0,0,0-.13.42.53.53,0,0,0,.09.3.7.7,0,0,0,0,.14c.1.22.2.44.29.67a1.07,1.07,0,0,1,0,.84,1,1,0,0,0,0,.89c.38.64,1.42.8,2.06,1a.44.44,0,0,0,.36,0,.46.46,0,0,0,.62.14c.77-.45,1.15-1.19,1.83-1.72,1-.77,2.47-.66,3.57-1.28s2.11-1.21,3.2-1.8a2.16,2.16,0,0,0,1.26-1.41c.19-.61-.78-.88-1-.26-.27.85-2,1.28-2.74,1.76a8.52,8.52,0,0,1-3,1.41,4.73,4.73,0,0,0-1.64.54c-.79.51-1.2,1.38-2,1.87a.49.49,0,0,0-.25-.19,7.78,7.78,0,0,1-1.15-.39c-.39-.22-.17-.3-.08-.66a3.14,3.14,0,0,0-.5-1.77,9.67,9.67,0,0,1,1.59-1.41,4.45,4.45,0,0,0,1.43-1.06,1.68,1.68,0,0,0-.33-2.42.43.43,0,0,0-.65.16.39.39,0,0,0-.54-.23c-2,.79-4.41,1.93-4.57,4.37-.11,1.6.37,2.6-.61,4.17s-2,3.29-3,4.93a.51.51,0,0,0-.16.11c-.94.91-2.11,1.77-2.49,3.1a4.51,4.51,0,0,0,.58,3.15,4.44,4.44,0,0,1-2.87,1.24c-1,0-2,.22-2.92.23.16-.34.48-.63.5-1a1,1,0,0,0-.68-1,2.25,2.25,0,0,0-1.47.08,7.58,7.58,0,0,1-1.55.61.55.55,0,0,0-.88.18s0,0,0,0c-1,.2-2,.12-3,.26-1.18.17-2.33.43-3.53.54-2.08.19-4.84,1.46-6.82.63a.41.41,0,0,0-.38,0c-.39-.29-.73-.84-1.24-.91-.93-.12-1.74.67-2.35,1.26C53,109.58,52,110,51,110.79s-1.71,2.13-2.77,3a.4.4,0,0,0-.15.41h0c-2.35,1.62-5.13,4.25-8,4.64h0c-1-.05-2.33,0-2.9.84a3.18,3.18,0,0,0-.33,1.37,7.23,7.23,0,0,1-.91,2.63.43.43,0,0,0-.07.23c-.74.76-2,.33-2.85.94s-.73,2-2.07,2.23c-.74.11-1.23-.1-1.92.4a3.63,3.63,0,0,0-1.23,1.93,2,2,0,0,0-2.8.26c-1.24,1.35.2,3.15,1.22,4.13a.48.48,0,0,0,.57.08,14.15,14.15,0,0,1,1,1.42,3,3,0,0,0,1.81,1.55c2,.39,2-1.78,1.8-3.2a13.64,13.64,0,0,1,1.4,2.28,3.09,3.09,0,0,1,.66,2.22,5.83,5.83,0,0,1-1.61,4.45,5.45,5.45,0,0,0-1,1.39.43.43,0,0,0-.64.18,5.66,5.66,0,0,0-.67,3.49c.17,1.15.78,1.72.34,3a4.69,4.69,0,0,0-.41,1.1,2.36,2.36,0,0,0,.87,2.4c.95.48,2.25-.19,3.14-.73a1.19,1.19,0,0,0,0,.66,2.4,2.4,0,0,0,1.38,1.65,1.91,1.91,0,0,0,2-1,14.66,14.66,0,0,0,1.1-2.54c5,1.28,4.1-7.82,5.19-10.5,1.68-1.94,4.15-4.12,3.73-7a3.54,3.54,0,0,0-3.38-3.15c1.34-.79,2.32-2.46,1.41-3.79a1.6,1.6,0,0,0-2-.63,3.56,3.56,0,0,0-.61.4,1.45,1.45,0,0,1-1.62.3c-.38-.08-1.88-.32-2.16-.68A4.88,4.88,0,0,0,39.56,125a2.34,2.34,0,0,0,3-.24c2.06,0,4,1.77,6,.5a6.37,6.37,0,0,0,1.62-1.88c.56-.77.87-1.51,2-1.19.27.07.74.63,1.07.78a.53.53,0,0,0,.39,0,.59.59,0,0,0,.29,0,46.72,46.72,0,0,1,8.32-2.54,11.8,11.8,0,0,0,5.29-2.51.45.45,0,0,0,.22,0c.74-.27,1.51.33,2.2.54a9.9,9.9,0,0,0,1.87.41,14.6,14.6,0,0,0,4-.26,18.47,18.47,0,0,1-2.71,3,1.69,1.69,0,0,0-.32,2.34.41.41,0,0,0,.26.23.37.37,0,0,0,.07.12c.19.25-.08,1.16,0,1.52a3.14,3.14,0,0,0,.51,1.26,2.07,2.07,0,0,0,1.67,1.14c-.25,2.23,3,3.7,4.91,2.81,1.2-.58,1.62-2.32,2.3-3.37.78-1.21,2-2.24,1.68-3.72a13.63,13.63,0,0,1,3.69-1.09,1.77,1.77,0,0,0,1.35-1,2.22,2.22,0,0,0-.56-2.11,10.27,10.27,0,0,1-1.09-1.44,2.68,2.68,0,0,1,.62-3.1,3.4,3.4,0,0,0,1.46,1.85,3.89,3.89,0,0,0,2.06.26c1.41,0,2.25.73,3.49,1.24,3.72,1.51,5.71-3.44,8.56-4.76a.44.44,0,0,0,.23-.24h0a1.32,1.32,0,0,1,.76,0,5.08,5.08,0,0,0-.13,4.54c.59,1.1,1.71.79,2.53,0,1.36-1.27,1.33-3,1.4-4.68.05-1.27.56-2.57,2-2.1.29.09.54.38.85.49a2,2,0,0,0,1.65-.11,3.11,3.11,0,0,0,.88,3.42.51.51,0,0,0,.64,0,2.06,2.06,0,0,0,1.94-1.07c.37-.48.59-.43,1.15-.5a1.53,1.53,0,0,0,.79-.4.43.43,0,0,0,.51-.35c.27-1.2.34-2.43.72-3.61a8.2,8.2,0,0,1,1.23-2,1.58,1.58,0,0,0,.3-.75c.22-1.78-2.88-3-2.58-4.3v-.07a2,2,0,0,0,1.86-1.47c.34-1.05.24-2.36.47-3.45a24.51,24.51,0,0,1,1.53-4.49,11.65,11.65,0,0,0,1.09-5.48c-.13-2.19-1.12-4.36-1.27-6.53a.52.52,0,0,0,0-.81.42.42,0,0,0-.36-.45,10.73,10.73,0,0,1,2.71-.63,4.87,4.87,0,0,0,.93-.15,2.28,2.28,0,0,0,1.22-.82c.85-1.19.61-3.35.57-4.77,1.93-1.39,2.56-4.62,3-6.78C131,63.3,129.36,60.2,128.28,57.52ZM34,152.78a1,1,0,0,0-.05-.16.42.42,0,0,0,0-.4,1.71,1.71,0,0,1-.33-1.7,2.64,2.64,0,0,1,.69-.92c-.08.27-.24.63-.27.74a2.56,2.56,0,0,0-.12.95,1.83,1.83,0,0,0,.56,1.14Z"/><path d="M151.94,17.75a.42.42,0,0,0-.22-.4c.42-1.59,1.83-3.59.43-4.89a.48.48,0,0,0-.48-.13,2,2,0,0,0-1,.8c-1.11,1.43-.94,2.47-3,3.12-1.7.53-2.3-.25-3.85-.63-1.23-.3-2.54-.39-3.79-.57h-.08a8.82,8.82,0,0,0-2.71-2.22c-1.69-.82-2.86-2.31-4.17-3.65a.43.43,0,0,0-.28-.13.43.43,0,0,0-.12-.11,6.64,6.64,0,0,1-1.06-.69,10.8,10.8,0,0,1-.76-.89c-.5-.56-1-1.09-1.58-1.61a.48.48,0,0,0-.14-.34c-.68-.73-1.38-1.46-2.08-2.18-.37-.39-.79-1-1.33-1.21-1-.33-1.86.91-2.49,1.55-2.18,2.19.7,5,1.33,7.27a.47.47,0,0,0-.15.21,11.52,11.52,0,0,0-.5,3.92,16.54,16.54,0,0,1-1.49,5.37c-.4,1.06-1.23,3.82-.6,5.18-1.88,1-3.13.34-5-.41a2.61,2.61,0,0,0-2.05-.29c-2.53,1.1,1.84,5.39-1.88,6.23a.42.42,0,0,0-.35.38h-.07c-2.24,0-2.33,1.44-2.51,3.28a5.66,5.66,0,0,0-.07,2.68c.46,1.23,2.33,1.3,2.6,2.56a.31.31,0,0,0,.05.1s0,.06,0,.1c.25,1.34-.43,2.64-.17,4a3.21,3.21,0,0,0,1.77,2.36c2,.8,2.79-1.87,3-3.38a.49.49,0,0,0,.26-.22,7.11,7.11,0,0,1,.47-.74c1.28.88,3.86.78,3.57-1.15-.19-1.34-1.44-1.76-2.27-2.61-.39-.41-.56-1-1.11-1.26a2.42,2.42,0,0,0-1.15.18.45.45,0,0,0-.42-.25c-1.16-2.45-.89-3.26.79-2.44a2.42,2.42,0,0,1,1.76.81c.19.11.35.33.56.41a1.71,1.71,0,0,0,1.73-.08,16.34,16.34,0,0,0,2.17-1.65c2-1.42,3.68-.42,5.64.5a.5.5,0,0,0,.53-.06,4,4,0,0,0,2.16,1.87c1.53.54,2.53,1.68,4.11,2.09,1,.25,2.19,1,3.15.3,1.23-.93,1.1-3.52,1.31-4.85a.59.59,0,0,0,0-.19c1.07-2.58,3.16-5.28,6-5.3.67,0,1.68.31,2.32.25.87-.09,1.77-1,2.43-1.45,1.09-.75,2.54-1.39,2.72-2.85C154.05,22.08,151.85,20.12,151.94,17.75Zm-2.86,9.66c-.85.25-2-.37-2.84-.33-3.62.16-6.45,4.61-7.34,7.64a.46.46,0,0,0,.32.59,4.58,4.58,0,0,1-.46,2c-.76,1-3.42,0-4.06-.39a18.37,18.37,0,0,0-1.76-1.28,6.29,6.29,0,0,1-2.72-2,.54.54,0,0,0-.82-.05c-1.79-.87-3.41-2-5.43-1.11-.86.39-1.42,1.22-2.23,1.62-3.18,1.55-2.67-1.2-4.89-1.23-2.73,0-3.89,4.64-.83,5.06l0,.06c.33.3.51.26.92.24s.67,0,1,.33a6.66,6.66,0,0,0,.5.56c.5.45,1.25.73,1.59,1.34.75,1.33-1.37,1.48-1.93.63a.5.5,0,0,0-.78-.1,6.88,6.88,0,0,0-.92,1.29.49.49,0,0,0-.38.46,4.57,4.57,0,0,1-.47,2.06c-.95,1.56-2.27-.23-2.33-1.28-.07-1.28.44-2.43.2-3.72a1,1,0,0,0,0-.1v-.09c-.25-1.16-1-1.23-1.84-1.89s-.8-1.9-.7-2.84.13-2.5,1.55-2.53a.46.46,0,0,0,.46-.4.55.55,0,0,0,.22,0,2.66,2.66,0,0,0,2-1.81,3.84,3.84,0,0,0,.21-1.34c0-.51-.41-1.51-.28-1.93.56-1.79,3,0,4.1.14a5.64,5.64,0,0,0,3.48-.89.55.55,0,0,0,.17-.17.41.41,0,0,0,0-.69c-.7-.54,0-3.4.21-4,.33-1.1.9-2.11,1.27-3.2.75-2.23.15-4.61,1-6.8a.49.49,0,0,0,.22-.53c-.4-1.91-3-4.33-1.84-6.35a3.89,3.89,0,0,1,.92-.89c.71-.55.67-.45,1.25-.06a13.54,13.54,0,0,1,2.23,2.3.42.42,0,0,0,.14.39,28.33,28.33,0,0,1,2,2.08,10,10,0,0,0,.75.84,9,9,0,0,0,1.11.69l.05,0a.44.44,0,0,0,.33.27,20.31,20.31,0,0,0,3.17,3.12c.68.44,1.45.64,2.1,1.14a11.92,11.92,0,0,1,1.76,1.79.43.43,0,0,0,.7,0,27.91,27.91,0,0,1,5.19,1.28,3.73,3.73,0,0,0,3,0c1.34-.6,1.49-1.8,2.47-2.59.17-.75.39-.76.68,0L151,16a5.41,5.41,0,0,0-.43,2,.44.44,0,0,0,.37.46c.24,1.71,1.41,3,1.62,4.71S150.61,27,149.08,27.41Z"/></g></svg>