<svg xmlns="http://www.w3.org/2000/svg" viewBox="0 0 350 200"><defs><style>.cls-1{fill:#6d6e71;}.cls-2{fill:#a7a9ac;}.cls-3{fill:#939598;}</style></defs><title>Artboard 1</title><g id="shadows"><path class="cls-1" d="M.94,157.58a.73.73,0,0,0,0-.53,1.89,1.89,0,0,0-.06-.18l0-.52c0-.95-1.52-1-1.49,0v.44a.71.71,0,0,0,0,.21,25.52,25.52,0,0,0,.16,3.6c.1.93,1.52,1,1.49,0Z"/><path class="cls-1" d="M5.52,156.5a.81.81,0,0,0-.57-.68.78.78,0,0,0-1.28.73c.26,1.3,0,2.63.34,3.92a.75.75,0,0,0,1.47-.2A23.72,23.72,0,0,0,5.52,156.5Z"/><path class="cls-1" d="M9.54,156.29a.66.66,0,0,0-.61-.71.69.69,0,0,0-1.2.31,11.15,11.15,0,0,0-.15,3.05c.07.65.16,1.72,1.07,1.63a.77.77,0,0,0,.72-.55,6.4,6.4,0,0,0,.11-1.75Z"/><path class="cls-1" d="M12.68,155.37a.71.71,0,0,0-.92.63.69.69,0,0,0-.25.56,12.59,12.59,0,0,0,.28,3.13c.22.76,1.25,1.16,1.67.32a3.73,3.73,0,0,0,.19-1.33c0-.53.06-1.06,0-1.59A1.62,1.62,0,0,0,12.68,155.37Z"/><path class="cls-1" d="M18,155.2a.71.71,0,0,0-1-.45.76.76,0,0,0-1.23.57,14.39,14.39,0,0,0,.31,3c.15.67.41,1.53,1.28,1.37s1-1.08,1-1.74A8.2,8.2,0,0,0,18,155.2Z"/><path class="cls-1" d="M22.17,155.4a.75.75,0,0,0-1.24-.33l-.07.08a.74.74,0,0,0-.47.66,13.5,13.5,0,0,0,.08,2.38c.07.62.15,1.13.79,1.35a.75.75,0,0,0,.92-.52A5.82,5.82,0,0,0,22.17,155.4Z"/><path class="cls-1" d="M26.36,155.18a.68.68,0,0,0-.74-.72.76.76,0,0,0-1.34.45,13,13,0,0,0,.5,3.45.75.75,0,0,0,1.44,0,5.15,5.15,0,0,0,.26-1.56C26.48,156.25,26.34,155.72,26.36,155.18Z"/><path class="cls-1" d="M30.05,156.67l-.18,0a.77.77,0,0,0-.74.75,5.78,5.78,0,0,0,.11,2.68.75.75,0,0,0,1.46-.2l.15-2.49A.67.67,0,0,0,30.05,156.67Z"/><path class="cls-1" d="M30.58,146.88q-.18,2.51-.18,5a.75.75,0,0,0,1.49,0q0-2.5.18-5C32.14,145.92,30.65,145.92,30.58,146.88Z"/><path class="cls-1" d="M30.88,165.28a1.12,1.12,0,0,0,0-.21V165c-.05-1-1.54-1-1.5,0l.13,2.86c0,.95,1.52,1,1.49,0S30.9,166.14,30.88,165.28Z"/><path class="cls-1" d="M30.69,169.88a.75.75,0,1,0-1.49,0,8.24,8.24,0,0,0,0,1.72.77.77,0,0,0,.75.75.75.75,0,0,0,.74-.75A9,9,0,0,1,30.69,169.88Z"/><path class="cls-1" d="M25.89,170.85a.93.93,0,0,1,.07-.43.77.77,0,0,0-.27-1,.76.76,0,0,0-1,.27,2.65,2.65,0,0,0,.13,2.52.75.75,0,0,0,1,.27,1.3,1.3,0,0,0,.55-.73A.68.68,0,0,0,25.89,170.85Z"/><path class="cls-1" d="M22.42,170.39a1.53,1.53,0,0,0-.25-1.06.75.75,0,0,0-.73-.19.75.75,0,0,0-.49.38.71.71,0,0,0,0,.6s0,0,0,0l0,1.31a.75.75,0,0,0,1.5,0Z"/><path class="cls-1" d="M17.81,169.77a.76.76,0,0,0-.91-.52.74.74,0,0,0-.52.91,4.87,4.87,0,0,0,.23.46.76.76,0,0,0,0,.21,1.19,1.19,0,0,1,.05.81.75.75,0,0,0,1.36.58C18.6,171.38,18.15,170.57,17.81,169.77Z"/><path class="cls-1" d="M13.57,170.64a.75.75,0,1,0-1.49,0,9,9,0,0,0,0,1.37.78.78,0,0,0,.75.75.76.76,0,0,0,.75-.75A9,9,0,0,1,13.57,170.64Z"/><path class="cls-1" d="M5,171.14a.75.75,0,0,0-.53-.88.77.77,0,0,0-.92.52,5,5,0,0,0-.1,1.21.76.76,0,0,0,.65.73.75.75,0,0,0,.82-.53,3.18,3.18,0,0,0,.14-.53A1.15,1.15,0,0,0,5,171.14Z"/><path class="cls-1" d="M1.2,171.6h0Z"/><polygon class="cls-1" points="1.2 171.58 1.2 171.57 1.2 171.58 1.2 171.58"/><path class="cls-1" d="M1.2,171.57a.76.76,0,0,0,.23-1,.75.75,0,0,0-1-.27,1.56,1.56,0,0,0-.62,1.77.76.76,0,0,0,.91.52.76.76,0,0,0,.53-.92.2.2,0,0,1,0-.1h0Z"/><path class="cls-1" d="M38.34,157.49a.63.63,0,0,0-.38-.27.74.74,0,0,0-.91.52c-.12.72-.37,2,.57,2.35,1.12.34,1.26-1.15,1.29-1.88A.74.74,0,0,0,38.34,157.49Z"/><path class="cls-1" d="M43.58,157.33a.91.91,0,0,0-1.6-.05h0a.81.81,0,0,0-.32.59,1.56,1.56,0,0,0,.76,1.41.75.75,0,0,0,1-.27A2,2,0,0,0,43.58,157.33Z"/><path class="cls-1" d="M48.29,156.59a.76.76,0,0,0-.92.52,3.71,3.71,0,0,0-.07,1.1.77.77,0,0,0,.75.74.74.74,0,0,0,.74-.74,2.64,2.64,0,0,1,0-.7A.77.77,0,0,0,48.29,156.59Z"/><path class="cls-1" d="M38.24,170.17a.74.74,0,0,0-.14-.28s0-.09,0-.13a.77.77,0,0,0-.27-1,.75.75,0,0,0-1,.27,3.9,3.9,0,0,0-.34,2.49.75.75,0,0,0,1.25.33A1.66,1.66,0,0,0,38.24,170.17Z"/><path class="cls-1" d="M43.29,170.36a.71.71,0,0,0-.37-.6c0-.14,0-.29,0-.43a.75.75,0,0,0-1.49,0,11.35,11.35,0,0,0,.29,2.53.75.75,0,0,0,1.44,0A4.72,4.72,0,0,0,43.29,170.36Z"/><path class="cls-1" d="M48.23,170.81a5.41,5.41,0,0,1,0-1.27.76.76,0,0,0-.75-.75h-.11a.75.75,0,0,0-.74.75l.11.87a8.62,8.62,0,0,0,.11.87.75.75,0,0,0,1.47-.2Z"/><path class="cls-1" d="M52.93,168.48a.78.78,0,0,0-.56.07.75.75,0,0,0-.89.71,5,5,0,0,0,.35,2,.74.74,0,0,0,1.46-.19,10.63,10.63,0,0,1,.16-1.69A.77.77,0,0,0,52.93,168.48Z"/><path class="cls-1" d="M58.59,169a.69.69,0,0,0-.28-.42.78.78,0,0,0-1.39.42,7.85,7.85,0,0,0,.18,2,.75.75,0,0,0,1.43,0A3.84,3.84,0,0,0,58.59,169Z"/><path class="cls-1" d="M64.05,168.23a.75.75,0,1,0-1.49,0,.57.57,0,0,1,0,.13.76.76,0,0,0-.42.62c-.07.81,0,2.41,1.1,2.39a.76.76,0,0,0,.72-.55A9.38,9.38,0,0,0,64.05,168.23Z"/><path class="cls-1" d="M69.24,168h0l-.08-.21a.75.75,0,0,0-1-.27.77.77,0,0,0-.3.94,3.94,3.94,0,0,0,.32,2.08.75.75,0,0,0,.84.34.78.78,0,0,0,.55-.72A4.38,4.38,0,0,0,69.24,168Z"/><path class="cls-1" d="M74.33,167.91a.78.78,0,0,0-.92-.52.75.75,0,0,0-.52.92c0,.1.07.2.1.3s0,0,0,0l.3,1.42c.17.82,1.55.65,1.46-.19A7.31,7.31,0,0,0,74.33,167.91Z"/><path class="cls-1" d="M80.41,167.88l0-.08a.75.75,0,0,0-.52-.92.76.76,0,0,0-.45,0l-.12,0a.8.8,0,0,0-.53,1.08,2,2,0,0,0,.2,1.64.75.75,0,0,0,1.36-.18A2.93,2.93,0,0,0,80.41,167.88Z"/><path class="cls-1" d="M41.41,135.23c-.65-.52-1.76-.35-2.54-.37s-1.81-.25-2.18.58a1.52,1.52,0,0,0-.12.7,4.4,4.4,0,0,0,.1,2.44.85.85,0,0,0,.59.49l.09.15a.77.77,0,0,0,1,.27c.77-.58.51-1.2.77-2l.06,0a2.82,2.82,0,0,0,.09.52,5.75,5.75,0,0,0,.46,1.28c.28.56.88,1,1.46.53a3.64,3.64,0,0,0,.71-2.35C42,136.75,42,135.72,41.41,135.23Z"/><path class="cls-1" d="M48.09,138.22a14.2,14.2,0,0,1-1.43-3.92c-.16-1-1-1.27-1.93-1.12A1.59,1.59,0,0,0,43.41,135c.08,1,.3,1.89.42,2.85a.73.73,0,0,0-.21.7.93.93,0,0,0,.3.53A.74.74,0,0,0,45.4,139c0-.32,0-.63,0-.94.12-.51.22-1,.29-1.54.26.65.54,1.29.84,1.93a.78.78,0,0,0,.71.92.86.86,0,0,0,.69-.28A.79.79,0,0,0,48.09,138.22Z"/><path class="cls-1" d="M32.46,134.2a.74.74,0,0,0-.54,1.23s0,.11,0,.16l0,.39c0,.27-.08.54-.14.81a.77.77,0,0,0,.52.92.75.75,0,0,0,.92-.52C33.34,136.33,33.9,134.24,32.46,134.2Z"/><path class="cls-1" d="M50.13,109.8c.06-1-1.43-1-1.5,0a107.64,107.64,0,0,0-.09,12.7c.05,1,1.55,1,1.5,0A103.51,103.51,0,0,1,50.13,109.8Z"/><path class="cls-1" d="M53.07,109.39a.75.75,0,0,0-1.49,0q.15,6.31-.26,12.63c-.06,1,1.43,1,1.49,0Q53.23,115.71,53.07,109.39Z"/><path class="cls-1" d="M54.24,108.13c-.68,4.51-.16,9.4-.16,14a.75.75,0,0,0,1.49,0c0-4.39-.55-9.21.11-13.56C55.82,107.59,54.38,107.19,54.24,108.13Z"/><path class="cls-1" d="M66.51,120.78a6.15,6.15,0,0,1-1.66,0,.76.76,0,0,0-.92.52.74.74,0,0,0,.52.91,7.13,7.13,0,0,0,2.06.09.75.75,0,1,0,0-1.49Z"/><path class="cls-1" d="M72.27,121.17a8.09,8.09,0,0,0-2.94-.22.78.78,0,0,0-.75.75.76.76,0,0,0,.75.75,6.78,6.78,0,0,1,2.54.16A.75.75,0,0,0,72.27,121.17Z"/><path class="cls-1" d="M76.12,121.35l-1.84.18a.78.78,0,0,0-.75.75.76.76,0,0,0,.75.75l1.84-.19a.77.77,0,0,0,.75-.74A.76.76,0,0,0,76.12,121.35Z"/><path class="cls-1" d="M53.94,157a.76.76,0,0,0-.75-.75l-.17,0a.73.73,0,0,0-.82.34,1.87,1.87,0,0,0-.22,1.2,1.18,1.18,0,0,0,.78.85.9.9,0,0,0,1.12-.56A3.73,3.73,0,0,0,53.94,157Z"/><path class="cls-1" d="M58.65,156.36a.77.77,0,0,0-.92-.52.86.86,0,0,0-.33.2.67.67,0,0,0-.46.49v.05h0a.76.76,0,0,0,0,1.06.46.46,0,0,0,.13.08,1.77,1.77,0,0,0,.15.31.75.75,0,0,0,1.29,0A2.14,2.14,0,0,0,58.65,156.36Z"/><path class="cls-1" d="M64.1,156.56a.77.77,0,0,0-.75-.75h0a.67.67,0,0,0-.44-.15.77.77,0,0,0-.75.75c0,.58.19,1.44.84,1.61a.85.85,0,0,0,1-.5A2.27,2.27,0,0,0,64.1,156.56Z"/><path class="cls-1" d="M69.47,156.62a.77.77,0,0,0-.31-.91l-.2-.13a.74.74,0,0,0-1.09.44,1.36,1.36,0,0,0,.12,1,.77.77,0,0,0,1,.26.71.71,0,0,0,.27-.3A.78.78,0,0,0,69.47,156.62Z"/><path class="cls-1" d="M74.84,156.1a.69.69,0,0,0,0-.13.76.76,0,0,0-.2-.69.74.74,0,0,0-1-.05.71.71,0,0,0-.29.05.77.77,0,0,0-.46.69,2.53,2.53,0,0,0,.34,1.45.76.76,0,0,0,1,.27,1.51,1.51,0,0,0,.63-.94A1.43,1.43,0,0,0,74.84,156.1Z"/><path class="cls-1" d="M80.51,154.91a.76.76,0,0,0-.92-.52.7.7,0,0,0-.38.27l-.26,0a.75.75,0,0,0-.54.72,1.67,1.67,0,0,0,.56,1.34.76.76,0,0,0,1,0A1.91,1.91,0,0,0,80.51,154.91Z"/><path class="cls-1" d="M85.65,154.45a.79.79,0,0,0-.33-.2l-.2-.07a.73.73,0,0,0-.94.73.91.91,0,0,0,.53,1.62,1.07,1.07,0,0,0,.9-.5,4.09,4.09,0,0,0,.34-.77A.74.74,0,0,0,85.65,154.45Z"/><path class="cls-1" d="M91.55,154.46a.74.74,0,0,0-.85-.34l-.19,0a.77.77,0,0,0-.75.75,1.68,1.68,0,0,0,.09.83.86.86,0,0,0,1.06.56,1.16,1.16,0,0,0,.67-.7A1.25,1.25,0,0,0,91.55,154.46Z"/><path class="cls-1" d="M91.72,167.55a.75.75,0,0,0-.53-.85.76.76,0,0,0-.92.52,5,5,0,0,0-.09,1.59.77.77,0,0,0,.55.72.74.74,0,0,0,.84-.34A2.45,2.45,0,0,0,91.72,167.55Z"/><path class="cls-1" d="M96,160.89v3.57a.75.75,0,0,0,1.49,0v-3.57A.75.75,0,0,0,96,160.89Z"/><path class="cls-1" d="M97.28,166.79c-.06-1-1.55-1-1.5,0s.11,1.83.16,2.75,1.55,1,1.49,0Z"/><path class="cls-1" d="M95,161.29c-.09-.95-1.58-1-1.49,0,.26,2.67-.2,5.32,0,8,.06,1,1.55,1,1.49,0C94.83,166.61,95.29,164,95,161.29Z"/><path class="cls-1" d="M95,171.49a.75.75,0,0,0-.34-.81.77.77,0,0,0-1,.26,1.1,1.1,0,0,0,0,1.16.77.77,0,0,0,1,.27A.78.78,0,0,0,95,171.49Z"/><path class="cls-1" d="M95,153.86a.72.72,0,0,0,.08-.32.76.76,0,0,0-.75-.75h-.07a.75.75,0,0,0-.74.75.77.77,0,0,0,.44.68.78.78,0,0,0,0,.28c0,.85,0,1.69-.06,2.54s1.44,1,1.49,0,.06-1.69.06-2.54A.67.67,0,0,0,95,153.86Z"/><path class="cls-1" d="M99.61,167a.84.84,0,0,0,.12-.63.77.77,0,0,0-.92-.53c-.64.1-.71.77-.67,1.28s.09,1.15.14,1.72c.07,1,1.57,1,1.49,0C99.73,168.27,99.61,167.61,99.61,167Z"/><path class="cls-1" d="M98.18,162.05l0,2.27a.75.75,0,0,0,1.49,0l0-2.27A.75.75,0,0,0,98.18,162.05Z"/><path class="cls-1" d="M106.23,167.56c-.08-.22-.15-.43-.21-.65a.42.42,0,0,0,0-.16l-.12-.52a.75.75,0,0,0-.92-.52.73.73,0,0,0-.52.84l-.09.13a2.73,2.73,0,0,0,0,1.87.75.75,0,0,0,1.09.45,1.06,1.06,0,0,0,.54-.69A.72.72,0,0,0,106.23,167.56Z"/><path class="cls-1" d="M112.56,166.64a1,1,0,0,0,0-.38v0a.76.76,0,0,0-.52-.52h0a.63.63,0,0,0-.56.09.76.76,0,0,0-1,0c.08,0,.06,0-.07,0a.76.76,0,0,0-.52.92.71.71,0,0,0,.23.34c0,.87.27,1.83,1.08,2s1.11-.41,1.3-1A3.42,3.42,0,0,0,112.56,166.64Z"/><path class="cls-1" d="M118.25,165.55a.71.71,0,0,0-1.23,0,.79.79,0,0,0-.49.67,4,4,0,0,0,.14,1.67.94.94,0,0,0,1.33.69,1.56,1.56,0,0,0,.63-1.37A3,3,0,0,0,118.25,165.55Z"/><path class="cls-1" d="M130.08,167.27a2.21,2.21,0,0,1-.11-1.39.75.75,0,0,0-1.44-.39,3.61,3.61,0,0,0,.11,2.18.77.77,0,0,0,.92.52A.76.76,0,0,0,130.08,167.27Z"/><path class="cls-1" d="M136.28,167a6.21,6.21,0,0,1-.08-1.43.75.75,0,0,0-1.49,0,6,6,0,0,0,0,.85,1,1,0,0,0,0,.25l.12.72a.75.75,0,0,0,1.44-.39Z"/><path class="cls-1" d="M143,165.56a.8.8,0,0,0-.5-.71.63.63,0,0,0-.77-.24c-1.23.41-.76,2.24-.34,3.09.3.62,1.17.38,1.37-.18A4.84,4.84,0,0,0,143,165.56Z"/><path class="cls-1" d="M148.17,164.12a.76.76,0,0,0-.37.1.7.7,0,0,0-.76.91,3.74,3.74,0,0,1,0,.83,1.59,1.59,0,0,0,.44,1.1.75.75,0,0,0,1.27-.53l.14-1.67A.74.74,0,0,0,148.17,164.12Z"/><path class="cls-1" d="M155.36,165.46c0-.32,0-.63,0-.94.07-1-1.43-1-1.49,0h0a.68.68,0,0,0-.16.69,2.29,2.29,0,0,1,.12.37q0,.55,0,1.11c0,.81,1.3,1.05,1.47.2A3.83,3.83,0,0,0,155.36,165.46Z"/><path class="cls-1" d="M174.65,142.12c0-.84.07-1.68.08-2.52a.5.5,0,0,0-1,0,.51.51,0,0,0,0,.86c0,1.32-.1,2.64-.2,4,0,.56.83.66,1,.13a7.61,7.61,0,0,0,.17-2.38Z"/><path class="cls-1" d="M177.2,143.38a12.81,12.81,0,0,1-.55-2.13c-.11-.63-1.07-.36-1,.27a13,13,0,0,0,.55,2.12C176.45,144.25,177.41,144,177.2,143.38Z"/><path class="cls-1" d="M182,137.94a.52.52,0,0,0-.72,0,7.18,7.18,0,0,0-1.19,1.46.42.42,0,0,0-.4.15,6.13,6.13,0,0,0-1.42,2.64c-.15.65-.38,1.58.16,2.09a.48.48,0,0,0,.48.13c.73-.24,1-1.19,1.31-1.82s.59-1.14.89-1.7c0,1,0,2,0,3a.5.5,0,0,0,1,0,33.25,33.25,0,0,1,.39-5.28A.55.55,0,0,0,182,137.94Z"/><path class="cls-1" d="M169.89,129.08a2.35,2.35,0,0,0-.17-.55,1,1,0,0,0,0-.14.5.5,0,0,0,.07-.26l-.15-3.78a.76.76,0,0,0,0-.16c0-1-1.15-.83-1.92-.73a.51.51,0,0,0-.48.63l.05.23a.53.53,0,0,0,0,.18,8.09,8.09,0,0,0,.36,1.94c.2.87,0,1.76.15,2.64a.5.5,0,0,0,.85.35,2.24,2.24,0,0,1,.34-.27,1.33,1.33,0,0,1,.05.19A.5.5,0,0,0,169.89,129.08Z"/><path class="cls-1" d="M180.21,129.92l-1.13-.15c-.5-.08-.42-.31-.56-.81l-.69-2.48a.49.49,0,0,0-.8-.22.5.5,0,0,0-.56.32l-.72,1.76a5.43,5.43,0,0,0-.67,1.7c0-.64-1-.64-1,0a1,1,0,0,0,1.69.56,4.58,4.58,0,0,0,.72-1.45c.2-.5.4-1,.61-1.5a13.07,13.07,0,0,0,.72,2.47c.34.77,1.42.67,2.13.76S180.85,130,180.21,129.92Z"/><path class="cls-1" d="M186.89,129.51c-.33-.81-.45-2.13-1.17-2.75a25.65,25.65,0,0,1-.91-3.17.5.5,0,0,0-.73-.29c-.9.47-1.46.62-1.51,1.68-.07,1.54-.06,3.07-.22,4.61,0,0,0,.06,0,.09a.48.48,0,0,0-.29.82c.84.78,1.79.23,2.31-.63.29-.48.32-1.7.7-2h0c.27.67.56,1.34.89,2C186.22,130.39,187.1,130,186.89,129.51Z"/><path class="cls-1" d="M187,140.6a11.22,11.22,0,0,0-.06-2.53c-.22-.82-1.6-1-2.33-1a.54.54,0,0,0-.48.37,2.7,2.7,0,0,0-.12.71.46.46,0,0,0-.24.42c0,.52,0,1,0,1.54a15.82,15.82,0,0,0-.16,2.84.55.55,0,0,0,.4.46l-.14.22c-.35.53.51,1,.86.5a7.35,7.35,0,0,1,1.15-1.44c.11.3.21.78.25.91a.5.5,0,0,0,1-.13C187.08,142.52,187,141.56,187,140.6Z"/><path class="cls-1" d="M227.83,143.82a1.43,1.43,0,0,0-1.3-.7,18.45,18.45,0,0,0-4,.38,11.7,11.7,0,0,0-1.71.2c-.28-.3-.9-.22-.85.3l0,.37a1.86,1.86,0,0,0,.13,1.25c.05.54.11,1.08.16,1.63a5.72,5.72,0,0,0,.12,1c-3.27-.71-6.69-.18-10-.73a.4.4,0,0,0-.22,0c-16.39-.57-32.94,1.2-49.29,2.14-.64,0-.64,1,0,1,16.4-.95,33-2.73,49.44-2.15,0,0,0,0,.07,0,3.53.54,7.24-.09,10.68.94a.5.5,0,0,0,.54-.75,4.81,4.81,0,0,0,1.64-2.11c.93,1.35,2.38,3.54,4,2.7.7-.37.74-1.05.74-1.78C228,146.44,228.32,144.76,227.83,143.82Z"/><path class="cls-1" d="M252.77,153.76c-7.22-1-14.47-.77-21.73-.57-7,.19-14-.55-21-.44a.39.39,0,0,0-.41-.21c-3.65.39-7.46-.58-11.16-.49q-6.36.15-12.72.43Q173,153,160.3,154c-.63.05-.64,1,0,1q12.69-1,25.42-1.55c4.24-.18,8.48-.34,12.72-.44,3.16-.07,6.34.61,9.48.59a.45.45,0,0,0,.37.15c7.26-.27,14.52.61,21.79.43,7.48-.19,15-.55,22.42.51C253.13,154.81,253.4,153.85,252.77,153.76Z"/><path class="cls-1" d="M205.77,156v.18A.52.52,0,0,0,205,156c0-.59-.95-.58-1,0a35.43,35.43,0,0,0,0,3.57.51.51,0,0,0,.86.34c.17.49,1,.46,1-.13,0-.18,0-.36,0-.54a.5.5,0,0,0,.94-.22c0-1,0-2.06,0-3.09A.5.5,0,0,0,205.77,156Z"/><path class="cls-1" d="M206.57,162.05a.4.4,0,0,0-.15-.38.45.45,0,0,0-.46-.32.47.47,0,0,0-.17,0v0a.5.5,0,0,0-1-.26c-.07.25-.12.5-.18.75,0,0,0-.05,0-.08.13-.62-.83-.89-1-.26a6.91,6.91,0,0,0,.06,3.29.49.49,0,0,0,.86.16.49.49,0,0,0,.72-.43,14.28,14.28,0,0,1,.18-2,8.72,8.72,0,0,0,.16,2.1c.12.62,1.08.36,1-.27A8,8,0,0,1,206.57,162.05Z"/><path class="cls-1" d="M213.34,155.66q-.12.41-.21.81c.11-.62-.84-.88-1-.26a15.48,15.48,0,0,0-.29,3.78c0,.64,1,.65,1,0,0-.22,0-.45,0-.68a.5.5,0,0,0,.95-.21,10.71,10.71,0,0,1,.48-3.18C214.49,155.31,213.53,155.05,213.34,155.66Z"/><path class="cls-1" d="M214.43,155.87a11.13,11.13,0,0,0-.22,3.64c.07.63,1.06.64,1,0a10.38,10.38,0,0,1,.18-3.38C215.52,155.51,214.56,155.24,214.43,155.87Z"/><path class="cls-1" d="M214.21,161.71c-.08,1.1-.15,2.2-.22,3.3-.05.63.95.63,1,0,.08-1.1.15-2.2.22-3.3C215.25,161.07,214.25,161.07,214.21,161.71Z"/><path class="cls-1" d="M213.74,163.35c0-.1-.16-1.22-.17-1.21.54-.35,0-1.21-.5-.86a.84.84,0,0,0-.22.19.51.51,0,0,0-.83.38,19.24,19.24,0,0,0,.06,2.4.52.52,0,0,0,.79.4v.08c.06.63,1.05.64,1,0C213.83,164.27,213.78,163.81,213.74,163.35Z"/><path class="cls-1" d="M190.65,124.71l-.33,1a.38.38,0,0,0,.1.44s0,0,.05.06h0a.41.41,0,0,0,.3.12.45.45,0,0,0,.37-.17.56.56,0,0,0,.12-.2l.33-1C191.81,124.36,190.85,124.1,190.65,124.71Z"/><path class="cls-1" d="M193.22,123.12l-.22,3.36c-.05.64.95.64,1,0l.23-3.36C194.26,122.49,193.26,122.49,193.22,123.12Z"/><path class="cls-1" d="M196.64,124.08a.29.29,0,0,0,0-.09c0-.61,0-1.22,0-1.83a.5.5,0,0,0-1,0l.06,3.68a.5.5,0,0,0,1,0Z"/><path class="cls-1" d="M215.41,127.13c-.39-1.07-.8-2.14-1.22-3.19-.27-.66-.45-1.65-1.17-2a.63.63,0,0,0-.45,0,.62.62,0,0,0-.3,0,.69.69,0,0,0-.27.14.47.47,0,0,0-.75.39l-.08,3.65a.54.54,0,0,0,.14.34c0,.16,0,.32-.05.48,0,.44.41.56.72.4a.48.48,0,0,0,.75-.12,4.31,4.31,0,0,0,.29-.83.43.43,0,0,0,.22-.28l0,0a4.52,4.52,0,0,0,.38-.84c.27.71.54,1.41.8,2.12S215.63,127.73,215.41,127.13Z"/><path class="cls-1" d="M112.64,148.72a4.84,4.84,0,0,0-2.46.43.39.39,0,0,0-.25.37.5.5,0,0,0,.32.87.46.46,0,0,0,.47-.4,3.94,3.94,0,0,1,1.92-.28C113.27,149.77,113.27,148.78,112.64,148.72Z"/><path class="cls-1" d="M109.71,154.14a1.58,1.58,0,0,0-.18,1.24.5.5,0,0,0,1-.26.58.58,0,0,1,.08-.48C110.91,154.09,110.05,153.59,109.71,154.14Z"/><path class="cls-1" d="M112.73,154.5a.28.28,0,0,1,0-.11,1,1,0,0,1,0-.42.5.5,0,0,0-.49-.5.51.51,0,0,0-.5.5,1.8,1.8,0,0,0,.31,1.23c.27.37.91.54,1.16.05A.52.52,0,0,0,112.73,154.5Z"/><path class="cls-1" d="M117,155a2.43,2.43,0,0,1-.19-1.16.51.51,0,0,0-.5-.49.5.5,0,0,0-.5.49,3.13,3.13,0,0,0,.23,1.42.52.52,0,0,0,.61.35A.51.51,0,0,0,117,155Z"/><path class="cls-1" d="M118.93,154.26l-.27-.93a.5.5,0,0,0-1,.27l.27.93A.5.5,0,0,0,118.93,154.26Z"/><path class="cls-1" d="M127.89,152a.49.49,0,0,0-.46.23c-.3.45-.75,1.62.06,1.84s1-1,1.14-1.53S128.23,151.85,127.89,152Z"/><path class="cls-1" d="M130.92,153.67a2.79,2.79,0,0,1-.22-1.14.5.5,0,0,0-1,0,3.51,3.51,0,0,0,.25,1.4.51.51,0,0,0,.61.35A.49.49,0,0,0,130.92,153.67Z"/><path class="cls-1" d="M134.47,153.85a4.65,4.65,0,0,1-.11-1.49c0-.64-1-.63-1,0a5.71,5.71,0,0,0,.15,1.75C133.65,154.74,134.61,154.47,134.47,153.85Z"/><path class="cls-1" d="M137.21,153.32a1.45,1.45,0,0,1-.07-.62.4.4,0,0,0-.2-.38l0-.08a.5.5,0,0,0-1,.26l.29,1.08A.5.5,0,0,0,137.21,153.32Z"/><path class="cls-1" d="M140.43,151.88a.47.47,0,0,0-.51.17.51.51,0,0,0-.6.35,2,2,0,0,0,.1,1.1.5.5,0,0,0,1,0l.39-1A.49.49,0,0,0,140.43,151.88Z"/><path class="cls-1" d="M143.23,151.81l-.06-.11a.5.5,0,0,0-.86.5l.53.88a.5.5,0,0,0,.92-.25l0-.55A.46.46,0,0,0,143.23,151.81Z"/><path class="cls-1" d="M146.8,152.32a.38.38,0,0,0-.18-.25v0a.49.49,0,0,0-.44-.7h-.09a.46.46,0,0,0-.46.37.49.49,0,0,0,0,.41v.1a.69.69,0,0,0,0,.32.61.61,0,1,0,1.19-.23Z"/><path class="cls-1" d="M149.65,151.59s0-.06,0-.08a.52.52,0,0,0-.18-.68.5.5,0,0,0-.68.17,1.88,1.88,0,0,0,0,1.65.5.5,0,0,0,.91-.12l.11-.46A.5.5,0,0,0,149.65,151.59Z"/><path class="cls-1" d="M153.57,150.41a.44.44,0,0,0-.38.2h0a.5.5,0,0,0-.61.35,3.19,3.19,0,0,0,.13,1.62c.13.35.72.55.91.12a5.79,5.79,0,0,0,.47-1.78A.5.5,0,0,0,153.57,150.41Z"/><path class="cls-1" d="M156.54,151.43a.55.55,0,0,0-.28-.45v0c-.13-.63-1.09-.36-.95.26l.21,1a.5.5,0,0,0,1,0A1.85,1.85,0,0,0,156.54,151.43Z"/><path class="cls-1" d="M204.83,172.49c-.08-.63-1.07-.64-1,0a17.88,17.88,0,0,1,0,3.87c-.06.64.93.63,1,0A17.89,17.89,0,0,0,204.83,172.49Z"/><path class="cls-1" d="M207.13,172.1c0-.64-1-.64-1,0,0,.33,0,.67,0,1a4.05,4.05,0,0,0-.18-1c-.19-.61-1.15-.35-1,.27.48,1.49-.16,3.08.09,4.62.1.63,1.06.36,1-.26a10.12,10.12,0,0,1,.06-2.52c0,.67,0,1.34.06,2s1,.65,1,0A40.05,40.05,0,0,1,207.13,172.1Z"/><path class="cls-1" d="M213.06,172.1c0-.64-1-.64-1,0a33.86,33.86,0,0,0,0,4c0,.63,1,.64,1,0A33.86,33.86,0,0,1,213.06,172.1Z"/><path class="cls-1" d="M213.64,171.88a37.66,37.66,0,0,0-.29,4.64c0,.64,1,.64,1,0a37.46,37.46,0,0,1,.26-4.38C214.71,171.51,213.75,171.24,213.64,171.88Z"/><path class="cls-1" d="M215.65,172.18a.5.5,0,0,0-1,0,26.78,26.78,0,0,1-.23,4.1c-.09.63.91.62,1,0A26.78,26.78,0,0,0,215.65,172.18Z"/><path class="cls-1" d="M221.7,172.89c.05-.64-.95-.64-1,0a30.62,30.62,0,0,0-.05,3.71c0,.64,1,.64,1,0A30.62,30.62,0,0,1,221.7,172.89Z"/><path class="cls-1" d="M225.39,172.49a.5.5,0,0,0-1,0,17.25,17.25,0,0,0,.26,3.29c.11.63,1.07.37,1-.26A16.15,16.15,0,0,1,225.39,172.49Z"/><path class="cls-1" d="M226.69,172.61c.2-.61-.76-.87-1-.26a4.31,4.31,0,0,0-.12,1.68l.09,2.25c0,.64,1,.64,1,0l-.09-1.95A4.73,4.73,0,0,1,226.69,172.61Z"/><path class="cls-1" d="M226,161.77c-.06-.54-.81-.62-1-.22v-.06c.1-.63-.86-.9-1-.26a8.94,8.94,0,0,0,.1,3.34c.13.63,1.09.36,1-.26a7.91,7.91,0,0,1-.13-2.52c.11,1,.25,1.91.41,2.87.11.63,1.07.36,1-.27C226.26,163.52,226.13,162.65,226,161.77Z"/><path class="cls-1" d="M225.65,156.66c-.12.85-.21,1.71-.28,2.57a14.89,14.89,0,0,1,0-2.67c.07-.64-.93-.63-1,0a14.74,14.74,0,0,0,0,3.32c.07.6,1,.62,1,.05a.51.51,0,0,0,.9-.3c.06-.9.15-1.81.28-2.71C226.7,156.3,225.74,156,225.65,156.66Z"/><path class="cls-1" d="M221.58,157.85c-.09-.64-1.05-.37-1,.26a18,18,0,0,1,.15,2.08.5.5,0,0,0,1,0A22.6,22.6,0,0,0,221.58,157.85Z"/><path class="cls-1" d="M221.76,162.45c.09-.63-.87-.9-1-.26a18.1,18.1,0,0,0-.19,3.12.5.5,0,0,0,1,0A17.15,17.15,0,0,1,221.76,162.45Z"/><path class="cls-1" d="M230.34,157.22a17.29,17.29,0,0,0-.27,3.05.5.5,0,0,0,1,0,14.46,14.46,0,0,1,.23-2.79C231.41,156.85,230.45,156.59,230.34,157.22Z"/><path class="cls-1" d="M230.72,162.16a.5.5,0,0,0-1,0l.12,3.15a.5.5,0,0,0,1,0Z"/><path class="cls-1" d="M234.44,157.26c.06-.63-.94-.63-1,0a18.39,18.39,0,0,0,0,3.71c.07.63,1.07.64,1,0A18.39,18.39,0,0,1,234.44,157.26Z"/><path class="cls-1" d="M235.69,156.79c0-.64-1-.64-1,0a27.78,27.78,0,0,0,.05,3.87c0,.63,1,.64,1,0A27.77,27.77,0,0,1,235.69,156.79Z"/><path class="cls-1" d="M235.06,161.57c-.52.25-.49.81-.49,1.3v2.6a.5.5,0,0,0,1,0v-1.64a8.23,8.23,0,0,1,0-1.4C236.13,162.15,235.63,161.29,235.06,161.57Z"/><path class="cls-1" d="M233.43,162.47a14,14,0,0,1-.32,3.41c-.13.62.83.89,1,.26a15.09,15.09,0,0,0,.36-3.67A.5.5,0,0,0,233.43,162.47Z"/><path class="cls-1" d="M230.66,172.73a12.75,12.75,0,0,1-.67,3c-.21.61.75.87,1,.27a14.12,14.12,0,0,0,.71-3.28C231.71,172.1,230.72,172.1,230.66,172.73Z"/><path class="cls-1" d="M234.84,176.54a22.49,22.49,0,0,1-.47-2.94c-.06-.63-1.05-.64-1,0a24.9,24.9,0,0,0,.5,3.21C234,177.43,235,177.17,234.84,176.54Z"/><path class="cls-1" d="M235.91,173.13c-.08-.63-1.07-.63-1,0l.36,3c.07.62,1.07.63,1,0C236.15,175.13,236,174.13,235.91,173.13Z"/><path class="cls-1" d="M223.13,133c.07-.64-.92-.63-1,0a21.54,21.54,0,0,0,.06,5.2c.08.63,1.08.64,1,0A22.61,22.61,0,0,1,223.13,133Z"/><path class="cls-1" d="M224.51,134.38a7.35,7.35,0,0,1-.21-1.72c.12-.62-.84-.89-1-.26a14.2,14.2,0,0,0,.2,2.89c0,1.3,0,2.6-.08,3.9a.5.5,0,0,0,1,0c0-1.15,0-2.3.07-3.45C224.53,135.29,224.54,134.83,224.51,134.38Z"/><path class="cls-1" d="M228.33,132.24c-.31-.57-1.17-.06-.86.5.38.73,0,2.15,0,3,0,1-.06,2-.1,2.94a.5.5,0,0,0,1,0l.12-3.93A4.9,4.9,0,0,0,228.33,132.24Z"/><path class="cls-1" d="M230.25,132.79c.1-.62-.86-.89-1-.26a35.49,35.49,0,0,0-.44,6.83.5.5,0,0,0,1,0A34.43,34.43,0,0,1,230.25,132.79Z"/><path class="cls-1" d="M239.94,157.74c0-.64-1-.64-1,0,.1,1.29.2,2.58.29,3.87,0,.63,1,.64,1,0Z"/><path class="cls-1" d="M240.12,162.74c-.12-.63-1.08-.36-1,.26a21.21,21.21,0,0,1,.32,2.63c0,.64,1,.64,1,0A21.51,21.51,0,0,0,240.12,162.74Z"/><path class="cls-1" d="M242.53,157.36a5.82,5.82,0,0,0-.12,2.72c.11.63,1.07.36,1-.26a4.64,4.64,0,0,1,.12-2.19A.5.5,0,0,0,242.53,157.36Z"/><path class="cls-1" d="M243.81,157.29a7.47,7.47,0,0,0-.15,2.26c.05.64,1.05.64,1,0a6.42,6.42,0,0,1,.12-2C244.9,156.93,243.94,156.66,243.81,157.29Z"/><path class="cls-1" d="M243.53,162a.5.5,0,0,0-1,0,14.11,14.11,0,0,0,.18,2.34c.1.63,1.06.36,1-.26A14.45,14.45,0,0,1,243.53,162Z"/><path class="cls-1" d="M244.77,162.39c.08-.63-.92-.63-1,0a9.42,9.42,0,0,0,0,2.43c.09.63,1.05.36,1-.27A8.67,8.67,0,0,1,244.77,162.39Z"/><path class="cls-1" d="M243.11,174a.5.5,0,0,0-.39-.8.45.45,0,0,0-.43.29.48.48,0,0,0-.18.36,23.69,23.69,0,0,0,.12,2.92c.07.63,1.07.64,1,0A21.4,21.4,0,0,1,243.11,174Z"/><path class="cls-1" d="M244.85,173.05c0-.64-1-.64-1,0,.06,1.13.11,2.26.17,3.39,0,.64,1,.64,1,0Z"/><path class="cls-1" d="M249.3,157.92c-.19-.61-1.15-.35-1,.26a6.6,6.6,0,0,1,.26,2.79c-.08.64.92.63,1,0A7,7,0,0,0,249.3,157.92Z"/><path class="cls-1" d="M249.51,162.71c-.06-.64-1-.64-1,0a18.46,18.46,0,0,1-.08,3.86c-.08.64.91.63,1,0A17.8,17.8,0,0,0,249.51,162.71Z"/><path class="cls-1" d="M252.5,158.13c.08-.63-.91-.63-1,0a8.22,8.22,0,0,0,0,2.27c.08.63,1,.36,1-.26A8,8,0,0,1,252.5,158.13Z"/><path class="cls-1" d="M253.54,157.82c-.06-.63-1.06-.64-1,0l.27,2.68c.06.63,1.05.64,1,0C253.71,159.61,253.63,158.71,253.54,157.82Z"/><path class="cls-1" d="M252.59,162.79l-.14,1.29a9.35,9.35,0,0,0-.19-1.18c-.13-.63-1.09-.36-1,.26a10.84,10.84,0,0,1,.24,2.47.5.5,0,0,0,.93.23.54.54,0,0,0,.83-.39c.1-.89.19-1.78.28-2.68C253.65,162.16,252.65,162.16,252.59,162.79Z"/><path class="cls-1" d="M258.14,160.91a5.31,5.31,0,0,1-.18-3c.15-.62-.81-.89-1-.26a6.27,6.27,0,0,0,.18,3.51C257.4,161.78,258.36,161.52,258.14,160.91Z"/><path class="cls-1" d="M257.22,162.63l-.1,3.63c0,.64,1,.64,1,0l.09-3.63A.5.5,0,0,0,257.22,162.63Z"/><path class="cls-1" d="M260,158.45a23.79,23.79,0,0,0-.12,3.16c0,.64,1,.64,1,0a20.83,20.83,0,0,1,.12-3.16C261.09,157.81,260.09,157.82,260,158.45Z"/><path class="cls-1" d="M262.52,158c.09-.63-.87-.9-1-.27a9.41,9.41,0,0,0,0,2.95c.11.63,1.07.36,1-.26A7.86,7.86,0,0,1,262.52,158Z"/><path class="cls-1" d="M262.42,162.47c-.06-.63-1.05-.64-1,0v.08c-.16-.59-1.08-.32-.95.29a8.73,8.73,0,0,1,.13,3c-.09.63.87.9,1,.26,0-.29.06-.58.08-.87l.09,1.14c.06.63,1.05.64,1,0C262.63,165.05,262.52,163.76,262.42,162.47Z"/><path class="cls-1" d="M266,158.37l0,0,0,0a.46.46,0,0,0-.32-.12.46.46,0,0,0-.31.12l0,0,0,0a.46.46,0,0,0-.12.32v2.36a.5.5,0,0,0,1,0v-2.36A.46.46,0,0,0,266,158.37Z"/><path class="cls-1" d="M266.75,163.11c-.21-.6-1.18-.34-1,.26a3.87,3.87,0,0,1,0,1.36c0,.49,0,1,0,1.45a.5.5,0,0,0,1,0l0-1.67A3.87,3.87,0,0,0,266.75,163.11Z"/><path class="cls-1" d="M253.88,178.16l-.23-.32a.5.5,0,0,0-.91.12.29.29,0,0,0,0-.18.41.41,0,0,1,0-.22.51.51,0,0,0-.18-.68.48.48,0,0,0-.18-.06.37.37,0,0,0,.08-.3c-.12-1.23-.19-2.47-.19-3.71a.5.5,0,0,0-1,0,35.32,35.32,0,0,0,.19,3.71.51.51,0,0,0,.47.46s0,.05-.06.08a1.28,1.28,0,0,0-.14.72.5.5,0,0,0,.49.5.55.55,0,0,0,.47-.3.41.41,0,0,0,0,.37l.23.31a.52.52,0,0,0,.69.18A.49.49,0,0,0,253.88,178.16Z"/><path class="cls-1" d="M254,176.54a23,23,0,0,1-.43-3.41c0-.64-1-.64-1,0a25.37,25.37,0,0,0,.47,3.68C253.18,177.44,254.14,177.17,254,176.54Z"/><path class="cls-1" d="M257.8,173.36c0-.63-1-.64-1,0,.06,1.37.18,2.74.33,4.1.07.63,1.06.64,1,0C258,176.1,257.87,174.73,257.8,173.36Z"/><path class="cls-1" d="M261.33,173.44a.5.5,0,0,0-1,0l.09,4.18a.5.5,0,0,0,1,0Z"/><path class="cls-1" d="M262.75,173.6c-.06-.63-1.05-.64-1,0,.09,1,.17,2,.26,3,.05.63,1.05.64,1,0C262.92,175.6,262.83,174.6,262.75,173.6Z"/><path class="cls-1" d="M266.73,173.39c-.29-.57-1.15-.06-.86.51a5.81,5.81,0,0,1,.76,3.25c-.08.64.91.63,1,0A6.65,6.65,0,0,0,266.73,173.39Z"/><path class="cls-1" d="M269.92,174.15a.5.5,0,0,0-1,0c0,1,.1,2.06.21,3.08.06.63,1.06.64,1,0C270,176.21,270,175.18,269.92,174.15Z"/><path class="cls-1" d="M271.34,173.6c-.06-.64-1.06-.64-1,0,.1,1,.18,1.94.25,2.92,0,.64,1,.64,1,0C271.53,175.54,271.45,174.57,271.34,173.6Z"/><path class="cls-1" d="M236.42,147.51c0-.13,0-.27,0-.41a.46.46,0,0,0,.06-.31l-.06-.3a9.38,9.38,0,0,0-.13-2.34c-.11-.43-.2-.56-.63-.69a18.83,18.83,0,0,0-3.53-.29c-.63,0-1.65-.35-2.22,0a1.47,1.47,0,0,0-.55,1.2.67.67,0,0,0,0,.22l.14,4.27a.52.52,0,0,0,.37.48c.68.13,1.47.62,2.11.1.18-.14.23-.44.38-.57.64-.55,1.33.47,1.46,1.06a.51.51,0,0,0,.48.37c.56,0,1.72.15,2.11-.39S236.44,148.14,236.42,147.51Z"/><path class="cls-1" d="M245.26,145a.9.9,0,0,0-.24-.72c-.33-.29-1.05-.23-1.43-.27-.74-.07-1.48-.16-2.23-.22a5.63,5.63,0,0,0-2,0,.51.51,0,0,0-.9.3,46.69,46.69,0,0,0,0,5.42.49.49,0,0,0,.49.49,1.9,1.9,0,0,0,1.68-1.41c.11-.28.11-.65.36-.85s.49.22.7.57a5.15,5.15,0,0,0,.93,1.38,1.51,1.51,0,0,0,1.87.2c.88-.63.57-1.87.51-2.78A21.24,21.24,0,0,1,245.26,145Z"/><path class="cls-1" d="M253.81,144.7l-2.92-.25c-.49,0-1.39-.3-1.83.08h0a.5.5,0,0,0-1,.19c0,1.78,0,3.55-.14,5.33a.48.48,0,0,0,.36.47,1.89,1.89,0,0,0,1.76-.63c1-.79,2.1.47,3.19.47.58,0,.78-.37.81-.9a35.82,35.82,0,0,1,.21-4.13A.51.51,0,0,0,253.81,144.7Z"/><path class="cls-1" d="M269.9,158.52c.09-.63-.86-.9-1-.27a10.31,10.31,0,0,0-.07,2.88c.08.63,1.08.64,1,0A9.13,9.13,0,0,1,269.9,158.52Z"/><path class="cls-1" d="M271,158.49a.51.51,0,0,0-.5-.5.5.5,0,0,0-.49.5l.18,1.72a.51.51,0,0,0,.49.5.5.5,0,0,0,.5-.5Z"/><path class="cls-1" d="M269.81,163.48v2.14a.5.5,0,0,0,1,0v-2.14A.5.5,0,0,0,269.81,163.48Z"/><path class="cls-1" d="M269.75,163.57c.07-.63-.92-.62-1,0a11.26,11.26,0,0,0,0,2.9c.09.63,1,.36,1-.27A10.07,10.07,0,0,1,269.75,163.57Z"/><path class="cls-1" d="M275,159.3a.5.5,0,0,0-1,0,20,20,0,0,0,.22,2.68c.09.63,1.05.36,1-.26A17.91,17.91,0,0,1,275,159.3Z"/><path class="cls-1" d="M275.47,164.5a.5.5,0,0,0-1,0l0,2.54a.5.5,0,0,0,1,0Z"/><path class="cls-1" d="M278.25,159c0-.64-1-.64-1,0a8.37,8.37,0,0,0,.12,1.87c.11.63,1.07.36,1-.27A7.13,7.13,0,0,1,278.25,159Z"/><path class="cls-1" d="M278.68,159.3l-.12,2.14c0,.64,1,.63,1,0l.12-2.14C279.71,158.66,278.72,158.66,278.68,159.3Z"/><path class="cls-1" d="M279.32,163.17c.07-.64-.93-.64-1,0a9.64,9.64,0,0,0,.09,2.68c.1.63,1.06.36,1-.27A9.27,9.27,0,0,1,279.32,163.17Z"/><path class="cls-1" d="M277.25,163.58v2.65a.5.5,0,0,0,1,0v-2.65A.5.5,0,0,0,277.25,163.58Z"/><path class="cls-1" d="M275.84,174.1c.1-.63-.86-.9-1-.26a10.2,10.2,0,0,0,0,3.12c.09.63,1.05.36,1-.27A8.33,8.33,0,0,1,275.84,174.1Z"/><path class="cls-1" d="M275.21,178.76a.52.52,0,0,0-.5-.49c-.24,0-.53.23-.5.49l.1.82a.52.52,0,0,0,.5.5.51.51,0,0,0,.5-.5Z"/><path class="cls-1" d="M278.38,174.18c-.05-.64-1-.64-1,0,.07.95.15,1.9.22,2.86.05.63,1.05.64,1,0C278.53,176.08,278.46,175.13,278.38,174.18Z"/><path class="cls-1" d="M279.34,173.74c-.12-.63-1.08-.36-1,.27.2,1.08.41,2.17.61,3.26.12.63,1.08.36,1-.27Z"/><path class="cls-1" d="M283.64,159.7a.38.38,0,0,0-.28-.44A.43.43,0,0,0,283,159a.5.5,0,0,0-.32.87,12,12,0,0,0-.07,2.08c0,.63,1,.64,1,0A12.11,12.11,0,0,1,283.64,159.7Z"/><path class="cls-1" d="M283.78,163.88a.5.5,0,0,0-1,0c0,1.09,0,2.18.1,3.26,0,.64,1,.64,1,0C283.8,166.06,283.77,165,283.78,163.88Z"/><path class="cls-1" d="M285.51,158.79v1.73a.5.5,0,0,0,1,0v-1.73A.5.5,0,0,0,285.51,158.79Z"/><path class="cls-1" d="M287.07,159.07a9.45,9.45,0,0,0-.25,1.76c0,.64,1,.63,1,0a7.63,7.63,0,0,1,.21-1.5A.5.5,0,0,0,287.07,159.07Z"/><path class="cls-1" d="M287.69,164.08c.07-.63-.92-.63-1,0a14.33,14.33,0,0,0-.06,2.45c0,.64,1,.64,1,0A14.33,14.33,0,0,1,287.69,164.08Z"/><path class="cls-1" d="M285.66,164.17l-.54,2.64c-.13.63.83.89,1,.26l.54-2.64C286.75,163.81,285.79,163.54,285.66,164.17Z"/><path class="cls-1" d="M262.64,146.29c-.09-1-.61-1.06-1.56-1.11A24.68,24.68,0,0,0,257,145a.52.52,0,0,0-.85.49c0,.21.08.41.11.62a5.77,5.77,0,0,0,.16,1.58c.06.87.08,1.75.14,2.64,0,.64.26,1.29,1,1.23a1.13,1.13,0,0,0,.88-.61c.14-.26.08-1.22.23-1.34.55-.42,1.91,1.83,2.67,1.91C263.42,151.73,262.72,147.29,262.64,146.29Z"/><path class="cls-1" d="M271.51,147.72a4.82,4.82,0,0,0-.41-2.6c-.48-.65-1.2-.59-1.94-.53l-3.88.35c-.62.06-.63,1,0,1A20.84,20.84,0,0,0,266,151a.51.51,0,0,0,.91.12l1.16-1.61a2.85,2.85,0,0,0,.82,1.69,3.29,3.29,0,0,0,2.37.12.48.48,0,0,0,.35-.35A17.16,17.16,0,0,0,271.51,147.72Z"/><path class="cls-1" d="M279.75,146.19c-.05-.41-.11-.71-.51-.91a5.42,5.42,0,0,0-2.16-.2c-1,0-1.94,0-2.9,0a.53.53,0,0,0-.4.81,7.58,7.58,0,0,0-.25,2.92c.07.65.16,1.71.74,2.14a.87.87,0,0,0,1.16-.08,4.91,4.91,0,0,0,.74-1.2l.43-.73a13.39,13.39,0,0,0,.84,1.89,1.07,1.07,0,0,0,.94.67c1.66.08,1.36-1.3,1.37-2.5A24.81,24.81,0,0,0,279.75,146.19Z"/><path class="cls-1" d="M287.3,146.21a4.49,4.49,0,0,0-1.75-.31,27.44,27.44,0,0,0-3-.12,1.08,1.08,0,0,0-.71.67c.06,1.29.11,2.59.16,3.89,0,.59,0,1.35.69,1.5a.5.5,0,0,0,.56-.23l.76-1.69c.52.58,1,1.18,1.45,1.82.21.28.4.58.77.66,1.36.27,1.26-1.67,1.29-2.43s.09-1.77.11-2.65C287.63,146.88,287.68,146.5,287.3,146.21Z"/><path class="cls-1" d="M291.61,150.52a12.48,12.48,0,0,0-.2-4,.5.5,0,0,0-.94-.06.51.51,0,0,0-.36.46,13.51,13.51,0,0,0,.51,4.6.48.48,0,0,0,.27.3.53.53,0,0,0,.78-.55l-.09-.69A.45.45,0,0,0,291.61,150.52Z"/><path class="cls-1" d="M297.25,148.22c0-.17,0-.33-.05-.49a.53.53,0,0,0-.08-.22A4.64,4.64,0,0,0,297,147a.5.5,0,0,0-.92-.08.58.58,0,0,0-.2.11c-.54.47-.35,1.31-.31,2a29.37,29.37,0,0,0,.38,2.95.5.5,0,0,0,.91.12c.05-.11.08-.22.12-.33a.53.53,0,0,0,.25-.39A12.31,12.31,0,0,0,297.25,148.22Z"/><path class="cls-1" d="M304.48,147.47a2,2,0,0,0-1.44-.29c-.92.08-1.85.24-2.78.36-.55.08-.62.87-.19,1a2.75,2.75,0,0,0,0,.52v.37a7,7,0,0,0-.15,1.94.5.5,0,0,0,.63.48h0a1,1,0,0,0,.35.68c.43.3.83,0,1.15-.34.64-.59,1.26-1.22,1.85-1.87S305.54,148.31,304.48,147.47Z"/><path class="cls-1" d="M302.52,163.85c-.11-.63-1.07-.36-1,.26l.51,3.16c.1.63,1.06.37,1-.26Z"/><path class="cls-1" d="M303.51,163.34c-.09-.63-1-.36-1,.27.17,1.19.34,2.38.5,3.57.09.63,1.05.36,1-.27C303.85,165.72,303.68,164.53,303.51,163.34Z"/><path class="cls-1" d="M304.25,163.44a10.78,10.78,0,0,0-.18,4c.1.63,1.06.37,1-.26a9.28,9.28,0,0,1,.18-3.52C305.36,163.08,304.4,162.82,304.25,163.44Z"/><path class="cls-1" d="M312.43,157.76c.06-.63-.93-.63-1,0a39,39,0,0,0,.11,8.37c.07.63,1.07.64,1,0A39.69,39.69,0,0,1,312.43,157.76Z"/><path class="cls-1" d="M314.38,157.56a.5.5,0,0,0-1,0q0,4.44.08,8.87a.5.5,0,0,0,1,0C314.39,163.48,314.37,160.52,314.38,157.56Z"/><path class="cls-1" d="M317.38,157.72c-.75,2.59-.25,5.74-.21,8.41a.5.5,0,0,0,1,0c0-2.57-.54-5.66.18-8.15A.5.5,0,0,0,317.38,157.72Z"/><path class="cls-1" d="M320.48,165.91a15.94,15.94,0,0,1-.23-3.84c0-1.24-.54-2.69-.36-3.87.09-.63-.86-.9-1-.27-.21,1.4.3,2.72.33,4.14a18.13,18.13,0,0,0,.26,4.1C319.67,166.79,320.63,166.53,320.48,165.91Z"/><path class="cls-1" d="M311.37,136.52c-.15-.62-1.11-.36-1,.26.84,3.46.25,7,.44,10.5,0,.64,1,.64,1,0C311.65,143.68,312.23,140.07,311.37,136.52Z"/><path class="cls-1" d="M313.89,137.28c.06-.64-.94-.64-1,0a77,77,0,0,0-.33,10.3c0,.64,1,.64,1,0A77,77,0,0,1,313.89,137.28Z"/><path class="cls-1" d="M317.6,137.08a.5.5,0,0,0-1,0,47.78,47.78,0,0,0,.58,9.1c.11.63,1.06.37,1-.26A45.87,45.87,0,0,1,317.6,137.08Z"/><path class="cls-1" d="M319.72,136.46a.5.5,0,0,0-1,0,88.47,88.47,0,0,0,.38,10.8c.06.64,1,.64,1,0A88.46,88.46,0,0,1,319.72,136.46Z"/><path class="cls-1" d="M322.08,154.19a79.46,79.46,0,0,0-14.29.77c-.63.09-.36,1,.26,1a78.4,78.4,0,0,1,14-.74A.5.5,0,0,0,322.08,154.19Z"/><path class="cls-1" d="M339.73,148.9q-8.87-.43-17.68-1.3a.49.49,0,0,0-.4-.11,94.92,94.92,0,0,1-15.06,1,.5.5,0,0,0,0,1,96.8,96.8,0,0,0,14.93-1l.16.05q9,.9,18.05,1.33C340.37,149.92,340.37,148.93,339.73,148.9Z"/><path class="cls-1" d="M338.64,154.91c-4.21-.72-8.47-.18-12.7-.65-.64-.07-.63.93,0,1,4.14.45,8.31-.1,12.43.61C339,156,339.27,155,338.64,154.91Z"/><path class="cls-1" d="M328.61,138.1c.05-.64-.95-.64-1,0a89.64,89.64,0,0,0-.2,9.27.5.5,0,0,0,1,0A92.52,92.52,0,0,1,328.61,138.1Z"/><path class="cls-1" d="M330.3,137.79a.5.5,0,0,0-1,0l.09,9a.5.5,0,0,0,1,0Z"/><path class="cls-1" d="M332.57,137.18q-.4,4.83-.57,9.68a.5.5,0,0,0,1,0q.17-4.85.58-9.68C333.62,136.54,332.63,136.54,332.57,137.18Z"/><path class="cls-1" d="M334.93,137.15c.06-.64-.94-.63-1,0-.33,3.56.26,7.36.45,10.93,0,.64,1,.64,1,0C335.18,144.51,334.59,140.71,334.93,137.15Z"/><path class="cls-1" d="M339.26,129.45a95.23,95.23,0,0,0-32.48.18c-.63.11-.36,1.07.26,1a93.72,93.72,0,0,1,32-.18C339.62,130.52,339.89,129.56,339.26,129.45Z"/><path class="cls-1" d="M339.17,133.45c-5.28-.95-10.79-2.15-16.19-2-5.73.12-11.35,1.54-17.11,1.35-.64,0-.64,1,0,1,5.45.18,10.77-1.08,16.19-1.32,5.63-.26,11.34,1,16.85,2C339.54,134.53,339.8,133.57,339.17,133.45Z"/><path class="cls-1" d="M311.75,117.7c.06-.64-.94-.63-1,0a46.06,46.06,0,0,0,.35,9.09c.07.63,1.06.64,1,0A46.84,46.84,0,0,1,311.75,117.7Z"/><path class="cls-1" d="M313.46,117.82c0-.64-1-.64-1,0l.66,9.47c.05.64,1,.64,1,0Z"/><path class="cls-1" d="M317.61,117.2a.5.5,0,0,0-1,0c.11,3.4.05,6.8-.16,10.19,0,.64,1,.64,1,0Q317.78,122.31,317.61,117.2Z"/><ellipse class="cls-1" cx="319.84" cy="122.15" rx="0.5" ry="1306.41" transform="translate(-9.32 27.95) rotate(-4.93)"/><path class="cls-1" d="M328.93,117.63c.09-.63-.87-.9-1-.26a44.68,44.68,0,0,0-.33,9.32c0,.63,1,.64,1,0A43.55,43.55,0,0,1,328.93,117.63Z"/><path class="cls-1" d="M329.43,117.91l-.12,2.35c0,.64,1,.64,1,0l.12-2.35C330.46,117.27,329.47,117.28,329.43,117.91Z"/><path class="cls-1" d="M330.39,127.06l-.19-1.33a.5.5,0,0,0-.61-.34.5.5,0,0,0-.35.61l.19,1.33a.49.49,0,0,0,.61.34A.51.51,0,0,0,330.39,127.06Z"/><path class="cls-1" d="M334,117.11c.07-.63-.93-.63-1,0-.33,3.08-1.22,7.13-.2,10.13.21.6,1.17.35,1-.26C332.76,124.1,333.65,120.09,334,117.11Z"/><path class="cls-1" d="M335.66,117.82c.12-.63-.84-.9-1-.27-.62,3.36.07,6.68.07,10.06a.5.5,0,0,0,1,0C335.76,124.34,335.06,121.07,335.66,117.82Z"/><path class="cls-1" d="M339.35,115.57,330.76,114a37.67,37.67,0,0,0-7.68-1.06c-5.73.11-11.59,1.26-17.29,1.93-.63.07-.64,1.07,0,1,5.42-.63,10.87-1.51,16.31-1.87s11.55,1.57,17,2.58C339.71,116.65,340,115.69,339.35,115.57Z"/><path class="cls-1" d="M306.08,111.5a.5.5,0,0,0,0,1A.5.5,0,0,0,306.08,111.5Z"/><path class="cls-1" d="M337.58,111c-1-.19-2-.35-3-.5a64.94,64.94,0,0,1-.2-6.54c.07-2,.55-4,.62-6a.5.5,0,0,0-1,0c-.08,2-.56,4-.63,6s.06,4.26.19,6.39a76.37,76.37,0,0,0-25.67.88c-.62.13-.36,1.09.27,1a75.16,75.16,0,0,1,29.17-.23C337.94,112,338.21,111.08,337.58,111Z"/><path class="cls-1" d="M311,98.93a21.41,21.41,0,0,0-.08,9.12c.12.62,1.08.36,1-.27a20.23,20.23,0,0,1,.08-8.59C312.12,98.57,311.17,98.3,311,98.93Z"/><path class="cls-1" d="M314.1,98.44c0-.64-1-.64-1,0-.13,3.37-.12,6.73,0,10.1,0,.63,1,.64,1,0C314,105.17,314,101.81,314.1,98.44Z"/><path class="cls-1" d="M316.86,98.92c0-.64-1-.64-1,0-.12,3.28.31,6.63.32,9.92a.5.5,0,0,0,1,0C317.18,105.55,316.74,102.2,316.86,98.92Z"/><path class="cls-1" d="M319.48,97.93c0-.64-1-.63-1,0-.21,3.37-.29,6.73-.23,10.1a.5.5,0,0,0,1,0C319.2,104.66,319.27,101.3,319.48,97.93Z"/><path class="cls-1" d="M328.05,98.47c.15-.62-.81-.89-1-.27-.69,3-.06,6.52.06,9.52,0,.64,1,.64,1,0C328,104.81,327.38,101.32,328.05,98.47Z"/><path class="cls-1" d="M330.26,98.36c.12-.63-.84-.9-1-.27-.65,3.47-.33,7.33-.42,10.84a.5.5,0,0,0,1,0C330,105.5,329.63,101.73,330.26,98.36Z"/><path class="cls-1" d="M332.69,97.64h-.21a31.75,31.75,0,0,1-.61,1c-.68,3.13-.29,6.75-.34,9.94a.5.5,0,0,0,1,0c.06-3.09-.35-6.65.31-9.67a.56.56,0,0,0,0-.26A.5.5,0,0,0,332.69,97.64Z"/><path class="cls-1" d="M308.33,90.66l-.79-1.91a.52.52,0,0,0-.61-.35.5.5,0,0,0-.35.61l.79,1.91a.52.52,0,0,0,.61.35A.51.51,0,0,0,308.33,90.66Z"/><path class="cls-1" d="M311.58,90A16.35,16.35,0,0,1,311,87.9c-.12-.63-1.08-.36-.95.27a15.18,15.18,0,0,0,.55,2.08C310.83,90.85,311.79,90.59,311.58,90Z"/><path class="cls-1" d="M315.23,89.55a7.21,7.21,0,0,1-.44-1.7.51.51,0,0,0-.5-.5.5.5,0,0,0-.49.5,7.79,7.79,0,0,0,.47,2C314.5,90.4,315.47,90.14,315.23,89.55Z"/><path class="cls-1" d="M318.85,88.92a3.31,3.31,0,0,1-.24-1.59c.06-.63-.94-.63-1,0a4.28,4.28,0,0,0,.37,2.09C318.24,90,319.1,89.5,318.85,88.92Z"/><path class="cls-1" d="M328.33,87.55c.21-.6-.75-.86-1-.26a3.22,3.22,0,0,0,0,2.1c.2.6,1.16.34,1-.27A2.29,2.29,0,0,1,328.33,87.55Z"/><path class="cls-1" d="M330.51,89.65a10.39,10.39,0,0,1-.27-1.76.49.49,0,0,0-.41-.75h-.1a.48.48,0,0,0-.24.07.41.41,0,0,0-.26.43,11.5,11.5,0,0,0,.32,2.27A.5.5,0,0,0,330.51,89.65Z"/><path class="cls-1" d="M332.05,87.81c-.12-.62-1.08-.36-1,.27a7.13,7.13,0,0,1,.08,1.6c-.05.64.95.63,1,0A7.33,7.33,0,0,0,332.05,87.81Z"/><path class="cls-1" d="M333.41,88.05v2a.5.5,0,0,0,1,0v-2A.5.5,0,0,0,333.41,88.05Z"/><path class="cls-1" d="M336.85,88.39a1.47,1.47,0,0,0-.44-1c-.48-.42-1.18.28-.7.7.21.18.17.6.19.86L336,90c.06.63,1.06.64,1,0S336.91,88.92,336.85,88.39Z"/><path class="cls-1" d="M337.8,88.76v.82a.5.5,0,0,0,1,0v-.82A.5.5,0,0,0,337.8,88.76Z"/><path class="cls-1" d="M319.59,85.84a.42.42,0,0,0,.13-.34q-.18-8.58-.63-17.16a.49.49,0,0,0-.49-.5c-4.19.21-8.34.62-12.49,1.22a.41.41,0,0,0-.23-.06.5.5,0,0,0-.28.9,92.47,92.47,0,0,0,.25,15.52.49.49,0,0,0,.49.49q6.45-.14,12.89.09a.46.46,0,0,0,.32-.12l0,0Zm-7.3-1a34.9,34.9,0,0,1-4,0c-1.55-.2-1.57-.16-1.7-1.78a91.06,91.06,0,0,1,0-13.11c2.39-.34,4.78-.63,7.18-.83.72-.07,3.28-.66,3.86-.28.89.59.59,1.82.63,2.79.21,4.44.35,8.88.46,13.32C316.57,84.92,314.43,84.87,312.29,84.86Z"/><path class="cls-1" d="M338.4,85.25h-.06l.37-16.15a.49.49,0,0,0-.5-.49,56.79,56.79,0,0,1-10.84-1.79.51.51,0,0,0-.58.7.49.49,0,0,0-.19.35,160.1,160.1,0,0,0-.85,16.23.5.5,0,0,0,.37.48l12,1.64C338.76,86.29,339,85.34,338.4,85.25Zm-10.17-1.38c-1.48-.46-1.49-.57-1.47-2.17.06-4.61.35-9.22.83-13.8a58.71,58.71,0,0,0,5.87,1.2,25,25,0,0,1,2.9.35c1.45.41,1.34.44,1.3,2l-.31,13.63-5.42-.74A25.32,25.32,0,0,1,328.23,83.87Z"/><path class="cls-1" d="M338.43,57a33.81,33.81,0,0,0-7.88-1.65c-1.41-.12-2.82-.08-4.23-.11-1.78,0-3.4-.53-5.15-.69-2.13-.21-4.43.44-6.5.87-3.07.64-6.1,1.45-9.1,2.39-.61.19-.35,1.15.27,1,5.05-1.59,11.41-3.89,16.71-3a46.9,46.9,0,0,0,6.6.43,33,33,0,0,1,9,1.71C338.77,58.14,339,57.18,338.43,57Z"/><path class="cls-1" d="M331.47,43.42A82.89,82.89,0,0,0,322,42c-3.16-.14-6.12,1.17-9.26,1-.64,0-.64,1,0,1,2.83.17,5.48-.94,8.29-1,3.38-.08,6.89.84,10.22,1.38C331.83,44.48,332.1,43.52,331.47,43.42Z"/><path class="cls-1" d="M330.24,33.67A19,19,0,0,1,324,32a2.88,2.88,0,0,0-2.36-.27c-1.82.49-3.38,1-5.26,1.29a4.85,4.85,0,0,0-2.85,1.22c-.48.44.23,1.14.7.71,1.25-1.14,3.28-1,4.84-1.35s2.8-1.26,4.43-.75c2.31.74,4.26,1.63,6.74,1.81C330.88,34.71,330.88,33.72,330.24,33.67Z"/><path class="cls-1" d="M382.34,160c-2-9-.43-18.39-.35-27.49,0-4.58.1-9.22-.16-13.8-.24-4.13-4.14-3.22-7.28-3a2.16,2.16,0,0,0-2.8,1.81c-.75,7.74.3,15.45.69,23.18h-.16l-1.88.29q-.16-4.38-.2-8.76c0-3.9.55-8.07.17-11.94-.3-3-2.95-2.75-5.35-2.77l-12.39-.1a2.26,2.26,0,0,0-.53-.07,2,2,0,0,0-1.29,3.5c-.12,5.71-.74,11.75-.11,17.45a46.32,46.32,0,0,0-8.18.22,1.59,1.59,0,0,0-1.21.76,1.71,1.71,0,0,0-1.45,1.87q.39,7.8.7,15.6c.1,2.6.2,5.21.29,7.81,0,1.15,0,2.31.15,3.45a1.75,1.75,0,0,0-.09.84l1.24,12.86c.09,1,.84,2.1,2,2,6.36-.65,12.78.42,19.17.2,3.09-.11,6.18-.28,9.27-.12a35.9,35.9,0,0,1,4.94.64,3.62,3.62,0,0,0,3-.3,1.92,1.92,0,0,0,.67-2.64,1.91,1.91,0,0,0,.36-1.07q.15-9.13-.06-18.27A1.91,1.91,0,0,0,382.34,160Z"/><path class="cls-1" d="M313.81,76l-.77.24c0-.27.07-.55.11-.82s-.43-.45-.48-.13l-.15,1.11a5.43,5.43,0,0,0-1.88.93c-.25.21.1.56.35.35a4.59,4.59,0,0,1,1.48-.75c-.11,1-.18,2-.21,3,0,.32.49.32.5,0,0-1,.1-2.09.22-3.14l1-.29C314.24,76.35,314.11,75.87,313.81,76Z"/><path class="cls-1" d="M314.78,71q-.36.92-.63,1.86a.25.25,0,0,0,.48.13,19.17,19.17,0,0,1,.63-1.85C315.38,70.88,314.9,70.75,314.78,71Z"/><path class="cls-1" d="M310.92,79.88l-1.14,2.63c-.13.29.3.54.42.25.39-.88.77-1.75,1.15-2.63C311.48,79.84,311.05,79.58,310.92,79.88Z"/><path class="cls-1" d="M318.8,75a7.23,7.23,0,0,0-1.6-4.22,4.72,4.72,0,0,0-3.72-1.39.26.26,0,0,0-.24-.09,6.52,6.52,0,0,0-5.79,5,12.22,12.22,0,0,0-.22,2.9h-.14c-.32,0-.32.54,0,.5l.17,0q0,.66.09,1.32c.11,1.22.11,2.56,1,3.47a6,6,0,0,0,7.54.67C318.54,81.21,319.12,78,318.8,75Zm-1,4.89a.21.21,0,0,0-.06-.08L316.8,79l-.43-.36-.43-.32c0-.14-.05-.28-.23-.26h0a.26.26,0,0,0-.25.25c0,.35.52.62.75.82l1.19,1a.25.25,0,0,0,.27,0,6.68,6.68,0,0,1-1.92,2.43h0a23.8,23.8,0,0,1-.85-2.76c-.07-.31-.55-.18-.47.13a22,22,0,0,0,.84,2.76.24.24,0,0,0,.11.13,4.89,4.89,0,0,1-3.25.76l-.29,0a.18.18,0,0,0,.07-.12,25,25,0,0,0,.29-2.86c0-.32-.49-.32-.5,0a20.86,20.86,0,0,1-.27,2.73.27.27,0,0,0,0,.18,4.44,4.44,0,0,1-3.27-2.34.15.15,0,0,0,.13,0,5.44,5.44,0,0,0,1.23-.89c.41-.4.71-.89,1.11-1.28.23-.23-.13-.58-.35-.36-.37.37-.64.81-1,1.18a5.33,5.33,0,0,1-1.24.92h0a15.66,15.66,0,0,1-.32-3.1l2.45-.27c.32,0,.32-.53,0-.49l-2.45.26c0-.26,0-.52,0-.77a9.89,9.89,0,0,1,.33-2.43,4.71,4.71,0,0,1,1.33.74,2.25,2.25,0,0,0,1.06.55c.31.06.44-.42.13-.48a3.14,3.14,0,0,1-1.24-.73,4.29,4.29,0,0,0-1.11-.56,5.24,5.24,0,0,1,1-1.68,4.29,4.29,0,0,1,.63-.58.16.16,0,0,0,0,.07,5,5,0,0,0,.57,1.27,4,4,0,0,1,.69,1.31c.07.32.55.19.48-.13-.2-.95-1-1.64-1.26-2.59a.21.21,0,0,0-.18-.16,7,7,0,0,1,2.37-1v0c-.09,1-.15,2-.17,3a.25.25,0,0,0,.49,0c0-1,.09-2,.18-3,0,0,0,0,0-.07a7.26,7.26,0,0,1,2.12.23.18.18,0,0,0-.07,0l-.05,0c-.22.23.13.58.35.35l.05,0a.24.24,0,0,0,0-.3,3.76,3.76,0,0,1,2,1.77,5.2,5.2,0,0,1,.26.53,9.89,9.89,0,0,0-2.41,1.78c-.24.2.11.55.35.35A8.93,8.93,0,0,1,317.89,73h0a10.17,10.17,0,0,1,.5,2.8,17.31,17.31,0,0,0-2.16,0c-.32,0-.32.51,0,.5a17.63,17.63,0,0,1,2.18,0v.65A7.64,7.64,0,0,1,317.78,79.88Z"/><path class="cls-1" d="M331.65,68.89c-.31,0-.32.52,0,.5a3.63,3.63,0,0,1,.94.06.22.22,0,0,0-.12.2c-.05,1.22-.09,2.44-.14,3.65,0,.32.49.32.5,0,0-1.21.09-2.43.13-3.65a.22.22,0,0,0,0-.12c2.77.8,4.12,4.74,4.32,7.33a9,9,0,0,1-.37,3.75,8.41,8.41,0,0,0-2.06-2c-.27-.19-.52.24-.26.42a7.88,7.88,0,0,1,2,2,.26.26,0,0,0,.12.09l-.15.32A3.58,3.58,0,0,1,335,82.82v0a11.17,11.17,0,0,0-.52-1.47,9,9,0,0,1-.72-1.5c-.07-.31-.55-.18-.48.13a5.87,5.87,0,0,0,.59,1.24,9.47,9.47,0,0,1,.65,1.73.2.2,0,0,0,0,.08,4.11,4.11,0,0,1-3.21-.3c-.28-.15-.54.28-.25.43a4.33,4.33,0,0,0,4.71-.23c1.61-1.2,2-3.29,2-5.18C337.78,74.32,335.92,68.64,331.65,68.89Z"/><path class="cls-1" d="M333.32,76.11h0c.17-.15,0-.51-.24-.42a.2.2,0,0,0-.08,0c0-.29,0-.57,0-.85s-.47-.32-.49,0,0,.71-.07,1.06l-.22.12a15.22,15.22,0,0,1-1.58.62c-.3.1-.17.58.13.48s.69-.24,1-.38a.25.25,0,0,0,.19,0l.39-.07-.12,1.74c0,.56-.06,1.12-.08,1.68,0,.21-.12,1-.12,1.49l-.16,0a.27.27,0,0,0-.18.18.46.46,0,0,0,.1.56.23.23,0,0,0,.21.13c.94-.1.61-1.48.64-2.14.05-1.25.13-2.5.21-3.75l.56-.1C333.77,76.54,333.64,76.06,333.32,76.11Z"/><path class="cls-1" d="M334.4,71.13a13.36,13.36,0,0,1-1,2.08.25.25,0,0,0,.43.25,14.43,14.43,0,0,0,1.07-2.2C335,71,334.51,70.83,334.4,71.13Z"/><path class="cls-1" d="M336.07,73.7a6.66,6.66,0,0,1-1.75.67.25.25,0,0,0,.13.48,7,7,0,0,0,1.87-.72C336.6,74,336.35,73.55,336.07,73.7Z"/><path class="cls-1" d="M337.11,77.54a5.9,5.9,0,0,1-2-.89c-.27-.18-.52.25-.25.43A6.32,6.32,0,0,0,337,78,.25.25,0,0,0,337.11,77.54Z"/><path class="cls-1" d="M331.44,79.79c-.38.71-.73,1.43-1.05,2.17-.12.29.31.54.43.25.32-.74.67-1.46,1.05-2.17C332,79.76,331.59,79.51,331.44,79.79Z"/><path class="cls-1" d="M330.25,78.16a8.64,8.64,0,0,0-1.54,1c-.25.21.11.56.35.36a7.86,7.86,0,0,1,1.44-.93C330.79,78.45,330.54,78,330.25,78.16Z"/><path class="cls-1" d="M329.82,75.92a7.93,7.93,0,0,1-1-.14l-.43-.1c-.13,0-.29-.15-.35,0,.11-.3-.37-.43-.48-.13s.37.5.62.56a9.75,9.75,0,0,0,1.6.28C330.14,76.45,330.14,76,329.82,75.92Z"/><path class="cls-1" d="M330.22,73.8l-1.44-1.61c-.21-.24-.56.11-.35.35l1.44,1.62C330.09,74.39,330.44,74,330.22,73.8Z"/><path class="cls-1" d="M331.6,72.81A15.28,15.28,0,0,1,330.46,70a.25.25,0,0,0-.48.14,16.8,16.8,0,0,0,1.19,3C331.31,73.34,331.74,73.09,331.6,72.81Z"/></g><g id="lights"><path class="cls-2" d="M75.71,125.44a97.12,97.12,0,0,0-12.42-.08c-1.28.07-1.28,2.06,0,2a97.12,97.12,0,0,1,12.42.08C77,127.52,77,125.53,75.71,125.44Z"/><path class="cls-2" d="M74.57,133a44,44,0,0,0-10.85-.88l-.18,0H63.4a1,1,0,0,0,0,2l.2,0h.12A41.56,41.56,0,0,1,74,134.9C75.3,135.12,75.83,133.2,74.57,133Z"/><path class="cls-2" d="M54.31,124.75,46.69,126c-1.26.21-.73,2.13.53,1.92l7.62-1.27C56.1,126.45,55.57,124.54,54.31,124.75Z"/><path class="cls-2" d="M55.11,131.25a28.31,28.31,0,0,0-7.35.36c-1.25.22-.72,2.14.53,1.92a26.42,26.42,0,0,1,6.82-.29C56.39,133.35,56.38,131.36,55.11,131.25Z"/><path class="cls-2" d="M54.74,95.07a25.59,25.59,0,0,1-7.26,1.24c-1.28,0-1.28,2,0,2A27.18,27.18,0,0,0,55.27,97C56.48,96.6,56,94.68,54.74,95.07Z"/><path class="cls-2" d="M79.1,95.48C74,95,69,95,64,94.29c-1.25-.18-1.79,1.74-.53,1.92a58.21,58.21,0,0,0,7.24.73c2.82.07,5.63.26,8.43.53C80.38,97.59,80.37,95.6,79.1,95.48Z"/><path class="cls-3" d="M347.26,137.26c0-.15,0-.3,0-.45a.88.88,0,0,0-.16-.62c-.05-.35-.09-.69-.16-1-.2-1.13-2-.84-2,.26,0,1.49,0,3,0,4.47-.17,2.49-.26,5-.25,7.48a1,1,0,0,0,1.89.35.93.93,0,0,0,.38-.78V145.1A39.54,39.54,0,0,0,347.26,137.26Z"/></g></svg>