<svg xmlns="http://www.w3.org/2000/svg" viewBox="0 0 162 177"><defs><style>.cls-1{fill:#92d2f3;}.cls-2{fill:#9eca73;}.cls-3{fill:#ceab89;}.cls-4{fill:#a67c52;}.cls-5{fill:#fff;}.cls-6{fill:red;}</style></defs><title>Artboard 2</title><g id="Layer_4" data-name="Layer 4"><path class="cls-1" d="M154.66,106.51c1.57-6.6.54-13.38-1.24-20.22-2.09-8.09-4.61-16.45-9.19-23.52a73.47,73.47,0,0,0-10.71-12.89c-3.43-4.54-7.54-8.15-12.74-10.13a59.33,59.33,0,0,0-10-4.94l-1.56-.61a65.7,65.7,0,0,0-13.53-4.27,61.87,61.87,0,0,0-36.31,3.45q-1.34.42-2.67.9a38.13,38.13,0,0,0-15.43,7.18A50.32,50.32,0,0,0,27.89,52.59a48.61,48.61,0,0,0-5.66,6.87,78.84,78.84,0,0,0-4.92,77.94c5.56,8,10.68,16.18,18.17,22.69,1.3,1.14,2.66,2.2,4,3.23a108.58,108.58,0,0,0,24.16,9.92c12.6,3.52,25.44,2,38.2.51q2.22-.85,4.39-1.81a57.71,57.71,0,0,0,15.53-7.22c9.77-6.44,19.64-15.12,25.42-25.64a32,32,0,0,0,5.52-10.57c2-6.82,2.19-14.55,1.94-21.59C154.67,106.78,154.66,106.65,154.66,106.51Z"/><path class="cls-2" d="M38.67,158.36A20.88,20.88,0,0,0,37.39,155a34.68,34.68,0,0,1-1.15-3.58,4.94,4.94,0,0,0-1.47-2.23l-.06,0a13.4,13.4,0,0,0,3.13-1.61,4,4,0,0,0,.7-2.52,10.28,10.28,0,0,0-.94-3.88,15.79,15.79,0,0,1-1.39-3.54c-.23-1.75.5-2.46.87-4.19.78-3.73-4.71-9-8.49-7.58-.18-.17-.36-.34-.56-.51a7.25,7.25,0,0,0-4.49-1.87,1.72,1.72,0,0,0-1.11.26,4.47,4.47,0,0,1-.31-.82,1.58,1.58,0,0,0-.51-.76,5.77,5.77,0,0,0-.77-2.6,10.4,10.4,0,0,0-3.06-2.77,4.34,4.34,0,0,0-1.38-.76h-.56c-.74-1.8-1.51-3.55-3.33-4.71a1.57,1.57,0,0,0-2.54,0,1.26,1.26,0,0,0-.9,1.37c.6,9.29,5,19.11,9.87,27,4.42,7.25,10.17,16.07,17.2,21a1.33,1.33,0,0,0,2.09-.82A1.32,1.32,0,0,0,38.67,158.36Z"/><path class="cls-2" d="M33.31,46.37l-1,1.1a.47.47,0,0,0-.37,0A10.16,10.16,0,0,0,29,51q-2.45,2.64-4.83,5.31a.5.5,0,0,0,0,.61,1.44,1.44,0,0,0-.65.53,30.49,30.49,0,0,0-2.06,3.45c-2.77,3.55-4.7,8-7.23,11.67a1.3,1.3,0,0,0,.11,1.64C11,81,8.21,88.89,9,96.38c.06.64,1.06.64,1,0-.73-7.28,2-15,5.19-21.67a1.36,1.36,0,0,0,1.09-.13c1.2-.7,3.35-1.48,4.21-2.63.38-.51.31-1,.59-1.57,1.32-2.44,1.4-.85,2.56-1.86.92-.8.9-1.19,1-2.39a28.78,28.78,0,0,1,1.64-7.56,1.32,1.32,0,0,0-.2-1.29l1.71-2.57a.46.46,0,0,0,.5-.11l2.9-2.77a.53.53,0,0,0,.79-.08c.37-.53.36-.6.19-1.23a.47.47,0,0,0-.34-.33A17.28,17.28,0,0,0,34.1,47,.5.5,0,0,0,33.31,46.37Z"/><path class="cls-2" d="M64.07,36.24a7,7,0,0,0-.25-1.06,1.52,1.52,0,0,0-2.2-.89c-.57.27-3.59-.12-4.61,0-2.14.24-4.54,1.51-6.52,2.38A56.4,56.4,0,0,0,39.9,42.83a1.25,1.25,0,0,0-1.24.75,3.37,3.37,0,0,1-.19.32c-.29.22-.58.44-.86.67a1.17,1.17,0,0,0-.49,1.14,24.12,24.12,0,0,0-2.59,3c-1,1.52-1.82,4.26-.73,6s3.07.82,4.18-.33a13.86,13.86,0,0,1,6.5-4.24,1.53,1.53,0,0,0,.51-.26A4.24,4.24,0,0,0,47.25,49a21.61,21.61,0,0,0,7.54-3.14c1.24-.9,2.72-1.45,3.92-2.32,2.19-1.59,3.39-3.42,6.15-4.42C66.66,38.48,65.89,35.59,64.07,36.24Z"/><path class="cls-2" d="M61.75,47.74a10.6,10.6,0,0,1-4.25.87,1.47,1.47,0,0,0-.63-.34,1.86,1.86,0,0,0-2.37,1.35,1.39,1.39,0,0,0,.11,1.06,1.26,1.26,0,0,0,.68.66c2.8,1.27,5.39.3,8-1C65,49.44,63.48,47,61.75,47.74Z"/><path class="cls-2" d="M71.83,58.14a1.52,1.52,0,0,0-1-.18,1.87,1.87,0,0,0-.83-.18,2.6,2.6,0,0,0-1.75,1l-1.24,1.3a1.52,1.52,0,0,0,1.06,2.56,4.48,4.48,0,0,0,4.25-2.48A1.53,1.53,0,0,0,71.83,58.14Z"/><path class="cls-2" d="M150.89,75.14c-2.54-7.54-6-15.24-11.59-20.1A47.93,47.93,0,0,0,132,47.28a1.6,1.6,0,0,0-.6-.32,2.4,2.4,0,0,0-.82-.86c-1.29-.8-2.49.62-2.16,1.77a7.86,7.86,0,0,0-1,.17c-.79.12-1.57.28-2.35.44a1.5,1.5,0,0,0-1.28-.34c-.77.14-1.57-.08-2.36,0a9.51,9.51,0,0,0-2,.58,10.8,10.8,0,0,1-2.22.65,1.55,1.55,0,0,0-.6-2.59,16.69,16.69,0,0,0-3-.41,23.36,23.36,0,0,1-4.19-1.24,1.2,1.2,0,0,0-1.11.11,4.33,4.33,0,0,0-2.18-.47c-4.92-1-10.1-.17-13.24,4.08a56.13,56.13,0,0,0-6.1,2.43,1.52,1.52,0,0,0-.31,2.36,4.61,4.61,0,0,0,3.27,2.12C91,55.85,92,55,93.11,54.72c.5.82.89,1.83,1.31,2.62a1.37,1.37,0,0,0,2.16.4c2.72,0,5.65-3.06,3.91-5.53-.77-1.08-.9-.44.35-.81a2.14,2.14,0,0,0,1.57-1.4,2.85,2.85,0,0,0-.06-1h0c.68,0,1.6-.09,2.48-.06a1.87,1.87,0,0,0,.47.5,3,3,0,0,0-1.1,1,2.5,2.5,0,0,0,0,2.76c.71,1,1.83.9,2.93.88.26,0,3.39-.17,4.18-.06l.19.15,0,.13c-2.63.37-6.71.63-7.76,2.94-.13.3-.16,1.34-.29,1.45h0a1.31,1.31,0,0,0-1.15-.13.84.84,0,0,0-.14.06,4.69,4.69,0,0,0-.63-.13,8.1,8.1,0,0,0-3.58.71l-.19-.08a4.56,4.56,0,0,0-3.52.14,2.72,2.72,0,0,1-.52-.39c-.86-.81-.89-2.1-2.27-2.34a1.83,1.83,0,0,0-2.13,2.07,2.24,2.24,0,0,0,.56,1.13,5.07,5.07,0,0,0-2.09.14,31.71,31.71,0,0,0-4.28,1.64,6.28,6.28,0,0,0-1.64,1.1,1.77,1.77,0,0,0-.56-2c-.6-.43-.91-1.2-1.41-1.73a4.91,4.91,0,0,0-.87-.71c-.41-.25-.8-.24-.9-.49-.33-.79,0-1.3-.84-1.95s-1.61-.53-2.49-.83a1.4,1.4,0,0,0-.62-.08,2,2,0,0,0-2.65,2.4A3.34,3.34,0,0,0,74,59.44a6.79,6.79,0,0,0,.66.2,5.27,5.27,0,0,0-.61.5,1.51,1.51,0,0,0,.3,2.35c1.76,1.15,3.67.77,5.61.85a23.93,23.93,0,0,0-4.79.84c-1.13.33-1.59,2.2-.36,2.75a28.62,28.62,0,0,1,3.27,1.48c.08,1.47-2.94,2.29-4,2.22-2.33-.14-3.69-1.61-6-.47a1.24,1.24,0,0,0-.76,1.09,1.05,1.05,0,0,0-.05.19c-.22,1.15-.45,2.29-.66,3.44a2.72,2.72,0,0,0,.19,2.25,4.49,4.49,0,0,0,2,1.17L72,79.64a1.31,1.31,0,0,0,1.36-.31C75,79,77.19,78.4,78.15,77c.48-.66.39-1.32,1-1.92a14,14,0,0,1,3.07-2,1.32,1.32,0,0,0,1.14-.74c.23-.41.48-.93,1-1s1.4.31,1.95.4A3.56,3.56,0,0,0,89.3,71c1.66-.39,3.31-.81,4.63.1.92.64,1.48,1.79,2.42,2.46,1.17.83,3.34,1,4.12,2.23,1,1.61,3.65.11,2.59-1.52a6.08,6.08,0,0,0-2.9-2.29,11.5,11.5,0,0,1-3.1-1.84c-.12-.11-.23-.24-.34-.36a1.52,1.52,0,0,0-.36-1c.73.88,3.66,1.76,4.87,2.12a14.28,14.28,0,0,0,1.92.41l.32.4a1.18,1.18,0,0,0,.81.46,25,25,0,0,1,1.82,2.79c.8,1.26,1.62,3.32,2.94,4.12a1.9,1.9,0,0,0,2.82-1c.54-1.47,0-3.15-.53-4.57l0,0a3.06,3.06,0,0,0,1.76.75c.52.82.43,2.06,1,3a3.69,3.69,0,0,0,2,1.43A22.55,22.55,0,0,0,125.52,80a14.69,14.69,0,0,1,.26,2.48,8.34,8.34,0,0,1-.14,2.43c-.33.35-.62.14-1,.17a5.55,5.55,0,0,0-2.35.67,1.43,1.43,0,0,0-.15-.33,1.47,1.47,0,0,0-1.29-.74,4.9,4.9,0,0,0-2.32.75,1.19,1.19,0,0,0-.11-.26c-1.06-1.86-4.18-1.4-6-1.55-3.35-.29-4.27-.34-6.35,2-2.85-.91-5.78-1.24-8.62-2.44-.27-.12-3.13-1.14-3.15-1.23a13.81,13.81,0,0,0,.81-1.33,2.84,2.84,0,0,0-1.71-3.35,4.39,4.39,0,0,0-3.87.53,19.27,19.27,0,0,0-11.08,1.8c-3.75.18-8.07.31-10.82,2.67a7.85,7.85,0,0,0-2.74,5.85c-4,1.5-9.26,5.1-9.41,9.52a7.61,7.61,0,0,0,.5,2c.61,2.91-.65,2.43-1.33,4.55s.31,3.52,1.35,5.11a1.35,1.35,0,0,0,.4,1.24c1.48,1.53,3.74,1.27,5,3,1.07,1.53,1.45,3.08,3,4.32,1.2,1,2.79,1.91,4.4,1.59,1.15-.22,1.64-1.05,2.34-1.72a1.72,1.72,0,0,0,.42.11,22.73,22.73,0,0,0,6.84.11c2.71-.52,4.74-2.62,7.5-1.86,1,1.68,2.11,3.63,4.41,3.1.54-.13,2.38-1.58,2.94-1.47l0,0c1.79,2.42-.08,4.08-.9,6.46a3.22,3.22,0,0,0,.52,3.57,1.47,1.47,0,0,0,.34.67,17.79,17.79,0,0,1,3.07,4.94c.61,1.49,0,2.83.09,4.36a7.55,7.55,0,0,0-1.61,7.37c.54,1.88,1.93,3.27,2.66,5,.85,2.06,1,4.55,1.37,6.74a1.61,1.61,0,0,0,.1.35,1.67,1.67,0,0,0,1.32,2.26c5.76.68,11.86-3.91,15.51-8.26,2.89-.8,3.65-3.79,4.85-6.27a1.32,1.32,0,0,0,.61-.23c2.24-1.43,4.54-3,5.87-5.34a7.64,7.64,0,0,0,.94-2.78c.21-1.6-.56-3.48.16-5a1.38,1.38,0,0,0,.46-.77c1.09-4.6,6.49-6.75,9.33-10.33a32.7,32.7,0,0,0,5.38-10.4,1.52,1.52,0,0,0-1.85-1.85,29.12,29.12,0,0,1-4.29,1.59c-2.38.43-1.23.46-1.64-.49a.45.45,0,0,0,.25-.32,14.81,14.81,0,0,1,.39-1.49,2.09,2.09,0,0,0,.08-.23,1.29,1.29,0,0,0,1.47.43c3.61-1.08,7.76-2.45,9.78-5.86,1.56-2.62,2.86-6.63-.59-8.39a1.52,1.52,0,0,0-2,.63,5.69,5.69,0,0,0-.52.33c-.69-.9-1.26-2-1.87-2.87l-2-3a1.69,1.69,0,0,0,0-.39c0-.26-.26-1.17-.08-1.42.67-.93,1.38.34,1.65.79a12.14,12.14,0,0,0,1.45,2.65c.64.62,1.33.46,2,.88s1.16,1.25,1.93,1.68a1.4,1.4,0,0,0,.9.19,2,2,0,0,0,1,0c.16,0,1-.44,1.06-.44l.29-.28a1.72,1.72,0,0,0,.35,1.36c.31.85.79,1.66,1.12,2.51a15.14,15.14,0,0,1,1.11,4.87,1.41,1.41,0,0,0,.54,1.08c.16.64.35,1.28.46,1.93a37.69,37.69,0,0,1,.05,9.61c-.05.66.93.63,1,0a84.58,84.58,0,0,0,.86-12,1.54,1.54,0,0,0,.23-.74A59,59,0,0,0,150.89,75.14Zm-26.44-2.52a9.11,9.11,0,0,0-2.32.47c-1.95.37-3.83.22-5.78.81l-.06,0a1.46,1.46,0,0,0-.08-.27A5.77,5.77,0,0,0,115.15,72a12.73,12.73,0,0,0,1.9-2.91c.72-1.38,1.39-2.09,2.51-.71.41.5.5,1.15,1,1.58a1.61,1.61,0,0,0,1.82.24c1-.43,1.63-2.29,2.74-1.91a4.28,4.28,0,0,0,1.71,2.35c.79.57,3,1.07,3.48,2,.65,1.21-.67,1.06-1.55,1a16.54,16.54,0,0,1-2.09-.25s0,0-.06,0A5.93,5.93,0,0,0,124.45,72.62Zm7.72,31.71c-2.4-5.16-4.79-10.38-8.08-15a1.59,1.59,0,0,0,.33.09c3.08.43,5.65,5.89,7.23,8.27a77.4,77.4,0,0,1,4,6.73,12.62,12.62,0,0,1-.52,1.25,4.79,4.79,0,0,0-1.23,1.1A6.82,6.82,0,0,0,132.17,104.33ZM140.36,79a4.51,4.51,0,0,1-2.05-1,4.76,4.76,0,0,1-1.06-1.5,1.48,1.48,0,0,0,.38-2.35l-4-3.7a1.5,1.5,0,0,0,.16-1c-.25-1.53.21-1.14,1.35-1.21a6.62,6.62,0,0,0,1.61-.45,4.64,4.64,0,0,1,.61-.17,1.68,1.68,0,0,0,.55.24,6.16,6.16,0,0,1,.35.64c.14.28.37.68.56,1.09a1.26,1.26,0,0,0-.24,1.78l.37.52a2.63,2.63,0,0,0,.54.63l0,0h0l.19.15a7.22,7.22,0,0,1,.43.77,1.26,1.26,0,0,0,0,1l1.06,3c.17.47.49,1.07.69,1.64A9,9,0,0,1,140.36,79Z"/><path class="cls-2" d="M133.23,137.38c-.37.53-.76,1-1.16,1.51-1.57,1.32-3.14,2.65-4.69,4a1.39,1.39,0,0,0,.05,2.11,25.14,25.14,0,0,0-2.66,3.66,1.5,1.5,0,0,0,2.59,1.51c2.1-3.64,5.51-6.34,7.65-10a1.5,1.5,0,0,0,.2-.51c.2-.27.42-.52.61-.8C136.92,137.31,134.32,135.8,133.23,137.38Z"/><path class="cls-2" d="M91.66,73.82a.61.61,0,0,0-.72.32.52.52,0,0,0,.08.6.82.82,0,0,0,1.4-.36A.52.52,0,0,0,91.66,73.82Z"/><path class="cls-2" d="M100.76,76.83c-.54-.27-1.08-.58-1.65-.82a1.77,1.77,0,0,0-2.41.65.52.52,0,0,0,.3.74,5,5,0,0,0,1.07.17,2.79,2.79,0,0,0,1.4.71c.56.11,2.18.4,2.12-.62C101.56,77.2,101.12,77,100.76,76.83Z"/><path class="cls-2" d="M125.31,45.85l-.9-.3c0-.55,0-1.09,0-1.63a.51.51,0,0,0-.06-.92.49.49,0,0,0-.53-.2,3.58,3.58,0,0,0-1.35.89c-.61.46-1.09,1.06-.8,1.72a2.44,2.44,0,0,0,1.38,1,5.53,5.53,0,0,0,2.09.42A.51.51,0,0,0,125.31,45.85Z"/><path d="M157.73,101.12a69.72,69.72,0,0,0-4.59-24,.87.87,0,0,0-.06-.44,78.59,78.59,0,0,0-14.77-24.14c-5.69-6.31-13.65-13.89-21.81-17.06a.92.92,0,0,0-.26-.21c-12-6.47-26.37-8.49-39.91-7-.86.19-1.72.38-2.59.55a34.4,34.4,0,0,0-5.17,1.07l0,.08-.69.21-.29.13a.79.79,0,0,1-.44.09c-13.66,4.14-27.37,9.26-37.64,19.45-6,6-10.56,13.32-14.17,21C11.83,78.14,8.19,86.1,7.87,94.35c0,0,0,0,0,0a97.7,97.7,0,0,0,.82,18.25,49.72,49.72,0,0,0,2.22,11.12.82.82,0,0,0,0,.48c5.8,15.69,15.49,31.46,30.1,40.21a1,1,0,0,0,.5.13c4.93,2.88,10,6.29,15.31,8.17a42.57,42.57,0,0,0,10.52,2,48.74,48.74,0,0,0,11.29,1.38C93.45,178.21,110,172.79,122,165a4.2,4.2,0,0,0,.66-.21c1.38-.9,2.72-1.85,4-2.87,1.28-1.18,2.46-2.42,3.37-3.18a126.72,126.72,0,0,0,9.92-8.9c5.48-5.62,9.09-12.55,12.33-19.62a.91.91,0,0,0,.09-.17.65.65,0,0,0,0-.13c.14-.31.29-.62.43-.92a1,1,0,0,0,0-.65c.3-1,.56-2,.81-3,.85-2.72,1.42-5.55,2.05-8.31a84.25,84.25,0,0,0,2.17-15.41A.86.86,0,0,0,157.73,101.12Zm-8.57,31.25a.93.93,0,0,1-.24.3c-2.66,5.52-5.7,10.87-9.95,15.33a99.1,99.1,0,0,1-7.45,6.9c-1.44,1.24-2.91,2.46-4.38,3.67a48.7,48.7,0,0,1-4.6,4c-.48.41-1,.8-1.46,1.16-1.79,1.29-3.94,2-5.92,2.91h0c-9.71,5.06-21.38,8.37-32.4,7.81l-.07-.08a8.37,8.37,0,0,1-1.41-.11,34.11,34.11,0,0,1-6.06-.31,53.63,53.63,0,0,1-6.68-1c-.6-.08-1.19-.19-1.79-.33a1,1,0,0,0-.25.07,32.46,32.46,0,0,1-10.26-2.42c-5.29-2.38-10.34-5.62-15.41-8.44a.7.7,0,0,0-.22-.07C28.08,153.67,19.34,140,13.85,126.24c0,0,0-.06,0-.1-.35-.83-.65-1.67-.92-2.54-1.84-4.61-2.17-9.69-2.69-14.62A88.34,88.34,0,0,1,9.77,96.6a.83.83,0,0,0,.08-.43c-.2-9,4-18,7.92-25.9C21.43,62.83,26,55.75,32.1,50.07,43.42,39.54,58.62,34.89,73.18,30.66c13.72-2.13,28.76-.52,41.18,5.88a1,1,0,0,0,.55.46c8.27,2.81,16.23,10.55,22,16.93a75,75,0,0,1,13.29,21,1,1,0,0,0,.08.3,72.92,72.92,0,0,1,5.25,21.15,1,1,0,0,1,.1.37C156.21,109,154.39,121.19,149.16,132.37Z"/></g><g id="Layer_8" data-name="Layer 8"><path class="cls-3" d="M74.94,37.78c0-1.7,0-3.42,0-5.12,0-.85.08-1.47-.76-1.88l-.25-.09c0-.2,0-.41,0-.61a6.2,6.2,0,0,0,0-2,15,15,0,0,0-1-3s0-.08,0-.12a44.25,44.25,0,0,0,.1-6.41.89.89,0,0,0-.08-.29.18.18,0,0,0,0-.1c-1.43-2.92-2.1-6.17-3-9.29,0-.14,0-.29.06-.43s-.35-.24-.38,0l0,.2a.19.19,0,0,0-.06.19l0,.07a36.13,36.13,0,0,1-2.9,9,.21.21,0,0,0,.19.29.53.53,0,0,0,0,.22c.06,1.74.13,3.47.19,5.21v0a21.67,21.67,0,0,0-1.25,4,.86.86,0,0,0,0,.32,10.59,10.59,0,0,0-.08,2.39.67.67,0,0,0-.8.73,80.24,80.24,0,0,1,.09,9.93.7.7,0,0,0,.75.74c0,.29,0,.59,0,.88-.44,5.05,0,10.26,0,15.31v3.73c0,.74-.31,2.23.17,2.89s1.63.64,2.68.52a26,26,0,0,0,2.65.21,3.19,3.19,0,0,0,1.86-.2.7.7,0,0,0,1-.67c-.2-4.21-.29-8.43-.24-12.65q0-3,.16-6A20.85,20.85,0,0,0,74,42.37l.36-.07a.75.75,0,0,0,.53-.53A16.6,16.6,0,0,0,74.94,37.78Zm-1.57,2.6a1.12,1.12,0,0,0-.2-.18A.6.6,0,0,0,73.4,40C73.39,40.14,73.38,40.27,73.37,40.38Z"/><path class="cls-4" d="M74.1,27.11a17,17,0,0,1-.95-2.31,1,1,0,0,0-.55-.69,1.18,1.18,0,0,0-.4-.09.49.49,0,0,0,0-.12.2.2,0,0,0,.14-.18,12,12,0,0,0-.06-1.47,7.55,7.55,0,0,0,.1-1.15c0-.32-.26-.57-.58-.44a.22.22,0,0,0-.09.33s0,0,0,0v0a.18.18,0,0,0-.11.17v1.21a8.12,8.12,0,0,0,0,1.56c-.14,0-.27,0-.41,0a8.41,8.41,0,0,0,0-2.35v-.61a.18.18,0,0,0-.27-.16.2.2,0,0,0-.31.15l0,.75c-.08.75-.1,1.51-.11,2.28h-.2a6.39,6.39,0,0,0-.13-3A.14.14,0,0,0,70,21a.19.19,0,0,0-.29-.17.18.18,0,0,0-.31.13,21.8,21.8,0,0,0,0,3.13H69a9.18,9.18,0,0,0-.06-3.18c0-.15-.24-.17-.33-.07a.16.16,0,0,0-.19.13s0,.06,0,.09a.15.15,0,0,0-.09.17c0,.1,0,.21,0,.31a9.62,9.62,0,0,0,0,2.57l-.42,0c0-1,.41-2.11-.18-3v0a.15.15,0,0,0-.16-.18.19.19,0,0,0-.21,0,.2.2,0,0,0-.26.18c0,1,0,1.92,0,2.89a.52.52,0,0,0-.46.39,13.08,13.08,0,0,1-1,2.51c-.18.36,0,.91.5.87a31.12,31.12,0,0,1,4.21-.1.51.51,0,0,0,.31.11c1,0,2,.08,3,.19A.58.58,0,0,0,74.1,27.11Z"/><path class="cls-4" d="M67.27,30.37a5.52,5.52,0,0,0,0-1.07.41.41,0,0,0-.46-.39.55.55,0,0,0-.44.47,2.51,2.51,0,0,0,0,.55,1.91,1.91,0,0,1-.12.64c-.09.22.25.32.35.13a.68.68,0,0,0,.49.06.2.2,0,0,0,.13-.24Z"/><path class="cls-4" d="M68.66,30.37a8.38,8.38,0,0,0,.13-.83c0-.27-.17-.33-.25-.55a.19.19,0,0,0-.28-.11.55.55,0,0,0-.26.32.18.18,0,0,0-.07.15v1.28a.19.19,0,0,0,.36.08h0a.38.38,0,0,0,.21,0,.19.19,0,0,0,.18-.24S68.67,30.4,68.66,30.37Z"/><path class="cls-4" d="M69.74,29a.3.3,0,0,0-.36.2.17.17,0,0,0-.07.14,7.07,7.07,0,0,0,0,1.38.2.2,0,0,0,.37.08.17.17,0,0,0,.23-.08l0,0a.19.19,0,0,0,.33-.17C70.22,30,70.5,29.06,69.74,29Z"/><path class="cls-4" d="M71.66,29.87a1.76,1.76,0,0,0-.23-1,.21.21,0,0,0-.31,0,.83.83,0,0,0-.2.3.26.26,0,0,0,0,.09,4,4,0,0,0-.09,1.38.19.19,0,0,0,.24.19c.34-.08.73-.07.7-.5A3.62,3.62,0,0,0,71.66,29.87Z"/><path class="cls-4" d="M73.1,29.85l0-.75a.18.18,0,0,0-.09-.16.28.28,0,0,0-.39.1.15.15,0,0,0-.07.1v0a4,4,0,0,0-.17,1.52c0,.19.3.26.36.07,0,0,.07,0,.09,0a.27.27,0,0,0,.13,0,.25.25,0,0,0,.14-.2.49.49,0,0,0,0-.11A2.18,2.18,0,0,0,73.1,29.85Z"/><path class="cls-4" d="M72.71,18c0-.1-.07-.21-.11-.31a.22.22,0,0,0,0-.16c-.08-.18-.18-.37-.26-.55a48.69,48.69,0,0,1-2.2-8.5c0-.19-.27-.16-.35,0a.21.21,0,0,0-.13.17A31.64,31.64,0,0,1,67,17.89a.18.18,0,0,0-.08.29v0c0,.11,0,.23.18.21.71-.07,1.42-.13,2.13-.17a1.63,1.63,0,0,0,.31,0,.19.19,0,0,0,.13,0c.47-.08,1,.05,1.49,0s.87-.08,1.3-.12C72.61,18.22,72.78,18.12,72.71,18Z"/><path class="cls-4" d="M72.48,18.69c-1.85,0-3.7,0-5.55,0a.2.2,0,0,0,0,.39c1.85.05,3.7.06,5.55,0A.19.19,0,0,0,72.48,18.69Z"/><path class="cls-4" d="M67,39.94c-.1.06-.22.05-.32.1a.2.2,0,0,0-.32.19,4,4,0,0,1,.08.46,1.51,1.51,0,0,0,0,.37c.06.19.35.25.52.27s.3-.18.31-.38,0-.57,0-.85A.19.19,0,0,0,67,39.94Z"/><path class="cls-4" d="M68.66,40A1.39,1.39,0,0,0,68,40a.17.17,0,0,0-.18.13.22.22,0,0,0,0,.08l0,.73c0,.16,0,.36.15.44a1.1,1.1,0,0,0,.54.05c.19,0,.22-.19.21-.35s0-.3,0-.45a.22.22,0,0,0,.08-.2s0,0,0-.05a.49.49,0,0,0,0-.12A.26.26,0,0,0,68.66,40Z"/><path class="cls-4" d="M70.17,40.33c0-.22-.11-.31-.33-.35a.29.29,0,0,0-.25.06c-.1,0-.21,0-.23.12a2.86,2.86,0,0,0,0,1,.26.26,0,0,0,.18.22c.14,0,.31-.06.44,0a.19.19,0,0,0,.28-.22A3,3,0,0,1,70.17,40.33Z"/><path class="cls-4" d="M71.73,41a2.69,2.69,0,0,1,0-.57c0-.14,0-.27-.14-.34a.59.59,0,0,0-.45,0,.15.15,0,0,0-.07,0,.18.18,0,0,0-.26.17l0,.58a.52.52,0,0,0,.08.37.79.79,0,0,0,.45.13c.12,0,.24,0,.34,0A.33.33,0,0,0,71.73,41Z"/><path class="cls-4" d="M73.19,40.33a.36.36,0,0,0-.26-.34.28.28,0,0,0-.29.08.18.18,0,0,0-.32.07,3.62,3.62,0,0,0,0,.57,2.47,2.47,0,0,0,0,.47c.11.32.55.14.78.1a.2.2,0,0,0,.14-.19C73.22,40.84,73.22,40.58,73.19,40.33Z"/><path class="cls-4" d="M73.62,32.21v-.05a.22.22,0,0,0-.07-.09.23.23,0,0,0-.17-.11h0a.19.19,0,0,0-.13,0,.72.72,0,0,0-.35,0c-1-.09-2-.15-2.93-.15a14.82,14.82,0,0,1-3.46,0,.18.18,0,0,0-.22.11.14.14,0,0,0-.14.18A33.79,33.79,0,0,1,66,36c0,.67,0,1.34,0,2a4.8,4.8,0,0,0,0,1.07.18.18,0,0,0,.12.26h0a.16.16,0,0,0,.12,0,16.26,16.26,0,0,0,3,.12c1.26,0,2.51,0,3.77-.07h0a.19.19,0,0,0,.25-.07,2,2,0,0,0,.07-.89l0-2c0-1.13,0-2.26,0-3.4,0-.2,0-.4,0-.6l0,0A.19.19,0,0,0,73.62,32.21Zm-4,6.88c-.34,0-.7,0-1.06,0l-.06,0L68.46,39v0a.2.2,0,0,0,0-.37,2.59,2.59,0,0,1-1.23-.94,6.79,6.79,0,0,0-.42-.67.18.18,0,0,0-.27-.05l0,0-.07-.07c0-.46,0-.92,0-1.39s0-1,.08-1.5h0a.22.22,0,0,1,0,.08c0,.24.35.24.38,0a.2.2,0,0,0,.36,0c0-.15.06-.33.08-.51a.21.21,0,0,0,.27-.18h0a.2.2,0,0,0,.22-.09,1.31,1.31,0,0,0,.09-.34l0-.13a.48.48,0,0,0,.18-.07l.07,0c.16.19.31.38.46.59s.48,0,.33-.2-.41-.55-.63-.81l0,0c.41,0,.83-.07,1.23-.07.61,0,1.23,0,1.84,0h0a.16.16,0,0,0,.06.26l.28.15a3.8,3.8,0,0,0,.64.75s0,0,0,0,.09.27.11.37,0,0,0,0v.29A4.37,4.37,0,0,0,72.85,36v0a.2.2,0,0,0,0,.38h0a9.63,9.63,0,0,1,0,1.2,5.41,5.41,0,0,1-1,1,.2.2,0,0,0-.08.17c-.25.1-.5.17-.65.22a.19.19,0,0,0-.13.14Z"/><path class="cls-4" d="M66.93,48.83c-.13-2,.27-4.09,0-6.14,0-.24-.42-.24-.39,0,.25,2.05-.15,4.09,0,6.14.12,1.76.12,3.5.09,5.26a.17.17,0,0,0-.1.16l0,10.57a.19.19,0,0,0,.38,0l0-9.92a.15.15,0,0,0,.1-.15C67.06,52.76,67.07,50.81,66.93,48.83Z"/><path class="cls-4" d="M69.11,56c0-.24,0-.48,0-.72,0,0,0-.08,0-.12a.3.3,0,0,0,0-.1c-.09-2-.14-4-.12-5.92a50.16,50.16,0,0,0,0-6.37c0-.24-.41-.24-.39,0a52.09,52.09,0,0,1,0,6.37c0,2,0,4.09.13,6.14-.23,3.2-.13,6.39,0,9.59,0,.24.39.24.38,0-.07-2.91-.15-5.81,0-8.71A.17.17,0,0,0,69.11,56Z"/><path class="cls-4" d="M70.94,54c-.08-1.94-.11-3.88-.07-5.82s.26-3.66.15-5.48c0-.24-.4-.25-.38,0,.11,1.82-.12,3.66-.15,5.48s0,3.71.06,5.56a.13.13,0,0,0,0,.06c0,1.78.11,3.59,0,5.37s-.12,3.64-.09,5.49a.2.2,0,0,0,.39,0c0-1.85,0-3.65.09-5.49.06-1.68,0-3.39,0-5.08A.14.14,0,0,0,70.94,54Z"/><path class="cls-4" d="M73,59.88a12.82,12.82,0,0,0,0-2c-.05-.84.08-1.68,0-2.52a.21.21,0,0,0,0-.11c-.08-4.18.15-8.36.08-12.55a.19.19,0,0,0-.38,0c.07,4.56-.22,9.11-.06,13.67a.17.17,0,0,0,0,.1c0,.43,0,.85,0,1.28a18.22,18.22,0,0,1,0,2.09,27.59,27.59,0,0,0,0,4.81c0,.25.41.25.39,0A26.64,26.64,0,0,1,73,59.88Z"/><path class="cls-5" d="M73.31,36.51a3.83,3.83,0,0,0-.17-2.27A3.47,3.47,0,0,0,70.41,32a2.18,2.18,0,0,0-.51,0,3,3,0,0,0-1.12.05,3.35,3.35,0,0,0-2,1.51,3.2,3.2,0,0,0-.74,1.69,3.59,3.59,0,0,0,1.82,3.48l.1,0a3.59,3.59,0,0,0,.69.43A3.24,3.24,0,0,0,71.23,39a3,3,0,0,0,1.61-1.31h0a2.29,2.29,0,0,0,.33-.64A3.23,3.23,0,0,0,73.31,36.51Z"/><path d="M75,30.88a.19.19,0,0,0-.27-.17.17.17,0,0,0-.17-.14h-.31a.15.15,0,0,0-.11-.06,5.73,5.73,0,0,0,0-1.25,13,13,0,0,1,0-1.39.14.14,0,0,0-.07-.14.13.13,0,0,0,0-.06c-.45-1.21-.88-2.42-1.28-3.65.13-1.9.18-3.8.15-5.71a.17.17,0,0,0,0-.13v0c-.63-1.73-1.29-3.43-1.81-5.19-.24-.84-.51-1.67-.73-2.51a17.28,17.28,0,0,0-.55-2.23h0v0c0-.24-.36-.24-.38,0A29.51,29.51,0,0,1,66.64,18a.17.17,0,0,0-.12.17c0,1.92,0,3.83,0,5.75,0,0,0,0,0,0l-1,3.56a.17.17,0,0,0-.17.19,21.32,21.32,0,0,1,.11,2.77l-.28,0a.17.17,0,0,0-.14.06.19.19,0,0,0-.18.19l-.12,10.65s0,0,0,0a3.09,3.09,0,0,0,0,.43.23.23,0,0,0,.06.12.19.19,0,0,0,.15.11l.55.09c0,1.12,0,2.24,0,3.36a26.3,26.3,0,0,1,0,3.2.17.17,0,0,0-.1.16c0,.09,0,.18,0,.27s0,.07,0,.1a.18.18,0,0,0,0,.16,120,120,0,0,1,0,15.64.18.18,0,0,0,.13.18l.08,0a.14.14,0,0,0,.17.13,62.09,62.09,0,0,1,8.07-.15.22.22,0,0,0,.14,0h0a.19.19,0,0,0,.14-.32A28.7,28.7,0,0,0,74,62c0-.92,0-1.85,0-2.77h0V59a1.62,1.62,0,0,1,0-.22,0,0,0,0,0,0,0c.1-2.91.17-5.83,0-8.73a.29.29,0,0,0,0-.09,34.7,34.7,0,0,1,0-3.95,35.36,35.36,0,0,1,0-4,1.56,1.56,0,0,1,.53,0,.2.2,0,0,0,.24-.2.15.15,0,0,0,.06-.15C74.8,38.08,74.9,34.49,75,30.88Zm-.43,10.76a2.18,2.18,0,0,0-.57,0,.16.16,0,0,0-.23.12,27.87,27.87,0,0,0-.06,3.88c0,1.35-.12,2.69,0,4a.2.2,0,0,0,0,.09,88.79,88.79,0,0,1,0,9.23c0,1-.08,2,0,3s.18,1.91.11,2.85a60.41,60.41,0,0,0-8,.16s0,0,0,0a120.88,120.88,0,0,0-.06-15.81,17.09,17.09,0,0,0,.1-3.28c0-1.28,0-2.57,0-3.86a.17.17,0,0,0-.14-.17.14.14,0,0,0-.1-.06l-.52-.08v-.1a.11.11,0,0,0,0-.06l.12-10.69a1.87,1.87,0,0,0,.34,0,.21.21,0,0,0,.27-.18,23.65,23.65,0,0,0-.1-2.79.18.18,0,0,0,.1-.12l1-3.49a.16.16,0,0,0,.08-.15c.06-1.94.06-3.87,0-5.81l0,0a29.49,29.49,0,0,0,2.8-9.17c.15.59.22,1.22.38,1.8.25.86.51,1.71.76,2.56.46,1.57,1.06,3.1,1.63,4.64a.13.13,0,0,0,0,.08l0,.11a.25.25,0,0,0,0,.07c0,1.89,0,3.79-.15,5.68v.08a.17.17,0,0,0,.06.14c.39,1.19.8,2.37,1.24,3.54a.19.19,0,0,0,.07.08v0a15.31,15.31,0,0,0,0,2.14,4.67,4.67,0,0,0,0,.6.18.18,0,0,0,.09.3,3.57,3.57,0,0,0,.65.06h.05C74.52,34.51,74.42,38.07,74.58,41.64Z"/><path d="M73.36,35.45h-.54a3.2,3.2,0,0,0-.75-1.81,1.94,1.94,0,0,1,.37-.33c.19-.15,0-.48-.2-.34a3.31,3.31,0,0,0-.44.4,2.94,2.94,0,0,0-1.72-.75c0-.19,0-.38,0-.57a.19.19,0,0,0-.34-.11.16.16,0,0,0-.16.18c0,.17,0,.33,0,.49h-.15l0,0a2.16,2.16,0,0,0-1.6.68l0,0a2.28,2.28,0,0,1-.46-.36c-.18-.17-.45.1-.28.27a3.07,3.07,0,0,0,.5.39,3.42,3.42,0,0,0-.84,1.62c0,.1,0,.2,0,.3h-.26a1.55,1.55,0,0,1-.22,0c-.11-.1-.34-.06-.32.13,0,.37.54.24.8.23h0a3.51,3.51,0,0,0,.87,1.74.15.15,0,0,0-.11,0L67,38c-.19.16.08.43.27.27l.44-.37a.24.24,0,0,0,.06-.09,2.91,2.91,0,0,0,1.74.82,2.73,2.73,0,0,0,0,.7c0,.24.41.14.37-.1a2.07,2.07,0,0,1,0-.61,3.34,3.34,0,0,0,1.85-.74,2.77,2.77,0,0,0,.4.36c.2.15.39-.18.19-.33a2.2,2.2,0,0,1-.31-.3,2.78,2.78,0,0,0,.76-1.8h.54A.19.19,0,0,0,73.36,35.45Zm-3.29-1.32a1.59,1.59,0,0,1,1,2.42l-.09,0c-.29-.37-.59-.72-.91-1.06C70,35,70.06,34.57,70.07,34.13Zm-.44.19,0,.77a.17.17,0,0,0-.2.18.43.43,0,0,0,0,0,.16.16,0,0,0,0,.26l.17.17,0,.42a.05.05,0,0,0,0,0,.25.25,0,0,0,0,.07h0v0a.39.39,0,0,0,0,.15.29.29,0,0,0,.17.38.2.2,0,0,0,.2,0l.07,0a.25.25,0,0,0,0-.39.15.15,0,0,0,0-.07v-.06l.28.33a4.36,4.36,0,0,0,.32.37C69,38,67.36,35.3,68.92,34.4h0a1.51,1.51,0,0,1,.69-.29Zm.9,3.77A2.74,2.74,0,0,1,67.13,36a2.36,2.36,0,0,1,.66-2.16c.36-.38,1.23-1,1.82-.8,0,.21,0,.42,0,.63a1.87,1.87,0,0,0-.86.34h0a2,2,0,0,0-.51,2.68,1.86,1.86,0,0,0,2.66.5h0a.47.47,0,0,0,.32.07.22.22,0,0,0,.14-.14.44.44,0,0,0-.06-.31,2,2,0,0,0-1.23-3.11V33a2.62,2.62,0,0,1,2.3,2.07A2.49,2.49,0,0,1,70.53,38.09Z"/></g><g id="Layer_9" data-name="Layer 9"><path class="cls-6" d="M82.63,49.08a5.13,5.13,0,0,0-1-2.49,5.75,5.75,0,0,0-4.74-2.35,4.2,4.2,0,0,0-.7,0,6,6,0,0,0-3.88,2.35,5.18,5.18,0,0,0-.8,1.69,6,6,0,0,0,.15,3.91,38.78,38.78,0,0,0,5,9.54.35.35,0,0,0,.25.16.32.32,0,0,0,.46-.23v0a.39.39,0,0,0,.2-.14,37.44,37.44,0,0,0,3.77-6.89C82.06,53.11,83.4,50.79,82.63,49.08Zm-2.71,1.8a2.59,2.59,0,0,1-1.59,1.8,3.71,3.71,0,0,1-2.23.16,3.19,3.19,0,0,1-1.79-1.4c-.61-1.36-.53-3.09.9-3.89a3.75,3.75,0,0,1,2.62-.23A3,3,0,0,1,80,49a3.6,3.6,0,0,0,.12.44A3.27,3.27,0,0,1,79.92,50.88Z"/><path d="M80.19,49.64A3.22,3.22,0,0,0,76.41,47h0c-1.82.14-2.75,1.63-2.51,3.46a3,3,0,0,0,3.57,2.4,3.68,3.68,0,0,0,2.3-1.06A2.94,2.94,0,0,0,80.19,49.64Zm-.89,2a3.63,3.63,0,0,1-1.92.78,2.62,2.62,0,0,1-3-1.78,2.41,2.41,0,0,1,2.41-3.23.21.21,0,0,0,.15,0,2.79,2.79,0,0,1,2.86,2.25A2.46,2.46,0,0,1,79.3,51.67Z"/><path d="M82.12,46.74A6.06,6.06,0,0,0,75,44.44a7,7,0,0,0-3.21,2.46,5.45,5.45,0,0,0-.58,4.48,20.56,20.56,0,0,0,2.33,5.56,26,26,0,0,0,3.14,4.94l.08.06a.73.73,0,0,0,.57.2c.59,0,.89-.72,1.14-1.15,1-1.7,1.84-3.43,2.7-5.18C82.5,53,84,49.69,82.12,46.74Zm-2.24,10.6c-.38.74-.76,1.48-1.16,2.21-.19.37-.39.73-.6,1.1-.09.16-.18.32-.28.48l-.09.16c-.15.35-.42.4-.81.16a.17.17,0,0,0-.23-.15,19.62,19.62,0,0,1-2.11-3.22c-.68-1.24-1.38-2.48-2-3.75a12.26,12.26,0,0,1-1.23-4.44A4.52,4.52,0,0,1,73.11,46a5.88,5.88,0,0,1,7.1-.62C82.69,47.06,83,50.17,82,52.8A41.82,41.82,0,0,1,79.88,57.34Z"/></g></svg>