<svg xmlns="http://www.w3.org/2000/svg" viewBox="0 0 161 179"><defs><style>.cls-1{fill:#92d2f3;}.cls-2{fill:#9eca73;}.cls-3{fill:#6f9e32;}.cls-4{fill:red;}</style></defs><title>Artboard 4</title><g id="Layer_4" data-name="Layer 4"><path class="cls-1" d="M154.66,105.51c1.57-6.6.54-13.38-1.24-20.22-2.09-8.09-4.61-16.45-9.19-23.52a73.47,73.47,0,0,0-10.71-12.89c-3.43-4.54-7.54-8.15-12.74-10.13a59.33,59.33,0,0,0-10-4.94l-1.56-.61a65.7,65.7,0,0,0-13.53-4.27,61.87,61.87,0,0,0-36.31,3.45q-1.34.42-2.67.9a38.13,38.13,0,0,0-15.43,7.18A50.32,50.32,0,0,0,27.89,51.59a48.61,48.61,0,0,0-5.66,6.87,78.84,78.84,0,0,0-4.92,77.94c5.56,8,10.68,16.18,18.17,22.69,1.3,1.14,2.66,2.2,4,3.23a108.58,108.58,0,0,0,24.16,9.92c12.6,3.52,25.44,2,38.2.51q2.22-.85,4.39-1.81a57.71,57.71,0,0,0,15.53-7.22c9.77-6.44,19.64-15.12,25.42-25.64a32,32,0,0,0,5.52-10.57c2-6.82,2.19-14.55,1.94-21.59C154.67,105.78,154.66,105.65,154.66,105.51Z"/><path class="cls-2" d="M64.24,41.67a1.43,1.43,0,0,0,.36-1.38,1.63,1.63,0,0,0-.45-.71,1.37,1.37,0,0,0,.36-.95,1.53,1.53,0,0,0-1.5-1.5h-.15a1.51,1.51,0,0,0-1.5,1.5,1.64,1.64,0,0,0,.39,1l-.14,0a1.53,1.53,0,0,0-1.08,1.65v0a4.23,4.23,0,0,0-.34.4,1.5,1.5,0,0,0,.89,2.2,4.82,4.82,0,0,0,1.77.15,1.54,1.54,0,0,0,1.5-1.5,1.69,1.69,0,0,0-.26-.75A.62.62,0,0,0,64.24,41.67Z"/><path class="cls-2" d="M96.61,98.06a17.28,17.28,0,0,0-6.29-.12,1.51,1.51,0,0,0-.66,2.51l.31.25a1.53,1.53,0,0,0,2,0,13,13,0,0,1,3.88.22C97.69,101.35,98.5,98.46,96.61,98.06Z"/><path class="cls-2" d="M85.11,96.38a26,26,0,0,0-4.9-1.86,45.56,45.56,0,0,0-5.09-.42c-.64,0-.64,1,0,1a32.24,32.24,0,0,1,5.38.5,32.48,32.48,0,0,1,4.34,1.74C85.43,97.59,85.69,96.62,85.11,96.38Z"/><path class="cls-2" d="M134.18,127c-1.46-2.36-4.38-.91-6.15-2.67a1.82,1.82,0,0,0-2.12-.4,3.59,3.59,0,0,0-2.71-.8,4.74,4.74,0,0,0-1.56.45,6.59,6.59,0,0,0-.65.33l-.13-.08a6.21,6.21,0,0,1-1.12-.64c0-3.23-.87-6.85-4.52-7.58a2.31,2.31,0,0,0-1.92.57,2.61,2.61,0,0,1-.74-.19c-.9-.37-1.33-1.65-2-2.3a4.42,4.42,0,0,0-2.93-1.2,1.72,1.72,0,0,0-.36-.28,1.31,1.31,0,0,0-.1-.47q0-.54-.12-1.08a2.47,2.47,0,0,0-.74-1.26,2,2,0,0,0-1.94-.51,2.67,2.67,0,0,0-1.53,1.14c-.22.33-.47,1-.78,1s-1.19-.68-1.53-.84a4.45,4.45,0,0,0-2.12-.44,2.21,2.21,0,0,0-.46.07,3.56,3.56,0,0,0-2.22-.72,2.56,2.56,0,0,0-2,1.23c-.37.6-.12,1-.76.92a.85.85,0,0,0-.16,0l.3-.54a2,2,0,0,0-2.26-2.94c-1.61.29-2.33,1.55-3.61,2.36-.6.39-1.3.57-1.89,1-.43.28-1.1,1.18-1.57,1.32a7.19,7.19,0,0,0-2.85-1.84c-1.72-.38-4.16.12-5.35-1a7.15,7.15,0,0,1-.58-3.29,1.35,1.35,0,0,0-.79-1.27,2.49,2.49,0,0,0-.71-.94c-1.29-1.1-3.12-.84-4.65-.53a16.15,16.15,0,0,1,0-2,7.46,7.46,0,0,1,.17-1.07l0-.08a1.45,1.45,0,0,0,1.12-.91,1.51,1.51,0,0,0,.33-2.84,1.31,1.31,0,0,0-1.19-.28c-.66-.14-1.32-.26-2-.35a4.14,4.14,0,0,0-2.74.17,2.15,2.15,0,0,0-1,2.31s0,0,0,.08a10.22,10.22,0,0,1-.88,1.17l-.06,0a1.56,1.56,0,0,0-1.33-.42c-3,.42-5.27-2.5-5.34-5.12,0-1.48.12-2.87,0-4.29a1.45,1.45,0,0,0,.21-1.16c-.23-1.07,1.08-1.2,1.79-1.47a4.47,4.47,0,0,0,.79-.39h.05a29.35,29.35,0,0,0,4.87.27,4,4,0,0,0,2.15-.63h0c1.09-.37,2-1.09,3-1.49a5.19,5.19,0,0,1,3-.17,2.45,2.45,0,0,0,2.1,1.48c.73.08,1.25-.09,1.63.62a1.47,1.47,0,0,0,.24.34,1.48,1.48,0,0,0,.19.93,5,5,0,0,0,2.21,2.11c1,.51,2.73-.36,2.2-1.69a12.31,12.31,0,0,0-1.68-2.81c-.19-.27-.43-.59-.62-.92,0-1.92,3-1.93,4.3-2.93a12.19,12.19,0,0,1,2.1-1.47,7.37,7.37,0,0,0,2-1.21,1.54,1.54,0,0,0,0-2.13l-.18-.18,0-.25c0-.07,0-.38,0-.69a1.9,1.9,0,0,0,.71,0,2.24,2.24,0,0,0,1.5-1.78c.09-.37,0-.51.36-.77a2.23,2.23,0,0,1,1.17-.28,1.36,1.36,0,0,0,2.17.15,4.35,4.35,0,0,0,1-1.94c.21-.88.06-1.48,1-1.93s1.94-.71,2.89-1.06l.38-.13c.1.17.21.34.25.39a1.46,1.46,0,0,0,.69.56,1.32,1.32,0,0,0,1.77,1l4.48-1.55a1.5,1.5,0,0,0-.4-2.94,9.23,9.23,0,0,1-3.4-.26c-.84-.38-1.28-1-2.23-1.27a7.51,7.51,0,0,0-3.67.3c1.74-2.5,4.4-1,7.11-1.25a15.62,15.62,0,0,0,4.35-1.25,4.68,4.68,0,0,0,.6.23,1.4,1.4,0,0,0,.78,0,1.81,1.81,0,0,0-1.29,1.83,1.52,1.52,0,0,0,1.5,1.5,9.48,9.48,0,0,1,3.05.25c1.87.45,2.67-2.43.8-2.9l-.66-.16-.28,0a10.85,10.85,0,0,0-1.62-.17,1.31,1.31,0,0,0-1.39-.36,1.58,1.58,0,0,0,.93-1.72c.36-1-.41-2.44-1.73-2l-.38.15A11.37,11.37,0,0,0,104.77,57a13.74,13.74,0,0,1-1.83-.74c-.58-.4-1.06-1.09-1.63-1.54-.93-.72-2.32-1.83-3.55-2a2.53,2.53,0,0,0-1.92.66,1.35,1.35,0,0,0-1.41-.34c-.84.24-1.09-.35-1.63-.88A5.82,5.82,0,0,0,91.13,51a5.74,5.74,0,0,0-2.6-.49,1.54,1.54,0,0,0-.31,0,25.15,25.15,0,0,1-3.12-.3,1.55,1.55,0,0,0-1.84,1.05c-.45,1.44-1.09,3,.43,4,.35.24,1,.23.73.73a.67.67,0,0,1-.47.36,1.6,1.6,0,0,0-1.26-.23,1.73,1.73,0,0,0-.54.28,1.55,1.55,0,0,0-.65,2.65,1.33,1.33,0,0,0-.15.8,1.6,1.6,0,0,0-.16.48l-.27-.07a6.4,6.4,0,0,0-1-.36A8.18,8.18,0,0,1,77.72,59c-.36-.33-.45-.92-.77-1.31a2.63,2.63,0,0,0-.77-.62,1.54,1.54,0,0,0-.84-.71,38.45,38.45,0,0,0-6-1.48c-1.22-.24-4.37-.48-5.44-1.4.18-.36.36-.73.53-1.11.92-.47,2.24-.86,2.74-1.07,1.32-.56,2.67-1.09,4-1.6a1.5,1.5,0,0,0,1-1,1.67,1.67,0,0,0,1.07.11l.06,0a1.74,1.74,0,0,0,.8.59,8.86,8.86,0,0,0,2.75.51A1.48,1.48,0,0,0,77.3,47a3.19,3.19,0,0,0,.69-.81,1.35,1.35,0,0,0,0-1.53,3.66,3.66,0,0,0,1.76-.08A7,7,0,0,1,82.45,44a6.44,6.44,0,0,1,1,.17,1.59,1.59,0,0,0,.43.23.73.73,0,0,1,.58.29,1.52,1.52,0,0,0,1.9,1.45,5.6,5.6,0,0,1,1.49-.37,1.5,1.5,0,0,1-.9,1c-.83,0-1.67.1-2.49.13a1.5,1.5,0,0,0,0,3,10.67,10.67,0,0,0,2.82-.2,9.43,9.43,0,0,1,3.52.3c1.23.41,1.79,1.08,3.13.8a1.48,1.48,0,0,0,.81-2.29,13.93,13.93,0,0,1,2.38.52c1.84.58,2.63-2.32.79-2.89a15.66,15.66,0,0,0-4.41-.73,1.52,1.52,0,0,0-.63-1.14,7.66,7.66,0,0,0-5.48-1.44,1.54,1.54,0,0,0-.87-.78,14.73,14.73,0,0,0-4.12-1,21.28,21.28,0,0,0-2.51.38,1.38,1.38,0,0,0-1-.83,21.55,21.55,0,0,0-4.17-.36,12.48,12.48,0,0,1-5-1.54c-1.7-.91-3.22,1.68-1.52,2.59a18,18,0,0,0,2.59,1.14,1.92,1.92,0,0,0,.57,1.79,3.16,3.16,0,0,0,2.26.53,8.32,8.32,0,0,1,1.51.2,10.15,10.15,0,0,1-1.83.29,2.68,2.68,0,0,0-1,.46,1.37,1.37,0,0,0-.26-.37c-.68-.57-1.8-.39-2.41-1a6.94,6.94,0,0,0-.46-.8c-.91-1.26-3.42-.55-2.75,1.16,0,.13.12.24.17.35h0l0,.05a3.36,3.36,0,0,0,.16.33l-.35,0-1.61,0A1.5,1.5,0,0,0,62,44.84a2.47,2.47,0,0,0-.44,1.23c0,.13,0,.26,0,.38h-.06l-.32-.07c-.88-.1-1.76-.23-2.63-.37a3.11,3.11,0,0,0,.31-.43l.11-.06A1.56,1.56,0,0,0,58,42.7h-.08c1.63-.43,1.66-3-.24-2.95a.35.35,0,0,1-.35-.08c-.51-.68-1.69-1.14-2.36-.3-.26.33-1.22-.13-1.65-.21a3.72,3.72,0,0,0-2.45.33c-1.74.81-.22,3.4,1.52,2.59a1.48,1.48,0,0,1,1,.14,2.1,2.1,0,0,0-1.08,1c-1.81-1.15-3.79-1.89-5.87-1.27a3.46,3.46,0,0,0-1.06.44.39.39,0,0,0-.11.06h0a3.62,3.62,0,0,0-.32.22c-1.1.89-.17,2.41,1,2.53a7.74,7.74,0,0,0-1.44.16,9.63,9.63,0,0,0-2.2.91,27.91,27.91,0,0,0-4,.37c-1.9.32-3.71.86-5.61.27a2.25,2.25,0,0,0-2.92,1.57,20.09,20.09,0,0,0-2.09,1.58c-.32.28-.62.59-.91.89a2.45,2.45,0,0,0-1.22,1,2.72,2.72,0,0,0,0,2.68,2,2,0,0,0,.64.75,13.79,13.79,0,0,0,1.64,4.67c.85,1.56,2,3.07,2,4.92a2.27,2.27,0,0,0,.78,1.8c-1.84,5.34-2.38,10.62,1.1,15.51a2.48,2.48,0,0,0,1.31,1,41.72,41.72,0,0,0,1,4.93,7.68,7.68,0,0,0,1.17,2.55c.65.88,1.84,1.51,2.07,2.65.38,1.89,3.27,1.09,2.89-.8-.44-2.18-2.64-3.08-3.24-5.19q-.18-.66-.33-1.32a15,15,0,0,1,1.34,1.52c1.93,2.63,3.4,5.39,6.3,7.06h0a1.23,1.23,0,0,0,.43,1.52c0,.13,0,.26.08.38a4.8,4.8,0,0,0,.75,1.52,4.94,4.94,0,0,0,2.28,1.75,10,10,0,0,1,3.26,1.59,5.27,5.27,0,0,0,2.93,1.31,1.23,1.23,0,0,0,.87-.17,5.47,5.47,0,0,1,2.06,1.09,1.56,1.56,0,0,0,1.81.24,4.67,4.67,0,0,1,2.13-.83h0A8,8,0,0,0,62,104.26a13.34,13.34,0,0,0,9.09,2.61l.09,0a12,12,0,0,0,.24,2,8.32,8.32,0,0,0,1.82,2.73,1.48,1.48,0,0,0,.58.42,6.37,6.37,0,0,0,1.19.89c1.42.79,2.58.6,4.1.7s2.3.93,3.49,1.76a2.43,2.43,0,0,0,.14.2,1.89,1.89,0,0,0,.75.86l.83.48a1.08,1.08,0,0,0,0,.19c0,.37-.08.75-.11,1.12a4.23,4.23,0,0,1-.42,1c-.72,1.17-1.79,1.19-2.87,1.83-2.26,1.34-1.52,3.66-.75,5.72a2.88,2.88,0,0,0-1.46,2.7c.16,1.9,2.53,3.57,3.51,5.12a16,16,0,0,0,4.19,5,31,31,0,0,0,5.7,2.86c.58.61.53,1.87.6,2.64,0,.11,0,.21,0,.32a42.56,42.56,0,0,0-3.13,8.46,2.06,2.06,0,0,0-.06.69,17.08,17.08,0,0,0-1.71,3.15c-.59,1.49-.51,3.24-1.23,4.67a2,2,0,0,0-.2,1.3c-1.11,1.81-1.89,4.1.1,5.27,1.72,1,2.93-.58,3.75-1.85l.34-.53a2.31,2.31,0,0,0,1.72-.26,1.73,1.73,0,0,0,1-1.43A14.6,14.6,0,0,1,97.4,162a1.86,1.86,0,0,0,1,0,6.36,6.36,0,0,0,3.31-2.43,13,13,0,0,0,1-1.64l.1-.17a2.83,2.83,0,0,0,.66.31,3.18,3.18,0,0,0,3.31-.84,2,2,0,0,0,1.76-.87c.54-.74,1.2-2.23,2-2.71a8.55,8.55,0,0,0,1.78-.78c1.46-1.23,1.85-3.09,3.58-4.1a1.94,1.94,0,0,0,.78-.84c2.94-.44,4.65-2.24,6.75-4.26,1.74-1.67,3.8-2.9,4.22-5.28a9.11,9.11,0,0,1,.89-1.08c1.81-1.88,4-2.32,5.2-4.87C134.47,130.76,135.16,128.54,134.18,127ZM82.71,68.63a3.17,3.17,0,0,0,1.56-1.28,1.35,1.35,0,0,0,.66.63c.32.15.61.31.9.48L83,69.74c-.82.38-1.63.78-2.47,1.11a6.3,6.3,0,0,1-1.35.45,1.88,1.88,0,0,0-.45,0,1,1,0,0,0,0-.24c.26-.18.52-.38.78-.58A14.08,14.08,0,0,1,82.71,68.63Zm-7.56-2.07a4.91,4.91,0,0,0,3.4-.65l.08-.07a1.59,1.59,0,0,0,.58.36l1,.31c-.6.27-1.19.52-1.36.64-.43.3-1.19,1.16-1.61,1.26l-.18.29-1-1.32a1.49,1.49,0,0,0-2.12,0c-.69.85-.77,2.21-1.38,2.94-1.15,1.38-1.26-2.1-1.3-3.27A11.25,11.25,0,0,1,75.15,66.56Zm-7-2.68a6.18,6.18,0,0,1,4-1.07,1.49,1.49,0,0,0,1,.76,1.83,1.83,0,0,0-.34,0c-1.28.17-2.41.71-3.65,1-.2,0-.63.15-1,.2C68.1,64.47,68.13,64.18,68.14,63.88ZM46.57,45.2c-.13,0-.26,0-.39,0A1.49,1.49,0,0,0,46.7,45a3.13,3.13,0,0,1,.54-.23,1.38,1.38,0,0,1,.22.55A6.29,6.29,0,0,0,46.57,45.2Zm8.94-2.81.39-.11c.08,0,.17.08.25.12a1.19,1.19,0,0,0,.53.34,1.25,1.25,0,0,0-.59.19A1.37,1.37,0,0,0,55.51,42.39Z"/><path class="cls-2" d="M120.49,40.57a2.39,2.39,0,0,0-1.26-.18c-.15-.24-.3-.47-.47-.69A7.83,7.83,0,0,0,114.88,37c-1.87-.66-3.45-1.9-5.31-2.5a15.88,15.88,0,0,0-3.93-.6,3.19,3.19,0,0,0-3.52-.22l-.16.11a1.71,1.71,0,0,0-1.45,1.48,3.11,3.11,0,0,1-1.07-.65,1.66,1.66,0,0,0-2.48.48,3.42,3.42,0,0,0-.28-.22,2,2,0,0,0-2.74.72c-.28.67-.94.77-1.67.89a6.53,6.53,0,0,0-3.48,1.27,2,2,0,0,0,0,2.82,2,2,0,0,0,2.59.17,2.09,2.09,0,0,0,2.28.38c2.15-.94,3.78-.06,5.73.74.77.31,1.56.58,2.35.84a22,22,0,0,0,5.2,5.47,38.67,38.67,0,0,0,4.81,4.21c2.29,1.63,4,1.45,5.8-.82.92-1.18,1.19-2.3,1.91-2.89a5.23,5.23,0,0,1,1.05-.61,2.09,2.09,0,0,0,2.8-2C124.55,43.67,122.65,41.53,120.49,40.57Z"/><path class="cls-2" d="M133.35,48.74a2.43,2.43,0,0,0-.35-.2,1.69,1.69,0,0,0-.58-.37,2.2,2.2,0,0,0-1.29-.06,7.05,7.05,0,0,1-1.08-.58.49.49,0,0,0-.52,0,.64.64,0,0,0-.28,0,.78.78,0,0,0-.69.93.49.49,0,0,0,.33.58,7.09,7.09,0,0,0,1.62,1.05c.59.34,1.41.95,2.14.69a1.29,1.29,0,0,0,.79-1.18A.58.58,0,0,0,133.35,48.74Z"/><path class="cls-2" d="M154.46,88.08a2.08,2.08,0,0,0-1-1.53c0-.24,0-.48,0-.72a.44.44,0,0,0,.38-.47,13.91,13.91,0,0,0-.4-2.79.46.46,0,0,0-.16-.24c-.09-1.11-.2-2.21-.35-3.31-.27-1.89-.35-4.2-1.83-5.58a9.12,9.12,0,0,0-1.42-2.5c-1.41-3.31-3.56-6.3-4.32-9.87a.49.49,0,0,0-.92-.07c-.81-1.09-1.58-2.2-2.33-3.32-.12-.33-.24-.66-.35-1a.49.49,0,0,0-.57-.33.5.5,0,0,0-.74.63c.45.84.87,1.69,1.26,2.56l.34.81c.23.53.47,1.06.67,1.61h0a.61.61,0,0,1,0,.12c.21.46.94.21.94-.23h.17a.5.5,0,0,0,.62-.12c.71,2.89,2.29,5.42,3.58,8.07H148a.88.88,0,0,0-.74,1,8.11,8.11,0,0,0,1.18,2.78c.57,1.16,1.19,2.3,1.81,3.43a.49.49,0,0,0,.22.19c.3.43,1.09.13.89-.41l0-.07a.51.51,0,0,0,.09-.57c-.17-.41-.31-.83-.47-1.25h0a7,7,0,0,1,.76,2.12.41.41,0,0,0-.22.41l.06,1.19a.46.46,0,0,0-.44.48c0,2.41.21,4.81.41,7.22a1.54,1.54,0,0,0-1.07,1.79c.09.76.18,1.52.26,2.28a2.22,2.22,0,0,0-.05,2.15q-.33,5.68-.24,11.39a28.44,28.44,0,0,0-.34,1.27,28.08,28.08,0,0,0,.58,6.41c.38,1.89,3.5,1.93,3.86,0C156,103.72,155.41,96,154.46,88.08Z"/><path d="M156.73,100.12a69.72,69.72,0,0,0-4.59-24,.87.87,0,0,0-.06-.44,78.59,78.59,0,0,0-14.77-24.14c-5.69-6.31-13.65-13.89-21.81-17.06a.92.92,0,0,0-.26-.21c-12-6.47-26.37-8.49-39.91-7-.86.19-1.72.38-2.59.55a34.4,34.4,0,0,0-5.17,1.07l0,.08-.69.21-.29.13a.79.79,0,0,1-.44.09c-13.66,4.14-27.37,9.26-37.64,19.45-6,6-10.56,13.32-14.17,21C10.83,77.14,7.19,85.1,6.87,93.35c0,0,0,0,0,0a97.7,97.7,0,0,0,.82,18.25A49.72,49.72,0,0,0,9.9,122.74a.82.82,0,0,0,0,.48c5.8,15.69,15.49,31.46,30.1,40.21a1,1,0,0,0,.5.13c4.93,2.88,10,6.29,15.31,8.17a42.57,42.57,0,0,0,10.52,2,48.74,48.74,0,0,0,11.29,1.38C92.45,177.21,109,171.79,121,164a4.2,4.2,0,0,0,.66-.21c1.38-.9,2.72-1.85,4-2.87,1.28-1.18,2.46-2.42,3.37-3.18a126.72,126.72,0,0,0,9.92-8.9c5.48-5.62,9.09-12.55,12.33-19.62a.91.91,0,0,0,.09-.17.65.65,0,0,0,0-.13c.14-.31.29-.62.43-.92a1,1,0,0,0,0-.65c.3-1,.56-2,.81-3,.85-2.72,1.42-5.55,2.05-8.31a84.25,84.25,0,0,0,2.17-15.41A.86.86,0,0,0,156.73,100.12Zm-8.57,31.25a.93.93,0,0,1-.24.3c-2.66,5.52-5.7,10.87-9.95,15.33a99.1,99.1,0,0,1-7.45,6.9c-1.44,1.24-2.91,2.46-4.38,3.67a48.7,48.7,0,0,1-4.6,4c-.48.41-1,.8-1.46,1.16-1.79,1.29-3.94,2-5.92,2.91h0c-9.71,5.06-21.38,8.37-32.4,7.81l-.07-.08a8.37,8.37,0,0,1-1.41-.11,34.11,34.11,0,0,1-6.06-.31,53.63,53.63,0,0,1-6.68-1c-.6-.08-1.19-.19-1.79-.33a1,1,0,0,0-.25.07,32.46,32.46,0,0,1-10.26-2.42c-5.29-2.38-10.34-5.62-15.41-8.44a.7.7,0,0,0-.22-.07C27.08,152.67,18.34,139,12.85,125.24c0,0,0-.06,0-.1-.35-.83-.65-1.67-.92-2.54C10.11,118,9.78,112.91,9.26,108A88.34,88.34,0,0,1,8.77,95.6a.83.83,0,0,0,.08-.43c-.2-9,4-18,7.92-25.9C20.43,61.83,25,54.75,31.1,49.07,42.42,38.54,57.62,33.89,72.18,29.66c13.72-2.13,28.76-.52,41.18,5.88a1,1,0,0,0,.55.46c8.27,2.81,16.23,10.55,22,16.93a75,75,0,0,1,13.29,21,1,1,0,0,0,.08.3,72.92,72.92,0,0,1,5.25,21.15,1,1,0,0,1,.1.37C155.21,108,153.39,120.19,148.16,131.37Z"/></g><g id="Layer_7" data-name="Layer 7"><path class="cls-2" d="M102.06,44.06l.49-.9a4.53,4.53,0,0,0,.65-1.3c.07-.8-.47-1-1-1.4a.3.3,0,0,0-.08-.08l-.06,0a.23.23,0,0,0-.33.24.19.19,0,0,0-.17.15l0,.08,0,0a11.45,11.45,0,0,0-1,1.92,21.86,21.86,0,0,0-.12-3.34,3.55,3.55,0,0,0-.26-1.6,2.92,2.92,0,0,0-.86-1.14,2.24,2.24,0,0,0-.92-.26.21.21,0,0,0,.1-.19c0-.61-.08-1.22-.16-1.83a.14.14,0,0,0,0-.06l0-1.39a.28.28,0,0,0,.2,0,.61.61,0,0,0,.27-.88.53.53,0,0,0-.45-.21c0-.76,0-1.51.05-2.26,0-1,.15-1.55-.82-2a5.05,5.05,0,0,0-1.88-.26,1.31,1.31,0,0,0-.56,0c-1,.11-2,.5-1.81,1.41a.16.16,0,0,0,.12.15,2.94,2.94,0,0,0,0,.42s0,0,0,.06a9.65,9.65,0,0,0,0,2.34.17.17,0,0,0-.15,0,.54.54,0,0,0-.26.49h0a.48.48,0,0,0,.24.52v.09a16.52,16.52,0,0,0,.09,2.24c0,.27,0,.54,0,.82s0,.57,0,.86a.18.18,0,0,0-.1-.13,5.26,5.26,0,0,1-1.71-1.61l-.79-1.22c-.23-.38-.45-.75-.67-1.1-.45-.73-.91-1.45-1.37-2.18-.32-.52-.57-1.12-1.14-1.38h0c-.09-.36-.17-.73-.25-1.09a10.6,10.6,0,0,0-.15-1.78.57.57,0,0,0-.29-.39c-.19-1-.36-2-.5-3a.2.2,0,0,0-.06-.12c0-.2,0-.41,0-.61a6.1,6.1,0,0,0,.12-1.13.69.69,0,0,0-.46-.59,5.62,5.62,0,0,1,.09-.57,5.65,5.65,0,0,0,1.35-.15.22.22,0,0,0,.17-.21,10.9,10.9,0,0,0,0-1.4,1.22,1.22,0,0,0-.39-.73,6.73,6.73,0,0,0,.54-1.86,2.8,2.8,0,0,0,0-.5,5.29,5.29,0,0,0,0-.56.45.45,0,0,0-.12-.25c-.08-.25-.16-.49-.25-.73s-.32-.24-.41,0a4.27,4.27,0,0,0-.27.67.73.73,0,0,0-.25.7h0c-.3-.91.13-2.11.26-3a7.65,7.65,0,0,0,.08-1l0-.09a.62.62,0,0,0,0-.45,4.05,4.05,0,0,0-.16-.9c-.06-.17-.33-.24-.42,0a2.43,2.43,0,0,1-.49.71l-.08.09a4.54,4.54,0,0,1-.77.6.81.81,0,0,0-.35.16,2.7,2.7,0,0,0-.31.28,4,4,0,0,0-1.14,1c-.65.91-.2,1.93.32,2.79a.84.84,0,0,0-.27-.13,4.31,4.31,0,0,1-.79-.7.23.23,0,0,0-.38.16c0,.1,0,.21,0,.31a.18.18,0,0,0-.06.13,3.73,3.73,0,0,0,1.5,2.87.14.14,0,0,0-.1,0c-.23.19-.47.15-.52.5a3.74,3.74,0,0,0,0,.58,4.85,4.85,0,0,0,0,.66c0,.29.23.33.49.33h1.17l0,.86c-.34.2-.3.83-.32,1.17a1.1,1.1,0,0,0,.45,1.09l.06.14a1.27,1.27,0,0,1,0,.34.78.78,0,0,0-.06.4c0,.2.2.2.34.25l0,.15q.15,3.43.44,6.84v0a2.08,2.08,0,0,0-.55,1.25c0,.5.34.67.75.66a31.59,31.59,0,0,0,2.82,4.52c.68,1,1.36,2,2.11,3,.09.21.19.42.29.62s.14.29.22.44a20.31,20.31,0,0,0-.54,3.1,1.23,1.23,0,0,0,.34,1.25c0,.88,0,1.74,0,2.61a23.52,23.52,0,0,0-.26,3c0,.24-.05.47-.07.7-.14,1.46-.29,3.1.48,4.4,0,.19,0,.38,0,.57a13.91,13.91,0,0,0-.06,1.43c-.11,3.2-.26,6.41-.47,9.6a.22.22,0,0,0-.07.16A7.08,7.08,0,0,0,90.69,72a.23.23,0,0,0,.36,0l.09-.08a14,14,0,0,1-.28,2.34A1.8,1.8,0,0,1,90,75.55a2.36,2.36,0,0,0-.68.47c-.19.22.12.53.32.32a1.14,1.14,0,0,1,.11-.11l.07,0c1.64,0,3.29,0,4.92-.11h4.3a20.62,20.62,0,0,0,3,.22c.28,0,.16-.47-.12-.43h-.06a.72.72,0,0,0-.07-.25.17.17,0,0,0-.11-.1l-.83-1a2.94,2.94,0,0,1-.67-.94s0,0,0-.06c-.11-1.48-.16-3-.18-4.46v-.06c0-.07,0-.18,0-.3s0-.38,0-.57c.55-.32,1.42-.67,1.74-1.22s0-1.74-.1-2.4a61.47,61.47,0,0,1-.42-6.21c0-.28,0-.55,0-.82a.24.24,0,0,0,.41,0c.67-1,.1-2.24-.14-3.32a26,26,0,0,1-.65-5.64.22.22,0,0,0-.2-.21v-.08a.28.28,0,0,1,.08-.18l0,0a3.8,3.8,0,0,0,1.73-2,2.16,2.16,0,0,0-.21-1.54A1.53,1.53,0,0,0,102.06,44.06Z"/><path class="cls-3" d="M96.09,23.35a.31.31,0,0,0,0-.1c0-.2-.18-.25-.32-.18a.19.19,0,0,0-.14.21v.07a17.38,17.38,0,0,0-.18,3.53c.05.5.38.55.8.27a.22.22,0,0,0,.12-.19C96.24,25.76,96.15,24.56,96.09,23.35Z"/><path class="cls-3" d="M98.82,24c-.83,1-1.24,2.23-2.14,3.16-.2.2.12.52.32.31l0-.05a.42.42,0,0,0,.22.25.23.23,0,0,0,.3-.08,5.72,5.72,0,0,0,.65-1.34c.27-.68.63-1.33,1-2C99.29,24,99,23.74,98.82,24Z"/><path class="cls-3" d="M101,26.29c-.29.22-.58.42-.89.62a.17.17,0,0,0-.25,0c-.34.25-.73.48-1.07.75l-.35.16a.25.25,0,0,0-.12.35,1.11,1.11,0,0,0,0,.42.23.23,0,0,0,.38.09l2.52-2C101.45,26.49,101.18,26.14,101,26.29Z"/><path class="cls-3" d="M95.06,27.18c-.6-.86-1.16-1.74-1.69-2.64a.17.17,0,0,0-.12-.1L93,24c-.13-.26-.52,0-.39.23l1.56,3.29a.21.21,0,0,0,.19.11l.48-.06C95,27.5,95.17,27.33,95.06,27.18Z"/><path class="cls-3" d="M93.49,27.82l-1.95-1.17a.18.18,0,0,0-.2,0l-.57-.45c-.23-.17-.46.22-.23.39.77.59,1.51,1.21,2.24,1.85.48.42.68.22.81-.36A.21.21,0,0,0,93.49,27.82Z"/><path class="cls-3" d="M101.73,29.61h-.07a4.23,4.23,0,0,0-.63-.05l-1.32-.12a9.92,9.92,0,0,0-1.33-.1c-.37-1.91-3.61-1.37-4.81-.61a.19.19,0,0,0-.1.23.34.34,0,0,0-.13.38h-.07c-.91,0-1.8.2-2.7.23a.17.17,0,0,0-.1,0l-.34,0c-.29,0-.28.44,0,.45a16.68,16.68,0,0,1,2,.16,2.71,2.71,0,0,0,1.26.08.26.26,0,0,0,.17-.22,2.64,2.64,0,0,0,0-.28.27.27,0,0,0,.25-.1,1.29,1.29,0,0,1,.41-.36A4.3,4.3,0,0,1,98,29.7a.21.21,0,0,0,.21.08h.06a.27.27,0,0,0,0,.18v0c0,.1.12.15.21.16a1.94,1.94,0,0,0,.74-.1h0l.77,0c.31,0,.63,0,1,0l.68.06C101.92,30.08,102,29.66,101.73,29.61Z"/><path class="cls-3" d="M97.9,30.21a2.44,2.44,0,0,0-1.72-.93h0a.19.19,0,0,0-.27,0,.21.21,0,0,0-.13-.05A3.3,3.3,0,0,0,94,30a2.12,2.12,0,0,0-.55.81c-.17.45-.08.91-.22,1.35-.09.28.35.4.43.12.21-.65,0-1.29.54-1.85h0a.18.18,0,0,0,.16,0c.3-.1,1.34-.3,1.6-.73a1.33,1.33,0,0,0,.41.37c.26.12.54.1.78.27a.21.21,0,0,0,.26,0,2,2,0,0,1,.29.41A3.42,3.42,0,0,1,98,32.25c0,.28.46.29.45,0A3.37,3.37,0,0,0,97.9,30.21Z"/><path class="cls-3" d="M98.35,34l.05-.07a.21.21,0,0,0,0-.26,1.27,1.27,0,0,0,0-.2c0-.25-.38-.3-.44,0a5,5,0,0,0-.11.56,2.16,2.16,0,0,0-.49.95,3.56,3.56,0,0,0,.09,1.34l-.08,0a3.09,3.09,0,0,0-1.2.23,1.43,1.43,0,0,1-1.46-.18,1,1,0,0,0-.22-.19l-.08,0a1.24,1.24,0,0,0,0-.54c0-.35,0-.73-.05-1.08s-.19-.37-.38-.55v0a.21.21,0,0,0-.23-.22c0-.12,0-.25,0-.37,0-.29-.46-.29-.45,0a27.86,27.86,0,0,1,0,2.89.22.22,0,0,0,.34.19,1.27,1.27,0,0,1,.36-.08.17.17,0,0,0,0,.12l0,.07,0,.06c.3.6.38,1.28.74,1.86a.22.22,0,0,0,.35.05,15.12,15.12,0,0,1,2.29-1.78.21.21,0,0,0,.1-.25.21.21,0,0,0,.29-.12c.24.15.49,0,.55-.3a5.26,5.26,0,0,0-.06-1.12C98.34,34.55,98.34,34.26,98.35,34Z"/><path class="cls-3" d="M99.39,36.77c-.25-.17-.69-.38-1-.22s-.57,1.06-.64,1.44a.2.2,0,0,0,.07.21.23.23,0,0,0-.26.21.22.22,0,0,0,0,.08v0a.18.18,0,0,0-.16,0,47.48,47.48,0,0,1-6.27,2.91.24.24,0,0,0-.1.38,23.71,23.71,0,0,0-.54,3.71.23.23,0,0,0,.45,0,7.13,7.13,0,0,1,0-.79l0,0c1.72-1.58,3.48-3.11,5.24-4.66l-.19.29a.1.1,0,0,0,0,0c-1.72,1.94-3.42,3.89-5.12,5.84,0,0,0,0,0,0a.22.22,0,0,0-.08.18c0,.79,0,1.58,0,2.37a20.77,20.77,0,0,0-.21,3.36,28.8,28.8,0,0,0-.1,4.25h0a.13.13,0,0,1,0,.06c0,.25.47.2.44-.06s0-.51,0-.77a.19.19,0,0,0,.12-.2,3.83,3.83,0,0,1,0-.68.23.23,0,0,0,.06-.12c.21-1.33.66-2.66.85-4h0a4.42,4.42,0,0,1,.14-.52h0a12.6,12.6,0,0,1,1-2.44,2.42,2.42,0,0,0,.52-.93v0c.35-.61.71-1.22,1-1.8a37.68,37.68,0,0,0,2-4.11c.13-.24.26-.48.38-.72,0,.07,0,.15,0,.22a.23.23,0,0,0-.09.12c-.33,1.08-.62,2.16-.91,3.25a.19.19,0,0,0-.18.16c0,.16-.07.33-.1.49s-.16.44-.23.66c-.5,1.29-1,2.6-1.37,3.93l-.33,1c-.88,1.72-1.36,3.66-2.13,5.43a9.07,9.07,0,0,0-.88,3.8c0,.64,0,1.28,0,1.92a28.83,28.83,0,0,0-.35,4c-.07,1.35-.09,2.71-.07,4.07a5.61,5.61,0,0,0,.07,2.16c0,.25.46.19.45-.06,0-.69-.06-1.38-.07-2.07h0a.18.18,0,0,0,.24-.05c1.32-1.68,1.79-3.86,2.34-5.88A38.37,38.37,0,0,0,95,56a.25.25,0,0,0,0-.09c.14-.49.27-1,.38-1.46.24-1.05.44-2.11.63-3.17.14-.62.28-1.23.4-1.85s.22-1.5.35-2.25l.12-.52c0,.5-.07,1-.07,1.51a.18.18,0,0,0-.07.15l0,.47,0,.08a.22.22,0,0,0,0,.14c0,.19,0,.38,0,.56,0,0,0,0,0,0-.1.57-.17,1.13-.24,1.7a.22.22,0,0,0-.12.18c-.23,3.49-.48,7-.84,10.44-.14.86-.28,1.72-.39,2.58a23.53,23.53,0,0,1-.54,3.75.23.23,0,0,0,.33.25c.33-.16.9-.34,1.35-.56,0,.33,0,.67,0,1,0,.67.09,1.35.17,2h0c0,.33,0,.66.05,1,0,.16,0,.31,0,.47a.17.17,0,0,0,0,.1v0a.14.14,0,0,0,0,.07.22.22,0,0,0,0,.26q.92,1.71,1.86,3.39a.23.23,0,0,0,.42-.11V76a2,2,0,0,0,.28.2c.18.11.46-.12.31-.3-.41-.54-.81-1.08-1.19-1.64-.2-.28-.39-.55-.57-.84a4,4,0,0,1-.49-.75.21.21,0,0,0,0-.15v0a.21.21,0,0,0-.11-.1l.15-5.56s0,0,0-.07a28.43,28.43,0,0,0,.31-4.69c.07-1.5.17-3,.3-4.51a35.26,35.26,0,0,0-.08-5.14.22.22,0,0,0,.07-.16c0-.84,0-1.69,0-2.53a1.06,1.06,0,0,0-.45-1c.1-.18.23-.33.33-.51a.2.2,0,0,0,0-.13s0,0,0,0a4.42,4.42,0,0,0,.23-2.26,24.71,24.71,0,0,0-.07-3c0-.45.1-.9.13-1.35.13,1.26.28,2.52.34,3.79,0,.1,0,.21,0,.31l0,0a1.81,1.81,0,0,0,0,.23h0l.12.84c.26-.74,1-1.4,1.16-2.13a2.05,2.05,0,0,0-.15-1.06c-.46-1.73-.94-3.45-1.41-5.18a.31.31,0,0,0,0-.1.18.18,0,0,0,.2-.08.21.21,0,0,0,.22.06c.23-.06.47-.12.7-.16a1,1,0,0,1,.76.58,5.81,5.81,0,0,1,.27,1c.07.29.48.16.44-.12C100.42,38.58,100.25,37.35,99.39,36.77Z"/><path class="cls-3" d="M93.34,36.67a1.48,1.48,0,0,0-.85-.62.22.22,0,0,0-.11,0c0-.2-.3-.33-.41-.11a28.73,28.73,0,0,0-1.32,4.16c-.07.26-.24,1.1.36.81.11,0,.21-.34.25-.39a4.26,4.26,0,0,1,.75-.78,3.91,3.91,0,0,0,1.18-1.18A3.34,3.34,0,0,0,93.34,36.67Z"/><path class="cls-3" d="M90.3,32.92a.26.26,0,0,0-.2,0,8.65,8.65,0,0,0-2.46,2.58c-.17.35-.1.32,0,.63A8.86,8.86,0,0,0,88.88,38c.11.17.44.13.42-.11a5,5,0,0,1,0-1,.25.25,0,0,0,.18-.14c.45-1.19.65-2.44,1.14-3.63C90.72,33,90.47,32.84,90.3,32.92Z"/><path class="cls-3" d="M87.8,29.35a.35.35,0,0,0-.6,0c-.24.33-.28.73-.6,1-.11.1-.76.66-1,.62a.23.23,0,0,0-.42-.15,1.92,1.92,0,0,0-.25.85.75.75,0,0,0,.18.9c.75.49,1.57-.3,2-.82a4,4,0,0,0,.81-1.41A.91.91,0,0,0,87.8,29.35Z"/><path class="cls-3" d="M85.79,19.45a8.21,8.21,0,0,0-1.3.22.23.23,0,0,0-.16.22c0,.33.15.41.45.5s.66,0,.67.52,0,1-.64,1.2a.27.27,0,0,0-.12.09.29.29,0,0,0-.07.08,2.18,2.18,0,0,0-.09,1.11.47.47,0,0,0,.07.19h0a.23.23,0,0,0,.21.29c.33,0,.76.14.94-.21a1.84,1.84,0,0,0,0-.66,3.26,3.26,0,0,0,0-.88h0c.05-.31.11-.61.14-.92A10.08,10.08,0,0,1,86,19.74.24.24,0,0,0,85.79,19.45Z"/><path class="cls-3" d="M83.14,18a.25.25,0,0,0-.34.2v.1a.2.2,0,0,0,0,.17c0,.12,0,.24,0,.37a.21.21,0,0,0,0,.18l0,0a.24.24,0,0,0,.39.09l.07,0a3.76,3.76,0,0,1,4.05.06c.15.1.32,0,.34-.2C87.88,16.75,84.51,17.12,83.14,18Z"/><path class="cls-3" d="M87.19,13.43c-.07-.18-.4-.25-.44,0a10.53,10.53,0,0,0-.1,1.25h0c0-.08-.16-.25-.16-.33a.17.17,0,0,0-.09-.18c.32-1.55.8-3.24.18-4.64h0a.63.63,0,0,0-.25-.36.23.23,0,0,0-.31.08c-.59,1.2-1.74,1.69-2.68,2.55A2,2,0,0,0,82.87,14a.21.21,0,0,0,.07.11,1.08,1.08,0,0,0,0,.39.22.22,0,0,0,.43-.12c-.19-.68,1.11-1.1,1.52-1.42a2.05,2.05,0,0,0,.51-.55s.2-.44.23-.44c.21-.05.32.44.34.55a.2.2,0,0,0,.13.15c0,.11,0,.22-.07.32a22.49,22.49,0,0,0-.33,2.43c0,.29.43.29.46,0a4.7,4.7,0,0,1,.06-.51l.11.2.25.5a1.08,1.08,0,0,0,.15.28c0,.32-.1.64-.18,1a.21.21,0,0,0,.09.24v0a.22.22,0,0,0,.41.17,3.49,3.49,0,0,0,.66-1.77A5.7,5.7,0,0,0,87.19,13.43Z"/><path class="cls-3" d="M83.84,15.58a2.74,2.74,0,0,0-.61-.74,4.36,4.36,0,0,1-1-.71l0,0c-.08-.18-.37-.22-.41,0A3.31,3.31,0,0,0,83,17.3a.25.25,0,0,0,.37-.08.2.2,0,0,0,0-.31,2.8,2.8,0,0,1-.69-1.54,5.6,5.6,0,0,0,.81.52C83.71,16,84,15.78,83.84,15.58Z"/><path class="cls-3" d="M102.88,41c-.11-.27-.55-.15-.44.12l0,.1-1.18,1.87c-.13.2.11.39.28.31l.15.55a.23.23,0,0,0,.45-.06c0-.11,0-.23.06-.34a14.23,14.23,0,0,0,.81-1.41C103.26,41.73,103,41.4,102.88,41Z"/><path class="cls-3" d="M100.69,45.08v0c.11-.27-.33-.39-.43-.12a31,31,0,0,1-1.84,3.91l-.14,0c-.26.11-.14.55.12.43a3.93,3.93,0,0,0,1.11-.48,3.47,3.47,0,0,0,.48-1,6.44,6.44,0,0,0,1-2.54A.22.22,0,0,0,100.69,45.08Z"/><path class="cls-3" d="M104.78,56.27a.23.23,0,0,0,0,.45A.23.23,0,0,0,104.78,56.27Z"/><path class="cls-3" d="M95.22,68.57l-.65.64h0l-.08.08a.21.21,0,0,0,0,.32v.13h-.12a.22.22,0,0,0-.31-.28.22.22,0,0,0-.27.15l-.05.17-.07.06a.18.18,0,0,0-.24.1.75.75,0,0,0-.06.13l-.46.35a.25.25,0,0,0,0,.35c-.1.82-.19,1.65-.27,2.48a31.47,31.47,0,0,1-2,2.77c-.13.17,0,.45.22.38.57-.18,1.22-.08,1.48-.67.39-.84.72-1.72,1.08-2.58a.13.13,0,0,0,0-.06.13.13,0,0,0,0-.09c.26-1,.49-2,.7-3l0,0a.22.22,0,0,0,.22.23h0c0,.11,0,.23,0,.35a16.32,16.32,0,0,0-.09,2.1.21.21,0,0,0,.09.17.28.28,0,0,0,0,.08c-.13.33-.27.66-.41,1-.11.13-.23.26-.33.39A21.38,21.38,0,0,0,92.46,76c-.13.2.12.4.31.31s.74-.13,1-.33.19-.39.25-.6a7.31,7.31,0,0,0,1.42-2.72.22.22,0,0,0-.14-.26,14.31,14.31,0,0,1,.33-3.64C95.67,68.57,95.37,68.42,95.22,68.57Z"/><path class="cls-3" d="M102,76.05a13.6,13.6,0,0,0-2.39-3,.2.2,0,0,0-.18,0l-.05-.06a2.26,2.26,0,0,0,0-.26,74.79,74.79,0,0,0,.27-7.48.21.21,0,0,0-.06-.15.22.22,0,0,0-.08-.14.24.24,0,0,0-.31-.09,1.69,1.69,0,0,0-.32.19.2.2,0,0,0-.2.27v0a.27.27,0,0,0,.08.1.08.08,0,0,0,0,0c0,1.42,0,2.85.07,4.27h0c0,.08,0,.15,0,.22a.21.21,0,0,0,0,.16c0,.85,0,1.72.06,2.57,0,.06,0,.12,0,.18a.3.3,0,0,0,0,.1v.13a.2.2,0,0,0,0,.21,25.35,25.35,0,0,0,2,3,.23.23,0,0,0,.42-.11.21.21,0,0,0,.19,0l.09.13C101.73,76.52,102.12,76.29,102,76.05Z"/><path class="cls-3" d="M101.33,53.38c-.32-1.71-.71-3.4-.89-5.13,0-.23-.4-.33-.45-.06a1.38,1.38,0,0,1-1,1.15c-.09-.21-.45-.09-.41.17.14.91.31,1.81.45,2.72,0,.7.13,1.4.24,2.09,0,.41,0,.81,0,1.22a.23.23,0,0,0,.23.22,1.71,1.71,0,0,1,1.19.17c.56.3.5.66.51,1.26,0,.24.4.32.44.06a.13.13,0,0,0,0-.06h0A11.91,11.91,0,0,0,101.33,53.38Z"/><path class="cls-3" d="M103.85,43.64a.23.23,0,0,0,0,.45A.23.23,0,0,0,103.85,43.64Z"/><path class="cls-3" d="M102.3,44.3c-.06-.29-.48-.16-.44.12a1.74,1.74,0,0,1-.11.89.23.23,0,0,0-.19.1c-.08.09-.25.34-.39.32l-.11,0a.23.23,0,0,0-.19.21c0,.62,0,1.24,0,1.86a.23.23,0,0,0,.45.06c0-.15.19-.29.27-.42a.36.36,0,0,0,0-.09l.06,0C102.48,46.71,102.49,45.21,102.3,44.3Z"/><path d="M103.53,41.51a7.05,7.05,0,0,0-.61-1,1,1,0,0,0-.32-.25,4,4,0,0,1-.51-.27.23.23,0,0,0-.4-.13.24.24,0,0,0-.14.09,9.57,9.57,0,0,0-.81,1.43c0-.38-.1-.77-.17-1.15a.22.22,0,0,0,.12-.13,2,2,0,0,0,.1-1.54,3.58,3.58,0,0,1-.11-.35.24.24,0,0,0,.13-.32,2.74,2.74,0,0,0-.5-.74.05.05,0,0,0,0,0,.21.21,0,0,0-.11-.1,5.44,5.44,0,0,0-.91-.65c-.6-.36-.55-.74-.53-1.42s0-1.09,0-1.63a.9.9,0,0,0,.48-1,1.4,1.4,0,0,0-.27-.61.86.86,0,0,1-.19-.46,4.1,4.1,0,0,1,0-.7,18.35,18.35,0,0,0,3.3-.39.22.22,0,0,0,.1-.36.21.21,0,0,0-.12-.33A17,17,0,0,0,98.77,29a3.93,3.93,0,0,1,.83-.72l1.05-.83c.27-.23,1.14-.74.94-1.17a.18.18,0,0,0-.2-.12.24.24,0,0,0-.3-.1,28.35,28.35,0,0,0-3,1.53L98,27.56c.28-.66.57-1.31.84-2a4.52,4.52,0,0,0,.59-1.72.23.23,0,0,0-.39-.15.2.2,0,0,0-.32,0,10.87,10.87,0,0,0-1.1,1.58c-.28.46-.62.88-.93,1.32a23.82,23.82,0,0,0-.21-2.67c-.11-.69-.19-1.28-1-1.16a.18.18,0,0,0-.15.25.24.24,0,0,0-.06.19,7.6,7.6,0,0,1-.17,2.07c0,.45-.09.89-.12,1.34-.31-.45-.56-.95-.88-1.39s-.74-1-1.06-1.57c0,0,0,0,0,0a.19.19,0,0,0-.16-.14c-.61-.08-.36.67-.27,1a16.16,16.16,0,0,0,1.11,3c-.51,0-1-.53-1.44-.76a8.45,8.45,0,0,1-1.45-.7.23.23,0,0,0-.33,0c-.16-.08-.41,0-.33.24.21.53.88.87,1.28,1.23s.6.52.89.79.52.38.61.69a18.8,18.8,0,0,0-3.08.48.22.22,0,0,0-.09.37.24.24,0,0,0,.33.28c.15-.07.72.12.89.14l.53.07c.51.07,1,.12,1.54.16,0,.31,0,.63,0,.95-.51.29-.46,1.05-.22,1.53a.17.17,0,0,0,.14.11c0,.95,0,1.88,0,2.82A4.77,4.77,0,0,1,91.27,34a6.1,6.1,0,0,0-1-1.53l0,0c-.42-.84-1-1.52-1.52-2.33-.3-.5-.43-.94-.91-1.19v0c-.29-.89-.37-1.82-.59-2.73a11.87,11.87,0,0,1-.56-3.07,3.7,3.7,0,0,0,.25-1.5,3.32,3.32,0,0,0-.57-1.34c0-.08,0-.15,0-.23A4.93,4.93,0,0,1,87.65,20a.21.21,0,0,0,.21-.2A.18.18,0,0,0,88,19.6c0-.76.19-1.82-.51-2.3A3.27,3.27,0,0,0,88,16.24,2.52,2.52,0,0,0,88,14.68a.19.19,0,0,0-.13-.14,3.55,3.55,0,0,1-.55-1.43.22.22,0,0,0-.41-.12.21.21,0,0,0-.18.16,3.57,3.57,0,0,0-.11.47c.08-.91.62-1.79.66-2.72a2.5,2.5,0,0,0-.85-2,.22.22,0,0,0-.37.1.26.26,0,0,0-.13.1,5.13,5.13,0,0,1-2.23,1.81.23.23,0,0,0-.11.13,2.47,2.47,0,0,0-1.26,1.7,3.37,3.37,0,0,0,0,1l-.13-.23c-.11-.25-.48,0-.39.21a.21.21,0,0,0-.11.08,2.38,2.38,0,0,0,.45,3l0,0h0a2.55,2.55,0,0,0,.35.38l.14.11a1.29,1.29,0,0,0-.21.19.18.18,0,0,0-.06.13.18.18,0,0,0,0,.11c0,.63,0,1.25,0,1.88a.22.22,0,0,0,.09.16.17.17,0,0,0,.14.14c.45.09.88,0,1.32.12h0a2.11,2.11,0,0,1,0,.26l0,0a1.72,1.72,0,0,0-.18,1.39,2.76,2.76,0,0,0,.37,1.42c0,.26.09.53.14.79a.18.18,0,0,0,.21.16c.19,2.13.46,4.26.7,6.39l0,0c-.32.49-.75,1-.64,1.61a1.38,1.38,0,0,0,.9,1h0a2,2,0,0,1,.41.66c.13.24.27.47.42.7a9.75,9.75,0,0,0,.59.84.21.21,0,0,0,0,.13c.59,1,1.2,2,1.84,3,.3.47.61.93.92,1.39a13.1,13.1,0,0,1,1,1.38.19.19,0,0,0,0,.19c0,.07-.08.34-.1.42s-.07.34-.1.51-.1.57-.14.86a.21.21,0,0,0,0,.14c-.06.52-.1,1-.12,1.57a1.56,1.56,0,0,0,.26,1.07l0,0c0,.64,0,1.28,0,1.91a.2.2,0,0,0,0,.15,23.76,23.76,0,0,1-.21,3c-.07,1,.11,2.07,0,3.14a.15.15,0,0,0,.07.17,8.16,8.16,0,0,0,0,1.71,1,1,0,0,0,.17.48c.07.1.14.16.15.27a2.09,2.09,0,0,1-.08.5.24.24,0,0,0,.12.24c-.11,2-.21,4-.32,6a.18.18,0,0,0,0,.11c0,1-.19,2-.16,3A19.67,19.67,0,0,1,90,70.34a.19.19,0,0,0,0,.15s0,0,0,0q.16,1,.36,1.92a.18.18,0,0,0,.11.15.25.25,0,0,0,.35,0l.05,0c-.09.64-.12,1.28-.25,1.91l-.06,0c-.52.52-1,1-1.53,1.58a.23.23,0,0,0,.1.37.19.19,0,0,0,.23.07,7.47,7.47,0,0,1,2.36,0,23.56,23.56,0,0,0,2.38.06.27.27,0,0,0,.17-.08c1.27,0,2.54-.09,3.81-.06a.25.25,0,0,0,.16.05,3.87,3.87,0,0,1,.48,0H99l1.51,0c.64,0,1.27-.07,1.91,0a.22.22,0,0,0,.21-.29.23.23,0,0,0,0-.11v0a.23.23,0,0,0-.15-.21,2.9,2.9,0,0,1-.41-.53l-.53-.64c-.31-.36-.67-.71-1-1.1a.16.16,0,0,0,0-.1q-.09-1.32-.09-2.64c0-.79-.13-1.63-.1-2.41a9.18,9.18,0,0,0,1.54-1,.23.23,0,0,0,.07-.32.12.12,0,0,0,0-.1c0-.52,0-1,0-1.54a8.71,8.71,0,0,0,0-1c-.14-2.07-.06-4.2-.36-6.25h0c.92-1.33.43-2.65.18-4.07a.2.2,0,0,0,0-.16,35.52,35.52,0,0,1-.66-5.53l.07-.06a1.8,1.8,0,0,0,.21-.19,3.48,3.48,0,0,0,.43-.58,16.82,16.82,0,0,0,.93-1.72.22.22,0,0,0,0-.25,1.83,1.83,0,0,0-.39-1.51c.45-.75.88-1.51,1.28-2.29A.24.24,0,0,0,103.53,41.51ZM102,44a.52.52,0,0,0,0,.37,1.41,1.41,0,0,1,.31,1.51.19.19,0,0,0,0,.15,14.62,14.62,0,0,1-.77,1.4,2.37,2.37,0,0,1-.56.66h0a.2.2,0,0,0-.21.2l0,.07a.2.2,0,0,0,0,.2,43,43,0,0,0,.54,5v0c.15,1.49.88,2.92.09,4.29a.24.24,0,0,0-.21.28,45,45,0,0,1,.33,5.47h0c0,.31,0,.61,0,.92a.28.28,0,0,1,0,.09h0a7.16,7.16,0,0,1,0,.92c0,.52,0,1,0,1.54a.3.3,0,0,0,0,.1,9.29,9.29,0,0,1-1.36.88.24.24,0,0,0-.3.21c-.08.86.09,1.76.09,2.63s0,1.71.09,2.57a.19.19,0,0,0,0,.27A14.19,14.19,0,0,0,101.24,75l.59.71.22.32c-.52,0-1,.06-1.55,0s-1.17,0-1.75,0c-1.68-.08-3.36,0-5,0a.27.27,0,0,0-.17.08c-.71,0-1.42-.06-2.14-.08A12.7,12.7,0,0,0,89.78,76l1.13-1.17a0,0,0,0,0,0,0,.19.19,0,0,0,.16-.16c.18-.87.17-1.77.37-2.64a.23.23,0,0,0-.38-.22,2.35,2.35,0,0,1-.29.26c-.11-.57-.21-1.13-.31-1.7,0,0,0,0,0-.05a16.92,16.92,0,0,0,.25-3.1c0-1.2.17-2.38.15-3.57a.2.2,0,0,0,0-.09c.11-2,.21-4,.32-6a.19.19,0,0,0-.11-.18,1.25,1.25,0,0,0-.05-.79,2.54,2.54,0,0,1-.22-1.2c0-.39,0-.77,0-1.16a.17.17,0,0,0-.07-.17c.07-1-.07-1.9,0-2.86s.21-1.75.21-2.63a.21.21,0,0,0,0-.13c0-.82,0-1.63,0-2.45a.26.26,0,0,0-.12-.19,1.88,1.88,0,0,1-.15-1.24c0-.5.08-1,.13-1.48a.19.19,0,0,0,0-.11c0-.31.1-.61.16-.92a1.64,1.64,0,0,0,.11-.61c0-.22-.13-.33-.26-.52-.44-.64-.88-1.26-1.31-1.9-.74-1.12-1.44-2.27-2.11-3.44a.21.21,0,0,0,0-.2,14.66,14.66,0,0,1-1-1.38,6.61,6.61,0,0,0-.57-1,.22.22,0,0,0-.16-.21.91.91,0,0,1-.74-1,3.26,3.26,0,0,1,.55-.93.19.19,0,0,0,.14-.21c-.26-2.22-.54-4.45-.73-6.69a.24.24,0,0,0-.24-.21L84.57,23a.2.2,0,0,0-.08-.14l0,0a2.43,2.43,0,0,1-.23-1,1.53,1.53,0,0,1,.11-1.24.14.14,0,0,0,0-.06.19.19,0,0,0,.07-.13c0-.23.12-.74-.19-.82a.18.18,0,0,0-.19.05c-.39-.06-.77,0-1.15-.1,0-.58,0-1.15,0-1.72a1.12,1.12,0,0,1,.33-.24.23.23,0,0,0,0-.35c-.1-.12-.24-.2-.35-.31a3.06,3.06,0,0,1-.35-.37.13.13,0,0,0-.07-.06,2,2,0,0,1-.42-2.34,2.58,2.58,0,0,0,.72.68,1,1,0,0,0,.3.25c.25.14.48-.25.23-.39,0,0-.06,0-.09-.07a.23.23,0,0,0-.11-.13h0a2.65,2.65,0,0,1-.24-1.87,2.47,2.47,0,0,1,1.29-1.33.2.2,0,0,0,.09-.09,5.42,5.42,0,0,0,2.07-1.76c1.41,1.67-.75,3.66.14,5.54a.19.19,0,0,0,.31.07.22.22,0,0,0,.17-.21,6.74,6.74,0,0,1,.14-1A9.89,9.89,0,0,1,87.59,15a.31.31,0,0,0,0,.1,2.53,2.53,0,0,1-.66,2,.19.19,0,0,0,0,.23.21.21,0,0,0,.22.27.86.86,0,0,1,.33.8c0,.36,0,.72,0,1.08a4.33,4.33,0,0,0-1.35.09H86.1a.19.19,0,0,0-.2.16c0,.13,0,.25,0,.38a.18.18,0,0,0,0,.21h0a.18.18,0,0,0,.12.2,2.76,2.76,0,0,1,.46,1.09,3.14,3.14,0,0,1-.2,1.21.18.18,0,0,0,0,.12v0h0a.28.28,0,0,0,0,.13,11.25,11.25,0,0,0,.48,2.75c.25,1,.36,2,.65,2.94a.23.23,0,0,0,.07.4c.64.18,1,1.15,1.33,1.67a12.9,12.9,0,0,1,1.14,1.79.18.18,0,0,0,.12.11,3.81,3.81,0,0,1,.67,1,12.85,12.85,0,0,0,.84,1.24A3.31,3.31,0,0,0,93,36.42a.2.2,0,0,0,.1,0c.11.18.44.15.42-.1-.1-1.16,0-2.29-.06-3.45a.21.21,0,0,0-.24-.21c-.1-.28-.17-.73.16-.84a.24.24,0,0,0,.17-.22c0-.44,0-.89,0-1.34a.23.23,0,0,0-.32-.2s0,0,0,0h0c-.69-.06-1.39-.13-2.08-.23a3.68,3.68,0,0,1-.41-.08c.84-.17,1.73-.23,2.57-.34a.25.25,0,0,0,.17-.39V29c-.09-.59-.74-1-1.16-1.33l-.89-.78h0a9.26,9.26,0,0,1,1.26.63c.55.38,1,.69,1.63.32a.22.22,0,0,0-.09-.41v0a16.75,16.75,0,0,1-.77-1.85c0-.14-.12-.54-.23-.91l.7,1c.36.51.63,1.09,1,1.57a.21.21,0,0,0,.17.08.22.22,0,0,0,.37-.16,28.49,28.49,0,0,0,.32-3.9c.52.32.52,3.44.54,3.89a.23.23,0,0,0,.33.2.21.21,0,0,0,.22-.1c.33-.53.75-1,1.08-1.52A15.77,15.77,0,0,1,99,24.11a8.62,8.62,0,0,1-.74,1.8c-.23.56-.47,1.1-.71,1.65a.26.26,0,0,0,.21.35h0l.13.08a.2.2,0,0,0,.29.08,27.53,27.53,0,0,1,2.64-1.37c-.2.17-.41.38-.47.44-.29.24-.59.47-.89.7s-1.11.73-1.23,1.3a.24.24,0,0,0,.16.27.21.21,0,0,0,.12,0,15.79,15.79,0,0,1,2.92.28,18.62,18.62,0,0,1-2.89.29.22.22,0,0,0-.2.32.17.17,0,0,0,0,.1,2.83,2.83,0,0,0,0,1.23c.07.15.23.19.32.33a.74.74,0,0,1,0,.77.23.23,0,0,0-.41.13c0,.68.07,1.34.05,2,0,.38-.14,1.14.09,1.48.08.12.12.12.24.2.38.26.78.24,1.16.58l.12.12h0a9.69,9.69,0,0,1,.38,1.19,1.76,1.76,0,0,1,0,1.47.09.09,0,0,1,0,.05.23.23,0,0,0-.12.25,15.27,15.27,0,0,1,.25,2l0,.11a.19.19,0,0,0,.12.25.21.21,0,0,0,.38-.14s0-.1,0-.15a8.62,8.62,0,0,1,1-2,2.1,2.1,0,0,0,.54.31c.37.2.57.78.77,1.13l0,0C102.8,42.53,102.4,43.25,102,44Z"/><path class="cls-4" d="M93.63,62.08a5.13,5.13,0,0,0-1-2.49,5.75,5.75,0,0,0-4.74-2.35,4.2,4.2,0,0,0-.7,0,6,6,0,0,0-3.88,2.35,5.18,5.18,0,0,0-.8,1.69,6,6,0,0,0,.15,3.91,38.78,38.78,0,0,0,5,9.54.35.35,0,0,0,.25.16.32.32,0,0,0,.46-.23s0,0,0,0a.39.39,0,0,0,.2-.14,37.44,37.44,0,0,0,3.77-6.89C93.06,66.11,94.4,63.79,93.63,62.08Zm-2.71,1.8a2.59,2.59,0,0,1-1.59,1.8,3.71,3.71,0,0,1-2.23.16,3.19,3.19,0,0,1-1.79-1.4c-.61-1.36-.53-3.09.9-3.89a3.75,3.75,0,0,1,2.62-.23A3,3,0,0,1,91,62a3.6,3.6,0,0,0,.12.44A3.27,3.27,0,0,1,90.92,63.88Z"/><path d="M91.19,62.64A3.22,3.22,0,0,0,87.41,60h0c-1.82.14-2.75,1.63-2.51,3.46a3,3,0,0,0,3.57,2.4,3.68,3.68,0,0,0,2.3-1.06A2.94,2.94,0,0,0,91.19,62.64Zm-.89,2a3.63,3.63,0,0,1-1.92.78,2.62,2.62,0,0,1-3-1.78,2.41,2.41,0,0,1,2.41-3.23.21.21,0,0,0,.15,0,2.79,2.79,0,0,1,2.86,2.25A2.46,2.46,0,0,1,90.3,64.67Z"/><path d="M93.12,59.74A6.06,6.06,0,0,0,86,57.44a7,7,0,0,0-3.21,2.46,5.45,5.45,0,0,0-.58,4.48,20.56,20.56,0,0,0,2.33,5.56,26,26,0,0,0,3.14,4.94l.08.06a.73.73,0,0,0,.57.2c.59,0,.89-.72,1.14-1.15,1-1.7,1.84-3.43,2.7-5.18C93.5,66,95,62.69,93.12,59.74Zm-2.24,10.6c-.38.74-.76,1.48-1.16,2.21-.19.37-.39.73-.6,1.1-.09.16-.18.32-.28.48l-.09.16c-.15.35-.42.4-.81.16a.17.17,0,0,0-.23-.15,19.62,19.62,0,0,1-2.11-3.22c-.68-1.24-1.38-2.48-2-3.75a12.26,12.26,0,0,1-1.23-4.44A4.52,4.52,0,0,1,84.11,59a5.88,5.88,0,0,1,7.1-.62C93.69,60.06,94,63.17,93,65.8A41.82,41.82,0,0,1,90.88,70.34Z"/></g></svg>