<svg xmlns="http://www.w3.org/2000/svg" viewBox="0 0 168 186"><defs><style>.cls-1{fill:#92d2f3;}.cls-2{fill:#9eca73;}.cls-3{fill:#ceab89;}.cls-4{fill:#a67c52;}.cls-5{fill:red;}</style></defs><title>Artboard 1</title><g id="Layer_4" data-name="Layer 4"><path class="cls-1" d="M156.66,110.51c1.57-6.6.54-13.38-1.24-20.22-2.09-8.09-4.61-16.45-9.19-23.52a73.47,73.47,0,0,0-10.71-12.89c-3.43-4.54-7.54-8.15-12.74-10.13a59.33,59.33,0,0,0-10-4.94l-1.56-.61a65.7,65.7,0,0,0-13.53-4.27,61.87,61.87,0,0,0-36.31,3.45q-1.34.42-2.67.9a38.13,38.13,0,0,0-15.43,7.18A50.32,50.32,0,0,0,29.89,56.59a48.61,48.61,0,0,0-5.66,6.87,78.84,78.84,0,0,0-4.92,77.94c5.56,8,10.68,16.18,18.17,22.69,1.3,1.14,2.66,2.2,4,3.23a108.58,108.58,0,0,0,24.16,9.92c12.6,3.52,25.44,2,38.2.51q2.22-.85,4.39-1.81a57.71,57.71,0,0,0,15.53-7.22c9.77-6.44,19.64-15.12,25.42-25.64a32,32,0,0,0,5.52-10.57c2-6.82,2.19-14.55,1.94-21.59C156.67,110.78,156.66,110.65,156.66,110.51Z"/><path class="cls-2" d="M40.67,162.36A20.88,20.88,0,0,0,39.39,159a34.68,34.68,0,0,1-1.15-3.58,4.94,4.94,0,0,0-1.47-2.23l-.06,0a13.4,13.4,0,0,0,3.13-1.61,4,4,0,0,0,.7-2.52,10.28,10.28,0,0,0-.94-3.88,15.79,15.79,0,0,1-1.39-3.54c-.23-1.75.5-2.46.87-4.19.78-3.73-4.71-9-8.49-7.58-.18-.17-.36-.34-.56-.51a7.25,7.25,0,0,0-4.49-1.87,1.72,1.72,0,0,0-1.11.26,4.47,4.47,0,0,1-.31-.82,1.58,1.58,0,0,0-.51-.76,5.77,5.77,0,0,0-.77-2.6,10.4,10.4,0,0,0-3.06-2.77,4.34,4.34,0,0,0-1.38-.76h-.56c-.74-1.8-1.51-3.55-3.33-4.71a1.57,1.57,0,0,0-2.54,0,1.26,1.26,0,0,0-.9,1.37c.6,9.29,5.05,19.11,9.87,27,4.42,7.25,10.17,16.07,17.2,21a1.33,1.33,0,0,0,2.09-.82A1.32,1.32,0,0,0,40.67,162.36Z"/><path class="cls-2" d="M35.31,50.37l-1,1.1a.47.47,0,0,0-.37,0A10.16,10.16,0,0,0,31,55q-2.45,2.64-4.83,5.31a.5.5,0,0,0,0,.61,1.44,1.44,0,0,0-.65.53,30.49,30.49,0,0,0-2.06,3.45c-2.77,3.55-4.7,8-7.23,11.67a1.3,1.3,0,0,0,.11,1.64C13,85,10.21,92.89,11,100.38c.06.64,1.06.64,1,0-.73-7.28,2-15,5.19-21.67a1.36,1.36,0,0,0,1.09-.13c1.2-.7,3.35-1.48,4.21-2.63.38-.51.31-1,.59-1.57,1.32-2.44,1.4-.85,2.56-1.86.92-.8.9-1.19,1-2.39a28.78,28.78,0,0,1,1.64-7.56,1.32,1.32,0,0,0-.2-1.29l1.71-2.57a.46.46,0,0,0,.5-.11l2.9-2.77a.53.53,0,0,0,.79-.08c.37-.53.36-.6.19-1.23a.47.47,0,0,0-.34-.33A17.28,17.28,0,0,0,36.1,51,.5.5,0,0,0,35.31,50.37Z"/><path class="cls-2" d="M66.07,40.24a7,7,0,0,0-.25-1.06,1.52,1.52,0,0,0-2.2-.89c-.57.27-3.59-.12-4.61,0-2.14.24-4.54,1.51-6.52,2.38A56.4,56.4,0,0,0,41.9,46.83a1.25,1.25,0,0,0-1.24.75,3.37,3.37,0,0,1-.19.32c-.29.22-.58.44-.86.67a1.17,1.17,0,0,0-.49,1.14,24.12,24.12,0,0,0-2.59,3c-1,1.52-1.82,4.26-.73,6s3.07.82,4.18-.33a13.86,13.86,0,0,1,6.5-4.24,1.53,1.53,0,0,0,.51-.26A4.24,4.24,0,0,0,49.25,53a21.61,21.61,0,0,0,7.54-3.14c1.24-.9,2.72-1.45,3.92-2.32,2.19-1.59,3.39-3.42,6.15-4.42C68.66,42.48,67.89,39.59,66.07,40.24Z"/><path class="cls-2" d="M63.75,51.74a10.6,10.6,0,0,1-4.25.87,1.47,1.47,0,0,0-.63-.34,1.86,1.86,0,0,0-2.37,1.35,1.39,1.39,0,0,0,.11,1.06,1.26,1.26,0,0,0,.68.66c2.8,1.27,5.39.3,8-1C67,53.44,65.48,51,63.75,51.74Z"/><path class="cls-2" d="M73.83,62.14a1.52,1.52,0,0,0-1-.18,1.87,1.87,0,0,0-.83-.18,2.6,2.6,0,0,0-1.75,1l-1.24,1.3a1.52,1.52,0,0,0,1.06,2.56,4.48,4.48,0,0,0,4.25-2.48A1.53,1.53,0,0,0,73.83,62.14Z"/><path class="cls-2" d="M152.89,79.14c-2.54-7.54-6-15.24-11.59-20.1A47.93,47.93,0,0,0,134,51.28a1.6,1.6,0,0,0-.6-.32,2.4,2.4,0,0,0-.82-.86c-1.29-.8-2.49.62-2.16,1.77a7.86,7.86,0,0,0-1,.17c-.79.12-1.57.28-2.35.44a1.5,1.5,0,0,0-1.28-.34c-.77.14-1.57-.08-2.36,0a9.51,9.51,0,0,0-2,.58,10.8,10.8,0,0,1-2.22.65,1.55,1.55,0,0,0-.6-2.59,16.69,16.69,0,0,0-3-.41,23.36,23.36,0,0,1-4.19-1.24,1.2,1.2,0,0,0-1.11.11,4.33,4.33,0,0,0-2.18-.47c-4.92-1-10.1-.17-13.24,4.08a56.13,56.13,0,0,0-6.1,2.43,1.52,1.52,0,0,0-.31,2.36,4.61,4.61,0,0,0,3.27,2.12C93,59.85,94,59,95.11,58.72c.5.82.89,1.83,1.31,2.62a1.37,1.37,0,0,0,2.16.4c2.72,0,5.65-3.06,3.91-5.53-.77-1.08-.9-.44.35-.81a2.14,2.14,0,0,0,1.57-1.4,2.85,2.85,0,0,0-.06-1h0c.68,0,1.6-.09,2.48-.06a1.87,1.87,0,0,0,.47.5,3,3,0,0,0-1.1,1,2.5,2.5,0,0,0,0,2.76c.71,1,1.83.9,2.93.88.26,0,3.39-.17,4.18-.06l.19.15,0,.13c-2.63.37-6.71.63-7.76,2.94-.13.3-.16,1.34-.29,1.45h0a1.31,1.31,0,0,0-1.15-.13.84.84,0,0,0-.14.06,4.69,4.69,0,0,0-.63-.13,8.1,8.1,0,0,0-3.58.71l-.19-.08a4.56,4.56,0,0,0-3.52.14,2.72,2.72,0,0,1-.52-.39c-.86-.81-.89-2.1-2.27-2.34a1.83,1.83,0,0,0-2.13,2.07,2.24,2.24,0,0,0,.56,1.13,5.07,5.07,0,0,0-2.09.14,31.71,31.71,0,0,0-4.28,1.64,6.28,6.28,0,0,0-1.64,1.1,1.77,1.77,0,0,0-.56-2c-.6-.43-.91-1.2-1.41-1.73a4.91,4.91,0,0,0-.87-.71c-.41-.25-.8-.24-.9-.49-.33-.79,0-1.3-.84-1.95s-1.61-.53-2.49-.83a1.4,1.4,0,0,0-.62-.08,2,2,0,0,0-2.65,2.4A3.34,3.34,0,0,0,76,63.44a6.79,6.79,0,0,0,.66.2,5.27,5.27,0,0,0-.61.5,1.51,1.51,0,0,0,.3,2.35c1.76,1.15,3.67.77,5.61.85a23.93,23.93,0,0,0-4.79.84c-1.13.33-1.59,2.2-.36,2.75a28.62,28.62,0,0,1,3.27,1.48c.08,1.47-2.94,2.29-4,2.22-2.33-.14-3.69-1.61-6-.47a1.24,1.24,0,0,0-.76,1.09,1.05,1.05,0,0,0-.05.19c-.22,1.15-.45,2.29-.66,3.44a2.72,2.72,0,0,0,.19,2.25,4.49,4.49,0,0,0,2,1.17L74,83.64a1.31,1.31,0,0,0,1.36-.31C77,83,79.19,82.4,80.15,81c.48-.66.39-1.32,1-1.92a14,14,0,0,1,3.07-2,1.32,1.32,0,0,0,1.14-.74c.23-.41.48-.93,1-1s1.4.31,1.95.4A3.56,3.56,0,0,0,91.3,75c1.66-.39,3.31-.81,4.63.1.92.64,1.48,1.79,2.42,2.46,1.17.83,3.34,1,4.12,2.23,1,1.61,3.65.11,2.59-1.52a6.08,6.08,0,0,0-2.9-2.29,11.5,11.5,0,0,1-3.1-1.84c-.12-.11-.23-.24-.34-.36a1.52,1.52,0,0,0-.36-1c.73.88,3.66,1.76,4.87,2.12a14.28,14.28,0,0,0,1.92.41l.32.4a1.18,1.18,0,0,0,.81.46,25,25,0,0,1,1.82,2.79c.8,1.26,1.62,3.32,2.94,4.12a1.9,1.9,0,0,0,2.82-1c.54-1.47,0-3.15-.53-4.57l0,0a3.06,3.06,0,0,0,1.76.75c.52.82.43,2.06,1,3a3.69,3.69,0,0,0,2,1.43A22.55,22.55,0,0,0,127.52,84a14.69,14.69,0,0,1,.26,2.48,8.34,8.34,0,0,1-.14,2.43c-.33.35-.62.14-1,.17a5.55,5.55,0,0,0-2.35.67,1.43,1.43,0,0,0-.15-.33,1.47,1.47,0,0,0-1.29-.74,4.9,4.9,0,0,0-2.32.75,1.19,1.19,0,0,0-.11-.26c-1.06-1.86-4.18-1.4-6-1.55-3.35-.29-4.27-.34-6.35,2-2.85-.91-5.78-1.24-8.62-2.44-.27-.12-3.13-1.14-3.15-1.23a13.81,13.81,0,0,0,.81-1.33,2.84,2.84,0,0,0-1.71-3.35,4.39,4.39,0,0,0-3.87.53,19.27,19.27,0,0,0-11.08,1.8c-3.75.18-8.07.31-10.82,2.67a7.85,7.85,0,0,0-2.74,5.85c-4,1.5-9.26,5.1-9.41,9.52a7.61,7.61,0,0,0,.5,2c.61,2.91-.65,2.43-1.33,4.55s.31,3.52,1.35,5.11a1.35,1.35,0,0,0,.4,1.24c1.48,1.53,3.74,1.27,5,3,1.07,1.53,1.45,3.08,3,4.32,1.2,1,2.79,1.91,4.4,1.59,1.15-.22,1.64-1.05,2.34-1.72a1.72,1.72,0,0,0,.42.11,22.73,22.73,0,0,0,6.84.11c2.71-.52,4.74-2.62,7.5-1.86,1,1.68,2.11,3.63,4.41,3.1.54-.13,2.38-1.58,2.94-1.47l0,0c1.79,2.42-.08,4.08-.9,6.46a3.22,3.22,0,0,0,.52,3.57,1.47,1.47,0,0,0,.34.67,17.79,17.79,0,0,1,3.07,4.94c.61,1.49,0,2.83.09,4.36a7.55,7.55,0,0,0-1.61,7.37c.54,1.88,1.93,3.27,2.66,5,.85,2.06,1,4.55,1.37,6.74a1.61,1.61,0,0,0,.1.35,1.67,1.67,0,0,0,1.32,2.26c5.76.68,11.86-3.91,15.51-8.26,2.89-.8,3.65-3.79,4.85-6.27a1.32,1.32,0,0,0,.61-.23c2.24-1.43,4.54-3,5.87-5.34a7.64,7.64,0,0,0,.94-2.78c.21-1.6-.56-3.48.16-5a1.38,1.38,0,0,0,.46-.77c1.09-4.6,6.49-6.75,9.33-10.33a32.7,32.7,0,0,0,5.38-10.4,1.52,1.52,0,0,0-1.85-1.85,29.12,29.12,0,0,1-4.29,1.59c-2.38.43-1.23.46-1.64-.49a.45.45,0,0,0,.25-.32,14.81,14.81,0,0,1,.39-1.49,2.09,2.09,0,0,0,.08-.23,1.29,1.29,0,0,0,1.47.43c3.61-1.08,7.76-2.45,9.78-5.86,1.56-2.62,2.86-6.63-.59-8.39a1.52,1.52,0,0,0-2,.63,5.69,5.69,0,0,0-.52.33c-.69-.9-1.26-2-1.87-2.87l-2-3a1.69,1.69,0,0,0,0-.39c0-.26-.26-1.17-.08-1.42.67-.93,1.38.34,1.65.79a12.14,12.14,0,0,0,1.45,2.65c.64.62,1.33.46,2,.88s1.16,1.25,1.93,1.68a1.4,1.4,0,0,0,.9.19,2,2,0,0,0,1,0c.16,0,1-.44,1.06-.44l.29-.28a1.72,1.72,0,0,0,.35,1.36c.31.85.79,1.66,1.12,2.51a15.14,15.14,0,0,1,1.11,4.87,1.41,1.41,0,0,0,.54,1.08c.16.64.35,1.28.46,1.93a37.69,37.69,0,0,1,.05,9.61c-.05.66.93.63,1,0a84.58,84.58,0,0,0,.86-12,1.54,1.54,0,0,0,.23-.74A59,59,0,0,0,152.89,79.14Zm-26.44-2.52a9.11,9.11,0,0,0-2.32.47c-1.95.37-3.83.22-5.78.81l-.06,0a1.46,1.46,0,0,0-.08-.27A5.77,5.77,0,0,0,117.15,76a12.73,12.73,0,0,0,1.9-2.91c.72-1.38,1.39-2.09,2.51-.71.41.5.5,1.15,1,1.58a1.61,1.61,0,0,0,1.82.24c1-.43,1.63-2.29,2.74-1.91a4.28,4.28,0,0,0,1.71,2.35c.79.57,3,1.07,3.48,2,.65,1.21-.67,1.06-1.55,1a16.54,16.54,0,0,1-2.09-.25s0,0-.06,0A5.93,5.93,0,0,0,126.45,76.62Zm7.72,31.71c-2.4-5.16-4.79-10.38-8.08-15a1.59,1.59,0,0,0,.33.09c3.08.43,5.65,5.89,7.23,8.27a77.4,77.4,0,0,1,4,6.73,12.62,12.62,0,0,1-.52,1.25,4.79,4.79,0,0,0-1.23,1.1A6.82,6.82,0,0,0,134.17,108.33ZM142.36,83a4.51,4.51,0,0,1-2.05-1,4.76,4.76,0,0,1-1.06-1.5,1.48,1.48,0,0,0,.38-2.35l-4-3.7a1.5,1.5,0,0,0,.16-1c-.25-1.53.21-1.14,1.35-1.21a6.62,6.62,0,0,0,1.61-.45,4.64,4.64,0,0,1,.61-.17,1.68,1.68,0,0,0,.55.24,6.16,6.16,0,0,1,.35.64c.14.28.37.68.56,1.09a1.26,1.26,0,0,0-.24,1.78l.37.52a2.63,2.63,0,0,0,.54.63l0,0h0l.19.15a7.22,7.22,0,0,1,.43.77,1.26,1.26,0,0,0,0,1l1.06,3c.17.47.49,1.07.69,1.64A9,9,0,0,1,142.36,83Z"/><path class="cls-2" d="M135.23,141.38c-.37.53-.76,1-1.16,1.51-1.57,1.32-3.14,2.65-4.69,4a1.39,1.39,0,0,0,.05,2.11,25.14,25.14,0,0,0-2.66,3.66,1.5,1.5,0,0,0,2.59,1.51c2.1-3.64,5.51-6.34,7.65-10a1.5,1.5,0,0,0,.2-.51c.2-.27.42-.52.61-.8C138.92,141.31,136.32,139.8,135.23,141.38Z"/><path class="cls-2" d="M93.66,77.82a.61.61,0,0,0-.72.32.52.52,0,0,0,.08.6.82.82,0,0,0,1.4-.36A.52.52,0,0,0,93.66,77.82Z"/><path class="cls-2" d="M102.76,80.83c-.54-.27-1.08-.58-1.65-.82a1.77,1.77,0,0,0-2.41.65.52.52,0,0,0,.3.74,5,5,0,0,0,1.07.17,2.79,2.79,0,0,0,1.4.71c.56.11,2.18.4,2.12-.62C103.56,81.2,103.12,81,102.76,80.83Z"/><path class="cls-2" d="M127.31,49.85l-.9-.3c0-.55,0-1.09,0-1.63a.51.51,0,0,0-.06-.92.49.49,0,0,0-.53-.2,3.58,3.58,0,0,0-1.35.89c-.61.46-1.09,1.06-.8,1.72a2.44,2.44,0,0,0,1.38,1,5.53,5.53,0,0,0,2.09.42A.51.51,0,0,0,127.31,49.85Z"/><path d="M159.73,105.12a69.72,69.72,0,0,0-4.59-24,.87.87,0,0,0-.06-.44,78.59,78.59,0,0,0-14.77-24.14c-5.69-6.31-13.65-13.89-21.81-17.06a.92.92,0,0,0-.26-.21c-12-6.47-26.37-8.49-39.91-7-.86.19-1.72.38-2.59.55a34.4,34.4,0,0,0-5.17,1.07l0,.08-.69.21-.29.13a.79.79,0,0,1-.44.09c-13.66,4.14-27.37,9.26-37.64,19.45-6,6-10.56,13.32-14.17,21-3.48,7.36-7.12,15.32-7.44,23.57,0,0,0,0,0,0a97.7,97.7,0,0,0,.82,18.25,49.72,49.72,0,0,0,2.22,11.12.82.82,0,0,0,0,.48c5.8,15.69,15.49,31.46,30.1,40.21a1,1,0,0,0,.5.13c4.93,2.88,10,6.29,15.31,8.17a42.57,42.57,0,0,0,10.52,2,48.74,48.74,0,0,0,11.29,1.38C95.45,182.21,112,176.79,124,169a4.2,4.2,0,0,0,.66-.21c1.38-.9,2.72-1.85,4-2.87,1.28-1.18,2.46-2.42,3.37-3.18a126.72,126.72,0,0,0,9.92-8.9c5.48-5.62,9.09-12.55,12.33-19.62a.91.91,0,0,0,.09-.17.65.65,0,0,0,0-.13c.14-.31.29-.62.43-.92a1,1,0,0,0,0-.65c.3-1,.56-2,.81-3,.85-2.72,1.42-5.55,2.05-8.31a84.25,84.25,0,0,0,2.17-15.41A.86.86,0,0,0,159.73,105.12Zm-8.57,31.25a.93.93,0,0,1-.24.3c-2.66,5.52-5.7,10.87-9.95,15.33a99.1,99.1,0,0,1-7.45,6.9c-1.44,1.24-2.91,2.46-4.38,3.67a48.7,48.7,0,0,1-4.6,4c-.48.41-1,.8-1.46,1.16-1.79,1.29-3.94,2-5.92,2.91h0c-9.71,5.06-21.38,8.37-32.4,7.81l-.07-.08a8.37,8.37,0,0,1-1.41-.11,34.11,34.11,0,0,1-6.06-.31,53.63,53.63,0,0,1-6.68-1c-.6-.08-1.19-.19-1.79-.33a1,1,0,0,0-.25.07,32.46,32.46,0,0,1-10.26-2.42c-5.29-2.38-10.34-5.62-15.41-8.44a.7.7,0,0,0-.22-.07C30.08,157.67,21.34,144,15.85,130.24c0,0,0-.06,0-.1-.35-.83-.65-1.67-.92-2.54-1.84-4.61-2.17-9.69-2.69-14.62a88.34,88.34,0,0,1-.49-12.38.83.83,0,0,0,.08-.43c-.2-9,4-18,7.92-25.9C23.43,66.83,28,59.75,34.1,54.07,45.42,43.54,60.62,38.89,75.18,34.66c13.72-2.13,28.76-.52,41.18,5.88a1,1,0,0,0,.55.46c8.27,2.81,16.23,10.55,22,16.93a75,75,0,0,1,13.29,21,1,1,0,0,0,.08.3,72.92,72.92,0,0,1,5.25,21.15,1,1,0,0,1,.1.37C158.21,113,156.39,125.19,151.16,136.37Z"/><path class="cls-1" d="M156.66,110.51c1.57-6.6.54-13.38-1.24-20.22-2.09-8.09-4.61-16.45-9.19-23.52a73.47,73.47,0,0,0-10.71-12.89c-3.43-4.54-7.54-8.15-12.74-10.13a59.33,59.33,0,0,0-10-4.94l-1.56-.61a65.7,65.7,0,0,0-13.53-4.27,61.87,61.87,0,0,0-36.31,3.45q-1.34.42-2.67.9a38.13,38.13,0,0,0-15.43,7.18A50.32,50.32,0,0,0,29.89,56.59a48.61,48.61,0,0,0-5.66,6.87,78.84,78.84,0,0,0-4.92,77.94c5.56,8,10.68,16.18,18.17,22.69,1.3,1.14,2.66,2.2,4,3.23a108.58,108.58,0,0,0,24.16,9.92c12.6,3.52,25.44,2,38.2.51q2.22-.85,4.39-1.81a57.71,57.71,0,0,0,15.53-7.22c9.77-6.44,19.64-15.12,25.42-25.64a32,32,0,0,0,5.52-10.57c2-6.82,2.19-14.55,1.94-21.59C156.67,110.78,156.66,110.65,156.66,110.51Z"/><path class="cls-2" d="M40.67,162.36A20.88,20.88,0,0,0,39.39,159a34.68,34.68,0,0,1-1.15-3.58,4.94,4.94,0,0,0-1.47-2.23l-.06,0a13.4,13.4,0,0,0,3.13-1.61,4,4,0,0,0,.7-2.52,10.28,10.28,0,0,0-.94-3.88,15.79,15.79,0,0,1-1.39-3.54c-.23-1.75.5-2.46.87-4.19.78-3.73-4.71-9-8.49-7.58-.18-.17-.36-.34-.56-.51a7.25,7.25,0,0,0-4.49-1.87,1.72,1.72,0,0,0-1.11.26,4.47,4.47,0,0,1-.31-.82,1.58,1.58,0,0,0-.51-.76,5.77,5.77,0,0,0-.77-2.6,10.4,10.4,0,0,0-3.06-2.77,4.34,4.34,0,0,0-1.38-.76h-.56c-.74-1.8-1.51-3.55-3.33-4.71a1.57,1.57,0,0,0-2.54,0,1.26,1.26,0,0,0-.9,1.37c.6,9.29,5.05,19.11,9.87,27,4.42,7.25,10.17,16.07,17.2,21a1.33,1.33,0,0,0,2.09-.82A1.32,1.32,0,0,0,40.67,162.36Z"/><path class="cls-2" d="M35.31,50.37l-1,1.1a.47.47,0,0,0-.37,0A10.16,10.16,0,0,0,31,55q-2.45,2.64-4.83,5.31a.5.5,0,0,0,0,.61,1.44,1.44,0,0,0-.65.53,30.49,30.49,0,0,0-2.06,3.45c-2.77,3.55-4.7,8-7.23,11.67a1.3,1.3,0,0,0,.11,1.64C13,85,10.21,92.89,11,100.38c.06.64,1.06.64,1,0-.73-7.28,2-15,5.19-21.67a1.36,1.36,0,0,0,1.09-.13c1.2-.7,3.35-1.48,4.21-2.63.38-.51.31-1,.59-1.57,1.32-2.44,1.4-.85,2.56-1.86.92-.8.9-1.19,1-2.39a28.78,28.78,0,0,1,1.64-7.56,1.32,1.32,0,0,0-.2-1.29l1.71-2.57a.46.46,0,0,0,.5-.11l2.9-2.77a.53.53,0,0,0,.79-.08c.37-.53.36-.6.19-1.23a.47.47,0,0,0-.34-.33A17.28,17.28,0,0,0,36.1,51,.5.5,0,0,0,35.31,50.37Z"/><path class="cls-2" d="M66.07,40.24a7,7,0,0,0-.25-1.06,1.52,1.52,0,0,0-2.2-.89c-.57.27-3.59-.12-4.61,0-2.14.24-4.54,1.51-6.52,2.38A56.4,56.4,0,0,0,41.9,46.83a1.25,1.25,0,0,0-1.24.75,3.37,3.37,0,0,1-.19.32c-.29.22-.58.44-.86.67a1.17,1.17,0,0,0-.49,1.14,24.12,24.12,0,0,0-2.59,3c-1,1.52-1.82,4.26-.73,6s3.07.82,4.18-.33a13.86,13.86,0,0,1,6.5-4.24,1.53,1.53,0,0,0,.51-.26A4.24,4.24,0,0,0,49.25,53a21.61,21.61,0,0,0,7.54-3.14c1.24-.9,2.72-1.45,3.92-2.32,2.19-1.59,3.39-3.42,6.15-4.42C68.66,42.48,67.89,39.59,66.07,40.24Z"/><path class="cls-2" d="M63.75,51.74a10.6,10.6,0,0,1-4.25.87,1.47,1.47,0,0,0-.63-.34,1.86,1.86,0,0,0-2.37,1.35,1.39,1.39,0,0,0,.11,1.06,1.26,1.26,0,0,0,.68.66c2.8,1.27,5.39.3,8-1C67,53.44,65.48,51,63.75,51.74Z"/><path class="cls-2" d="M73.83,62.14a1.52,1.52,0,0,0-1-.18,1.87,1.87,0,0,0-.83-.18,2.6,2.6,0,0,0-1.75,1l-1.24,1.3a1.52,1.52,0,0,0,1.06,2.56,4.48,4.48,0,0,0,4.25-2.48A1.53,1.53,0,0,0,73.83,62.14Z"/><path class="cls-2" d="M152.89,79.14c-2.54-7.54-6-15.24-11.59-20.1A47.93,47.93,0,0,0,134,51.28a1.6,1.6,0,0,0-.6-.32,2.4,2.4,0,0,0-.82-.86c-1.29-.8-2.49.62-2.16,1.77a7.86,7.86,0,0,0-1,.17c-.79.12-1.57.28-2.35.44a1.5,1.5,0,0,0-1.28-.34c-.77.14-1.57-.08-2.36,0a9.51,9.51,0,0,0-2,.58,10.8,10.8,0,0,1-2.22.65,1.55,1.55,0,0,0-.6-2.59,16.69,16.69,0,0,0-3-.41,23.36,23.36,0,0,1-4.19-1.24,1.2,1.2,0,0,0-1.11.11,4.33,4.33,0,0,0-2.18-.47c-4.92-1-10.1-.17-13.24,4.08a56.13,56.13,0,0,0-6.1,2.43,1.52,1.52,0,0,0-.31,2.36,4.61,4.61,0,0,0,3.27,2.12C93,59.85,94,59,95.11,58.72c.5.82.89,1.83,1.31,2.62a1.37,1.37,0,0,0,2.16.4c2.72,0,5.65-3.06,3.91-5.53-.77-1.08-.9-.44.35-.81a2.14,2.14,0,0,0,1.57-1.4,2.85,2.85,0,0,0-.06-1h0c.68,0,1.6-.09,2.48-.06a1.87,1.87,0,0,0,.47.5,3,3,0,0,0-1.1,1,2.5,2.5,0,0,0,0,2.76c.71,1,1.83.9,2.93.88.26,0,3.39-.17,4.18-.06l.19.15,0,.13c-2.63.37-6.71.63-7.76,2.94-.13.3-.16,1.34-.29,1.45h0a1.31,1.31,0,0,0-1.15-.13.84.84,0,0,0-.14.06,4.69,4.69,0,0,0-.63-.13,8.1,8.1,0,0,0-3.58.71l-.19-.08a4.56,4.56,0,0,0-3.52.14,2.72,2.72,0,0,1-.52-.39c-.86-.81-.89-2.1-2.27-2.34a1.83,1.83,0,0,0-2.13,2.07,2.24,2.24,0,0,0,.56,1.13,5.07,5.07,0,0,0-2.09.14,31.71,31.71,0,0,0-4.28,1.64,6.28,6.28,0,0,0-1.64,1.1,1.77,1.77,0,0,0-.56-2c-.6-.43-.91-1.2-1.41-1.73a4.91,4.91,0,0,0-.87-.71c-.41-.25-.8-.24-.9-.49-.33-.79,0-1.3-.84-1.95s-1.61-.53-2.49-.83a1.4,1.4,0,0,0-.62-.08,2,2,0,0,0-2.65,2.4A3.34,3.34,0,0,0,76,63.44a6.79,6.79,0,0,0,.66.2,5.27,5.27,0,0,0-.61.5,1.51,1.51,0,0,0,.3,2.35c1.76,1.15,3.67.77,5.61.85a23.93,23.93,0,0,0-4.79.84c-1.13.33-1.59,2.2-.36,2.75a28.62,28.62,0,0,1,3.27,1.48c.08,1.47-2.94,2.29-4,2.22-2.33-.14-3.69-1.61-6-.47a1.24,1.24,0,0,0-.76,1.09,1.05,1.05,0,0,0-.05.19c-.22,1.15-.45,2.29-.66,3.44a2.72,2.72,0,0,0,.19,2.25,4.49,4.49,0,0,0,2,1.17L74,83.64a1.31,1.31,0,0,0,1.36-.31C77,83,79.19,82.4,80.15,81c.48-.66.39-1.32,1-1.92a14,14,0,0,1,3.07-2,1.32,1.32,0,0,0,1.14-.74c.23-.41.48-.93,1-1s1.4.31,1.95.4A3.56,3.56,0,0,0,91.3,75c1.66-.39,3.31-.81,4.63.1.92.64,1.48,1.79,2.42,2.46,1.17.83,3.34,1,4.12,2.23,1,1.61,3.65.11,2.59-1.52a6.08,6.08,0,0,0-2.9-2.29,11.5,11.5,0,0,1-3.1-1.84c-.12-.11-.23-.24-.34-.36a1.52,1.52,0,0,0-.36-1c.73.88,3.66,1.76,4.87,2.12a14.28,14.28,0,0,0,1.92.41l.32.4a1.18,1.18,0,0,0,.81.46,25,25,0,0,1,1.82,2.79c.8,1.26,1.62,3.32,2.94,4.12a1.9,1.9,0,0,0,2.82-1c.54-1.47,0-3.15-.53-4.57l0,0a3.06,3.06,0,0,0,1.76.75c.52.82.43,2.06,1,3a3.69,3.69,0,0,0,2,1.43A22.55,22.55,0,0,0,127.52,84a14.69,14.69,0,0,1,.26,2.48,8.34,8.34,0,0,1-.14,2.43c-.33.35-.62.14-1,.17a5.55,5.55,0,0,0-2.35.67,1.43,1.43,0,0,0-.15-.33,1.47,1.47,0,0,0-1.29-.74,4.9,4.9,0,0,0-2.32.75,1.19,1.19,0,0,0-.11-.26c-1.06-1.86-4.18-1.4-6-1.55-3.35-.29-4.27-.34-6.35,2-2.85-.91-5.78-1.24-8.62-2.44-.27-.12-3.13-1.14-3.15-1.23a13.81,13.81,0,0,0,.81-1.33,2.84,2.84,0,0,0-1.71-3.35,4.39,4.39,0,0,0-3.87.53,19.27,19.27,0,0,0-11.08,1.8c-3.75.18-8.07.31-10.82,2.67a7.85,7.85,0,0,0-2.74,5.85c-4,1.5-9.26,5.1-9.41,9.52a7.61,7.61,0,0,0,.5,2c.61,2.91-.65,2.43-1.33,4.55s.31,3.52,1.35,5.11a1.35,1.35,0,0,0,.4,1.24c1.48,1.53,3.74,1.27,5,3,1.07,1.53,1.45,3.08,3,4.32,1.2,1,2.79,1.91,4.4,1.59,1.15-.22,1.64-1.05,2.34-1.72a1.72,1.72,0,0,0,.42.11,22.73,22.73,0,0,0,6.84.11c2.71-.52,4.74-2.62,7.5-1.86,1,1.68,2.11,3.63,4.41,3.1.54-.13,2.38-1.58,2.94-1.47l0,0c1.79,2.42-.08,4.08-.9,6.46a3.22,3.22,0,0,0,.52,3.57,1.47,1.47,0,0,0,.34.67,17.79,17.79,0,0,1,3.07,4.94c.61,1.49,0,2.83.09,4.36a7.55,7.55,0,0,0-1.61,7.37c.54,1.88,1.93,3.27,2.66,5,.85,2.06,1,4.55,1.37,6.74a1.61,1.61,0,0,0,.1.35,1.67,1.67,0,0,0,1.32,2.26c5.76.68,11.86-3.91,15.51-8.26,2.89-.8,3.65-3.79,4.85-6.27a1.32,1.32,0,0,0,.61-.23c2.24-1.43,4.54-3,5.87-5.34a7.64,7.64,0,0,0,.94-2.78c.21-1.6-.56-3.48.16-5a1.38,1.38,0,0,0,.46-.77c1.09-4.6,6.49-6.75,9.33-10.33a32.7,32.7,0,0,0,5.38-10.4,1.52,1.52,0,0,0-1.85-1.85,29.12,29.12,0,0,1-4.29,1.59c-2.38.43-1.23.46-1.64-.49a.45.45,0,0,0,.25-.32,14.81,14.81,0,0,1,.39-1.49,2.09,2.09,0,0,0,.08-.23,1.29,1.29,0,0,0,1.47.43c3.61-1.08,7.76-2.45,9.78-5.86,1.56-2.62,2.86-6.63-.59-8.39a1.52,1.52,0,0,0-2,.63,5.69,5.69,0,0,0-.52.33c-.69-.9-1.26-2-1.87-2.87l-2-3a1.69,1.69,0,0,0,0-.39c0-.26-.26-1.17-.08-1.42.67-.93,1.38.34,1.65.79a12.14,12.14,0,0,0,1.45,2.65c.64.62,1.33.46,2,.88s1.16,1.25,1.93,1.68a1.4,1.4,0,0,0,.9.19,2,2,0,0,0,1,0c.16,0,1-.44,1.06-.44l.29-.28a1.72,1.72,0,0,0,.35,1.36c.31.85.79,1.66,1.12,2.51a15.14,15.14,0,0,1,1.11,4.87,1.41,1.41,0,0,0,.54,1.08c.16.64.35,1.28.46,1.93a37.69,37.69,0,0,1,.05,9.61c-.05.66.93.63,1,0a84.58,84.58,0,0,0,.86-12,1.54,1.54,0,0,0,.23-.74A59,59,0,0,0,152.89,79.14Zm-26.44-2.52a9.11,9.11,0,0,0-2.32.47c-1.95.37-3.83.22-5.78.81l-.06,0a1.46,1.46,0,0,0-.08-.27A5.77,5.77,0,0,0,117.15,76a12.73,12.73,0,0,0,1.9-2.91c.72-1.38,1.39-2.09,2.51-.71.41.5.5,1.15,1,1.58a1.61,1.61,0,0,0,1.82.24c1-.43,1.63-2.29,2.74-1.91a4.28,4.28,0,0,0,1.71,2.35c.79.57,3,1.07,3.48,2,.65,1.21-.67,1.06-1.55,1a16.54,16.54,0,0,1-2.09-.25s0,0-.06,0A5.93,5.93,0,0,0,126.45,76.62Zm7.72,31.71c-2.4-5.16-4.79-10.38-8.08-15a1.59,1.59,0,0,0,.33.09c3.08.43,5.65,5.89,7.23,8.27a77.4,77.4,0,0,1,4,6.73,12.62,12.62,0,0,1-.52,1.25,4.79,4.79,0,0,0-1.23,1.1A6.82,6.82,0,0,0,134.17,108.33ZM142.36,83a4.51,4.51,0,0,1-2.05-1,4.76,4.76,0,0,1-1.06-1.5,1.48,1.48,0,0,0,.38-2.35l-4-3.7a1.5,1.5,0,0,0,.16-1c-.25-1.53.21-1.14,1.35-1.21a6.62,6.62,0,0,0,1.61-.45,4.64,4.64,0,0,1,.61-.17,1.68,1.68,0,0,0,.55.24,6.16,6.16,0,0,1,.35.64c.14.28.37.68.56,1.09a1.26,1.26,0,0,0-.24,1.78l.37.52a2.63,2.63,0,0,0,.54.63l0,0h0l.19.15a7.22,7.22,0,0,1,.43.77,1.26,1.26,0,0,0,0,1l1.06,3c.17.47.49,1.07.69,1.64A9,9,0,0,1,142.36,83Z"/><path class="cls-2" d="M135.23,141.38c-.37.53-.76,1-1.16,1.51-1.57,1.32-3.14,2.65-4.69,4a1.39,1.39,0,0,0,.05,2.11,25.14,25.14,0,0,0-2.66,3.66,1.5,1.5,0,0,0,2.59,1.51c2.1-3.64,5.51-6.34,7.65-10a1.5,1.5,0,0,0,.2-.51c.2-.27.42-.52.61-.8C138.92,141.31,136.32,139.8,135.23,141.38Z"/><path class="cls-2" d="M93.66,77.82a.61.61,0,0,0-.72.32.52.52,0,0,0,.08.6.82.82,0,0,0,1.4-.36A.52.52,0,0,0,93.66,77.82Z"/><path class="cls-2" d="M102.76,80.83c-.54-.27-1.08-.58-1.65-.82a1.77,1.77,0,0,0-2.41.65.52.52,0,0,0,.3.74,5,5,0,0,0,1.07.17,2.79,2.79,0,0,0,1.4.71c.56.11,2.18.4,2.12-.62C103.56,81.2,103.12,81,102.76,80.83Z"/><path class="cls-2" d="M127.31,49.85l-.9-.3c0-.55,0-1.09,0-1.63a.51.51,0,0,0-.06-.92.49.49,0,0,0-.53-.2,3.58,3.58,0,0,0-1.35.89c-.61.46-1.09,1.06-.8,1.72a2.44,2.44,0,0,0,1.38,1,5.53,5.53,0,0,0,2.09.42A.51.51,0,0,0,127.31,49.85Z"/><path d="M159.73,105.12a69.72,69.72,0,0,0-4.59-24,.87.87,0,0,0-.06-.44,78.59,78.59,0,0,0-14.77-24.14c-5.69-6.31-13.65-13.89-21.81-17.06a.92.92,0,0,0-.26-.21c-12-6.47-26.37-8.49-39.91-7-.86.19-1.72.38-2.59.55a34.4,34.4,0,0,0-5.17,1.07l0,.08-.69.21-.29.13a.79.79,0,0,1-.44.09c-13.66,4.14-27.37,9.26-37.64,19.45-6,6-10.56,13.32-14.17,21-3.48,7.36-7.12,15.32-7.44,23.57,0,0,0,0,0,0a97.7,97.7,0,0,0,.82,18.25,49.72,49.72,0,0,0,2.22,11.12.82.82,0,0,0,0,.48c5.8,15.69,15.49,31.46,30.1,40.21a1,1,0,0,0,.5.13c4.93,2.88,10,6.29,15.31,8.17a42.57,42.57,0,0,0,10.52,2,48.74,48.74,0,0,0,11.29,1.38C95.45,182.21,112,176.79,124,169a4.2,4.2,0,0,0,.66-.21c1.38-.9,2.72-1.85,4-2.87,1.28-1.18,2.46-2.42,3.37-3.18a126.72,126.72,0,0,0,9.92-8.9c5.48-5.62,9.09-12.55,12.33-19.62a.91.91,0,0,0,.09-.17.65.65,0,0,0,0-.13c.14-.31.29-.62.43-.92a1,1,0,0,0,0-.65c.3-1,.56-2,.81-3,.85-2.72,1.42-5.55,2.05-8.31a84.25,84.25,0,0,0,2.17-15.41A.86.86,0,0,0,159.73,105.12Zm-8.57,31.25a.93.93,0,0,1-.24.3c-2.66,5.52-5.7,10.87-9.95,15.33a99.1,99.1,0,0,1-7.45,6.9c-1.44,1.24-2.91,2.46-4.38,3.67a48.7,48.7,0,0,1-4.6,4c-.48.41-1,.8-1.46,1.16-1.79,1.29-3.94,2-5.92,2.91h0c-9.71,5.06-21.38,8.37-32.4,7.81l-.07-.08a8.37,8.37,0,0,1-1.41-.11,34.11,34.11,0,0,1-6.06-.31,53.63,53.63,0,0,1-6.68-1c-.6-.08-1.19-.19-1.79-.33a1,1,0,0,0-.25.07,32.46,32.46,0,0,1-10.26-2.42c-5.29-2.38-10.34-5.62-15.41-8.44a.7.7,0,0,0-.22-.07C30.08,157.67,21.34,144,15.85,130.24c0,0,0-.06,0-.1-.35-.83-.65-1.67-.92-2.54-1.84-4.61-2.17-9.69-2.69-14.62a88.34,88.34,0,0,1-.49-12.38.83.83,0,0,0,.08-.43c-.2-9,4-18,7.92-25.9C23.43,66.83,28,59.75,34.1,54.07,45.42,43.54,60.62,38.89,75.18,34.66c13.72-2.13,28.76-.52,41.18,5.88a1,1,0,0,0,.55.46c8.27,2.81,16.23,10.55,22,16.93a75,75,0,0,1,13.29,21,1,1,0,0,0,.08.3,72.92,72.92,0,0,1,5.25,21.15,1,1,0,0,1,.1.37C158.21,113,156.39,125.19,151.16,136.37Z"/></g><g id="Layer_7" data-name="Layer 7"><path class="cls-3" d="M103.66,70.25a.44.44,0,0,0-.42-.42l-1,0-.12-.22h0c-1.82-2.92-3.57-5.86-5.27-8.85a.38.38,0,0,0-.16-.15l.06-2a.44.44,0,0,0-.31-.4c-.2-.06-.39-.1-.59-.14l.12-.13a.82.82,0,0,0,.31,0,.39.39,0,0,0,.27-.54.42.42,0,0,0-.22-.66,1.69,1.69,0,0,0-1.13,0l-.14.07-.84-.27a29.56,29.56,0,0,0-1.32-3.66l-.72-2.41v0a.32.32,0,0,0,0-.09l-.12-.4.34.17a.42.42,0,0,0,.42-.72,2.84,2.84,0,0,1-.87-.89,3.18,3.18,0,0,1,.88-1.18c.29-.25,0-.7-.3-.72l-1.27,0c-.23-1.51-.44-3-.63-4.54s-.3-3.09-.52-4.62c-.07-.75-.13-1.51-.19-2.26l.1,0a.54.54,0,0,0,.42-1,2,2,0,0,0-.62-.29v0h0q-.21-3.57-.43-7.15l-.06-3.8A7.41,7.41,0,0,0,89,20.62l.11,0a.41.41,0,0,0,.41-.1,1.69,1.69,0,0,0,.26-1.19,6.74,6.74,0,0,0-.13-1.62.38.38,0,0,0-.32-.29,1.25,1.25,0,0,0-.38-.2l0-.06h0a1.2,1.2,0,0,0,.3-.88,1.33,1.33,0,0,0-.32-.52l-.57-.71a.29.29,0,0,0-.16-.11c0-1.81,0-3.61.15-5.42,0-.53-.8-.53-.84,0q-.19,2.94-.14,5.89a2.7,2.7,0,0,0-.66,1,1,1,0,0,0,.28,1h-.28c-.58,0-.69.43-.72.94a4.9,4.9,0,0,0,.06.94,5.54,5.54,0,0,0,.1,1.34.36.36,0,0,0,.45.28c.1.2.2.39.28.59a66.46,66.46,0,0,0-.54,9.23c-.11,1-.21,2-.3,2.95a1.22,1.22,0,0,0-.36.14.81.81,0,0,0-.36.82.89.89,0,0,0,.57.61h0l0,.47a14.23,14.23,0,0,0-.34,2.47.58.58,0,0,0,0,.19l-1.14,8.09a.43.43,0,0,0-.17,0h-.23a.43.43,0,0,0-.41.53l.52,1.75a7.85,7.85,0,0,1-.48.75.42.42,0,0,0,.31.62c-.46,1.4-.88,2.81-1.28,4.23-.29.79-.58,1.59-.88,2.38a5,5,0,0,0-1.63,0,.41.41,0,0,0-.37.1.71.71,0,0,0-.21.74.36.36,0,0,0,.41.29c.08.13.16.26.25.38l-.17,0a.47.47,0,0,0-.59.5c.09.63.21,1.24.36,1.85l-.08.1a.38.38,0,0,0-.19.17l-.39.66c-.33.5-.62,1-.89,1.42-.68,1-1.32,2-1.93,3.08Q75.26,67.91,74,69.72a3.13,3.13,0,0,1-.57-.08c-.22-.29-.78-.22-.75.22V70a.43.43,0,0,0,.1.26.39.39,0,0,0,.33.62,13.28,13.28,0,0,1,2.6.08.39.39,0,0,0,.35.19,17.23,17.23,0,0,0,3-.08c.36-.06.59,0,.8-.38a.44.44,0,0,0,0-.43,1.65,1.65,0,0,0-.73-.6c.31-.92.63-1.82,1-2.72.18-.31.35-.62.52-.93a10.31,10.31,0,0,1,4.63-3,11.89,11.89,0,0,1,7.06.06,12.88,12.88,0,0,1,5,6.4.33.33,0,0,0-.27.21,1.14,1.14,0,0,0-.18.76.42.42,0,0,0,.42.42l.3,0a.61.61,0,0,0,.18,0,.41.41,0,0,0,.64.07,5.12,5.12,0,0,0,.56,0c.47,0,.94,0,1.41,0A15.93,15.93,0,0,0,102,71l1.25.08a.4.4,0,0,0,.4-.3A1.56,1.56,0,0,0,103.66,70.25ZM89.1,46.56l-.7,0a11.13,11.13,0,0,0-1.27,0c.07-1.14.13-2.28.19-3.43h1.46C88.89,44.28,89,45.42,89.1,46.56Zm-1-10.6c.14,1.43.27,2.87.4,4.31l-1,0Zm-.7,5.25a.43.43,0,0,0,.41-.11h.77l.11,1.19c-.45,0-.9,0-1.34-.07l0-1ZM86,52.78c.24-1,.49-1.93.73-2.9l1,0a15.26,15.26,0,0,0,1.66-.06,8.08,8.08,0,0,0,.35,1.69c.31,1.18.61,2.36.92,3.55a.38.38,0,0,0,.32.29c.08.44.16.88.26,1.31a47.73,47.73,0,0,0-5.86-.06C85.6,55.36,85.81,54.07,86,52.78Zm7.32,9.36a.39.39,0,0,0-.57.18l-.12,0a.41.41,0,0,0-.17-.05A12.93,12.93,0,0,0,85.62,62a9.64,9.64,0,0,0-4,1.91c.42-.86.81-1.75,1.18-2.64a17,17,0,0,0,5.19.3H93.6c.2.4.41.79.62,1.18A9.4,9.4,0,0,0,93.33,62.14Z"/><path class="cls-4" d="M89.77,33.63a8,8,0,0,1-1.2-.14,9.62,9.62,0,0,0,1.24-.88.21.21,0,0,0,0-.25c0-.13,0-.31-.18-.3h-.1l-1-1c-.05-.06-.12-.11-.18-.17v0a16.18,16.18,0,0,1,1.18-1.16c.19,0,.25-.36,0-.41h0A16.81,16.81,0,0,0,88.4,27.9c.39-.33.79-.62,1-.81a.22.22,0,0,0,0-.3l0,0a.21.21,0,0,0-.13-.37h-.19l-.78-.87a5.92,5.92,0,0,0,.85-.78.55.55,0,0,0,.09-.73c.19-.09.18-.43-.07-.4l-.17,0c-.17-.24-.36-.47-.56-.71a10.23,10.23,0,0,0,.7-.87.2.2,0,0,0,0-.21.21.21,0,0,0-.18-.31h-.2l-.43-.33c0-.12,0-.24,0-.36a.22.22,0,0,0,0-.14h.78a.21.21,0,0,0,0-.42l-2.7,0a.21.21,0,0,0,0,.42h.91a.17.17,0,0,0,0,.23l.15.11a3.52,3.52,0,0,0-.41.36c-.16-.09-.35.1-.29.27-.12.16,0,.43.25.32l.86,1a12,12,0,0,1-1.07.89h-.07a.22.22,0,0,0-.1.4h0c.34.4.69.79,1.05,1.19a4,4,0,0,0-.76.78l-.13,0c-.27,0-.38.36-.12.4l.1,0a.65.65,0,0,0,0,.19c.1.36.71.7,1,.95l.1.09a3.84,3.84,0,0,0-1.12,1h-.15a.21.21,0,0,0-.21.21.43.43,0,0,0,.08.31.16.16,0,0,0,.18.1c.14.5.76.93,1.05,1.22l.09.08-.06.06c-.38.44-.74.9-1.08,1.37l-.17.11a.21.21,0,0,0,.16.36l.62.76a11.4,11.4,0,0,0-1.16.25c-.26.06-.15.47.11.4a10.75,10.75,0,0,1,1.35-.27l.1.12c.13.16.33,0,.34-.15h.17c.55,0,1.07.19,1.62.19A.21.21,0,0,0,89.77,33.63ZM88.3,22h.2c0,.09,0,.19-.14.42l-.07.1C88.29,22.32,88.3,22.14,88.3,22Zm-.41-.58v.16h-.36l.27-.21Zm-.39.55.38,0v.38Zm-.35,2.34.7-.08v.86Zm.7,1.67v.44l-.27,0A1.45,1.45,0,0,1,87.85,26Zm-.32.83.32,0c0,.18,0,.37,0,.55A1.14,1.14,0,0,1,87.53,26.78Zm.35,1.6V29l-.5-.05A3,3,0,0,1,87.88,28.38Zm-.6,1.41a.67.67,0,0,1-.06-.39c.23,0,.45,0,.67.05,0,.35,0,.7,0,1.06A2.62,2.62,0,0,1,87.28,29.79Zm.48,1.71.19-.21,0,.86h-.8A5.59,5.59,0,0,1,87.76,31.5ZM88,33.36a.19.19,0,0,0-.09.09h0l-.19,0a2.71,2.71,0,0,1-.62-.82.16.16,0,0,1,0-.07,4.77,4.77,0,0,1,.92,0l0,.78Zm.3-9.21.43,0a.63.63,0,0,1,.07.43,1.91,1.91,0,0,1-.5.48Zm0,2.67h.51c.07.19,0,.21-.22.46a2.51,2.51,0,0,1-.28.29C88.28,27.33,88.27,27.07,88.27,26.82Zm0,1.53a3.39,3.39,0,0,1,.65.82c-.21,0-.42-.07-.64-.09C88.3,28.83,88.3,28.59,88.29,28.35Zm0,1.15.7.11a2.52,2.52,0,0,1-.67.74Zm.06,1.88a3.08,3.08,0,0,1,.66.71l-.64,0C88.38,31.88,88.38,31.63,88.37,31.38Zm0,1.16.79,0c0,.13-.13.19-.4.37a2.85,2.85,0,0,1-.37.23C88.43,32.92,88.42,32.73,88.41,32.54Z"/><path class="cls-4" d="M89.49,34.74c-.56,0-1.1-.11-1.66-.14a12.58,12.58,0,0,1-1.84.06c-.26-.06-.37.34-.11.4a6.92,6.92,0,0,0,1.7-.05c.64,0,1.26.17,1.91.15C89.76,35.14,89.76,34.73,89.49,34.74Z"/><path class="cls-4" d="M88.77,17.17a4.18,4.18,0,0,0-2.35.11c-.26.09-.15.5.11.41a3.69,3.69,0,0,1,2.13-.12C88.92,17.63,89,17.23,88.77,17.17Z"/><path class="cls-4" d="M91.87,46.61c-2.13-.32-4.26.11-6.39-.1a6.6,6.6,0,0,0,.68-.5,4.32,4.32,0,0,0,.39.34c.2.16.5-.13.29-.3l-.37-.31c.28-.29.53-.67.92-.8s.14-.49-.11-.4l-.08,0-.6-.9a3.28,3.28,0,0,0,.74-.79.16.16,0,0,0,0-.16.22.22,0,0,0,0-.08c.53,0,1.06.05,1.59.1a1.38,1.38,0,0,0,.17.45,1.71,1.71,0,0,0,.44.45,12.2,12.2,0,0,0-.85.91.23.23,0,0,0,.22.36,2.35,2.35,0,0,0,.69.77l-.24.25c-.18.21.11.5.29.3l.3-.31c.28.18.58.34.87.55s.43-.2.21-.36-.53-.33-.78-.49a4,4,0,0,0,.38-.46.22.22,0,0,0,.16-.34.79.79,0,0,0,0-.48,1.56,1.56,0,0,0-.57-.7l0,0c.14-.13.27-.26.42-.38a.17.17,0,0,0,.07-.16.19.19,0,0,0,0-.17h0a.23.23,0,0,0-.12-.39h0a3,3,0,0,0-.5-.64,3.46,3.46,0,0,0-.31-.26,5.64,5.64,0,0,1,.59-.53.23.23,0,0,0,.06-.16.36.36,0,0,0,0-.19.19.19,0,0,0-.29-.18c-.17-.21-.35-.44-.52-.67.22-.25.44-.49.67-.72a.21.21,0,0,0,0-.12.18.18,0,0,0,0-.2h0a.2.2,0,0,0-.16-.33h-.07a2.72,2.72,0,0,0-.51-.56l-.17-.12c.19-.35.43-.68.57-.93A.22.22,0,0,0,90,36.6a3.06,3.06,0,0,1-.58-.38c.17-.22.35-.43.51-.65s-.19-.42-.36-.21-.31.39-.47.58a3.74,3.74,0,0,1-.54-.73.21.21,0,0,0-.32-.05.19.19,0,0,0-.31.06.17.17,0,0,0-.22,0l-.57.43-.38-.37a.2.2,0,0,0-.3,0,.21.21,0,0,0,.1.39h0l.23.23-.73.55a.23.23,0,0,0,0,.31.19.19,0,0,0,.15.33h.13q.28.34.54.72l-.71.53a.35.35,0,0,1-.1-.11.21.21,0,0,0-.36.21s0,.05.06.08h0a.57.57,0,0,0,0,.13l-.09.07c-.2.17.06.44.27.31.12.15.27.28.38.42l.1.13-.67.66h0a.2.2,0,0,0-.12.29l.68,1.08-.55.56H85.3a.21.21,0,0,0,0,.42h0a.16.16,0,0,0,0,.07l.64.9-.21.13a1.6,1.6,0,0,0-.66.57.21.21,0,0,0-.12.37.2.2,0,0,0,.09.15.07.07,0,0,0,0,.06,10.43,10.43,0,0,0,.74.88,6.61,6.61,0,0,1-.6.44.2.2,0,0,0,0,.32h-.15c-.26,0-.37.36-.11.4,2.26.32,4.54-.2,6.79.15C92,47.06,92.13,46.65,91.87,46.61ZM89,42.33c-.61,0-1.22-.08-1.84-.11l-.34-.54c.19-.21.39-.41.59-.61a.21.21,0,0,0,.27-.29v0h.15a.23.23,0,0,0,.17-.13,6.18,6.18,0,0,1,.62.07s0,0,0,0a1.43,1.43,0,0,0,.58.92l0,0A2.24,2.24,0,0,0,89,42.33ZM87.28,40.2a5.72,5.72,0,0,0-.39-.57l.63-.67a.21.21,0,0,0,.36-.16c.26,0,.51.1.74.12a3,3,0,0,0,.52.89l-.36.46-.4-.05A6.74,6.74,0,0,0,87.28,40.2Zm2.8,4.94a1,1,0,0,1-.17.25,2,2,0,0,1-.5-.5l.7.17Zm-.7-.69.5-.54a.89.89,0,0,1,.33.75Zm.89-1.56a.36.36,0,0,1,0,.09l-.44.38a1.12,1.12,0,0,1-.49-.57ZM90,42.44l-.64-.07a2.37,2.37,0,0,1,.14-.43A4.72,4.72,0,0,1,90,42.44Zm-.31-1.51h0a1.23,1.23,0,0,1-.28.41,1.3,1.3,0,0,1-.41-.58C89.24,40.81,89.47,40.86,89.7,40.93Zm.22-2h0l-.53.58a2,2,0,0,1-.25-.57C89.4,39,89.66,38.94,89.92,38.93Zm-.3-.4h-.47a2.24,2.24,0,0,1,.11-.34A2.31,2.31,0,0,1,89.62,38.53ZM89.49,37c-.12.2-.27.42-.41.64-.23-.13-.44-.23-.44-.19a.23.23,0,0,0-.11-.22,3.33,3.33,0,0,0,.25-.28C89,36.91,89.26,36.92,89.49,37Zm-1.23-1.36a3.88,3.88,0,0,0,.54.66,2.62,2.62,0,0,1-.22.25h-.32A4.61,4.61,0,0,1,88.26,35.59Zm-.19,1.77a.23.23,0,0,0,.16.08c0,.28.39.36.65.49a2.68,2.68,0,0,0-.24.57l-.34,0-.42-.07a.23.23,0,0,0-.16-.13.24.24,0,0,0-.15,0l-.21-.33Zm-.23-1.75a6.59,6.59,0,0,0,0,.77L87.39,36Zm-.78.59.37.36-1,.09Zm-.3.84,1-.1.06.06-.74.55ZM87,38.15c0,.06.08.12.11.18l-.19,0a.15.15,0,0,0-.11.06l-.19,0Zm-.82.68a2.47,2.47,0,0,0,.93-.07l-.51.53a1.13,1.13,0,0,0-.1-.13Zm.38,1.1a3.62,3.62,0,0,1,.22.32l-.31,0-.23,0Zm-.48.71a6.27,6.27,0,0,0,1,.12l-.54.55Zm-.27,2v0l1,0,.06.1a2.59,2.59,0,0,1-.59.6Zm.4,1.29.23.34a2.76,2.76,0,0,1-.86.07A2.73,2.73,0,0,1,86.24,43.91Zm-.67.83a3.23,3.23,0,0,0,1.15-.12,1,1,0,0,1,.11.17,4,4,0,0,0-.42.41,1.79,1.79,0,0,1-.25.23A6.5,6.5,0,0,1,85.57,44.74Z"/><path class="cls-4" d="M96.16,56.43l-3.27,0a1.2,1.2,0,0,0,.26-.29c.15-.21.28-.54.54-.64a.22.22,0,0,0,.12-.28.21.21,0,0,0-.18-.37h-.07c-.51-.3-1-.62-1.49-1,.23-.39.47-.77.7-1.15h0c.26,0,.27-.43,0-.42s-.72,0-1.08.06l-.18-.76c.29.2.57.4.84.61s.51-.13.3-.29-.7-.52-1.06-.77c.19-.28.39-.56.57-.85a.21.21,0,0,0-.36-.21c-.15.24-.32.47-.47.7L91.18,50a.18.18,0,0,0-.11-.13,8.32,8.32,0,0,1,1.12.09c.27,0,.38-.36.11-.4a20.36,20.36,0,0,0-4,0c-1.47.05-2.93.06-4.4,0-.27,0-.27.41,0,.42h.32a9.56,9.56,0,0,0,.47,1.15l-.08,0a5.43,5.43,0,0,1-1.48.7.19.19,0,0,0-.1.32c-.22,0-.3.35,0,.4l.22,0A4.79,4.79,0,0,0,83.77,54a4.47,4.47,0,0,1-1.41.58.17.17,0,0,0-.13.11.19.19,0,0,0-.08.33l.08,0a.21.21,0,0,0,0,.22c.21.4.44.79.68,1.16a8.93,8.93,0,0,1-1.27-.09c-.27,0-.38.37-.12.4a48.24,48.24,0,0,0,7,0q3.83,0,7.65.06A.21.21,0,0,0,96.16,56.43ZM93,55.62a2.07,2.07,0,0,1-.28.38c-.06-.14-.12-.29-.17-.44l.66-.22A1.86,1.86,0,0,0,93,55.62ZM93,55c-.21.07-.41.15-.62.21-.07-.24-.13-.48-.19-.73Zm-.92.71c.07.18.14.36.22.53v0a9.28,9.28,0,0,0-1.13-.47A2.57,2.57,0,0,0,92.09,55.67Zm.18-2.94-.33.53v0l-.11-.46Zm-.57,1.71c.08.29.16.57.26.85a2,2,0,0,1-.8,0Zm-.25-1q-.35-.26-.69-.54l.56-.06C91.36,53,91.4,53.19,91.45,53.39Zm-.32-1.56c0,.18.07.37.1.55l-.57.07ZM84.68,50h.53a.22.22,0,0,0-.14.13l-.15.5Q84.79,50.36,84.68,50Zm.86,2.5-.71,0c.07-.24.13-.48.2-.72C85.19,52,85.35,52.29,85.54,52.54Zm-.82.36c.27,0,.55.05.82.06a8.37,8.37,0,0,0-1,.55Zm-.1-1.19-.21.74-1-.15A5.35,5.35,0,0,0,84.62,51.71Zm-.93,1.06a6,6,0,0,0,.61.09c-.08.28-.14.56-.21.84A4.28,4.28,0,0,1,83.69,52.77Zm.47,2.44c0-.16.07-.32.11-.47a2.58,2.58,0,0,1,.32.53v0Zm.64.57a.86.86,0,0,0,.1.16l-1,.23.12-.55Zm-.88-1.39c-.06.24-.12.48-.17.73a7,7,0,0,1-1-.21A5.12,5.12,0,0,0,83.92,54.39Zm-.57,1.06.31.07c0,.25-.11.5-.16.75a.17.17,0,0,0-.11.19h0a12.31,12.31,0,0,1-.7-1.16C82.9,55.36,83.13,55.4,83.35,55.45Zm2.06.95-.71,0,.55-.14a.21.21,0,0,0,0-.38.13.13,0,0,0,0-.12.2.2,0,0,0-.09-.34l-.12,0a5.16,5.16,0,0,0-.47-.94c-.07-.1-.14-.19-.2-.29l0-.12a8.56,8.56,0,0,1,1.39-.78.24.24,0,0,0,.11-.33.14.14,0,0,0,.09-.08.22.22,0,0,0,0-.32,7.83,7.83,0,0,1-.8-1.2l1-.56c.23-.12,0-.49-.21-.36l-.78.43c.06-.2.11-.39.17-.58a.19.19,0,0,0-.13-.25q1.29,0,2.58,0c1,0,2-.15,3-.13a.2.2,0,0,0-.14.24c0,.17.08.34.11.52q-.5-.33-1-.63a.21.21,0,0,0-.21.37c.46.26.91.54,1.36.83v.07c-.27.37-.54.74-.82,1.1a.3.3,0,0,0,0,.1.19.19,0,0,0-.14.29.23.23,0,0,0,.14.13c.44.37.89.72,1.35,1.06l-.86,1.39a.2.2,0,0,0,.13.3h0a.53.53,0,0,0,.12,0,.22.22,0,0,0,0,.41c.24.08.49.17.73.27H88.93C87.75,56.37,86.58,56.38,85.41,56.4Z"/><path class="cls-4" d="M95.83,57.88c-5.08.3-10.19.22-15.28.25a.21.21,0,0,0,0,.42c5.09,0,10.2.05,15.28-.25C96.1,58.28,96.1,57.86,95.83,57.88Z"/><path class="cls-4" d="M102.28,69.73a1.59,1.59,0,0,0-1-.18.18.18,0,0,0,0-.32l-1.53-.7c.38-.39.76-.78,1.12-1.18a.22.22,0,0,0,0-.23.21.21,0,0,0-.18-.37l-.28.07A16.67,16.67,0,0,0,98.33,66l-.13-.24a8.24,8.24,0,0,1,.35-.81l.68-.17a.21.21,0,0,0-.11-.4l-.29.07a.56.56,0,0,1,0-.08A.22.22,0,0,0,99,64a.23.23,0,0,0-.29-.11,10.1,10.1,0,0,1-1.59-.67A4.08,4.08,0,0,0,97.71,62c.07-.26-.34-.38-.41-.12,0,0,0,0,0,0a.18.18,0,0,0-.19-.13A8.34,8.34,0,0,0,96,62a.75.75,0,0,0-.07-.12c.27,0,.53-.11.8-.18l.27.08a.21.21,0,0,0,.19-.36.19.19,0,0,0-.25-.22l-.21.06-1-.32c.13-.15.26-.31.4-.46h0a.19.19,0,0,0,.14-.15l.43-.21c.24-.11,0-.47-.21-.36L95.8,60,79.92,59.9a.21.21,0,0,0,0,.42h.16a.24.24,0,0,0,0,.1l.68.8H80a.18.18,0,0,0-.19-.06l-.37.08c-.23,0-.18.41,0,.41h.18c-.17,0-.34.06-.52.09s-.18.17-.12.28v0a.22.22,0,0,0,.13.38l.45,1a6.08,6.08,0,0,1-1.84.47.22.22,0,0,0-.14.37v0c-.19.06-.25.36,0,.39h0a5.49,5.49,0,0,0,.4,1.11,1.47,1.47,0,0,1,.1.22L75.6,67a.23.23,0,0,0,0,.39h0a.23.23,0,0,0,0,.35,11.25,11.25,0,0,1,.92.76c-.5.2-1,.41-1.48.65a.17.17,0,0,0-.1.19l-.56-.1c-.26,0-.38.36-.11.4a21,21,0,0,0,3.26.5c.26,0,.26-.41,0-.42a6.13,6.13,0,0,1-.74,0h0l.35-.54c.13.14.26.28.38.43s.47-.1.3-.3l-.45-.49.11-.18c.49-.16,1-.3,1.48-.43l.25.08c.18.07.29-.12.24-.27a.19.19,0,0,0,0-.08.23.23,0,0,0,0-.14l-.62-1.37.15-.26a4.71,4.71,0,0,1,1.77-.47c.25,0,.26-.35,0-.4a.19.19,0,0,0,0-.13l.27,0c.26,0,.37-.37.11-.41l-.55-.08c-.12-.29-.23-.59-.36-.88l.15-.27A11.38,11.38,0,0,1,82.05,63a.18.18,0,0,0,.13-.26.22.22,0,0,0,.12-.36l-.58-.69c.92,0,1.84,0,2.76,0a7.41,7.41,0,0,0-2.9,1.79.21.21,0,0,0,.3.3,1.8,1.8,0,0,1,.2-.19,3.79,3.79,0,0,1,.43.69.18.18,0,0,0,0,.07A11.93,11.93,0,0,0,79,69.61c-.08.25.32.36.41.11A10.55,10.55,0,0,1,85.83,63a.22.22,0,0,0,.35-.11c.22-.06.43-.11.65-.15a.23.23,0,0,0,.3,0c.31,0,.62-.08.94-.1,0,0,0,0,0,0a.21.21,0,0,0,.42,0v0a6.88,6.88,0,0,1,.92.06s0,0,0,0a.21.21,0,0,0,.42,0c3.63.64,5.72,3.8,7.35,7,.13.24.49,0,.37-.21a26.14,26.14,0,0,0-2-3.52h0a.41.41,0,0,1,.21-.18.22.22,0,0,0,.14-.2.16.16,0,0,0,.12-.11l0-.06.07,0a.19.19,0,0,0,.2.16h0a7.62,7.62,0,0,0,1.3.59,9.54,9.54,0,0,0-.29,1.2.22.22,0,0,0,0,.14.2.2,0,0,0-.07.35c-.06.15,0,.35.23.28l.2-.07,1.25.57c-.21.21-.42.42-.64.62a.18.18,0,0,0,0,.23h0a.23.23,0,0,0-.1.24l0,.07a.2.2,0,0,0,.35.08l.56.18a3.76,3.76,0,0,0,.82,0c.55,0,1.64-.36,2.13,0C102.29,70.24,102.5,69.88,102.28,69.73Zm-2.79-1.59-.3-.57c.37-.11.74-.21,1.12-.3C100,67.56,99.77,67.86,99.49,68.14ZM99.75,67l-.76.21-.36-.65C99,66.67,99.38,66.82,99.75,67Zm-1.29-2.72-.18.32-.66.14L97,63.61A12.35,12.35,0,0,0,98.46,64.26Zm-1.37-2,.09,0a3.88,3.88,0,0,1-.46.79l-.12,0c-.13-.22-.25-.44-.38-.65A8.52,8.52,0,0,1,97.09,62.26Zm-1.32.14.23.41a4.82,4.82,0,0,1-.81-.28ZM95.54,62l-.79.2h0l.18-.25.59-.06A.75.75,0,0,0,95.54,62Zm-.07-1.59,0,0c-.08.09-.17.18-.24.27h0c-.06-.11-.13-.21-.2-.32ZM78.08,64.31v-.06a6.76,6.76,0,0,0,1.72-.48l-.39.74ZM76.4,69.47a.18.18,0,0,0,0,.17l-1-.18a14,14,0,0,1,1.43-.62h0Zm.78-1.22-.27.1c-.31-.29-.64-.56-1-.83a13.33,13.33,0,0,1,1.56.24C77.39,67.93,77.28,68.09,77.18,68.25Zm-.81-1.09,1.82-.71.13,0c-.2.33-.39.66-.6,1C77.28,67.29,76.82,67.22,76.37,67.16Zm2.59.58h0c-.27-.09-.53-.17-.8-.24.14-.22.27-.45.4-.68C78.69,67.13,78.83,67.43,79,67.74Zm-.3-1.92-.09,0a6.67,6.67,0,0,1-.44-1.12l1.06.15C79,65.21,78.84,65.51,78.66,65.82Zm1.66-.76.06.16,0,0a4.5,4.5,0,0,0-1.13.3l.35-.61Zm-.47-.49a2.69,2.69,0,0,0,.16-.29l.13.33Zm.25-1.36-.07,0c-.12-.27-.25-.54-.37-.8l.83,0Zm-.19-1.16a5.36,5.36,0,0,0,1-.26c-.06.1-.11.2-.16.3Zm1.91.53a10.36,10.36,0,0,0-1.11.38l.23-.43Zm-.67-.46.16-.31.29.34Zm1.73,1.93v0a4,4,0,0,0-.48-.76l.46-.34a3,3,0,0,0,.55.68l0,0Zm.88-.59a.19.19,0,0,0-.07-.15,3.14,3.14,0,0,1-.49-.6,5,5,0,0,1,.51-.27,5.08,5.08,0,0,0,.4.81Zm.72-.4a4.6,4.6,0,0,1-.4-.8l.58-.22a3.18,3.18,0,0,0,.16.86Zm2.27-1.36v.59a5.81,5.81,0,0,0-.63.15L86,62l0,0a.18.18,0,0,0-.19-.16.2.2,0,0,0-.19.27s0,0,0,0l.1.48-.5.18a2.57,2.57,0,0,1-.14-.82h0a7.81,7.81,0,0,1,1.09-.23h.59Zm1.35.42H88a8.55,8.55,0,0,0-.87.09V61.7l1,0C88.14,61.86,88.11,62,88.1,62.12Zm1.37.07a7.75,7.75,0,0,0-1-.07c0-.13,0-.26.08-.38h.29c.27,0,.55,0,.83,0A1.1,1.1,0,0,0,89.47,62.19Zm-.3-1a11.82,11.82,0,0,0-3,0c-1.41,0-2.83,0-4.25,0a2.06,2.06,0,0,1,1.21-.36c.27,0,.27-.41,0-.42a2.51,2.51,0,0,0-1.26.28c0-.2-.28-.35-.38-.13l-.24.47-.63-.74,13,.1a.2.2,0,0,0,.13.28l1.28.4h0c-.12.15-.23.31-.34.47a25.9,25.9,0,0,1-3.73-.1A15,15,0,0,0,89.17,61.22Zm1.24,1.13-.51-.11a.89.89,0,0,1,.17-.24.16.16,0,0,0,.05-.18l.5,0A2.41,2.41,0,0,0,90.41,62.35Zm1.64-.1-.3.56a9.56,9.56,0,0,0-.94-.35A2.35,2.35,0,0,1,91,62a.23.23,0,0,0,0-.11,9.22,9.22,0,0,1,1.06.3Zm1,1.25a10,10,0,0,0-.9-.52l.29-.52a.22.22,0,0,0,0-.11,5.88,5.88,0,0,1,1,.51h0l-.39.6S93,63.49,93,63.5Zm1.29.41-.14.49-.52-.46-.31-.21a.34.34,0,0,0,.06-.06l.38-.57a4.48,4.48,0,0,1,.71.67A.19.19,0,0,0,94.32,63.91Zm1.3,1.33a.25.25,0,0,0,0,.12,1,1,0,0,0-.36.24c-.23-.29-.47-.58-.73-.86l.21-.69a2.2,2.2,0,0,1,.17.25.21.21,0,0,0,.36-.21A5.24,5.24,0,0,0,92.64,62c.57,0,1.14,0,1.7,0l-.07.09a.2.2,0,0,0,.08.28c-.12.14,0,.42.2.34l.11,0a5.32,5.32,0,0,0,1.64.63l.11.19,0,0A14.28,14.28,0,0,0,95.62,65.24Zm.6-.3,0,0c.15-.35.3-.71.48-1,.17.29.35.58.52.88Zm.43.36c.25,0,.5-.07.75-.12l.33.6A8.66,8.66,0,0,1,96.65,65.3Zm1,2.3a.15.15,0,0,0,.06-.11A9.09,9.09,0,0,1,98,66.32h0c.19.33.37.66.55,1q-.42.14-.84.3Zm.6.27.52-.17c.09.18.18.36.28.54Zm.5,1.67-.08,0,.68-.67h0l.44.85A3.22,3.22,0,0,1,98.77,69.54Zm1.55.12h0c-.09-.19-.19-.36-.28-.55l1,.46C100.75,69.61,100.52,69.65,100.32,69.66Z"/><path d="M89.17,46.34a9.81,9.81,0,0,1-.35-3.24.2.2,0,0,0-.26-.2,1.85,1.85,0,0,1-.94.14c-.09-.14-.34-.16-.38,0v.09a.17.17,0,0,0,0,.12l-.12,1.82c0,.31-.2,1,0,1.23s.18.15.33.18a8.65,8.65,0,0,0,1.61.09A.22.22,0,0,0,89.17,46.34Zm-1.12-.19c-.5,0-.63-.09-.59-.65s.08-1.36.13-2a2.06,2.06,0,0,0,.81-.08,10.14,10.14,0,0,0,.29,2.8Z"/><path d="M88.64,41.61a1.78,1.78,0,0,0-.1-.52c-.16-.34-.5-.05-.74-.2a.19.19,0,0,0-.3.17.21.21,0,0,0,0,.24v.59c0,.14,0,.31.08.42s.23.12.37.13l.61,0a.2.2,0,0,0,.2-.26ZM88,42h-.09c0,.07,0,.07,0,0a1.61,1.61,0,0,1,0-.38v-.29h0a.5.5,0,0,0,.21,0c.08,0,0-.05.07,0a2.57,2.57,0,0,1,.08.47l0,.24h-.1A1,1,0,0,0,88,42Z"/><path d="M88.43,39.34c-.06-.27-.17-.56-.47-.61a.24.24,0,0,0-.36.16l-.1.76c0,.16-.1.39,0,.54s.21.16.37.17a1.42,1.42,0,0,0,.58,0,.28.28,0,0,0,.17-.3A4.29,4.29,0,0,0,88.43,39.34Zm-.55.6c0-.06,0-.13,0-.14l.07-.58a1.46,1.46,0,0,1,.08.32l.07.28a.82.82,0,0,0,0,.14Z"/><path d="M88.31,37.83a.18.18,0,0,0-.11-.14v-.1c0-.27-.39-.27-.42,0a2.48,2.48,0,0,0,0,.72.21.21,0,0,0,.38,0A.7.7,0,0,0,88.31,37.83Z"/><path d="M91,56.12h0a.12.12,0,0,0,0-.1,43.42,43.42,0,0,1-1.35-6,.15.15,0,0,0-.06-.11h0s0,0-.09-.06h0a.19.19,0,0,0-.18,0c-.76,0-1.52,0-2.29,0a.19.19,0,0,0-.31.16,12.7,12.7,0,0,1-.73,3.22,29,29,0,0,0-.45,2.94.16.16,0,0,0,0,.1.24.24,0,0,0,.2.26,25,25,0,0,0,5.33.06C91.27,56.51,91.28,56.1,91,56.12Zm-5.12,0a28.31,28.31,0,0,1,.61-3.55,13.21,13.21,0,0,0,.57-2.31c.72,0,1.45,0,2.18,0a41.23,41.23,0,0,0,1.33,5.9h0A25.45,25.45,0,0,1,85.89,56.08Z"/><path d="M104.1,69.76a5.4,5.4,0,0,1-1.55-.19.36.36,0,0,0,0-.09c-2-2.79-3.25-6-5.4-8.73a.16.16,0,0,0,0-.12,9.83,9.83,0,0,1-.08-1.21c0-.35.08-.72.06-1.07s-.36-.43-.69-.48a7.48,7.48,0,0,0,.67-1.21.21.21,0,0,0-.14-.3.17.17,0,0,0-.15-.14,8.22,8.22,0,0,0-2.27,0c-.59-2-1.22-4-1.88-5.93a.76.76,0,0,0,.21,0,.16.16,0,0,0,.13-.1.4.4,0,0,0,.15-.59,4.18,4.18,0,0,0-.47-.57c-.16-.19-.31-.38-.46-.58.33-.48.67-1,1-1.42.12-.17-.07-.33-.23-.29s0,0,0,0a8.3,8.3,0,0,0-1.28-.33,90.78,90.78,0,0,1-1.24-11,.47.47,0,0,0,.46-.3,1.17,1.17,0,0,0,0-.49l-.09-.68h0a.21.21,0,0,0,0-.38,1.45,1.45,0,0,0-.36,0A96.5,96.5,0,0,1,89.66,21l.26,0c.11.13.38.1.37-.12l-.07-2a9.67,9.67,0,0,0-.09-1.42.21.21,0,0,0-.07-.28l0,0-.05,0a1.39,1.39,0,0,0-.44-.17c.24-.29.51-.63.31-.92a12.64,12.64,0,0,0-1.39-1.54c0-1.77.08-3.54.21-5.3a.18.18,0,0,0-.12-.19A.2.2,0,0,0,88.36,9a3,3,0,0,0-.85.09.2.2,0,0,0-.13.28.19.19,0,0,0-.11.18c0,1.79-.08,3.58-.11,5.36a.21.21,0,0,0,0,.14h0c-.23.27-.47.53-.71.8a.17.17,0,0,0-.12.15,3,3,0,0,0-.22.28c-.21.28,0,.47.16.69A.84.84,0,0,0,86,17a.21.21,0,0,0-.13.11.2.2,0,0,0-.16.19,13.43,13.43,0,0,0,.12,3.41c.09.54.18.79.61.65.43,1.87-.16,4.06-.3,5.95S86,31.37,86,33.39a.82.82,0,0,0-.56.3c-.16.22-.05.67-.05.92s-.06.59.13.76a.28.28,0,0,0,.25.09c-.29,1.69-.57,3.38-.72,5.09a25.33,25.33,0,0,1-.81,5.62h0q-.33,0-.66.06a.19.19,0,0,0-.17.11.18.18,0,0,0-.12.24l.51,1.52c.12.37.21.55,0,.91-.12.19-.34.35-.43.55-.19.41,0,.51.38.64-.18.52-1.79,5.75-2,5.73a.22.22,0,0,0-.25.15,7.51,7.51,0,0,0-2,.6.22.22,0,0,0-.07.29l.43.82c-.3,0-.6.1-.66.4a4.2,4.2,0,0,0,.11,1l.15,1.28,0,.06Q76.7,65,73.67,69.29a1.59,1.59,0,0,0-1.06,0,.46.46,0,0,0-.2.4c0,.28,0,.56-.07.85a.17.17,0,0,0,.14.19c-.08.56,1.42.52,1.64.54a27.28,27.28,0,0,0,5.57-.08,2.3,2.3,0,0,0,.36-.36c0-.34.06-.68.06-1a.28.28,0,0,0-.24-.32c.87-1.77,1.6-3.64,3.19-4.9l.07,0a8.23,8.23,0,0,1,7.46-1.4h.06a9,9,0,0,1,1.7.59,6.1,6.1,0,0,1,1.92,1.83,16,16,0,0,1,2.42,4.08c-.31.2-.12.9-.07,1.23a.19.19,0,0,0,0,.08.22.22,0,0,0,.16.34c1.25.07,2.43-.23,3.69-.07a19.6,19.6,0,0,0,3.16.07.22.22,0,0,0,.19-.28.22.22,0,0,0,.37-.15l.09-.94A.21.21,0,0,0,104.1,69.76Zm-.3,1.15s0,0,0,.07a.18.18,0,0,0-.15-.06,21.16,21.16,0,0,1-3.47-.11c-1.09-.13-2.11.14-3.18.11a.2.2,0,0,0,0-.11A6.28,6.28,0,0,0,96.9,70a.23.23,0,0,0,.22-.35.22.22,0,0,0,0-.08A16.75,16.75,0,0,0,94.31,65,6,6,0,0,0,92.7,63.5a14.78,14.78,0,0,0-2.52-.89.15.15,0,0,0-.16,0,8.63,8.63,0,0,0-7.11,1.62.18.18,0,0,0-.09,0c-1.72,1.33-2.47,3.36-3.41,5.25a.19.19,0,0,0,0,.18.16.16,0,0,0,.15.18l.15,0c0,.14,0,.3,0,.43l0,.48a28.29,28.29,0,0,1-3.32.18q-.8,0-1.59-.06a8.39,8.39,0,0,0-1.8-.14.2.2,0,0,0-.15-.31l0-.39a2.45,2.45,0,0,1,0-.27c0-.1,0-.1.06-.15a1.09,1.09,0,0,1,.44,0,2.27,2.27,0,0,1,.52.09.21.21,0,0,0,.23-.31q3-4.33,5.85-8.82a.2.2,0,0,0,0-.26c-.05-.45-.11-.91-.16-1.37,0-.12-.15-.6-.09-.69s.28-.11.46-.12a.2.2,0,0,0,.32,0c.18-.1.15-.42-.08-.39h0L79.9,57a6.67,6.67,0,0,1,1.76-.49.19.19,0,0,0,.18-.15c.51-.12.61-1.08.75-1.48.51-1.51,1-3,1.54-4.54a.17.17,0,0,0-.1-.22.21.21,0,0,0-.13-.25c-.33-.13.17-.5.3-.7a.91.91,0,0,0,.18-.37,2.36,2.36,0,0,0-.26-.9l-.41-1.23.6-.06a.15.15,0,0,0,.14-.11.2.2,0,0,0,.17-.14,20.84,20.84,0,0,0,.78-5c.14-2,.45-3.88.78-5.82a.22.22,0,0,0-.14-.24c0-.13-.1-.23-.23-.23a.14.14,0,0,0,0-.09v-.6a1.37,1.37,0,0,1,0-.35c0-.15.25-.17.4-.16a.18.18,0,0,0,.19-.22.15.15,0,0,0,0-.09c0-2.2.06-4.39.23-6.58.14-1.87.7-3.92.23-5.76a.17.17,0,0,0-.13-.14.23.23,0,0,0-.28-.08q-.18.3-.15-.18l0-.29c-.06-.41-.1-.83-.12-1.25a15.45,15.45,0,0,1,0-1.8.65.65,0,0,1,.39,0,.21.21,0,0,0,.17-.38.21.21,0,0,0,0-.25c-.16-.19-.22-.2-.08-.41a3.88,3.88,0,0,1,.26-.31l.62-.71a.24.24,0,0,0,0-.28.19.19,0,0,0,.07-.16l.12-5.36s0,0,0-.06a2,2,0,0,1,.54-.06C88.1,11.2,88.07,13,88,14.74a.2.2,0,0,0,.17.2l.88,1c.16.18.4.32.32.6a2.19,2.19,0,0,1-.4.55l0,0h0s0,0,0,0h0a.16.16,0,0,0,0,.19.18.18,0,0,0,.17.1,1.15,1.15,0,0,1,.58.13,8,8,0,0,1,.11,1.69c0,.47,0,.93,0,1.39a2.12,2.12,0,0,0-.71,0c-.26.06-.16.43.09.4A95.65,95.65,0,0,0,90,33.62a.22.22,0,0,0,.12.24s0,0,0,0a.22.22,0,0,0,.27.2h0l.06.46c0,.05.07.29,0,.32s-.15,0-.19,0a.17.17,0,0,0-.17.1.18.18,0,0,0-.13.19,92.76,92.76,0,0,0,1.25,11.15c-.15.09-.17.34,0,.37h.09a.17.17,0,0,0,.12,0,7,7,0,0,1,1.2.29c-.28.37-.55.75-.82,1.14a.19.19,0,0,0-.15.3l0,0,.06.08.43.54c.15.19.39.6.64.65a.23.23,0,0,0-.23.09.5.5,0,0,1-.29,0c-.23-.09-.33.22-.18.36q1,3.09,2,6.21a.25.25,0,0,0,.12.13.22.22,0,0,0,.24.13,7.27,7.27,0,0,1,2,0,.32.32,0,0,0,.08.09,8.26,8.26,0,0,1-.69,1.18.17.17,0,0,0,.09.27.18.18,0,0,0,.13.11,2.57,2.57,0,0,1,.4.07c.17,0,.22.05.13.22a4,4,0,0,1,0,.77,8.75,8.75,0,0,0,.09,1.35.22.22,0,0,0,0,.27c2.19,2.67,3.42,6,5.43,8.75a.18.18,0,0,0,.09.07.19.19,0,0,0,.15.2,5.29,5.29,0,0,0,1.48.21Z"/><path d="M84.27,61.41h0l-1-.06a.86.86,0,0,0-.61.1c-.37.25-.54.93-.73,1.31A.21.21,0,0,0,82,63a.2.2,0,0,0,.31,0,4.65,4.65,0,0,1,2.1-1.22A.21.21,0,0,0,84.27,61.41Zm-1.47.49a.82.82,0,0,1,.63-.16,4.93,4.93,0,0,0-.8.47A1,1,0,0,1,82.8,61.9Z"/><path d="M94.5,62.8c-.13-.26-.26-.53-.4-.79a.81.81,0,0,0-.29-.39,1.39,1.39,0,0,0-.61-.06h-.9a.21.21,0,0,0,0,.42s0,0,0,0a1.76,1.76,0,0,0,.72.45,4,4,0,0,1,1.09.68.22.22,0,0,0,.35-.11A.18.18,0,0,0,94.5,62.8ZM93,62a1.88,1.88,0,0,1,.53,0,.82.82,0,0,1,.39.47,3.64,3.64,0,0,0-.39-.23C93.33,62.13,93.14,62.07,93,62Z"/></g><g id="Layer_9" data-name="Layer 9"><path class="cls-5" d="M86.63,56.08a5.13,5.13,0,0,0-1-2.49,5.75,5.75,0,0,0-4.74-2.35,4.2,4.2,0,0,0-.7,0,6,6,0,0,0-3.88,2.35,5.18,5.18,0,0,0-.8,1.69,6,6,0,0,0,.15,3.91,38.78,38.78,0,0,0,5,9.54.35.35,0,0,0,.25.16.32.32,0,0,0,.46-.23s0,0,0,0a.39.39,0,0,0,.2-.14,37.44,37.44,0,0,0,3.77-6.89C86.06,60.11,87.4,57.79,86.63,56.08Zm-2.71,1.8a2.59,2.59,0,0,1-1.59,1.8,3.71,3.71,0,0,1-2.23.16,3.19,3.19,0,0,1-1.79-1.4c-.61-1.36-.53-3.09.9-3.89a3.75,3.75,0,0,1,2.62-.23A3,3,0,0,1,84,56a3.6,3.6,0,0,0,.12.44A3.27,3.27,0,0,1,83.92,57.88Z"/><path d="M84.19,56.64A3.22,3.22,0,0,0,80.41,54h0c-1.82.14-2.75,1.63-2.51,3.46a3,3,0,0,0,3.57,2.4,3.68,3.68,0,0,0,2.3-1.06A2.94,2.94,0,0,0,84.19,56.64Zm-.89,2a3.63,3.63,0,0,1-1.92.78,2.62,2.62,0,0,1-3-1.78,2.41,2.41,0,0,1,2.41-3.23.21.21,0,0,0,.15,0,2.79,2.79,0,0,1,2.86,2.25A2.46,2.46,0,0,1,83.3,58.67Z"/><path d="M86.12,53.74A6.06,6.06,0,0,0,79,51.44a7,7,0,0,0-3.21,2.46,5.45,5.45,0,0,0-.58,4.48,20.56,20.56,0,0,0,2.33,5.56,26,26,0,0,0,3.14,4.94l.08.06a.73.73,0,0,0,.57.2c.59,0,.89-.72,1.14-1.15,1-1.7,1.84-3.43,2.7-5.18C86.5,60,88,56.69,86.12,53.74Zm-2.24,10.6c-.38.74-.76,1.48-1.16,2.21-.19.37-.39.73-.6,1.1-.09.16-.18.32-.28.48l-.09.16c-.15.35-.42.4-.81.16a.17.17,0,0,0-.23-.15,19.62,19.62,0,0,1-2.11-3.22c-.68-1.24-1.38-2.48-2-3.75a12.26,12.26,0,0,1-1.23-4.44A4.52,4.52,0,0,1,77.11,53a5.88,5.88,0,0,1,7.1-.62C86.69,54.06,87,57.17,86,59.8A41.82,41.82,0,0,1,83.88,64.34Z"/></g></svg>