<svg xmlns="http://www.w3.org/2000/svg" xmlns:xlink="http://www.w3.org/1999/xlink" viewBox="0 0 45 70"><defs><style>.cls-1{fill:none;}.cls-2{fill:#1e2856;}.cls-3{clip-path:url(#clip-path);}.cls-4{fill:#18243d;opacity:0.49;}.cls-5{fill:#eecd49;}.cls-6{fill:#231f20;}</style><clipPath id="clip-path"><path class="cls-1" d="M37.82,28.59C37,24.26,35.89,20,35.1,15.66c-.23-1.26-.55-2.49-.83-3.7a14.57,14.57,0,0,1-.78-3.27c-.09-.44-.2-.88-.29-1.33a.44.44,0,0,0-.66-.3h0c-1.71.39-3.42.81-5.12,1.24-4,.74-8,1.56-12,2.43-2.24.49-4.5.94-6.72,1.5s-4.48.77-6.61,1.4a.44.44,0,0,0-.22.14.47.47,0,0,0-.25.69l.09.19a.57.57,0,0,0,.08.28c.38,2.15,1.19,4.25,1.6,6.41a64.48,64.48,0,0,0,1.56,7C6,34,7,39.92,8.56,45.55,9.17,49,10,52.49,10.76,55.93a3.26,3.26,0,0,0,.38,1.65c.13.57.26,1.14.38,1.71a.42.42,0,0,0,.44.34.43.43,0,0,0,.39,0l.25-.08a.42.42,0,0,0,.23-.07c.39-.12.78-.21,1.16-.33,4.72-.88,9.4-1.9,14.06-3a29.2,29.2,0,0,0,5-1.19c1.05-.26,2.11-.51,3.16-.78,2.13-.4,4.27-.8,6.39-1.23a.39.39,0,0,0,.33-.31.59.59,0,0,0,.55-.12C41.43,44.61,39.46,36.72,37.82,28.59Z"/></clipPath></defs><title>Artboard 3</title><g id="Layer_2" data-name="Layer 2"><path class="cls-2" d="M37.82,28.52c-.87-4.33-1.93-8.59-2.72-12.93-.23-1.27-.55-2.49-.83-3.7a14.57,14.57,0,0,1-.78-3.27c-.09-.44-.2-.89-.29-1.33a.44.44,0,0,0-.66-.3h0Q30,7.57,27.4,8.23c-4,.73-8,1.56-12,2.43-2.24.49-4.5.93-6.72,1.5s-4.48.77-6.61,1.4a.44.44,0,0,0-.22.14.47.47,0,0,0-.25.69l.09.19a.57.57,0,0,0,.08.28c.38,2.15,1.19,4.25,1.6,6.41a64.48,64.48,0,0,0,1.56,7C6,34,7,39.85,8.56,45.48,9.17,49,10,52.42,10.76,55.86a3.26,3.26,0,0,0,.38,1.65c.13.57.26,1.14.38,1.7a.42.42,0,0,0,.44.35.46.46,0,0,0,.39,0l.25-.08a.42.42,0,0,0,.23-.07L14,59.12c4.72-.88,9.4-1.9,14.06-3a29.2,29.2,0,0,0,5-1.19l3.16-.78c2.13-.41,4.27-.8,6.39-1.24a.38.38,0,0,0,.33-.31.56.56,0,0,0,.55-.11C41.43,44.53,39.46,36.65,37.82,28.52Z"/><g class="cls-3"><path class="cls-4" d="M27,58.59C24.39,40.43,18.56,23,15.32,4.92,14.4-.24,7.2,1.25,6.6,5.79A4.06,4.06,0,0,0,3.09,4C-.16,4-1.59,6.86-1.19,9.35A4.64,4.64,0,0,0-3,13.83C-.82,27.59,2.36,41.94,7.57,54.88c0,.09.09.17.13.26-.28.21-.56.4-.84.63-4.57,3.55,1.84,9.88,6.36,6.36a3.47,3.47,0,0,1,1-.56A4.11,4.11,0,0,0,18,62.2c.86.47,1.68,1,2.44,1.47C24.15,65.73,27.56,62.35,27,58.59Z"/></g></g><g id="Layer_3" data-name="Layer 3"><path class="cls-5" d="M10.64,18.07c-.38-.8-1.58-.41-2.18-.19-.21.07-.12.4.09.33l.18-.07a.43.43,0,0,0,0,.05,10.13,10.13,0,0,0,.38,2l0,.05s0,0,0,0v.07l0,0H9c-.21,0-.21.33,0,.34a2.44,2.44,0,0,0,.89-.14c.2-.07.11-.4-.09-.33l-.08,0-.07-.12,0,0c0-.12,0-.24-.05-.36l0-.23v0h0a3.8,3.8,0,0,0,.43-.19.12.12,0,0,0,.08,0,.71.71,0,0,0,.14-.1A.83.83,0,0,0,10.64,18.07ZM9.91,19a2.31,2.31,0,0,1-.41.16c-.06-.32-.12-.64-.19-1,.23-.06.5-.11.65.11S10.13,18.83,9.91,19Z"/><path class="cls-5" d="M13.18,19.46l-.11,0c-.15-.23-.31-.45-.48-.67-.27-.49-.54-1-.83-1.46a.17.17,0,0,0-.2-.07.14.14,0,0,0-.16.12l-.52,2.53h0l-.11,0a.17.17,0,0,0,.09.32,5.46,5.46,0,0,1,.87-.2c.22,0,.22-.35,0-.34l-.22,0h0v-.15a.14.14,0,0,0,0-.07c0-.08,0-.16,0-.24v0a4.29,4.29,0,0,1,.71-.16c.1.16.21.32.32.48l-.16,0c-.22.05-.13.38.09.33a7.63,7.63,0,0,1,.83-.17C13.48,19.76,13.39,19.44,13.18,19.46Zm-1.75-.53.18-.85c.12.25.25.48.39.72A3.9,3.9,0,0,0,11.43,18.93Z"/><path class="cls-5" d="M14.82,18a.16.16,0,0,0-.13,0,4.28,4.28,0,0,0-.44-.2.2.2,0,0,0-.1,0l-.09,0H14a.44.44,0,0,1-.19-.19c-.15-.37.21-.58.52-.56a1,1,0,0,0,.14.38.17.17,0,0,0,.17,0h0a.18.18,0,0,0,.07-.29s0-.09,0-.09l0-.11a.18.18,0,0,0-.11-.23.82.82,0,0,0-.41,0h0a.84.84,0,0,0-.82,1.15.9.9,0,0,0,.52.51c.23.09.49.1.72.19,0,.06.07.12.1.19a.54.54,0,0,1,0,.31V19l-.09.1a.66.66,0,0,1-.25,0,.12.12,0,0,0-.1-.05,1.09,1.09,0,0,1-.26,0,1.24,1.24,0,0,1-.19-.26.17.17,0,0,0-.31.13.7.7,0,0,0,.71.62,1.14,1.14,0,0,0,.49-.11.82.82,0,0,0,.55-.54A.77.77,0,0,0,14.82,18Z"/><path class="cls-5" d="M17.29,18a.86.86,0,0,0-.77-.73h-.06c-.27-.12-.65-.28-.56-.59v0l0,0a.7.7,0,0,1,.48-.16s0,0,0,0a.35.35,0,0,1,.08.22c0,.22.32.22.34,0a.36.36,0,0,0-.06-.23.12.12,0,0,0,0-.19.32.32,0,0,0-.14-.12.19.19,0,0,0-.22-.06,1.22,1.22,0,0,0-.77.26.66.66,0,0,0-.21.27.16.16,0,0,0-.11.16v0a.15.15,0,0,0,0,.1.79.79,0,0,0,.38.81,2,2,0,0,0,.6.14.37.37,0,0,1,.33.22.43.43,0,0,1,.08.45.55.55,0,0,1-.35.19h0a.36.36,0,0,1-.27-.15.17.17,0,0,0-.19-.07.24.24,0,0,1,0-.14c0-.12-.09-.17-.19-.15h0a.17.17,0,0,0-.11.25,2.68,2.68,0,0,0,.18.47.46.46,0,0,0,0,.09.15.15,0,0,0,.15.08,1.56,1.56,0,0,0,1-.27.13.13,0,0,0,.1-.1v0h0a.52.52,0,0,0,.24-.6A.16.16,0,0,0,17.29,18Z"/><path class="cls-5" d="M19.1,15.92a1.09,1.09,0,0,0-.92-.19,1.66,1.66,0,0,0-.76.14.11.11,0,0,0-.08.07h0l-.07,0c-.16.07-.15.35,0,.33l.15,0a.16.16,0,0,0,0,.07s0,0,0,.06a3.9,3.9,0,0,0,.19.82l.1.54a.14.14,0,0,0,.06.1c0,.16.07.33.1.5a.48.48,0,0,0-.21.07c-.19.11,0,.41.17.29a1.59,1.59,0,0,1,.39-.07l.44-.08c.22,0,.13-.36-.09-.33l-.18,0-.12-.62a.13.13,0,0,0-.09-.11V17.5a2.67,2.67,0,0,0,.95-.4.14.14,0,0,0,.05-.16A.82.82,0,0,0,19.1,15.92Zm-.87,1.25c-.07-.32-.13-.64-.19-1l.24,0h.26a1.14,1.14,0,0,1,.11.11.68.68,0,0,1,.11.55.17.17,0,0,0,0,.14A5.27,5.27,0,0,1,18.23,17.17Z"/><path class="cls-5" d="M20.66,15.24h0a1.28,1.28,0,0,0-.83,1.48,1.1,1.1,0,0,0,.49.85A1.7,1.7,0,0,0,21.4,18a.14.14,0,0,0,.14-.1,1.29,1.29,0,0,0,.72-.45.75.75,0,0,0,.13-.25A1.39,1.39,0,0,0,20.66,15.24Zm1.13,2c-.43.56-1.13.07-1.29-.45a1.28,1.28,0,0,1,.11-1.13l.14-.06a2.5,2.5,0,0,1,.54,0,.75.75,0,0,1,.46.37A1.24,1.24,0,0,1,21.79,17.26Z"/><path class="cls-5" d="M25.33,16.66l0,0a2.94,2.94,0,0,1-.42-.3c-.13-.12-.25-.26-.38-.39v0l0,0a2,2,0,0,0,.32-.45.8.8,0,0,0,0-.53.64.64,0,0,0-.74-.46h0a2.75,2.75,0,0,0-.57.05l-.17.06a1.17,1.17,0,0,0-.26,0,.18.18,0,0,0-.07.05h-.05a.13.13,0,0,0-.14.08.57.57,0,0,0-.13.08.17.17,0,0,0,.07.29h0a.18.18,0,0,0,.19-.07l0,0a2.38,2.38,0,0,0,.15.74c.08.36.18.71.28,1a.09.09,0,0,0,0,.06h0c0,.05,0,.19,0,.21a2.13,2.13,0,0,0-.35.14c-.19.1,0,.4.17.29l.24-.1h0l.1-.05a5,5,0,0,1,.53-.11c.22,0,.12-.37-.09-.33l-.13,0c-.07-.22-.13-.45-.19-.67h.05l.16-.07.05.06a5.51,5.51,0,0,0,.57.5,1.38,1.38,0,0,0,.64.29.17.17,0,0,0,.13-.05.22.22,0,0,0,.08-.19A.13.13,0,0,0,25.33,16.66Zm-1.16-1a.81.81,0,0,1-.44.3l0,0a8.62,8.62,0,0,1-.21-1l0,0,.07,0a3.85,3.85,0,0,1,.48,0h0a.14.14,0,0,0,.09.08s0,0,0,0l.05.12.08.2A.68.68,0,0,1,24.17,15.63Z"/><path class="cls-5" d="M27,14.17l.07,0a2.25,2.25,0,0,0,.05.22c.07.2.4.11.33-.1a4.58,4.58,0,0,1-.14-.53c0-.22-.36-.13-.32.09v0h-.08c-.53.08-1.06.18-1.59.28a.18.18,0,0,0-.33.08,1.4,1.4,0,0,0,.11.67c.08.2.41.11.33-.09a1,1,0,0,1-.09-.31l.49-.1v.05a18.4,18.4,0,0,1,.5,1.94h0l-.21.07c-.16.06-.16.35.05.33a4.33,4.33,0,0,0,1.07-.16.17.17,0,0,0,0-.33c-.1,0-.22,0-.32,0a.18.18,0,0,0-.05-.07v0c-.13-.61-.25-1.22-.36-1.84a.08.08,0,0,0,0-.05Z"/><path class="cls-5" d="M19.08,43.19H19l-.3.06c-.12,0-.06.19.05.18l.17,0a5.05,5.05,0,0,1-.06.67,1.38,1.38,0,0,1-.06.26c-.08.29-.08.32-.38.32h-.15a1.87,1.87,0,0,1-.14-.61,1.79,1.79,0,0,0,0-.47h.05a.4.4,0,0,0,.22-.09.09.09,0,0,0-.06-.16,4.13,4.13,0,0,0-.77.13.09.09,0,0,0,0,.18h.07l.06,0c0,.34.06,1,.37,1.25a.35.35,0,0,0,.39.15c.61-.13.61-1.14.64-1.66h0C19.25,43.35,19.2,43.17,19.08,43.19Z"/><path class="cls-5" d="M20.41,44.32h-.09s0,0-.07,0a3.44,3.44,0,0,0,0-.42.33.33,0,0,0-.21-.27c-.15-.05-.31.06-.43.19h0l0,0a.09.09,0,0,0-.08-.09.11.11,0,0,0-.06,0l0,0-.05,0-.07.07a.09.09,0,0,0,0,.11.09.09,0,0,0,.1,0h0a1.9,1.9,0,0,0,0,.63v0a.09.09,0,0,0,.1.13h.12a.11.11,0,0,0,.09-.09l-.06-.53v-.05l0,0,0-.05a.1.1,0,0,0,.05,0l0,0,.06,0s.07,0,.08,0l.06.12a.67.67,0,0,1,.06.28v0l0,0c-.08,0,0,.17,0,.17a1.5,1.5,0,0,0,.42,0A.1.1,0,0,0,20.41,44.32Z"/><path class="cls-5" d="M21.05,44.18a.09.09,0,0,0-.07,0c-.07,0-.07-.42-.07-.47s.05-.24,0-.32a.1.1,0,0,0-.09,0,.52.52,0,0,0-.13.06h0a.09.09,0,0,0,0,.17c0,.11,0,.21,0,.32s0,.28,0,.34,0,.15.07.16a.69.69,0,0,0,.35-.08C21.16,44.31,21.12,44.2,21.05,44.18Z"/><path class="cls-5" d="M20.86,42.84l-.05,0a.09.09,0,0,0-.14.08s0,0,0,.06a.1.1,0,0,0,.09.09.07.07,0,0,0,.09,0A.13.13,0,0,0,20.86,42.84Z"/><path class="cls-5" d="M21.75,44h0c-.11.06-.1,0-.12-.08a2.09,2.09,0,0,1,0-.25v-.16a.82.82,0,0,1,.19-.09c.11,0,0-.19-.07-.18l-.12,0v-.14a.06.06,0,0,0,0-.06v0c0-.12-.17-.11-.18,0a2.64,2.64,0,0,1-.08.49.1.1,0,0,0,.06.11v0a1.41,1.41,0,0,0,0,.46c0,.09.06.16.15.17s.13,0,.19-.09l.09,0A.09.09,0,0,0,21.75,44Z"/><path class="cls-5" d="M22.65,43.77c-.13,0-.34.13-.4-.05a.25.25,0,0,0,0-.08c.22-.09.57-.19.51-.49A.21.21,0,0,0,22.5,43l-.05,0s0,0,0,0h-.05a.68.68,0,0,0-.42.75.37.37,0,0,0,.51.36.1.1,0,0,0,0,0,.53.53,0,0,0,.18,0C22.8,43.91,22.76,43.73,22.65,43.77Zm-.15-.46a1.55,1.55,0,0,1-.22.12l.06-.14s.08-.13.15-.14S22.57,43.26,22.5,43.31Z"/><path class="cls-5" d="M24,43.5h0a4.2,4.2,0,0,1-.05-.7,2.66,2.66,0,0,0,0-.63c-.07-.22-.28-.06-.43,0s0,.21.1.16l.07,0v.47c-.22-.07-.54.2-.61.45a.51.51,0,0,0,.16.53.48.48,0,0,0,.5,0l.06,0a.64.64,0,0,0,.3-.11A.09.09,0,0,0,24,43.5Zm-.33.07a.57.57,0,0,1-.25.06l0,0c-.23-.23,0-.46.19-.63,0,0,.07,0,.09.11h0v.06C23.63,43.28,23.61,43.43,23.62,43.57Z"/><path class="cls-5" d="M25.71,43a.61.61,0,0,0-.31-.36.81.81,0,0,1-.27-.25.32.32,0,0,1,0-.27.29.29,0,0,1,.16-.11s.05,0,.07,0a.11.11,0,0,0,.11,0,.05.05,0,0,1,0,0c0,.08.08.19.15.1s0-.26-.13-.32a.37.37,0,0,0-.23,0,.53.53,0,0,0-.33,0c-.18.07-.18.19-.18.37a.52.52,0,0,0,.17.44,1.11,1.11,0,0,0,.19.09c.26.1.43.39.2.61l-.14,0-.11-.05a1.44,1.44,0,0,1-.18-.25.09.09,0,0,0-.17.07.44.44,0,0,0,.42.41.48.48,0,0,0,.37-.07.08.08,0,0,0,0,0,.39.39,0,0,0,.16-.35S25.72,43,25.71,43Z"/><path class="cls-5" d="M26.37,43c-.09,0-.14,0-.16-.06v-.17c0-.09,0-.18,0-.27v0l.14-.07a.15.15,0,0,0,.05-.07.47.47,0,0,0,.06-.09c0-.06,0-.16-.09-.14a.09.09,0,0,0-.11,0l0,0v0s0,0,0,0V42a.16.16,0,0,0,0-.07.1.1,0,0,0-.19,0,1,1,0,0,0,0,.29h0a.09.09,0,0,0,0,.18h0a2,2,0,0,0,.09.7.09.09,0,0,0,.06.07.26.26,0,0,0,.39,0C26.59,43,26.45,42.9,26.37,43Z"/><path class="cls-5" d="M27.72,42.76l-.06,0a.15.15,0,0,0,0-.07,2.16,2.16,0,0,1,0-.8c0-.07-.05-.09-.1-.09a.11.11,0,0,0-.07,0l0,0h-.19a.09.09,0,0,0-.1,0,.87.87,0,0,0-.49.78.4.4,0,0,0,.61.33.09.09,0,0,0,0-.08c.09.13.29.08.46,0S27.83,42.72,27.72,42.76Zm-.46,0a.1.1,0,0,0-.09,0h0a.56.56,0,0,1-.07-.59.43.43,0,0,1,.23-.1A2.31,2.31,0,0,0,27.26,42.75Z"/><path class="cls-5" d="M28.4,42.37s-.08.1-.11.15h0c0-.09,0-.3,0-.33v-.34l.18,0a.09.09,0,0,0-.05-.18l-.13,0v-.1a.08.08,0,0,0,0-.07h0a.1.1,0,0,0-.19,0,1.57,1.57,0,0,0-.06.28h0a.14.14,0,0,0-.11,0,.1.1,0,0,0,.05.18h.05c0,.42,0,.91.34.78l.07,0h0l.16-.17C28.61,42.42,28.48,42.29,28.4,42.37Z"/><path class="cls-5" d="M29.31,42.38c-.2.13-.35,0-.4-.18h0c.23-.07.53-.27.46-.54a.25.25,0,0,0-.33-.19c-.6,0-.68,1.71.29,1.12,0,0,0,0,0,0h0C29.51,42.48,29.41,42.32,29.31,42.38Zm-.17-.5-.07,0-.18.09a.28.28,0,0,1,0-.09.59.59,0,0,1,.06-.14c.06-.1.07-.14.16,0S29.21,41.82,29.14,41.88Z"/><path class="cls-5" d="M30.32,41.94a.7.7,0,0,0-.25-.15L30,41.73q-.11,0-.06-.15a.13.13,0,0,1,0-.06.07.07,0,0,0,0-.05s.1,0,.18.09.22.06.18-.05a.32.32,0,0,0-.59-.07.33.33,0,0,0,0,.4.4.4,0,0,0,.22.14.33.33,0,0,1,.16.07.13.13,0,0,1-.05.2.29.29,0,0,1-.27,0h0l0,0c-.07-.1-.21,0-.13.13a.44.44,0,0,0,.73-.08A.29.29,0,0,0,30.32,41.94Z"/><path class="cls-5" d="M20,46a.08.08,0,0,0-.08,0l-.05,0s0,0-.06,0a.52.52,0,0,0-.46.48.77.77,0,0,0,.06.4.33.33,0,0,0,.19.16l.09,0A.29.29,0,0,0,20,47C20.36,46.84,20.45,46.08,20,46Zm-.28.89,0,0a.39.39,0,0,1-.09-.29c0-.09.06-.45.23-.33a.09.09,0,0,0,.11,0,.28.28,0,0,1,.11.32.69.69,0,0,1-.13.31A.27.27,0,0,1,19.73,46.84Z"/><path class="cls-5" d="M21.17,45.11a.5.5,0,0,0-.66.34,3.32,3.32,0,0,0,.07,1.5v0c0,.09,0,.18,0,.26a.62.62,0,0,1-.24.24c-.11.05,0,.21.09.16a.66.66,0,0,0,.42-.61,6.06,6.06,0,0,0,0-.74,1,1,0,0,1,0-.17h.07A.09.09,0,0,0,21,46a.05.05,0,0,0,0,0A.09.09,0,0,0,21,45.8l-.14,0c0-.21.06-.66.21-.53a.09.09,0,0,0,.15,0A.1.1,0,0,0,21.17,45.11Z"/><path class="cls-5" d="M22.89,46.25l-.05,0c0-.08-.07-.21-.08-.29s0-.26-.06-.39a1.62,1.62,0,0,0-.17-.58.05.05,0,0,0,0,0c0-.08-.16-.1-.18,0a4.76,4.76,0,0,1-.67,1.59.08.08,0,0,0,.05.13.26.26,0,0,0,.37-.22.09.09,0,0,0-.08-.11,2,2,0,0,0,.11-.2s0,0,.05,0L22.5,46a2.42,2.42,0,0,1,.1.36h0c0,.06,0,.14.08.13a.28.28,0,0,0,.18,0h0a.1.1,0,0,0,.07,0l0-.06C23,46.32,23,46.22,22.89,46.25Zm-.7-.31c.06-.15.12-.31.17-.46a1.66,1.66,0,0,0,.09.37Z"/><path class="cls-5" d="M24.81,45.82h0a1.56,1.56,0,0,0-.09-.44.43.43,0,0,0-.24-.27.46.46,0,0,0-.5.1l-.06,0h-.05a.35.35,0,0,0-.42.19h0a.3.3,0,0,0-.29,0c-.11.05-.07.23.05.18l.08,0s.07,0,.07.06a.68.68,0,0,1,0,.2.38.38,0,0,1,0,.1c0,.11,0,.2-.09.21s-.08.19,0,.19a.54.54,0,0,1,.18,0,.09.09,0,0,0,.11-.09l0-.3a2.45,2.45,0,0,0,0-.27.07.07,0,0,0,0-.06c0-.09.11-.27.23-.19l0,0h0s0,0,0,0a1.3,1.3,0,0,0,0,.27,2.72,2.72,0,0,1,0,.3h-.08a.09.09,0,0,0,.05.18l.11,0h0a.09.09,0,0,0,.09-.11.09.09,0,0,0,0-.09c0-.2-.05-.39-.08-.59,0,0,0,0,0,0s.32,0,.35.17a2.28,2.28,0,0,1,0,.26.12.12,0,0,0-.09,0,.09.09,0,0,0,.07.17h0a.1.1,0,0,0,.13,0l.18-.06C24.94,46,24.91,45.83,24.81,45.82Z"/><path class="cls-5" d="M25.7,45.61c-.06.14-.3,0-.35-.1s0,0,0,0h.05c.21-.12.57-.29.43-.59a.27.27,0,0,0-.41-.12c-.37,0-.5.54-.43.85a.52.52,0,0,0,.83.2.05.05,0,0,0,0,0,.13.13,0,0,0,0-.06C25.91,45.59,25.75,45.5,25.7,45.61Zm-.14-.47a1.1,1.1,0,0,1-.26.15.5.5,0,0,1,.05-.21.46.46,0,0,1,.09-.15h0a.06.06,0,0,0,.06,0C25.6,44.9,25.64,45.06,25.56,45.14Z"/><path class="cls-5" d="M26.81,44.63a.23.23,0,0,0-.29,0,.43.43,0,0,0-.17.13l-.05-.06a.11.11,0,0,0-.08,0l0,0a.08.08,0,0,0-.08.08s0,0,0,0a3.28,3.28,0,0,0,.14.76v0s0,0,0,0l0,.06a.1.1,0,0,0,.19,0c0-.2,0-.41,0-.61h0a.5.5,0,0,1,.26-.13.08.08,0,0,0,.06-.1A.1.1,0,0,0,26.81,44.63Z"/><path class="cls-5" d="M27.35,44.9a1.35,1.35,0,0,0,0-.28s0-.07,0-.1a.1.1,0,0,0-.17,0l-.07.06a.09.09,0,0,0,0,.17c0,.15,0,.3,0,.44s0,.3.1.34a.14.14,0,0,0,.14,0,.07.07,0,0,0,.07-.09C27.39,45.22,27.37,45.06,27.35,44.9Z"/><path class="cls-5" d="M27.23,43.86a.17.17,0,0,0-.18.21.11.11,0,0,0,.18,0h0A.14.14,0,0,0,27.23,43.86Z"/><path class="cls-5" d="M28.36,44.2a.1.1,0,0,0-.06-.05c-.43-.1-.66.35-.63.72s.42.59.67.28a.19.19,0,0,0,0-.07c0-.06,0-.12-.11-.1s-.22.08-.26-.07a.54.54,0,0,1,0-.22.48.48,0,0,1,.09-.26s.23-.14.23,0a.1.1,0,0,0,.19,0A.19.19,0,0,0,28.36,44.2Z"/><path class="cls-5" d="M29.63,44.81s-.08-.08-.07,0h0s0-.07,0-.11a2.15,2.15,0,0,0,0-.67.1.1,0,0,0-.17,0l0,0h0a.41.41,0,0,0-.5.09.52.52,0,0,0-.14.21.62.62,0,0,0-.14.41.35.35,0,0,0,.27.35H29L29,45l.12-.06a.83.83,0,0,0,.16-.2c0,.14,0,.25.15.27a.2.2,0,0,0,.21-.13A.1.1,0,0,0,29.63,44.81Zm-.44-.34c0,.08-.18.51-.35.29v0a.88.88,0,0,1,.05-.35.39.39,0,0,1,.38-.24l0,0h0A2.47,2.47,0,0,1,29.19,44.47Z"/><path class="cls-5" d="M26.76,49.47a2.78,2.78,0,0,1-.19-.64c0-.07-.08-.08-.13,0s0,0-.05,0a17.46,17.46,0,0,0-3.19.62.11.11,0,0,0-.06.07.08.08,0,0,0,0,.13,2,2,0,0,1,.15.54.09.09,0,0,0,.07.16h0s.09,0,.13,0a6.65,6.65,0,0,1,.78-.09.07.07,0,0,0,.09-.06.09.09,0,0,0,.06-.09v0a.07.07,0,0,0,0,0c0-.14.1-.28.23-.39a.08.08,0,0,0,.08,0,.82.82,0,0,1,.88.11.1.1,0,0,0,.11.12h0a.11.11,0,0,0,.08,0,5.88,5.88,0,0,0,.93-.18A.09.09,0,0,0,26.76,49.47Z"/><path class="cls-5" d="M26.94,50.39a.08.08,0,0,0,0-.07h0c0-.1-.05-.2-.07-.3s0-.13-.08-.12c-.35,0-.68.16-1,.19-.07,0-.09.06-.09.12h0c.07.72-.89.63-1.21.24a.09.09,0,0,0-.13,0s0,0-.05,0a5.71,5.71,0,0,0-.82.18.06.06,0,0,0-.06,0,.09.09,0,0,0,0,.11,1.91,1.91,0,0,1,.15.58v0c0,.08.08.17.16.11l0,0h0l3.13-.7h0a.17.17,0,0,0,.12-.14C27,50.54,26.94,50.47,26.94,50.39Z"/><path class="cls-5" d="M21.83,25.27a1.94,1.94,0,0,0-2.69-.79A2,2,0,0,0,18.39,27,1.84,1.84,0,0,0,21,28a2.18,2.18,0,0,0,1.07-1.13A2.56,2.56,0,0,0,21.83,25.27Zm-.9,2.53a1.61,1.61,0,0,1-1.85-.14.06.06,0,0,0,.08,0c.1-.18.21-.35.32-.53s-.09-.19-.16-.09l-.33.53a.13.13,0,0,0,0,.06,1.68,1.68,0,0,1-.24-.29.08.08,0,0,0,.13,0,2,2,0,0,1,.56-.43.09.09,0,0,0-.09-.16,2.28,2.28,0,0,0-.61.46.08.08,0,0,0,0,.1.57.57,0,0,1-.08-.13,2.6,2.6,0,0,1-.15-.42h0l.91,0c.11,0,.12-.19,0-.19l-.91,0-.05,0a1.67,1.67,0,0,1,.81-1.92s0,0,0-.05h0a.05.05,0,0,0,.05,0h0a1.43,1.43,0,0,1,1.18,0,.08.08,0,0,0-.09.09,1.38,1.38,0,0,1,0,.45.09.09,0,0,0,.18.05,1.67,1.67,0,0,0,.05-.5.1.1,0,0,0,0-.07l.09,0a2.09,2.09,0,0,1,.3.14.07.07,0,0,0-.08,0l-.17.39c0,.11.14.16.18.05a3.54,3.54,0,0,1,.16-.34.11.11,0,0,0,0-.1,1.46,1.46,0,0,1,.24.17.1.1,0,0,0-.13.06l0,.12c0,.11.14.16.18.05l0-.12a.06.06,0,0,0,0-.06,1.58,1.58,0,0,1,.35.58,3.48,3.48,0,0,1,.18.62.08.08,0,0,0-.08,0,1.09,1.09,0,0,0-.25,0c-.12,0-.07.2.05.18a.64.64,0,0,1,.2,0,.11.11,0,0,0,.09-.08,1.89,1.89,0,0,1,0,.41.09.09,0,0,0-.14,0v0a.1.1,0,0,0,.11.14A2.19,2.19,0,0,1,20.93,27.8Z"/><path class="cls-5" d="M18.9,37.94a3.46,3.46,0,0,0-1.29-1.37c-.35-.26-.72-.52-1.09-.77a.06.06,0,0,0,0-.06v0a.08.08,0,0,0,.05-.08,3.59,3.59,0,0,1,0-.46c0-.11.19-.6.28-.32a1.46,1.46,0,0,1,0,.55,4.21,4.21,0,0,1-.12.48.09.09,0,0,0,.18,0l0-.09a.08.08,0,0,0,.1-.06c.06-.15.11-.31.18-.46a.78.78,0,0,1,.11-.2c.05-.09.07-.13.09,0a7.18,7.18,0,0,1-.25,1c-.12,0-.07.2.05.18s.22-.49.26-.62.09-.36.13-.53,0-.18,0-.27a.09.09,0,0,0-.08-.05c-.21,0-.35.2-.45.42,0-.06,0-.12,0-.18s0-.47-.2-.52-.35.18-.42.46c0-.06,0-.12,0-.18s0-.41-.14-.48c-.31-.15-.48.67-.54.83,0-.26,0-.51,0-.76s0-.46-.13-.57a.18.18,0,0,0-.23,0,.88.88,0,0,0-.15-.81.08.08,0,0,0-.08,0s-.08,0-.1,0a1.49,1.49,0,0,0-.17.65,2.06,2.06,0,0,0-.12-.35c0-.1-.15-.34-.3-.3s-.11.38-.09.5a1.74,1.74,0,0,0,.38.77c-.28-.18-.72-.4-.76,0a.52.52,0,0,0,.25.44,4.17,4.17,0,0,0,.44.29c-.24,0-.45.08-.39.3a.33.33,0,0,0,.32.24h.16a.31.31,0,0,0-.07.32.36.36,0,0,0,.36.17l.1,0a.34.34,0,0,0-.12.3c0,.16.18.19.31.17l.2,0a.54.54,0,0,0-.16.39c0,.23.3.16.42.07a1.24,1.24,0,0,0,.22-.18A1.42,1.42,0,0,1,16,37c-.06.18-.15.52,0,.68s.32,0,.44-.14c0,.15.05.32.18.38s.41-.55.47-1a1.48,1.48,0,0,0,.26.3c.16.15.52.53.7.2a.09.09,0,0,0-.16-.1c-.07.13-.43-.25-.48-.3a1.08,1.08,0,0,1-.18-.24s-.07-.14-.1-.19h0a.09.09,0,0,0,0-.05s0,0,0,0a3.62,3.62,0,0,1,1.57,1.6.09.09,0,0,0,.14,0h0C19,38.07,19,38,18.9,37.94Zm-3.09-2.62v-.09c0,.06.12.09.15,0a1.74,1.74,0,0,0,.13-.36,1.53,1.53,0,0,1,.11-.27c.07-.11.05-.11.09,0a4.87,4.87,0,0,1,.07,1.08c-.18-.12-.37-.23-.55-.36Zm-1.14-1.68a1.77,1.77,0,0,1-.05-.32c0-.15,0,0,0,0,.07.22.13.45.2.67A1.52,1.52,0,0,1,14.67,33.64Zm.06,1.15a1.38,1.38,0,0,1-.4-.28c-.05-.06-.14-.21,0-.26s.18.07.22.09a3.64,3.64,0,0,1,.39.23.09.09,0,0,0,.13-.11.1.1,0,0,0,.1-.12l0-.1s0,0,0,0a3.63,3.63,0,0,1,.1-1c.17.28,0,.65-.05,1a.09.09,0,0,0,.07.11l-.12.31c0,.11.14.16.18,0l.17-.44s.07-.22.12-.2,0,.29,0,.33c0,.29,0,.57,0,.86a2.52,2.52,0,0,1-.4-.4c-.07-.1-.23,0-.16.09l.15.17h-.06Zm.48,1.08c-.06,0-.08,0-.08-.1s-.08-.12,0-.12a1.15,1.15,0,0,1,.32,0,.11.11,0,0,0,.09-.13.08.08,0,0,0,0-.13,1.22,1.22,0,0,0-.38,0,2.46,2.46,0,0,1-.37,0,.28.28,0,0,1-.13,0l0-.11a1.09,1.09,0,0,1,.26,0,3.54,3.54,0,0,1,.46,0,.07.07,0,0,0,.07,0,4.83,4.83,0,0,0,.68.51l-.17,0a2.28,2.28,0,0,0-.52.1A.32.32,0,0,1,15.21,35.87Zm.24.47s-.07,0,0-.08,0-.13.07-.16l.16-.09a1.13,1.13,0,0,1,.24-.08h.22a.1.1,0,0,0,.09-.1l.42.27-.05,0-.08.12h0a.14.14,0,0,0,0-.06h0c.12,0,.07-.2-.05-.18a1.11,1.11,0,0,0-.51.25l-.23,0A.78.78,0,0,1,15.45,36.34Zm.57.27-.22.19c-.08.05-.18.11-.11,0a.88.88,0,0,1,.26-.33l.37-.09Zm1-.21a.21.21,0,0,0,0,.17,4.31,4.31,0,0,1-.1.61c0,.08-.1.51-.2.39s0-.49,0-.58v0c.07-.21.11-.4.13-.46h0a.76.76,0,0,0,0-.11c.05-.12-.13-.16-.18,0s-.11.31-.16.48a1.55,1.55,0,0,1-.08.23,1.69,1.69,0,0,1-.13.31c-.2.22-.22,0-.19-.15a2.33,2.33,0,0,1,.55-1l0,0,.07,0,.25.17Z"/><path class="cls-5" d="M19.77,34l0,0a.09.09,0,0,0,.18,0l0,0C20,33.9,19.81,33.85,19.77,34Z"/><path class="cls-5" d="M19.78,35.68l-.07-.24a.09.09,0,0,0-.18.05l.07.24A.09.09,0,0,0,19.78,35.68Z"/><path class="cls-5" d="M25,35.17l-.09-.34a.09.09,0,0,0-.18.05l.09.34A.09.09,0,0,0,25,35.17Z"/><path class="cls-5" d="M28.13,30.69c-.18,0-.42.29-.53.4l-.08.07a.08.08,0,0,0-.05.05,3.25,3.25,0,0,0-.59.75,3.45,3.45,0,0,0-.24,2.22,0,0,0,0,1,0,0,.67.67,0,0,0-.42.19.09.09,0,0,0-.16,0l0,.08a.08.08,0,0,0-.11,0,3.38,3.38,0,0,1-.63.14.11.11,0,0,0-.09.08,4.75,4.75,0,0,0-.54-.45,1.23,1.23,0,0,0-1.1-.39h0c-.05-.28-.11-.55-.16-.82a.07.07,0,0,0,.09,0l.09-.07.12.38c0,.11.22.06.18-.05l-.14-.45.1-.08.38.42,0,0c-.2.12-.41.23-.62.33s0,.22.09.16a5.83,5.83,0,0,0,1.42-.91.1.1,0,0,0,0,0,3.05,3.05,0,0,0,1-1.8,6.47,6.47,0,0,0-.22-2,3.76,3.76,0,0,1,.61-2.58.1.1,0,0,0-.17-.09,7.47,7.47,0,0,0-.51,1.07.11.11,0,0,0-.11,0,9.31,9.31,0,0,1-1.61,1h0a5.33,5.33,0,0,1,1-.94c.46-.4.9-.82,1.34-1.25h.05a.09.09,0,0,0,.06-.16c.11,0,.11-.2,0-.18a3.46,3.46,0,0,0-2.11,1.42,6.33,6.33,0,0,0-1.24,1.88.1.1,0,0,0-.18,0c-.21.54-.44,1.08-.67,1.61l-.11-.08s0,0,0,0A2.55,2.55,0,0,1,23,29.19c.1-.06,0-.22-.1-.16l-.11.09a1.21,1.21,0,0,1,.15-1.06,1.35,1.35,0,0,1,.86-.59,2.34,2.34,0,0,0,1-.73,1.47,1.47,0,0,0,.39-1.09,1.36,1.36,0,0,0-.74-.77.09.09,0,0,0-.12,0,.1.1,0,0,0-.08.08s0,0,0,.08c.18.8-.37,1.1-.82,1.63a6,6,0,0,0-.36.52,3.09,3.09,0,0,1-.6.65c-.5.44-.8,1.11,0,1.38a.09.09,0,0,0,0-.18L22.3,29l-.15-.57a1.11,1.11,0,0,1,.29-.33c.13-.12.28-.23.41-.36s.41-.6.64-.88a1.06,1.06,0,0,0,.09.39.13.13,0,0,0,.07.06l-.3.11a1.48,1.48,0,0,0-.73,1.79s0,0,0,.05a2.88,2.88,0,0,0-.5,1.06,2.46,2.46,0,0,0-.19-.8c-.06-.19-.13-.47-.31-.57-.33-.17-.85.26-1,.49a.77.77,0,0,0-.16.36c-.3-.27-.59-.55-.9-.81a1.75,1.75,0,0,0,.71.09,1.81,1.81,0,0,0,1.15-.36,8,8,0,0,1,.67-.63,1.29,1.29,0,0,0,.4-.33.09.09,0,0,0-.07-.13,3.23,3.23,0,0,0,.46-1.29,4,4,0,0,0-.41-1.61,2.19,2.19,0,0,0-.85-.91,1.46,1.46,0,0,0-.54-.31c-.31-.08-.61,0-.92-.12h-.11a2,2,0,0,0-.41.08.06.06,0,0,0-.07,0,3.77,3.77,0,0,0-1.32.64,3.05,3.05,0,0,0-.83,1.28,4.71,4.71,0,0,0,0,.75c0,.25.06.46.06.71a1.16,1.16,0,0,0,.05.52c.11.26.32.45.42.72a.08.08,0,0,0,.1.06s0,0,0,.05a2,2,0,0,0-.81,0h0a.45.45,0,0,1-.27-.12c-.09-.1-.07-.21-.1-.33a.9.9,0,0,0-.22-.46,1.68,1.68,0,0,0-.56-.3c-.09,0-.28-.18-.39-.14s-.29.69-.27.91a.72.72,0,0,0,.53.64h0a.27.27,0,0,0,0,.31,2.73,2.73,0,0,0-2-.18h0c-.09-.05-.2.07-.12.14a1.83,1.83,0,0,0,.68.35c-.19.25.12.46.37.52l.21.05-.12.07c-.14.14-.07.31.06.42a1.12,1.12,0,0,0,.47.2v0a.08.08,0,0,0,0,.06,4.33,4.33,0,0,0,1.5,3,5.11,5.11,0,0,0,1.44.85,1.92,1.92,0,0,0,1.46.14c.1-.06,0-.22-.1-.17a1.08,1.08,0,0,1-.76,0,.1.1,0,0,0,.05-.06,3,3,0,0,1,.13-.52l.22,0,0,.31c0,.12.18.12.19,0l0-.32.11,0c.11,0,.07-.22,0-.18h0a1.2,1.2,0,0,1,.06-.33h0c.15.5.27,1,.38,1.52a.56.56,0,0,0-.52.06.08.08,0,0,0-.07,0,2.29,2.29,0,0,0-.69,1.24.1.1,0,0,0-.09,0,2.9,2.9,0,0,1-.85.31c-.12,0-.07.2.05.18a3.28,3.28,0,0,0,.86-.31.88.88,0,0,0,0,.23c0,.33.45.27.7.21a1.68,1.68,0,0,0,1-.74.07.07,0,0,0,0-.11l.16,0a.1.1,0,0,0,.14,0l.12,0v0a1.66,1.66,0,0,0,.12.31.08.08,0,0,0-.05,0c-.06.16-.78,1.65-.38,1.69.16,0,.28-.21.35-.36-.06.37-.09.85.23.67a.29.29,0,0,0,.07-.08.35.35,0,0,0,.11.34.22.22,0,0,0,.33-.11c0-.11-.14-.16-.18-.05s-.07,0-.07,0a.53.53,0,0,1,0-.18.11.11,0,0,0-.1-.12,3.79,3.79,0,0,0,.12-.53,2.64,2.64,0,0,0,.08-.49,4.58,4.58,0,0,0,.25,1.66c.12.27.34.35.41,0,0-.12-.15-.17-.17-.05-.07.27-.18-.35-.2-.45a3.71,3.71,0,0,1-.07-.67c0-.38,0-.76-.08-1.15a.07.07,0,0,0-.1-.06v0h0l.17,0a.12.12,0,0,0,0,.09,17.65,17.65,0,0,0,.39,1.75c.07.27.12.73.42.85a.1.1,0,0,0,.09,0c.22-.2.05-.82,0-1.08,0-.5-.11-1-.18-1.48.13.32.26.63.38,1,0,0,.43,1.08.09,1a.09.09,0,0,0-.05.18c.29.07.44-.17.4-.44A5.05,5.05,0,0,0,23,36.58a1.71,1.71,0,0,0,.11.14s.78,1,.45,1a.1.1,0,0,0,0,.19c.28,0,.29-.26.23-.47h0a.21.21,0,0,0,.19-.06.2.2,0,0,0,0-.21L23.89,37a.44.44,0,0,0,.37,0s0-.06,0-.09a.09.09,0,0,0,.07-.14,3,3,0,0,0-1.25-1h0a.23.23,0,0,0,0-.36c-.09-.08-.23,0-.13.13s-.33.26-.37.27l-.33.06c-.26,0-.53.06-.79.09a.1.1,0,0,0-.08.14l0,0c-.06.24-.14.48-.22.71,0,.07-.21.67-.29.67s.09-.44.11-.51c.11-.26.21-.52.31-.77a.1.1,0,0,0,.08-.14,2.13,2.13,0,0,1-.14-.35h0l2-.43a.09.09,0,0,0,.09,0l0,0c.33.67,1.45.41,1.95.1a.1.1,0,0,0,0-.07.07.07,0,0,0,.08,0l.4-.08a.09.09,0,0,0,.06,0,.34.34,0,0,0,.13.24l.09.06a1.61,1.61,0,0,0-.36.52c0,.07-.11.17-.17.28a.08.08,0,0,0-.12,0c-.16,0-.19-.09-.09-.17l.08-.09.15-.15c.11-.11.22-.22.34-.32s-.05-.22-.13-.14-.3.28-.44.43-.25.23-.26.39a.26.26,0,0,0,.4.25.29.29,0,0,0,0,.16.3.3,0,0,0,.39.09.61.61,0,0,0,.19-.17.33.33,0,0,0,.13.31c.18.1.29,0,.36-.25a.19.19,0,0,0,.16.16c.41.06.13-1,.09-1.13a.09.09,0,0,0-.15,0,.11.11,0,0,0,0-.06h0a.47.47,0,0,0,.22-.18,1.07,1.07,0,0,0,.07-1,.08.08,0,0,0,.11,0,5.29,5.29,0,0,0,1.23-2.09C28.35,32,28.56,30.72,28.13,30.69Zm-4.24-4.07a3.16,3.16,0,0,1,.68-.21c.11,0,.07-.2-.05-.18a3.45,3.45,0,0,0-.57.15,1.4,1.4,0,0,0,.43-1.3c.37.21.69.55.54,1a1.85,1.85,0,0,1-.42.68,2,2,0,0,1-.74.49.06.06,0,0,0,0-.06,1.38,1.38,0,0,1-.08-.27C23.66,26.75,23.75,26.68,23.89,26.62ZM23,35.84a.08.08,0,0,0,0,.07,2.87,2.87,0,0,1,1.16.93h0c-.26.14-.59-.3-.75-.46a4.62,4.62,0,0,1-.46-.52Zm-.21.09s0,0,0,0a7,7,0,0,0,.84.88l.06.06a.09.09,0,0,0,0,.1,2.06,2.06,0,0,0,.12.26v0s0,0,0,0l-.1-.08h0c-.23-.43-.63-.75-.85-1.19a.07.07,0,0,0-.07,0Zm-.41.09v0c.07.45.13.89.18,1.34,0,.22,0,.43.05.64s.11.57-.09.25a4.12,4.12,0,0,1-.26-1q-.14-.59-.24-1.17a.05.05,0,0,0,0,0Zm-1.12,1c.1-.26.18-.52.26-.78a4.77,4.77,0,0,1-.12,1.13c0,.08-.11.47-.17.42s.07-.54.12-.66A.08.08,0,0,0,21.24,37Zm2.6-4.55-.07-.08c0-.05-.1-.22-.17-.17a.08.08,0,0,0,0-.12c.07,0,.11.16.16.22l.11.12Zm.44-3h0l.45-.07a1,1,0,0,0,0,.17h-.47a.08.08,0,0,0-.08.06c0-.15-.11-.29-.17-.44,0,0,0,0,0,0a.09.09,0,0,0,.09-.06l.59-.2a2.43,2.43,0,0,0,0,.27l-.5.07s0,0,0,0A.09.09,0,0,0,24.28,29.48Zm.22,1.41a.08.08,0,0,0,.07,0,.67.67,0,0,0,.21.28,1.38,1.38,0,0,1-.08.27,1.24,1.24,0,0,0-.45-.21,1.42,1.42,0,0,0,.1-.29,1.88,1.88,0,0,0,0-.33,1.75,1.75,0,0,0,.43.17c0,.06,0,.11,0,.16a.71.71,0,0,1-.08-.15c0-.07-.11-.05-.15,0a.08.08,0,0,0-.08-.05A.09.09,0,0,0,24.5,30.89Zm0-.47a.08.08,0,0,0-.08,0,1.33,1.33,0,0,0,0-.28l.18,0,.28,0v.37A2.17,2.17,0,0,1,24.48,30.42Zm.18-.43-.17,0c-.06,0-.09,0-.11,0a.11.11,0,0,0-.07-.06l0-.12h.52c0,.08,0,.16,0,.25Zm0,1.58-.09.16-.11-.09c-.09-.08-.15-.19-.24-.26h0A1.12,1.12,0,0,1,24.64,31.57Zm-.2.3s0,.05-.06.07l0,0L24,31.76c-.1-.07-.19.09-.09.16l.28.2a1.71,1.71,0,0,1-.2.18,1.6,1.6,0,0,0-.31-.37,2.1,2.1,0,0,0,.37-.42C24.21,31.62,24.31,31.76,24.44,31.87Zm-.09,1.24a.08.08,0,0,0,0-.09L24,32.61l.05,0c.15.13.33.24.47.38a.11.11,0,0,0,.07,0Zm.29-.18a.08.08,0,0,0,0-.11,5.32,5.32,0,0,0-.46-.37l.22-.21.57.44Zm.45-.38-.59-.44.1-.12a5.32,5.32,0,0,0,.67.35h0Zm.3-.36h0s0,0,0,0a3.92,3.92,0,0,1-.64-.34h0l.1-.16.13.08a3.14,3.14,0,0,0,.57.24Zm.22-.35,0,0a2.86,2.86,0,0,1-.69-.31,1.18,1.18,0,0,0,.07-.2.09.09,0,0,1,0,0c.24.13.53.2.78.32C25.7,31.67,25.65,31.75,25.61,31.84Zm.22-2.58c.05.25.11.5.14.75a2.77,2.77,0,0,1-.16,1.41,7.48,7.48,0,0,1-.82-.35l0-.27a3.15,3.15,0,0,1,.73.25.09.09,0,0,0,.1-.16,3.5,3.5,0,0,0-.83-.27c0-.13,0-.27,0-.4l.84.1c.12,0,.11-.17,0-.19-.27,0-.54-.05-.8-.09H25c0-.09,0-.18,0-.28h.84c.12,0,.12-.19,0-.18H25a1.28,1.28,0,0,1,0-.19c.27,0,.54-.07.82-.09A.05.05,0,0,0,25.83,29.26Zm0-1.74a3.59,3.59,0,0,0-.08.35,4,4,0,0,0,.07,1.24h0c-.28,0-.56.06-.83.09a1.4,1.4,0,0,1,0-.29l.56-.18a.09.09,0,1,0-.05-.17l-.5.15a2.89,2.89,0,0,1,0-.29l.6-.2c.11,0,.06-.22-.05-.18l-1.1.37A9.59,9.59,0,0,0,25.81,27.52Zm-1,1,0,.27c-.23.07-.46.15-.68.24a.09.09,0,0,0-.06.06l0,0h0s0,0,0,0a1,1,0,0,1,.06-.45c0,.07,0,.14.11.12Zm-.31-1a3.94,3.94,0,0,1,1.79-1.42c-.59.56-1.19,1.1-1.79,1.65a1.57,1.57,0,0,0-.7,1.41c0,.05,0,.07.07.07a2.48,2.48,0,0,1,.31,1.66A1.77,1.77,0,0,1,23.26,32a.09.09,0,0,0,.07.17s0,0,0,0l.17.52-.12.09,0,0-.09-.48a.1.1,0,0,0-.05-.06l-.07-.45a2.65,2.65,0,0,0,0-.38.08.08,0,0,0,.07,0,.91.91,0,0,0,.78-.76,1.39,1.39,0,0,0-.67-1.19h0A5.35,5.35,0,0,1,24.49,27.49Zm-1.39,2,0,.12a.09.09,0,0,0,.09.11,1.43,1.43,0,0,1,.6.77.71.71,0,0,1-.63.86.11.11,0,0,0-.07.06h0a.28.28,0,0,0-.29-.12h0l-.26-.34Q22.82,30.18,23.1,29.46Zm-1,1.31a1.78,1.78,0,0,0,.07.39c0,.11.22.06.18-.05s0-.13,0-.19a2.38,2.38,0,0,1,.3.36c-.4.06-.79.14-1.19.23l-.16-.78h.13a3,3,0,0,0,.2.6c.05.11.21,0,.16-.09a3.16,3.16,0,0,1-.17-.52l.13,0c.05.18.1.36.16.54a.09.09,0,0,0,.18,0c-.05-.16-.1-.32-.14-.48A.46.46,0,0,1,22.06,30.77Zm-2.24-1.32a.08.08,0,0,0-.08.09l0,.8c0,.12.2.12.19,0l0-.79.12.11s-.07,0-.06.08a3.07,3.07,0,0,0,.07.6c0,.12.2.07.18-.05a2.22,2.22,0,0,1-.06-.51l.14.13v0l0,0h0a.1.1,0,0,0-.12.12l.11.5c0,.12.2.07.18-.05l-.11-.5s0,0,0,0h.05a1.58,1.58,0,0,0,.24.72.09.09,0,0,0,.17,0c0-.24-.25-.5-.19-.72a.09.09,0,0,0,0-.09.66.66,0,0,1,.17-.37c.2-.2.61-.55.85-.24a2.33,2.33,0,0,1,.27.87c0,.29,0,.32-.28.37a3.93,3.93,0,0,1-.59.06.09.09,0,0,0-.05.17h0l.17.83-.18,0,0-.29A.71.71,0,0,1,21,31a.1.1,0,0,0-.08-.14.06.06,0,0,0-.06,0,.09.09,0,0,0-.09-.1.09.09,0,0,0-.08.06.6.6,0,0,0-.21.14c-.22-.18-.27-.35-.6-.33a.61.61,0,0,1-.49-.08c-.08-.07-.15-.18-.23-.25a1.48,1.48,0,0,0-.47-.31l.24-.17a.09.09,0,0,0,0-.15.7.7,0,0,0-.2-.18c.05,0,.1,0,.09-.09l-.09-.78a.08.08,0,0,0,0-.05l.12.07a.14.14,0,0,0,0,.07l.14.89c0,.09.11.08.15,0,0,.22.05.43.08.64s.2.06.18-.05a8,8,0,0,1-.1-1.29C19.43,29.1,19.63,29.27,19.82,29.45Zm.86,2-.09-.33,0,0a.22.22,0,0,1,.13-.1l.05,0a1.25,1.25,0,0,0,0,.43.07.07,0,0,0,0,.06l0,.14a0,0,0,0,0,0,0l-.1,0v0s0,0-.06-.05A.08.08,0,0,0,20.68,31.48Zm-.12.21-.33.07a2.26,2.26,0,0,1,.19-.42l0,0,.06.23a.08.08,0,0,0,.08.06A.09.09,0,0,0,20.56,31.69Zm-1.85-1.18a.11.11,0,0,0,0-.07c-.09-.13-.18-.24-.28-.36s0,0,0,0a2,2,0,0,1,.67.44,1.05,1.05,0,0,0,.36.3.94.94,0,0,0,.29,0c.42,0,.35.09.58.27a2.71,2.71,0,0,0-.28.64.06.06,0,0,0,0,0l-.33.05a.11.11,0,0,0-.09.11l0,0a.18.18,0,0,0,0,.1c-.38,0-.85,0-1-.37a1.39,1.39,0,0,1,.18-1.1A.1.1,0,0,0,18.71,30.51Zm.34-1.29L19,28.76l.11.08a.08.08,0,0,0-.05.08C19,29,19,29.12,19.05,29.22Zm-1-1.35c-.14-.27-.38-.5-.4-.81s0-.86,0-1.29a1.28,1.28,0,0,1,.16-.71,4.52,4.52,0,0,1,.39-.58,2.92,2.92,0,0,1,1.4-.84h.06a1.58,1.58,0,0,1,.42-.09h0c.32.15.62.05.95.13a2.34,2.34,0,0,1,1.18.94A4.05,4.05,0,0,1,22.67,26a2.69,2.69,0,0,1-.43,1.57.11.11,0,0,0,.05.13,3.15,3.15,0,0,1-.41.31,4.59,4.59,0,0,0-.39.37,1.7,1.7,0,0,1-1.21.5,1.94,1.94,0,0,1-1.21-.38c-.29-.19-.79-.3-1-.6A.1.1,0,0,0,18,27.87Zm-.07.48a1.61,1.61,0,0,0,.13.78c0,.11.22.06.17-.05a1.7,1.7,0,0,1-.12-.7l.11,0s0,0,0,0a6.51,6.51,0,0,0,.13.77.09.09,0,0,0,.18,0c0-.23-.09-.46-.12-.7l.15.07a.08.08,0,0,0-.08.09l.1.78v0a4.25,4.25,0,0,0-1-.41.08.08,0,0,0,0-.07,6,6,0,0,1-.15-.61A2,2,0,0,1,18,28.35Zm-2-.24c-.05,0-.07,0-.06.08a.54.54,0,0,1-.33-.57,1.69,1.69,0,0,1,0-.32h0c.29.07.49.33.78.4a.09.09,0,0,0,.05-.18c-.29-.07-.48-.32-.77-.4.21-.15.76.23.85.41s.05.48.18.66l.07.06v0a1.85,1.85,0,0,0,.15.57c.05.11.21,0,.16-.1a1.52,1.52,0,0,1-.12-.43l.21,0h0a4,4,0,0,0,.14.57h0c-.11,0-.16.14-.05.18a3.74,3.74,0,0,1,1.4.61l-.28.2a.11.11,0,0,0,0,.12A4,4,0,0,0,16.68,29l-.19-.06a.07.07,0,0,0,0-.1l-.08-.28a1.35,1.35,0,0,1-.08-.24,0,0,0,0,0,0,0h.06v0l.15.54a.09.09,0,0,0,.18,0c-.05-.17-.1-.34-.14-.52.11,0,.16-.16,0-.18A1.64,1.64,0,0,0,16,28.11Zm.13.3a.11.11,0,0,0,0-.14h.06a.59.59,0,0,0,0,.19l.07.25h0c-.06,0-.23-.1-.18-.2A.1.1,0,0,0,16.14,28.41Zm-1.9.25a4.36,4.36,0,0,1,2.39.47,3.73,3.73,0,0,1,1.9,1.41h0a1.45,1.45,0,0,0-.16,1.29c.22.45.74.47,1.18.42l.06.18.09.29c-.53.25-1.39-.39-1.57-.84a9.28,9.28,0,0,1-.36-1.56.1.1,0,0,0,0-.15,3.16,3.16,0,0,0-1.49-.88l-1.11-.35A4.06,4.06,0,0,1,14.24,28.66Zm3.69,3.48a.9.9,0,0,0-.27.2l-.09-.12.22-.2c.08-.08-.05-.21-.13-.13l-.19.17L17.4,32l.44-.23,0,0a1.65,1.65,0,0,0,.34.64.09.09,0,0,0-.05,0s0,0,0,0a1.09,1.09,0,0,1-.21.26l0,0-.12-.14A1.05,1.05,0,0,1,18,32.3C18.13,32.25,18,32.09,17.93,32.14Zm-.38-.86-.4.13a.84.84,0,0,1,0-.17l.46-.1a.09.09,0,0,0,0-.18l-.46.1,0-.14a3.25,3.25,0,0,0,.44,0c.12,0,.12-.19,0-.18a3.7,3.7,0,0,1-.47,0,.59.59,0,0,1,0-.14s0,0,0-.05l.72.19a5.82,5.82,0,0,0,.17.83.1.1,0,0,0-.09,0l-.42.23a2,2,0,0,1-.1-.21l.38-.13A.09.09,0,0,0,17.55,31.28Zm.75,1.21h0l0,0,.14.11a0,0,0,0,0,0,0l-.21.31-.15-.12A1.6,1.6,0,0,0,18.3,32.49Zm.29.2s0,0,0,0l.13.08,0,0c-.08.12-.14.24-.21.36l-.14-.1Zm.28.16a.06.06,0,0,0,0,0l.11,0,0,0c-.08.13-.14.27-.21.4l-.1-.06A3.47,3.47,0,0,1,18.87,32.85Zm-4.05-3.77h0c.27.07.55.12.8.19a4.56,4.56,0,0,1,1.95.95v0h0c-.42-.21-.83-.41-1.27-.58a5.31,5.31,0,0,0-.68-.2C15.54,29.44,14.6,29.28,14.82,29.08Zm.66.83c0-.21.12-.09.28-.06a.09.09,0,0,0,.11-.12,1.58,1.58,0,0,1,.31.09,12.4,12.4,0,0,1,1.29.58.11.11,0,0,0,.13,0l0,.17a10.62,10.62,0,0,0-1.24-.29c-.22,0-.43-.08-.65-.14S15.51,30.08,15.48,29.91Zm.33.79c0-.1,0-.21,0-.31s0,0,0,0a.06.06,0,0,0,0,0l.4.07.64.13a.07.07,0,0,0,0,.07c0,.05,0,.09,0,.14-.28,0-.56,0-.83-.06a.08.08,0,0,0-.07,0,.08.08,0,0,0-.08.05Zm.1.5c0-.13-.06-.25-.08-.37l.05,0c.31,0,.63.06.95.06a1.16,1.16,0,0,0,0,.18h-.06a1.68,1.68,0,0,1-.77,0A.11.11,0,0,0,15.91,31.2Zm.43,1a3.91,3.91,0,0,1-.39-.92h0a1.14,1.14,0,0,0,.66,0l.3-.05a1.46,1.46,0,0,0,.07.19,2.56,2.56,0,0,1-.73.09c-.12,0-.12.18,0,.18a3,3,0,0,0,.79-.09,2.56,2.56,0,0,0,.11.24c-.25.12-.52.23-.78.33Zm.1.15a8,8,0,0,0,.8-.34c0,.05.05.1.08.14a4.28,4.28,0,0,1-.7.47C16.56,32.56,16.49,32.47,16.44,32.38Zm.3.41a5.1,5.1,0,0,0,.69-.45l.1.13-.07.06c-.18.16-.36.31-.55.45A1.54,1.54,0,0,1,16.74,32.79Zm.57.56a2,2,0,0,1-.27-.23l.43-.35.17-.16a1.29,1.29,0,0,0,.16.17l-.1.09a4.11,4.11,0,0,0-.38.45A0,0,0,0,0,17.31,33.35Zm.39.29-.27-.19.05,0a3.64,3.64,0,0,1,.46-.5l.17.14a6.41,6.41,0,0,1-.39.52A.14.14,0,0,0,17.7,33.64Zm.77.41-.27-.13a3.07,3.07,0,0,1-.36-.2h0l.4-.53.16.11c-.07.14-.13.28-.19.42s.13.16.18,0a3,3,0,0,1,.17-.37l.11.06A3.89,3.89,0,0,0,18.47,34.05Zm.53.12a.07.07,0,0,0,0,.08,3.56,3.56,0,0,1-.39-.13,5.71,5.71,0,0,1,.21-.58l.28.11A3,3,0,0,0,19,34.17Zm.19-.69-.26-.11c.06-.13.13-.26.2-.39a.08.08,0,0,0,0-.08,1.67,1.67,0,0,0,.31.05s0,0,0,0A3.06,3.06,0,0,0,19.19,33.48Zm.47-.42a.91.91,0,0,0-.1.4v.08a.55.55,0,0,1-.18,0,3.49,3.49,0,0,1,.2-.44.1.1,0,0,0-.07-.14.58.58,0,0,0,.26,0l0,.15A.08.08,0,0,0,19.66,33.06Zm.38.12-.17-.56c0-.09-.19-.47-.15-.52a.08.08,0,0,0,0-.08c.65-.09,1.27-.3,1.91-.41a3.27,3.27,0,0,1,1-.16c.33.05.27.23.31.47l.11.67a.11.11,0,0,0-.1,0c-.69.12-1.43.2-2.13.37a.09.09,0,0,0-.13,0,4.91,4.91,0,0,0-.68.22Zm-.19,3.21a1.75,1.75,0,0,1-.44.15.11.11,0,0,0,0-.11.21.21,0,0,1,0-.11.09.09,0,0,0-.18,0,.33.33,0,0,0,.07.16c-.1,0-.16-.11-.16-.26a.88.88,0,0,1,0-.21.09.09,0,0,0,.15-.07.5.5,0,0,0,0-.13.05.05,0,0,0,0,0,1.36,1.36,0,0,1,.09-.23l.23.72a.09.09,0,0,0,.18,0l-.29-.91a1.57,1.57,0,0,1,.24-.32c.07.3.15.6.23.9a.09.09,0,0,0,.18,0c-.09-.33-.17-.65-.25-1a.3.3,0,0,1,.15-.05.07.07,0,0,0,0,.1l.25,1a.09.09,0,0,0,.18-.05l-.25-1a.07.07,0,0,0,0-.05l.09,0a.09.09,0,0,0,.09,0c.06.3.12.6.17.9a.07.07,0,0,0,.07.06A1.56,1.56,0,0,1,19.85,36.39Zm.69-.74a20,20,0,0,0-.5-2.27h0l.15-.06.48,2.3Zm.34-.07-.49-2.32.34-.11a16.9,16.9,0,0,0,.54,2.34Zm.58-.13h0a15.6,15.6,0,0,1-.55-2.34l.2,0h0a21.1,21.1,0,0,0,.46,2.37Zm.3-.06a18.46,18.46,0,0,1-.46-2.33s0,0,0,0h0l.23,0A15.61,15.61,0,0,0,22,35.33Zm.44-.1A18.77,18.77,0,0,1,21.69,33l.17,0h0c.34.73.38,1.54.65,2.29Zm.49-.11c-.27-.75-.32-1.55-.64-2.29l.32,0,.46,2.3Zm.58-.11h-.06l-.2,0-.46-2.29.19,0c.17.73.35,1.47.54,2.21a.05.05,0,0,0,0,0Zm.17-.17c-.17-.72-.35-1.43-.52-2.15H23s.07,0,.07-.07l0,0c.07.35.14.7.2,1.06S23.6,34.59,23.44,34.9Zm0,.3a.55.55,0,0,0,.17-.1,1.75,1.75,0,0,0,.12.32.12.12,0,0,0,0,0A.6.6,0,0,1,23.47,35.2Zm1.78,0a.08.08,0,0,0-.1,0,1.93,1.93,0,0,1-1.33.26.09.09,0,0,0,.1-.14,1.54,1.54,0,0,1-.11-.3.08.08,0,0,0-.1-.06.9.9,0,0,0,0-.38c0-.2-.07-.4-.11-.6l.22,0a.09.09,0,0,0,.05.18c-.12,0,.06.5.09.58l.17.64a.09.09,0,0,0,.18,0l-.21-.78A1.68,1.68,0,0,0,23.9,34l0,0a1,1,0,0,1,.31.08l.1.06a.09.09,0,0,0-.09.12l.23.94a.09.09,0,0,0,.18-.05l-.23-.94.22.19s0,0,.06.05a.07.07,0,0,0,0,.1v0a.09.09,0,0,0,.18,0l.28.25a.1.1,0,0,0-.09.11V35c0,.11.2.06.18,0a.26.26,0,0,1,.06.18.08.08,0,0,0,0,.07A.08.08,0,0,0,25.25,35.22Zm.58-.11a.09.09,0,0,0-.11,0l-.31.06v0a.47.47,0,0,0-.13-.34,3.82,3.82,0,0,0,.67-.15A1.33,1.33,0,0,0,25.83,35.11Zm.84.82,0,.2c0,.06.08.36,0,.4a2.8,2.8,0,0,0-.06-.45v0A.37.37,0,0,1,26.67,35.93Zm.58-4.18c0,.22.07.45.12.67l-.15-.51a.1.1,0,0,0,0-.06Zm-.19.27.27.95c-.09-.23-.17-.47-.25-.71a.08.08,0,0,0-.12,0A1.14,1.14,0,0,1,27.06,32Zm-.93,4.11a.1.1,0,0,0-.05.06c0,.07-.12.27-.2.31s-.24-.07-.15-.17a1.09,1.09,0,0,1,.08-.15c.09-.16.21-.47.38-.55a.08.08,0,0,0,0-.05h.05C26.23,35.77,26.18,36,26.13,36.13Zm.28.3c0,.08,0,.15-.1.2s-.07,0-.06-.1a4,4,0,0,1,.2-.84c0,.07,0,.15,0,.22a.28.28,0,0,1,0,.09A2,2,0,0,1,26.41,36.43Zm.35-1.24a.33.33,0,0,1-.41.22c-.16,0-.33-.1-.33-.31a1.11,1.11,0,0,1,.09-.37s.05,0,.07,0,.52-.53.65-.14A1,1,0,0,1,26.76,35.19Zm1.43-3.61a2.78,2.78,0,0,1-.21,1,6,6,0,0,1-1.05,1.63.09.09,0,0,0,0,.11.44.44,0,0,0-.11-.09.14.14,0,0,0,0-.07c0-.32-.08-.65-.09-1a4.89,4.89,0,0,0,.2.48h0c-.06,0-.18,0-.14.13l0,.08c0,.11.21,0,.16-.09l0-.09v0c.06.06.19,0,.14-.12a3.69,3.69,0,0,1-.23-.58.09.09,0,0,0-.12-.06,2.51,2.51,0,0,1,0-.27s0,0,0,0c.12.3.23.59.33.89,0,.11.22.07.18-.05-.1-.3-.21-.59-.33-.88,0-.1-.18-.08-.18,0s0,0,0-.08a2,2,0,0,1,.1-.26c.09.3.2.59.32.89,0,.11.22.06.17-.05a.19.19,0,0,0,0-.07c.06.06.19,0,.16-.08l-.05-.17a.09.09,0,0,0,.14-.1,11.71,11.71,0,0,1-.23-1.18h0l.09-.1c0,.33.09.66.15,1,0,.12.2.07.18,0-.07-.36-.12-.73-.16-1.1l.09-.09.07.53c0,.12.2.07.18-.05l-.08-.54a.07.07,0,0,0,0-.06C28.2,30.84,28.2,31.29,28.19,31.58Z"/><path class="cls-5" d="M17.89,29a5.15,5.15,0,0,0-.23-.54c-.05-.11-.21,0-.16.09a4.4,4.4,0,0,1,.21.5C17.75,29.11,17.93,29.07,17.89,29Z"/><path class="cls-5" d="M19.47,29.19a.09.09,0,0,0-.18,0,11.11,11.11,0,0,0,.07,1.16c0,.12.2.12.19,0A11.11,11.11,0,0,1,19.47,29.19Z"/><path class="cls-5" d="M19.68,29.4a.1.1,0,0,0-.19,0q0,.5.06,1c0,.12.2.12.19,0Q19.7,29.89,19.68,29.4Z"/><path class="cls-5" d="M19.64,26.88a1.06,1.06,0,0,0-.12.34,1.5,1.5,0,0,1-.05.37c0,.11.11.2.16.09a.94.94,0,0,0,.06-.29A1,1,0,0,1,19.8,27C19.85,26.87,19.69,26.77,19.64,26.88Z"/><path class="cls-5" d="M20.87,27.29a2.18,2.18,0,0,1-.57-.45c.06-.1-.1-.19-.16-.09h0c0-.09-.15-.13-.19,0h0a.1.1,0,0,0,0,.12l0,0a.09.09,0,0,0-.12.08l.06.92a.1.1,0,0,0,.19,0L20,27a0,0,0,0,0,0,0h.05v0a7.89,7.89,0,0,0,.37.91c0,.1.21,0,.16-.1s-.2-.45-.29-.68l.11.08c.14.12.32.33.52.29A.09.09,0,0,0,20.87,27.29Z"/><path class="cls-5" d="M21.67,26.72l-.31-.09c.05-.06,0-.18-.09-.14l-.17.06-.2-.07c-.11,0-.16.14,0,.18l.1,0a.08.08,0,0,0,.11.07l0,0,.52.16C21.74,26.92,21.79,26.74,21.67,26.72Z"/><path class="cls-5" d="M19.74,26.28a.09.09,0,0,0,0-.07.11.11,0,0,0-.09,0s-.07,0-.08,0a.11.11,0,0,0,0,.08l0,0-.84-.3c-.11,0-.16.14-.05.18l.84.3a.11.11,0,0,0,.08,0,.13.13,0,0,0,.12.09.12.12,0,0,0,.14-.08A.17.17,0,0,0,19.74,26.28Z"/><path class="cls-5" d="M20.54,25.7c.05-.12,0-.27-.12-.3h-.06a.49.49,0,0,0-.21,0l-.27.05a.07.07,0,0,0-.06.07.09.09,0,0,0-.11,0h0l-.44.11a.1.1,0,0,0-.06.05.08.08,0,0,0-.11,0h0a.1.1,0,0,0-.12,0,.15.15,0,0,0,.12.24h.06a.14.14,0,0,0,.09,0,.16.16,0,0,0,.09-.15v0h0l.34-.08v0a.59.59,0,0,0,0,.13.09.09,0,0,0,.18,0s0,0,0,0h0c.12,0,.12-.19,0-.18h0v0a.08.08,0,0,0,.09,0l.2,0,.14,0a1,1,0,0,0,0,.1.11.11,0,0,0,.06.11h0a.09.09,0,0,0,.17-.07Z"/><path class="cls-5" d="M21.12,25.23a.25.25,0,0,0-.18.11.76.76,0,0,0-.26,0c-.12,0-.07.2.05.18h.14a.27.27,0,0,0,0,.12.1.1,0,0,0,.13,0,.16.16,0,0,0,.06-.08h.07a.24.24,0,0,0,.13-.21A.16.16,0,0,0,21.12,25.23Z"/><path class="cls-5" d="M20.26,26a.07.07,0,0,0-.05,0,.21.21,0,0,0-.27.13.25.25,0,0,0,.44.21C20.44,26.21,20.36,26.1,20.26,26Z"/><path class="cls-5" d="M21.11,26c0-.16-.26-.23-.4-.23a.08.08,0,0,0-.09.1.19.19,0,0,0-.09.14.26.26,0,0,0,.31.25C21,26.28,21.16,26.19,21.11,26Zm-.32.07s-.05,0-.06,0,0,0,0,0a.11.11,0,0,0,.12,0h0s0,0,.06,0h0S20.84,26.12,20.79,26.11Z"/><path class="cls-5" d="M19.44,25.2,19,24.88c-.1-.07-.19.09-.1.16l.48.32C19.45,25.42,19.54,25.26,19.44,25.2Z"/><path class="cls-5" d="M19.18,25.41a1.85,1.85,0,0,0-.37-.31.09.09,0,0,0-.1.16,1.34,1.34,0,0,1,.34.29C19.12,25.64,19.26,25.51,19.18,25.41Z"/><path class="cls-5" d="M18.86,25.67l-.23-.11c-.11,0-.16.14-.05.18l.19.09C18.88,25.89,19,25.72,18.86,25.67Z"/><path class="cls-5" d="M20.29,24.67c.05-.1-.11-.2-.16-.09a.71.71,0,0,1-.42.38h0a.08.08,0,0,0,0,0,1.64,1.64,0,0,1-.21-.25s0,0,0,0l0,0c-.08-.08-.2,0-.14.13h0a1.76,1.76,0,0,0,.24.3.08.08,0,0,0,.11,0,.08.08,0,0,0,.11.07.31.31,0,0,0,.13-.06h0a.1.1,0,0,0,0,.07.91.91,0,0,1,.07.14.09.09,0,0,0,.16-.1.25.25,0,0,0,0-.07.14.14,0,0,1,0-.07A.09.09,0,0,0,20,25,.75.75,0,0,0,20.29,24.67Z"/><path class="cls-5" d="M21.44,25.46h0a.1.1,0,0,0,.19,0h0A.1.1,0,0,0,21.44,25.46Z"/><path class="cls-5" d="M21.7,25.75a.09.09,0,0,0,0,.18A.09.09,0,0,0,21.7,25.75Z"/><path class="cls-5" d="M21.56,27.16c-.28-.13-.55-.27-.82-.42a.05.05,0,0,0,0,0,.14.14,0,0,0,0-.09.13.13,0,0,0-.08-.07.09.09,0,0,0-.06-.16.1.1,0,0,0-.07.16l-.06,0a.09.09,0,0,0-.11.05c-.07,0-.12.13,0,.17.36.21.73.4,1.11.58C21.57,27.38,21.66,27.21,21.56,27.16Z"/><path class="cls-5" d="M25.43,49.91a.42.42,0,0,0-.57-.21.38.38,0,0,0-.28.51l0,0a.36.36,0,0,0,.45.32.42.42,0,0,0,.14-.06.25.25,0,0,0,.23-.23.13.13,0,0,0,0-.06A.47.47,0,0,0,25.43,49.91Z"/></g><g id="Layer_6" data-name="Layer 6"><path class="cls-6" d="M44.52,52.32c-.74-2.8-1.44-5.62-2.11-8.44a16.49,16.49,0,0,1-1-3.82L40.11,35l0-.07c-.2-.76-.36-1.52-.51-2.29l-.24-.93h0c-.32-1.45-.62-2.9-.91-4.36a29,29,0,0,1-1.25-6.1Q35.52,13.8,33.8,6.35a.18.18,0,0,0,0-.09l-.71.11c-.37.06-.74.14-1.11.19-10.15,2.13-20.25,4.5-30.36,6.8a.43.43,0,0,0-.29.21.39.39,0,0,0-.21.41c0,.14,0,.27,0,.41a.68.68,0,0,1,.13.31c.23,1.52.53,3,.85,4.51A64.14,64.14,0,0,1,4.92,32.05q1.29,5.84,2.61,11.66l-.06.07a2.27,2.27,0,0,1,.06.59c0,.05,0,.09,0,.15.09.53.14,1.07.19,1.6q1.32,6.54,3.05,13a4.27,4.27,0,0,0,.3,1.28l.23,0c.51-.09,1-.2,1.53-.31a20.16,20.16,0,0,1,2.47-.54c1.2-.28,2.39-.54,3.59-.79,2.54-.53,5.09-1,7.64-1.4l.69-.11c1.76-.42,3.53-.82,5.3-1.22A49.28,49.28,0,0,1,43,53.14l.44-.1.08,0a.13.13,0,0,0,0,.06l.95-.31v0A.47.47,0,0,0,44.52,52.32Zm-1.38-.25Q35.69,53.74,28.39,56c-1.14.17-2.29.34-3.42.53-2.56.43-5.11.91-7.65,1.46-1.53.33-4,.46-5.46,1.39a.5.5,0,0,1,0-.12.6.6,0,0,0,0-.23Q9.94,52.1,8.55,45l0,0a7,7,0,0,1-.22-2.23q-2.11-9.3-4.13-18.63c-.07-.4-.13-.8-.22-1.2-.14-.64-.3-1.27-.46-1.9L3.18,19.4a.5.5,0,0,0-.12-.23,30,30,0,0,1-1-4.91C12.4,11.92,22.68,9.5,33,7.35q1.82,7.92,3.64,15.83s0,0,0,0c.09.52.2,1,.29,1.54a5.66,5.66,0,0,0,.18.93c.44,2.32.93,4.62,1.45,6.92a.5.5,0,0,0,0,.3L41,42.79c.57,3.14,1.75,6.14,2.3,9.28Z"/></g></svg>