<svg xmlns="http://www.w3.org/2000/svg" viewBox="0 0 200 300"><defs><style>.cls-1{fill:#ddbfa6;}.cls-2{fill:#bba18e;}.cls-3{fill:#8ad6f2;}.cls-4{fill:#8c4f21;}.cls-5{fill:#723c18;}.cls-6{fill:#262262;}.cls-7{fill:#1c194b;}.cls-8{fill:#5cc9e5;}.cls-9{fill:#131438;}.cls-10{fill:#fff;}.cls-11{fill:#006838;}.cls-12{fill:#231f20;}.cls-13{fill:#04512a;}.cls-14{fill:#dcdbdb;}.cls-15{fill:#a9333b;}.cls-16{fill:#8d2831;}.cls-17{fill:#e3939e;}</style></defs><title>Artboard 1</title><g id="Layer_8" data-name="Layer 8"><path class="cls-1" d="M113,194.22c-.29-3.18-5.29-3.21-5,0,0,.07,0,.14,0,.22a2.45,2.45,0,0,0-.89,1,2.61,2.61,0,0,0-4.29.14,18,18,0,0,0-.84,1.9s0-.09-.08-.14a2.51,2.51,0,0,0-4.43.32,11.12,11.12,0,0,0-1-1.49c-1.09-1.42-3.29-1.78-4.31,0-.17.3-.3.6-.44.9a7,7,0,0,0-1.38-1.18,2.24,2.24,0,0,0-2.82.29c0-.38-.11-.76-.17-1.14-.49-3.17-5.31-1.82-4.82,1.33l0,.21a1.76,1.76,0,0,1,1.82,1.87c0,1.47,0,3,0,4.45a1.37,1.37,0,0,1,.2.52c.27,1.91.25,3.8.34,5.72a1.8,1.8,0,0,1,0,.41,1.91,1.91,0,0,1,.41.79,35,35,0,0,1,1,7,2,2,0,0,1,.38.7,7.85,7.85,0,0,1,.33,2.16c0,.1,0,.21,0,.31a2,2,0,0,1,.35,1c.1,1.74.35,3.47.54,5.21,0,.06,0,.12,0,.18,1.5,8.92.46,17.12-.17,26.23a2.47,2.47,0,0,0,.09.84c-.23,6.26,1.76,12.73,3.25,18.79a46.68,46.68,0,0,0,1,5.88c.68,2.74,1.58,4.65,4.61,5,2.52.3,5.4.76,6.66-2a17.27,17.27,0,0,0,1-7.07,2.68,2.68,0,0,0,.38-.6c1.92-4.35,2.64-8.81,3.54-13.44-.24-3.75-.73-7.48-.83-11.24a1.72,1.72,0,0,1,.65-1.45,97.71,97.71,0,0,1-.86-9.86,72.3,72.3,0,0,1,2.18-10c.63-9.88,3.26-19.76,2.39-29.59a1.58,1.58,0,0,1,1.33-1.81Q113.1,195.41,113,194.22Z"/><path class="cls-2" d="M111.39,196.05l-.46.24c-4.38-.23-9.26,1.29-13.64,1.56q-.78,0-1.53,0h-.62c-3.91-.11-7.64-1-11.58-1.08,0,0,0,0-.06,0a1.09,1.09,0,0,0-.93.25,1.72,1.72,0,0,1,1.61,1.37c.9,3.51.69,7,.84,10.57a2,2,0,0,1,.35.82,1.69,1.69,0,0,1,.16.48,173.61,173.61,0,0,1,2.14,19.18c.06.32.09.77.15,1.08s0,.7,0,.93c.08,1.07,0,2.19,0,3.25,0,.65.54,1.1.18,1.41-.35,4.1-.68,8.22-.74,12.32-.07,5.4,1,10.63,2.28,15.85.47,2.71,1,5.4,1.76,8.06.44,1.77.92,3.53,1.47,5.28a.92.92,0,0,0,.26.43c.3.87.6,1.73.92,2.6a1,1,0,0,0,1.93-.54,247.5,247.5,0,0,1-4.2-32.65c.08-2.14.11-4.27.1-6.41.19-1,.4-2.05.66-3.08a.91.91,0,0,0-.15-.82c.08-.49.16-1.06.24-1.66a31.83,31.83,0,0,0-2-15.3c-2.33-6-2.86-13.86-1.39-16.3,3.86-6.44,14-3,22.84-5.59a.82.82,0,0,0,.8-.88l0,0C113.72,196.42,112.23,195,111.39,196.05Z"/><path class="cls-2" d="M101.85,236.61c-.63,1.89-1.13,4.82-2.72,6.35a6,6,0,0,1-4.62.63,1,1,0,0,0-.54,1.93,8.15,8.15,0,0,0,3.8.09.79.79,0,0,0,.74,0,5.65,5.65,0,0,0,1.55-.91l.1-.06c.33.74,3.12-5,3.62-7.53A1,1,0,0,0,101.85,236.61Z"/><path class="cls-3" d="M46.17,158.36a1.53,1.53,0,0,0-1.84-1.05l-.13,0a1.45,1.45,0,0,0-.34-.53,1.5,1.5,0,0,0-2.12,0,16.7,16.7,0,0,0-2.08,3.24,1.5,1.5,0,0,0,2.47,1.69l.2-.08.4-.21c.3-.17.58-.36.86-.55a3.68,3.68,0,0,1,1.53-.7A1.49,1.49,0,0,0,46.17,158.36Z"/><path class="cls-1" d="M34.92,148.74c0-.2,0-.43.08-.6l.18-1.1.06-.36v0a1.61,1.61,0,0,0,.74-1.75,1.55,1.55,0,0,0-1.85-1A1.88,1.88,0,0,0,32.66,145a1.75,1.75,0,0,0-.79.94c-.78,2-.31,5.3,2.18,5.76a1.51,1.51,0,0,0,1.15-2.75A2,2,0,0,0,34.92,148.74Z"/><path class="cls-3" d="M104.6,284.58c-3.51.86-7,1.48-10.47,0-.3-.13-.63.19-.63.48v1.72a.46.46,0,0,0,.56.47.49.49,0,0,0,.11.14c1.85,1.44,4.15,1.42,6.4,1.13,2.72-.34,4-.66,4.65-3.36A.5.5,0,0,0,104.6,284.58Z"/><path class="cls-3" d="M115.78,294.88c-.94-1.46-3.26-2-4.68-2.89a32.33,32.33,0,0,1-2.94-2.13,16.42,16.42,0,0,0-2.61-2.54,1.89,1.89,0,0,0-1.06-.35.45.45,0,0,0-.27-.06,1.32,1.32,0,0,0-.94-.3,11.14,11.14,0,0,0-3.17.67c-.49.18-1.28.56-1,1.21l0,0a.48.48,0,0,0,.28.73c3,.74,5.86,2.9,8.35,4.7a11.21,11.21,0,0,0,3.13,2.07,2.09,2.09,0,0,0,1.79.92,4.55,4.55,0,0,0,3.13-1.55A.49.49,0,0,0,115.78,294.88Z"/><path class="cls-1" d="M156.37,158.84a.76.76,0,0,1,.43-.43c.62-2.45-.81-4.54-2.62-6.34-2.28-2.28-4.74-4.85-8.08-5.35a7.86,7.86,0,0,0-1.45-.06c-.08-.12-1,.64-1.09.54-3.91-3.57-8.27-6.19-12.65-9.17a55.31,55.31,0,0,0-5.1-2.73l-8.09-5.89c.14-2,.27-4,.39-6,.84-6-1-10.69-.7-16.76.09-2.28-.67-4.52-2-3.17a2.61,2.61,0,0,0-2.39,1.45,2.73,2.73,0,0,0-2.81,2.39c-.06.41-.11.82-.16,1.23a2.52,2.52,0,0,0-2.15.35,2.67,2.67,0,0,0-3-.36,2.42,2.42,0,0,0-3.28,2.29,96.19,96.19,0,0,0,2.53,20.84,2.12,2.12,0,0,0,.13.38c.5,5.81,1.72,11.66,7.49,13.95a155.31,155.31,0,0,0,14.81,4.7c3.84,1.09,5.85,2,9.9,1.94,0,.58,1.29,1.45,1.19,2-.15.86,2.08,3.12,4.71,5.13a1.52,1.52,0,0,1,1.13.8l0,0h0a.59.59,0,0,1,.39-.12,4.67,4.67,0,0,0,1.12,0,.76.76,0,0,1,.92.52,7.39,7.39,0,0,1,.09,1.24l.81.43a.75.75,0,0,1,.6-.11,3.5,3.5,0,0,0,2.13-.31c.53-.27,1.34.19,1.1.85,0,.09-.13.28,0,.35l0,0a7.69,7.69,0,0,0,4.39-2.18C155.46,160.45,156,159.68,156.37,158.84Z"/><path class="cls-4" d="M97.78,24.89c-2.26-6.36-4.38-12.54-9.62-16.55-.28-.22-1.08-1.2-1.31-1.11-3.08-2.79-6.56-3.69-10.77-5-7.39-2.33-15.87.93-22.53,4.37C47.11,9.92,43.3,14.92,39.81,19.93c-2.29,5.77-2.67,11.41-4.19,17-1.11,6-4.23,11.6-3.61,17.31a2,2,0,0,0,.09.63A31.73,31.73,0,0,1,24,70c-2.71,2.68-6.55,4.57-9.52.38A10.86,10.86,0,0,1,13,64.67a18.42,18.42,0,0,1,3.66-11.11c.7-1-.64-.8-1.43,0-.1,0-4.54,2.45-5.59,6.11-.62.28-.87,3.25-1,4.11a20,20,0,0,0,.48,5.35c0,3.15,1.59,6,2.67,8.59a9.24,9.24,0,0,0,.91,1.58c.64.92,1.9,1.94,2.38,3,3.32,7,17.5,8.67,20,8.37a1.11,1.11,0,0,0,.89-1.47,1.85,1.85,0,0,0,.87-.47,2,2,0,0,0,1-1.76,2.26,2.26,0,0,0,.94-1.1,6.08,6.08,0,0,0,.26-1,1.74,1.74,0,0,0,1.32-.57A2,2,0,0,0,43,82.36c0-.26,0-.53,0-.79a1.58,1.58,0,0,0,.58-.78,1.86,1.86,0,0,0,1,.18c.13.29.25.59.39.88a2,2,0,0,0,3.65-.48,10.88,10.88,0,0,0,.14-1.4,1.84,1.84,0,0,0,.48-.52c0,.13.08.26.13.39.7,1.84,3.81,1.88,3.93-.2l.24.62c1,2.32,4.49,1.51,3.86-1.06a3,3,0,0,0-.08-.32,2.37,2.37,0,0,0,.83-.57,1.58,1.58,0,0,0,1.67.41,1.93,1.93,0,0,0,1.63.76,2,2,0,0,0,2.71-1.23C65,76,66.9,74.16,66.64,71.6c-.23-2.18-2.06-3.75-3.4-5.3A73,73,0,0,1,55,54.68q-1.47-4.16-2.76-8.37a28.8,28.8,0,0,1,6.48-12c2.51-2.74,5.63-4.8,8.31-7.36a19.91,19.91,0,0,0,5-7.34c.35,1,.73,2,1,2.72,2.39,5.47,7.28,8.8,12.09,12a47.27,47.27,0,0,1,8.22,6.25,20.3,20.3,0,0,1,3.53,5.14c-.12,1-.26,2-.41,3A1.85,1.85,0,0,0,94.33,50c-1.18,3.9-2.2,7.84-3.1,11.8a110.17,110.17,0,0,0-9.7,12.91c-1,1.63,1.09,3.9,2.73,2.74l.16-.12A2,2,0,0,0,86.9,80a1.64,1.64,0,0,0,1.74-.11,20.23,20.23,0,0,0,3-2.85c0,2.57,3.74,2.44,4,0,.08-.78.18-1.57.27-2.35a.9.9,0,0,0,.63-.15c1.61-1,1.61-2.12,2.08-4,.9-3.63,1.55-7.34,2.27-11,0-.23.09-.47.13-.7l.1-.28a1.59,1.59,0,0,0,.1-.82c.08-.43.17-.87.24-1.3a8.26,8.26,0,0,0,.65.83C102.11,47.56,98,25.25,97.78,24.89Z"/><path class="cls-5" d="M99,55.17c-.41,1.28-2.82,7.41-3.34,8.64a54.83,54.83,0,0,0-1.92,14.34c0,2-2.35,2.43-3.46,1.33a2.21,2.21,0,0,1-3.13-.42,11.24,11.24,0,0,1-1.66-3.25,2,2,0,0,1-.6-.39,6.33,6.33,0,0,1-1.45-7c.36-1.21,2.87-1.92,3.62-3,2.17-4.65,4.46-9.17,5.51-14.26a1.8,1.8,0,0,1,2.71-1.21,55.44,55.44,0,0,0,1.59-11.35A2.05,2.05,0,0,1,100.05,37a55.77,55.77,0,0,1-.61,12,.4.4,0,0,1,0,.15h0a.88.88,0,0,0,0-.16,51.83,51.83,0,0,0,1.38-10.41,1.79,1.79,0,0,0-.77-1.58c-.11-2.48-1.11-4.72-1.41-7.18-.19-1.19-.78-2.33-1-3.47C97.55,25.71,99.2,55.29,99,55.17Z"/><path class="cls-5" d="M65.48,71.71s0,0,0,0h0c0-.18,0-.36-.06-.54a1.62,1.62,0,0,0-1.75-1.43,27.1,27.1,0,0,0-3.36-4.31l-.11-.1C54.87,55.56,50.53,45.37,52,33.93a2.06,2.06,0,0,0-.06-.84c.08-.7.17-1.41.28-2.11.41-2.52-3.44-3.6-3.85-1.07A55.46,55.46,0,0,0,49,52c.14,1.59.27,3.18.41,4.77,0,.6,0,1.21,0,1.81a44.77,44.77,0,0,1-8.84,20.15C37,81.11,33.18,85.4,30.21,89.14c-1.59,2,4.33,2.56,5.93.55,1.47-1.85.55-2.38,2.15-4a1.78,1.78,0,0,0,1.9-.51c1.13-1.19,2.18-2.41,3.18-3.67a25.79,25.79,0,0,1,3-1.72,2.08,2.08,0,0,0,3.25-.94c0-.12.07-.23.11-.34a22,22,0,0,1,8.56-.72c.09.17.17.34.27.5a1.91,1.91,0,0,0,1.8.94c.73,1.37,3,.8,3.61-.55a1.68,1.68,0,0,0,1.27-1.38A16,16,0,0,0,65.48,71.71Z"/><path class="cls-5" d="M99.44,49a55.77,55.77,0,0,0,.61-12,1.79,1.79,0,0,1,.77,1.58A51.83,51.83,0,0,1,99.44,49Z"/><path class="cls-1" d="M78.28,196c-.29-3.18-5.29-3.21-5,0,0,.07,0,.14,0,.21a2.54,2.54,0,0,0-.89,1,2.61,2.61,0,0,0-4.29.14,18,18,0,0,0-.84,1.9s0-.1-.07-.14a2.52,2.52,0,0,0-4.44.32,11.42,11.42,0,0,0-1-1.49c-1.1-1.42-3.3-1.78-4.32,0-.17.3-.3.6-.44.9a7,7,0,0,0-1.38-1.18,2.23,2.23,0,0,0-2.81.29l-.18-1.14c-.49-3.17-5.31-1.82-4.82,1.33l0,.21a1.75,1.75,0,0,1,1.82,1.86c0,1.48,0,3,0,4.46a1.31,1.31,0,0,1,.19.51,54.89,54.89,0,0,1,.34,5.73,1.67,1.67,0,0,1,0,.4,1.92,1.92,0,0,1,.41.79,35.19,35.19,0,0,1,1,7,2.09,2.09,0,0,1,.38.69,7.61,7.61,0,0,1,.33,2.17l0,.31a1.87,1.87,0,0,1,.34,1c.1,1.74.35,3.47.54,5.21a.91.91,0,0,1,0,.17c1.5,8.93.46,17.13-.17,26.24a2.49,2.49,0,0,0,.09.84c-.23,6.26,1.76,12.73,3.25,18.79a46.68,46.68,0,0,0,1,5.88c.68,2.74,1.59,4.65,4.61,5,2.52.29,5.4.76,6.66-2a17.13,17.13,0,0,0,1-7.07,2.68,2.68,0,0,0,.38-.6A44.92,44.92,0,0,0,73.6,262.4c-.24-3.75-.73-7.48-.82-11.24a1.73,1.73,0,0,1,.64-1.46c-.37-3.29-.82-6.6-.86-9.86a74,74,0,0,1,2.18-10c.63-9.88,3.26-19.76,2.39-29.59a1.59,1.59,0,0,1,1.33-1.81Q78.38,197.22,78.28,196Z"/><path class="cls-2" d="M76.68,197.86l-.45.24c-4.38-.23-9.27,1.29-13.65,1.56-.51,0-1,0-1.53,0h-.62c-3.91-.11-7.64-1-11.57-1.09l-.07,0a1.09,1.09,0,0,0-.93.25,1.71,1.71,0,0,1,1.61,1.37c.9,3.5.69,7,.84,10.56a1.93,1.93,0,0,1,.35.82,1.81,1.81,0,0,1,.16.48,182.22,182.22,0,0,1,2.71,19.6c.06.31.13.63.19.94l-.06.69c.08,1.07.14,2.14.2,3.2a1.68,1.68,0,0,1-.57,1.43c-.34,4.1-.68,8.22-.73,12.32-.08,5.4,1,10.63,2.28,15.85.46,2.71,1,5.4,1.76,8.06.43,1.77.91,3.53,1.46,5.28a1.08,1.08,0,0,0,.26.43c.3.86.6,1.73.93,2.59a1,1,0,0,0,1.92-.53A247.5,247.5,0,0,1,57,249.3c.08-2.14.12-4.28.1-6.41.19-1,.41-2.06.67-3.08a1,1,0,0,0-.16-.82c.08-.49.16-1.06.24-1.67a31.69,31.69,0,0,0-2-15.29c-2.33-6-2.86-13.86-1.39-16.3,3.86-6.44,14-3,22.84-5.59a.82.82,0,0,0,.8-.88l0,0C79,198.23,77.53,196.77,76.68,197.86Z"/><path class="cls-1" d="M91,60.25c4.5-8.44,7.36-17,7.63-26.53a2.4,2.4,0,0,0-.09-.73,19.55,19.55,0,0,0-6-14.11,18.42,18.42,0,0,0-1.58-2,22,22,0,0,0-19-7c-11,1.29-19.37,9.88-20.43,19.94a2.19,2.19,0,0,0-1.42,2.86c.3.93-.17,2,.13,3-.12,8.76,2.74,14.28,6.74,22a33.53,33.53,0,0,0,8.65,10.64c0,2,.34,6.66-.28,8.21a22.71,22.71,0,0,1-1.77,3.22c-.87,1.52-.09,3.36,1.86,3.18A12.4,12.4,0,0,0,69,82c0,.12,0,.24,0,.36a2.53,2.53,0,0,0,3.76,2.16,3.4,3.4,0,0,0,1-.68,3.35,3.35,0,0,0,.59.39A2.54,2.54,0,0,0,78,82.73c.07-.3.13-.59.2-.89a3.07,3.07,0,0,0,1.59.08,2.37,2.37,0,0,0,2.26.6l3.3-.77c2-.46,2.26-2.83,1.1-4.18C85,75.82,83.71,71.22,83,69.09A25.6,25.6,0,0,0,91,60.25Z"/><path class="cls-6" d="M110.92,197.12l.13-.05c2.36-.67,4.77-1.21,7.12-1.92a15.82,15.82,0,0,0,.64-7.56,130.92,130.92,0,0,0-6.38-26.32c-1.24-3.51-6.75-2.14-5.88,1.29a2.77,2.77,0,0,0-.79-.14L75.9,160.83c-4.64-.25-9.29-.52-13.93-.75-3.27-.16-6.27-.32-9.17.92a3.82,3.82,0,0,0-.51-.11c-3.12-.42-4.94,1-5.63,4-1.22,5.41-1,11.58-1,17.1-.06,5.09-.84,20.63,8.43,16.7a2.57,2.57,0,0,0,.55-.12,42.59,42.59,0,0,0,5.82.7A71,71,0,0,0,75.22,199a3.25,3.25,0,0,0,.47-.1,2.83,2.83,0,0,0,3-1.43c.74-1.72,1.45-3.44,2.17-5.15A20.24,20.24,0,0,0,81.9,196a3.15,3.15,0,0,0,2.85,3.61,52.51,52.51,0,0,0,12.46-.4c4.55-.7,8.88-2.28,13.53-2.19A1.18,1.18,0,0,0,110.92,197.12Z"/><path class="cls-7" d="M114.06,164c-1.87-3.21-5.64-1.45-8.46-.59-6.93,2.1-13.66,3.46-20.95,3.08-12.84-.67-25.23-4.44-38.15-2.49a1.23,1.23,0,0,0-1,1.68,1.69,1.69,0,0,0-.26,1.44.8.8,0,0,0,0,.15,6.71,6.71,0,0,0,0,3,1.49,1.49,0,0,0,2.23,1.26,1.32,1.32,0,0,0,.46-.1c5.13-2.09,10.59-1.57,16-1.22,5.83.39,11.65,1,17.49,1.05,1.71,0,3.41,0,5.11-.12a59.42,59.42,0,0,0,9.32-.71,25.59,25.59,0,0,0,3.28-.78c4.49-.79,9-1.79,13.42-2.85a1.34,1.34,0,0,0,.94-.73A1.42,1.42,0,0,0,114.06,164Z"/><path class="cls-3" d="M94.75,76.31a9,9,0,0,0-3.1.75c-9.69,4.84-17.86,6.26-28,3.52a19.44,19.44,0,0,0-2.92-1.84c-3.54-1.72-5.35-1.23-8.79-1.27a20.1,20.1,0,0,0-11,4.81c-6.3,6.18-7.38,18.81-10,26.83-.37,1.17-.66.57,0,1.21a2.79,2.79,0,0,0,3.46,1.76c.36-.09.81.32,1.18.25,5.65,1.79,11.28,3.77,16.93,5.55.66.21,1.17-.51,1.68-.68.83,14.31-4.62,29.8-13.54,42.3-1.33,1.87.45,4.57,2.59,4.51q7.36-.19,14.72-.52c7.29,1.31,14.56,3.26,22,3.46a94,94,0,0,0,33.16-5.2,3,3,0,0,0,2-3c-1.58-1.87-2.12-4.27-2.94-6.52-.44-1.2-1.23-2.24-1.67-3.44a12.28,12.28,0,0,1-.48-3.53,1.25,1.25,0,0,1,.37-1c-3.1-9.65-6.88-22.49-8-30.92a3.29,3.29,0,0,0,2.22-.31c3.24-1.86,6.65-3.53,9.76-5.6a24.6,24.6,0,0,0,6.58-5.71C118.94,98.77,115.61,75.57,94.75,76.31Z"/><path class="cls-8" d="M58.36,95.45c-.08-.62-1-.65-1,0a.91.91,0,0,0,0,.17.43.43,0,0,0-.3.45c.09,3.93.07,7.81-.19,11.68-.7,3.08-1.16,7.38-3.49,9.49-.48.43.23,1.13.71.7a6.55,6.55,0,0,0,1.13-1.38l-.16.41a.47.47,0,0,0-.26.21,5.64,5.64,0,0,0-.34.62.56.56,0,0,0-.21.38c0,1.1,0,2.19,0,3.28,0,.1,0,.2,0,.3h0a.68.68,0,0,0,0,.14.4.4,0,0,0,.08.29c0,.46,0,.93.07,1.39-.09,1-.21,2-.34,3-.45,2.49-1,5-1.57,7.43-.12.46-.25.91-.38,1.37a59.57,59.57,0,0,0-1.81,6,.48.48,0,0,0,0,.17c-.43,1-.85,2-1.26,3a16,16,0,0,0-2,3.81c-1.86,2.95-3.55,6-5.12,9.1l0,.1-1.52,2.28,0,.06c-.14.21-.28.41-.41.63a.51.51,0,0,0,.47.75.44.44,0,0,0,.73.07A63.51,63.51,0,0,0,49.81,149c1.26-2.26,2.43-4.56,3.6-6.87A20.4,20.4,0,0,0,55,138.41s0,0,0,0v-.07a7.53,7.53,0,0,0,.23-1.59l1.28-8.68a.54.54,0,0,0,.15-.3q.27-2.1.51-4.2c.61-4.16,1.57-13.09,1.28-13.08A66.2,66.2,0,0,0,58.36,95.45Z"/><path class="cls-8" d="M59.3,144.8a106.68,106.68,0,0,1-7.44,9.38c-2.29,2.56-5.59,7.17-9,8a.49.49,0,0,0-.05.93h0c0,1.15,1.15,1.34,2.18,1.39a.49.49,0,0,0,.81.49l.43-.45a41.37,41.37,0,0,0,8.82-.57.51.51,0,0,0,.37-.48,56,56,0,0,1,4.81-18.15A.5.5,0,0,0,59.3,144.8Z"/><path class="cls-8" d="M67.64,164.6l-.07-.19a.51.51,0,0,0-.37-.34,2,2,0,0,0,.27-.52,1.78,1.78,0,0,0-.8-2.15v0c-.17-1.21-.31-2.43-.43-3.65q-.28-3.09-.33-6.18,0-1.64,0-3.27c.41-3.49.76-7,1-10.48,0-.56-.9-.7-1-.14A84.83,84.83,0,0,0,65,148q-.4,3.51-.95,7a.46.46,0,0,0-.05.21v.15c-.44,2.84-.93,5.67-1.5,8.5a.52.52,0,0,0,.87.47.45.45,0,0,0,.36.17l.25,0a.73.73,0,0,0,.21.06l.82.12a1.88,1.88,0,0,0,.24.14c0,.08,0,.16,0,.24a.52.52,0,0,0,.91.14.27.27,0,0,0,.2,0,.49.49,0,0,0,.2,0,1.55,1.55,0,0,0,.23.21.52.52,0,0,0,.61-.08l.11-.13A.5.5,0,0,0,67.64,164.6Z"/><path class="cls-8" d="M75.7,164a68.21,68.21,0,0,1-.41-7.29c0-.54-.88-.7-1-.13l-.93,5a20.42,20.42,0,0,1-1.1,4.86c-.26.58.6,1.09.87.51,0-.07,0-.15.08-.22a.53.53,0,0,0,.31.13l.21,0c.26.33.67.46,1.32.21C76.34,166.6,75.82,165,75.7,164Z"/><path class="cls-8" d="M111.35,161.09c-3.47-2-5.62-5.77-7.64-9.1a81.39,81.39,0,0,1-5.47-10.88.51.51,0,0,0-.55-.32.48.48,0,0,0-.68.45,87.72,87.72,0,0,0,3.88,23.23.5.5,0,0,0,1,0l.1,0a19.85,19.85,0,0,0,9.4-2.53A.5.5,0,0,0,111.35,161.09Z"/><path class="cls-8" d="M103.65,112.91a1,1,0,0,0,.26,0c2.23.07,4.72-2.36,6.31-3.68a.5.5,0,0,0-.1-.78c-5.85-3.6-9.08-9.75-12.1-15.7-.29-.57-1.15-.07-.86.51l.55,1.08a.47.47,0,0,0-.53.48,82.81,82.81,0,0,0,3.6,18.19l.51,2.58a.4.4,0,0,0,.08.2c.22,1,.43,2,.66,3a.44.44,0,0,0,.31.33L103,122c.14.63,1.08.36,1-.27-.17-1-.37-1.92-.55-2.88a.58.58,0,0,0,.09-.4c-.29-2.06-.6-4.11-1-6.14a6.92,6.92,0,0,0,.27.65A.51.51,0,0,0,103.65,112.91Z"/><path class="cls-8" d="M57.79,77.79a3.18,3.18,0,0,0-2.88-.68c-4.44-.42-9.34,1.67-12.64,4.28a19.07,19.07,0,0,0-6.41,9.53.39.39,0,0,0-.49.35,121.8,121.8,0,0,1-2.67,13.54c-.51,1.19-1.05,2.38-1.66,3.54a.51.51,0,0,0,.47.74.52.52,0,0,0,.2.24A33.74,33.74,0,0,0,34.77,111a.5.5,0,0,0,.72-.33,7.25,7.25,0,0,0,1,.43c-.06.45,1,.3,1,.3C35.12,75.87,58.46,78.05,57.79,77.79Z"/><path class="cls-8" d="M50,98.6a90,90,0,0,1-4.34,15.26.42.42,0,0,0,.31.58.5.5,0,0,0,.14.15c2.6,1.84,3-.56,3.39-2.79.66-4.3.56-8.67,1.47-12.94C51.07,98.24,50.12,98,50,98.6Z"/><path class="cls-7" d="M57,166.77a1.38,1.38,0,0,0-2.12-.82,2.75,2.75,0,0,0-.26.22,5.09,5.09,0,0,0-4.35,2.23c-.06-.29-.1-.58-.18-.87a1.48,1.48,0,0,0-1-1c-.07-1.65-2.64-2.27-2.91-.47a45.73,45.73,0,0,0-.42,4.8,44.81,44.81,0,0,0-.5,7.43,80.41,80.41,0,0,0,1.43,17.65A1.27,1.27,0,0,0,48.19,197a1.78,1.78,0,0,0,1.78.1,1.53,1.53,0,0,0,1.17-.06,1.67,1.67,0,0,0,2-1.44,92.44,92.44,0,0,1,5.56-27C59.14,167.34,58,166.59,57,166.77Z"/><path class="cls-9" d="M77.68,195c-9.33.08-18.92-.42-28.23.43a1.41,1.41,0,0,0-2.05-.66,2.56,2.56,0,0,0-1.33,1.68,1.36,1.36,0,0,0,.61,1.6c2.2,2.89,6.52,2.06,9.84,2.09,6.52.05,13-.15,19.55-.54a1.49,1.49,0,0,0,1.42-1.36,8.1,8.1,0,0,0,.94-.45A1.51,1.51,0,0,0,77.68,195Z"/><path class="cls-7" d="M90.86,194.64c-1.54-2.06-3.06-4.15-4.41-6.33-.88-1.68-1.67-3.42-2.44-5.18a.39.39,0,0,0-.31-.25,24.83,24.83,0,0,1-1.08-3.46.44.44,0,0,0-.31-.33.48.48,0,0,0-.74.41c0,.16,0,.33,0,.49a.49.49,0,0,0-.62.47c0,1.21.08,2.41.18,3.61-.09.8-.21,1.61-.28,2.43a35,35,0,0,0,.09,6.06.46.46,0,0,0,.18.35,8.84,8.84,0,0,0,.69,2.05.52.52,0,0,0,.85,0l.31.53a.5.5,0,0,0,.46.24h0a.51.51,0,0,0,.93-.19c.08.27.16.54.25.81a.51.51,0,0,0,.81.23.49.49,0,0,0,.79-.5c-.16-.54-.3-1.07-.45-1.6L86,195a.54.54,0,0,0,.23.48h0a.48.48,0,0,0,.78.09,5.51,5.51,0,0,1,.57-.06l.31.11a1.09,1.09,0,0,0,.27.19.51.51,0,0,0,.45,0,.43.43,0,0,0,.39-.33h0a1.77,1.77,0,0,1,.94-.37l.15.17C90.46,195.65,91.21,195.1,90.86,194.64Z"/><path class="cls-9" d="M119.11,191a1.53,1.53,0,0,0-1.85-1,196.6,196.6,0,0,1-20,4l-13.16,1.48a1.49,1.49,0,0,0-2.64.46c-1.61,6.22,9.9,4.65,12.72,4.33,4.62-.52,9.19-2,13.76-2.9,3-.57,7.56-.59,9.74-3a1.45,1.45,0,0,0,.35-.75,1.48,1.48,0,0,0,.43-.29A2.18,2.18,0,0,0,119.11,191Z"/><path class="cls-9" d="M115.88,176.12a5.45,5.45,0,0,0-.63-.7.53.53,0,0,0-.47-.59l-1.43-.37a.55.55,0,0,0-.22,0,20.68,20.68,0,0,1-4.82-2c-3.06-1.88-5.87-4.23-8.75-6.37a.47.47,0,0,0-.72.32.47.47,0,0,0-.2.67,19.65,19.65,0,0,0,6.4,6.33c2.75,1.74,6,3.55,9.33,3.28a.57.57,0,0,0,.23-.08,1.8,1.8,0,0,0,.85.27A.51.51,0,0,0,115.88,176.12ZM101.76,169a57.14,57.14,0,0,0,6.33,4.48A19.66,19.66,0,0,1,101.76,169Z"/><path class="cls-9" d="M62.25,165.5c0-.29-.37-.38-.61-.35a4,4,0,0,0-.6.15.51.51,0,0,0-.69-.21c-2.07,1.22-3,3.72-4.8,5.27-.63.54-1.44,1.17-2.33,1.79a.5.5,0,0,0-.64.43c-.53.35-1.09.7-1.66,1-1,.38-1.9.73-2.84,1.13a5.27,5.27,0,0,1-2.11.11c-.63-.11-.9.85-.27,1l.28,0a.61.61,0,0,0,0,.4h-.06c-.63.13-.37,1.1.26,1a15.69,15.69,0,0,0,1.57-.41,9.83,9.83,0,0,0,2.64-.69,30.33,30.33,0,0,0,6-2.8C59.2,171.56,62.79,169.27,62.25,165.5Z"/><path class="cls-9" d="M81.72,174.42c-.07-.63-1.07-.64-1,0a132.53,132.53,0,0,1,.8,13.51.44.44,0,0,0-.09.31l.11,1.21a.5.5,0,0,0,1,0A132.55,132.55,0,0,0,81.72,174.42Z"/><path class="cls-9" d="M84.64,172.52c-.33-.75-1.13-1.63-2-1.56a1,1,0,0,0-.95.67l-.05.06a1.29,1.29,0,0,0,.62,2h.13a1.19,1.19,0,0,0,.25.13,1.73,1.73,0,0,0,.88.41A1.15,1.15,0,0,0,84.64,172.52Z"/><path class="cls-2" d="M82.65,69.5C77.28,71,72.46,71.66,67.17,70c-.21-.07-1.37-.91-1.54-.86-.48-.12-.14,1.6-.29,2.22A25.74,25.74,0,0,0,65.09,75c-.17,1.53-.49,3.51-1.51,4.66-.58.65-.47.9.16,1.08a1.07,1.07,0,0,0,.9.6,16.93,16.93,0,0,0,3.64-.1h.1c5.79-.8,10.63-4.46,15.2-8.2.06,0,.08-.11.13-.16C83.69,72.24,83.83,69.18,82.65,69.5Z"/><path class="cls-2" d="M67.15,238.42c-.63,1.89-1.14,4.82-2.73,6.35a6,6,0,0,1-4.62.63,1,1,0,0,0-.53,1.93,8.24,8.24,0,0,0,3.79.09.82.82,0,0,0,.74,0,5.92,5.92,0,0,0,1.55-.91l.1-.06c.33.74,3.12-5,3.62-7.53A1,1,0,0,0,67.15,238.42Z"/><path class="cls-2" d="M98.57,46.31a53.39,53.39,0,0,0-4.35-11.5.43.43,0,0,0,.27-.69l-5.75-7.69a.55.55,0,0,0-.77-.09,25.31,25.31,0,0,0-2.18-2.08c-.5-.41-.24-1.78-.58-2,0,0-.92-1-1-1-.39-.42-.41,2.9-.8,2.47a.45.45,0,0,0-.73.07c-.91-.69-1.85-1.35-2.84-2a.45.45,0,0,0-.54,0l-2.2-1.63c-1.33-1.37-2.58-2.84-3.79-4.3,0-.1.09-.2.12-.3h0a.54.54,0,0,1,0-.11c.17-.5-.38-.72-.74-.53a.52.52,0,0,0-.65.46,2.81,2.81,0,0,0,0,.29c-1.12,1.46-2.27,2.93-3.49,4.33-1.23.85-2.43,1.72-3.62,2.6H65l-.12.06h0l-.09.05c-.51.22-1,.46-1.5.71a.46.46,0,0,0-.41,0c-1.72.89-3.39,1.86-5.05,2.87a.53.53,0,0,0-.8-.15L49.45,32.5c-.15.12.38,3.26.79,3.09,8.4-3.49,18.88-8.38,22.43-17.37a10.35,10.35,0,0,0,3.09,3.63c1.53,1.24,3.15,2.36,4.77,3.48.29.25.56.52.86.78a.48.48,0,0,0,.42.11c.64.45,1.28.9,1.9,1.37A40.06,40.06,0,0,1,93.62,38c.16.33.33.65.49,1a.43.43,0,0,0,.2.2,33.19,33.19,0,0,1,3,6.71.5.5,0,0,0,.13.2c0,.17.09.33.13.49A.5.5,0,0,0,98.57,46.31Z"/><path class="cls-5" d="M29.15,63.82c-.9,2.24-5,5.64-5,5.65C22,73.11,16.53,72.26,14.67,71a.43.43,0,0,0,0-.46c-.31-.51-.58-1-.84-1.58a.46.46,0,0,0,0-.39c-.23-.79-.43-1.57-.62-2.36a17.87,17.87,0,0,0,.09-2.54.42.42,0,0,0,.16-.37A21.25,21.25,0,0,1,13.6,60l.18-.62c.13-.44.27-1.14.44-1.88a30.86,30.86,0,0,1,1.55-3.3.49.49,0,0,0,0-.39c.22-.32.43-.64.67-.94s-2.34.28-2.36.34a19.3,19.3,0,0,0-2.53,3,8.1,8.1,0,0,0-.95,1.49,3.89,3.89,0,0,0-.45,2.63,13.34,13.34,0,0,0,2,9.63,7.79,7.79,0,0,0,5,3.11c3.12.46,4.93-1.89,7.66-2.8a.5.5,0,0,0,.35-.46,17.58,17.58,0,0,0,3.93-6Z"/><path class="cls-4" d="M101.17,43.58l-1-5.63a35.54,35.54,0,0,0-4.35-17.28c-1.42-2.56-5.34-9.25-9.09-8.92a5.73,5.73,0,0,0-4-1.65l-.27-.23-.13-.24a1.55,1.55,0,0,0-2.21-.41,1.39,1.39,0,0,0-.28.12,1.84,1.84,0,0,0-1.49.28l0-.1a1.47,1.47,0,0,0-2.39-.69c-.54-.07-1.09-.12-1.66-.14a1.56,1.56,0,0,0-2.92.16A11.31,11.31,0,0,0,65,11.63c-6.95,2.86-12.56,9.09-15.92,15.65-.33.53-.64,1.06-.94,1.61s-.88,1.11-1.31,1.67h0l-.24.3a1.41,1.41,0,0,0,1,2.17c-.18.43-.35.87-.51,1.31s.22.64.55.59a44.36,44.36,0,0,0-3.49,8c-.2.61.76.88,1,.27,1.41-4.15,3-8.45,6.08-11.7,2.73-2.89,6.37-4.57,9.88-6.34a33.44,33.44,0,0,0,7.4-4.79c2.23-1.31,4.08-3,3.81-5.33.06-.16.13-.32.18-.49.37,2.75,2.49,4.27,5.63,6.44,1.81,1.74,9.86,5.14,11.76,7.31,4.32,4.94,8.32,19.52,8.74,22.08.08.56,4.2,5.79,3.92,4.35C102.36,53.94,101.3,44.29,101.17,43.58Z"/><path class="cls-5" d="M49.87,34.17a11.47,11.47,0,0,0-2.46,3,28.36,28.36,0,0,1-3,3.89c-3.36,2.81-7.69,4.61-9.86,8.59a12.78,12.78,0,0,0-.28,11.55.41.41,0,0,0,.32.24.56.56,0,0,0,.16.21.44.44,0,0,0,.33.14h.07a.51.51,0,0,0,.36-.85,14.65,14.65,0,0,1,1.1-7.9c1.3-2.75,3.67-4.42,6.13-6,2.68-1.77,5.34-3.78,6.29-6.81l.1-.11a.5.5,0,0,0,.08-.54,2.51,2.51,0,0,1,0-.27.51.51,0,0,0,.14-.67.51.51,0,0,0,0-.59.5.5,0,0,0-.82-.53l-.35.35c.68-1.08.4-1.72,1.42-2.54C50.11,34.88,50.36,33.78,49.87,34.17Z"/><path class="cls-2" d="M83.72,34.36a4.76,4.76,0,0,0-2,.68.47.47,0,0,0-.28-.09.51.51,0,0,0-.22,0,.39.39,0,0,0-.41.15c-1.07,1.33-3,3.27-2.74,5.15.22,1.61,1.91,2.58,3.26,3.13,2.55,1,8.35,1.34,8.92-2.46C90.73,37.7,86.85,34.08,83.72,34.36ZM83,42.93a6.1,6.1,0,0,1-2.48-1,.43.43,0,0,0,0-.46c-2-2.84,1.49-6.75,4.58-6a5.3,5.3,0,0,1,3,2.1c-.58-.19-.83.74-.24,1s.09,1.52,0,1.93c0,.1,0,.41-.11.75a.59.59,0,0,1-.1.17.4.4,0,0,0,0,.43,4.39,4.39,0,0,1-.55.6.47.47,0,0,0-.12.48l-.46.11A8.26,8.26,0,0,1,83,42.93Z"/><path class="cls-10" d="M88,37.22a3,3,0,0,0-1.63-1.94,4.59,4.59,0,0,0-2.95-.68h-.06a4.09,4.09,0,0,0-3.86,4.59,5.41,5.41,0,0,0,4.08,4.69,2.69,2.69,0,0,0,1.36-.1,4,4,0,0,0,1.7-.75A5,5,0,0,0,88,37.22Z"/><path class="cls-11" d="M86.44,37a2.62,2.62,0,0,0-.53-.2,2.15,2.15,0,0,0-.81-.32,2,2,0,0,0-1.72.5,2.32,2.32,0,0,0-.89,2.47,3.67,3.67,0,0,0,.46,1,2.51,2.51,0,0,0,3.69.95C88,40.34,88,37.79,86.44,37Z"/><path class="cls-12" d="M86.66,38.84c0-.05,0-.11,0-.16A1.18,1.18,0,0,0,86,37.9a1.21,1.21,0,0,0-1.73.37,1.34,1.34,0,0,0-.15,1.08,1.23,1.23,0,0,0,1,1.18h.14a1.21,1.21,0,0,0,1-.16,1.2,1.2,0,0,0,.46-.91A1.33,1.33,0,0,0,86.66,38.84Z"/><path class="cls-10" d="M85.87,37.77a.5.5,0,0,0,0,1A.5.5,0,0,0,85.87,37.77Z"/><path class="cls-2" d="M77.25,48.72c-.1-.26-.18-.52-.27-.79l-.11-1.57a.54.54,0,0,0-.11-.28q0-3.64.15-7.31c0-.47-.72-.71-.93-.25a12.92,12.92,0,0,0-.56,7.18.65.65,0,0,0,0,.24c0,.12.06.24.09.37.12.73.27,1.45.41,2.15,0,.07,0,.15,0,.23a4.23,4.23,0,0,1,0,.71,1.26,1.26,0,0,1-1.17.45,4.91,4.91,0,0,1-.92-.08l-.27-.09a.36.36,0,0,0-.29,0h0c-.63-.08-.63.92,0,1h.06a3.39,3.39,0,0,0,3.08.46,1.34,1.34,0,0,0,1.08-.66A2.17,2.17,0,0,0,77.25,48.72Z"/><path class="cls-1" d="M91.25,39.23c-1.29-2.3-3.28-4.66-6.07-5a7.35,7.35,0,0,0-5.06,1.35c-.8.41-1.57.87-2.31,1.34a.5.5,0,0,0,.36.91.46.46,0,0,0,.71,0,12.56,12.56,0,0,1,1.88-1.51,7.38,7.38,0,0,1,4-.93c2.62.25,4.2,2.56,5.74,4.42C90.84,40.29,91.52,39.71,91.25,39.23Z"/><path class="cls-12" d="M91,40c-1-2.27-3.43-4.86-6-5.21-2.79-.39-5.39,1.42-7,3.52-.39.52.48,1,.86.51C80.47,36.62,83.25,35,86,36.17a8.58,8.58,0,0,1,4.11,4.31C90.35,41.07,91.21,40.56,91,40Z"/><path class="cls-2" d="M63.34,34.27a4.76,4.76,0,0,0-2,.68.41.41,0,0,0-.28-.1.4.4,0,0,0-.22.06.38.38,0,0,0-.41.15c-1.07,1.33-3,3.27-2.74,5.15.22,1.61,1.91,2.58,3.26,3.13,2.55,1,8.35,1.34,8.92-2.46C70.35,37.61,66.47,34,63.34,34.27Zm-.72,8.56a6.08,6.08,0,0,1-2.48-1,.43.43,0,0,0,0-.46c-2-2.84,1.49-6.75,4.58-6a5.25,5.25,0,0,1,3,2.1c-.58-.2-.83.74-.24,1s.09,1.52,0,1.93c0,.1-.05.41-.11.75l-.1.17a.4.4,0,0,0,0,.43,4.39,4.39,0,0,1-.55.6.47.47,0,0,0-.12.48l-.46.11A8.26,8.26,0,0,1,62.62,42.83Z"/><path class="cls-10" d="M67.6,37.13a3,3,0,0,0-1.63-2A4.72,4.72,0,0,0,63,34.5H63a4.1,4.1,0,0,0-3.86,4.6,5.39,5.39,0,0,0,4.08,4.68,2.58,2.58,0,0,0,1.36-.1,4,4,0,0,0,1.7-.74A5,5,0,0,0,67.6,37.13Z"/><path class="cls-11" d="M66.23,37.1a3.24,3.24,0,0,0-.52-.19,2.27,2.27,0,0,0-.82-.32,2,2,0,0,0-1.72.49,2.33,2.33,0,0,0-.88,2.48,3.59,3.59,0,0,0,.45,1,2.52,2.52,0,0,0,3.69.94C67.78,40.46,67.82,37.91,66.23,37.1Z"/><path class="cls-12" d="M66.64,38.88a.88.88,0,0,0,0-.17,1.19,1.19,0,0,0-.63-.78,1.23,1.23,0,0,0-1.74.37,1.33,1.33,0,0,0-.14,1.08,1.22,1.22,0,0,0,1,1.18h.14a1.11,1.11,0,0,0,1.43-1.07A1.08,1.08,0,0,0,66.64,38.88Z"/><path class="cls-10" d="M65.63,37.63a.5.5,0,0,0,0,1A.5.5,0,0,0,65.63,37.63Z"/><path class="cls-12" d="M70.57,39.88c-1-2.27-3.43-4.86-6-5.22-2.79-.38-5.39,1.43-7,3.53-.39.51.48,1,.86.5,1.64-2.16,4.42-3.78,7.15-2.62a8.62,8.62,0,0,1,4.11,4.31C70,41,70.83,40.47,70.57,39.88Z"/><path class="cls-10" d="M104.6,281.58c-3.41.84-6.83,1.43-10.18.14a5.59,5.59,0,0,1-.59-.08.55.55,0,0,0-.33.46v1.72a.46.46,0,0,0,.56.47.49.49,0,0,0,.11.14c1.85,1.44,4.15,1.42,6.4,1.13,2.72-.34,4-.66,4.65-3.36A.5.5,0,0,0,104.6,281.58Z"/><path class="cls-11" d="M117.82,292.81c0-2.51-4.09-5.19-5.69-6.11a16.08,16.08,0,0,0-5.35-2.39,5.24,5.24,0,0,0-1.18-.05c-.35-.11-.71-.23-1.08-.32a.48.48,0,0,0-.61.42,11.86,11.86,0,0,1-4.38,1.12c-1.46.07-4.27.08-5-1.45a.45.45,0,0,0-.7-.14.43.43,0,0,0-.52.23,7.68,7.68,0,0,0-.9,3.66,6.58,6.58,0,0,0,.16,1.26,5.56,5.56,0,0,0,.8,3.35.44.44,0,0,0,.21.57,9.12,9.12,0,0,0,3.86.92c2.68,1.89,7.08,2.68,9.46,2.87a9.91,9.91,0,0,0,1.83-.07c2.6,1,6.44.66,8.4-1A2.35,2.35,0,0,0,117.82,292.81Z"/><path class="cls-13" d="M108.07,296a.51.51,0,0,0-.12-.91c-2-.5-4.15-.55-6.17-1.17a18.08,18.08,0,0,1-5.78-3,22,22,0,0,1-1-6.2.48.48,0,0,0-.35-.45.53.53,0,0,0-.87-.39c-2.4,2.09-1.22,5.92-.42,8.52a.48.48,0,0,0,.49.35,2.74,2.74,0,0,0,2.09.85c.59.16,1.19.27,1.79.39a13.6,13.6,0,0,0,5.08,1.83c1.35.79,3.63,1.79,5.08,1A.52.52,0,0,0,108,296Z"/><path class="cls-11" d="M111.21,286a3.94,3.94,0,0,0-2.43-.5.43.43,0,0,0-.2-.57,12.68,12.68,0,0,1-1.53-1,1.26,1.26,0,0,1-.54-.76,1.37,1.37,0,0,0-.28-.5.52.52,0,0,0-.71,0l-.72.62a.51.51,0,0,0,.1.79l2.2,1.35a.43.43,0,0,0,.46,0c.13.08.26.16.4.23a4.44,4.44,0,0,0-2.71,3.47,3.66,3.66,0,0,0-2.53,1.81c-1,1.68-.56,4.62,1.43,5.47a16.51,16.51,0,0,0,3.72,1.27,16.39,16.39,0,0,0,3.84-.18c2.19-.12,4.27.74,6.32-.64a4,4,0,0,0,2-3.46C119.55,288.52,114.82,288,111.21,286Z"/><path class="cls-13" d="M115.78,291.88c-.94-1.46-3.26-2-4.68-2.89a32.33,32.33,0,0,1-2.94-2.13,16.42,16.42,0,0,0-2.61-2.54,1.89,1.89,0,0,0-1.06-.35.45.45,0,0,0-.27-.06,1.32,1.32,0,0,0-.94-.3,11.14,11.14,0,0,0-3.17.67c-.49.18-1.28.56-1,1.21l0,0a.48.48,0,0,0,.28.73c3,.74,5.86,2.9,8.35,4.7a11.21,11.21,0,0,0,3.13,2.07,2.09,2.09,0,0,0,1.79.92,4.55,4.55,0,0,0,3.13-1.55A.49.49,0,0,0,115.78,291.88Z"/><path class="cls-13" d="M110.11,296.9c-.11-.75-1.25-.9-1.84-1.06a43.65,43.65,0,0,1-6.15-2.09.52.52,0,0,0-.65.14l-.62-.22a.5.5,0,0,0-.27,1,15.25,15.25,0,0,1,2.78,1.2.5.5,0,0,0,.24.32,7.63,7.63,0,0,0,1,.47c1.55.71,4.27,1.79,5.23,1.09A.54.54,0,0,0,110.11,296.9Z"/><path class="cls-10" d="M119.52,292.12c-1-1.46-2.75-1.46-4.45-.74a.48.48,0,0,0-.48-.54l-1.88,0c.06-.19.09-.38.16-.57a.43.43,0,0,0-.35-.59.45.45,0,0,0-.43-.28c-.8,0-1.61,0-2.41.06,0-.4,0-.8,0-1.21a.49.49,0,0,0-.36-.48q-1.07-.19-2.13-.33c0-.42.07-.84.13-1.26a.55.55,0,0,0-.25-.53.49.49,0,0,0-.5-.17c-.46.1-.94.23-1.43.36a7.41,7.41,0,0,1,.35-1.26c.22-.61-.75-.87-1-.27a8.35,8.35,0,0,0-.44,1.79,7.84,7.84,0,0,1-2,.21c-.64,0-.64,1,0,1a7.74,7.74,0,0,0,1.9-.18,4.69,4.69,0,0,0,0,.53.5.5,0,0,0,.5.5c.53,0,1.06.1,1.59.16,0,.1,0,.2,0,.31,0,.61-.17,1.29.33,1.71a.4.4,0,0,0,.45.29c.56-.05,1.11-.08,1.67-.11,0,.26,0,.52-.07.78,0,.41.34.55.65.44a.48.48,0,0,0,.24.07l2,0a11.5,11.5,0,0,0-.12,1.18.47.47,0,0,0,.63.46,8.54,8.54,0,0,0-2.38,3.37,34.22,34.22,0,0,1-7.89-2.05c-1.24-.5-2.4-1.24-3.64-1.73-.75-.3-4-.46-4.18-1a.5.5,0,0,0-1,.26c.24.87.73,1,1.58,1.19a18,18,0,0,1,3.57.65c1,.37,1.84.93,2.78,1.33a40.87,40.87,0,0,0,11.34,2.68.41.41,0,0,0,.23,0,10.44,10.44,0,0,0,5.54-1.26C119.56,296,120.77,293.84,119.52,292.12Zm-13.28-4.81-1.17-.12c0-.11,0-.21,0-.31l1.25-.32C106.3,286.81,106.26,287.06,106.24,287.31Zm2.43,2.19-1.55.1a.32.32,0,0,0-.08-.09s.07-.64.11-1.09c.52.07,1,.14,1.57.24C108.71,288.94,108.69,289.22,108.67,289.5Zm3,1.31-2.08,0c0-.12,0-.23,0-.35.73,0,1.45,0,2.18-.05C111.74,290.53,111.69,290.67,111.66,290.81Zm.63,2.34a.42.42,0,0,0,0-.16,8.91,8.91,0,0,1,.14-1.17h1.68A11.86,11.86,0,0,0,112.29,293.15Z"/><path class="cls-14" d="M119.93,293.19v-.07a.5.5,0,0,0-1-.14,5.49,5.49,0,0,1-4.25,3.87A14.24,14.24,0,0,1,110,297a.41.41,0,0,0-.38.17c-3.1-.13-6.17-.31-9-1.81a29.66,29.66,0,0,0-3-1.55c-1.41-.55-3.06-.53-4.1-1.75-.42-.5-1.12.21-.71.7.95,1.13,1.73,1.2,3.08,1.56a26.15,26.15,0,0,1,4.9,2.25c3,1.53,6.5,1.5,9.82,1.64A.41.41,0,0,0,111,298H111a.44.44,0,0,0,.44.26,28.41,28.41,0,0,0,3.06,0,11.3,11.3,0,0,0,3-1,4.3,4.3,0,0,0,2.66-3.71A.43.43,0,0,0,119.93,293.19Z"/><path class="cls-10" d="M68.6,283.09c-3.51.85-7,1.47-10.46,0-.31-.13-.63.19-.63.48l0,1.72a.48.48,0,0,0,.57.48.26.26,0,0,0,.1.13c1.86,1.45,4.15,1.42,6.41,1.14,2.72-.35,4-.66,4.65-3.37A.5.5,0,0,0,68.6,283.09Z"/><path class="cls-11" d="M81.82,294.32c0-2.52-4.09-5.2-5.68-6.12a16.43,16.43,0,0,0-5.36-2.39,5.13,5.13,0,0,0-1.17,0c-.36-.12-.72-.24-1.09-.33a.48.48,0,0,0-.6.42A11.86,11.86,0,0,1,63.53,287c-1.45.08-4.27.08-5.05-1.45a1.07,1.07,0,0,0-1.22.09,7.92,7.92,0,0,0-.9,3.66,5.88,5.88,0,0,0,.17,1.26,5.42,5.42,0,0,0,.8,3.35.44.44,0,0,0,.2.58,9.26,9.26,0,0,0,3.86.91c2.68,1.89,7.08,2.68,9.46,2.87a10.87,10.87,0,0,0,1.84-.06c2.6,1,6.44.66,8.39-1A2.35,2.35,0,0,0,81.82,294.32Z"/><path class="cls-13" d="M72.07,297.46a.5.5,0,0,0-.12-.91c-2-.5-4.15-.55-6.16-1.17a18,18,0,0,1-5.79-3,21.94,21.94,0,0,1-1-6.2.48.48,0,0,0-.35-.45.53.53,0,0,0-.86-.39c-2.41,2.09-1.23,5.92-.42,8.52a.46.46,0,0,0,.48.35,2.76,2.76,0,0,0,2.09.86c.59.15,1.2.26,1.8.39a13.65,13.65,0,0,0,5.07,1.82c1.35.8,3.63,1.8,5.08,1a.51.51,0,0,0,.15-.71Z"/><path class="cls-11" d="M75.21,287.51a3.91,3.91,0,0,0-2.42-.49.45.45,0,0,0-.21-.58,13.52,13.52,0,0,1-1.53-1,1.22,1.22,0,0,1-.53-.76,1.56,1.56,0,0,0-.29-.5.52.52,0,0,0-.71,0l-.72.63a.5.5,0,0,0,.11.78l2.2,1.36a.43.43,0,0,0,.45,0l.4.24a4.47,4.47,0,0,0-2.71,3.46,3.69,3.69,0,0,0-2.53,1.81c-1,1.68-.56,4.62,1.44,5.47a16.27,16.27,0,0,0,3.71,1.27,15.87,15.87,0,0,0,3.84-.18c2.2-.11,4.28.74,6.32-.64A4,4,0,0,0,84,295C83.56,290,78.82,289.48,75.21,287.51Z"/><path class="cls-13" d="M79.79,293.38c-.94-1.46-3.27-2-4.69-2.89a32.18,32.18,0,0,1-2.93-2.13,16.9,16.9,0,0,0-2.62-2.54,1.86,1.86,0,0,0-1.06-.35.43.43,0,0,0-.26-.06,1.34,1.34,0,0,0-1-.3,11.5,11.5,0,0,0-3.17.67c-.49.18-1.27.56-1,1.21,0,0,0,0,0,0a.47.47,0,0,0,.28.72c3,.75,5.85,2.9,8.34,4.71a11.32,11.32,0,0,0,3.14,2.06,2,2,0,0,0,1.79.92,4.59,4.59,0,0,0,3.13-1.55A.52.52,0,0,0,79.79,293.38Z"/><path class="cls-13" d="M74.11,298.41c-.1-.76-1.25-.91-1.84-1.06a46,46,0,0,1-6.15-2.1.51.51,0,0,0-.64.14c-.21-.07-.41-.15-.63-.21a.5.5,0,0,0-.26,1,17.53,17.53,0,0,1,2.78,1.2.45.45,0,0,0,.23.32,8.52,8.52,0,0,0,1,.47c1.55.72,4.26,1.79,5.22,1.1A.53.53,0,0,0,74.11,298.41Z"/><path class="cls-10" d="M83.53,293.62c-1.06-1.46-2.76-1.46-4.46-.74a.48.48,0,0,0-.48-.54l-1.88,0c.06-.19.1-.38.16-.57a.43.43,0,0,0-.35-.59.45.45,0,0,0-.43-.27c-.8,0-1.6,0-2.4.05,0-.4,0-.8,0-1.2a.52.52,0,0,0-.37-.49q-1.07-.19-2.13-.33c0-.42.07-.84.13-1.25a.54.54,0,0,0-.25-.53.48.48,0,0,0-.5-.18c-.46.1-.94.23-1.43.36a7.41,7.41,0,0,1,.35-1.26c.22-.6-.74-.87-1-.27a7.83,7.83,0,0,0-.45,1.79,7.37,7.37,0,0,1-2,.22c-.64,0-.64,1,0,1a8.28,8.28,0,0,0,1.9-.19c0,.18,0,.35,0,.53a.51.51,0,0,0,.5.5c.53,0,1.06.1,1.6.16l0,.31c0,.61-.17,1.3.33,1.71a.4.4,0,0,0,.45.29L72.6,292c0,.26,0,.52-.07.78,0,.41.35.55.65.44a.49.49,0,0,0,.25.07l2,0a11.51,11.51,0,0,0-.13,1.18A.47.47,0,0,0,76,295a8.7,8.7,0,0,0-2.38,3.38,35,35,0,0,1-7.88-2.05c-1.25-.51-2.4-1.24-3.64-1.73-.76-.3-4-.47-4.18-1a.5.5,0,0,0-1,.27c.25.86.74,1,1.58,1.18a18.05,18.05,0,0,1,3.58.65c.94.37,1.83.93,2.77,1.33a40.52,40.52,0,0,0,11.34,2.68.47.47,0,0,0,.24,0A10.49,10.49,0,0,0,82,298.38C83.56,297.45,84.77,295.34,83.53,293.62Zm-13.29-4.8c-.39-.05-.77-.1-1.17-.13,0-.1,0-.21,0-.31l1.24-.32ZM72.68,291l-1.55.1-.08-.09s.06-.64.1-1.09c.52.07,1,.15,1.57.24C72.71,290.44,72.69,290.72,72.68,291Zm3,1.31-2.08,0,0-.35c.72,0,1.45,0,2.17-.05Zm.63,2.35a.47.47,0,0,0,0-.17,11,11,0,0,1,.14-1.17h1.68A11.3,11.3,0,0,0,76.29,294.66Z"/><path class="cls-14" d="M83.93,294.7v-.08a.5.5,0,0,0-1-.14,5.49,5.49,0,0,1-4.25,3.87,14.23,14.23,0,0,1-4.74.13.45.45,0,0,0-.38.17c-3.1-.12-6.17-.3-9-1.81a29.58,29.58,0,0,0-3-1.54c-1.4-.56-3.06-.53-4.1-1.76-.42-.49-1.12.22-.71.71,1,1.12,1.74,1.19,3.09,1.55a26.36,26.36,0,0,1,4.89,2.25c3,1.53,6.5,1.5,9.83,1.64a.44.44,0,0,0,.38-.16H75a.42.42,0,0,0,.43.26,26.21,26.21,0,0,0,3.07,0,11.11,11.11,0,0,0,3-1,4.28,4.28,0,0,0,2.66-3.7A.4.4,0,0,0,83.93,294.7Z"/><path class="cls-1" d="M90.57,120.59c-1-2-2.47-3.69-4.71-4.2-2.4-.56-5,.6-7,1.87a2.92,2.92,0,0,0-1.19,1.4,8.19,8.19,0,0,0-3.64,3.88c-.11.18-.2.37-.3.56l-.52.1c-3.44,0-8.06,2.24-13,3.68-2.86,1.07-5.68,2.27-8.47,3.54.26-.42-.49.55-.73.32a2.53,2.53,0,0,1-.68.46.76.76,0,0,1-1.1-.85c.31-1.87.59-3.74.88-5.62.06-.49.14-1,.23-1.47s.15-.94.23-1.41c.18-1,.2-3,1.2-3.68a.61.61,0,0,1,.12,0c0-.36.06-.73.11-1.13s-19.35-7.24-19.16-5.89c.53,3.77-.61,5.93-.85,9.69q-.64,5.61-1.07,11.24c-.23,2.9-.43,5.81-.62,8.71a1.75,1.75,0,0,1,.45,1.3c0,.81-.11,1.62-.19,2.42a14,14,0,0,0,1.05,2,2.76,2.76,0,0,0,.08.8,2.42,2.42,0,0,0,.63,1.15,1.84,1.84,0,0,0,1,.44,30.13,30.13,0,0,0,2,2.39l.11,0a16.42,16.42,0,0,0,3.57-.86,11.74,11.74,0,0,0,3.77-.93c4.83-1.85,9.53-4.24,14.14-6.56.12-.05.23-.12.35-.18q1.71-.85,3.39-1.77c3.09-1.61,6.15-3.27,9.17-5a40.63,40.63,0,0,0,5.88-3.72,2.46,2.46,0,0,0,1.44.48,18.76,18.76,0,0,0,6.87-1,2.68,2.68,0,0,0,1.9-.46c1.84-1.19,4-2.32,5.19-4.28C92.42,125.49,91.75,122.86,90.57,120.59Z"/><path class="cls-3" d="M91.23,14.62a8.48,8.48,0,0,0-.65-1.57.42.42,0,0,0-.16-.27c-3.6-6.46-14-6.57-20.46-5.94A32.91,32.91,0,0,0,47.54,18.22a0,0,0,0,0,0,0l-.35.43c-1.83,2.18-2.25,5.09-3,7.87-.15.54-.25.53,0,0,.16-.32.34-.63.5-.95a.55.55,0,0,0,.22-.27l.16-.45c.81-1.51,1.75-1.68,2.74-3.07,0,0,.62-1,.63-1C59.28,9.6,75.53,6.91,89.07,14.36l.17.15a.45.45,0,0,0,.31.12l.94.55A.51.51,0,0,0,91.23,14.62Z"/><path class="cls-12" d="M77.22,48.8c-.1-.84-.21-1.68-.31-2.52-.08-.63-1.08-.63-1,0a19.51,19.51,0,0,1,.34,2.83c0,.71-.25.91-.9,1-.47,0-1,.05-1.43.07-.65,0-.65,1,0,1,1,0,2.44.13,3.08-.77A2.17,2.17,0,0,0,77.22,48.8Z"/><path class="cls-2" d="M49.38,131.62c-.47-1.68.15-3.3.54-4.94.5-2.07.79-4.16,1.34-6.21,0-.41,0-.82,0-1.22.1-.7.14-.87.19-1.57s-.88-1.14-1-.52c-.06.45-.11.9-.17,1.34-.95,2.23-2,4.42-3,6.59a84.73,84.73,0,0,1-7.58,10.69.52.52,0,0,0-.11.45.51.51,0,0,0,.42.9,11.85,11.85,0,0,0,4.4-2.37c.3-.21.61-.4.91-.59,1.55-.62,3.06-1.3,4.55-2A.79.79,0,0,1,49.38,131.62Z"/><path class="cls-2" d="M118.29,129.79c-.29.4.64-14.11-.51-16-.23-.35.11-.42,0,0,0-.06,0-.12,0-.18a.5.5,0,0,0-1,0l-.24,6.16c0,.31-.11.61-.16.92a8.44,8.44,0,0,1-3.34,4.21.4.4,0,0,0-.22.26c-.53.29.28.24-.3.45C112.11,125.8,118.67,129.27,118.29,129.79Z"/><path class="cls-2" d="M109.61,133.13a.56.56,0,0,0-.21-.28c-.93-5.49-1.45-11.06-3.22-16.35,0-.14-.05-.27-.07-.41-.12-.84-.38-2.67-.49-3.51-.08-.55-3.27.19-3.14.78,1.35,5.8,2.78,12.26,4.13,18.06a.41.41,0,0,0,.3.33c.08.28.15.57.22.85q.78,5.47,2,10.9c.12.5,3.74,2.64,3.67,2.21A85.1,85.1,0,0,0,109.61,133.13Z"/><path class="cls-12" d="M114.18,174c-4.79.07-11.05-3.63-13.33-7.89-.3-.57-1.17-.06-.86.51,2.46,4.61,9,8.45,14.19,8.38A.5.5,0,0,0,114.18,174Z"/><path class="cls-5" d="M91.53,32.62A23.77,23.77,0,0,0,86,29.93a22,22,0,0,0-6-.4l-.06,0a.53.53,0,0,0-.79.25,1.5,1.5,0,0,0-.13,1,.51.51,0,0,0,.5.5A23.75,23.75,0,0,1,91,33.57a.5.5,0,0,0,.6-.12A.49.49,0,0,0,91.53,32.62Z"/><path class="cls-5" d="M66.91,30.85a2,2,0,0,0-.56-1.15.55.55,0,0,0-.92.1c-3.44.64-8.5,1.87-9.13,5.89-.1.63.87.9,1,.27a3.23,3.23,0,0,1,.11-.47c1.7-3.08,5.85-3.79,9.05-4A.5.5,0,0,0,66.91,30.85Z"/><path class="cls-8" d="M42,158.24c-.65-.11-1,.58-1.28,1s-1.1.85-1.16,1.53a.82.82,0,0,0,1.08.87c.61-.24.88-1.23,1.15-1.77a.48.48,0,0,0,0-.45,1,1,0,0,1,.26-.31C42.47,159,42.55,158.32,42,158.24Z"/><path class="cls-8" d="M46.12,161.61a17.74,17.74,0,0,0-4.16.63.51.51,0,0,0-.12.92,4.48,4.48,0,0,0,1.9.47.5.5,0,0,0,.37-.83c.66-.09,1.34-.15,2-.19S46.77,161.56,46.12,161.61Z"/><path class="cls-15" d="M83.14,54.47a35.76,35.76,0,0,1-8,1.91c-1.68.19-7,1.07-8-.67a.49.49,0,0,0-.83,0,.47.47,0,0,0-.25.7,2.48,2.48,0,0,0,.28.36,5.29,5.29,0,0,0,1.28,2.16c1.37,2.21,4.51,3,7,2.89a9.75,9.75,0,0,0,8-5.25,5.45,5.45,0,0,0,.88-1.06.41.41,0,0,0,.06-.28C83.87,54.85,83.61,54.3,83.14,54.47Z"/><path class="cls-16" d="M74.75,56.68a.51.51,0,0,0-.48-.37l-2.34.18a6,6,0,0,1-2.56,0c-.52-.23-1,.42-.66.75h0a9.46,9.46,0,0,0,.22,2.07,1.8,1.8,0,0,0,.48.93l.13.09a2.76,2.76,0,0,0,.55.43c1,.56,2.18,1,3,0a6.58,6.58,0,0,0,.58-.78A4.1,4.1,0,0,0,74.75,56.68Z"/><path class="cls-17" d="M78,60.13a5.32,5.32,0,0,0-3.8-.81,21,21,0,0,0-4.32.56.5.5,0,0,0,.24,1,0,0,0,0,0,0,0c.44.77,2,.68,2.79.73.43,0,.86,0,1.28,0a9.87,9.87,0,0,0,2-.15.51.51,0,0,0,.22-.11c.48-.09,1-.19,1.44-.33A.51.51,0,0,0,78,60.13Z"/><path class="cls-10" d="M83.65,54.66l-.05,0a.45.45,0,0,0-.4-.13,2.57,2.57,0,0,0-1.11.23A32.32,32.32,0,0,1,77,55.9a30.6,30.6,0,0,1-10.28-.32.52.52,0,0,0-.54.79.57.57,0,0,0,.12.21c1.78,1.76,5.77,1,8,.85,2.92-.26,6.24-.43,9-1.58a.37.37,0,0,0,.25-.38A.52.52,0,0,0,83.65,54.66Z"/><path class="cls-12" d="M84,54.56a.52.52,0,0,0-.61-.44c-5.7,1.07-11.34,2-17.13,1.11a.57.57,0,0,0-.37.08.51.51,0,0,0-.47.62,8.27,8.27,0,0,0,8.94,6.48A11.23,11.23,0,0,0,84.11,55,.38.38,0,0,0,84,54.56ZM74.7,61.35a7.27,7.27,0,0,1-8.13-5.09c5.53.73,10.92,0,16.37-1A10.12,10.12,0,0,1,74.7,61.35Z"/><path class="cls-2" d="M144.4,155.59a5,5,0,0,0-1.59-1.58l-.08,0a4.83,4.83,0,0,1,1-1.43.45.45,0,0,0,.09-.56,2.35,2.35,0,0,1,.26-.29c.46-.45-.25-1.16-.71-.71a6.76,6.76,0,0,0-1.64,2.61.73.73,0,0,0-.62.33.77.77,0,0,0,.41.87.05.05,0,0,1,0,0,8.49,8.49,0,0,1,1.87,1.72c.29.37.72.09.81-.27A.46.46,0,0,0,144.4,155.59Z"/><path class="cls-2" d="M142.85,157.81c-.34.11-1.3.39-1.54,0a.5.5,0,0,0-.86.5c.53.91,1.81.74,2.67.49A.5.5,0,0,0,142.85,157.81Z"/><path class="cls-2" d="M147.54,152.25a14.47,14.47,0,0,0-3.76,7c-.13.62.83.89,1,.26a13.48,13.48,0,0,1,3.49-6.53C148.69,152.5,148,151.79,147.54,152.25Z"/><path class="cls-2" d="M151,154.66c-1.14.19-1.73,1.49-2.25,2.39-.42.73-.79,1.47-1.14,2.23l-.06,0c-.85.44-1.77,2.25-.51,2.73a.42.42,0,0,0,.57-.28.58.58,0,0,0,.13-.2,26,26,0,0,1,1.45-3.24c.42-.78,1.1-2.52,2.08-2.68C151.87,155.52,151.6,154.56,151,154.66Z"/><path class="cls-2" d="M153.34,156.4c-.42.84-.81,1.7-1.17,2.57-.06.15-.11.31-.18.46l-.06,0a4.22,4.22,0,0,0-1,2.59.5.5,0,0,0,.85.35c.61-.54.74-1.56,1-2.29a34.11,34.11,0,0,1,1.41-3.22C154.48,156.33,153.62,155.82,153.34,156.4Z"/><path class="cls-12" d="M151.65,149.26c-2.21-1.75-5.4-3.72-8.1-2.72a.49.49,0,0,0-.22-.5q-12.24-8-24.26-16.27a.41.41,0,0,0,0-.16c-.07-2.09-.09-4.18-.08-6.26,0,0,0,0,0,0,0-.55,0-1.1,0-1.65a124.11,124.11,0,0,0-1.63-15.05h0c.65-.49,1.28-1,1.87-1.52,0,0,1.11-.8,1.15-1.1.54-.56.8-2.47.62-2.24-2.7-7.75-5.77-17-12.29-22.34a17.3,17.3,0,0,0-12.22-3.77A25.71,25.71,0,0,0,100,67.17a115.16,115.16,0,0,0,2.41-11.62l.45.25c.36.18.88-.12.73-.56-3.64-10.9-1.15-23.35-6.86-33.65-.23-.41-.37-1.56-.51-1.84C92.75,12.89,89,6.3,81.59,3.19,74.77.3,67.09.74,60.24,3.27c-8.08,3-15.37,8.21-19.81,15.74A30.14,30.14,0,0,0,37,28.14c-.87,4.15-1.67,8.31-2.51,12.45a.5.5,0,0,0,.16.48,12.75,12.75,0,0,0-1.4,2.12,19.11,19.11,0,0,0-1.49,12.32.41.41,0,0,0-.34.33C30,61.66,26.93,69.32,20.63,71.33c-10.41,3.31-6.88-13.55-3.13-17.77a.56.56,0,0,0,.09-.17c.32-.27.23-.91-.29-.87C6,53.29,7.51,68.81,10.57,76.08c3.94,9.36,13.89,15.86,24.23,14.69a1,1,0,0,0,.29-.08c-2.65,6.09-3.61,13-4.79,19.45,0,.12-.1.85.18,1a15.86,15.86,0,0,0,2.11,1.12,159.07,159.07,0,0,0-2.23,23.66,86.47,86.47,0,0,0,.31,12.47c.31,2.33,1.39,4.07,3.87,4.23,3.11.19,6.61-1.6,9.44-2.65l2.07-.8a76.3,76.3,0,0,1-7.3,11,.33.33,0,0,0-.11.15c-.16.2-.31.41-.46.61-.34.45.27.88.69.65.88,2.07,3.63,2.79,5.72,3.28l.41.08a106.73,106.73,0,0,0,1.85,30,.45.45,0,0,0-.31.44,5.4,5.4,0,0,0,1.09,3.52,2,2,0,0,1,0,.24,2.57,2.57,0,0,1,.9.61v0a5.75,5.75,0,0,0,.91.51c.36,4.69.61,9.41,1.18,14.07a1.84,1.84,0,0,1,.33.83c.63,4.46,1.58,8.86,2,13.34.16,1.61.42-.06.31,1.46.86,2.4-.18,8.16-.51,10.63a53.74,53.74,0,0,0-.48,5.67,57.22,57.22,0,0,0,.89,12.12c.73,4.08,1,8.27,1.9,12.31s2,8,3.11,11.91a0,0,0,0,1,0,0,.43.43,0,0,0-.55.21c-1.94,3.45-4,10.83.64,13a42,42,0,0,1,5.09,2.59,13,13,0,0,0,4,2c3.34.8,7.27.38,10.62,0,2.24-.28,4.82-.55,6.23-2.54a5,5,0,0,0,0-5.63c-3.18-4.92-10.47-5.41-14.58-9.46,0,0,0,0,0,0,.93-6.26,3.27-12.25,3.86-18.57.56-6.06-.14-21.37.11-23a63.11,63.11,0,0,1,1.33-9.47c.26-3.11,1.17-9.67,1.12-9.44-.14.61,1.27-15,1.71-23.38l.25-.11c0,.31,0,.61-.07.92a1.84,1.84,0,0,1,1-.73c0-.28,0-.56.09-.83a4.37,4.37,0,0,0,1.44-1.77A5.84,5.84,0,0,0,82.67,200a5.42,5.42,0,0,0,1.21.65l.11,1.07a.5.5,0,0,0,0,.12c.12,2.6.24,5.2.59,7.78.14,1,.34,2,.56,3q.25,3.56.61,7.09c.61,5.82,1.9,11.76,1.44,17.63a22.55,22.55,0,0,0-.43,3.46,78.77,78.77,0,0,0-.09,9.09,68.42,68.42,0,0,0,2.72,16.39.13.13,0,0,0,0,.09,56.77,56.77,0,0,0,1.54,6.78c.62,2.66,1.16,5.33,1.73,8l-.18-.09c.12.26.22.53.34.8a.47.47,0,0,0,.07.76c-2,2.61-1.54,6.73-.8,9.84a.48.48,0,0,0,0,.82c4.48,2.36,8.91,5.16,14,5.86,3.9.53,10.71.63,13.68-2.53,2.58-2.74.24-6.28-2.18-8.1-2-1.52-4.21-2.12-6.51-3-2.59-1-4.12-3.23-6.41-4.64h0c.07-.22.12-.45.18-.68a3.61,3.61,0,0,1-.46.17A48.52,48.52,0,0,1,106.68,269c0-.06,1.38-6.7,1.86-9.87a30.58,30.58,0,0,0,.12-5.66,59.9,59.9,0,0,0-.65-10.6q-.06-.92-.09-1.83a28.64,28.64,0,0,1,1.25-8.38,47.1,47.1,0,0,0,1.28-7c.33-3-.21-6.41.72-9.33a.42.42,0,0,0-.11-.45c.47-2.73.91-5.46,1.12-8.23.29-3.61.28-7.21,1.08-10.76a.38.38,0,0,0,0-.15h0l1.1-.27,4-1c.37-.09,1.09-3.95,1-5a54.39,54.39,0,0,0-1.42-9c-1.36-6.48-3.11-12.87-4.75-19.27l1.81-.67a.52.52,0,0,0,.33-.51,2.77,2.77,0,0,0,.54-.22.49.49,0,0,0,.23-.56c-1.57-4.48-4.12-8.56-5.5-13.09a.49.49,0,0,0,0-.24l-.36-1.48c3.48,2.19,7.46,3.22,11.37,4.36,4.84,1.4,9.69,2.74,14.62,3.75a2.25,2.25,0,0,0,.21.89,6.32,6.32,0,0,0,3.35,3.15,1.91,1.91,0,0,0,.6,1.7,2.85,2.85,0,0,0,2.28.42.76.76,0,0,0,.16-.06c.22,1.39,1.55,1.41,2.75.94a1.52,1.52,0,0,0,.07,1.41c1.11,1.63,3,1.12,4.34.07a1.51,1.51,0,0,0,.73,1.47c2.44,1.54,4.8-3,5.88-4.68a.48.48,0,0,0,.33-.23C159.38,154.87,154.19,151.25,151.65,149.26Zm-50.22-94.2A108.39,108.39,0,0,1,99.2,66c-.81,3.28-1.7,6.5-3.67,9.3a.41.41,0,0,0-.07.39,20.91,20.91,0,0,0-2.59.44c.38-.16-1.57-.26-5.29,1.67a13,13,0,0,1-2.32-3c-.47-.84-1.55-3-1.45-4.43.08,0,0-.94.19-1.33h0s0-.43,2.49-2.81a8.49,8.49,0,0,1,.85-.92l1-1.06a45.52,45.52,0,0,0,4.87-7c-.36.88,3.81-7.69,4-9.52.74,2.62,4,7.39,4.2,7.26C101.44,55,101.43,55.05,101.43,55.06Zm-35.8,14c.8.34,2.81,1.74,3.71,1.94a24.78,24.78,0,0,0,9.67.25A13.47,13.47,0,0,0,82.73,70a20.28,20.28,0,0,0,1,4,13.92,13.92,0,0,0,2.93,4.33A37.34,37.34,0,0,1,82.91,80c-5.7,2.17-13,2.77-18.81.17a6.4,6.4,0,0,0,.82-2.53A48.17,48.17,0,0,0,65.63,69.09ZM57,57.62l-3.24-7.54c-.61-2.14-1.19-4.29-1.72-6.45-.89-3.69-2-7.58-1.73-11.42A16.73,16.73,0,0,1,52.42,30c4.58-3.89,10.36-5.26,15.43-8.25a9.53,9.53,0,0,0,4.46-5.43,10.48,10.48,0,0,0,2.28,3.14,25,25,0,0,0,5.81,4c2.3,1.21,4.93,1.78,7.15,3.1,5,3,6.71,9.62,8.11,14.87.43,1.6.79,3.26,1.2,4.91-.25,0-.82,1.44-.87,1.59q-.8,2.52-1.53,5.07c-4,7.56-9.35,16.75-18.89,17.47C67.05,71.11,61.67,64,57,57.62ZM97,24.56c3.89,9.43,2.39,20,5.21,29.68-.48-.37-1.65-1.6-1.84-1.55-2.32-3.64-2.85-8.37-4-12.45S94,31.82,91.28,28.5s-6.43-3.9-10-5.71c-3.2-1.63-7.61-4.44-8.6-8.1a12.67,12.67,0,0,0,0-3.14,7.28,7.28,0,0,1,.28-.73h.08c6.78.17,13.49,1.91,18.39,6.08a.38.38,0,0,0,.18.15A20,20,0,0,1,97,24.56Zm-2.75-6.41A21.44,21.44,0,0,0,92,16a11.84,11.84,0,0,0-.67-2.78A56,56,0,0,1,94.24,18.15ZM73,9.81c-.17-.17-1.47-.32-1.56.11-10.87.82-21.73,6-26.9,15.78,1.81-9,12.43-15.17,20.61-17.12A41.51,41.51,0,0,1,80.68,8a16.06,16.06,0,0,1,7.09,2.37,8.11,8.11,0,0,1,3.09,4.67C85.85,11.42,79.34,10,73,9.81ZM41.86,18.53a38.31,38.31,0,0,1,17.84-14c6.61-2.61,14-3.31,20.76-.74a20.91,20.91,0,0,1,8.73,6.44,13,13,0,0,0-5.6-2.7,40.8,40.8,0,0,0-17.8-.12c-9.3,2-21.2,9-22.41,19.4a7.5,7.5,0,0,1,0,1.49,46.76,46.76,0,0,1-1.8,4.93,16.06,16.06,0,0,1-3,3.79c-1,1-2,1.89-2.9,2.88C37,32.71,37.65,24.63,41.86,18.53ZM32.52,49.88a14.48,14.48,0,0,1,3.39-8.81c1.58-1.82,3.49-3.31,5-5.16A17.23,17.23,0,0,0,43.8,30c3.91-11.82,15.6-18.12,27.44-19.08l.48.58a6.92,6.92,0,0,0,0,3.07,8.08,8.08,0,0,1-3.43,5.75c-2.26,1.6-5,2.49-7.48,3.62a34.1,34.1,0,0,0-10.36,6.57c-.15-.42-2,2.27-2.34,2.86-1.59,2.43-2.41,5.29-4.05,7.69-1.9,2.76-4.9,3.9-7.5,5.83a11.38,11.38,0,0,0-4.1,5.73C32.43,51.69,32.46,50.76,32.52,49.88Zm-20,28A28,28,0,0,1,9.26,64.83c0-4.68,2-10.08,6.87-11.14a19.44,19.44,0,0,0-3.49,10.5c-.21,3.44.89,8,4.94,8.5,7.94,1,12.57-8.77,14.44-15.3.06.51,1.77-6.37,3.49-8.24C37.45,47,40.23,46,42.45,44.24s3.34-4.05,4.49-6.5a31.37,31.37,0,0,1,2.31-4.16A42.41,42.41,0,0,0,50.84,43q.79,3.39,1.74,6.76a.49.49,0,0,0,0,.26l.1.24c.4,1.41.81,2.83,1.26,4.23a23,23,0,0,0,2.58,4.26h0C60.42,63.83,65,70,64.66,70.17l.16.09c0,2-.34,8.81-1.77,9.4A12.71,12.71,0,0,0,61.56,79,11.34,11.34,0,0,1,60,78.33c-6.78-3.43-14.66-1.14-19.91,4.53A26.8,26.8,0,0,0,35.39,90h0C26.34,91.05,16.75,85.79,12.53,77.89Zm65.53,211c2.2,1.08,5.06,2.5,5.83,5,1.34,4.4-3.88,5.25-6.88,5.57a41.33,41.33,0,0,1-7.46.2c-3.06-.23-5-1.81-7.57-3.23a24.18,24.18,0,0,0-2.47-1.16,4.32,4.32,0,0,1-2.9-4.18,13.72,13.72,0,0,1,1.85-7.72l.1,0h0a.46.46,0,0,0,.26,0c.58.12,1.26.6,1.79.75a9,9,0,0,0,2.42.33c2,0,3.82-.72,5.77-.84a.48.48,0,0,0,.22-.07C71.6,286.05,74.89,287.31,78.06,288.86Zm-4.79-54.63a.46.46,0,0,0,.06.31,51,51,0,0,0-.83,9.08.4.4,0,0,0-.07.2c-.78,6.46.5,12.89.09,19.35s-2.93,12.75-3.89,19.22c0,0,0,0,0,0a.58.58,0,0,0-.15.25c-1.71.16-3.35.74-5.09.79a7.68,7.68,0,0,1-3.35-.62c-.35-.15-.59-.29-.86-.38-1.15-4.25-2.53-8.53-3.32-12.86-.38-2.06-.42-4.16-.72-6.24s-.84-4.11-1.18-6.18a56.2,56.2,0,0,1-.53-13.71c.27-3.28,1.54-7,.63-10.22a.56.56,0,0,0,0-.32l-.27-1.33c-.4-4.93-1.12-9.78-1.89-14.66-.86-5.39-1.11-10.89-1.52-16.33,4.21,1.2,10.73-.51,13.77-.71,2.79-.18,8.54.5,12.49-.71Q75.78,216.8,73.27,234.23Zm4.36-36.5a.52.52,0,0,0-.87.36v0a14.24,14.24,0,0,1-5.08.76c-2.82,0-5.62-.13-8.43.1s-9.26,2-12.92.61a.53.53,0,0,0-.74-.34,4.49,4.49,0,0,1-.86-.62s0,0,0,0a.49.49,0,0,0-.55-.61,4.44,4.44,0,0,1-.63-2.08.5.5,0,0,0,.35-.33h0c10.65,1.09,21.19-.92,31.83-.37A4,4,0,0,1,77.63,197.73Zm30.28,87.12a12.88,12.88,0,0,0,3.72,1.87,17.12,17.12,0,0,1,6.26,3.29c2.38,2.25,2.84,5.64-.72,7.08a22.28,22.28,0,0,1-13.13.63c-3.86-1-7.39-3.13-10.88-5-.74-2.85-1.49-7.3.64-9.69a.35.35,0,0,0,.08-.13l0,0c3,.6,6.76,1.27,9.52-.18a2,2,0,0,0,.93-.86C105.67,282.71,106.66,283.88,107.91,284.85Zm3.4-79.06A96.63,96.63,0,0,1,110,216.51a.47.47,0,0,0,.06.34c-.52,2.28-.24,4.68-.4,7a46.36,46.36,0,0,1-1.63,9.35,29,29,0,0,0-.93,7.36.51.51,0,0,0-.34.59c.16.84.3,1.67.42,2.51.07,1.27.17,2.54.28,3.82a.56.56,0,0,0,0,.23c.1,2,.19,4.09.29,6.14a90.67,90.67,0,0,1-5.25,26c-.21.61.76.87,1,.26a2.25,2.25,0,0,0,.08-.24c0,.41-.09.82-.11,1.24a.48.48,0,0,0,0,.18,2.79,2.79,0,0,1-1,.69,8.18,8.18,0,0,1-3.22.47,26.19,26.19,0,0,1-5.28-.64,1.89,1.89,0,0,0-.09-.21l-.32-.11a.49.49,0,0,0,.17-.49c-.52-2.41-1-4.83-1.57-7.25s-1.32-4.59-1.64-6.94a.44.44,0,0,0,0-.34,66.9,66.9,0,0,1-2.74-14.77c-.1-2.35-.15-4.71-.13-7.06,0-1.32.37-5.2.4-5.41.09-.71.16-1.41.2-2.12a141.41,141.41,0,0,0-.84-18.51c-.29-2-.79-4-1.22-6-.27-3.78-.47-7.57-.56-11.36a.35.35,0,0,0,0-.18,24.57,24.57,0,0,0,6.57-.31A184.63,184.63,0,0,0,112.23,197,57.07,57.07,0,0,0,111.31,205.79ZM118,194c-.3.09-4.41,1.63-4.41,1.65-5.33,1.3-10.7,2.42-16.11,3.31a54.76,54.76,0,0,1-10.51,1.18c-3.25-.1-4.74-1.73-5.38-4.08a209.52,209.52,0,0,0,36.9-6.07C118.67,192,118.66,193.82,118,194Zm-2-17c.6,2.52,1.16,5.05,1.64,7.6.09.51.5,2.44.77,4.41a207.66,207.66,0,0,1-37,6.09,18,18,0,0,1-.22-2.51.5.5,0,0,0-1,0c0,.1,0,.2,0,.3a.52.52,0,0,0-.32.57,6.09,6.09,0,0,1,0,.72c-10.68-.57-21.26,1.46-31.95.37h-.12a104.81,104.81,0,0,1-2.1-19.49c5.37.44,11.59-4.08,14.44-8.32.36-.53-.51-1-.87-.5-2.63,3.92-8.62,8.22-13.58,7.82,0-3,.07-6,.31-9a22.81,22.81,0,0,0,10.18-.69.46.46,0,0,0,.34-.41c4.41.91,8.65,2.53,13.1,3.3,5.08.88,10.29.26,15.4-.13,9.21-.7,18.45-1.73,27.23-4.66C113.48,167.36,114.76,172.17,115.92,177Zm-4.32-24.53c.34.74,3.43,7.62,3.17,7.63a.52.52,0,0,0-.47.64C104.92,164.29,95,165.44,85,166.2c-5.17.39-10.43,1-15.58.08-4.87-.87-9.48-2.77-14.38-3.54-.63-.1-.9.86-.27,1v.06a21.41,21.41,0,0,1-6.72.62c-.53,0-1.28-.11-2.11-.24a.5.5,0,0,0-.68-.1c-2.47-.44-5.34-1.36-5.65-3.39a70.3,70.3,0,0,0,7.81-12s0,0,0,0c2.48-1,4.93-2.06,7.36-3.2A140.52,140.52,0,0,0,75.42,133.5a2.24,2.24,0,0,1-.29-1,138.55,138.55,0,0,1-36.48,18.3c-1.88.61-3.44,1.22-5.28.19-1.54-.87-1.63-1.76-1.76-3.41-.08-1-.11-1.94-.15-2.91-.14-3.55-.16-7.11-.05-10.66a155.54,155.54,0,0,1,2.14-21.32,49.82,49.82,0,0,0,6.6,1.83A68.82,68.82,0,0,1,51,118.06a.63.63,0,0,0-.1.2,65.43,65.43,0,0,0-2.29,14l-5.87,1.82c-.61.19-.35,1.15.27,1a46.42,46.42,0,0,0,8.55-2.65c1.19-.36,3.93-1.44,3.88-1.67a135.7,135.7,0,0,1,18.79-6.25.5.5,0,0,0-.26-1,136.41,136.41,0,0,0-20.23,6.85,31.3,31.3,0,0,0,1.21-13.29c2.54-3.5,3.41-8.5,4.19-12.5.13-.63-.84-.9-1-.26-.71,3.62-1.5,8.4-3.72,11.75A6,6,0,0,1,53,117.83,69.26,69.26,0,0,0,42.15,114a68.25,68.25,0,0,1-8.44-2.32c0-.21-2-.91-2.46-1.21,0,0,0,0,0,0,1.54-8.34,2.61-17.53,7.69-24.6,5.38-7.47,14.46-10.12,23-5,3.91,2.31,10.08,2.4,14.58,1.85a29,29,0,0,0,8.32-2.34c.65-.29,2.25-.8,2.45-.91,7.27-4,16.36-4,22.38,2.28,5.34,5.56,8,13.73,10.55,20.85a7,7,0,0,1-.72.93l-.33.37a32.85,32.85,0,0,1-4.74,3.66c-3.6,2.36-7.12,4.41-11.5,4.86a.47.47,0,0,0-.27.11c-.69-3.22-1.37-6.45-2-9.69-.13-.63-1.09-.36-1,.27q4.32,21.25,9.49,42.31a.47.47,0,0,0,0,.29A33.74,33.74,0,0,0,111.6,152.48ZM51.67,119.89a.65.65,0,0,1,.47-.49v-.19a.47.47,0,0,0,.17.15.9.9,0,0,1,.28,0,.33.33,0,0,0,.16-.07,9.89,9.89,0,0,0,1.3-1.2,31.83,31.83,0,0,1-1.32,12.66h0c-.37.17-3.13,1.19-3.13,1.19A97.76,97.76,0,0,1,51.67,119.89Zm91.18,38.84a.46.46,0,0,0-.17,0c-.68.08-1.87.1-1.92-.73a3.55,3.55,0,0,0,2.22.16A4.35,4.35,0,0,0,142.85,158.73Zm13.31-.74a.45.45,0,0,0-.29.19l-1.71,2.45a11.87,11.87,0,0,1-1,1.28c-.39.42-2.06,2-2.12-.33a2.63,2.63,0,0,1,.38-1.14l0,0h0c.28-.53.63-1.07.81-1.41.47-.9,1-1.78,1.53-2.63.34-.55-.52-1.05-.86-.51a35.48,35.48,0,0,0-2.15,3.86.46.46,0,0,0-.2.19,3.51,3.51,0,0,1-2.09,2c-.85.22-2.06-.05-1.81-1.18a5,5,0,0,1,.67-1.14,39.22,39.22,0,0,1,3.3-4.62c.4-.49-.3-1.2-.71-.7a41.3,41.3,0,0,0-3.18,4.37l-.24.36a.62.62,0,0,0-.25.11,3.41,3.41,0,0,1-1.51.86c-1-.52-1.21-1.18-.62-2a15.86,15.86,0,0,1,1.08-1.93,17.11,17.11,0,0,1,3-3.76c.48-.44-.23-1.14-.7-.71a17.33,17.33,0,0,0-3,3.73c-.22.36-.47.75-.71,1.15a2.69,2.69,0,0,0-.79-1.21c-.2-.18-1.05-.63-1.66-1a.42.42,0,0,0,.46-.24,9.49,9.49,0,0,1,1.78-2.45.5.5,0,0,0-.71-.7,10.58,10.58,0,0,0-1.94,2.65.45.45,0,0,0,0,.48c-.16-.11-.27-.21-.26-.27a.5.5,0,0,0-1,0c0,.54.31.73.72,1s.8.47,1.18.73a3.8,3.8,0,0,1,.69.5q1.19.89-.9,1.29a5.82,5.82,0,0,1-3.15-1.81,4.38,4.38,0,0,1-1-1.58c-.19-1.08.79-1.42,1.48-1.71s.08-1.12-.51-.87a3.63,3.63,0,0,0-1.75,1.37h0a42.61,42.61,0,0,1-8.16-1.6c-5.91-1.82-12.46-3.05-17.84-6.58a.4.4,0,0,0-.42,0l-.06,0q-3.78-15.48-7.11-31H103c4.58-.47,8.22-2.52,12-5,.53-.34,1-.71,1.55-1.07a66.71,66.71,0,0,1,1.51,15c0,2.27,0,4.54,0,6.81-1.73-1.19-3.46-2.38-5.18-3.59-.53-.36-1,.5-.5.87q15,10.5,30.42,20.53a4.91,4.91,0,0,0-1.08.89c-.44.47.27,1.18.7.71,2.73-3,6.84.07,9.18,2C153.55,152.11,157.84,155.06,156.16,158Z"/><path class="cls-1" d="M93.78,120.51a.79.79,0,0,1-.49-.06c-.88-.44-.47-1.62-.72-2.37-.16-.23-.33-.44-.5-.64a25.38,25.38,0,0,0-2.33-1.17.71.71,0,0,1-.33-.59,7.33,7.33,0,0,0-1.23-.29.75.75,0,0,1-.24.1c-2.19.45-4.21,1.52-6.49,1.33a.75.75,0,0,1-.31-.09c-3.56,1.53-9.48,4.14-8,8.9.78,2.45,4.64,1.4,3.86-1.06-.56-1.76,5.23-4,6.45-4.52a9.26,9.26,0,0,1,3.35-.89c2.73.12,3.15,2.3,3.64,4.31,1.83,7.53-9.33,7.95-14.25,6.84-2.5-.56-3.57,3.3-1.06,3.86,5.39,1.22,11.61.8,16.31-2.38C95.4,129.13,95.3,124.54,93.78,120.51Z"/><path class="cls-2" d="M87.31,116.11l-1.77.21a.52.52,0,0,0-.45.41,36.88,36.88,0,0,0-5,2L79,119a.5.5,0,0,0,.27,1,31.9,31.9,0,0,0,5.59-2,.44.44,0,0,0,.17-.16c.81-.26,1.61-.51,2.44-.72C88,117,87.88,116,87.31,116.11Z"/><path class="cls-2" d="M92.21,120.86a2.6,2.6,0,0,0-.21.27,2.75,2.75,0,0,1-.53.36,9,9,0,0,1-.9.38,5.18,5.18,0,0,1-2.33.63c-.63-.12-.9.85-.27,1a6.52,6.52,0,0,0,3.47-.87c.61-.26,1.85-.85,1.76-1.68C93.14,120.3,92.2,120.28,92.21,120.86Z"/><path class="cls-2" d="M93.68,123.9c-1.14,1.48-3.73,1.7-5.44,1.69a.5.5,0,0,0,0,1c2.16,0,4.9-.36,6.3-2.19C94.93,123.89,94.06,123.39,93.68,123.9Z"/><path class="cls-2" d="M93.62,128.37a16.69,16.69,0,0,1-6.43,1.17c-.64,0-.64,1,0,1a17.66,17.66,0,0,0,6.7-1.2C94.49,129.12,94.23,128.15,93.62,128.37Z"/><path class="cls-12" d="M75.18,134.52c4.79,2.23,13.57-.17,18.27-3.68a5.94,5.94,0,0,0,1.61-3.19.62.62,0,0,0,0-.24,3.68,3.68,0,0,0-.18-4.1.49.49,0,0,0-.46-.22,3,3,0,0,0-1.06-3.43.54.54,0,0,0-.4-.13.81.81,0,0,0,0-.16,2.36,2.36,0,0,0-1.15-2.47,5,5,0,0,0-1.29-.54.43.43,0,0,0-.15-.15c-2.11-1.51-4.12-1.22-6.33-.1a.47.47,0,0,0-.25.31c-2.71-.28-5.63,1.28-7.85,2.67-1.78,1.12-4.45,2.67-3.62,5.14.21.61,1.17.35,1-.26-1.15-3.43,8.37-6.92,10.59-6.56h0l.23.21A59.19,59.19,0,0,0,78.49,120c-.58.28-.08,1.14.5.86a59.28,59.28,0,0,1,9.17-3.54.42.42,0,0,0,.26.08,6.29,6.29,0,0,1,2.12,0A1.79,1.79,0,0,1,92,119.59c-.17.83-1,1.09-1.7,1.43a7.68,7.68,0,0,1-2.71.83c-.64.07-.64,1.07,0,1a10.12,10.12,0,0,0,3.74-1.23c.75-.4,1.21-.66,1.45-1.16a2.08,2.08,0,0,1,.89,1.62,2.43,2.43,0,0,1-1.69,2,30.29,30.29,0,0,1-3.79,1.18.5.5,0,0,0,.27,1c1.8-.53,4.31-.86,5.57-2.42,0,0,0,0,0,0a2.77,2.77,0,0,1,.49,2.48c-.43,1.23-1.76,1.5-2.83,1.83a22.61,22.61,0,0,1-4.74.94c-.63.06-.64,1.06,0,1a25,25,0,0,0,3.94-.67,14.62,14.62,0,0,0,2.94-1A6,6,0,0,1,92,130.8c-.12-.05-5.8,2.93-9,3.38a16.2,16.2,0,0,1-8.62-1.36.52.52,0,0,0-.21,0,.5.5,0,0,0-.57.72A4.84,4.84,0,0,0,75.18,134.52Zm10-17.26a.38.38,0,0,0-.13-.19l-.23-.21a5,5,0,0,1,3.38-.57C87.15,116.58,86.14,116.91,85.14,117.26Z"/></g></svg>