<svg xmlns="http://www.w3.org/2000/svg" viewBox="0 0 200 300"><defs><style>.cls-1{fill:#ddbfa6;}.cls-2{fill:#bba18e;}.cls-3{fill:#8ad6f2;}.cls-4{fill:#8c4f21;}.cls-5{fill:#723c18;}.cls-6{fill:#262262;}.cls-7{fill:#1c194b;}.cls-8{fill:#5cc9e5;}.cls-9{fill:#131438;}.cls-10{fill:#fff;}.cls-11{fill:#006838;}.cls-12{fill:#231f20;}.cls-13{fill:#04512a;}.cls-14{fill:#dcdbdb;}.cls-15{fill:#a9333b;}.cls-16{fill:#8d2831;}.cls-17{fill:#e3939e;}.cls-18{fill:#414042;}.cls-19{fill:#58595b;}.cls-20{fill:#808285;}</style></defs><title>Artboard 1 copy 3</title><g id="Layer_8" data-name="Layer 8"><path class="cls-1" d="M112.73,194.27c-.29-3.18-5.29-3.21-5,0,0,.08,0,.15,0,.22a2.57,2.57,0,0,0-.89,1,2.61,2.61,0,0,0-4.29.15,18,18,0,0,0-.84,1.9,1,1,0,0,1-.07-.15,2.52,2.52,0,0,0-4.44.32,11.31,11.31,0,0,0-1-1.48c-1.1-1.43-3.3-1.79-4.32,0-.17.29-.3.59-.44.89A7.32,7.32,0,0,0,90.13,196a2.23,2.23,0,0,0-2.81.3l-.18-1.14c-.49-3.17-5.31-1.83-4.82,1.33l0,.21a1.75,1.75,0,0,1,1.82,1.86c0,1.48,0,3,0,4.46a1.26,1.26,0,0,1,.19.51c.28,1.91.25,3.8.34,5.73a1.75,1.75,0,0,1,0,.4,1.8,1.8,0,0,1,.41.79,35.09,35.09,0,0,1,1,7,1.9,1.9,0,0,1,.38.69,7.56,7.56,0,0,1,.33,2.17l0,.3a2,2,0,0,1,.34,1c.1,1.75.35,3.48.54,5.21,0,.06,0,.12,0,.18,1.5,8.93.46,17.13-.17,26.23a2.55,2.55,0,0,0,.09.85c-.23,6.25,1.76,12.73,3.25,18.78a47.15,47.15,0,0,0,1,5.89c.68,2.74,1.59,4.64,4.61,5,2.52.29,5.4.75,6.66-2a17.15,17.15,0,0,0,1-7.08,2.85,2.85,0,0,0,.38-.59c1.92-4.35,2.65-8.82,3.54-13.45-.24-3.74-.73-7.47-.82-11.23a1.72,1.72,0,0,1,.64-1.46c-.37-3.29-.82-6.61-.86-9.86A74.1,74.1,0,0,1,109.19,228c.63-9.88,3.26-19.76,2.39-29.59a1.6,1.6,0,0,1,1.33-1.81Q112.84,195.46,112.73,194.27Z"/><path class="cls-2" d="M111.13,196.11l-.45.23c-4.38-.22-9.27,1.29-13.65,1.56-.51,0-1,0-1.53,0a4.26,4.26,0,0,0-.62,0c-3.91-.11-7.64-1-11.57-1.09h-.07a1.16,1.16,0,0,0-.93.25,1.73,1.73,0,0,1,1.61,1.37c.9,3.51.69,7,.84,10.57a2,2,0,0,1,.35.82,1.69,1.69,0,0,1,.16.48,171.42,171.42,0,0,1,2.14,19.19c.06.31.1.76.15,1.07s0,.7,0,.93c.08,1.07,0,2.2,0,3.26,0,.64.55,1.09.18,1.4-.34,4.11-.68,8.22-.73,12.32-.08,5.41,1,10.63,2.28,15.85.46,2.72,1,5.41,1.76,8.07.43,1.76.91,3.52,1.46,5.28a1,1,0,0,0,.26.42c.3.87.6,1.74.93,2.6a1,1,0,0,0,1.92-.53,247.65,247.65,0,0,1-4.2-32.66c.08-2.13.12-4.27.1-6.4.19-1,.41-2.06.67-3.09a.92.92,0,0,0-.16-.81c.08-.5.16-1.06.24-1.67a31.79,31.79,0,0,0-2-15.29c-2.33-6-2.86-13.87-1.39-16.31,3.86-6.43,14-2.95,22.84-5.59a.82.82,0,0,0,.8-.88l0,0C113.46,196.48,112,195,111.13,196.11Z"/><path class="cls-2" d="M101.6,236.66c-.63,1.9-1.14,4.83-2.73,6.35a6,6,0,0,1-4.62.64,1,1,0,0,0-.53,1.93,8.11,8.11,0,0,0,3.79.08.81.81,0,0,0,.74,0,5.94,5.94,0,0,0,1.55-.92l.1-.05c.33.73,3.12-5,3.62-7.54A1,1,0,0,0,101.6,236.66Z"/><path class="cls-3" d="M45.91,158.41a1.53,1.53,0,0,0-1.84-1,.5.5,0,0,0-.13,0,1.49,1.49,0,0,0-.34-.54,1.51,1.51,0,0,0-2.12,0,17,17,0,0,0-2.08,3.24,1.5,1.5,0,0,0,2.47,1.7l.2-.09a3,3,0,0,0,.4-.21,9.64,9.64,0,0,0,.86-.55,3.65,3.65,0,0,1,1.54-.69A1.51,1.51,0,0,0,45.91,158.41Z"/><path class="cls-1" d="M34.67,148.8c0-.21,0-.43.07-.61l.18-1.09.06-.37v0a1.6,1.6,0,0,0,.74-1.75,1.55,1.55,0,0,0-1.85-1A1.86,1.86,0,0,0,32.4,145a1.82,1.82,0,0,0-.79.93c-.77,2-.31,5.3,2.18,5.76A1.51,1.51,0,0,0,35,149,1.26,1.26,0,0,0,34.67,148.8Z"/><path class="cls-3" d="M104.34,284.64c-3.51.85-7,1.47-10.46,0-.31-.13-.63.2-.64.49v1.72a.47.47,0,0,0,.56.47.35.35,0,0,0,.11.13c1.86,1.45,4.15,1.42,6.4,1.14,2.72-.35,4-.66,4.66-3.37A.51.51,0,0,0,104.34,284.64Z"/><path class="cls-3" d="M115.53,294.94c-.94-1.47-3.27-2-4.69-2.89a32.81,32.81,0,0,1-2.93-2.14,17.38,17.38,0,0,0-2.62-2.54,1.86,1.86,0,0,0-1.06-.35A.43.43,0,0,0,104,287a1.34,1.34,0,0,0-1-.3,11.5,11.5,0,0,0-3.17.67c-.49.18-1.27.56-1,1.21a.05.05,0,0,0,0,0,.46.46,0,0,0,.27.72c3,.75,5.86,2.9,8.35,4.71a11.32,11.32,0,0,0,3.14,2.06,2,2,0,0,0,1.79.92,4.59,4.59,0,0,0,3.13-1.55A.52.52,0,0,0,115.53,294.94Z"/><path class="cls-1" d="M156.11,158.89a.79.79,0,0,1,.43-.43c.63-2.45-.81-4.54-2.62-6.34-2.28-2.27-4.74-4.84-8.08-5.35a7.86,7.86,0,0,0-1.45-.06c-.08-.12-1,.64-1.09.54-3.91-3.57-8.27-6.19-12.64-9.16a54.22,54.22,0,0,0-5.1-2.73l-8.1-5.9c.14-2,.28-4,.39-6.05.85-6-.95-10.68-.7-16.76.09-2.28-.67-4.52-2-3.17a2.61,2.61,0,0,0-2.38,1.45,2.75,2.75,0,0,0-2.82,2.39c-.06.41-.11.82-.16,1.23a2.5,2.5,0,0,0-2.15.36,2.67,2.67,0,0,0-3-.37,2.42,2.42,0,0,0-3.28,2.29,96.81,96.81,0,0,0,2.53,20.84,2.12,2.12,0,0,0,.13.38c.5,5.81,1.73,11.66,7.49,13.95,4.63,1.84,10,3.35,14.81,4.71,3.84,1.08,5.85,2,9.9,1.93,0,.58,1.29,1.45,1.19,2-.15.86,2.08,3.11,4.72,5.13a.73.73,0,0,1,1,.64l.1.15a.09.09,0,0,0,0,.05l0,0a.57.57,0,0,1,.39-.12,4.65,4.65,0,0,0,1.12,0,.78.78,0,0,1,.93.52,8.61,8.61,0,0,1,.08,1.24c.28.16.55.3.82.43a.72.72,0,0,1,.59-.11,3.49,3.49,0,0,0,2.13-.3c.54-.28,1.34.18,1.1.84,0,.1-.13.28,0,.35l0,0a7.61,7.61,0,0,0,4.39-2.19C155.2,160.5,155.76,159.73,156.11,158.89Z"/><path class="cls-4" d="M97.52,25C95.26,18.59,93.15,12.4,87.9,8.39c-.27-.21-1.08-1.2-1.31-1.11C83.51,4.5,80,3.59,75.82,2.27,68.43-.06,60,3.2,53.29,6.64,46.85,10,43,15,39.55,20c-2.29,5.77-2.67,11.41-4.19,17-1.11,6-4.23,11.6-3.61,17.32a1.68,1.68,0,0,0,.1.62A31.87,31.87,0,0,1,23.72,70c-2.71,2.67-6.55,4.56-9.52.37a10.94,10.94,0,0,1-1.46-5.68A18.44,18.44,0,0,1,16.4,53.61c.7-1-.64-.79-1.43,0-.1,0-4.54,2.46-5.58,6.12-.63.28-.88,3.25-1,4.1a20.32,20.32,0,0,0,.48,5.35c0,3.15,1.59,6,2.67,8.59a8.88,8.88,0,0,0,.91,1.58c.64.92,1.91,2,2.39,3,3.31,7,17.49,8.67,20,8.37a1.12,1.12,0,0,0,.9-1.47,1.77,1.77,0,0,0,.86-.47,1.92,1.92,0,0,0,1-1.75,2.23,2.23,0,0,0,.94-1.11,6,6,0,0,0,.26-1,1.73,1.73,0,0,0,1.32-.58,2,2,0,0,0,2.57-1.9c0-.27,0-.53,0-.8a1.65,1.65,0,0,0,.57-.77,2,2,0,0,0,1,.17c.13.3.24.59.38.89.68,1.5,3.39,1.17,3.65-.48A11.22,11.22,0,0,0,48.45,80a1.94,1.94,0,0,0,.48-.51c0,.12.09.25.13.38.7,1.85,3.81,1.88,3.93-.2.09.21.16.42.25.62.95,2.32,4.48,1.51,3.85-1.06,0-.11-.05-.21-.08-.32a2.48,2.48,0,0,0,.83-.56,1.6,1.6,0,0,0,1.67.4,1.93,1.93,0,0,0,1.64.76,2,2,0,0,0,2.7-1.23c.85-2.23,2.79-4.09,2.53-6.65-.23-2.18-2-3.75-3.4-5.3a73.78,73.78,0,0,1-8.25-11.62c-1-2.77-1.9-5.55-2.76-8.37a28.71,28.71,0,0,1,6.48-12c2.52-2.74,5.63-4.8,8.31-7.37a19.64,19.64,0,0,0,5-7.33c.35,1,.73,2,1,2.71,2.39,5.47,7.28,8.8,12.09,12a46.73,46.73,0,0,1,8.22,6.24,20.52,20.52,0,0,1,3.54,5.14c-.13,1-.27,2-.42,3a1.87,1.87,0,0,0-2.13,1.4Q92.32,55.93,91,61.87a113,113,0,0,0-9.7,12.91c-1,1.63,1.09,3.9,2.74,2.74l.15-.12a2,2,0,0,0,2.48,2.68A1.68,1.68,0,0,0,88.39,80a21.14,21.14,0,0,0,3-2.84c0,2.56,3.74,2.44,4-.05.08-.79.18-1.57.27-2.36a.9.9,0,0,0,.63-.15c1.61-1,1.61-2.12,2.08-4,.9-3.62,1.55-7.34,2.27-11,0-.23.09-.47.13-.7l.11-.28a1.69,1.69,0,0,0,.1-.82c.07-.43.16-.86.24-1.29a6.7,6.7,0,0,0,.65.82C101.85,47.61,97.69,25.3,97.52,25Z"/><path class="cls-5" d="M98.69,55.22c-.41,1.28-2.82,7.41-3.34,8.64A54.83,54.83,0,0,0,93.43,78.2c0,2-2.35,2.43-3.46,1.33a2.21,2.21,0,0,1-3.13-.42,11.24,11.24,0,0,1-1.66-3.25,2,2,0,0,1-.6-.39,6.33,6.33,0,0,1-1.45-7c.36-1.21,2.87-1.92,3.62-3,2.17-4.65,4.46-9.17,5.51-14.26A1.8,1.8,0,0,1,95,50a55.44,55.44,0,0,0,1.59-11.35A2.05,2.05,0,0,1,99.79,37a55.77,55.77,0,0,1-.61,12,.4.4,0,0,1,0,.15h0a.88.88,0,0,0,0-.16,51.83,51.83,0,0,0,1.38-10.41A1.79,1.79,0,0,0,99.79,37c-.11-2.48-1.11-4.72-1.41-7.18-.19-1.19-.78-2.32-1-3.46C97.29,25.77,98.94,55.34,98.69,55.22Z"/><path class="cls-5" d="M65.23,71.77v0h0c0-.18,0-.35-.06-.53a1.62,1.62,0,0,0-1.74-1.44,27.69,27.69,0,0,0-3.37-4.3.52.52,0,0,0-.11-.1C54.62,55.62,50.27,45.42,51.73,34a1.86,1.86,0,0,0-.06-.83c.08-.71.17-1.41.28-2.12.41-2.52-3.44-3.6-3.85-1.06a55.41,55.41,0,0,0,.65,22c.13,1.59.27,3.18.4,4.77,0,.61,0,1.21,0,1.81a44.85,44.85,0,0,1-8.84,20.16C36.77,81.16,32.92,85.45,30,89.19c-1.59,2,4.33,2.56,5.93.55,1.47-1.84.55-2.38,2.15-3.95a1.78,1.78,0,0,0,1.9-.51c1.13-1.18,2.18-2.41,3.18-3.67a24.36,24.36,0,0,1,3-1.71,2.08,2.08,0,0,0,3.25-1c0-.11.07-.22.11-.33a21.78,21.78,0,0,1,8.56-.72c.09.16.17.33.27.49a1.94,1.94,0,0,0,1.8,1c.73,1.36,3,.79,3.61-.55A1.7,1.7,0,0,0,65,77.4,16.18,16.18,0,0,0,65.23,71.77Z"/><path class="cls-5" d="M99.18,49a55.77,55.77,0,0,0,.61-12,1.79,1.79,0,0,1,.77,1.58A51.83,51.83,0,0,1,99.18,49Z"/><path class="cls-1" d="M78,196.08c-.29-3.18-5.3-3.21-5,0a1.62,1.62,0,0,0,0,.22,2.45,2.45,0,0,0-.89,1,2.61,2.61,0,0,0-4.29.15,20.56,20.56,0,0,0-.84,1.9,1,1,0,0,0-.07-.15,2.51,2.51,0,0,0-4.43.32,12.51,12.51,0,0,0-1-1.48c-1.1-1.43-3.29-1.79-4.32,0-.17.29-.3.59-.44.89a7,7,0,0,0-1.38-1.18,2.23,2.23,0,0,0-2.81.29L52.43,197c-.49-3.18-5.3-1.83-4.82,1.32l0,.21a1.77,1.77,0,0,1,1.83,1.87c0,1.47,0,3,0,4.46a1.43,1.43,0,0,1,.2.51c.27,1.91.25,3.8.33,5.72a1.2,1.2,0,0,0,.38,1.2,35.74,35.74,0,0,1,1,7,2.21,2.21,0,0,1,.37.7,7.56,7.56,0,0,1,.33,2.17l0,.3a1.87,1.87,0,0,1,.34,1c.11,1.74.35,3.48.54,5.21a1.08,1.08,0,0,1,0,.18c1.5,8.92.45,17.12-.18,26.23a2.55,2.55,0,0,0,.09.85c-.23,6.25,1.76,12.72,3.25,18.78a47.15,47.15,0,0,0,1,5.89c.68,2.73,1.59,4.64,4.61,5,2.52.3,5.4.76,6.66-2a17.08,17.08,0,0,0,1-7.07,2.83,2.83,0,0,0,.37-.59,44.92,44.92,0,0,0,3.55-13.45c-.25-3.75-.74-7.48-.83-11.23a1.7,1.7,0,0,1,.65-1.46,97.5,97.5,0,0,1-.87-9.86,73.78,73.78,0,0,1,2.18-10.05c.63-9.88,3.26-19.76,2.39-29.59a1.6,1.6,0,0,1,1.33-1.81C78.15,197.66,78.1,196.87,78,196.08Z"/><path class="cls-2" d="M76.42,197.92l-.45.23c-4.38-.22-9.26,1.29-13.65,1.56-.51,0-1,0-1.53,0-.2,0-.41,0-.62,0-3.9-.11-7.64-1-11.57-1.08h-.07a1.1,1.1,0,0,0-.93.25,1.73,1.73,0,0,1,1.62,1.37c.89,3.51.68,7,.83,10.57a1.83,1.83,0,0,1,.35.82,1.69,1.69,0,0,1,.16.48,179.22,179.22,0,0,1,2.71,19.59c.06.32.13.63.19.95l-.06.68c.08,1.07.15,2.14.2,3.2A1.67,1.67,0,0,1,53,238c-.34,4.1-.67,8.22-.73,12.32-.08,5.4,1,10.63,2.28,15.85.46,2.72,1.05,5.4,1.76,8.07.43,1.76.91,3.52,1.46,5.27a1,1,0,0,0,.27.43c.29.87.59,1.73.92,2.6a1,1,0,0,0,1.93-.53,247.88,247.88,0,0,1-4.21-32.66c.08-2.14.12-4.27.1-6.41.2-1,.41-2.05.67-3.08a1,1,0,0,0-.16-.82c.09-.49.17-1,.24-1.66a31.59,31.59,0,0,0-2-15.3c-2.32-6-2.85-13.86-1.39-16.3,3.86-6.43,14-3,22.85-5.59a.82.82,0,0,0,.79-.88l0,0C78.75,198.28,77.27,196.82,76.42,197.92Z"/><path class="cls-1" d="M90.74,60.31c4.5-8.45,7.36-17,7.63-26.54a2.77,2.77,0,0,0-.08-.73,19.52,19.52,0,0,0-6-14.1,18.51,18.51,0,0,0-1.58-2,22,22,0,0,0-19-7c-11,1.29-19.37,9.87-20.43,19.93a2.2,2.2,0,0,0-1.42,2.87c.3.92-.17,2,.13,3-.11,8.76,2.74,14.27,6.75,22a33.25,33.25,0,0,0,8.64,10.64c0,2,.35,6.66-.27,8.21a22.25,22.25,0,0,1-1.78,3.22c-.87,1.52-.09,3.36,1.86,3.18a12.32,12.32,0,0,0,3.55-.87c0,.13,0,.25,0,.37a2.54,2.54,0,0,0,3.76,2.16,3.44,3.44,0,0,0,1-.69,3.09,3.09,0,0,0,.6.39,2.53,2.53,0,0,0,3.67-1.5c.07-.29.13-.59.2-.89a3.08,3.08,0,0,0,1.59.09,2.37,2.37,0,0,0,2.26.59l3.3-.77c2-.45,2.26-2.83,1.11-4.18-1.5-1.75-2.74-6.34-3.46-8.47A25.69,25.69,0,0,0,90.74,60.31Z"/><path class="cls-6" d="M110.66,197.18l.13-.06c2.36-.67,4.77-1.21,7.13-1.91a16,16,0,0,0,.63-7.57,130.92,130.92,0,0,0-6.38-26.32c-1.24-3.51-6.75-2.14-5.88,1.29a2.77,2.77,0,0,0-.79-.14l-29.86-1.59c-4.64-.25-9.29-.52-13.93-.75-3.27-.16-6.27-.32-9.17.92a3.82,3.82,0,0,0-.51-.11c-3.12-.42-4.94,1-5.63,4-1.22,5.41-1,11.58-1,17.1-.06,5.09-.84,20.63,8.43,16.7a2.57,2.57,0,0,0,.55-.12,42.59,42.59,0,0,0,5.82.7A71,71,0,0,0,75,199.08a3.25,3.25,0,0,0,.47-.1,2.83,2.83,0,0,0,3-1.43c.74-1.72,1.45-3.44,2.17-5.15A20.24,20.24,0,0,0,81.64,196a3.15,3.15,0,0,0,2.85,3.61,52.51,52.51,0,0,0,12.46-.4c4.55-.7,8.88-2.28,13.53-2.19C110.53,197.09,110.6,197.13,110.66,197.18Z"/><path class="cls-7" d="M113.8,164.06c-1.87-3.21-5.64-1.46-8.46-.6-6.93,2.1-13.66,3.46-20.94,3.08-12.84-.66-25.24-4.44-38.16-2.49a1.24,1.24,0,0,0-1,1.68,1.71,1.71,0,0,0-.26,1.45.7.7,0,0,0,0,.14,6.9,6.9,0,0,0,0,3,1.49,1.49,0,0,0,2.23,1.26,1.34,1.34,0,0,0,.46-.11c5.13-2.08,10.59-1.57,16-1.21,5.83.39,11.65,1,17.49,1,1.71,0,3.41,0,5.11-.12a58.37,58.37,0,0,0,9.33-.71,23.53,23.53,0,0,0,3.27-.78c4.49-.79,8.95-1.79,13.42-2.85a1.3,1.3,0,0,0,.94-.73A1.41,1.41,0,0,0,113.8,164.06Z"/><path class="cls-3" d="M94.49,76.37a8.9,8.9,0,0,0-3.1.75c-9.69,4.83-17.86,6.26-28,3.52a18.72,18.72,0,0,0-2.92-1.85c-3.54-1.72-5.34-1.23-8.79-1.27a20.1,20.1,0,0,0-11,4.81c-6.29,6.18-7.38,18.81-10,26.83-.37,1.17-.66.57,0,1.22a2.8,2.8,0,0,0,3.46,1.76c.37-.1.82.31,1.18.24,5.65,1.79,11.28,3.77,16.93,5.56.66.21,1.17-.51,1.68-.69.84,14.31-4.62,29.8-13.54,42.3-1.33,1.87.46,4.57,2.59,4.51q7.36-.18,14.72-.52c7.29,1.32,14.56,3.26,22,3.47a94,94,0,0,0,33.16-5.21,3,3,0,0,0,2-3c-1.59-1.86-2.12-4.27-3-6.51-.44-1.2-1.23-2.25-1.67-3.44a12.76,12.76,0,0,1-.48-3.54,1.26,1.26,0,0,1,.37-1c-3.1-9.64-6.88-22.48-8-30.92a3.21,3.21,0,0,0,2.21-.31c3.24-1.85,6.65-3.53,9.76-5.6a24.41,24.41,0,0,0,6.58-5.7C118.68,98.83,115.35,75.62,94.49,76.37Z"/><path class="cls-8" d="M58.1,95.5c-.08-.62-1.05-.65-1,0a1.09,1.09,0,0,0,0,.18.44.44,0,0,0-.3.45c.09,3.92.07,7.8-.19,11.67-.69,3.08-1.16,7.38-3.49,9.49-.48.43.23,1.14.71.71A7.28,7.28,0,0,0,55,116.61l-.17.41a.49.49,0,0,0-.26.22,3.58,3.58,0,0,0-.33.61.49.49,0,0,0-.21.38c0,1.1,0,2.19,0,3.28,0,.1,0,.2,0,.3h0s0,.09,0,.13a.4.4,0,0,0,.08.29c0,.47.05.93.08,1.39-.1,1-.21,2-.35,3-.45,2.5-1,5-1.57,7.44-.12.45-.25.91-.38,1.36-.68,2-1.33,4-1.81,6a1,1,0,0,0,0,.17c-.43,1-.85,2-1.26,3a16.16,16.16,0,0,0-2,3.8q-2.77,4.43-5.11,9.11l-.06.09-1.52,2.28s0,0,0,.06q-.22.31-.42.63a.52.52,0,0,0,.47.76.44.44,0,0,0,.73.06,62.91,62.91,0,0,0,8.69-12.33c1.26-2.26,2.44-4.56,3.6-6.87a20.61,20.61,0,0,0,1.63-3.73v-.1a7.53,7.53,0,0,0,.23-1.59l1.28-8.67a.61.61,0,0,0,.15-.3c.18-1.4.35-2.81.51-4.21.61-4.16,1.57-13.09,1.28-13.08A66.21,66.21,0,0,0,58.1,95.5Z"/><path class="cls-8" d="M59.05,144.86a104.83,104.83,0,0,1-7.45,9.37c-2.29,2.56-5.59,7.18-9.05,8a.49.49,0,0,0,0,.93h0c0,1.14,1.14,1.34,2.17,1.39a.49.49,0,0,0,.82.48l.42-.44a41.37,41.37,0,0,0,8.82-.58.49.49,0,0,0,.37-.48,56.15,56.15,0,0,1,4.81-18.15A.5.5,0,0,0,59.05,144.86Z"/><path class="cls-8" d="M67.38,164.65l-.06-.19a.52.52,0,0,0-.38-.33,2.62,2.62,0,0,0,.28-.53,1.79,1.79,0,0,0-.81-2.15v0c-.17-1.21-.31-2.43-.43-3.65q-.28-3.08-.33-6.18,0-1.64,0-3.27c.41-3.48.76-7,1-10.48,0-.56-.9-.69-1-.13a84.68,84.68,0,0,0-1,10.29c-.27,2.34-.59,4.67-.94,7a.43.43,0,0,0-.06.22v.14c-.43,2.84-.93,5.68-1.5,8.5a.52.52,0,0,0,.87.48.45.45,0,0,0,.36.17h.26a.47.47,0,0,0,.2.06l.82.12.24.14c0,.08,0,.16,0,.24a.53.53,0,0,0,.92.15.41.41,0,0,0,.19,0,.47.47,0,0,0,.2-.06,1.51,1.51,0,0,0,.23.21.51.51,0,0,0,.61-.08l.11-.12A.5.5,0,0,0,67.38,164.65Z"/><path class="cls-8" d="M75.44,164.07a71.24,71.24,0,0,1-.41-7.29c0-.55-.88-.71-1-.14l-.93,5.05a20.45,20.45,0,0,1-1.1,4.85c-.26.59.6,1.09.87.51,0-.07,0-.15.08-.22a.48.48,0,0,0,.31.13l.21,0c.26.33.67.45,1.32.2C76.08,166.65,75.56,165.1,75.44,164.07Z"/><path class="cls-8" d="M111.1,161.14c-3.48-2-5.63-5.76-7.65-9.1A80.15,80.15,0,0,1,98,141.16a.53.53,0,0,0-.56-.32.48.48,0,0,0-.68.45,88.06,88.06,0,0,0,3.88,23.23.51.51,0,0,0,1,0s.06,0,.09,0A20,20,0,0,0,111.1,162,.51.51,0,0,0,111.1,161.14Z"/><path class="cls-8" d="M103.39,113a2.06,2.06,0,0,0,.26,0c2.23.08,4.72-2.36,6.31-3.67a.51.51,0,0,0-.1-.79c-5.85-3.6-9.08-9.75-12.09-15.69-.29-.58-1.16-.07-.87.5.19.36.37.72.55,1.08a.48.48,0,0,0-.52.48,82.3,82.3,0,0,0,3.59,18.2l.51,2.58a.37.37,0,0,0,.08.19c.22,1,.43,2,.67,3a.42.42,0,0,0,.3.34l.63,2.88c.14.64,1.08.36,1-.26-.17-1-.36-1.93-.55-2.89a.57.57,0,0,0,.09-.4c-.29-2.06-.6-4.11-1-6.14.09.22.17.43.27.65A.51.51,0,0,0,103.39,113Z"/><path class="cls-8" d="M57.53,77.84a3.18,3.18,0,0,0-2.88-.68c-4.44-.42-9.34,1.67-12.64,4.28A19.29,19.29,0,0,0,35.6,91a.4.4,0,0,0-.49.35,119.12,119.12,0,0,1-2.67,13.54c-.51,1.2-1,2.38-1.65,3.54a.51.51,0,0,0,.46.75.5.5,0,0,0,.2.23,32.6,32.6,0,0,0,3.07,1.68.5.5,0,0,0,.72-.33,6.07,6.07,0,0,0,1,.43c-.05.45,1,.3,1,.31C34.86,75.92,58.2,78.11,57.53,77.84Z"/><path class="cls-8" d="M49.72,98.65a88.83,88.83,0,0,1-4.34,15.26,1.72,1.72,0,0,0,.45.73c2.6,1.84,3.05-.56,3.39-2.79.66-4.3.56-8.67,1.47-12.93C50.81,98.29,49.86,98,49.72,98.65Z"/><path class="cls-7" d="M56.72,166.82A1.38,1.38,0,0,0,54.6,166l-.26.22A5.12,5.12,0,0,0,50,168.45a8.77,8.77,0,0,0-.18-.86,1.49,1.49,0,0,0-1-1c-.07-1.65-2.64-2.26-2.91-.47a45.73,45.73,0,0,0-.42,4.8,44.88,44.88,0,0,0-.5,7.43A80.36,80.36,0,0,0,46.39,196,1.28,1.28,0,0,0,47.93,197a1.84,1.84,0,0,0,1.79.1,1.55,1.55,0,0,0,1.16-.06,1.68,1.68,0,0,0,2-1.45,92.13,92.13,0,0,1,5.57-27C58.88,167.4,57.73,166.65,56.72,166.82Z"/><path class="cls-9" d="M77.42,195c-9.33.08-18.91-.42-28.23.43a1.41,1.41,0,0,0-2-.66,2.55,2.55,0,0,0-1.33,1.69,1.36,1.36,0,0,0,.61,1.59c2.21,2.9,6.53,2.06,9.85,2.09,6.52.06,13-.14,19.54-.53a1.49,1.49,0,0,0,1.42-1.37,6.25,6.25,0,0,0,.94-.45A1.51,1.51,0,0,0,77.42,195Z"/><path class="cls-7" d="M90.61,194.69c-1.55-2.06-3.07-4.15-4.42-6.33-.88-1.68-1.66-3.42-2.43-5.17a.38.38,0,0,0-.31-.25,23.72,23.72,0,0,1-1.09-3.47.44.44,0,0,0-.31-.33.49.49,0,0,0-.74.42c0,.16,0,.32,0,.48a.49.49,0,0,0-.62.47c0,1.21.08,2.42.18,3.61-.08.81-.21,1.61-.27,2.44a34.09,34.09,0,0,0,.08,6.06.56.56,0,0,0,.18.35,8.77,8.77,0,0,0,.69,2,.52.52,0,0,0,.85,0c.1.18.2.36.31.54a.53.53,0,0,0,.47.23h0a.51.51,0,0,0,.93-.18c.09.27.16.54.25.8a.5.5,0,0,0,.81.23.49.49,0,0,0,.79-.5c-.16-.53-.3-1.07-.45-1.6l.21.45a.58.58,0,0,0,.23.48h0a.49.49,0,0,0,.79.08l.56-.06.32.11a.88.88,0,0,0,.26.19.48.48,0,0,0,.45,0,.43.43,0,0,0,.39-.33h0a1.69,1.69,0,0,1,.93-.37l.15.17C90.2,195.7,91,195.16,90.61,194.69Z"/><path class="cls-9" d="M118.85,191a1.52,1.52,0,0,0-1.85-1,201.62,201.62,0,0,1-20,4l-13.16,1.47a1.49,1.49,0,0,0-2.64.46c-1.61,6.23,9.9,4.65,12.72,4.34,4.62-.52,9.2-2,13.77-2.91,3-.57,7.55-.59,9.73-3a1.29,1.29,0,0,1,.79-1.05A2.16,2.16,0,0,0,118.85,191Z"/><path class="cls-9" d="M115.62,176.18a5.63,5.63,0,0,0-.62-.71.55.55,0,0,0-.47-.59l-1.43-.37a.45.45,0,0,0-.23,0,21.31,21.31,0,0,1-4.82-2c-3.06-1.88-5.87-4.23-8.75-6.38a.46.46,0,0,0-.71.32.45.45,0,0,0-.2.67,19.43,19.43,0,0,0,6.39,6.33c2.75,1.74,6,3.56,9.33,3.28a.45.45,0,0,0,.23-.08,1.8,1.8,0,0,0,.85.27A.5.5,0,0,0,115.62,176.18Zm-14.12-7.09a55.84,55.84,0,0,0,6.33,4.48A19.51,19.51,0,0,1,101.5,169.09Z"/><path class="cls-9" d="M62,165.55a.52.52,0,0,0-.62-.34,3,3,0,0,0-.59.15.51.51,0,0,0-.7-.21c-2.07,1.21-3,3.71-4.8,5.27-.63.53-1.44,1.16-2.33,1.78a.49.49,0,0,0-.63.43c-.54.36-1.1.7-1.67,1-.95.37-1.9.72-2.84,1.12a5.28,5.28,0,0,1-2.11.12c-.63-.12-.9.84-.27,1a2.83,2.83,0,0,0,.29,0,.55.55,0,0,0,0,.4l-.06,0c-.63.12-.36,1.09.27,1s1.05-.25,1.56-.4a10.63,10.63,0,0,0,2.64-.69,30.94,30.94,0,0,0,6-2.81C58.94,171.61,62.54,169.32,62,165.55Z"/><path class="cls-9" d="M81.46,174.47c-.07-.63-1.07-.64-1,0,.5,4.49.76,9,.81,13.51a.41.41,0,0,0-.1.32l.11,1.21a.5.5,0,0,0,1,0A132.6,132.6,0,0,0,81.46,174.47Z"/><path class="cls-9" d="M84.38,172.57c-.33-.75-1.13-1.63-2-1.56a1,1,0,0,0-1,.67l0,.06a1.29,1.29,0,0,0,.62,2l.13,0a1.15,1.15,0,0,0,.25.12,1.58,1.58,0,0,0,.89.41A1.14,1.14,0,0,0,84.38,172.57Z"/><path class="cls-2" d="M82.39,69.55C77,71,72.2,71.71,66.91,70c-.21-.07-1.37-.91-1.54-.85-.47-.13-.14,1.59-.29,2.21a28.93,28.93,0,0,0-.25,3.72c-.17,1.53-.49,3.52-1.51,4.66-.58.65-.47.9.16,1.08a1.08,1.08,0,0,0,.9.6,16.27,16.27,0,0,0,3.64-.1h.1c5.79-.8,10.63-4.46,15.2-8.2a.91.91,0,0,0,.13-.16C83.43,72.3,83.57,69.24,82.39,69.55Z"/><path class="cls-2" d="M66.89,238.47c-.63,1.89-1.14,4.83-2.73,6.35a6,6,0,0,1-4.62.64,1,1,0,0,0-.53,1.92,8,8,0,0,0,3.79.09.79.79,0,0,0,.74,0,5.51,5.51,0,0,0,1.55-.91l.1-.05c.33.73,3.12-5,3.63-7.54A1,1,0,0,0,66.89,238.47Z"/><path class="cls-2" d="M98.31,46.37A52.76,52.76,0,0,0,94,34.86a.43.43,0,0,0,.28-.68l-5.76-7.69a.54.54,0,0,0-.77-.09,21.48,21.48,0,0,0-2.18-2.08c-.5-.41-.24-1.78-.58-2,0,0-.92-1-1-1-.39-.43-.42,2.89-.81,2.46a.46.46,0,0,0-.73.07c-.91-.69-1.85-1.35-2.84-2a.42.42,0,0,0-.53,0c-.75-.53-1.48-1.07-2.21-1.63-1.33-1.37-2.57-2.83-3.79-4.3,0-.1.09-.19.13-.3h0s0-.08,0-.12c.18-.49-.38-.72-.74-.53a.52.52,0,0,0-.65.47c0,.09,0,.19,0,.28-1.12,1.47-2.27,2.93-3.49,4.33q-1.83,1.27-3.62,2.6l-.07,0-.12.05h0l-.09,0c-.51.22-1,.47-1.5.71a.46.46,0,0,0-.41,0c-1.72.9-3.39,1.87-5,2.88a.53.53,0,0,0-.8-.16l-7.54,6.26c-.14.12.38,3.27.79,3.1,8.4-3.5,18.88-8.39,22.43-17.38a10.38,10.38,0,0,0,3.09,3.64c1.53,1.23,3.15,2.35,4.77,3.47.29.26.57.53.86.78a.49.49,0,0,0,.42.12c.64.44,1.28.9,1.9,1.36A40.06,40.06,0,0,1,93.36,38c.17.33.33.66.49,1a.41.41,0,0,0,.21.2,33.73,33.73,0,0,1,3,6.71.52.52,0,0,0,.14.21c0,.16.08.32.13.48C97.5,47.26,98.47,47,98.31,46.37Z"/><path class="cls-5" d="M28.89,63.88c-.89,2.24-5,5.63-5,5.64-2.19,3.64-7.62,2.79-9.48,1.5a.43.43,0,0,0,0-.45A17.39,17.39,0,0,1,13.55,69a.46.46,0,0,0,0-.39c-.23-.78-.43-1.57-.62-2.36a19.32,19.32,0,0,0,.1-2.53.41.41,0,0,0,.15-.37,21.21,21.21,0,0,1,.11-3.3l.18-.63c.13-.44.27-1.14.44-1.88a32.93,32.93,0,0,1,1.55-3.3.49.49,0,0,0,0-.39c.22-.32.43-.64.67-.94s-2.34.28-2.36.34a19.87,19.87,0,0,0-2.53,3,9.07,9.07,0,0,0-1,1.49,3.93,3.93,0,0,0-.44,2.64A13.27,13.27,0,0,0,12,70a7.75,7.75,0,0,0,5,3.11c3.12.47,4.93-1.89,7.66-2.8a.49.49,0,0,0,.35-.46,17.54,17.54,0,0,0,3.93-6Z"/><path class="cls-4" d="M100.91,43.64l-1-5.64a35.48,35.48,0,0,0-4.35-17.28c-1.42-2.55-5.34-9.25-9.09-8.92a5.65,5.65,0,0,0-4-1.64l-.27-.23-.13-.24a1.53,1.53,0,0,0-2.21-.41,1,1,0,0,0-.28.11,1.82,1.82,0,0,0-1.49.29l0-.1a1.48,1.48,0,0,0-2.39-.7c-.54-.07-1.09-.11-1.65-.13a1.57,1.57,0,0,0-2.93.15,11.28,11.28,0,0,0-6.3,2.78c-6.95,2.86-12.57,9.1-15.93,15.65-.32.53-.64,1.07-.94,1.61s-.88,1.11-1.3,1.68h0l-.23.3a1.4,1.4,0,0,0,1,2.17c-.18.44-.36.87-.52,1.31s.22.65.55.6a43,43,0,0,0-3.48,8c-.21.61.75.87,1,.26,1.42-4.14,3-8.45,6.08-11.69,2.73-2.9,6.38-4.58,9.88-6.34a33.85,33.85,0,0,0,7.4-4.8c2.23-1.3,4.08-3,3.81-5.32.07-.17.13-.33.19-.5.36,2.75,2.48,4.27,5.62,6.44,1.81,1.75,9.87,5.14,11.76,7.31,4.32,4.94,8.33,19.52,8.74,22.08.09.56,4.2,5.79,3.92,4.35C102.11,54,101,44.35,100.91,43.64Z"/><path class="cls-5" d="M49.61,34.23a11.63,11.63,0,0,0-2.46,3,27.6,27.6,0,0,1-3,3.89c-3.35,2.81-7.69,4.62-9.86,8.59A12.78,12.78,0,0,0,34,61.25a.41.41,0,0,0,.33.24.48.48,0,0,0,.15.22.5.5,0,0,0,.33.13h.07a.51.51,0,0,0,.37-.84,14.67,14.67,0,0,1,1.09-7.91c1.3-2.75,3.67-4.41,6.13-6,2.68-1.78,5.34-3.79,6.29-6.81l.1-.11a.52.52,0,0,0,.08-.55c0-.08,0-.18,0-.26a.51.51,0,0,0,.14-.67.51.51,0,0,0,0-.59.51.51,0,0,0-.82-.54l-.35.35c.69-1.07.4-1.72,1.42-2.54C49.85,34.93,50.11,33.83,49.61,34.23Z"/><path class="cls-2" d="M83.46,34.41a5,5,0,0,0-2,.68.52.52,0,0,0-.28-.09.56.56,0,0,0-.23,0,.39.39,0,0,0-.41.15c-1.07,1.33-3,3.27-2.74,5.16.23,1.6,1.92,2.58,3.27,3.13,2.54,1,8.34,1.33,8.92-2.46C90.47,37.76,86.59,34.14,83.46,34.41ZM82.74,43a6.08,6.08,0,0,1-2.48-1,.42.42,0,0,0,0-.47c-2-2.84,1.49-6.75,4.59-6a5.26,5.26,0,0,1,2.94,2.1c-.58-.2-.83.74-.24,1s.09,1.53,0,1.94c0,.1,0,.41-.1.74,0,.06-.06.12-.1.18a.39.39,0,0,0,0,.42,3.47,3.47,0,0,1-.55.6.47.47,0,0,0-.11.48l-.47.12A8.26,8.26,0,0,1,82.74,43Z"/><path class="cls-10" d="M87.72,37.27a3,3,0,0,0-1.63-1.94,4.66,4.66,0,0,0-3-.68h-.06a4.09,4.09,0,0,0-3.86,4.59,5.4,5.4,0,0,0,4.08,4.69,2.72,2.72,0,0,0,1.37-.1,4,4,0,0,0,1.69-.75A5,5,0,0,0,87.72,37.27Z"/><path class="cls-11" d="M86.18,37a3.35,3.35,0,0,0-.53-.19,2.15,2.15,0,0,0-.81-.32,2,2,0,0,0-1.72.49,2.33,2.33,0,0,0-.89,2.48,4,4,0,0,0,.46,1,2.52,2.52,0,0,0,3.69.94C87.73,40.39,87.77,37.84,86.18,37Z"/><path class="cls-12" d="M86.4,38.9c0-.06,0-.11,0-.16a1.18,1.18,0,0,0-.63-.79,1.24,1.24,0,0,0-1.74.37,1.34,1.34,0,0,0-.15,1.08,1.23,1.23,0,0,0,1,1.18l.13,0a1.21,1.21,0,0,0,1-.17,1.61,1.61,0,0,0,.43-1.53Z"/><path class="cls-10" d="M85.62,37.82a.5.5,0,0,0,0,1A.5.5,0,0,0,85.62,37.82Z"/><path class="cls-2" d="M77,48.77c-.1-.26-.18-.52-.26-.78l-.12-1.57a.48.48,0,0,0-.11-.28c0-2.44.06-4.88.16-7.32,0-.47-.73-.71-.94-.25a12.94,12.94,0,0,0-.55,7.19.59.59,0,0,0,0,.23c0,.13.07.24.09.37.13.73.27,1.45.41,2.15,0,.08,0,.15,0,.23a3.35,3.35,0,0,1,0,.71,1.2,1.2,0,0,1-1.17.45,4.91,4.91,0,0,1-.92-.08l-.26-.08a.44.44,0,0,0-.3,0h0c-.64-.07-.64.93,0,1H73a3.43,3.43,0,0,0,3.08.46,1.38,1.38,0,0,0,1.09-.66A2.24,2.24,0,0,0,77,48.77Z"/><path class="cls-1" d="M91,39.29c-1.29-2.31-3.28-4.66-6.06-5a7.37,7.37,0,0,0-5.07,1.36A26.16,26.16,0,0,0,77.55,37a.5.5,0,0,0,.36.92.48.48,0,0,0,.71,0A12.5,12.5,0,0,1,80.5,36.4a7.37,7.37,0,0,1,4-.92c2.62.24,4.2,2.56,5.75,4.41C90.58,40.34,91.26,39.77,91,39.29Z"/><path class="cls-12" d="M90.7,40c-1-2.27-3.44-4.86-6-5.22-2.78-.39-5.38,1.43-7,3.53-.39.51.48,1,.86.5,1.64-2.17,4.42-3.78,7.15-2.62a8.58,8.58,0,0,1,4.11,4.31C90.09,41.12,91,40.61,90.7,40Z"/><path class="cls-2" d="M63.08,34.32a4.71,4.71,0,0,0-2,.68.52.52,0,0,0-.28-.09.56.56,0,0,0-.23.05.39.39,0,0,0-.41.15c-1.07,1.33-3,3.27-2.74,5.15.23,1.61,1.92,2.58,3.27,3.13,2.54,1,8.34,1.34,8.92-2.46C70.09,37.66,66.21,34,63.08,34.32Zm-.72,8.57a6.1,6.1,0,0,1-2.48-1,.41.41,0,0,0,0-.46c-2-2.84,1.49-6.75,4.59-6a5.25,5.25,0,0,1,2.94,2.09c-.58-.19-.83.74-.24,1s.09,1.53,0,1.93c0,.1,0,.42-.1.75,0,.06-.06.12-.1.17a.41.41,0,0,0,0,.43,4.39,4.39,0,0,1-.55.6.47.47,0,0,0-.11.48l-.47.11A8.26,8.26,0,0,1,62.36,42.89Z"/><path class="cls-10" d="M67.34,37.18a3,3,0,0,0-1.63-1.94,4.59,4.59,0,0,0-2.95-.68H62.7a4.09,4.09,0,0,0-3.86,4.59,5.41,5.41,0,0,0,4.08,4.69,2.72,2.72,0,0,0,1.37-.1A4,4,0,0,0,66,43,5,5,0,0,0,67.34,37.18Z"/><path class="cls-11" d="M66,37.16a2.33,2.33,0,0,0-.52-.2,2.22,2.22,0,0,0-.81-.32,2,2,0,0,0-1.73.5A2.31,2.31,0,0,0,62,39.61a3.15,3.15,0,0,0,.46,1,2.52,2.52,0,0,0,3.69.94C67.53,40.52,67.56,38,66,37.16Z"/><path class="cls-12" d="M66.39,38.93l0-.16a1.12,1.12,0,0,0-.63-.78,1.23,1.23,0,0,0-1.74.36,1.34,1.34,0,0,0-.14,1.08,1.22,1.22,0,0,0,1,1.18l.14,0a1.22,1.22,0,0,0,1-.17,1.16,1.16,0,0,0,.45-.91A1.18,1.18,0,0,0,66.39,38.93Z"/><path class="cls-10" d="M65.37,37.68a.5.5,0,0,0,0,1A.5.5,0,0,0,65.37,37.68Z"/><path class="cls-12" d="M70.32,39.93c-1-2.27-3.44-4.86-6-5.21-2.78-.39-5.38,1.42-7,3.52-.39.52.48,1,.86.51,1.64-2.17,4.42-3.79,7.15-2.62a8.58,8.58,0,0,1,4.11,4.31C69.71,41,70.57,40.52,70.32,39.93Z"/><path class="cls-10" d="M126,284.49a1,1,0,0,0,0,2A1,1,0,0,0,126,284.49Z"/><path class="cls-10" d="M104.34,281.64c-3.41.83-6.83,1.42-10.18.13a2.89,2.89,0,0,1-.59-.08.58.58,0,0,0-.33.47v1.72a.47.47,0,0,0,.56.47.35.35,0,0,0,.11.13c1.86,1.45,4.15,1.42,6.4,1.14,2.72-.35,4-.66,4.66-3.37A.51.51,0,0,0,104.34,281.64Z"/><path class="cls-11" d="M117.56,292.87c0-2.52-4.09-5.2-5.68-6.12a16.43,16.43,0,0,0-5.36-2.39,5.78,5.78,0,0,0-1.17,0c-.36-.12-.72-.23-1.09-.33a.48.48,0,0,0-.6.42,11.91,11.91,0,0,1-4.39,1.12c-1.46.08-4.27.08-5-1.45a.44.44,0,0,0-.7-.13.42.42,0,0,0-.52.22,7.92,7.92,0,0,0-.9,3.66,5.88,5.88,0,0,0,.17,1.26,5.4,5.4,0,0,0,.8,3.35.44.44,0,0,0,.2.58,9.26,9.26,0,0,0,3.86.91c2.68,1.89,7.08,2.68,9.46,2.87a9.79,9.79,0,0,0,1.83-.06c2.61,1,6.45.66,8.4-1A2.35,2.35,0,0,0,117.56,292.87Z"/><path class="cls-13" d="M107.81,296a.5.5,0,0,0-.12-.91c-2-.49-4.15-.55-6.16-1.16a18.25,18.25,0,0,1-5.79-3,21.94,21.94,0,0,1-1-6.2.49.49,0,0,0-.35-.45.53.53,0,0,0-.86-.39c-2.41,2.09-1.23,5.92-.42,8.52a.46.46,0,0,0,.48.35,2.76,2.76,0,0,0,2.09.86c.59.15,1.2.26,1.8.39a13.65,13.65,0,0,0,5.07,1.82c1.35.8,3.63,1.8,5.08,1a.51.51,0,0,0,.15-.71Z"/><path class="cls-11" d="M111,286.06a3.93,3.93,0,0,0-2.43-.49.44.44,0,0,0-.2-.58,15,15,0,0,1-1.53-.95,1.23,1.23,0,0,1-.53-.77,1.68,1.68,0,0,0-.29-.5.52.52,0,0,0-.71,0l-.72.63a.5.5,0,0,0,.1.78l2.21,1.36a.43.43,0,0,0,.45,0l.4.24a4.45,4.45,0,0,0-2.71,3.46,3.69,3.69,0,0,0-2.53,1.81c-1,1.68-.56,4.62,1.44,5.47a15.8,15.8,0,0,0,3.71,1.27,15.87,15.87,0,0,0,3.84-.18c2.2-.11,4.28.74,6.32-.64a4,4,0,0,0,2-3.45C119.29,288.57,114.56,288,111,286.06Z"/><path class="cls-13" d="M115.53,291.94c-.94-1.47-3.27-2-4.69-2.89a32.81,32.81,0,0,1-2.93-2.14,17.38,17.38,0,0,0-2.62-2.54,1.86,1.86,0,0,0-1.06-.35A.43.43,0,0,0,104,284a1.34,1.34,0,0,0-1-.3,11.5,11.5,0,0,0-3.17.67c-.49.18-1.27.56-1,1.21a.05.05,0,0,0,0,0,.46.46,0,0,0,.27.72c3,.75,5.86,2.9,8.35,4.71a11.32,11.32,0,0,0,3.14,2.06,2,2,0,0,0,1.79.92,4.59,4.59,0,0,0,3.13-1.55A.52.52,0,0,0,115.53,291.94Z"/><path class="cls-13" d="M109.85,297c-.1-.76-1.25-.91-1.84-1.06a46,46,0,0,1-6.15-2.1.5.5,0,0,0-.64.14l-.63-.21a.5.5,0,0,0-.27,1,17.25,17.25,0,0,1,2.79,1.2.45.45,0,0,0,.23.32,7.76,7.76,0,0,0,1,.47c1.54.72,4.26,1.8,5.22,1.1A.54.54,0,0,0,109.85,297Z"/><path class="cls-10" d="M119.27,292.17c-1.06-1.46-2.76-1.46-4.46-.74a.48.48,0,0,0-.48-.54l-1.88,0c.06-.19.09-.38.16-.57a.44.44,0,0,0-.35-.59.45.45,0,0,0-.43-.27c-.8,0-1.6,0-2.41.05q0-.6.06-1.2a.52.52,0,0,0-.37-.49q-1.06-.19-2.13-.33c0-.42.07-.84.13-1.25a.54.54,0,0,0-.25-.53.48.48,0,0,0-.5-.18c-.46.1-.94.23-1.43.36a7.41,7.41,0,0,1,.35-1.26c.22-.6-.74-.86-1-.27a8.35,8.35,0,0,0-.44,1.79,7.37,7.37,0,0,1-2,.22c-.64,0-.64,1,0,1a7.76,7.76,0,0,0,1.9-.19c0,.18,0,.35,0,.53a.5.5,0,0,0,.5.5c.53,0,1.06.1,1.59.16,0,.1,0,.21,0,.31,0,.61-.17,1.3.33,1.71a.39.39,0,0,0,.45.29l1.67-.1c0,.25,0,.51-.07.77,0,.41.35.55.65.44a.49.49,0,0,0,.25.07l2,0a11.51,11.51,0,0,0-.13,1.18.47.47,0,0,0,.63.46,8.67,8.67,0,0,0-2.38,3.38,35,35,0,0,1-7.88-2.05c-1.25-.51-2.4-1.24-3.65-1.73-.75-.3-4-.47-4.18-1a.5.5,0,0,0-1,.27c.25.86.74,1,1.58,1.18a18.05,18.05,0,0,1,3.58.65c.94.37,1.83.94,2.77,1.34a40.85,40.85,0,0,0,11.34,2.67.41.41,0,0,0,.23,0,10.5,10.5,0,0,0,5.55-1.26C119.3,296,120.51,293.89,119.27,292.17ZM106,287.37l-1.17-.13c0-.1,0-.2,0-.31l1.25-.32Zm2.44,2.18-1.55.1a.34.34,0,0,0-.09-.08s.07-.64.11-1.1c.52.08,1,.15,1.57.24C108.45,289,108.43,289.27,108.42,289.55Zm3,1.31-2.08,0,0-.35c.72,0,1.45,0,2.17,0C111.48,290.58,111.43,290.72,111.4,290.86Zm.63,2.35a.43.43,0,0,0,0-.17,11.32,11.32,0,0,1,.14-1.17h1.68A11.3,11.3,0,0,0,112,293.21Z"/><path class="cls-14" d="M119.67,293.25v-.08a.5.5,0,0,0-1-.13c-.59,2.16-2.18,3.27-4.25,3.86a14,14,0,0,1-4.74.13.43.43,0,0,0-.38.17c-3.1-.12-6.17-.3-9-1.81a29.58,29.58,0,0,0-3-1.54c-1.41-.55-3.06-.53-4.1-1.76-.42-.49-1.12.22-.71.71,1,1.12,1.74,1.19,3.08,1.55a26.8,26.8,0,0,1,4.9,2.25c3,1.54,6.5,1.5,9.83,1.65a.44.44,0,0,0,.37-.17h.07a.41.41,0,0,0,.43.26,24.2,24.2,0,0,0,3.07.05,11.21,11.21,0,0,0,3-1,4.31,4.31,0,0,0,2.66-3.71A.42.42,0,0,0,119.67,293.25Z"/><path class="cls-10" d="M68.34,283.14c-3.51.86-7,1.48-10.46,0-.31-.13-.63.19-.63.48l0,1.72a.48.48,0,0,0,.57.47.33.33,0,0,0,.1.14c1.86,1.44,4.15,1.42,6.41,1.13,2.72-.34,4-.66,4.65-3.37A.51.51,0,0,0,68.34,283.14Z"/><path class="cls-11" d="M81.57,294.37c0-2.51-4.1-5.2-5.69-6.12a16.45,16.45,0,0,0-5.36-2.39,5.78,5.78,0,0,0-1.17,0c-.36-.11-.71-.23-1.08-.33a.49.49,0,0,0-.61.43A12.26,12.26,0,0,1,63.27,287c-1.45.07-4.27.08-5-1.45a.44.44,0,0,0-.7-.14.41.41,0,0,0-.52.23,7.74,7.74,0,0,0-.91,3.65,6.48,6.48,0,0,0,.17,1.26,5.52,5.52,0,0,0,.8,3.36.43.43,0,0,0,.2.57,9.16,9.16,0,0,0,3.87.91c2.67,1.89,7.07,2.69,9.45,2.87a9.91,9.91,0,0,0,1.84-.06c2.6,1,6.44.66,8.39-1A2.37,2.37,0,0,0,81.57,294.37Z"/><path class="cls-13" d="M71.81,297.52a.51.51,0,0,0-.11-.92c-2-.49-4.15-.55-6.17-1.16a18.25,18.25,0,0,1-5.79-3,21.57,21.57,0,0,1-1-6.19.49.49,0,0,0-.36-.45.53.53,0,0,0-.86-.4c-2.41,2.1-1.23,5.93-.42,8.52a.46.46,0,0,0,.48.35,2.75,2.75,0,0,0,2.1.86c.58.16,1.19.26,1.79.39a13.66,13.66,0,0,0,5.07,1.83c1.36.79,3.63,1.79,5.08.95a.51.51,0,0,0,.15-.71Z"/><path class="cls-11" d="M75,287.56a3.91,3.91,0,0,0-2.42-.49.44.44,0,0,0-.21-.58,13.43,13.43,0,0,1-1.53-.95,1.24,1.24,0,0,1-.53-.77,1.36,1.36,0,0,0-.29-.49.49.49,0,0,0-.7,0l-.72.62a.5.5,0,0,0,.1.78l2.2,1.36a.43.43,0,0,0,.45,0c.14.07.27.15.4.23A4.47,4.47,0,0,0,69,290.76a3.66,3.66,0,0,0-2.53,1.8c-1,1.69-.56,4.62,1.44,5.48a16.41,16.41,0,0,0,3.71,1.26,16,16,0,0,0,3.85-.18c2.19-.11,4.27.75,6.31-.64a4,4,0,0,0,2-3.45C83.3,290.07,78.57,289.54,75,287.56Z"/><path class="cls-13" d="M79.53,293.44c-.94-1.46-3.27-2-4.69-2.89a31.78,31.78,0,0,1-2.93-2.14,17.39,17.39,0,0,0-2.62-2.54,2,2,0,0,0-1.06-.35.48.48,0,0,0-.26-.06,1.33,1.33,0,0,0-.94-.3,11.49,11.49,0,0,0-3.18.67c-.48.18-1.27.56-1,1.22l0,0a.47.47,0,0,0,.28.72c3,.75,5.85,2.9,8.34,4.71a11.32,11.32,0,0,0,3.14,2.06,2,2,0,0,0,1.79.92,4.51,4.51,0,0,0,3.13-1.55A.47.47,0,0,0,79.53,293.44Z"/><path class="cls-13" d="M73.85,298.46c-.1-.76-1.25-.91-1.84-1.06a44.58,44.58,0,0,1-6.15-2.1.52.52,0,0,0-.64.14c-.21-.07-.41-.15-.63-.21a.5.5,0,0,0-.26,1,17.53,17.53,0,0,1,2.78,1.2.47.47,0,0,0,.23.33,7,7,0,0,0,1,.46c1.55.72,4.26,1.8,5.22,1.1A.53.53,0,0,0,73.85,298.46Z"/><path class="cls-10" d="M83.27,293.68c-1.06-1.46-2.75-1.46-4.46-.75a.47.47,0,0,0-.47-.54l-1.88,0c.05-.19.09-.38.15-.57a.44.44,0,0,0-.35-.59.43.43,0,0,0-.42-.27c-.81,0-1.61,0-2.41.06,0-.41,0-.81,0-1.21a.51.51,0,0,0-.37-.48c-.7-.13-1.41-.24-2.12-.33,0-.42.06-.84.12-1.26a.55.55,0,0,0-.25-.53.48.48,0,0,0-.49-.18l-1.43.37a7.47,7.47,0,0,1,.34-1.27c.23-.6-.74-.86-1-.26a7.6,7.6,0,0,0-.44,1.78,7.46,7.46,0,0,1-2,.22c-.65,0-.65,1,0,1a7.66,7.66,0,0,0,1.89-.18c0,.17,0,.35,0,.53a.52.52,0,0,0,.5.5c.54,0,1.07.09,1.6.15,0,.11,0,.21,0,.31,0,.62-.18,1.3.32,1.72a.42.42,0,0,0,.45.29c.56-.05,1.12-.08,1.68-.11,0,.26,0,.52-.07.78s.34.55.65.43a.43.43,0,0,0,.24.07l2,0a9.4,9.4,0,0,0-.12,1.19.46.46,0,0,0,.63.45,8.7,8.7,0,0,0-2.39,3.38,34,34,0,0,1-7.88-2.05c-1.24-.51-2.4-1.24-3.64-1.73-.76-.3-4-.46-4.18-1a.5.5,0,0,0-1,.27c.25.86.74,1,1.59,1.18a18.11,18.11,0,0,1,3.57.66c.94.37,1.84.93,2.77,1.33a40.94,40.94,0,0,0,11.34,2.67.45.45,0,0,0,.24,0,10.4,10.4,0,0,0,5.54-1.27C83.3,297.5,84.52,295.4,83.27,293.68ZM70,288.87c-.39,0-.78-.09-1.17-.12,0-.11,0-.21,0-.32l1.24-.32C70,288.36,70,288.62,70,288.87Zm2.43,2.18-1.55.1-.08-.08s.06-.64.1-1.09c.53.07,1,.14,1.57.23C72.45,290.49,72.43,290.77,72.42,291.05Zm3,1.31-2.08,0,0-.34c.72,0,1.45-.05,2.18-.05C75.48,292.09,75.44,292.22,75.4,292.36Zm.63,2.35a.75.75,0,0,0,0-.16,7.76,7.76,0,0,1,.14-1.18l1.67,0A11.24,11.24,0,0,0,76,294.71Z"/><path class="cls-14" d="M83.67,294.75v-.08a.51.51,0,0,0-1-.13,5.51,5.51,0,0,1-4.24,3.87,14,14,0,0,1-4.75.12.42.42,0,0,0-.37.18c-3.11-.13-6.18-.31-9-1.81a26,26,0,0,0-3-1.55c-1.4-.55-3.06-.53-4.1-1.76-.41-.49-1.12.22-.71.71,1,1.12,1.74,1.19,3.09,1.56a25.44,25.44,0,0,1,4.89,2.25c3,1.53,6.51,1.5,9.83,1.64a.43.43,0,0,0,.38-.17h.06a.42.42,0,0,0,.43.26,26.22,26.22,0,0,0,3.07.06,11.3,11.3,0,0,0,3-1,4.33,4.33,0,0,0,2.66-3.71A.42.42,0,0,0,83.67,294.75Z"/><path class="cls-1" d="M90.31,120.64c-1-2-2.46-3.68-4.71-4.2s-5,.6-7,1.87a3,3,0,0,0-1.19,1.4,8.26,8.26,0,0,0-3.64,3.89c-.11.18-.2.37-.3.55l-.52.1c-3.44,0-8.06,2.25-13,3.68-2.86,1.08-5.68,2.28-8.47,3.55.26-.42-.49.55-.72.32a2.68,2.68,0,0,1-.68.45.76.76,0,0,1-1.11-.84c.31-1.87.59-3.75.88-5.62.06-.5.14-1,.23-1.47s.15-.94.23-1.41c.18-1,.21-3,1.21-3.69l.11,0c0-.35.06-.72.11-1.13s-19.35-7.24-19.16-5.89c.54,3.77-.61,5.93-.85,9.69-.43,3.74-.77,7.49-1.07,11.24-.22,2.91-.43,5.81-.62,8.72a1.71,1.71,0,0,1,.45,1.29c0,.81-.11,1.62-.19,2.43a15.25,15.25,0,0,0,1.05,2,2.81,2.81,0,0,0,.09.8,2.37,2.37,0,0,0,.62,1.14,1.72,1.72,0,0,0,1,.44c1,1.37,2,2.4,2,2.4l.11,0a16.45,16.45,0,0,0,3.57-.87,11.74,11.74,0,0,0,3.77-.93c4.83-1.85,9.53-4.23,14.14-6.55l.35-.18c1.14-.58,2.27-1.17,3.4-1.77,3.08-1.62,6.14-3.28,9.16-5a41.67,41.67,0,0,0,5.89-3.73,2.42,2.42,0,0,0,1.44.49,18.8,18.8,0,0,0,6.87-1,2.7,2.7,0,0,0,1.89-.45c1.85-1.19,4.05-2.32,5.19-4.29C92.16,125.54,91.49,122.91,90.31,120.64Z"/><path class="cls-3" d="M91,14.67a9.55,9.55,0,0,0-.64-1.57.54.54,0,0,0-.16-.27c-3.61-6.45-14-6.57-20.46-5.94A32.92,32.92,0,0,0,47.28,18.28a0,0,0,0,0,0,0c-.12.15-.24.29-.35.44-1.83,2.17-2.24,5.08-3,7.87-.15.53-.25.52,0,0,.16-.33.34-.64.5-1a.46.46,0,0,0,.22-.27l.16-.45c.82-1.51,1.75-1.67,2.75-3.06,0,0,.61-1,.63-1.05C59,9.65,75.27,7,88.81,14.41l.18.16a.52.52,0,0,0,.3.12l.94.55A.51.51,0,0,0,91,14.67Z"/><path class="cls-12" d="M77,48.85c-.1-.84-.21-1.68-.31-2.51-.08-.63-1.08-.64-1,0A19.21,19.21,0,0,1,76,49.16c0,.71-.25.91-.9,1-.47,0-1,0-1.43.07-.64,0-.65,1,0,1,1,0,2.44.14,3.09-.77A2.21,2.21,0,0,0,77,48.85Z"/><path class="cls-2" d="M49.12,131.67c-.47-1.68.15-3.3.54-4.93.5-2.07.79-4.17,1.34-6.22,0-.41,0-.81,0-1.22.1-.69.14-.86.19-1.57s-.88-1.14-1-.52L50,118.56c-.95,2.22-1.95,4.41-3,6.59a84.36,84.36,0,0,1-7.57,10.69.5.5,0,0,0-.12.44.51.51,0,0,0,.42.9,11.85,11.85,0,0,0,4.4-2.37c.3-.21.61-.39.91-.59,1.55-.61,3.06-1.3,4.55-2A.79.79,0,0,1,49.12,131.67Z"/><path class="cls-2" d="M118,129.84c-.29.4.64-14.11-.51-16-.22-.36.11-.43,0,0v-.18a.5.5,0,0,0-1,0c-.08,2.05-.17,4.1-.25,6.15,0,.31-.11.62-.16.93a8.46,8.46,0,0,1-3.34,4.2.44.44,0,0,0-.22.27c-.53.29.28.23-.3.44C111.86,125.85,118.41,129.32,118,129.84Z"/><path class="cls-2" d="M109.35,133.18a.49.49,0,0,0-.21-.27c-.92-5.49-1.45-11.07-3.22-16.36,0-.13,0-.27-.07-.41-.12-.84-.38-2.66-.49-3.51-.08-.55-3.27.2-3.13.78,1.35,5.81,2.77,12.26,4.12,18.07a.41.41,0,0,0,.3.32c.08.29.15.57.23.85q.77,5.49,2,10.9c.11.5,3.73,2.64,3.66,2.22A83.69,83.69,0,0,0,109.35,133.18Z"/><path class="cls-12" d="M113.92,174c-4.79.06-11-3.63-13.33-7.89-.3-.57-1.16-.07-.86.5,2.46,4.61,9,8.45,14.19,8.39A.5.5,0,0,0,113.92,174Z"/><path class="cls-5" d="M91.27,32.67A23.74,23.74,0,0,0,85.77,30a21.94,21.94,0,0,0-6-.41l-.06,0a.53.53,0,0,0-.79.25,1.45,1.45,0,0,0-.14,1,.51.51,0,0,0,.5.5A24,24,0,0,1,90.7,33.62a.51.51,0,0,0,.6-.12A.49.49,0,0,0,91.27,32.67Z"/><path class="cls-5" d="M66.65,30.9a2,2,0,0,0-.56-1.15.55.55,0,0,0-.92.1c-3.44.65-8.5,1.87-9.13,5.89-.1.63.87.91,1,.27a3.57,3.57,0,0,1,.11-.47c1.7-3.08,5.86-3.79,9.05-4A.5.5,0,0,0,66.65,30.9Z"/><path class="cls-8" d="M41.78,158.29c-.65-.11-1,.59-1.28,1s-1.09.85-1.16,1.53a.83.83,0,0,0,1.08.88c.61-.25.88-1.24,1.15-1.77a.49.49,0,0,0,0-.46,1.37,1.37,0,0,1,.26-.31C42.21,159,42.29,158.38,41.78,158.29Z"/><path class="cls-8" d="M45.86,161.66a17.84,17.84,0,0,0-4.16.64.51.51,0,0,0-.12.91,4.53,4.53,0,0,0,1.9.48.51.51,0,0,0,.37-.84c.66-.09,1.34-.14,2-.19S46.51,161.61,45.86,161.66Z"/><path class="cls-15" d="M82.88,54.52a35.78,35.78,0,0,1-8,1.92c-1.68.19-6.94,1.06-8-.68a.5.5,0,0,0-.83,0,.46.46,0,0,0-.26.69,2.48,2.48,0,0,0,.28.36A5.14,5.14,0,0,0,67.44,59c1.37,2.21,4.5,3,7,2.9a9.81,9.81,0,0,0,8-5.25,6.52,6.52,0,0,0,.87-1.06.44.44,0,0,0,.06-.29C83.61,54.9,83.36,54.35,82.88,54.52Z"/><path class="cls-16" d="M74.49,56.73a.48.48,0,0,0-.48-.36l-2.34.18a6,6,0,0,1-2.56,0c-.52-.23-1,.42-.66.75h0a9.36,9.36,0,0,0,.22,2.06,1.84,1.84,0,0,0,.49.94l.12.08a2.76,2.76,0,0,0,.55.43c1,.56,2.19,1,3,.06a5.23,5.23,0,0,0,.58-.79A4.05,4.05,0,0,0,74.49,56.73Z"/><path class="cls-17" d="M77.73,60.18a5.31,5.31,0,0,0-3.79-.81,21,21,0,0,0-4.33.57.5.5,0,0,0,.24,1s0,0,0,0c.45.77,2,.69,2.8.73.42,0,.85,0,1.28,0a9.17,9.17,0,0,0,2-.15.46.46,0,0,0,.22-.11c.48-.09,1-.19,1.44-.32A.51.51,0,0,0,77.73,60.18Z"/><path class="cls-10" d="M83.39,54.72l0,0a.48.48,0,0,0-.41-.13,2.27,2.27,0,0,0-1.1.23A33.87,33.87,0,0,1,76.77,56a30.6,30.6,0,0,1-10.28-.32.53.53,0,0,0-.54.79.45.45,0,0,0,.12.21c1.78,1.76,5.77,1,8,.85,2.92-.26,6.23-.42,9-1.58a.37.37,0,0,0,.25-.38A.51.51,0,0,0,83.39,54.72Z"/><path class="cls-12" d="M83.75,54.62a.52.52,0,0,0-.61-.44c-5.7,1.06-11.34,2-17.13,1.1a.49.49,0,0,0-.36.09.5.5,0,0,0-.48.61,8.28,8.28,0,0,0,8.94,6.48,11.25,11.25,0,0,0,9.75-7.37A.39.39,0,0,0,83.75,54.62ZM74.44,61.4a7.26,7.26,0,0,1-8.13-5.09c5.53.73,10.92,0,16.37-1A10.11,10.11,0,0,1,74.44,61.4Z"/><path class="cls-2" d="M144.14,155.64a5,5,0,0,0-1.59-1.58l-.08-.05a5,5,0,0,1,1-1.42.47.47,0,0,0,.09-.57c.08-.09.16-.19.26-.29.46-.45-.25-1.16-.71-.7a6.65,6.65,0,0,0-1.64,2.6.74.74,0,0,0-.62.33.5.5,0,0,0,.11.62.45.45,0,0,0,.31.25l0,0a8.27,8.27,0,0,1,1.87,1.72c.29.37.72.09.81-.27A.45.45,0,0,0,144.14,155.64Z"/><path class="cls-2" d="M142.6,157.87c-.35.1-1.3.38-1.55,0a.5.5,0,0,0-.86.5c.53.91,1.82.75,2.67.49A.5.5,0,0,0,142.6,157.87Z"/><path class="cls-2" d="M147.28,152.31a14.29,14.29,0,0,0-3.75,7c-.14.63.82.89,1,.26A13.48,13.48,0,0,1,148,153C148.43,152.55,147.73,151.84,147.28,152.31Z"/><path class="cls-2" d="M150.71,154.72c-1.14.19-1.72,1.49-2.25,2.39-.41.72-.79,1.47-1.14,2.22l-.06,0c-.84.44-1.76,2.25-.51,2.73a.41.41,0,0,0,.57-.28.53.53,0,0,0,.13-.19,27,27,0,0,1,1.46-3.24c.42-.78,1.09-2.53,2.07-2.69C151.61,155.58,151.34,154.61,150.71,154.72Z"/><path class="cls-2" d="M153.08,156.45c-.42.85-.81,1.7-1.16,2.57-.07.15-.12.31-.18.46l-.07.05a4.27,4.27,0,0,0-1,2.59.5.5,0,0,0,.85.35c.61-.53.74-1.56,1-2.29a34.11,34.11,0,0,1,1.41-3.22C154.22,156.38,153.36,155.88,153.08,156.45Z"/><path class="cls-12" d="M151.4,149.31c-2.21-1.74-5.41-3.72-8.11-2.72a.47.47,0,0,0-.22-.5q-12.24-8-24.26-16.26a.76.76,0,0,0,0-.16c-.08-2.09-.1-4.18-.09-6.27a.06.06,0,0,0,0,0c0-.55,0-1.1,0-1.65a124.29,124.29,0,0,0-1.63-15.06h0c.64-.49,1.27-1,1.86-1.52,0,.05,1.11-.79,1.15-1.09.55-.56.8-2.48.62-2.24-2.7-7.75-5.77-17-12.29-22.34a17.26,17.26,0,0,0-12.22-3.77,25.76,25.76,0,0,0,3.42-8.47A112.46,112.46,0,0,0,102.1,55.6a4,4,0,0,0,.45.25.51.51,0,0,0,.74-.56c-3.65-10.9-1.16-23.35-6.87-33.65-.23-.4-.36-1.56-.51-1.84C92.5,12.94,88.7,6.36,81.33,3.24,74.52.36,66.83.8,60,3.32c-8.07,3-15.37,8.22-19.81,15.75a30.41,30.41,0,0,0-3.45,9.13c-.87,4.14-1.66,8.3-2.5,12.45a.48.48,0,0,0,.15.47A13.18,13.18,0,0,0,33,43.24a19.11,19.11,0,0,0-1.49,12.32.44.44,0,0,0-.34.34c-1.44,5.82-4.47,13.47-10.77,15.48C10,74.7,13.49,57.83,17.24,53.61a.65.65,0,0,0,.09-.16c.32-.27.23-.91-.29-.88-11.33.77-9.79,16.29-6.73,23.56C14.25,85.49,24.2,92,34.55,90.83l.28-.08c-2.64,6.09-3.61,13-4.79,19.45,0,.12-.1.84.18,1a18.6,18.6,0,0,0,2.11,1.12A157.61,157.61,0,0,0,30.11,136a86.61,86.61,0,0,0,.3,12.48c.31,2.32,1.4,4.07,3.88,4.22,3.1.19,6.6-1.6,9.43-2.65l2.08-.79a76.37,76.37,0,0,1-7.31,11,.38.38,0,0,0-.11.14l-.46.61c-.34.45.28.89.69.66.89,2.06,3.64,2.79,5.72,3.27l.41.09a106.64,106.64,0,0,0,1.85,30,.45.45,0,0,0-.31.45,5.34,5.34,0,0,0,1.1,3.51c0,.08,0,.16-.05.24a2.31,2.31,0,0,1,.9.62.13.13,0,0,1,0-.06,4.66,4.66,0,0,0,.9.51c.36,4.69.61,9.41,1.18,14.08a1.57,1.57,0,0,1,.33.82c.63,4.46,1.58,8.87,2,13.35.16,1.6.42-.07.31,1.45.86,2.41-.18,8.17-.51,10.63-.25,1.88-.41,3.78-.48,5.67a57.22,57.22,0,0,0,.89,12.12c.74,4.08,1,8.27,1.9,12.32s2.05,7.95,3.12,11.9a0,0,0,0,0,0,0,.46.46,0,0,0-.56.21c-1.94,3.45-4,10.84.64,13a45,45,0,0,1,5.09,2.59,13.1,13.1,0,0,0,4,2c3.34.79,7.27.37,10.63-.05,2.23-.28,4.81-.55,6.22-2.54a5,5,0,0,0,0-5.63c-3.18-4.92-10.47-5.41-14.58-9.46a.05.05,0,0,0,0,0c.94-6.26,3.27-12.25,3.86-18.57.56-6.06-.14-21.37.11-23a63.11,63.11,0,0,1,1.33-9.47c.26-3.1,1.17-9.66,1.12-9.43-.14.61,1.28-15,1.71-23.39l.25-.1c0,.3,0,.6-.07.91a2,2,0,0,1,1-.73c0-.28,0-.56.09-.83a4.37,4.37,0,0,0,1.44-1.77,5.93,5.93,0,0,0,2.19,3.73,5.65,5.65,0,0,0,1.21.65l.11,1.06a.51.51,0,0,0,0,.13c.12,2.59.24,5.19.6,7.77.13,1,.34,2,.55,3,.17,2.36.37,4.73.61,7.09.61,5.82,1.9,11.75,1.44,17.62a22.67,22.67,0,0,0-.43,3.47,81.06,81.06,0,0,0-.09,9.09,69.09,69.09,0,0,0,2.72,16.39s0,0,0,.08a56.33,56.33,0,0,0,1.54,6.78c.62,2.66,1.16,5.33,1.73,8l-.18-.1c.12.27.22.54.34.8a.47.47,0,0,0,.07.76c-2,2.61-1.54,6.74-.79,9.85a.47.47,0,0,0,0,.81c4.48,2.36,8.91,5.16,14,5.86,3.9.54,10.71.64,13.69-2.52,2.58-2.74.23-6.28-2.19-8.11-2-1.52-4.21-2.12-6.51-3-2.59-1-4.12-3.23-6.41-4.64h0c.07-.23.12-.46.19-.68l-.47.16a49,49,0,0,1,2.26-11.29c0-.05,1.38-6.7,1.86-9.87a30.56,30.56,0,0,0,.12-5.66,58,58,0,0,0-.65-10.59c0-.61-.07-1.23-.09-1.84a28.64,28.64,0,0,1,1.25-8.38,48.46,48.46,0,0,0,1.29-7c.32-3-.21-6.41.71-9.32a.43.43,0,0,0-.11-.46c.47-2.73.91-5.46,1.13-8.22.28-3.62.28-7.22,1.07-10.77a.38.38,0,0,0,0-.15h0l1.1-.27c1.33-.33,2.65-.66,4-1,.37-.1,1.09-3.95,1-5.05a54.56,54.56,0,0,0-1.42-9c-1.36-6.47-3.11-12.86-4.75-19.27.6-.21,1.21-.43,1.81-.67a.51.51,0,0,0,.33-.5,2.94,2.94,0,0,0,.54-.23.49.49,0,0,0,.23-.56c-1.57-4.48-4.12-8.56-5.5-13.09a.45.45,0,0,0,0-.23l-.36-1.48c3.48,2.19,7.46,3.22,11.37,4.35,4.84,1.41,9.69,2.74,14.62,3.75a2.39,2.39,0,0,0,.21.89,6.42,6.42,0,0,0,3.35,3.16,1.88,1.88,0,0,0,.6,1.69,2.82,2.82,0,0,0,2.28.42l.16-.05c.22,1.39,1.55,1.4,2.75.93a1.49,1.49,0,0,0,.08,1.41c1.1,1.63,3,1.12,4.33.07a1.51,1.51,0,0,0,.73,1.47c2.45,1.55,4.8-3,5.89-4.68a.46.46,0,0,0,.32-.22C159.13,154.92,153.93,151.31,151.4,149.31Zm-50.22-94.2a110.66,110.66,0,0,1-2.24,11c-.81,3.28-1.69,6.51-3.67,9.31a.42.42,0,0,0-.07.38,23,23,0,0,0-2.59.44C93,76.06,91,76,87.33,77.89a13.23,13.23,0,0,1-2.33-3c-.47-.85-1.54-3-1.45-4.44.08,0,0-.94.19-1.33h0s0-.43,2.5-2.81a7.54,7.54,0,0,1,.84-.92l1-1a47.47,47.47,0,0,0,4.87-7c-.37.88,3.8-7.7,4-9.53.74,2.63,4,7.39,4.21,7.27Zm-35.81,14c.81.33,2.81,1.73,3.71,1.93a24.4,24.4,0,0,0,9.67.25A13.47,13.47,0,0,0,82.47,70a20.39,20.39,0,0,0,1,4,13.92,13.92,0,0,0,2.93,4.33,41.17,41.17,0,0,1-3.75,1.7c-5.7,2.17-13,2.76-18.81.17a6.29,6.29,0,0,0,.82-2.54A47.07,47.07,0,0,0,65.37,69.15ZM56.73,57.67l-3.25-7.54c-.61-2.14-1.19-4.28-1.71-6.44-.9-3.7-2-7.59-1.74-11.42a16.82,16.82,0,0,1,2.13-2.18c4.58-3.89,10.36-5.25,15.43-8.25a9.53,9.53,0,0,0,4.46-5.43,10.83,10.83,0,0,0,2.28,3.15,25.84,25.84,0,0,0,5.81,4c2.3,1.2,4.93,1.77,7.15,3.09,5,3,6.71,9.62,8.12,14.88.42,1.6.78,3.26,1.19,4.9-.25,0-.82,1.44-.86,1.59-.54,1.68-1,3.38-1.53,5.08-4,7.55-9.36,16.74-18.9,17.46C66.79,71.17,61.42,64,56.73,57.67Zm40-33c3.9,9.42,2.39,20,5.21,29.68-.48-.37-1.65-1.6-1.84-1.56-2.32-3.64-2.85-8.37-4-12.44S93.7,31.87,91,28.55s-6.43-3.89-10-5.71c-3.2-1.62-7.6-4.43-8.6-8.1a12.66,12.66,0,0,0,0-3.14,7.28,7.28,0,0,1,.28-.73h.08C79.58,11,86.3,12.78,91.19,17a.42.42,0,0,0,.18.14A20,20,0,0,1,96.73,24.62ZM94,18.2A21.44,21.44,0,0,0,91.78,16a11.18,11.18,0,0,0-.67-2.77A55.83,55.83,0,0,1,94,18.2ZM72.77,9.86c-.18-.16-1.48-.32-1.56.11-10.87.82-21.74,6-26.91,15.78,1.82-9,12.43-15.17,20.61-17.11a41.31,41.31,0,0,1,15.51-.58,16.18,16.18,0,0,1,7.09,2.37A8.11,8.11,0,0,1,90.6,15.1C85.59,11.47,79.08,10,72.77,9.86ZM41.6,18.59a38.27,38.27,0,0,1,17.84-14c6.61-2.6,14-3.31,20.76-.73a20.81,20.81,0,0,1,8.73,6.43,13,13,0,0,0-5.59-2.7,40.85,40.85,0,0,0-17.81-.12c-9.3,2-21.2,9-22.41,19.4a8.31,8.31,0,0,1,0,1.49,47,47,0,0,1-1.81,4.94,16,16,0,0,1-3,3.79c-1,1-2,1.88-2.9,2.88C36.73,32.77,37.4,24.69,41.6,18.59ZM32.26,49.94a14.5,14.5,0,0,1,3.39-8.82c1.58-1.81,3.5-3.3,5-5.16a17.34,17.34,0,0,0,2.86-5.89C47.45,18.24,59.15,12,71,11l.48.57a7.11,7.11,0,0,0,0,3.08A8,8,0,0,1,68,20.38C65.76,22,63,22.87,60.54,24a34.13,34.13,0,0,0-10.36,6.58c-.14-.43-2,2.26-2.34,2.85-1.59,2.44-2.4,5.3-4.05,7.69C41.89,43.88,38.89,45,36.3,47a11.3,11.3,0,0,0-4.1,5.73C32.17,51.75,32.2,50.81,32.26,49.94Zm-20,28A28.08,28.08,0,0,1,9,64.89C9,60.21,11,54.8,15.87,53.74a19.46,19.46,0,0,0-3.49,10.5c-.21,3.44.89,8,4.95,8.51,7.93,1,12.56-8.78,14.43-15.3.06.5,1.77-6.37,3.49-8.25,1.94-2.12,4.72-3.14,6.94-4.91s3.34-4,4.49-6.49A30.32,30.32,0,0,1,49,33.64,42.41,42.41,0,0,0,50.58,43c.54,2.26,1.12,4.52,1.74,6.76a.49.49,0,0,0,0,.26l.1.24q.6,2.13,1.26,4.23a23.12,23.12,0,0,0,2.58,4.27h0C60.16,63.88,64.7,70,64.4,70.23a1.4,1.4,0,0,1,.17.09c0,2-.35,8.8-1.78,9.39a12.09,12.09,0,0,0-1.49-.66,11.4,11.4,0,0,1-1.57-.67C53,75,45.07,77.25,39.82,82.92a27,27,0,0,0-4.69,7.17h0C26.09,91.11,16.49,85.84,12.27,78Zm65.53,211c2.2,1.07,5.06,2.49,5.83,5,1.34,4.4-3.88,5.24-6.88,5.56a40.44,40.44,0,0,1-7.46.21c-3.06-.24-5-1.82-7.56-3.23a25.31,25.31,0,0,0-2.47-1.17,4.31,4.31,0,0,1-2.91-4.18,13.67,13.67,0,0,1,1.86-7.72.24.24,0,0,0,.09,0h0a.46.46,0,0,0,.26,0c.58.12,1.26.6,1.79.76a9.06,9.06,0,0,0,2.43.32c2,0,3.82-.72,5.77-.84a.65.65,0,0,0,.21-.06C71.34,286.11,74.63,287.36,77.8,288.92ZM73,234.28a.66.66,0,0,0,.06.32,50.92,50.92,0,0,0-.83,9.07.68.68,0,0,0-.07.2c-.78,6.46.5,12.89.09,19.35S69.33,276,68.37,282.45v0a.45.45,0,0,0-.14.24c-1.72.17-3.36.74-5.1.79a7.71,7.71,0,0,1-3.35-.62c-.34-.15-.59-.29-.86-.38-1.15-4.25-2.53-8.53-3.32-12.86-.37-2.06-.42-4.16-.72-6.23s-.84-4.12-1.17-6.19a55.69,55.69,0,0,1-.54-13.71c.27-3.27,1.54-7,.63-10.22a.48.48,0,0,0,.05-.32c-.09-.44-.18-.89-.26-1.33-.4-4.93-1.13-9.78-1.9-14.66-.86-5.38-1.11-10.88-1.52-16.32,4.21,1.19,10.73-.52,13.77-.71,2.79-.18,8.54.49,12.49-.71Q75.51,216.84,73,234.28Zm4.36-36.5a.53.53,0,0,0-.87.36v0a14,14,0,0,1-5.08.76c-2.82-.05-5.61-.12-8.43.11s-9.25,2-12.91.6a.54.54,0,0,0-.75-.34,4.1,4.1,0,0,1-.86-.62.06.06,0,0,0,0,0,.49.49,0,0,0-.55-.62,4.29,4.29,0,0,1-.62-2.07.52.52,0,0,0,.34-.34h0c10.65,1.09,21.2-.92,31.84-.37A4,4,0,0,1,77.37,197.78Zm30.29,87.12a12.82,12.82,0,0,0,3.71,1.87,17.11,17.11,0,0,1,6.27,3.3c2.37,2.24,2.83,5.63-.73,7.07a22.12,22.12,0,0,1-13.13.63c-3.86-1-7.38-3.13-10.88-5-.74-2.84-1.48-7.29.65-9.68l.07-.14,0,0c3,.6,6.77,1.27,9.52-.18a2,2,0,0,0,.93-.86C105.42,282.76,106.4,283.93,107.66,284.9Zm3.39-79a92.11,92.11,0,0,1-1.36,10.72.55.55,0,0,0,.06.34c-.52,2.28-.24,4.67-.39,7a47.9,47.9,0,0,1-1.63,9.36,28.42,28.42,0,0,0-.94,7.36.5.5,0,0,0-.34.58q.24,1.26.42,2.52c.07,1.26.17,2.53.28,3.82a.67.67,0,0,0,0,.22c.1,2,.19,4.1.29,6.14a90.67,90.67,0,0,1-5.25,26c-.21.61.76.87,1,.27a2.25,2.25,0,0,1,.08-.24c0,.4-.1.81-.12,1.23a.58.58,0,0,0,0,.19,2.92,2.92,0,0,1-1,.69,8.18,8.18,0,0,1-3.22.46,26,26,0,0,1-5.27-.64,1.89,1.89,0,0,1-.09-.21l-.33-.11a.46.46,0,0,0,.17-.48c-.52-2.42-1-4.84-1.56-7.25s-1.33-4.59-1.65-6.95a.48.48,0,0,0,0-.34,66.35,66.35,0,0,1-2.75-14.77c-.1-2.35-.15-4.71-.13-7.06,0-1.32.37-5.19.4-5.41.1-.7.16-1.41.2-2.11a141.55,141.55,0,0,0-.84-18.52c-.29-2-.79-4-1.22-6q-.4-5.67-.56-11.35a.58.58,0,0,0,0-.19,24.51,24.51,0,0,0,6.56-.3A184.67,184.67,0,0,0,112,197.08,57.33,57.33,0,0,0,111.05,205.85Zm6.66-11.77c-.31.1-4.41,1.63-4.42,1.65-5.33,1.3-10.7,2.42-16.11,3.32a54,54,0,0,1-10.51,1.17c-3.25-.1-4.74-1.73-5.38-4.08a209.62,209.62,0,0,0,36.91-6.06C118.41,192.06,118.41,193.87,117.71,194.08Zm-2-17c.6,2.52,1.16,5.06,1.64,7.61.09.51.5,2.43.77,4.41a208.55,208.55,0,0,1-37,6.08,18,18,0,0,1-.22-2.5.5.5,0,0,0-1,0c0,.09,0,.2,0,.29a.54.54,0,0,0-.32.57,4.72,4.72,0,0,1,0,.73c-10.68-.57-21.26,1.45-31.95.36l-.12,0a105.85,105.85,0,0,1-2.1-19.49c5.37.43,11.59-4.08,14.44-8.32.36-.54-.51-1-.86-.51-2.64,3.92-8.62,8.22-13.59,7.83,0-3,.07-6,.31-9a22.81,22.81,0,0,0,10.18-.69.44.44,0,0,0,.34-.41c4.42.91,8.65,2.53,13.1,3.3,5.09.88,10.29.26,15.4-.13,9.21-.7,18.46-1.73,27.24-4.66C113.22,167.41,114.5,172.22,115.66,177.06Zm-4.32-24.53c.34.74,3.43,7.62,3.17,7.63a.52.52,0,0,0-.47.64c-9.38,3.55-19.34,4.7-29.29,5.45-5.17.4-10.43,1-15.57.09-4.87-.88-9.49-2.77-14.39-3.55-.63-.1-.9.87-.27,1v.05a21.06,21.06,0,0,1-6.71.62c-.54,0-1.28-.11-2.11-.23a.51.51,0,0,0-.69-.11c-2.47-.43-5.34-1.35-5.65-3.39a69.41,69.41,0,0,0,7.81-12,0,0,0,0,0,0,0c2.48-1,4.94-2.06,7.36-3.19a142.34,142.34,0,0,0,20.61-11.94,2.18,2.18,0,0,1-.28-1A139.19,139.19,0,0,1,38.4,150.85c-1.89.61-3.45,1.21-5.29.18-1.54-.86-1.63-1.76-1.76-3.41-.08-1-.11-1.94-.14-2.9q-.21-5.34-.06-10.66a155.69,155.69,0,0,1,2.14-21.33,49.57,49.57,0,0,0,6.61,1.84,67.45,67.45,0,0,1,10.82,3.55.39.39,0,0,0-.11.2,64.81,64.81,0,0,0-2.28,14l-5.87,1.82c-.62.19-.36,1.16.26,1a47.11,47.11,0,0,0,8.56-2.64c1.18-.37,3.92-1.45,3.87-1.68A135.39,135.39,0,0,1,74,124.56a.5.5,0,0,0-.27-1,137.54,137.54,0,0,0-20.23,6.84,31.13,31.13,0,0,0,1.21-13.29c2.54-3.5,3.41-8.5,4.19-12.49.13-.63-.84-.9-1-.27-.71,3.62-1.5,8.4-3.72,11.75a5.8,5.8,0,0,1-1.43,1.74A69.51,69.51,0,0,0,41.9,114a67.92,67.92,0,0,1-8.45-2.32c0-.21-2-.91-2.46-1.21,0,0,0,0,0,0,1.54-8.34,2.61-17.53,7.7-24.6,5.37-7.47,14.45-10.11,23-5,3.92,2.32,10.08,2.4,14.58,1.85a28.67,28.67,0,0,0,8.32-2.34c.65-.29,2.25-.8,2.45-.91,7.27-4,16.37-4,22.38,2.28,5.35,5.56,8.06,13.73,10.55,20.85a5.74,5.74,0,0,1-.72.93l-.33.37a31.13,31.13,0,0,1-4.74,3.66c-3.6,2.36-7.12,4.41-11.5,4.86a.48.48,0,0,0-.27.12q-1-4.85-2-9.69c-.13-.63-1.09-.37-1,.26q4.3,21.26,9.48,42.31a.56.56,0,0,0,0,.29A33.74,33.74,0,0,0,111.34,152.53ZM51.41,120a.68.68,0,0,1,.47-.5l0-.19a.49.49,0,0,0,.16.16.73.73,0,0,1,.29,0,.79.79,0,0,0,.16-.08,9.17,9.17,0,0,0,1.29-1.2,31.81,31.81,0,0,1-1.32,12.66h0c-.37.16-3.13,1.19-3.13,1.19A97.76,97.76,0,0,1,51.41,120Zm91.18,38.83a.46.46,0,0,0-.17,0c-.68.08-1.87.11-1.92-.72a3.7,3.7,0,0,0,2.22.16A3.9,3.9,0,0,0,142.59,158.78ZM155.9,158a.51.51,0,0,0-.29.2l-1.71,2.44a11,11,0,0,1-1,1.28c-.39.42-2.06,2-2.12-.33a2.67,2.67,0,0,1,.38-1.14s0,0,0,0h0c.28-.53.63-1.07.81-1.41.47-.9,1-1.77,1.53-2.63.35-.55-.52-1-.86-.51a36.45,36.45,0,0,0-2.15,3.86.48.48,0,0,0-.2.2,3.5,3.5,0,0,1-2.09,1.95c-.85.22-2.06,0-1.81-1.17a5.18,5.18,0,0,1,.67-1.14,37.63,37.63,0,0,1,3.3-4.62c.41-.49-.3-1.21-.71-.71a41.3,41.3,0,0,0-3.18,4.37l-.24.37a.38.38,0,0,0-.24.11,3.6,3.6,0,0,1-1.52.86c-1-.52-1.21-1.19-.62-2a17.18,17.18,0,0,1,1.08-1.92,16.7,16.7,0,0,1,3-3.77c.47-.44-.24-1.14-.71-.71a17.39,17.39,0,0,0-3,3.74c-.22.36-.47.74-.71,1.14a2.66,2.66,0,0,0-.79-1.2,18.4,18.4,0,0,0-1.65-1,.42.42,0,0,0,.45-.25,9.74,9.74,0,0,1,1.78-2.44.5.5,0,0,0-.71-.71,10.48,10.48,0,0,0-1.93,2.65.45.45,0,0,0,0,.49c-.16-.12-.26-.21-.26-.27a.5.5,0,0,0-1,0c0,.53.32.72.72,1s.8.47,1.19.73a4.76,4.76,0,0,1,.68.5c.79.59.49,1-.89,1.3a6,6,0,0,1-3.16-1.81,4.39,4.39,0,0,1-1-1.58c-.2-1.08.78-1.43,1.47-1.72s.08-1.11-.5-.86a3.54,3.54,0,0,0-1.76,1.36h0a43.45,43.45,0,0,1-8.17-1.59c-5.91-1.82-12.45-3.06-17.84-6.59a.43.43,0,0,0-.42,0l-.06,0q-3.78-15.47-7.11-31.05h.09c4.58-.47,8.22-2.52,12-5,.53-.35,1-.72,1.55-1.08a66.78,66.78,0,0,1,1.52,15q-.06,3.4,0,6.81l-5.18-3.58c-.53-.37-1,.5-.5.86q15,10.52,30.42,20.53a5.15,5.15,0,0,0-1.08.89c-.44.48.27,1.19.71.71,2.73-3,6.83.07,9.18,2C153.29,152.16,157.58,155.12,155.9,158Z"/><path class="cls-1" d="M93.52,120.57a.7.7,0,0,1-.48-.07c-.88-.44-.48-1.62-.73-2.36a5.58,5.58,0,0,0-.5-.65c-.66-.51-1.75-.79-2.32-1.17a.7.7,0,0,1-.34-.59,7.11,7.11,0,0,0-1.23-.29.75.75,0,0,1-.24.1c-2.18.45-4.2,1.52-6.49,1.33a.94.94,0,0,1-.31-.08c-3.56,1.52-9.48,4.14-8,8.9.77,2.44,4.64,1.39,3.85-1.07-.56-1.76,5.23-4,6.45-4.52a9.52,9.52,0,0,1,3.36-.89c2.72.12,3.14,2.31,3.63,4.31,1.84,7.54-9.33,8-14.24,6.85-2.51-.57-3.58,3.29-1.07,3.86,5.4,1.21,11.61.79,16.31-2.39C95.14,129.19,95,124.6,93.52,120.57Z"/><path class="cls-2" d="M87.05,116.16l-1.77.22a.51.51,0,0,0-.45.4,37.41,37.41,0,0,0-5,2l-1.13.32a.5.5,0,0,0,.26,1,31.65,31.65,0,0,0,5.59-2,.4.4,0,0,0,.18-.16c.8-.26,1.61-.51,2.43-.72C87.71,117,87.62,116.09,87.05,116.16Z"/><path class="cls-2" d="M92,120.91a2.6,2.6,0,0,0-.21.27,2.75,2.75,0,0,1-.53.36,5.52,5.52,0,0,1-.9.38,5.06,5.06,0,0,1-2.33.63c-.63-.11-.9.85-.27,1a6.57,6.57,0,0,0,3.47-.87c.61-.26,1.85-.85,1.76-1.69C92.88,120.35,92,120.33,92,120.91Z"/><path class="cls-2" d="M93.42,124c-1.14,1.48-3.73,1.71-5.44,1.69a.5.5,0,0,0,0,1c2.16,0,4.9-.36,6.3-2.18C94.67,124,93.8,123.45,93.42,124Z"/><path class="cls-2" d="M93.36,128.43a16.67,16.67,0,0,1-6.42,1.16c-.65,0-.64,1,0,1a17.45,17.45,0,0,0,6.69-1.2C94.23,129.17,94,128.2,93.36,128.43Z"/><path class="cls-12" d="M74.92,134.58c4.79,2.23,13.57-.18,18.27-3.69a5.9,5.9,0,0,0,1.61-3.19.58.58,0,0,0,0-.23,3.69,3.69,0,0,0-.18-4.11.48.48,0,0,0-.46-.21,3,3,0,0,0-1.06-3.44.47.47,0,0,0-.4-.12c0-.06,0-.1,0-.16A2.4,2.4,0,0,0,91.54,117a4.89,4.89,0,0,0-1.29-.54,1,1,0,0,0-.14-.15c-2.12-1.5-4.13-1.21-6.34-.09a.39.39,0,0,0-.24.31c-2.72-.28-5.63,1.27-7.86,2.66-1.78,1.12-4.44,2.67-3.61,5.14.2.61,1.17.35,1-.26-1.15-3.43,8.37-6.91,10.59-6.56,0,0,0,0,0,0l.23.21c-1.91.71-3.8,1.49-5.64,2.39-.58.28-.07,1.14.5.86a60.68,60.68,0,0,1,9.17-3.53.53.53,0,0,0,.26.07,6.56,6.56,0,0,1,2.12,0,1.8,1.8,0,0,1,1.41,2.19c-.17.82-1,1.09-1.7,1.43a8,8,0,0,1-2.71.83c-.63.06-.64,1.06,0,1A10.14,10.14,0,0,0,91,121.67c.75-.39,1.21-.65,1.46-1.15a2.08,2.08,0,0,1,.88,1.61,2.41,2.41,0,0,1-1.69,2,30.33,30.33,0,0,1-3.79,1.19.5.5,0,0,0,.27,1c1.81-.53,4.31-.85,5.57-2.41l0,0a2.74,2.74,0,0,1,.49,2.48c-.43,1.24-1.76,1.5-2.83,1.83a22.4,22.4,0,0,1-4.73.94c-.64.07-.65,1.07,0,1a24,24,0,0,0,3.94-.67,14.2,14.2,0,0,0,2.94-1,6.15,6.15,0,0,1-1.81,2.38c-.13-.06-5.81,2.93-9,3.38a16.27,16.27,0,0,1-8.62-1.37.44.44,0,0,0-.22,0c-.37-.09-.83.3-.56.72A4.87,4.87,0,0,0,74.92,134.58Zm10-17.27a.38.38,0,0,0-.13-.19l-.23-.21a5.11,5.11,0,0,1,3.39-.57C86.89,116.64,85.88,117,84.88,117.31Z"/><path class="cls-18" d="M192.54,238.12a120.49,120.49,0,0,0-.8-15.32c-.06-1.72-.14-3.44-.25-5.16l-.09-1.21a83.11,83.11,0,0,0-.8-10.86,32,32,0,0,0-.82-3.74c-.2-1.09-.42-2.18-.68-3.25-1.06-4.44-3-8.5-6.95-11-2.21-2-4.8-3.09-7.72-2.31a38.23,38.23,0,0,0-10.12-1.39c-7.15-.14-14.16,1.42-21.24,2-6.08.54-12.65-.93-18.29,1.81a.39.39,0,0,1-.06.62c-.94.56-1.86,1.15-2.73,1.79l-1.32,1.06-.33.3c-.56.68-1.1,1.38-1.6,2.11a.38.38,0,0,1-.41.17l-.07.1a10.66,10.66,0,0,0-.62,1h0c-3.8,6.63-4.59,15.34-5.23,22.76a222.58,222.58,0,0,0-.94,22.62,121.59,121.59,0,0,0,.25,17.8c.49,5.24,1,12.68,3.58,18.36a4,4,0,0,1,.56,1.43l0,.08.37.81a5.91,5.91,0,0,1,.53,1c.17.41.33.83.49,1.26,0,.1.09.2.14.3a12.43,12.43,0,0,0,3.94,3.31c4.1,2.32,8.21,5,12.71,6.49,8.95,5.6,20.55.65,30.46-.16a56,56,0,0,0,16.28-3.42c2.74-1.06,5.76-2.27,7.3-4.4a8.74,8.74,0,0,0,1.27-1.37c2.89-3.85,2.31-10,2.57-14.57a134.44,134.44,0,0,0,.13-14.75A129.49,129.49,0,0,0,192.54,238.12Z"/><path class="cls-19" d="M192.24,245.62c-.15-10.84-.56-21.74-1.63-32.53-.2-2-.46-4-.83-6a34.2,34.2,0,0,0-2.26-11.17c-2.92-7.17-9.55-12.86-17.63-12.23a4.65,4.65,0,0,0-.56.1,55.89,55.89,0,0,0-13.37-.4c-6.66.41-13.31.89-20,1.35l-6.24,1c-.56.19-1.11.39-1.66.61a38.59,38.59,0,0,0-3.67,1.9c-.69.63-1.34,1.31-2.08,1.89l-.74.53c-.8.78-1.6,1.54-2.46,2.25a.41.41,0,0,1-.19.09l-.44.58a3.82,3.82,0,0,0,1.35.23,23.47,23.47,0,0,1,17.44,7.38,160.12,160.12,0,0,1-.14,17.39c1.05,13,.5,25.91-.24,38.9-.55,9.75.29,19.66-.6,29.37l-.22.3c.17,1.75.29,3.51.37,5.27a3.77,3.77,0,0,0,1.54.6c10.29,1.65,21.13-.06,31.36-1.52l1.32-.19A.4.4,0,0,1,171,291c2-.69,4-1.08,6.06-1.59,1.8-.46,3.52-1.14,5.27-1.73l.12-.1a.36.36,0,0,1,.4-.07l.43-.14a.34.34,0,0,1,.41.16A11.87,11.87,0,0,0,189,282.1a6,6,0,0,0,2.41-3.9c.92-5,.62-10.45.75-15.5Q192.36,254.17,192.24,245.62Z"/><path class="cls-20" d="M126.44,226.23A1.54,1.54,0,0,0,125,225a3.38,3.38,0,0,0-2,.52,4.1,4.1,0,0,0-1.74,2.17c-3.44,5.48-3.47,13.61.88,18.38.64.7,2.13.2,2-.83-.76-6.11-1.4-12.39,2.38-17.69A1,1,0,0,0,126.44,226.23Z"/><path class="cls-20" d="M138.72,170.13c0-3.09,0-6.19,0-9.29,0-1.53.18-2.69-1-3.74a1.36,1.36,0,0,0-2.16.85c0,.22,0,.43,0,.65a1,1,0,0,0-.67,1c.05,2.22.11,4.44.16,6.66q-.21,5.79.08,11.57a67.36,67.36,0,0,0,.48,11.61v0h0c0,.1,0,.2,0,.31.18,1.19,1.94,1,2.25,0a1.09,1.09,0,0,0,1.35-1.11Q138.82,179.42,138.72,170.13Z"/><path class="cls-20" d="M156.58,168.29a40.77,40.77,0,0,1-.21-9.56,5.79,5.79,0,0,1-2.74,3.42,5.48,5.48,0,0,1-.61.66q-.42,12.06-.58,24.12c1.15-.29,2.32-.58,3.5-.76a2.87,2.87,0,0,1-.08-.38,1.12,1.12,0,0,0,.65-1C156.7,179.28,156.71,173.79,156.58,168.29Z"/><path class="cls-20" d="M167.17,185.21a12.8,12.8,0,0,0-9.17-4,26.59,26.59,0,0,0-14.22,3.22,11.86,11.86,0,0,0-1.37,1.78,1,1,0,0,0-.13.47,6.76,6.76,0,0,0-.67.85c-.12.14-.25.26-.37.4a1.09,1.09,0,0,0-.3.91c0,.09-.09.18-.13.28-.37,1.07,1.22,2.06,2,1.14a21.65,21.65,0,0,1,3.37-3.33c4.66-1.86,9.46-3.26,14.43-1.8a1,1,0,0,0,.71.63l.35.08.16,0a17.47,17.47,0,0,1,3.05,1,1.2,1.2,0,0,0,1.56-.44l.47.22a1.17,1.17,0,0,0,1.47-.29Z"/><path class="cls-18" d="M139.23,157.47a7.59,7.59,0,0,1-1.16-1,4.86,4.86,0,0,1-1.23-2.05c-.36-.34-.71-.69-1.06-1a1.29,1.29,0,0,1-.26-.38l-.92.17c-1.56.35-3.41,1.65-2.62,3.54a2.14,2.14,0,0,0,1,1.08,1.18,1.18,0,0,0,.5.25c.36.08.74.14,1.12.19.08.23.15.47.25.7a1.92,1.92,0,0,0,2.08,1.09,2.37,2.37,0,0,0,2-1.06,2.28,2.28,0,0,0,.25-.79c.22,0,.44-.06.66-.09A4.46,4.46,0,0,1,139.23,157.47Z"/><path class="cls-18" d="M158.1,153.29A6.35,6.35,0,0,0,154,152c1.73,1.07,3.11,2.92,2.82,4.8a5.2,5.2,0,0,0,.86-.38A1.81,1.81,0,0,0,158.1,153.29Z"/><path class="cls-18" d="M124.46,282.69a1.18,1.18,0,0,0-1.42-.18,3.94,3.94,0,0,0-.49.41,2.93,2.93,0,0,0-.24-.34,3.17,3.17,0,0,0-3.15-.92,1,1,0,0,0-.79,0,4.63,4.63,0,0,0-2.3,2.13.34.34,0,0,1,.05.27,7.2,7.2,0,0,0,0,3c.1.38.22.75.34,1.12a.35.35,0,0,1,0,.32,7.43,7.43,0,0,0,.78,1.54l.36.47a4.08,4.08,0,0,0,.93.34,5.17,5.17,0,0,0,5.3-2.47C124.74,286.89,125.91,284.15,124.46,282.69Z"/><path class="cls-18" d="M142.71,293.6h-.07a1.13,1.13,0,0,0-.54-.13,1.05,1.05,0,0,0-.85-.37,1.11,1.11,0,0,0-.67.2.89.89,0,0,0-.43,0h0a2.06,2.06,0,0,0-.47-.32,2.13,2.13,0,0,0-.78-.19,9.14,9.14,0,0,0-1.46-.41,5,5,0,0,0-1.27-.56,1.16,1.16,0,0,0-1.82-1.42l-.52.52a1,1,0,0,0-.18.28.94.94,0,0,0-.23.39c-.82,2.28,0,5.6,2.3,6.76a5.2,5.2,0,0,0,5.44-.57,3,3,0,0,0,1.11-1.08,4.45,4.45,0,0,0,1.26-1.65A1.18,1.18,0,0,0,142.71,293.6Z"/><path class="cls-18" d="M188.56,283.08c-.3.21-.6.42-.88.66l-.07.05a.31.31,0,0,1-.09.39c-.16.14-.31.3-.46.44,0,0,0,.08,0,.12l0,0-.62.75c-.87.8-2.26,1.12-3.06,2.06a3,3,0,0,0-.45.76.33.33,0,0,1,.31.37,1.62,1.62,0,0,0,0,.22.45.45,0,0,1,.37.28,13.8,13.8,0,0,0,1.51,3.31,8.44,8.44,0,0,0,2.53,1.73,7.72,7.72,0,0,0,1.52-.09C194.54,293.26,193.59,283.25,188.56,283.08Z"/><path class="cls-18" d="M179.14,199.72c-1.15,0-2.28.1-3.41.2a.67.67,0,0,0-.7-.48,65.5,65.5,0,0,0-6.74,1,.59.59,0,0,0-.66-.35l-.21,0h0c-5.47.73-13.06,1.92-17.31,5.91l-.2.17-.06,0c-2.14,1.52-2.66,3.62-2.64,6.12a.8.8,0,0,0-.63.72c-.27,3.32-.92,9.6,1.48,12.41,1,1.18,2.53,1.68,3.62.94a.74.74,0,0,0,.92-.74l0-.68a.74.74,0,0,0-.51-.71c-.33-.83-.65-1.66-1-2.49l0-.06c-.46-3.3-.69-6.62-.86-9.94.05-.14.1-.29.14-.43.16-.42.33-.84.51-1.25a.79.79,0,0,0,.06-.29c1.44-1.28,2.92-2.52,4.46-3.67a.79.79,0,0,0,.19-.22l9.26-2.5a61,61,0,0,1,11-1.95.79.79,0,0,0,.65.18l2.8-.4C180.22,201.13,180,199.7,179.14,199.72Z"/><path class="cls-18" d="M182.07,231.89c-1.31-2.79-2.81-3.37-5.74-2.86a96.06,96.06,0,0,0-10.56,2.57,57.8,57.8,0,0,0-9.67,2,.84.84,0,0,0-.85-.31,7.85,7.85,0,0,0-2.43.89,3.79,3.79,0,0,0-3.38.7,3.59,3.59,0,0,0-2.4,1.93,6.94,6.94,0,0,0-.38,3c0,1.86,0,3.73,0,5.59a.71.71,0,0,0,.14.43,15,15,0,0,0,.19,7.41.72.72,0,0,0,.12.21q0,1.22,0,2.43a.72.72,0,0,0-.11.4c.22,4.15.61,8.26,1.15,12.36a.61.61,0,0,0-.25.8c.55,1.43.17,2.87.21,4.36a16.89,16.89,0,0,0,.78,4.23c.52,1.74.94,3.66,2.65,4.46a4.94,4.94,0,0,0,.43.66c.48.67,1.71.31,1.42-.6-.54-1.73-1.08-3.47-1.63-5.2a.6.6,0,0,0-.06-.11q-.47-3.67-.87-7.35a.83.83,0,0,0,.05-.37l-.63-6.25a.68.68,0,0,0,.18-.54,123.06,123.06,0,0,1,0-18.91c.1-.77.22-1.53.34-2.3.31-.95.58-1.92.81-2.89a13.54,13.54,0,0,1,2.16-2.12l7.7-1.93c5.9-.66,12-2.81,17.85-2.52h0A5.71,5.71,0,0,1,181,233C181.71,233.42,182.37,232.55,182.07,231.89Z"/><path class="cls-12" d="M154.65,152.46a9.42,9.42,0,0,1,2.35.63,2.71,2.71,0,0,1,1.38,1.2c.21.64-.38,1-1,1.3a.52.52,0,0,1-.17.12l-.42.14a3.24,3.24,0,0,1,0,.88l.19,0a.44.44,0,0,0,.23-.19c1.33-.5,2.72-1.48,1.58-2.91a5.11,5.11,0,0,0-2.92-1.67l-.32,0a4.64,4.64,0,0,1-1.05-.13h0c-.35,0-.69,0-1,0A7.28,7.28,0,0,1,154.65,152.46Z"/><path class="cls-12" d="M189.3,283a11.9,11.9,0,0,0,1.56-2.76,10,10,0,0,0,1-2.67l0,0c.08-.54.19-1.06.31-1.59h0q.7-19.86.86-39.74a8.46,8.46,0,0,1-.06-2l-.07-.09a39.54,39.54,0,0,0-.16-6.61c-.64-5.44-1.34-10.74-1.5-16.19,0,0,0,0,0-.05a37.06,37.06,0,0,1,0-4.22,41.94,41.94,0,0,0-1.9-8.78q-.37-.72-.69-1.47c-.13-.31-.26-.6-.36-.91l-1.44-3.15a.31.31,0,0,0-.29-.2c-.05-.09-.09-.19-.14-.29a.33.33,0,0,0-.18-.28,15.8,15.8,0,0,0-1.17-1.68c.26.25.51.51.77.77l-.33-.43a12.09,12.09,0,0,1-1.08-1.29c-.14-.2-.26-.39-.38-.59l-.35-.4a17.67,17.67,0,0,0-6-3.24.31.31,0,0,1-.17-.12A58.78,58.78,0,0,0,165.27,183a.31.31,0,0,0-.35.22,16.53,16.53,0,0,0-7.76-2.1c-.16-3.9-.4-7.81-.45-11.71s.11-7.53-.1-11.33a2.2,2.2,0,0,0,.2-1.25,3.81,3.81,0,0,1-.22.76,4.66,4.66,0,0,1-.14.91,7.07,7.07,0,0,1-.57,1.34c.1,3.2,0,6.36.05,9.57,0,3.89.29,7.78.45,11.66-1,0-2.08,0-3.09,0a.36.36,0,0,0-.27.12h-.29a.34.34,0,0,0,.17-.31q.1-6.48.19-13l0,0a12,12,0,0,1,.16-2.15c0-.09,0-.19,0-.29,0-1,.06-2,.08-3a6.12,6.12,0,0,1-.8.72l-.06,2.12h0c0,.24,0,.49,0,.73a7.3,7.3,0,0,1,0,.81c0,.43-.09.86-.14,1.28l0,.9a.56.56,0,0,0,0,.13c-.06,3.9-.11,7.8-.17,11.7a.36.36,0,0,0,.2.33,13.73,13.73,0,0,0-7.37,2.26l-.24.19s-.05,0-.07,0a.43.43,0,0,1-.2.14,7.32,7.32,0,0,1-2.33.25c-.76.05-1.51.09-2.27.08h0a.49.49,0,0,1-.29-.11.31.31,0,0,0-.24.06c-.09-2.26-.18-4.51-.31-6.76a.35.35,0,0,0,.06-.21,72.12,72.12,0,0,1,.12-9.75c.09-1.21-.11-2.36-.12-3.57a18.34,18.34,0,0,0-.14-3.85.33.33,0,0,0-.35-.27,3.74,3.74,0,0,0,.94-1,.36.36,0,0,0,0-.09l.83-.13a3.91,3.91,0,0,1-.85-.65l-.46.07a.34.34,0,0,0-.27.45,2,2,0,0,1-2.27.82,2.66,2.66,0,0,1-1.32-.62c.61,0,1.22,0,1.84,0s.5-.81,0-.79-.91,0-1.36,0a.5.5,0,0,1-.21,0h-.1l-.5,0s0,0,0,0a2.82,2.82,0,0,1-1.24-.19,1.35,1.35,0,0,1-.48-.18,1.77,1.77,0,0,1-.75-1.52c0-1.33,1.69-1.91,2.74-2.3a.31.31,0,0,0,.17-.12l.43-.07a1,1,0,0,1-.26-.73h0c-.61.21-1.2.44-1.79.69-1.13.52-2.07,1.26-2,2.66a2.38,2.38,0,0,0,.81,1.81,2,2,0,0,0,1.26.56,1.08,1.08,0,0,1,.19,0,.42.42,0,0,1,.41.36,2.6,2.6,0,0,0,.33.4.37.37,0,0,0-.23.33,18.19,18.19,0,0,0,.27,2.84c.09,1.15,0,2.33,0,3.48l-.07,5.63a.37.37,0,0,1,0,.15c0,1-.08,2-.14,2.94.07,3.38.17,6.76.4,10.13a24.09,24.09,0,0,0-13.1,5.49c-.62.68-1.2,1.39-1.83,2a.46.46,0,0,1-.25.11c-.1.12-.21.23-.31.36l0,0a41,41,0,0,0-2.46,3.52c-2.37,4.71-3.1,9.93-4.16,15.13h0c-.13,1.37-.47,2.71-.5,4.09a.43.43,0,0,1,0,.12l-.69,9.15a96.93,96.93,0,0,0-.47,11.8h0a27.33,27.33,0,0,1-.13,4.61.48.48,0,0,1,0,.17c-.09,2.22-.24,4.44-.29,6.67-.08,3,.27,6,.38,9,0,.27.07.54.1.81a10.62,10.62,0,0,1,.29,1.36,14,14,0,0,1,.11,1.44,96.5,96.5,0,0,0,2.56,14,.48.48,0,0,1,.09.19c.18.87.57,1.68.81,2.54.13.48.29.95.45,1.42a25.3,25.3,0,0,0,1.47,2.83.52.52,0,0,1,.07.41l.07,0-.08.09a.62.62,0,0,1-.3.32,6.37,6.37,0,0,0-1,3.13,5.49,5.49,0,0,0,1.65,4.9c2.72,2.17,7.06.22,7.22-3.13.29.2.58.4.88.57A60.45,60.45,0,0,0,133,291c-.72,1.24-.12,3.29.34,4.48a5.89,5.89,0,0,0,3.31,3.53c3.31,1.19,7.74-1.49,6.81-5.24,0,0,0,0,0-.06a62.06,62.06,0,0,0,15-.62,144.14,144.14,0,0,0,22.08-4.34A8,8,0,0,0,182,288l.1,0a.38.38,0,0,1,.41,0,.43.43,0,0,0,0-.16l.52-.23a5.38,5.38,0,0,0,2,5.37c1.6,1.24,4.2,1.92,6,.63C193.93,291.4,193.6,283.28,189.3,283ZM152.53,182a7,7,0,0,1,2.14-.16c4.64,0,9.74.54,12.5,4.66a9.69,9.69,0,0,1-3.88-.79,20.83,20.83,0,0,0-3.11-1.25,16.7,16.7,0,0,0-6.78-.53A15.64,15.64,0,0,0,143,189.75a.4.4,0,0,0-.17.26.3.3,0,0,0,0,.11,5.42,5.42,0,0,1-1.69-.3C142.94,184.62,147.38,182.36,152.53,182Zm3.59,3.83c-.39.33-1.18.24-1.68.27a4,4,0,0,1-1.32.07c-.4-.18-.34-.91-.35-1.34a15.52,15.52,0,0,1,3-.25c.21,0,.41,0,.61,0C156.41,185.05,156.48,185.52,156.12,185.81Zm-16.7-1a26.5,26.5,0,0,0,4.08-.2,12.67,12.67,0,0,0-2.87,4.14.64.64,0,0,1,0-.07c-.16-.39-.58-.4-.89-.63a.3.3,0,0,0-.28-.06c0-1.07-.07-2.14-.11-3.2Zm-2.69-24.91a2.77,2.77,0,0,0,1.47-.14.42.42,0,0,0,0,.3,25.29,25.29,0,0,1,.13,4.26,25.43,25.43,0,0,1,.06,3.6,66.71,66.71,0,0,0-.09,8.83,1,1,0,0,0,0,.1,11.27,11.27,0,0,1,0,1.54c.2,3.56.35,7.14.44,10.71a6.11,6.11,0,0,1-2.53,1.14h0c-.65-5.51-.81-11.06-.93-16.6a.41.41,0,0,0,.07-.11c0-.39,0-.79.05-1.18l.08-6.72c0-1.06.06-2.13,0-3.19s-.34-2-.28-3.05A4.13,4.13,0,0,0,136.73,159.94Zm-1.83,25.37c.09,1.2.19,2.39.31,3.59-1.16.29-2.25,1.23-1.28,2.48.72.93,2.38,1.08,3.68.81a2.57,2.57,0,0,0,1.8-.22,2.67,2.67,0,0,0,.41-.22,5.79,5.79,0,0,0,.77.18c.85.16,2.5.35,3.25-.23s.32-1.19-.12-1.68A14.28,14.28,0,0,1,152,185a1.93,1.93,0,0,1,0,.24c-.9.2-2.09,1-1.62,2.07.61,1.4,3.12,1.35,4.31,1.22s3.43-.29,4-1.6c.42-1-.53-1.76-1.45-1.85,0-.14,0-.27,0-.39a18.23,18.23,0,0,1,5.71,1.7l.05,0a2.47,2.47,0,0,0-.5.61s0,0,0,.07a.39.39,0,0,0-.08.1c-.86,1.66,3.92,1.29,4.54,1.19s2.11-.22,2.22-1.2c.08-.78-.65-1.08-1.29-1.12a9.29,9.29,0,0,0-2-2.19c4.16.37,8.79.78,12.7,2.26h0l.11,0h0l.19.06a9.84,9.84,0,0,1,2.43,1,36.57,36.57,0,0,1,3.88,4.47c-8.49-1.48-17.06-.07-25.48,1.34-7.95,1.32-16,2.89-22.9,7.33a.51.51,0,0,0-.21,0c-4-4.9-10.75-6.8-16.91-7C123.3,188.55,128.91,186,134.9,185.31ZM117.28,289.17a4.72,4.72,0,0,1-1-3.15c0-1,.26-3.18,1.36-3.81a10.1,10.1,0,0,0,1.23.92c-.56,1.63-1,3.8-.36,5.45a4.11,4.11,0,0,0,1.25,1.71A3.29,3.29,0,0,1,117.28,289.17Zm4.08.8a.37.37,0,0,0-.19,0c-1.55.19-2.12-2-2.15-3.08a9,9,0,0,1,.24-2.32.54.54,0,0,0,0,.1c.65,1.64,1.33,3.9,3,4.77A4.28,4.28,0,0,1,121.36,290Zm4.92-2.68a37.12,37.12,0,0,1-4.39-3.07c-1.2-.88-2.56-1.54-3.68-2.51a.5.5,0,0,0-.11-.27.3.3,0,0,0,0-.1,27.52,27.52,0,0,1-2.65-4.81c-2.15-6.59-3-13.55-3.73-20.45l0-.08c-.13-2.75-.42-5.48-.35-8.24.09-3.56.42-7.11.32-10.67l.07-.06a.57.57,0,0,1,0-.13,7.72,7.72,0,0,1-.06-.82c0-.78.07-1.56.09-2.34,0-3.08.3-6.16.53-9.24q.45-6.06.91-12.13a.39.39,0,0,0,.1-.18c1.25-5.94,1.91-11.95,5-17.2.13-.43.43-.9.91-.86a.29.29,0,0,1,.14,0c6,.1,13,1.93,16.82,6.9a.43.43,0,0,0,.21.15c1.2,3.37.76,7.48.54,11.15a.39.39,0,0,0-.06.2c0,.26,0,.53,0,.79l0,.78a.31.31,0,0,0,0,.17c0,4.05-.06,8.14.25,12.17a89.91,89.91,0,0,1,.4,12.27.43.43,0,0,0-.15.28c-.9,9.83-.93,19.71-1,29.57a.48.48,0,0,0,0,.18q-.06,11.39-.37,22.77h0C132.89,290,129.42,288.94,126.28,287.29Zm12.61,11.19c-3-.5-3.76-3.58-2.89-6.11a.4.4,0,0,0,.37-.07l.09,0a.39.39,0,0,0,.22-.08,30.29,30.29,0,0,0,6.15,1.43.35.35,0,0,0-.09.35C143.35,296.5,141.16,298.24,138.89,298.48Zm43.81-11.64a8.29,8.29,0,0,1-2.63,1.12.38.38,0,0,0,0,.15,140.81,140.81,0,0,1-20.48,4.07c-7.56,1.07-15.37,1.89-22.72-.7q.33-12,.39-24a.35.35,0,0,0,0-.18c0-9,.09-18,.84-26.94a.4.4,0,0,0,.16-.29,81.42,81.42,0,0,0-.31-13.61c-.33-4.35-.22-8.76-.26-13.12.17-4,.83-8.52-.49-12.29,6.63-4.28,14.4-5.86,22.07-7.15,8.74-1.47,17.67-3,26.49-1.31,0,0,0,.1.08.16h0a3.14,3.14,0,0,1,.9,1.56l1.17,2.56a2.51,2.51,0,0,1,.42.87l0,.06A42.3,42.3,0,0,1,190.61,209a.37.37,0,0,0-.16.31A159.64,159.64,0,0,0,192,227.47a47.23,47.23,0,0,1,0,9.21c0,.92,0,1.84,0,2.75a24.74,24.74,0,0,1,.15,6.25l0,0q-.21,15.37-.76,30.76h-.1a5.87,5.87,0,0,1-.71,2.62c-.3.68-.65,1.33-.83,1.7a9.15,9.15,0,0,1-2.87,3.4A22.56,22.56,0,0,1,182.7,286.84Zm6.89,6.56-.14,0a.39.39,0,0,0-.3-.2c-3.81-.41-4.13-5.28-2.46-7.84a19.89,19.89,0,0,0,2.06-1.77l0,0a.34.34,0,0,0,.3.15c2.24,0,3,3.28,3,4.93S191.55,292.82,189.59,293.4Z"/><path class="cls-12" d="M126.49,228.56c1.15.22,1.79-.74,1.72-1.81a5.08,5.08,0,0,0-1.58-3.19,2.07,2.07,0,0,0-2.71-.42c-.47.35-1,1.36-.52,1.84-3.51,2.39-4.6,7.09-5,11.08-.31,2.92.66,8.86,3.7,10.52-.25.8-.07,1.7.91,1.87,1.14.19,2.47-1,3.16-1.81a2.88,2.88,0,0,0,.63-3.23c-.54-.91-1.37-.54-2,0a18.81,18.81,0,0,1,1.64-14.9A.34.34,0,0,0,126.49,228.56Zm-2.36,15.52a.38.38,0,0,0,.08.23c.07.18.13.37.2.55a3.54,3.54,0,0,1-1.46,1.28h0c-2.14-.65-2.88-3.79-3.33-5.65a13,13,0,0,1-.26-5.55c.57-3.26,1.35-6.85,4-9a.51.51,0,0,0,.2-.06h0l.1-.07c.27-.23.54-.47.9-.37s.42.37.65.58.5.33.61.61a1.87,1.87,0,0,1,0,.88.32.32,0,0,0,0,.22A19.56,19.56,0,0,0,124.13,244.08Z"/><path class="cls-12" d="M183.17,205.15c-.55-2.83-1.92-5.36-5-5.91-3.72-.67-8.2.54-11.84,1.23-4.65.88-9.6,1.83-14,3.69a10.38,10.38,0,0,0-5.14,4.26h0c-.23.88-.49,1.75-.76,2.63a6.42,6.42,0,0,0,0,.88,53.17,53.17,0,0,0,.2,10c.34,2.57,1.48,4.8,4.31,5a29.88,29.88,0,0,0,5.88-.56q3.21-.42,6.41-1a128.09,128.09,0,0,0,13.5-3.25c3.24-1,5.9-2,6.62-5.65A30.25,30.25,0,0,0,183.17,205.15Zm-.35,9.26c-.18,2-.49,4-2.17,5.28-1.44,1.11-3.5,1.52-5.22,2A126.65,126.65,0,0,1,155,225.85c-1.79.22-4,.78-5.64-.21s-1.86-3-2-4.77a70.79,70.79,0,0,1,0-10.4c.61-3,3.48-4.9,6.33-6a74.18,74.18,0,0,1,10-2.69,107.53,107.53,0,0,1,10.7-1.78,10,10,0,0,1,4.81.28,4.87,4.87,0,0,1,.56.28c-4.18,1-8.5.78-12.67,1.93a102.48,102.48,0,0,0-11.91,3.55c-3,1.22-4.84,3.28-4.94,6.57A44.11,44.11,0,0,0,152,225.81a.39.39,0,0,0,.76-.21,48.8,48.8,0,0,1-1.86-11.95c-.08-2.4.48-4.48,2.57-5.88a16.16,16.16,0,0,1,4.57-1.86c3.67-1.09,7.36-2.29,11.09-3.14s7.52-.6,11.2-1.52l.11-.05a6.6,6.6,0,0,1,1.77,3.35A30,30,0,0,1,182.82,214.41Z"/><path class="cls-12" d="M185.46,262.86c-.38-6.6-1.22-13.18-1.89-19.76-.3-2.92-.48-5.89-.92-8.8-.26-1.73-.78-3.66-2.36-4.65-2.18-1.36-5.24-.27-7.54.17l-11.07,2.1c-3.56.68-7.14,1.3-10.69,2a7.21,7.21,0,0,0-3.43,1.45h0a4.82,4.82,0,0,0-.88,1.64l0,.18,0,.06a238.43,238.43,0,0,0,1.12,36.34c.46,4.17.5,9.21,5.26,10.27v0l.16,0a.32.32,0,0,1,.18-.05,8.15,8.15,0,0,1,2.56.22h0l.2,0c1.76,0,3.54-.29,5.25-.47q4.32-.45,8.61-1.1a90.68,90.68,0,0,0,9.26-1.66,7,7,0,0,0,4.35-3.08C186.29,273.62,185.74,267.54,185.46,262.86Zm-36.08,16.53a55.35,55.35,0,0,1-1.06-8.43,237.36,237.36,0,0,1-.82-34.25c1-2,4.46-2.15,6.37-2.51l8-1.52,8-1.53c2.5-.47,5.61-1.57,8.16-1.35a3.7,3.7,0,0,1,3.38,2.8,12.52,12.52,0,0,0-6.95-.33c-3.72.6-7.42,1.3-11.13,2-3.08.54-6.79.62-9.63,2-2,1-2.76,3-3.07,5.09a108.13,108.13,0,0,0-.49,21.51,137.32,137.32,0,0,0,2.71,20.2A4.78,4.78,0,0,1,149.38,279.39Zm34.55-4.06a6.74,6.74,0,0,1-5.14,4.87c-2.46.58-5,1-7.49,1.37-5.18.83-10.64,1.79-15.91,1.76a9.88,9.88,0,0,1-1.66-.13,135.93,135.93,0,0,1-2.71-37c.19-2.81-.13-7.2,2.51-9,1.23-.84,3-1,4.41-1.23l4.89-.86,9-1.59c3.2-.56,6.71-1.54,9.77,0l.1,0a25.92,25.92,0,0,1,.42,3.05c.27,2.69.54,5.37.82,8.06.54,5.32,1.16,10.63,1.58,16C184.9,265.32,185.45,270.76,183.93,275.33Z"/></g></svg>