<svg xmlns="http://www.w3.org/2000/svg" xmlns:xlink="http://www.w3.org/1999/xlink" viewBox="0 0 200 300"><defs><style>.cls-1{fill:none;}.cls-2{fill:#ddbfa6;}.cls-3{fill:#bba18e;}.cls-4{fill:#8ad6f2;}.cls-5{fill:#8c4f21;}.cls-6{fill:#723c18;}.cls-7{fill:#262262;}.cls-8{fill:#1c194b;}.cls-9{fill:#5cc9e5;}.cls-10{fill:#131438;}.cls-11{fill:#fff;}.cls-12{fill:#006838;}.cls-13{fill:#231f20;}.cls-14{fill:#04512a;}.cls-15{fill:#dcdbdb;}.cls-16{fill:#a9333b;}.cls-17{fill:#8d2831;}.cls-18{fill:#e3939e;}.cls-19{fill:#414042;}.cls-20{fill:#58595b;}.cls-21{fill:#808285;}.cls-22{fill:#1e2856;}.cls-23{clip-path:url(#clip-path);}.cls-24{fill:#18243d;opacity:0.49;}.cls-25{fill:#eecd49;}</style><clipPath id="clip-path"><path class="cls-1" d="M94,110.58c-.46-2.29-1-4.53-1.44-6.83-.12-.67-.29-1.31-.44-2a7.92,7.92,0,0,1-.41-1.73l-.15-.7a.24.24,0,0,0-.35-.16h0l-2.7.65c-2.13.39-4.24.83-6.35,1.29-1.18.26-2.38.49-3.55.79s-2.36.41-3.49.74a.24.24,0,0,0-.12.07.25.25,0,0,0-.13.37s0,.07.05.1a.33.33,0,0,0,0,.14c.2,1.14.63,2.25.84,3.39a35.37,35.37,0,0,0,.83,3.7c.58,3,1.1,6.11,1.93,9.09.32,1.83.74,3.66,1.16,5.48a1.66,1.66,0,0,0,.2.87c.07.3.13.6.2.9a.22.22,0,0,0,.23.18.21.21,0,0,0,.21,0l.13,0a.21.21,0,0,0,.12,0l.62-.17c2.49-.46,5-1,7.42-1.58a15,15,0,0,0,2.64-.63l1.67-.41c1.12-.21,2.25-.42,3.37-.65a.21.21,0,0,0,.18-.17.29.29,0,0,0,.29-.06C95.9,119,94.86,114.87,94,110.58Z"/></clipPath></defs><title>Artboard 1 copy 4</title><g id="Layer_8" data-name="Layer 8"><path class="cls-2" d="M112.47,194c-.28-3.18-5.29-3.21-5,0,0,.07,0,.14,0,.21a2.54,2.54,0,0,0-.89,1.05,2.61,2.61,0,0,0-4.29.14,20.26,20.26,0,0,0-.84,1.9.91.91,0,0,0-.07-.14,2.51,2.51,0,0,0-4.43.32,12.64,12.64,0,0,0-1-1.49c-1.1-1.42-3.29-1.78-4.32,0-.17.3-.3.6-.44.9a7,7,0,0,0-1.38-1.18,2.23,2.23,0,0,0-2.81.29l-.18-1.14c-.49-3.17-5.31-1.82-4.82,1.33l0,.21a1.76,1.76,0,0,1,1.82,1.87c0,1.47,0,3,0,4.45a1.31,1.31,0,0,1,.19.51,54.89,54.89,0,0,1,.34,5.73,1.67,1.67,0,0,1,0,.4,1.92,1.92,0,0,1,.41.79,36,36,0,0,1,1,7,2.21,2.21,0,0,1,.37.7,7.49,7.49,0,0,1,.33,2.16l0,.31a1.87,1.87,0,0,1,.34,1c.1,1.74.35,3.47.54,5.21a.47.47,0,0,1,0,.17c1.51,8.93.46,17.13-.17,26.24a2.49,2.49,0,0,0,.09.84c-.23,6.26,1.76,12.73,3.25,18.79a46.68,46.68,0,0,0,1,5.88c.68,2.74,1.59,4.65,4.61,5,2.52.29,5.4.76,6.66-2a17.3,17.3,0,0,0,1-7.07,3.08,3.08,0,0,0,.37-.6c1.92-4.35,2.65-8.81,3.55-13.44-.25-3.75-.74-7.48-.83-11.24a1.73,1.73,0,0,1,.64-1.46c-.37-3.29-.82-6.6-.86-9.86a74,74,0,0,1,2.18-10c.63-9.88,3.26-19.76,2.39-29.59a1.59,1.59,0,0,1,1.33-1.81C112.6,195.53,112.55,194.74,112.47,194Z"/><path class="cls-3" d="M110.87,195.78l-.45.24c-4.38-.23-9.26,1.29-13.65,1.56-.51,0-1,0-1.53,0h-.62c-3.9-.11-7.64-1-11.57-1.09l-.07,0a1.1,1.1,0,0,0-.93.25,1.73,1.73,0,0,1,1.62,1.37c.89,3.5.68,7,.83,10.56a1.93,1.93,0,0,1,.35.82A1.81,1.81,0,0,1,85,210a171.68,171.68,0,0,1,2.14,19.19c.07.32.1.76.15,1.08s0,.7,0,.93c.08,1.07,0,2.19,0,3.25,0,.64.55,1.1.18,1.41-.34,4.1-.67,8.22-.73,12.32-.08,5.4,1,10.63,2.28,15.85q.69,4.06,1.76,8.06c.43,1.77.91,3.53,1.46,5.28a1,1,0,0,0,.27.43c.29.86.59,1.73.92,2.59a1,1,0,0,0,1.93-.53,245.85,245.85,0,0,1-4.21-32.65c.08-2.14.12-4.27.1-6.41.19-1,.41-2.06.67-3.08a1,1,0,0,0-.16-.82c.09-.49.17-1.06.24-1.67a31.57,31.57,0,0,0-2-15.29c-2.32-6-2.85-13.86-1.39-16.3,3.86-6.44,14-3,22.85-5.59a.82.82,0,0,0,.79-.88l0-.05C113.2,196.15,111.72,194.69,110.87,195.78Z"/><path class="cls-3" d="M101.34,236.34c-.63,1.89-1.14,4.82-2.73,6.35a6,6,0,0,1-4.62.63,1,1,0,0,0-.53,1.93,8.24,8.24,0,0,0,3.79.09.82.82,0,0,0,.74,0,5.92,5.92,0,0,0,1.55-.91l.1-.06c.33.74,3.12-5,3.63-7.53A1,1,0,0,0,101.34,236.34Z"/><path class="cls-4" d="M45.66,158.09A1.54,1.54,0,0,0,43.81,157l-.13,0a1.33,1.33,0,0,0-.34-.53,1.5,1.5,0,0,0-2.12,0,16.87,16.87,0,0,0-2.08,3.24,1.5,1.5,0,0,0,2.47,1.69l.21-.09.39-.2c.3-.17.58-.36.86-.55a3.72,3.72,0,0,1,1.54-.7A1.51,1.51,0,0,0,45.66,158.09Z"/><path class="cls-2" d="M34.41,148.47c0-.2.05-.43.07-.6l.18-1.1.06-.36v0a1.61,1.61,0,0,0,.74-1.75,1.55,1.55,0,0,0-1.84-1,1.9,1.9,0,0,0-1.48,1.12,1.84,1.84,0,0,0-.79.94c-.77,2-.31,5.29,2.18,5.75a1.51,1.51,0,0,0,1.16-2.74Z"/><path class="cls-4" d="M104.08,284.31c-3.51.86-7,1.48-10.46,0-.31-.13-.63.19-.63.48l0,1.72a.47.47,0,0,0,.57.47.33.33,0,0,0,.1.14c1.86,1.44,4.15,1.42,6.41,1.13,2.72-.34,4-.66,4.65-3.36A.51.51,0,0,0,104.08,284.31Z"/><path class="cls-4" d="M115.27,294.61c-.94-1.46-3.27-2-4.69-2.89a30.48,30.48,0,0,1-2.93-2.14A17.88,17.88,0,0,0,105,287a2,2,0,0,0-1.06-.35.42.42,0,0,0-.26-.05,1.35,1.35,0,0,0-.95-.31,11.51,11.51,0,0,0-3.17.68c-.49.18-1.27.55-1,1.21l0,0a.47.47,0,0,0,.28.72c3,.75,5.85,2.91,8.34,4.71.71.51,2,1.77,3.14,2.07a2.07,2.07,0,0,0,1.79.92,4.58,4.58,0,0,0,3.13-1.56A.47.47,0,0,0,115.27,294.61Z"/><path class="cls-2" d="M155.85,158.57a.76.76,0,0,1,.43-.43c.63-2.45-.81-4.54-2.62-6.34-2.28-2.28-4.74-4.85-8.08-5.35a8.79,8.79,0,0,0-1.44-.07c-.09-.12-1,.65-1.1.54-3.91-3.56-8.27-6.18-12.64-9.16a56.64,56.64,0,0,0-5.1-2.73l-8.1-5.89c.14-2,.28-4,.39-6,.85-6-1-10.69-.7-16.77.09-2.28-.66-4.51-2-3.16a2.58,2.58,0,0,0-2.38,1.45,2.73,2.73,0,0,0-2.82,2.39c0,.41-.1.82-.16,1.22a2.53,2.53,0,0,0-2.15.36,2.65,2.65,0,0,0-3-.36,2.42,2.42,0,0,0-3.28,2.29,97.52,97.52,0,0,0,2.53,20.84c0,.14.09.26.13.38.51,5.81,1.73,11.66,7.49,13.94,4.64,1.84,10,3.36,14.81,4.71,3.84,1.09,5.85,2,9.9,1.94,0,.57,1.3,1.45,1.19,2-.15.86,2.08,3.11,4.72,5.13a.75.75,0,0,1,1,.64s.06.1.09.16,0,0,0,.05h0a.62.62,0,0,1,.39-.12,4.19,4.19,0,0,0,1.12,0c.37-.05.86.09.93.53a10.19,10.19,0,0,1,.09,1.24l.81.43a.72.72,0,0,1,.59-.12,3.41,3.41,0,0,0,2.13-.3c.54-.27,1.34.19,1.1.85,0,.09-.13.28,0,.35l0,0a7.63,7.63,0,0,0,4.39-2.18C154.94,160.17,155.5,159.41,155.85,158.57Z"/><path class="cls-5" d="M97.27,24.62C95,18.26,92.89,12.08,87.64,8.06c-.27-.21-1.07-1.19-1.31-1.1-3.08-2.79-6.56-3.69-10.77-5C68.17-.38,59.69,2.87,53,6.32,46.59,9.65,42.78,14.65,39.3,19.65c-2.29,5.78-2.68,11.42-4.19,17-1.12,6-4.23,11.6-3.62,17.31a1.68,1.68,0,0,0,.1.62,31.78,31.78,0,0,1-8.13,15.17c-2.7,2.68-6.55,4.57-9.52.38a11.08,11.08,0,0,1-1.46-5.69,18.39,18.39,0,0,1,3.66-11.11c.7-1-.64-.8-1.43,0-.1,0-4.54,2.45-5.58,6.11-.63.28-.88,3.25-1,4.11a20.29,20.29,0,0,0,.48,5.34c0,3.16,1.6,6,2.67,8.6A8.7,8.7,0,0,0,12.24,79c.63.92,1.9,1.94,2.38,3,3.32,7,17.5,8.67,20,8.37a1.12,1.12,0,0,0,.9-1.47,1.86,1.86,0,0,0,.86-.47,1.94,1.94,0,0,0,1-1.76,2.2,2.2,0,0,0,.94-1.1,6.08,6.08,0,0,0,.26-1A1.7,1.7,0,0,0,40,84a2,2,0,0,0,2.57-1.9c0-.26,0-.53,0-.79a1.63,1.63,0,0,0,.57-.78,1.89,1.89,0,0,0,1,.18c.13.29.25.59.38.88.68,1.51,3.39,1.18,3.65-.48a10.86,10.86,0,0,0,.14-1.41,1.94,1.94,0,0,0,.48-.51c0,.13.09.26.14.38.69,1.85,3.8,1.89,3.92-.19.09.21.16.41.25.62,1,2.32,4.48,1.51,3.86-1.06l-.09-.33a2.26,2.26,0,0,0,.83-.56,1.61,1.61,0,0,0,1.67.41,2,2,0,0,0,1.64.76A2,2,0,0,0,63.59,78c.85-2.23,2.8-4.09,2.53-6.65-.22-2.18-2.05-3.75-3.4-5.3a74.25,74.25,0,0,1-8.25-11.62c-1-2.77-1.9-5.56-2.76-8.37a28.86,28.86,0,0,1,6.48-12c2.52-2.74,5.64-4.8,8.31-7.36a19.67,19.67,0,0,0,5-7.34c.35,1,.73,2,1.05,2.72,2.39,5.47,7.28,8.8,12.1,12a47.52,47.52,0,0,1,8.21,6.24,20.39,20.39,0,0,1,3.54,5.15c-.13,1-.27,2-.42,3a1.84,1.84,0,0,0-2.12,1.39q-1.77,5.85-3.11,11.8A111.29,111.29,0,0,0,81,74.46c-1,1.63,1.09,3.9,2.74,2.73l.15-.11a2,2,0,0,0,2.48,2.67,1.63,1.63,0,0,0,1.75-.12,19.59,19.59,0,0,0,3-2.84c0,2.57,3.75,2.44,4-.05.08-.79.18-1.57.28-2.35a.92.92,0,0,0,.62-.15c1.62-1,1.61-2.12,2.08-4,.9-3.63,1.56-7.35,2.27-11,.05-.24.09-.47.13-.71l.11-.27a1.7,1.7,0,0,0,.1-.82l.24-1.3a6.12,6.12,0,0,0,.65.83C101.59,47.29,97.44,25,97.27,24.62Z"/><path class="cls-6" d="M98.43,54.89c-.41,1.28-2.82,7.41-3.34,8.64a54.83,54.83,0,0,0-1.92,14.34c0,2-2.35,2.43-3.46,1.33a2.21,2.21,0,0,1-3.13-.42,11.24,11.24,0,0,1-1.66-3.25,2,2,0,0,1-.6-.39,6.32,6.32,0,0,1-1.45-7c.36-1.21,2.87-1.93,3.62-3C88.66,60.46,91,55.94,92,50.85a1.8,1.8,0,0,1,2.71-1.21A55.44,55.44,0,0,0,96.3,38.29a2.05,2.05,0,0,1,3.23-1.58,55.77,55.77,0,0,1-.61,12,.4.4,0,0,1,0,.15h0a.88.88,0,0,0,0-.16,51.83,51.83,0,0,0,1.38-10.41,1.79,1.79,0,0,0-.77-1.58c-.11-2.48-1.11-4.71-1.41-7.17-.19-1.19-.78-2.33-1-3.47C97,25.44,98.68,55,98.43,54.89Z"/><path class="cls-6" d="M65,71.44v0h0c0-.18,0-.36-.06-.54a1.6,1.6,0,0,0-1.74-1.43,27.76,27.76,0,0,0-3.37-4.31,1.09,1.09,0,0,0-.11-.1C54.36,55.29,50,45.1,51.48,33.66a1.89,1.89,0,0,0-.07-.84c.09-.7.17-1.41.29-2.11.4-2.52-3.45-3.61-3.86-1.07a55.46,55.46,0,0,0,.65,22c.13,1.59.27,3.18.4,4.77,0,.6,0,1.2,0,1.81A44.77,44.77,0,0,1,40,78.41c-3.52,2.43-7.36,6.72-10.34,10.45-1.59,2,4.33,2.57,5.94.55,1.46-1.84.55-2.37,2.14-4a1.76,1.76,0,0,0,1.9-.51c1.13-1.18,2.18-2.4,3.18-3.66a24.43,24.43,0,0,1,3-1.72,2.08,2.08,0,0,0,3.25-.95c0-.11.07-.22.11-.33a22,22,0,0,1,8.57-.72c.08.17.16.33.26.5a1.93,1.93,0,0,0,1.8.94c.73,1.37,3,.79,3.61-.55a1.71,1.71,0,0,0,1.28-1.39A16.16,16.16,0,0,0,65,71.44Z"/><path class="cls-6" d="M98.92,48.7a55.77,55.77,0,0,0,.61-12,1.79,1.79,0,0,1,.77,1.58A51.83,51.83,0,0,1,98.92,48.7Z"/><path class="cls-2" d="M77.77,195.76c-.29-3.18-5.29-3.21-5,0,0,.07,0,.14,0,.21a2.54,2.54,0,0,0-.89,1.05,2.61,2.61,0,0,0-4.29.14,20.2,20.2,0,0,0-.83,1.9c0-.05,0-.1-.08-.14a2.51,2.51,0,0,0-4.43.32,11.87,11.87,0,0,0-1-1.49c-1.1-1.43-3.29-1.78-4.32,0a8.07,8.07,0,0,0-.43.89,8.15,8.15,0,0,0-1.39-1.18,2.24,2.24,0,0,0-2.81.3l-.18-1.14c-.48-3.17-5.3-1.82-4.82,1.33l0,.21A1.76,1.76,0,0,1,49.21,200c-.05,1.48,0,3,0,4.46a1.51,1.51,0,0,1,.2.51c.27,1.91.25,3.81.34,5.73a2.46,2.46,0,0,1,0,.4,2.06,2.06,0,0,1,.42.79,35.93,35.93,0,0,1,1,7,2.27,2.27,0,0,1,.37.69,7.28,7.28,0,0,1,.33,2.17l0,.3a1.93,1.93,0,0,1,.34,1c.11,1.75.35,3.48.54,5.22a1,1,0,0,1,0,.17c1.5,8.93.45,17.13-.18,26.24a2.49,2.49,0,0,0,.09.84c-.23,6.26,1.77,12.73,3.25,18.78a46.86,46.86,0,0,0,1.05,5.89c.67,2.74,1.58,4.65,4.61,5,2.52.29,5.39.76,6.66-2a17.32,17.32,0,0,0,1-7.08,2.13,2.13,0,0,0,.37-.59,44.94,44.94,0,0,0,3.55-13.44c-.25-3.75-.73-7.48-.83-11.24a1.7,1.7,0,0,1,.65-1.46,97.25,97.25,0,0,1-.87-9.86,73.64,73.64,0,0,1,2.18-10c.63-9.88,3.26-19.77,2.39-29.6a1.59,1.59,0,0,1,1.33-1.8C77.89,197.34,77.84,196.55,77.77,195.76Z"/><path class="cls-3" d="M76.17,197.59l-.46.24c-4.38-.23-9.26,1.29-13.65,1.56-.51,0-1,0-1.53,0h-.61c-3.91-.11-7.65-1-11.58-1.09h-.07a1.17,1.17,0,0,0-.93.25A1.73,1.73,0,0,1,49,200c.89,3.5.69,7,.83,10.56a2.08,2.08,0,0,1,.36.82,3,3,0,0,1,.16.48,182.21,182.21,0,0,1,2.7,19.6c.06.31.13.63.19.94l-.06.69c.08,1.07.15,2.14.2,3.2a1.66,1.66,0,0,1-.57,1.42c-.34,4.11-.67,8.22-.73,12.33a63.79,63.79,0,0,0,2.28,15.84q.69,4.08,1.76,8.07.64,2.65,1.46,5.28a1.05,1.05,0,0,0,.27.42c.29.87.6,1.74.92,2.6a1,1,0,0,0,1.93-.53A247.52,247.52,0,0,1,56.45,249q.13-3.21.1-6.41c.2-1,.41-2.06.67-3.09a.92.92,0,0,0-.15-.81c.08-.49.16-1.06.23-1.67a31.55,31.55,0,0,0-2-15.29c-2.32-6-2.85-13.87-1.39-16.31,3.86-6.43,14-2.95,22.85-5.59a.81.81,0,0,0,.79-.88l0,0C78.5,198,77,196.5,76.17,197.59Z"/><path class="cls-2" d="M90.48,60c4.5-8.45,7.36-17,7.64-26.53a3.24,3.24,0,0,0-.09-.73,19.52,19.52,0,0,0-6-14.11,19.52,19.52,0,0,0-1.58-2,22,22,0,0,0-19-7c-11,1.29-19.38,9.87-20.44,19.93a2.2,2.2,0,0,0-1.42,2.87c.3.92-.17,2,.13,3-.11,8.76,2.75,14.27,6.75,22A33.42,33.42,0,0,0,65.11,68c0,2,.35,6.66-.27,8.21a22.15,22.15,0,0,1-1.78,3.21c-.87,1.53-.09,3.36,1.86,3.18a12.14,12.14,0,0,0,3.56-.86v.36a2.54,2.54,0,0,0,3.76,2.16,3.4,3.4,0,0,0,1-.68,4.07,4.07,0,0,0,.6.38,2.53,2.53,0,0,0,3.67-1.49c.07-.3.13-.6.21-.89a3,3,0,0,0,1.58.08,2.37,2.37,0,0,0,2.26.59l3.3-.76c2-.46,2.26-2.83,1.11-4.18-1.5-1.76-2.74-6.35-3.46-8.48A25.5,25.5,0,0,0,90.48,60Z"/><path class="cls-7" d="M110.4,196.85l.13,0c2.36-.67,4.77-1.22,7.13-1.92a16,16,0,0,0,.63-7.57A130.92,130.92,0,0,0,111.91,161c-1.24-3.51-6.75-2.14-5.88,1.29a2.77,2.77,0,0,0-.79-.14l-29.86-1.59c-4.64-.25-9.29-.52-13.93-.75-3.27-.16-6.27-.32-9.17.92a3.82,3.82,0,0,0-.51-.11c-3.12-.42-4.94,1-5.63,4-1.22,5.41-1,11.58-1,17.1-.06,5.09-.84,20.63,8.43,16.7a2.57,2.57,0,0,0,.55-.12,42.59,42.59,0,0,0,5.82.7,71,71,0,0,0,14.79-.28,3.25,3.25,0,0,0,.47-.1,2.83,2.83,0,0,0,3-1.43c.74-1.72,1.45-3.44,2.17-5.15a20.24,20.24,0,0,0,1.06,3.62,3.15,3.15,0,0,0,2.85,3.61,52.51,52.51,0,0,0,12.46-.4c4.55-.7,8.88-2.28,13.53-2.19A1.24,1.24,0,0,0,110.4,196.85Z"/><path class="cls-8" d="M113.54,163.73c-1.86-3.21-5.64-1.45-8.46-.6-6.93,2.11-13.66,3.47-20.94,3.09-12.84-.67-25.24-4.45-38.16-2.49a1.23,1.23,0,0,0-1,1.68,1.68,1.68,0,0,0-.26,1.44l0,.15a6.86,6.86,0,0,0-.05,3,1.49,1.49,0,0,0,2.23,1.26,1.32,1.32,0,0,0,.46-.1c5.14-2.09,10.59-1.58,16-1.22,5.83.39,11.65,1,17.49,1,1.72,0,3.42,0,5.11-.11a59.55,59.55,0,0,0,9.33-.71,25.09,25.09,0,0,0,3.27-.79c4.49-.79,9-1.78,13.42-2.84a1.33,1.33,0,0,0,.94-.74A1.41,1.41,0,0,0,113.54,163.73Z"/><path class="cls-4" d="M94.23,76a9.13,9.13,0,0,0-3.1.75c-9.69,4.84-17.86,6.26-28,3.52a19.65,19.65,0,0,0-2.92-1.84c-3.55-1.72-5.35-1.23-8.8-1.27a20.1,20.1,0,0,0-11,4.81c-6.29,6.17-7.38,18.8-10,26.83-.38,1.17-.67.57,0,1.21a2.79,2.79,0,0,0,3.46,1.76c.37-.1.82.32,1.18.25,5.65,1.78,11.28,3.77,16.93,5.55.66.21,1.18-.51,1.68-.68.84,14.31-4.61,29.8-13.54,42.3-1.33,1.86.46,4.56,2.59,4.51q7.37-.19,14.72-.53c7.3,1.32,14.56,3.27,22,3.47a93.72,93.72,0,0,0,33.15-5.21,3,3,0,0,0,2-3c-1.58-1.86-2.12-4.26-3-6.51-.44-1.2-1.23-2.24-1.66-3.44a12,12,0,0,1-.48-3.53,1.24,1.24,0,0,1,.36-1c-3.1-9.64-6.88-22.48-8-30.91a3.26,3.26,0,0,0,2.21-.31c3.24-1.86,6.65-3.54,9.77-5.6a24.6,24.6,0,0,0,6.58-5.71C118.42,98.5,115.09,75.3,94.23,76Z"/><path class="cls-9" d="M57.84,95.18c-.08-.62-1.05-.65-1,0a1,1,0,0,0,0,.17.44.44,0,0,0-.3.45c.09,3.93.07,7.81-.19,11.68-.69,3.07-1.16,7.38-3.49,9.48-.47.44.24,1.14.71.71a6.87,6.87,0,0,0,1.14-1.38l-.17.41a.47.47,0,0,0-.26.21,4.55,4.55,0,0,0-.33.61.51.51,0,0,0-.21.39c0,1.09,0,2.19,0,3.28a2.89,2.89,0,0,1,0,.29h0a.68.68,0,0,1,0,.14.4.4,0,0,0,.08.29c0,.46.05.92.08,1.39-.1,1-.21,2-.35,3Q52.85,130,52,133.71c-.12.46-.25.91-.38,1.37a62.26,62.26,0,0,0-1.81,6,1,1,0,0,0,0,.17c-.43,1-.85,2-1.26,3a16.43,16.43,0,0,0-2,3.81q-2.78,4.42-5.11,9.1l-.06.1-1.52,2.28s0,0,0,.06c-.14.21-.29.41-.42.63a.51.51,0,0,0,.47.75.45.45,0,0,0,.73.07,63.28,63.28,0,0,0,8.69-12.34c1.26-2.25,2.44-4.56,3.6-6.86a19.73,19.73,0,0,0,1.63-3.74V138a6.85,6.85,0,0,0,.23-1.58l1.28-8.68a.44.44,0,0,0,.15-.3c.19-1.4.35-2.8.51-4.2.61-4.16,1.57-13.1,1.28-13.09A65.55,65.55,0,0,0,57.84,95.18Z"/><path class="cls-9" d="M58.79,144.53a105,105,0,0,1-7.45,9.38c-2.29,2.56-5.59,7.17-9.05,8a.49.49,0,0,0,0,.93h0c0,1.15,1.14,1.34,2.17,1.39a.49.49,0,0,0,.82.48l.42-.44a42,42,0,0,0,8.82-.57.51.51,0,0,0,.37-.48A56,56,0,0,1,59.65,145,.5.5,0,0,0,58.79,144.53Z"/><path class="cls-9" d="M67.12,164.32l-.06-.18a.54.54,0,0,0-.37-.34,2.29,2.29,0,0,0,.27-.52,1.8,1.8,0,0,0-.81-2.16v0c-.18-1.22-.32-2.43-.43-3.65q-.3-3.09-.34-6.18c0-1.09,0-2.19,0-3.27.41-3.49.76-7,1-10.49,0-.55-.89-.69-1-.13a84.66,84.66,0,0,0-1,10.3c-.27,2.34-.59,4.67-.94,7a.37.37,0,0,0-.06.21.75.75,0,0,1,0,.15q-.64,4.26-1.49,8.5a.51.51,0,0,0,.86.47.48.48,0,0,0,.36.17h.26a.48.48,0,0,0,.2.07l.82.12.24.14c0,.08,0,.16,0,.24a.52.52,0,0,0,.91.14.41.41,0,0,0,.19,0,.36.36,0,0,0,.2-.06,2.34,2.34,0,0,0,.23.22.51.51,0,0,0,.61-.08l.11-.13A.49.49,0,0,0,67.12,164.32Z"/><path class="cls-9" d="M75.19,163.74a68.22,68.22,0,0,1-.42-7.29c0-.54-.87-.7-1-.13l-.93,5a21,21,0,0,1-1.09,4.86c-.27.58.59,1.09.86.5l.08-.21a.48.48,0,0,0,.31.12l.21,0c.26.33.67.45,1.32.2C75.83,166.33,75.3,164.77,75.19,163.74Z"/><path class="cls-9" d="M110.84,160.82c-3.48-2-5.63-5.77-7.65-9.11a80,80,0,0,1-5.46-10.87.55.55,0,0,0-.56-.33.48.48,0,0,0-.67.45,87.71,87.71,0,0,0,3.87,23.24.51.51,0,0,0,1,0l.09,0a19.92,19.92,0,0,0,9.41-2.53A.5.5,0,0,0,110.84,160.82Z"/><path class="cls-9" d="M103.13,112.64l.26,0c2.23.07,4.72-2.36,6.32-3.68a.5.5,0,0,0-.11-.78c-5.85-3.61-9.08-9.75-12.09-15.7-.29-.57-1.16-.07-.87.51l.56,1.08a.47.47,0,0,0-.53.48,82.21,82.21,0,0,0,3.59,18.19l.51,2.58a.76.76,0,0,0,.08.2c.22,1,.43,2,.67,3a.41.41,0,0,0,.31.33c.2,1,.41,1.93.62,2.89.14.63,1.08.36,1-.27-.18-1-.37-1.92-.56-2.88a.49.49,0,0,0,.09-.4c-.29-2.06-.6-4.11-1-6.14.09.21.17.43.27.65A.51.51,0,0,0,103.13,112.64Z"/><path class="cls-9" d="M57.27,77.52a3.15,3.15,0,0,0-2.88-.68c-4.43-.42-9.34,1.67-12.63,4.27a19.23,19.23,0,0,0-6.42,9.54.39.39,0,0,0-.49.34,117.14,117.14,0,0,1-2.67,13.55c-.5,1.19-1,2.38-1.65,3.54a.51.51,0,0,0,.46.74.57.57,0,0,0,.2.23,30.47,30.47,0,0,0,3.07,1.68.49.49,0,0,0,.72-.32,6.72,6.72,0,0,0,1,.42c-.06.46,1,.31,1,.31C34.6,75.6,57.94,77.78,57.27,77.52Z"/><path class="cls-9" d="M49.47,98.32a89.88,89.88,0,0,1-4.35,15.27.41.41,0,0,0,.32.58.61.61,0,0,0,.13.15c2.6,1.84,3-.56,3.4-2.79.65-4.3.55-8.67,1.46-12.94C50.55,98,49.6,97.69,49.47,98.32Z"/><path class="cls-8" d="M56.46,166.5a1.39,1.39,0,0,0-2.12-.83l-.26.23a5.08,5.08,0,0,0-4.35,2.23c0-.29-.1-.58-.18-.87a1.48,1.48,0,0,0-1-1c-.07-1.65-2.64-2.27-2.9-.48a43.61,43.61,0,0,0-.43,4.81,44.77,44.77,0,0,0-.49,7.43,79.21,79.21,0,0,0,1.43,17.65,1.27,1.27,0,0,0,1.54,1,1.78,1.78,0,0,0,1.78.1,1.51,1.51,0,0,0,1.16-.06,1.68,1.68,0,0,0,2-1.44,92.07,92.07,0,0,1,5.57-27C58.62,167.07,57.47,166.32,56.46,166.5Z"/><path class="cls-10" d="M77.16,194.71c-9.33.09-18.91-.41-28.22.44a1.42,1.42,0,0,0-2.06-.66,2.56,2.56,0,0,0-1.33,1.68,1.36,1.36,0,0,0,.61,1.6c2.21,2.89,6.53,2.06,9.85,2.09,6.52,0,13-.15,19.54-.54A1.5,1.5,0,0,0,77,198a9,9,0,0,0,.94-.45A1.52,1.52,0,0,0,77.16,194.71Z"/><path class="cls-8" d="M90.35,194.37c-1.55-2.07-3.07-4.15-4.41-6.33-.89-1.68-1.67-3.42-2.44-5.18a.4.4,0,0,0-.31-.25,23.59,23.59,0,0,1-1.09-3.46.42.42,0,0,0-.31-.33.48.48,0,0,0-.74.41c0,.16,0,.33,0,.49a.48.48,0,0,0-.62.47c0,1.21.08,2.41.18,3.61-.08.8-.2,1.61-.27,2.43a34.07,34.07,0,0,0,.08,6.06.51.51,0,0,0,.19.35,8,8,0,0,0,.69,2.05.51.51,0,0,0,.84,0c.11.17.2.35.32.53a.47.47,0,0,0,.46.23h0a.51.51,0,0,0,.93-.19c.09.27.16.54.25.81a.51.51,0,0,0,.81.23.49.49,0,0,0,.79-.51l-.45-1.59.21.44a.57.57,0,0,0,.23.48h0a.49.49,0,0,0,.79.09l.56-.06.32.1a.86.86,0,0,0,.26.2.57.57,0,0,0,.46,0,.41.41,0,0,0,.38-.33h0a1.8,1.8,0,0,1,.93-.38l.15.17C89.94,195.37,90.69,194.83,90.35,194.37Z"/><path class="cls-10" d="M118.59,190.68a1.53,1.53,0,0,0-1.85-1.05,196.41,196.41,0,0,1-20,4l-13.17,1.48a1.49,1.49,0,0,0-2.64.46c-1.6,6.22,9.9,4.65,12.72,4.33,4.62-.52,9.2-2,13.77-2.9,3-.58,7.55-.6,9.73-3a1.46,1.46,0,0,0,.36-.75,1.6,1.6,0,0,0,.43-.3A2.16,2.16,0,0,0,118.59,190.68Z"/><path class="cls-10" d="M115.36,175.85a5.49,5.49,0,0,0-.62-.7.55.55,0,0,0-.47-.59l-1.43-.37a.61.61,0,0,0-.23,0,20.86,20.86,0,0,1-4.82-2c-3.06-1.88-5.87-4.23-8.74-6.37a.47.47,0,0,0-.72.32.45.45,0,0,0-.2.67,19.49,19.49,0,0,0,6.39,6.32c2.75,1.75,6,3.56,9.33,3.29a.57.57,0,0,0,.23-.08,1.81,1.81,0,0,0,.85.26A.5.5,0,0,0,115.36,175.85Zm-14.12-7.08a57,57,0,0,0,6.33,4.47A19.48,19.48,0,0,1,101.24,168.77Z"/><path class="cls-10" d="M61.74,165.23c0-.29-.38-.39-.62-.35a3.92,3.92,0,0,0-.59.15.51.51,0,0,0-.69-.21c-2.08,1.21-3,3.72-4.81,5.27-.63.54-1.43,1.17-2.32,1.79a.49.49,0,0,0-.64.43c-.54.35-1.09.7-1.67,1-.94.38-1.9.73-2.84,1.13a5.26,5.26,0,0,1-2.11.11c-.63-.11-.9.85-.27,1l.29,0a.5.5,0,0,0,0,.4h-.07c-.63.13-.36,1.09.27,1s1-.25,1.56-.41a10.11,10.11,0,0,0,2.64-.69,30.41,30.41,0,0,0,6-2.8C58.68,171.29,62.28,169,61.74,165.23Z"/><path class="cls-10" d="M81.2,174.15c-.07-.64-1.07-.64-1,0,.5,4.49.76,9,.81,13.51a.35.35,0,0,0-.09.31l.11,1.21a.5.5,0,0,0,1,0A134.65,134.65,0,0,0,81.2,174.15Z"/><path class="cls-10" d="M84.12,172.24c-.32-.74-1.13-1.62-2-1.55a1,1,0,0,0-1,.67s0,0,0,.06a1.29,1.29,0,0,0,.61,2h.14a1.36,1.36,0,0,0,.24.13,1.63,1.63,0,0,0,.89.4A1.14,1.14,0,0,0,84.12,172.24Z"/><path class="cls-3" d="M82.13,69.23c-5.37,1.44-10.19,2.16-15.47.45-.22-.07-1.38-.91-1.55-.86-.47-.12-.13,1.6-.29,2.22a28.93,28.93,0,0,0-.25,3.72c-.17,1.53-.49,3.51-1.51,4.65-.58.66-.47.91.16,1.09a1.12,1.12,0,0,0,.9.6,17.56,17.56,0,0,0,3.64-.1h.1c5.8-.8,10.63-4.47,15.2-8.21a.87.87,0,0,0,.13-.15C83.17,72,83.32,68.91,82.13,69.23Z"/><path class="cls-3" d="M66.63,238.14C66,240,65.5,243,63.9,244.5a6,6,0,0,1-4.62.63,1,1,0,0,0-.53,1.93,8.24,8.24,0,0,0,3.79.09.86.86,0,0,0,.74,0,5.84,5.84,0,0,0,1.56-.92l.09,0c.33.74,3.12-5,3.63-7.53A1,1,0,0,0,66.63,238.14Z"/><path class="cls-3" d="M98.05,46a53.36,53.36,0,0,0-4.34-11.5.44.44,0,0,0,.27-.69Q91.1,30,88.23,26.16a.55.55,0,0,0-.77-.09A24,24,0,0,0,85.27,24c-.49-.41-.23-1.78-.58-2,0,0-.91-1-1-1-.39-.43-.42,2.9-.81,2.47a.45.45,0,0,0-.73.07c-.91-.7-1.85-1.36-2.83-2a.44.44,0,0,0-.54,0c-.74-.54-1.48-1.08-2.21-1.63-1.33-1.37-2.57-2.84-3.79-4.3l.13-.3h0a.43.43,0,0,0,.05-.12c.18-.49-.38-.71-.74-.52a.52.52,0,0,0-.65.46c0,.1,0,.19,0,.29-1.12,1.46-2.27,2.93-3.49,4.33q-1.83,1.27-3.62,2.6h-.07l-.12.06h0l-.09.05c-.51.22-1,.46-1.5.71a.49.49,0,0,0-.41,0c-1.72.9-3.39,1.87-5,2.88a.54.54,0,0,0-.81-.15l-7.54,6.26c-.14.12.38,3.26.79,3.09C58.13,31.83,68.6,26.94,72.15,18a10.55,10.55,0,0,0,3.09,3.63c1.53,1.24,3.15,2.35,4.77,3.48l.86.77a.47.47,0,0,0,.42.12c.64.45,1.28.9,1.9,1.37a39.9,39.9,0,0,1,9.91,10.4c.17.33.33.65.49,1a.35.35,0,0,0,.21.19,33.67,33.67,0,0,1,3,6.71.46.46,0,0,0,.14.21c0,.17.09.33.13.49C97.24,46.93,98.21,46.67,98.05,46Z"/><path class="cls-6" d="M28.63,63.55c-.89,2.24-5,5.63-5,5.65C21.45,72.84,16,72,14.15,70.7a.45.45,0,0,0,0-.46,15.93,15.93,0,0,1-.84-1.58.47.47,0,0,0,0-.39c-.23-.79-.43-1.58-.61-2.37a21.24,21.24,0,0,0,.09-2.53A.45.45,0,0,0,13,63a20.09,20.09,0,0,1,.1-3.3l.18-.62c.13-.45.27-1.14.44-1.89a32.77,32.77,0,0,1,1.55-3.29.51.51,0,0,0,0-.4c.22-.31.43-.63.67-.94s-2.34.29-2.36.35a20.29,20.29,0,0,0-2.53,3,9.14,9.14,0,0,0-1,1.5A4,4,0,0,0,9.67,60a13.29,13.29,0,0,0,2,9.63,7.75,7.75,0,0,0,5,3.11c3.12.46,4.93-1.89,7.67-2.81a.47.47,0,0,0,.34-.45,17.67,17.67,0,0,0,3.93-6Z"/><path class="cls-5" d="M100.65,43.31,99.6,37.68A35.43,35.43,0,0,0,95.25,20.4c-1.42-2.56-5.34-9.25-9.09-8.93a5.7,5.7,0,0,0-4-1.64,3,3,0,0,0-.27-.23c0-.08-.08-.16-.13-.24A1.54,1.54,0,0,0,79.58,9l-.28.11a1.82,1.82,0,0,0-1.48.29.3.3,0,0,1,0-.1,1.47,1.47,0,0,0-2.39-.69c-.54-.07-1.09-.12-1.65-.14a1.57,1.57,0,0,0-2.93.16,11.28,11.28,0,0,0-6.3,2.78c-7,2.86-12.57,9.09-15.93,15.65-.32.53-.64,1.06-.94,1.6s-.88,1.11-1.3,1.68h0l-.23.3a1.41,1.41,0,0,0,1,2.17c-.18.43-.36.87-.52,1.31s.22.64.55.59a43,43,0,0,0-3.48,7.95c-.21.61.76.88,1,.27,1.42-4.15,3-8.45,6.08-11.7,2.74-2.9,6.38-4.58,9.88-6.34A33.81,33.81,0,0,0,68,20.06c2.23-1.31,4.08-3,3.82-5.33l.18-.49c.36,2.74,2.49,4.27,5.62,6.43,1.81,1.75,9.87,5.15,11.77,7.32,4.31,4.93,8.32,19.52,8.73,22.08.09.56,4.21,5.79,3.92,4.35C101.85,53.67,100.78,44,100.65,43.31Z"/><path class="cls-6" d="M49.35,33.9a11.51,11.51,0,0,0-2.46,3,28.18,28.18,0,0,1-3,3.89C40.54,43.6,36.21,45.4,34,49.38a12.72,12.72,0,0,0-.28,11.55.37.37,0,0,0,.32.23.44.44,0,0,0,.15.22.45.45,0,0,0,.33.13h.08a.51.51,0,0,0,.36-.84,14.74,14.74,0,0,1,1.09-7.9c1.3-2.75,3.67-4.42,6.13-6.05,2.68-1.77,5.34-3.78,6.29-6.81a.52.52,0,0,0,.1-.11.5.5,0,0,0,.08-.54,2.51,2.51,0,0,0,0-.27.51.51,0,0,0,.14-.67.51.51,0,0,0,0-.59A.5.5,0,0,0,48,37.2l-.36.35c.69-1.08.4-1.73,1.42-2.54C49.59,34.61,49.85,33.5,49.35,33.9Z"/><path class="cls-3" d="M83.2,34.09a4.71,4.71,0,0,0-2,.68.5.5,0,0,0-.28-.1.56.56,0,0,0-.23.06.4.4,0,0,0-.41.15c-1.07,1.33-3,3.27-2.74,5.15.23,1.61,1.92,2.58,3.27,3.13,2.55,1,8.34,1.34,8.92-2.46C90.21,37.43,86.33,33.81,83.2,34.09Zm-.72,8.56a6,6,0,0,1-2.48-1,.43.43,0,0,0,0-.46c-2-2.84,1.48-6.75,4.58-6a5.31,5.31,0,0,1,2.94,2.1c-.58-.2-.83.74-.24,1s.09,1.52,0,1.93c0,.1-.05.41-.1.75,0,.05-.06.11-.1.17a.41.41,0,0,0,0,.43,4.39,4.39,0,0,1-.55.6.47.47,0,0,0-.11.48l-.47.11A8.09,8.09,0,0,1,82.48,42.65Z"/><path class="cls-11" d="M87.46,37A3,3,0,0,0,85.83,35a4.58,4.58,0,0,0-3-.68h0A4.1,4.1,0,0,0,79,38.93,5.38,5.38,0,0,0,83,43.61a2.62,2.62,0,0,0,1.37-.1,4,4,0,0,0,1.69-.74A5,5,0,0,0,87.46,37Z"/><path class="cls-12" d="M85.92,36.71a2.62,2.62,0,0,0-.53-.2,2.15,2.15,0,0,0-.81-.32,2,2,0,0,0-1.72.5A2.3,2.3,0,0,0,82,39.16a3.35,3.35,0,0,0,.45,1,2.53,2.53,0,0,0,3.69,1C87.47,40.07,87.51,37.52,85.92,36.71Z"/><path class="cls-13" d="M86.14,38.57s0-.11,0-.16a1.19,1.19,0,0,0-.63-.78,1.23,1.23,0,0,0-1.74.36,1.4,1.4,0,0,0-.15,1.09,1.24,1.24,0,0,0,1,1.18h.14a1.15,1.15,0,0,0,1-.17,1.11,1.11,0,0,0,.46-.91A1.09,1.09,0,0,0,86.14,38.57Z"/><path class="cls-11" d="M85.36,37.5a.5.5,0,0,0,0,1A.5.5,0,0,0,85.36,37.5Z"/><path class="cls-3" d="M76.73,48.45c-.1-.26-.18-.53-.26-.79l-.12-1.57a.48.48,0,0,0-.11-.28c0-2.44.07-4.87.16-7.31,0-.47-.73-.71-.93-.25a12.82,12.82,0,0,0-.56,7.18.63.63,0,0,0,0,.24c0,.12.07.24.1.36.12.74.26,1.46.4,2.15a1.94,1.94,0,0,1,0,.24,3.42,3.42,0,0,1,0,.71,1.21,1.21,0,0,1-1.17.44,4.19,4.19,0,0,1-.92-.08,2,2,0,0,1-.26-.08.41.41,0,0,0-.29,0h0c-.64-.07-.64.93,0,1h0a3.43,3.43,0,0,0,3.08.46A1.36,1.36,0,0,0,77,50.22,2.21,2.21,0,0,0,76.73,48.45Z"/><path class="cls-2" d="M90.73,39c-1.29-2.3-3.28-4.66-6.06-5A7.39,7.39,0,0,0,79.6,35.3c-.8.41-1.57.87-2.31,1.33a.5.5,0,0,0,.36.92.48.48,0,0,0,.72,0,13.2,13.2,0,0,1,1.87-1.52,7.46,7.46,0,0,1,4-.92c2.62.25,4.21,2.56,5.75,4.42C90.32,40,91,39.44,90.73,39Z"/><path class="cls-13" d="M90.44,39.7c-1-2.27-3.44-4.86-6-5.22-2.78-.38-5.38,1.43-7,3.53-.39.51.48,1,.86.51,1.64-2.17,4.42-3.79,7.15-2.62a8.5,8.5,0,0,1,4.11,4.31C89.83,40.8,90.69,40.29,90.44,39.7Z"/><path class="cls-3" d="M62.82,34a4.87,4.87,0,0,0-2,.69.45.45,0,0,0-.28-.1.56.56,0,0,0-.23.05.39.39,0,0,0-.41.16c-1.07,1.33-3,3.27-2.74,5.15.23,1.6,1.92,2.58,3.27,3.13,2.55,1,8.34,1.34,8.92-2.46C69.83,37.34,66,33.72,62.82,34Zm-.72,8.57a6.14,6.14,0,0,1-2.48-1,.44.44,0,0,0,0-.47c-2-2.84,1.48-6.74,4.58-6a5.26,5.26,0,0,1,2.94,2.1c-.58-.2-.83.74-.24,1s.09,1.52,0,1.93c0,.1,0,.41-.1.74,0,.06-.06.12-.1.18a.4.4,0,0,0,0,.43,3.81,3.81,0,0,1-.55.59.49.49,0,0,0-.11.49l-.47.11A8.26,8.26,0,0,1,62.1,42.56Z"/><path class="cls-11" d="M67.08,36.86a3,3,0,0,0-1.63-2,4.64,4.64,0,0,0-3-.68h0a4.09,4.09,0,0,0-3.86,4.6,5.38,5.38,0,0,0,4.07,4.68,2.72,2.72,0,0,0,1.37-.1,3.87,3.87,0,0,0,1.69-.75A5,5,0,0,0,67.08,36.86Z"/><path class="cls-12" d="M65.71,36.83a2.92,2.92,0,0,0-.52-.19,2.22,2.22,0,0,0-.81-.32,2,2,0,0,0-1.72.49,2.33,2.33,0,0,0-.89,2.48,3.46,3.46,0,0,0,.46,1,2.51,2.51,0,0,0,3.69.95C67.27,40.19,67.31,37.64,65.71,36.83Z"/><path class="cls-13" d="M66.13,38.6a.9.9,0,0,0,0-.16,1.14,1.14,0,0,0-.63-.78,1.22,1.22,0,0,0-1.74.37,1.37,1.37,0,0,0-.14,1.08,1.23,1.23,0,0,0,1,1.18h.14a1.21,1.21,0,0,0,1-.16,1.16,1.16,0,0,0,.45-.92A1.18,1.18,0,0,0,66.13,38.6Z"/><path class="cls-11" d="M65.11,37.36a.5.5,0,0,0,0,1A.5.5,0,0,0,65.11,37.36Z"/><path class="cls-13" d="M70.06,39.61c-1-2.27-3.44-4.86-6-5.22-2.78-.38-5.38,1.43-7,3.53-.39.51.48,1,.86.5,1.64-2.16,4.42-3.78,7.15-2.62a8.54,8.54,0,0,1,4.11,4.31C69.45,40.7,70.31,40.19,70.06,39.61Z"/><path class="cls-11" d="M125.73,284.17a1,1,0,0,0,0,2A1,1,0,0,0,125.73,284.17Z"/><path class="cls-11" d="M104.08,281.31c-3.41.83-6.83,1.43-10.18.14a5.59,5.59,0,0,1-.59-.08.54.54,0,0,0-.32.46l0,1.72a.47.47,0,0,0,.57.47.33.33,0,0,0,.1.14c1.86,1.44,4.15,1.42,6.41,1.13,2.72-.34,4-.66,4.65-3.36A.51.51,0,0,0,104.08,281.31Z"/><path class="cls-12" d="M117.3,292.54c0-2.51-4.09-5.19-5.68-6.12a16.64,16.64,0,0,0-5.36-2.39,5.78,5.78,0,0,0-1.17,0c-.36-.11-.72-.23-1.09-.32a.47.47,0,0,0-.6.42A12.06,12.06,0,0,1,99,285.21c-1.45.07-4.27.08-5.05-1.45a.44.44,0,0,0-.69-.14.42.42,0,0,0-.53.23,7.89,7.89,0,0,0-.9,3.66,6.38,6.38,0,0,0,.17,1.25,5.43,5.43,0,0,0,.8,3.36.43.43,0,0,0,.2.57,9.12,9.12,0,0,0,3.86.92c2.68,1.89,7.08,2.68,9.46,2.87a11,11,0,0,0,1.84-.07c2.6,1,6.44.66,8.39-1A2.35,2.35,0,0,0,117.3,292.54Z"/><path class="cls-14" d="M107.55,295.69a.51.51,0,0,0-.12-.92c-2-.49-4.15-.55-6.16-1.16a18.43,18.43,0,0,1-5.79-3,22,22,0,0,1-1-6.2.47.47,0,0,0-.35-.45.52.52,0,0,0-.86-.39c-2.41,2.09-1.23,5.92-.42,8.52a.45.45,0,0,0,.48.34,2.73,2.73,0,0,0,2.09.86c.59.16,1.2.26,1.8.39a13.49,13.49,0,0,0,5.07,1.83c1.35.79,3.63,1.79,5.08.95a.51.51,0,0,0,.15-.71Z"/><path class="cls-12" d="M110.69,285.73a3.91,3.91,0,0,0-2.42-.49.44.44,0,0,0-.21-.57,13.52,13.52,0,0,1-1.53-1A1.24,1.24,0,0,1,106,283a1.32,1.32,0,0,0-.29-.5.5.5,0,0,0-.71,0l-.72.62a.51.51,0,0,0,.11.79l2.2,1.35a.41.41,0,0,0,.45,0l.4.23a4.48,4.48,0,0,0-2.71,3.47,3.63,3.63,0,0,0-2.53,1.81c-1,1.68-.56,4.61,1.44,5.47a16.77,16.77,0,0,0,3.71,1.27,16.39,16.39,0,0,0,3.84-.18c2.2-.12,4.28.74,6.32-.65a4,4,0,0,0,2-3.45C119,288.24,114.3,287.71,110.69,285.73Z"/><path class="cls-14" d="M115.27,291.61c-.94-1.46-3.27-2-4.69-2.89a30.48,30.48,0,0,1-2.93-2.14A17.88,17.88,0,0,0,105,284a2,2,0,0,0-1.06-.35.42.42,0,0,0-.26-.05,1.35,1.35,0,0,0-.95-.31,11.51,11.51,0,0,0-3.17.68c-.49.18-1.27.55-1,1.21l0,0a.47.47,0,0,0,.28.72c3,.75,5.85,2.91,8.34,4.71.71.51,2,1.77,3.14,2.07a2.07,2.07,0,0,0,1.79.92,4.58,4.58,0,0,0,3.13-1.56A.47.47,0,0,0,115.27,291.61Z"/><path class="cls-14" d="M109.59,296.63c-.1-.75-1.25-.91-1.84-1.06a43.29,43.29,0,0,1-6.15-2.1.51.51,0,0,0-.64.15l-.63-.22a.5.5,0,0,0-.26,1,15.87,15.87,0,0,1,2.78,1.2.47.47,0,0,0,.23.32,7,7,0,0,0,1,.46c1.55.72,4.26,1.8,5.22,1.1A.53.53,0,0,0,109.59,296.63Z"/><path class="cls-11" d="M119,291.85c-1.06-1.46-2.76-1.46-4.46-.74a.48.48,0,0,0-.48-.55H112.2c0-.19.09-.39.15-.57a.43.43,0,0,0-.35-.59.45.45,0,0,0-.43-.28q-1.2,0-2.4.06c0-.4,0-.8,0-1.21a.51.51,0,0,0-.37-.48q-1.06-.19-2.13-.33c0-.42.07-.84.13-1.26a.55.55,0,0,0-.25-.53.49.49,0,0,0-.5-.17c-.46.1-.94.23-1.43.36a7.41,7.41,0,0,1,.35-1.26c.22-.61-.74-.87-1-.27a7.83,7.83,0,0,0-.45,1.79,7.79,7.79,0,0,1-2,.21c-.64,0-.64,1,0,1a7.74,7.74,0,0,0,1.9-.18c0,.18,0,.35,0,.53a.51.51,0,0,0,.5.5c.53,0,1.06.1,1.6.16l0,.3c0,.62-.17,1.3.33,1.72a.41.41,0,0,0,.45.29c.56,0,1.12-.08,1.67-.11,0,.26,0,.52-.07.78a.45.45,0,0,0,.65.44.61.61,0,0,0,.25.07h2c-.06.4-.11.79-.13,1.19a.46.46,0,0,0,.63.45,8.77,8.77,0,0,0-2.38,3.38,34,34,0,0,1-7.88-2.05c-1.25-.51-2.4-1.24-3.64-1.73-.76-.3-4-.46-4.18-1a.5.5,0,0,0-1,.26c.25.87.74,1,1.58,1.18a18.82,18.82,0,0,1,3.58.66c.94.37,1.83.93,2.77,1.33a40.5,40.5,0,0,0,11.34,2.67.38.38,0,0,0,.24,0,10.49,10.49,0,0,0,5.54-1.26C119,295.67,120.25,293.57,119,291.85ZM105.72,287c-.39,0-.77-.09-1.17-.12a3,3,0,0,1,0-.31l1.24-.33Zm2.44,2.19-1.55.1-.08-.09s.06-.64.1-1.09c.52.07,1.05.14,1.57.23C108.19,288.67,108.17,289,108.16,289.23Zm3,1.31-2.08,0,0-.35c.72,0,1.45-.05,2.17-.05Zm.63,2.34a.42.42,0,0,0,0-.16,9.28,9.28,0,0,1,.15-1.18l1.67,0A11.86,11.86,0,0,0,111.77,292.88Z"/><path class="cls-15" d="M119.41,292.92v-.08a.5.5,0,0,0-1-.13,5.51,5.51,0,0,1-4.25,3.87,14.23,14.23,0,0,1-4.74.13.42.42,0,0,0-.38.17c-3.1-.13-6.17-.31-9-1.81a29.66,29.66,0,0,0-3-1.55C95.68,293,94,293,93,291.76c-.42-.49-1.12.22-.71.71,1,1.13,1.74,1.2,3.09,1.56a25.72,25.72,0,0,1,4.89,2.25c3,1.53,6.5,1.5,9.83,1.64a.42.42,0,0,0,.38-.17h.06a.42.42,0,0,0,.43.27,28.59,28.59,0,0,0,3.07.05,11.3,11.3,0,0,0,3-1,4.31,4.31,0,0,0,2.65-3.71A.41.41,0,0,0,119.41,292.92Z"/><path class="cls-11" d="M68.09,282.81c-3.51.86-7,1.48-10.47,0-.31-.13-.63.19-.63.48l0,1.72a.47.47,0,0,0,.57.47.3.3,0,0,0,.11.14c1.85,1.44,4.14,1.42,6.4,1.14,2.72-.35,4-.66,4.65-3.37A.5.5,0,0,0,68.09,282.81Z"/><path class="cls-12" d="M81.31,294.05c0-2.52-4.1-5.2-5.69-6.12a16,16,0,0,0-5.36-2.39,5.79,5.79,0,0,0-1.17-.05c-.36-.11-.71-.23-1.08-.32a.48.48,0,0,0-.61.42A11.86,11.86,0,0,1,63,286.71c-1.45.08-4.27.08-5-1.45a.45.45,0,0,0-.7-.14.43.43,0,0,0-.52.23,7.81,7.81,0,0,0-.91,3.66,6.59,6.59,0,0,0,.17,1.26,5.49,5.49,0,0,0,.8,3.35.44.44,0,0,0,.21.58,9.26,9.26,0,0,0,3.86.91C63.56,297,68,297.79,70.34,298a9.94,9.94,0,0,0,1.83-.07c2.6,1,6.44.66,8.4-1A2.35,2.35,0,0,0,81.31,294.05Z"/><path class="cls-14" d="M71.56,297.19a.51.51,0,0,0-.12-.91c-2-.5-4.15-.55-6.17-1.17a18.13,18.13,0,0,1-5.79-3,21.63,21.63,0,0,1-1-6.2.51.51,0,0,0-.35-.45.53.53,0,0,0-.87-.39c-2.41,2.09-1.22,5.92-.42,8.52a.46.46,0,0,0,.48.35,2.82,2.82,0,0,0,2.1.86c.58.15,1.19.26,1.79.39A13.65,13.65,0,0,0,66.26,297c1.36.79,3.64,1.79,5.08,1a.52.52,0,0,0,.15-.72S71.54,297.21,71.56,297.19Z"/><path class="cls-12" d="M74.7,287.24a3.87,3.87,0,0,0-2.43-.49.44.44,0,0,0-.21-.58,14.47,14.47,0,0,1-1.53-1,1.26,1.26,0,0,1-.53-.76,1.4,1.4,0,0,0-.29-.5.51.51,0,0,0-.7,0l-.72.62a.51.51,0,0,0,.1.79l2.2,1.35a.43.43,0,0,0,.46,0l.39.23a4.5,4.5,0,0,0-2.71,3.47,3.66,3.66,0,0,0-2.52,1.81c-1,1.68-.57,4.62,1.43,5.47A16.44,16.44,0,0,0,71.35,299a16,16,0,0,0,3.85-.18c2.19-.12,4.27.74,6.31-.64a4,4,0,0,0,2-3.46C83,289.75,78.31,289.21,74.7,287.24Z"/><path class="cls-14" d="M79.27,293.11c-.94-1.46-3.27-2-4.69-2.89a33.64,33.64,0,0,1-2.93-2.13A16.85,16.85,0,0,0,69,285.55,1.89,1.89,0,0,0,68,285.2a.45.45,0,0,0-.27-.06,1.33,1.33,0,0,0-.94-.3,11.49,11.49,0,0,0-3.18.67c-.48.18-1.27.56-1,1.21l0,0a.48.48,0,0,0,.28.73c3,.74,5.85,2.9,8.35,4.7a11.21,11.21,0,0,0,3.13,2.07,2.08,2.08,0,0,0,1.79.92,4.55,4.55,0,0,0,3.13-1.55A.49.49,0,0,0,79.27,293.11Z"/><path class="cls-14" d="M73.59,298.13c-.1-.75-1.25-.9-1.84-1.06A44.53,44.53,0,0,1,65.6,295a.51.51,0,0,0-.64.14c-.21-.08-.41-.15-.62-.21a.5.5,0,0,0-.27,1,16.31,16.31,0,0,1,2.78,1.2.44.44,0,0,0,.24.32,7.63,7.63,0,0,0,1,.47c1.55.71,4.26,1.79,5.22,1.1A.54.54,0,0,0,73.59,298.13Z"/><path class="cls-11" d="M83,293.35c-1.06-1.46-2.75-1.46-4.46-.74a.47.47,0,0,0-.47-.54l-1.88,0c0-.19.09-.38.15-.57a.42.42,0,0,0-.34-.59.44.44,0,0,0-.43-.27c-.81,0-1.61,0-2.41.05,0-.4,0-.8,0-1.21a.5.5,0,0,0-.37-.48c-.7-.13-1.41-.24-2.12-.33,0-.42.07-.84.12-1.25a.54.54,0,0,0-.25-.54.48.48,0,0,0-.49-.17c-.46.1-.94.23-1.43.36a7.36,7.36,0,0,1,.34-1.26c.23-.61-.74-.87-1-.27a8.35,8.35,0,0,0-.44,1.79,7.89,7.89,0,0,1-2,.21c-.65,0-.64,1,0,1a7.74,7.74,0,0,0,1.9-.18c0,.18,0,.35,0,.53a.51.51,0,0,0,.5.5c.54,0,1.07.1,1.6.16a3,3,0,0,0,0,.31c0,.61-.18,1.29.32,1.71a.41.41,0,0,0,.46.29c.55,0,1.11-.07,1.67-.11,0,.26,0,.52-.07.78,0,.41.34.55.65.44a.45.45,0,0,0,.24.07l2,0a9.25,9.25,0,0,0-.12,1.18.46.46,0,0,0,.63.46,8.54,8.54,0,0,0-2.38,3.37A34.09,34.09,0,0,1,65.18,296c-1.24-.5-2.4-1.23-3.64-1.73-.75-.29-4-.46-4.18-1a.5.5,0,0,0-1,.26c.24.87.73,1,1.58,1.19a18,18,0,0,1,3.57.65c1,.37,1.84.93,2.78,1.33a40.88,40.88,0,0,0,11.33,2.68.45.45,0,0,0,.24,0,10.49,10.49,0,0,0,5.54-1.26C83.05,297.18,84.26,295.07,83,293.35Zm-13.28-4.81c-.39,0-.78-.09-1.17-.12,0-.1,0-.21,0-.31l1.24-.32C69.78,288,69.75,288.29,69.73,288.54Zm2.43,2.19-1.55.1-.08-.09s.06-.64.1-1.09c.53.07,1.05.15,1.57.24C72.19,290.17,72.18,290.45,72.16,290.73Zm3,1.31-2.08,0,0-.35c.73,0,1.45,0,2.18-.05C75.23,291.76,75.18,291.9,75.14,292Zm.64,2.34a.75.75,0,0,0,0-.16,7.48,7.48,0,0,1,.14-1.17h1.67A11.78,11.78,0,0,0,75.78,294.38Z"/><path class="cls-15" d="M83.41,294.42v-.07a.5.5,0,0,0-1-.14,5.51,5.51,0,0,1-4.25,3.87,14.24,14.24,0,0,1-4.74.13.41.41,0,0,0-.38.17c-3.1-.13-6.18-.3-9-1.81a27.71,27.71,0,0,0-3-1.55c-1.4-.55-3.06-.52-4.1-1.75-.41-.5-1.12.22-.7.7.95,1.13,1.73,1.2,3.08,1.56a26.06,26.06,0,0,1,4.89,2.25c3,1.53,6.51,1.5,9.83,1.64a.41.41,0,0,0,.38-.17h.06a.43.43,0,0,0,.43.26,28.63,28.63,0,0,0,3.07.05,11.3,11.3,0,0,0,3-1,4.32,4.32,0,0,0,2.66-3.7A.42.42,0,0,0,83.41,294.42Z"/><path class="cls-2" d="M90.06,120.31c-1-2-2.47-3.68-4.71-4.2-2.4-.55-5,.61-7,1.88a2.92,2.92,0,0,0-1.19,1.4,8.24,8.24,0,0,0-3.64,3.88c-.11.18-.2.37-.3.56l-.52.09c-3.43,0-8.06,2.25-13,3.69-2.86,1.07-5.68,2.27-8.47,3.54.26-.42-.48.55-.72.32a2.7,2.7,0,0,1-.68.46.76.76,0,0,1-1.1-.85c.3-1.87.58-3.74.87-5.62.07-.49.14-1,.23-1.47s.15-.94.23-1.41c.18-1,.21-3,1.21-3.69l.11,0c0-.36.06-.73.11-1.14s-19.35-7.23-19.15-5.88c.53,3.77-.62,5.93-.86,9.69q-.63,5.61-1.07,11.24c-.22,2.9-.43,5.81-.62,8.71a1.74,1.74,0,0,1,.45,1.29c0,.82-.11,1.63-.19,2.43a14,14,0,0,0,1.05,2,3.17,3.17,0,0,0,.09.8,2.33,2.33,0,0,0,.63,1.15,1.84,1.84,0,0,0,1,.44c1,1.37,2,2.39,2,2.39l.11,0a16.42,16.42,0,0,0,3.57-.86,11.74,11.74,0,0,0,3.77-.93c4.83-1.85,9.53-4.24,14.14-6.56l.35-.18c1.14-.57,2.27-1.16,3.4-1.77,3.08-1.62,6.15-3.27,9.16-5a40.74,40.74,0,0,0,5.89-3.72,2.41,2.41,0,0,0,1.44.48,19,19,0,0,0,6.87-1,2.71,2.71,0,0,0,1.89-.46c1.85-1.19,4-2.32,5.19-4.28C91.9,125.21,91.23,122.59,90.06,120.31Z"/><path class="cls-4" d="M90.71,14.35a9.31,9.31,0,0,0-.64-1.58.48.48,0,0,0-.16-.26c-3.6-6.46-14-6.57-20.46-5.95A32.92,32.92,0,0,0,47,18a0,0,0,0,0,0,0c-.12.14-.23.28-.34.43-1.84,2.17-2.25,5.08-3,7.87-.14.53-.25.52,0,0,.16-.32.34-.63.5-1a.41.41,0,0,0,.22-.26c0-.15.11-.3.16-.46.82-1.5,1.75-1.67,2.75-3.06,0,0,.61-1,.63-1.05C58.77,9.32,75,6.63,88.55,14.09l.18.15a.44.44,0,0,0,.31.12l.94.55A.5.5,0,0,0,90.71,14.35Z"/><path class="cls-13" d="M76.7,48.53c-.1-.84-.21-1.68-.31-2.52-.08-.63-1.08-.64-1,0a19.51,19.51,0,0,1,.34,2.83c0,.71-.25.91-.89,1-.48,0-1,0-1.44.07-.64,0-.65,1,0,1,.95-.05,2.44.13,3.09-.78A2.19,2.19,0,0,0,76.7,48.53Z"/><path class="cls-3" d="M48.86,131.35c-.47-1.69.15-3.3.54-4.94.5-2.07.79-4.17,1.35-6.21,0-.41,0-.82,0-1.22a14,14,0,0,0,.19-1.57c0-.66-.88-1.14-1-.53l-.18,1.35c-.94,2.22-2,4.41-3,6.59a84.73,84.73,0,0,1-7.58,10.69.53.53,0,0,0-.12.45.51.51,0,0,0,.42.9,11.85,11.85,0,0,0,4.4-2.37c.3-.21.61-.4.91-.59,1.55-.62,3.06-1.31,4.56-2A.8.8,0,0,1,48.86,131.35Z"/><path class="cls-3" d="M117.77,129.52c-.29.4.64-14.12-.51-16-.22-.35.11-.42,0,0v-.18a.5.5,0,0,0-1,0q-.12,3.08-.25,6.16c-.05.31-.11.61-.16.92a8.46,8.46,0,0,1-3.34,4.2.47.47,0,0,0-.22.27c-.53.29.28.23-.3.45C111.6,125.52,118.15,129,117.77,129.52Z"/><path class="cls-3" d="M109.09,132.86a.51.51,0,0,0-.21-.28c-.92-5.49-1.45-11.06-3.21-16.35,0-.14,0-.27-.08-.41-.12-.84-.37-2.67-.49-3.51-.08-.55-3.27.19-3.13.78,1.35,5.8,2.77,12.25,4.12,18.06a.42.42,0,0,0,.3.33c.08.28.15.56.23.85.51,3.65,1.16,7.29,2,10.89.11.5,3.73,2.64,3.66,2.22A83.27,83.27,0,0,0,109.09,132.86Z"/><path class="cls-13" d="M113.66,173.7c-4.79.06-11-3.63-13.33-7.89-.3-.57-1.16-.06-.86.51,2.46,4.6,9,8.45,14.19,8.38A.5.5,0,0,0,113.66,173.7Z"/><path class="cls-6" d="M91,32.35a23.19,23.19,0,0,0-5.5-2.69,21.93,21.93,0,0,0-6-.4h-.06a.53.53,0,0,0-.79.26,1.5,1.5,0,0,0-.13,1,.51.51,0,0,0,.5.5A23.79,23.79,0,0,1,90.44,33.3a.51.51,0,0,0,.6-.13A.48.48,0,0,0,91,32.35Z"/><path class="cls-6" d="M66.4,30.57a2.05,2.05,0,0,0-.56-1.14.55.55,0,0,0-.93.1c-3.44.64-8.5,1.86-9.13,5.89-.09.63.87.9,1,.27a3.72,3.72,0,0,1,.11-.48c1.7-3.07,5.86-3.78,9-4A.52.52,0,0,0,66.4,30.57Z"/><path class="cls-9" d="M41.52,158c-.65-.11-1,.58-1.27,1s-1.1.85-1.16,1.53a.81.81,0,0,0,1.07.87c.61-.24.88-1.23,1.15-1.77a.5.5,0,0,0,0-.46,1.31,1.31,0,0,1,.26-.3C42,158.69,42,158.05,41.52,158Z"/><path class="cls-9" d="M45.61,161.33a18.38,18.38,0,0,0-4.17.64.51.51,0,0,0-.12.92,4.52,4.52,0,0,0,1.9.47.5.5,0,0,0,.37-.83c.67-.09,1.34-.15,2-.2S46.25,161.29,45.61,161.33Z"/><path class="cls-16" d="M82.62,54.19a35.24,35.24,0,0,1-8,1.92c-1.68.19-6.94,1.07-8-.67a.49.49,0,0,0-.83,0,.46.46,0,0,0-.26.69,2.75,2.75,0,0,0,.28.37,5.31,5.31,0,0,0,1.29,2.16c1.37,2.21,4.51,3,7,2.89a9.79,9.79,0,0,0,8-5.25,5.39,5.39,0,0,0,.87-1.06.42.42,0,0,0,.07-.28C83.35,54.58,83.1,54,82.62,54.19Z"/><path class="cls-17" d="M74.23,56.41a.5.5,0,0,0-.48-.37l-2.34.18a6,6,0,0,1-2.56,0c-.51-.23-1,.41-.66.75h0a8.86,8.86,0,0,0,.23,2.07,1.77,1.77,0,0,0,.48.93l.12.08a2.3,2.3,0,0,0,.56.43c1,.57,2.18,1,3,.06a6.58,6.58,0,0,0,.58-.78A4.09,4.09,0,0,0,74.23,56.41Z"/><path class="cls-18" d="M77.47,59.86a5.24,5.24,0,0,0-3.79-.81,21,21,0,0,0-4.33.56.5.5,0,0,0,.24,1s0,0,0,0c.45.77,2,.68,2.8.73.43,0,.85,0,1.28,0a9.19,9.19,0,0,0,2-.16.35.35,0,0,0,.22-.1c.48-.09,1-.2,1.44-.33A.5.5,0,0,0,77.47,59.86Z"/><path class="cls-11" d="M83.13,54.39l0,0a.47.47,0,0,0-.4-.13,2.43,2.43,0,0,0-1.11.23,32.71,32.71,0,0,1-5.07,1.18,30.6,30.6,0,0,1-10.28-.32.52.52,0,0,0-.54.79.48.48,0,0,0,.13.21c1.77,1.76,5.76,1,8,.85,2.92-.26,6.23-.43,8.95-1.58A.37.37,0,0,0,83,55.2.52.52,0,0,0,83.13,54.39Z"/><path class="cls-13" d="M83.49,54.29a.52.52,0,0,0-.61-.44c-5.69,1.07-11.34,2-17.12,1.11a.84.84,0,0,0-.84.7,8.26,8.26,0,0,0,8.93,6.48,11.25,11.25,0,0,0,9.75-7.38A.39.39,0,0,0,83.49,54.29Zm-9.31,6.79A7.28,7.28,0,0,1,66.05,56c5.53.73,10.92,0,16.37-1A10.13,10.13,0,0,1,74.18,61.08Z"/><path class="cls-3" d="M143.88,155.32a5.07,5.07,0,0,0-1.58-1.58l-.09-.06a5.12,5.12,0,0,1,1-1.42.45.45,0,0,0,.09-.56c.09-.1.17-.2.26-.29.46-.45-.25-1.16-.71-.71a6.69,6.69,0,0,0-1.64,2.61.73.73,0,0,0-.62.32.49.49,0,0,0,.11.62.46.46,0,0,0,.31.26h0a8.32,8.32,0,0,1,1.87,1.73c.29.37.72.09.81-.27A.45.45,0,0,0,143.88,155.32Z"/><path class="cls-3" d="M142.34,157.54c-.35.1-1.3.39-1.54,0a.5.5,0,0,0-.87.51c.53.91,1.82.74,2.67.49A.5.5,0,0,0,142.34,157.54Z"/><path class="cls-3" d="M147,152a14.46,14.46,0,0,0-3.75,7c-.14.63.82.9,1,.27a13.41,13.41,0,0,1,3.5-6.53C148.17,152.22,147.47,151.52,147,152Z"/><path class="cls-3" d="M150.45,154.39c-1.14.19-1.72,1.49-2.24,2.39a24.65,24.65,0,0,0-1.14,2.23l-.07,0c-.84.44-1.76,2.25-.51,2.73a.41.41,0,0,0,.57-.29.53.53,0,0,0,.13-.19,27.67,27.67,0,0,1,1.46-3.24c.42-.78,1.09-2.52,2.07-2.68C151.35,155.25,151.08,154.29,150.45,154.39Z"/><path class="cls-3" d="M152.82,156.13c-.42.84-.81,1.7-1.16,2.57-.07.15-.12.3-.18.46l-.06.05a4.17,4.17,0,0,0-1,2.58.51.51,0,0,0,.86.36,5.7,5.7,0,0,0,1-2.3c.42-1.09.89-2.16,1.41-3.22C154,156.06,153.1,155.55,152.82,156.13Z"/><path class="cls-13" d="M151.14,149c-2.21-1.74-5.41-3.71-8.11-2.71a.47.47,0,0,0-.22-.5q-12.23-8-24.26-16.27a.41.41,0,0,0,0-.16q-.1-3.14-.08-6.26s0,0,0,0c0-.55,0-1.1,0-1.65a124.51,124.51,0,0,0-1.63-15.06h0c.64-.48,1.27-1,1.87-1.51,0,0,1.1-.8,1.14-1.1.55-.56.81-2.47.63-2.24-2.71-7.75-5.78-17-12.3-22.34A17.28,17.28,0,0,0,96,75.36a25.91,25.91,0,0,0,3.41-8.46,112.5,112.5,0,0,0,2.42-11.62c.14.08.28.17.44.25.37.18.88-.12.74-.56-3.64-10.9-1.16-23.36-6.87-33.65-.22-.41-.36-1.56-.5-1.85C92.24,12.62,88.44,6,81.07,2.91,74.26,0,66.57.47,59.72,3c-8.07,3-15.37,8.22-19.81,15.75a30.12,30.12,0,0,0-3.44,9.13C35.59,32,34.8,36.18,34,40.32a.45.45,0,0,0,.16.47,13.33,13.33,0,0,0-1.41,2.13,19.11,19.11,0,0,0-1.49,12.32.42.42,0,0,0-.34.33c-1.44,5.82-4.46,13.48-10.77,15.49C9.7,74.37,13.23,57.51,17,53.29a.59.59,0,0,0,.1-.17c.31-.27.22-.91-.3-.87C5.45,53,7,68.54,10.05,75.8,14,85.16,23.94,91.67,34.29,90.5a.9.9,0,0,0,.28-.08c-2.64,6.09-3.61,13-4.79,19.45,0,.12-.09.84.19,1a15.16,15.16,0,0,0,2.1,1.12,157.62,157.62,0,0,0-2.22,23.66,85.06,85.06,0,0,0,.31,12.47c.3,2.32,1.39,4.07,3.87,4.22,3.1.2,6.61-1.59,9.43-2.64l2.08-.8a76.37,76.37,0,0,1-7.31,11,.42.42,0,0,0-.11.15c-.15.2-.31.4-.46.61-.34.45.28.88.69.65.89,2.07,3.64,2.79,5.72,3.28l.41.08a106.64,106.64,0,0,0,1.85,30,.46.46,0,0,0-.31.45,5.32,5.32,0,0,0,1.1,3.51c0,.09,0,.17,0,.25a2.29,2.29,0,0,1,.9.61.09.09,0,0,1,0-.05,5.25,5.25,0,0,0,.9.51c.36,4.68.61,9.41,1.19,14.07a1.75,1.75,0,0,1,.33.83c.62,4.45,1.57,8.86,2,13.34.16,1.61.43-.06.31,1.45.87,2.41-.18,8.17-.51,10.64q-.37,2.82-.48,5.67a58,58,0,0,0,.89,12.12c.74,4.08,1,8.26,1.9,12.31s2.05,8,3.12,11.91a0,0,0,0,0,0,0,.44.44,0,0,0-.56.21c-1.94,3.44-4,10.83.64,13a42,42,0,0,1,5.09,2.59,13.13,13.13,0,0,0,4,2c3.33.8,7.26.38,10.62,0,2.23-.28,4.81-.55,6.22-2.55a4.94,4.94,0,0,0,0-5.62c-3.17-4.92-10.47-5.41-14.57-9.46,0,0,0,0,0,0,.94-6.26,3.28-12.25,3.86-18.57.56-6.07-.14-21.37.11-23a61.87,61.87,0,0,1,1.34-9.47c.25-3.11,1.16-9.67,1.11-9.44-.13.61,1.28-14.95,1.71-23.38l.25-.11c0,.31,0,.61-.07.91a2,2,0,0,1,1.05-.73c0-.27,0-.55.1-.83A4.46,4.46,0,0,0,80,196a5.33,5.33,0,0,0,3.4,4.37l.11,1.07s0,.07,0,.12c.11,2.6.23,5.2.59,7.78.14,1,.34,2,.55,3q.25,3.55.61,7.09c.61,5.82,1.9,11.75,1.44,17.63a22.55,22.55,0,0,0-.43,3.46,81.08,81.08,0,0,0-.08,9.09A68.49,68.49,0,0,0,88.85,266s0,.05,0,.08a54.67,54.67,0,0,0,1.55,6.79c.61,2.65,1.15,5.33,1.73,8a1,1,0,0,1-.18-.1c.11.27.21.54.33.81a.46.46,0,0,0,.07.75c-2,2.62-1.54,6.74-.79,9.85a.47.47,0,0,0,0,.81c4.48,2.36,8.91,5.17,14,5.87,3.9.53,10.72.63,13.69-2.53,2.58-2.74.24-6.28-2.19-8.11-2-1.51-4.21-2.11-6.5-3-2.6-1-4.13-3.23-6.41-4.64h0c.07-.22.13-.45.19-.68a3.71,3.71,0,0,1-.47.16,48.64,48.64,0,0,1,2.27-11.29c0-.05,1.38-6.7,1.85-9.86a31.56,31.56,0,0,0,.13-5.67,58.93,58.93,0,0,0-.66-10.59q-.06-.91-.09-1.83a28.64,28.64,0,0,1,1.25-8.38,47.61,47.61,0,0,0,1.29-7c.32-3-.21-6.42.71-9.33a.42.42,0,0,0-.11-.45c.47-2.73.91-5.47,1.13-8.23.28-3.61.28-7.21,1.08-10.77a.66.66,0,0,0,0-.14h0l1.1-.27c1.32-.33,2.64-.67,4-1,.37-.09,1.09-3.95,1-5a56.65,56.65,0,0,0-1.42-9c-1.36-6.48-3.11-12.87-4.76-19.27l1.81-.67a.51.51,0,0,0,.33-.51,3.08,3.08,0,0,0,.55-.22.53.53,0,0,0,.23-.57c-1.57-4.47-4.13-8.55-5.51-13.08a.49.49,0,0,0,0-.24l-.36-1.48c3.48,2.19,7.46,3.22,11.38,4.36,4.83,1.4,9.68,2.73,14.61,3.75a2.43,2.43,0,0,0,.21.89,6.38,6.38,0,0,0,3.36,3.15,1.87,1.87,0,0,0,.59,1.7,2.82,2.82,0,0,0,2.28.41.34.34,0,0,0,.16-.05c.23,1.39,1.55,1.41,2.75.94a1.52,1.52,0,0,0,.08,1.41c1.1,1.63,3,1.12,4.33.07a1.54,1.54,0,0,0,.73,1.47c2.45,1.54,4.8-3.05,5.89-4.69a.5.5,0,0,0,.33-.22C158.87,154.6,153.67,151,151.14,149ZM100.92,54.79a107.68,107.68,0,0,1-2.24,11C97.87,69,97,72.27,95,75.07a.46.46,0,0,0-.07.38,23.4,23.4,0,0,0-2.59.45c.39-.17-1.57-.26-5.28,1.67a13.29,13.29,0,0,1-2.33-3c-.47-.85-1.54-3-1.45-4.43.08-.05,0-.94.19-1.33h0s0-.43,2.5-2.8a6.92,6.92,0,0,1,.84-.92l1-1.06a47.47,47.47,0,0,0,4.87-7c-.36.88,3.8-7.69,4-9.52.75,2.62,4,7.39,4.21,7.26C100.93,54.77,100.92,54.78,100.92,54.79Zm-35.81,14a37.27,37.27,0,0,0,3.71,1.94,24.78,24.78,0,0,0,9.67.25,13.48,13.48,0,0,0,3.72-1.34,21.88,21.88,0,0,0,1,4A13.92,13.92,0,0,0,86.14,78a36.35,36.35,0,0,1-3.75,1.7c-5.7,2.17-13,2.77-18.81.17a6.29,6.29,0,0,0,.82-2.53A47.25,47.25,0,0,0,65.11,68.82ZM56.47,57.34l-3.25-7.53c-.61-2.14-1.19-4.29-1.71-6.45-.9-3.7-2-7.58-1.74-11.42a16.14,16.14,0,0,1,2.13-2.17c4.59-3.89,10.37-5.26,15.43-8.26a9.5,9.5,0,0,0,4.46-5.43,10.6,10.6,0,0,0,2.29,3.15,25.08,25.08,0,0,0,5.81,4C82.18,24.4,84.82,25,87,26.29c5,3,6.71,9.61,8.11,14.87.43,1.6.78,3.26,1.19,4.91-.25,0-.81,1.44-.86,1.59-.54,1.68-1,3.37-1.53,5.07-4,7.56-9.35,16.75-18.9,17.47C66.53,70.84,61.16,63.69,56.47,57.34Zm40-33.05c3.9,9.43,2.39,20,5.21,29.68-.48-.37-1.65-1.6-1.84-1.55-2.32-3.64-2.85-8.37-4-12.45s-2.42-8.42-5.1-11.74-6.42-3.9-10-5.71c-3.2-1.63-7.6-4.44-8.6-8.1a12.73,12.73,0,0,0,0-3.15c.07-.24.17-.48.27-.73h.08c6.78.17,13.5,1.91,18.39,6.08a.52.52,0,0,0,.18.15A19.84,19.84,0,0,1,96.47,24.29Zm-2.75-6.41a21.35,21.35,0,0,0-2.19-2.17,12.23,12.23,0,0,0-.67-2.78C91.89,14.51,92.83,16.17,93.72,17.88ZM72.51,9.54c-.18-.17-1.48-.33-1.56.11-10.87.81-21.74,6-26.91,15.78,1.82-9,12.44-15.17,20.61-17.12a41.56,41.56,0,0,1,15.52-.57,16.13,16.13,0,0,1,7.08,2.36,8.16,8.16,0,0,1,3.09,4.68C85.33,11.14,78.82,9.69,72.51,9.54ZM41.34,18.26a38.25,38.25,0,0,1,17.84-14c6.61-2.61,14-3.31,20.76-.74A21,21,0,0,1,88.67,10a13.19,13.19,0,0,0-5.59-2.7,41,41,0,0,0-17.81-.11c-9.3,2-21.2,9-22.41,19.4a7.49,7.49,0,0,1,0,1.49A47.65,47.65,0,0,1,41,33a15.81,15.81,0,0,1-3,3.79c-1,1-2,1.89-2.89,2.88C36.48,32.44,37.14,24.36,41.34,18.26ZM32,49.61a14.59,14.59,0,0,1,3.39-8.82c1.58-1.81,3.5-3.3,5-5.16a17.16,17.16,0,0,0,2.86-5.89c3.91-11.82,15.61-18.12,27.45-19.08l.47.58a7.22,7.22,0,0,0,0,3.07,8,8,0,0,1-3.43,5.75c-2.26,1.59-5,2.48-7.48,3.61a34.32,34.32,0,0,0-10.36,6.58c-.14-.43-2,2.27-2.34,2.86-1.59,2.43-2.4,5.29-4,7.69-1.9,2.75-4.9,3.9-7.49,5.83a11.38,11.38,0,0,0-4.1,5.73C31.91,51.42,31.94,50.49,32,49.61Zm-20,28A28,28,0,0,1,8.75,64.56c0-4.68,1.94-10.08,6.86-11.14a19.43,19.43,0,0,0-3.49,10.49c-.2,3.45.89,8,5,8.51,7.93,1,12.56-8.77,14.43-15.3.06.5,1.77-6.37,3.49-8.25,1.94-2.11,4.73-3.14,6.94-4.91s3.35-4,4.5-6.49a29.26,29.26,0,0,1,2.31-4.16,43.09,43.09,0,0,0,1.58,9.39q.81,3.39,1.74,6.76a.45.45,0,0,0,0,.25l.1.25c.4,1.41.82,2.82,1.26,4.22A22.78,22.78,0,0,0,56,58.45h0c3.82,5.11,8.36,11.26,8.06,11.45l.17.09c0,2-.35,8.81-1.78,9.4A12,12,0,0,0,61,78.72a11.34,11.34,0,0,1-1.57-.66c-6.78-3.44-14.66-1.14-19.91,4.53a27,27,0,0,0-4.69,7.17h0C25.83,90.78,16.23,85.51,12,77.62Zm65.53,211c2.2,1.07,5.06,2.5,5.83,5,1.34,4.4-3.87,5.25-6.88,5.57a41.33,41.33,0,0,1-7.46.2c-3.06-.23-5-1.81-7.56-3.23A25.23,25.23,0,0,0,59,295a4.3,4.3,0,0,1-2.9-4.19A13.55,13.55,0,0,1,58,283.08l.1,0h0a.57.57,0,0,0,.26,0c.58.11,1.26.6,1.79.75a8.68,8.68,0,0,0,2.43.32c2,0,3.82-.71,5.77-.83a.65.65,0,0,0,.21-.07C71.08,285.78,74.37,287,77.54,288.59ZM72.75,234a.53.53,0,0,0,.07.31,50.1,50.1,0,0,0-.84,9.07.65.65,0,0,0-.07.21c-.77,6.45.5,12.89.09,19.35s-2.93,12.75-3.89,19.22v0a.58.58,0,0,0-.14.24c-1.72.17-3.35.75-5.1.79a7.56,7.56,0,0,1-3.35-.61c-.34-.15-.59-.3-.86-.39-1.14-4.25-2.53-8.52-3.32-12.85-.37-2.07-.42-4.17-.72-6.24s-.83-4.11-1.17-6.18a56.28,56.28,0,0,1-.54-13.72c.28-3.27,1.54-6.95.63-10.21a.49.49,0,0,0,.05-.32c-.09-.45-.18-.89-.26-1.33-.4-4.93-1.13-9.78-1.9-14.66-.86-5.39-1.11-10.89-1.52-16.33,4.21,1.2,10.74-.51,13.77-.71,2.8-.18,8.54.5,12.5-.71Q75.26,216.51,72.75,234Zm4.36-36.5a.53.53,0,0,0-.87.35v0a14.24,14.24,0,0,1-5.08.76c-2.82-.05-5.61-.13-8.43.1s-9.25,2-12.91.61a.52.52,0,0,0-.74-.34,4.27,4.27,0,0,1-.87-.62.09.09,0,0,0,0-.05.5.5,0,0,0-.55-.62,4.47,4.47,0,0,1-.62-2.07.53.53,0,0,0,.34-.33h0c10.65,1.09,21.19-.92,31.83-.37A4,4,0,0,1,77.11,197.46Zm30.29,87.12a13.08,13.08,0,0,0,3.71,1.87,17,17,0,0,1,6.27,3.29c2.37,2.25,2.83,5.64-.73,7.08a22.28,22.28,0,0,1-13.13.63c-3.86-1-7.38-3.14-10.88-5-.74-2.85-1.48-7.3.65-9.69a.91.91,0,0,0,.08-.13l0,0c3,.61,6.77,1.28,9.52-.18a2,2,0,0,0,.93-.85C105.16,282.44,106.14,283.61,107.4,284.58Zm3.39-79.06a92.11,92.11,0,0,1-1.36,10.72.54.54,0,0,0,.06.34c-.52,2.28-.24,4.68-.39,7a47.8,47.8,0,0,1-1.63,9.35,28.48,28.48,0,0,0-.94,7.36.5.5,0,0,0-.34.58q.24,1.26.42,2.52c.07,1.26.17,2.53.29,3.82a.56.56,0,0,0-.05.23c.1,2,.19,4.09.29,6.14-.28,8.84-2.39,17.61-5.25,26-.2.61.76.87,1,.26,0-.08,0-.16.08-.24q-.07.62-.12,1.23a.5.5,0,0,0,0,.19,2.92,2.92,0,0,1-1,.69,8,8,0,0,1-3.22.46,24.66,24.66,0,0,1-5.27-.64l-.09-.21c-.11,0-.22-.07-.33-.1a.48.48,0,0,0,.17-.49c-.52-2.41-1-4.83-1.56-7.25s-1.33-4.59-1.65-6.94a.46.46,0,0,0,0-.35,66.35,66.35,0,0,1-2.74-14.76c-.11-2.35-.16-4.71-.14-7.06,0-1.32.37-5.2.4-5.41.1-.71.16-1.41.2-2.12a141.35,141.35,0,0,0-.84-18.51c-.29-2-.79-4-1.22-6Q85.2,206.71,85,201a.48.48,0,0,0,0-.18,24.5,24.5,0,0,0,6.56-.31,187,187,0,0,0,20.15-3.77A59.68,59.68,0,0,0,110.79,205.52Zm6.66-11.76c-.31.09-4.41,1.63-4.42,1.64-5.33,1.3-10.7,2.42-16.11,3.32a54.67,54.67,0,0,1-10.51,1.18c-3.25-.11-4.74-1.74-5.38-4.08a209.48,209.48,0,0,0,36.91-6.07C118.15,191.74,118.15,193.55,117.45,193.76Zm-2-17c.6,2.52,1.17,5,1.64,7.6.09.51.5,2.43.77,4.41a206.74,206.74,0,0,1-37,6.08,17.75,17.75,0,0,1-.22-2.5.5.5,0,0,0-1,0c0,.1,0,.2,0,.3a.53.53,0,0,0-.32.57,4.51,4.51,0,0,1,0,.72c-10.68-.57-21.26,1.46-31.94.37h-.13a105.76,105.76,0,0,1-2.1-19.49c5.37.44,11.59-4.08,14.44-8.32.36-.53-.51-1-.86-.5-2.64,3.92-8.62,8.22-13.59,7.82,0-3,.08-6,.31-8.95a23,23,0,0,0,10.18-.69.49.49,0,0,0,.35-.42c4.41.92,8.65,2.54,13.09,3.31,5.09.88,10.3.26,15.4-.13,9.21-.7,18.46-1.73,27.24-4.67C113,167.08,114.24,171.9,115.4,176.74Zm-4.32-24.54c.34.75,3.44,7.62,3.17,7.64a.51.51,0,0,0-.46.64c-9.39,3.54-19.35,4.69-29.3,5.45-5.17.39-10.43,1-15.57.08-4.87-.88-9.49-2.77-14.39-3.54-.63-.1-.9.86-.26,1v0a20.78,20.78,0,0,1-6.71.62c-.54,0-1.28-.11-2.11-.23a.52.52,0,0,0-.69-.11c-2.47-.43-5.34-1.35-5.65-3.39a69.67,69.67,0,0,0,7.82-12v0c2.48-1,4.94-2.06,7.36-3.2A141.42,141.42,0,0,0,74.9,133.23a2.23,2.23,0,0,1-.28-1,139.16,139.16,0,0,1-36.48,18.3c-1.89.61-3.45,1.21-5.29.19-1.54-.87-1.63-1.76-1.76-3.41-.08-1-.1-1.94-.14-2.91-.14-3.55-.16-7.11-.06-10.66A157.13,157.13,0,0,1,33,112.41a51.54,51.54,0,0,0,6.61,1.83,68.46,68.46,0,0,1,10.82,3.55.49.49,0,0,0-.11.2,64.8,64.8,0,0,0-2.28,14l-5.87,1.82c-.62.18-.35,1.15.26,1A46.41,46.41,0,0,0,51,132.16c1.18-.36,3.92-1.44,3.87-1.67a135.39,135.39,0,0,1,18.8-6.25.5.5,0,0,0-.27-1,136.41,136.41,0,0,0-20.23,6.85,31.18,31.18,0,0,0,1.21-13.3c2.55-3.49,3.41-8.5,4.2-12.49.12-.63-.84-.9-1-.27-.71,3.62-1.49,8.4-3.72,11.75a5.87,5.87,0,0,1-1.43,1.75,69.55,69.55,0,0,0-10.84-3.86,69.67,69.67,0,0,1-8.45-2.31c0-.21-2-.91-2.46-1.21a.05.05,0,0,1,0,0c1.53-8.34,2.6-17.53,7.69-24.6,5.37-7.48,14.45-10.12,23-5.06C65.37,82.8,71.53,82.89,76,82.33A28.8,28.8,0,0,0,84.36,80c.65-.3,2.24-.8,2.44-.91,7.27-4,16.37-4,22.38,2.28,5.35,5.56,8.06,13.73,10.55,20.85a6.22,6.22,0,0,1-.72.93l-.33.37a32.22,32.22,0,0,1-4.73,3.66c-3.61,2.36-7.13,4.41-11.51,4.85a.56.56,0,0,0-.27.12c-.69-3.23-1.36-6.45-2-9.69-.13-.63-1.09-.36-1,.27Q103.5,124,108.67,145a.54.54,0,0,0,0,.29A33.44,33.44,0,0,0,111.08,152.2ZM51.15,119.62a.67.67,0,0,1,.47-.49l0-.19a.46.46,0,0,0,.16.15,1,1,0,0,1,.29,0,.34.34,0,0,0,.16-.08,10.49,10.49,0,0,0,1.3-1.19,31.83,31.83,0,0,1-1.33,12.66h0c-.37.17-3.13,1.19-3.13,1.19A99.68,99.68,0,0,1,51.15,119.62Zm91.18,38.84-.17,0c-.67.09-1.87.11-1.92-.72a3.62,3.62,0,0,0,2.22.16A5.43,5.43,0,0,0,142.33,158.46Zm13.31-.75a.51.51,0,0,0-.29.2l-1.71,2.44a11.07,11.07,0,0,1-1,1.29c-.39.42-2.06,2-2.12-.33a2.63,2.63,0,0,1,.38-1.14l0,0v0c.28-.53.63-1.06.81-1.41.47-.89,1-1.77,1.53-2.63.35-.54-.52-1-.86-.5a35.48,35.48,0,0,0-2.15,3.86.43.43,0,0,0-.19.19,3.57,3.57,0,0,1-2.09,2c-.86.22-2.07-.05-1.82-1.18a5.42,5.42,0,0,1,.67-1.14,38.41,38.41,0,0,1,3.3-4.62c.41-.49-.3-1.2-.71-.7a41.3,41.3,0,0,0-3.18,4.37l-.24.36a.58.58,0,0,0-.24.11,3.5,3.5,0,0,1-1.52.86c-1-.52-1.21-1.19-.62-2a17.32,17.32,0,0,1,1.08-1.93,16.64,16.64,0,0,1,3-3.76c.47-.44-.24-1.15-.71-.71a17,17,0,0,0-3,3.73c-.23.36-.48.75-.72,1.15a2.69,2.69,0,0,0-.79-1.21c-.19-.19-1-.63-1.65-1a.42.42,0,0,0,.45-.24,9.8,9.8,0,0,1,1.78-2.45c.46-.45-.25-1.16-.71-.7a10.25,10.25,0,0,0-1.93,2.64.45.45,0,0,0,0,.49c-.15-.11-.26-.21-.26-.27a.5.5,0,0,0-1,0c0,.54.32.73.72,1s.8.47,1.19.72a5.58,5.58,0,0,1,.69.51q1.17.88-.9,1.29a5.91,5.91,0,0,1-3.16-1.81,4.23,4.23,0,0,1-1-1.58c-.2-1.08.78-1.42,1.47-1.71s.08-1.12-.5-.87a3.66,3.66,0,0,0-1.76,1.37h0a42.86,42.86,0,0,1-8.17-1.6c-5.91-1.82-12.45-3.05-17.84-6.58a.4.4,0,0,0-.42,0l0,0q-3.8-15.48-7.12-31.05a.27.27,0,0,0,.09,0c4.58-.46,8.22-2.51,12-5,.53-.34,1-.71,1.55-1.08A66.81,66.81,0,0,1,117.52,122q-.06,3.4,0,6.81c-1.73-1.19-3.46-2.38-5.19-3.59-.52-.37-1,.5-.5.87q15,10.5,30.42,20.53a4.6,4.6,0,0,0-1.08.89c-.43.47.27,1.18.71.71,2.73-3,6.83.07,9.18,2C153,151.84,157.32,154.79,155.64,157.71Z"/><path class="cls-2" d="M93.26,120.24a.75.75,0,0,1-.48-.06c-.88-.45-.48-1.62-.72-2.37a6.65,6.65,0,0,0-.51-.65c-.66-.5-1.75-.79-2.32-1.16a.74.74,0,0,1-.34-.59,6.13,6.13,0,0,0-1.23-.29.75.75,0,0,1-.24.1c-2.18.45-4.2,1.52-6.49,1.33a.7.7,0,0,1-.3-.09c-3.57,1.53-9.49,4.14-8,8.9.78,2.44,4.64,1.4,3.85-1.06-.56-1.76,5.24-4,6.45-4.52a9.12,9.12,0,0,1,3.36-.89c2.72.12,3.14,2.3,3.63,4.31,1.84,7.53-9.33,8-14.24,6.84-2.51-.56-3.58,3.29-1.07,3.86,5.4,1.22,11.61.8,16.31-2.38C94.88,128.86,94.78,124.27,93.26,120.24Z"/><path class="cls-3" d="M86.79,115.84l-1.77.21a.52.52,0,0,0-.45.41,36.61,36.61,0,0,0-5,2l-1.13.32a.5.5,0,0,0,.26,1,31.33,31.33,0,0,0,5.59-2,.47.47,0,0,0,.18-.16q1.2-.41,2.43-.72C87.45,116.68,87.36,115.77,86.79,115.84Z"/><path class="cls-3" d="M91.69,120.58a3.2,3.2,0,0,0-.21.28,2.32,2.32,0,0,1-.53.35,6.6,6.6,0,0,1-.9.39,5.18,5.18,0,0,1-2.33.63c-.63-.12-.9.85-.26,1a6.61,6.61,0,0,0,3.47-.87c.6-.26,1.84-.85,1.75-1.68C92.62,120,91.69,120,91.69,120.58Z"/><path class="cls-3" d="M93.16,123.63c-1.14,1.48-3.73,1.7-5.44,1.69a.5.5,0,0,0,0,1c2.16,0,4.9-.36,6.3-2.19C94.41,123.62,93.55,123.12,93.16,123.63Z"/><path class="cls-3" d="M93.11,128.1a17,17,0,0,1-6.43,1.17c-.65,0-.64,1,0,1a17.64,17.64,0,0,0,6.69-1.2C94,128.85,93.71,127.88,93.11,128.1Z"/><path class="cls-13" d="M74.66,134.25c4.8,2.23,13.57-.18,18.27-3.69a5.81,5.81,0,0,0,1.61-3.18.38.38,0,0,0,0-.24,3.69,3.69,0,0,0-.18-4.11.5.5,0,0,0-.46-.21,2.93,2.93,0,0,0-1.06-3.43.47.47,0,0,0-.39-.13c0-.05,0-.1,0-.16a2.36,2.36,0,0,0-1.16-2.47,4.58,4.58,0,0,0-1.29-.54.5.5,0,0,0-.14-.15c-2.12-1.51-4.13-1.22-6.34-.1a.42.42,0,0,0-.24.31c-2.72-.28-5.63,1.28-7.85,2.67-1.79,1.11-4.45,2.66-3.62,5.14.2.61,1.17.35,1-.27-1.15-3.42,8.37-6.91,10.59-6.55h0l.24.21A60.81,60.81,0,0,0,78,119.73c-.58.28-.07,1.15.5.87a59.4,59.4,0,0,1,9.18-3.54.41.41,0,0,0,.25.08,6.56,6.56,0,0,1,2.12,0,1.81,1.81,0,0,1,1.41,2.19c-.17.83-1,1.09-1.7,1.43a7.83,7.83,0,0,1-2.71.83c-.63.07-.64,1.07,0,1a10.12,10.12,0,0,0,3.74-1.23c.75-.4,1.21-.66,1.46-1.16a2.1,2.1,0,0,1,.88,1.62,2.43,2.43,0,0,1-1.68,2,31,31,0,0,1-3.8,1.18.5.5,0,0,0,.27,1c1.81-.53,4.31-.85,5.57-2.41l0,0A2.73,2.73,0,0,1,94,126c-.43,1.23-1.76,1.49-2.83,1.83a23.73,23.73,0,0,1-4.73.94c-.64.06-.64,1.06,0,1a25.15,25.15,0,0,0,3.94-.67,14.83,14.83,0,0,0,2.94-1,6,6,0,0,1-1.81,2.37c-.13-.05-5.81,2.93-9,3.38a16.28,16.28,0,0,1-8.62-1.36.6.6,0,0,0-.22,0c-.37-.09-.83.3-.56.72A4.71,4.71,0,0,0,74.66,134.25Zm10-17.26a.41.41,0,0,0-.13-.2l-.23-.2a5,5,0,0,1,3.39-.57C86.63,116.31,85.62,116.64,84.62,117Z"/><path class="cls-19" d="M192.28,237.79a122.3,122.3,0,0,0-.79-15.31c-.07-1.72-.15-3.44-.26-5.16l-.09-1.21a83,83,0,0,0-.8-10.86,32,32,0,0,0-.82-3.74c-.2-1.1-.42-2.18-.67-3.25-1.06-4.45-3.06-8.51-7-11-2.21-2-4.8-3.09-7.72-2.31a38.2,38.2,0,0,0-10.12-1.4c-7.15-.14-14.16,1.42-21.24,2.05-6.08.53-12.65-.94-18.29,1.8a.39.39,0,0,1-.06.62c-.93.56-1.85,1.16-2.73,1.8l-1.32,1-.33.3c-.56.69-1.1,1.38-1.6,2.12a.39.39,0,0,1-.41.16l-.07.11a11.53,11.53,0,0,0-.62,1h0c-3.8,6.64-4.59,15.35-5.23,22.76a222.58,222.58,0,0,0-.94,22.62,121.73,121.73,0,0,0,.25,17.81c.5,5.24,1,12.67,3.58,18.35a3.67,3.67,0,0,1,.56,1.44l.05.07c.11.27.24.54.36.81a5.59,5.59,0,0,1,.53,1c.17.42.33.84.49,1.26,0,.1.1.21.14.31a12.5,12.5,0,0,0,4,3.31c4.09,2.32,8.2,5,12.7,6.48,9,5.6,20.55.66,30.46-.16a56.17,56.17,0,0,0,16.29-3.42c2.73-1.06,5.75-2.26,7.29-4.39a9.21,9.21,0,0,0,1.27-1.37c2.89-3.86,2.31-10,2.57-14.58a136.76,136.76,0,0,0,.14-14.74A132.23,132.23,0,0,0,192.28,237.79Z"/><path class="cls-20" d="M192,245.3c-.14-10.84-.55-21.74-1.63-32.54-.2-2-.45-4-.82-6a34.54,34.54,0,0,0-2.27-11.18c-2.92-7.16-9.55-12.86-17.63-12.22a4.16,4.16,0,0,0-.55.1,55.45,55.45,0,0,0-13.38-.4c-6.65.4-13.31.88-20,1.35-2.08.31-4.16.62-6.24,1-.56.18-1.11.39-1.66.6a38.68,38.68,0,0,0-3.67,1.91c-.68.63-1.34,1.31-2.08,1.88-.24.19-.49.36-.74.54-.79.77-1.6,1.53-2.45,2.25a.47.47,0,0,1-.2.08c-.15.2-.3.39-.44.59a4.08,4.08,0,0,0,1.36.23,23.41,23.41,0,0,1,17.43,7.38,162.72,162.72,0,0,1-.13,17.39c1,13,.49,25.91-.25,38.89-.55,9.75.29,19.66-.6,29.38a3.15,3.15,0,0,0-.22.29c.18,1.76.3,3.51.38,5.27a3.54,3.54,0,0,0,1.53.6c10.3,1.66,21.13-.06,31.36-1.51l1.32-.2a.38.38,0,0,1,.26-.28c2-.69,4-1.09,6.05-1.6,1.8-.45,3.52-1.13,5.27-1.72l.12-.11a.36.36,0,0,1,.4-.06L183,287a.35.35,0,0,1,.41.16,11.85,11.85,0,0,0,5.35-5.38,6,6,0,0,0,2.42-3.9c.91-5,.61-10.45.74-15.5Q192.1,253.85,192,245.3Z"/><path class="cls-21" d="M126.18,225.9a1.55,1.55,0,0,0-1.43-1.23,3.45,3.45,0,0,0-2,.52,4.12,4.12,0,0,0-1.74,2.18c-3.44,5.48-3.47,13.6.88,18.38.64.69,2.13.19,2-.83-.76-6.12-1.4-12.4,2.38-17.7A1,1,0,0,0,126.18,225.9Z"/><path class="cls-21" d="M138.46,169.81c0-3.1,0-6.2,0-9.3,0-1.52.18-2.69-1-3.73a1.15,1.15,0,0,0-1-.27,1.19,1.19,0,0,0-1.14,1.12c0,.21,0,.43-.05.64a1,1,0,0,0-.67,1q.09,3.33.16,6.66-.21,5.78.08,11.56a67.36,67.36,0,0,0,.48,11.61v0h0c0,.11,0,.21,0,.31.18,1.19,1.94,1,2.25,0a1.09,1.09,0,0,0,1.35-1.11Q138.56,179.11,138.46,169.81Z"/><path class="cls-21" d="M156.32,168a40.78,40.78,0,0,1-.21-9.56,5.78,5.78,0,0,1-2.74,3.42,7.57,7.57,0,0,1-.61.66q-.42,12-.58,24.11c1.16-.29,2.32-.57,3.5-.75,0-.13-.05-.26-.08-.39a1.12,1.12,0,0,0,.65-1C156.44,179,156.45,173.46,156.32,168Z"/><path class="cls-21" d="M166.91,184.88a12.79,12.79,0,0,0-9.16-4,26.42,26.42,0,0,0-14.23,3.22,11.3,11.3,0,0,0-1.37,1.77,1,1,0,0,0-.13.48,7,7,0,0,0-.67.85l-.37.39a1.11,1.11,0,0,0-.3.91c0,.1-.09.19-.13.29-.36,1.07,1.23,2.05,2,1.14a21.71,21.71,0,0,1,3.37-3.34c4.67-1.86,9.46-3.25,14.43-1.79a1,1,0,0,0,.71.62l.36.08.15,0a16.43,16.43,0,0,1,3.05,1,1.21,1.21,0,0,0,1.56-.44l.47.22a1.18,1.18,0,0,0,1.48-.3C167.7,185.65,167.3,185.27,166.91,184.88Z"/><path class="cls-19" d="M139,157.15a8.24,8.24,0,0,1-1.16-1,4.84,4.84,0,0,1-1.23-2l-1.06-1a1.09,1.09,0,0,1-.25-.38c-.31,0-.62.1-.93.17-1.55.34-3.41,1.64-2.62,3.54a2.12,2.12,0,0,0,1,1.07,1.07,1.07,0,0,0,.5.25,8.45,8.45,0,0,0,1.12.19c.08.24.15.47.25.7a1.93,1.93,0,0,0,2.08,1.1,2.38,2.38,0,0,0,2-1.07,2.15,2.15,0,0,0,.25-.79l.66-.08A6,6,0,0,1,139,157.15Z"/><path class="cls-19" d="M157.84,153a6.38,6.38,0,0,0-4.11-1.28c1.74,1.07,3.11,2.93,2.82,4.81a5.22,5.22,0,0,0,.86-.39A1.81,1.81,0,0,0,157.84,153Z"/><path class="cls-19" d="M124.2,282.36a1.19,1.19,0,0,0-1.42-.18,5.06,5.06,0,0,0-.49.41,4,4,0,0,0-.24-.33,3.15,3.15,0,0,0-3.15-.92.94.94,0,0,0-.79,0,4.61,4.61,0,0,0-2.29,2.13.36.36,0,0,1,0,.27,7.25,7.25,0,0,0,0,3c.11.37.22.75.34,1.12a.33.33,0,0,1,0,.31,7.43,7.43,0,0,0,.78,1.54c.12.17.24.32.36.47a4.26,4.26,0,0,0,.93.34,5.17,5.17,0,0,0,5.3-2.46C124.48,286.57,125.65,283.82,124.2,282.36Z"/><path class="cls-19" d="M142.45,293.28h-.07a1.11,1.11,0,0,0-.54-.13,1,1,0,0,0-.84-.38,1.12,1.12,0,0,0-.68.21,1,1,0,0,0-.43,0h0a2.44,2.44,0,0,0-.47-.32,2.62,2.62,0,0,0-.78-.19,9.27,9.27,0,0,0-1.45-.4,4.91,4.91,0,0,0-1.28-.57,1.18,1.18,0,0,0-.16-1.41,1.2,1.2,0,0,0-1.66,0l-.52.51a1,1,0,0,0-.18.28,1.34,1.34,0,0,0-.23.39c-.82,2.29,0,5.61,2.31,6.77a5.21,5.21,0,0,0,5.43-.57,3.13,3.13,0,0,0,1.11-1.09,4.24,4.24,0,0,0,1.26-1.64A1.17,1.17,0,0,0,142.45,293.28Z"/><path class="cls-19" d="M188.3,282.75c-.3.22-.6.43-.88.67l-.07,0a.32.32,0,0,1-.09.4c-.16.14-.31.29-.46.44,0,0,0,.07,0,.11l0,0c-.21.23-.42.48-.63.74-.87.81-2.26,1.13-3.06,2.07a2.82,2.82,0,0,0-.45.76.33.33,0,0,1,.31.36c0,.08,0,.15,0,.23a.46.46,0,0,1,.37.27,13.52,13.52,0,0,0,1.52,3.32,8.24,8.24,0,0,0,2.52,1.72,7,7,0,0,0,1.52-.09C194.29,292.94,193.33,282.92,188.3,282.75Z"/><path class="cls-19" d="M178.88,199.4c-1.14,0-2.28.1-3.41.19a.66.66,0,0,0-.7-.47,62.31,62.31,0,0,0-6.73,1,.6.6,0,0,0-.67-.34l-.21,0h0c-5.47.73-13.06,1.92-17.31,5.92a1.51,1.51,0,0,0-.2.17l-.06,0c-2.14,1.53-2.66,3.62-2.64,6.13a.78.78,0,0,0-.62.71c-.28,3.32-.93,9.6,1.47,12.41,1,1.18,2.53,1.69,3.62,1a.75.75,0,0,0,.92-.74l0-.68a.72.72,0,0,0-.51-.71c-.32-.83-.65-1.66-1-2.5,0,0,0,0,0-.06-.46-3.3-.68-6.61-.86-9.94,0-.14.1-.28.14-.42q.24-.65.51-1.26a.75.75,0,0,0,.06-.29c1.44-1.28,2.92-2.51,4.47-3.67a.91.91,0,0,0,.18-.21l9.26-2.51a61.16,61.16,0,0,1,11-2,.85.85,0,0,0,.65.19l2.8-.4C180,200.81,179.75,199.37,178.88,199.4Z"/><path class="cls-19" d="M181.81,231.57c-1.31-2.79-2.81-3.37-5.74-2.87a100.83,100.83,0,0,0-10.56,2.57,58.84,58.84,0,0,0-9.67,2,.84.84,0,0,0-.85-.32,8,8,0,0,0-2.42.89,3.84,3.84,0,0,0-3.39.7,3.61,3.61,0,0,0-2.4,1.93,7,7,0,0,0-.38,3c0,1.87,0,3.73,0,5.6a.76.76,0,0,0,.14.43,15.06,15.06,0,0,0,.19,7.41,1,1,0,0,0,.12.2q0,1.22,0,2.43a.66.66,0,0,0-.1.41c.21,4.14.6,8.26,1.14,12.35a.62.62,0,0,0-.25.8c.56,1.43.17,2.88.22,4.37a16.44,16.44,0,0,0,.77,4.22c.52,1.75.94,3.67,2.65,4.47a6.67,6.67,0,0,0,.43.66c.48.66,1.71.31,1.42-.6l-1.62-5.2-.06-.12c-.31-2.44-.61-4.89-.88-7.34a.85.85,0,0,0,.05-.37L150,263a.66.66,0,0,0,.18-.54,123.06,123.06,0,0,1,0-18.91c.11-.76.22-1.53.34-2.29.31-1,.58-1.92.81-2.9a13.91,13.91,0,0,1,2.16-2.11l7.71-1.94c5.89-.66,12-2.81,17.84-2.51h0a5.27,5.27,0,0,1,1.67.88C181.45,233.09,182.12,232.22,181.81,231.57Z"/><path class="cls-13" d="M154.39,152.14a9.42,9.42,0,0,1,2.35.63c.47.21,1.22.68,1.38,1.2s-.37,1-1,1.3a.42.42,0,0,1-.17.11,3.45,3.45,0,0,1-.42.14,3.24,3.24,0,0,1,0,.88l.19-.05a.34.34,0,0,0,.23-.19c1.33-.5,2.72-1.47,1.58-2.91a5.17,5.17,0,0,0-2.92-1.67l-.32,0a4.14,4.14,0,0,1-1-.13h0c-.35,0-.69,0-1,0A7.34,7.34,0,0,1,154.39,152.14Z"/><path class="cls-13" d="M189.05,282.65a12.1,12.1,0,0,0,1.55-2.77,9.9,9.9,0,0,0,1-2.67l.05,0c.08-.53.19-1.06.31-1.59h0q.69-19.87.85-39.75a8.46,8.46,0,0,1-.06-2,.27.27,0,0,0-.07-.08,39.68,39.68,0,0,0-.15-6.62c-.64-5.43-1.35-10.73-1.5-16.18a.14.14,0,0,1,0-.06,34.73,34.73,0,0,1,0-4.21,43.49,43.49,0,0,0-1.9-8.79,15.24,15.24,0,0,1-.7-1.47c-.13-.3-.26-.6-.36-.9l-1.44-3.16a.3.3,0,0,0-.29-.19c-.05-.1-.09-.2-.14-.29a.33.33,0,0,0-.17-.28,16.48,16.48,0,0,0-1.18-1.69c.26.25.51.52.77.77l-.33-.42a13.18,13.18,0,0,1-1.08-1.29c-.14-.2-.26-.4-.38-.59l-.35-.41a17.47,17.47,0,0,0-6-3.23.43.43,0,0,1-.17-.12A58.8,58.8,0,0,0,165,182.68a.32.32,0,0,0-.35.23,16.53,16.53,0,0,0-7.76-2.11c-.15-3.9-.4-7.8-.45-11.7s.12-7.53-.1-11.34a2.19,2.19,0,0,0,.2-1.25,3.59,3.59,0,0,1-.21.76,3.93,3.93,0,0,1-.15.91,6.8,6.8,0,0,1-.57,1.34c.1,3.2,0,6.37,0,9.58.05,3.88.29,7.77.45,11.66-1,0-2.08,0-3.09,0a.39.39,0,0,0-.27.11h-.29a.37.37,0,0,0,.18-.31l.18-13,0,0a12.89,12.89,0,0,1,.16-2.15c0-.1,0-.19,0-.29,0-1,.06-2,.08-3a5.55,5.55,0,0,1-.8.73c0,.7,0,1.41-.05,2.11h0c0,.25,0,.49,0,.74s0,.53,0,.81c0,.43-.09.85-.14,1.28l0,.89v.13q-.08,5.85-.17,11.7a.34.34,0,0,0,.21.33,13.75,13.75,0,0,0-7.38,2.27l-.24.18-.07,0a.35.35,0,0,1-.2.13,7,7,0,0,1-2.33.25c-.75.06-1.51.09-2.27.08h0a.44.44,0,0,1-.29-.11.31.31,0,0,0-.24.06q-.12-3.37-.31-6.75a.38.38,0,0,0,.06-.22,73.64,73.64,0,0,1,.12-9.74c.09-1.22-.11-2.37-.12-3.58a18.24,18.24,0,0,0-.14-3.84.35.35,0,0,0-.35-.28,3.69,3.69,0,0,0,.94-.95.3.3,0,0,0,0-.1l.83-.12a4.29,4.29,0,0,1-.85-.66l-.46.07a.34.34,0,0,0-.27.45,2,2,0,0,1-2.27.82,2.73,2.73,0,0,1-1.32-.61c.61,0,1.23,0,1.84,0s.5-.81,0-.78-.91,0-1.36,0a.37.37,0,0,1-.21,0l-.09,0h-.51l0,0a2.68,2.68,0,0,1-1.24-.19,1.05,1.05,0,0,1-.48-.18,1.74,1.74,0,0,1-.75-1.52c0-1.32,1.69-1.91,2.74-2.29a.37.37,0,0,0,.17-.12l.43-.07a1,1,0,0,1-.26-.73h0c-.6.21-1.2.44-1.79.68-1.12.52-2.07,1.26-2,2.67a2.38,2.38,0,0,0,.81,1.8,1.9,1.9,0,0,0,1.27.56l.18,0a.42.42,0,0,1,.41.37,2.52,2.52,0,0,0,.33.39.38.38,0,0,0-.23.33,18,18,0,0,0,.27,2.84c.09,1.15,0,2.33,0,3.48L134.3,171a.32.32,0,0,1,0,.14c0,1-.08,2-.14,3,.07,3.38.17,6.76.4,10.13a24.19,24.19,0,0,0-13.1,5.48c-.61.68-1.2,1.4-1.83,2a.34.34,0,0,1-.25.11l-.31.36,0,0a39.16,39.16,0,0,0-2.47,3.53c-2.37,4.7-3.1,9.93-4.16,15.13h0c-.13,1.37-.47,2.71-.5,4.08a.51.51,0,0,1,0,.13l-.69,9.15a96.77,96.77,0,0,0-.47,11.79h0a29.56,29.56,0,0,1-.13,4.61,1,1,0,0,1-.06.18c-.08,2.22-.24,4.44-.29,6.66-.08,3,.27,6,.38,9,0,.27.07.54.1.81a10.41,10.41,0,0,1,.29,1.37,11.63,11.63,0,0,1,.11,1.44,96.62,96.62,0,0,0,2.56,14,.61.61,0,0,1,.09.2c.18.86.57,1.68.81,2.53.14.48.29,1,.45,1.42a23.93,23.93,0,0,0,1.48,2.84.53.53,0,0,1,.06.4h.08a.34.34,0,0,0-.09.08.62.62,0,0,1-.3.32,6.51,6.51,0,0,0-1,3.13,5.55,5.55,0,0,0,1.65,4.91c2.72,2.16,7.07.21,7.22-3.13.29.19.58.39.88.57a61.07,61.07,0,0,0,7.75,3.41c-.72,1.23-.12,3.28.34,4.47a5.86,5.86,0,0,0,3.31,3.53c3.32,1.19,7.74-1.48,6.81-5.24,0,0,0,0,0-.06a61.06,61.06,0,0,0,15-.62,143.65,143.65,0,0,0,22.08-4.33,7.65,7.65,0,0,0,1.45-.75.27.27,0,0,1,.11-.05.38.38,0,0,1,.4,0,.43.43,0,0,0,0-.16c.17-.06.35-.14.52-.22a5.37,5.37,0,0,0,2,5.37c1.59,1.23,4.19,1.92,5.95.62C193.68,291.07,193.34,283,189.05,282.65Zm-36.78-101a7.34,7.34,0,0,1,2.14-.15c4.64,0,9.74.53,12.5,4.65a9.56,9.56,0,0,1-3.88-.79,21.49,21.49,0,0,0-3.11-1.25,16.67,16.67,0,0,0-6.77-.52,15.6,15.6,0,0,0-10.46,5.84.36.36,0,0,0-.17.26.21.21,0,0,0,0,.11,5.93,5.93,0,0,1-1.68-.3C142.68,184.3,147.12,182,152.27,181.65Zm3.59,3.84c-.39.32-1.18.23-1.68.26a4,4,0,0,1-1.32.07c-.4-.17-.34-.91-.35-1.33a15.52,15.52,0,0,1,3-.25,6.08,6.08,0,0,1,.61,0C156.15,184.72,156.22,185.19,155.86,185.49Zm-16.7-1a27.81,27.81,0,0,0,4.08-.2,12.57,12.57,0,0,0-2.87,4.14.2.2,0,0,1,0-.07c-.17-.4-.59-.41-.89-.64a.34.34,0,0,0-.28-.06l-.12-3.2Zm-2.69-24.91a2.9,2.9,0,0,0,1.48-.15.39.39,0,0,0-.06.3A25.37,25.37,0,0,1,138,164a23.89,23.89,0,0,1,.06,3.59,65.2,65.2,0,0,0-.08,8.84.26.26,0,0,0-.05.09,13.13,13.13,0,0,1,.06,1.54c.19,3.57.34,7.14.43,10.71a6,6,0,0,1-2.53,1.15h0c-.65-5.52-.81-11.06-.93-16.61a.23.23,0,0,0,.07-.1c0-.4,0-.79,0-1.19l.08-6.72c0-1.06.06-2.13,0-3.19s-.34-2-.28-3A4.37,4.37,0,0,0,136.47,159.62ZM134.64,185c.09,1.2.19,2.4.31,3.6-1.16.29-2.25,1.22-1.28,2.47.73.93,2.38,1.09,3.68.82a2.58,2.58,0,0,0,1.8-.23,2,2,0,0,0,.41-.22c.29.09.58.15.77.19.85.15,2.5.34,3.25-.23s.33-1.2-.12-1.68a14.31,14.31,0,0,1,8.28-5v.24c-.9.2-2.09,1-1.62,2.07.62,1.4,3.12,1.34,4.31,1.21s3.44-.29,4-1.6c.42-1-.54-1.75-1.46-1.84,0-.14,0-.28,0-.4a18.27,18.27,0,0,1,5.7,1.71l.05,0a2.25,2.25,0,0,0-.5.6s0,.05,0,.08a.21.21,0,0,0-.08.1c-.86,1.65,3.92,1.28,4.54,1.19s2.12-.23,2.22-1.21c.09-.78-.65-1.07-1.29-1.12a9.48,9.48,0,0,0-2-2.19c4.16.37,8.79.79,12.7,2.26h0l.11,0h0l.19,0a9.72,9.72,0,0,1,2.44,1.05,38.07,38.07,0,0,1,3.87,4.46c-8.49-1.48-17.06-.06-25.48,1.34-7.95,1.33-16,2.9-22.9,7.34a.39.39,0,0,0-.21,0c-4-4.91-10.75-6.81-16.91-7C123,188.23,128.66,185.71,134.64,185ZM117,288.84a4.68,4.68,0,0,1-1-3.15c0-1.05.26-3.18,1.36-3.8a12.3,12.3,0,0,0,1.23.92c-.56,1.62-1,3.8-.36,5.45a4,4,0,0,0,1.25,1.7A3.26,3.26,0,0,1,117,288.84Zm4.08.81a.36.36,0,0,0-.19,0c-1.55.19-2.12-2-2.15-3.07a8.63,8.63,0,0,1,.25-2.33.22.22,0,0,0,0,.11c.65,1.64,1.34,3.9,3,4.76A4,4,0,0,1,121.1,289.65ZM126,287a36.05,36.05,0,0,1-4.39-3.08c-1.2-.87-2.56-1.54-3.68-2.51a.4.4,0,0,0-.11-.27.42.42,0,0,0,0-.1,27.43,27.43,0,0,1-2.65-4.8c-2.15-6.6-3-13.56-3.73-20.45a.32.32,0,0,0,0-.09c-.13-2.74-.42-5.48-.35-8.24.09-3.56.43-7.11.33-10.67l.06,0a.66.66,0,0,1,0-.14,7.36,7.36,0,0,1-.06-.82c0-.78.07-1.56.09-2.34,0-3.08.3-6.15.53-9.23q.47-6.08.91-12.13a.35.35,0,0,0,.1-.18c1.26-5.94,1.91-12,5-17.2.13-.44.43-.91.91-.87l.14,0c6,.11,13,1.94,16.82,6.91a.38.38,0,0,0,.22.14c1.2,3.37.75,7.48.53,11.15a.43.43,0,0,0-.06.21c0,.26,0,.52,0,.79l0,.77a.34.34,0,0,0,0,.18c0,4-.06,8.13.25,12.17a89.77,89.77,0,0,1,.4,12.26.4.4,0,0,0-.14.28c-.9,9.84-.94,19.71-1,29.58a.43.43,0,0,0,0,.17q-.06,11.39-.37,22.78h0C132.63,289.65,129.16,288.62,126,287Zm12.61,11.18c-3-.49-3.76-3.57-2.89-6.11a.37.37,0,0,0,.37-.07l.09,0a.38.38,0,0,0,.22-.07,29.61,29.61,0,0,0,6.15,1.42.36.36,0,0,0-.09.35C143.09,296.18,140.9,297.92,138.63,298.15Zm43.82-11.63a8.69,8.69,0,0,1-2.64,1.12.33.33,0,0,0,0,.14,140.84,140.84,0,0,1-20.48,4.08c-7.56,1.07-15.37,1.89-22.72-.7q.33-12,.39-24A.41.41,0,0,0,137,267c0-9,.09-18,.84-26.94a.38.38,0,0,0,.16-.29,81.28,81.28,0,0,0-.31-13.6c-.33-4.35-.22-8.76-.26-13.13.17-4,.83-8.52-.49-12.28,6.63-4.29,14.4-5.87,22.07-7.16,8.74-1.47,17.68-3,26.49-1.31l.08.16h0a3.2,3.2,0,0,1,.89,1.56c.39.86.79,1.71,1.18,2.57a2.65,2.65,0,0,1,.42.86.15.15,0,0,0,0,.06,42.77,42.77,0,0,1,2.25,11.2.35.35,0,0,0-.16.3,157.2,157.2,0,0,0,1.55,18.14,48.85,48.85,0,0,1,0,9.21c0,.92,0,1.84,0,2.76a25.22,25.22,0,0,1,.16,6.25s0,0,0,0q-.21,15.39-.76,30.76l-.09,0a6,6,0,0,1-.72,2.62c-.3.68-.65,1.33-.83,1.69a9.26,9.26,0,0,1-2.87,3.41A23.55,23.55,0,0,1,182.45,286.52Zm6.89,6.55-.14,0a.39.39,0,0,0-.31-.19c-3.81-.42-4.12-5.28-2.46-7.85a18.75,18.75,0,0,0,2.06-1.77l0,0a.34.34,0,0,0,.3.15c2.24,0,3,3.28,3.05,4.93S191.3,292.5,189.34,293.07Z"/><path class="cls-13" d="M126.23,228.23c1.15.23,1.79-.74,1.72-1.81a5.11,5.11,0,0,0-1.58-3.19,2.05,2.05,0,0,0-2.71-.41c-.47.35-1,1.35-.51,1.84-3.52,2.38-4.61,7.08-5,11.08-.32,2.92.65,8.86,3.69,10.51-.25.81-.07,1.71.91,1.87,1.14.19,2.48-1,3.17-1.81a2.88,2.88,0,0,0,.62-3.22c-.54-.91-1.37-.54-2,0a18.78,18.78,0,0,1,1.63-14.89Zm-2.35,15.53a.35.35,0,0,0,.08.22c.06.19.12.37.19.55a3.57,3.57,0,0,1-1.46,1.29h0c-2.14-.66-2.88-3.79-3.33-5.65a13.05,13.05,0,0,1-.26-5.56c.57-3.25,1.35-6.85,4-9a.39.39,0,0,0,.2-.06h0s.07,0,.11-.08c.26-.23.53-.47.89-.36s.42.36.65.57.5.34.62.61a1.91,1.91,0,0,1,0,.89.38.38,0,0,0,0,.22A19.52,19.52,0,0,0,123.88,243.76Z"/><path class="cls-13" d="M182.91,204.83c-.55-2.84-1.92-5.37-5-5.92-3.71-.67-8.2.55-11.84,1.24-4.65.87-9.59,1.82-14,3.69A10.38,10.38,0,0,0,147,208.1h0c-.23.89-.49,1.76-.76,2.63a6.56,6.56,0,0,0,0,.89,53.06,53.06,0,0,0,.21,10c.33,2.57,1.47,4.81,4.3,5a29.87,29.87,0,0,0,5.88-.55c2.15-.29,4.28-.62,6.41-1a125.66,125.66,0,0,0,13.5-3.25c3.24-1,5.9-2,6.62-5.65A30.19,30.19,0,0,0,182.91,204.83Zm-.35,9.25c-.18,2-.49,4-2.17,5.29-1.44,1.11-3.5,1.51-5.22,2a127.74,127.74,0,0,1-20.48,4.15c-1.79.21-4,.78-5.64-.21s-1.86-3-2-4.77a69.57,69.57,0,0,1,0-10.41c.6-3,3.47-4.9,6.32-6a74.14,74.14,0,0,1,10-2.68,102,102,0,0,1,10.7-1.78,10,10,0,0,1,4.82.28,3.55,3.55,0,0,1,.55.28c-4.18.95-8.49.77-12.66,1.92a103.31,103.31,0,0,0-11.91,3.56c-3,1.22-4.85,3.27-4.94,6.57a43.76,43.76,0,0,0,1.88,13.15c.15.48.9.28.76-.2a48.39,48.39,0,0,1-1.85-11.95c-.09-2.41.47-4.49,2.56-5.88a16.18,16.18,0,0,1,4.57-1.87c3.67-1.08,7.36-2.29,11.1-3.13s7.51-.6,11.19-1.53l.11,0a6.64,6.64,0,0,1,1.77,3.35A30,30,0,0,1,182.56,214.08Z"/><path class="cls-13" d="M185.21,262.53c-.39-6.6-1.23-13.18-1.9-19.75-.3-2.93-.48-5.89-.92-8.8-.26-1.73-.78-3.67-2.36-4.65-2.18-1.36-5.24-.27-7.54.16l-11.07,2.11c-3.56.67-7.14,1.29-10.69,2a7.3,7.3,0,0,0-3.43,1.44h0a4.81,4.81,0,0,0-.87,1.64l0,.19a.1.1,0,0,0,0,.05,237.24,237.24,0,0,0,1.11,36.35c.46,4.16.5,9.21,5.26,10.26v0l.16,0a.35.35,0,0,1,.18,0,8.25,8.25,0,0,1,2.57.23h0l.2,0c1.76,0,3.53-.29,5.25-.47,2.87-.29,5.74-.66,8.6-1.09a90.71,90.71,0,0,0,9.26-1.67,7,7,0,0,0,4.35-3.08C186,273.3,185.48,267.21,185.21,262.53Zm-36.08,16.53a54,54,0,0,1-1.07-8.42,237.36,237.36,0,0,1-.82-34.25c1-2,4.46-2.15,6.37-2.52l8-1.52,8-1.52c2.5-.48,5.62-1.57,8.16-1.36a3.7,3.7,0,0,1,3.38,2.8,12.7,12.7,0,0,0-6.95-.33c-3.72.61-7.42,1.31-11.13,2-3.07.54-6.79.62-9.63,2-2,1-2.76,3-3.07,5.09a108.23,108.23,0,0,0-.49,21.52,137.5,137.5,0,0,0,2.71,20.2A4.79,4.79,0,0,1,149.13,279.06ZM183.67,275a6.77,6.77,0,0,1-5.13,4.87c-2.47.58-5,1-7.49,1.36-5.19.83-10.65,1.79-15.92,1.77a11.06,11.06,0,0,1-1.66-.13,136,136,0,0,1-2.71-37c.19-2.81-.13-7.21,2.51-9,1.23-.85,3-1,4.41-1.23l4.89-.86,9-1.59c3.2-.57,6.71-1.55,9.77,0l.1,0a25.92,25.92,0,0,1,.42,3c.27,2.68.54,5.37.82,8.05.54,5.32,1.16,10.64,1.58,16C184.64,265,185.19,270.44,183.67,275Z"/><path class="cls-22" d="M94,110.54c-.46-2.28-1-4.53-1.44-6.83-.12-.66-.29-1.31-.44-1.95A7.84,7.84,0,0,1,91.7,100l-.15-.71a.24.24,0,0,0-.35-.16h0q-1.35.31-2.7.66c-2.13.39-4.24.82-6.35,1.28-1.18.26-2.38.49-3.55.79s-2.36.41-3.49.74a.25.25,0,0,0-.12.08.24.24,0,0,0-.13.36s0,.07.05.1a.42.42,0,0,0,0,.15c.2,1.13.63,2.24.84,3.38a35.37,35.37,0,0,0,.83,3.7c.58,3,1.1,6.12,1.93,9.09l.06.34a25.34,25.34,0,0,1,3.14-1.42,15.49,15.49,0,0,1,3.15-1.1,15.77,15.77,0,0,1,2.29-.83l.09,0c1.68-.66,4.82-.45,5.17,1.79a2.33,2.33,0,0,1-.15,1.23,1.42,1.42,0,0,1,.46.23,1.56,1.56,0,0,1,1,.8,2.76,2.76,0,0,1,0,2s0,.18-.06.29a3.49,3.49,0,0,1,.65.53,1.77,1.77,0,0,1,.34.5l1.84-.36a.22.22,0,0,0,.18-.16.34.34,0,0,0,.29-.06C95.9,119,94.86,114.83,94,110.54Z"/><g class="cls-23"><path class="cls-24" d="M77,121.51a1.07,1.07,0,0,1,.17-.52l0,0a1.13,1.13,0,0,1,.1-.13c1.19-1.24,2.85-1.73,4.39-2.39a15.49,15.49,0,0,1,3.15-1.1c.46-.2,1-.41,1.5-.59-1.44-6.21-3.16-12.37-4.28-18.65-.49-2.72-4.29-1.94-4.61.46a2.12,2.12,0,0,0-1.85-.93,2.3,2.3,0,0,0-2.26,2.81,2.45,2.45,0,0,0-.94,2.37,105.77,105.77,0,0,0,4.61,19.11A1.26,1.26,0,0,1,77,121.51Z"/><path class="cls-24" d="M87.63,126.92s0-.1,0-.15l0-.07a1.6,1.6,0,0,1-.62-.18c-1.28,1.31-3.12,2.18-4.44,1.62a3.55,3.55,0,0,1-.64.06,2.25,2.25,0,0,0,1.64.13c.45.25.89.55,1.29.77a2.29,2.29,0,0,0,3.42-1.5A1,1,0,0,1,87.63,126.92Z"/><path class="cls-24" d="M80.75,127.88a1.83,1.83,0,0,1-1.69.09,1.55,1.55,0,0,1-.86-1,1.7,1.7,0,0,1-.58-.65,2,2,0,0,1-.16-1.24c-2,1.9,1.22,5,3.54,3.2l.27-.18A1.72,1.72,0,0,1,80.75,127.88Z"/></g><path class="cls-25" d="M79.63,105c-.2-.42-.83-.21-1.15-.1-.1,0-.06.22,0,.18l.1,0a0,0,0,0,0,0,0,5.21,5.21,0,0,0,.2,1l0,0h0v0h-.07c-.11,0-.11.17,0,.18a1.26,1.26,0,0,0,.47-.08c.11,0,.06-.21,0-.17h0l0-.06s0,0,0,0l0-.19a.5.5,0,0,0,0-.12h0l.23-.1h0l.07-.06A.43.43,0,0,0,79.63,105Zm-.38.47a1,1,0,0,1-.22.09c0-.17-.06-.34-.1-.51.13,0,.27-.06.34.06S79.36,105.43,79.25,105.49Z"/><path class="cls-25" d="M81,105.76h0c-.08-.12-.17-.24-.26-.35-.14-.26-.28-.52-.44-.78a.07.07,0,0,0-.1,0s-.07,0-.08.06L79.76,106h0l-.05,0c-.12,0-.07.2,0,.17a2.56,2.56,0,0,1,.46-.11.09.09,0,0,0,0-.18l-.12,0h0s0,0,0,0v-.07s0-.09,0-.13v0a2.49,2.49,0,0,1,.37-.09l.17.26-.08,0a.09.09,0,1,0,0,.17,3.43,3.43,0,0,1,.44-.09C81.14,105.92,81.09,105.75,81,105.76Zm-.91-.28.09-.45c.06.13.13.25.2.38Z"/><path class="cls-25" d="M81.84,105a.07.07,0,0,0-.06,0l-.24-.11a0,0,0,0,0-.05,0l0,0h0a.27.27,0,0,1-.11-.1c-.08-.2.11-.31.28-.3a.44.44,0,0,0,.08.2.08.08,0,0,0,.08,0h0a.1.1,0,0,0,0-.15l0,0a.43.43,0,0,0,0,0,.1.1,0,0,0-.06-.13.55.55,0,0,0-.22,0h0a.45.45,0,0,0-.43.61.5.5,0,0,0,.28.27c.11,0,.25.05.37.1l.06.09a.33.33,0,0,1,0,.17v0s0,0,0,0l-.12,0a.09.09,0,0,0-.06,0,.34.34,0,0,1-.14,0s-.07-.09-.09-.13a.09.09,0,0,0-.17.07.37.37,0,0,0,.37.33.53.53,0,0,0,.26-.06.44.44,0,0,0,.29-.29A.4.4,0,0,0,81.84,105Z"/><path class="cls-25" d="M83.15,105a.46.46,0,0,0-.41-.38h0c-.14-.06-.35-.14-.3-.31v0h0a.48.48,0,0,1,.26-.09v0s0,.07,0,.11.17.12.18,0a.18.18,0,0,0,0-.12.07.07,0,0,0,0-.1.13.13,0,0,0-.07-.06.1.1,0,0,0-.12,0,.58.58,0,0,0-.4.13.27.27,0,0,0-.11.15.07.07,0,0,0-.06.08h0a.14.14,0,0,0,0,.06.43.43,0,0,0,.2.43,1.65,1.65,0,0,0,.32.07.21.21,0,0,1,.18.11.24.24,0,0,1,0,.24.24.24,0,0,1-.18.1h0a.18.18,0,0,1-.14-.08.09.09,0,0,0-.1,0,.14.14,0,0,1,0-.07c0-.07,0-.09-.1-.08h0a.08.08,0,0,0-.06.13,1.84,1.84,0,0,0,.09.25l0,0a.09.09,0,0,0,.08,0,.87.87,0,0,0,.55-.14.1.1,0,0,0,0-.06h0a.28.28,0,0,0,.13-.31A.15.15,0,0,0,83.15,105Z"/><path class="cls-25" d="M84.1,103.89a.57.57,0,0,0-.48-.1,1,1,0,0,0-.41.07.08.08,0,0,0,0,0h0l0,0c-.08,0-.08.18,0,.17h.08a.08.08,0,0,0,0,0l0,0a2.07,2.07,0,0,0,.1.43l.05.29a.09.09,0,0,0,0,0l.06.26-.12,0c-.09.06,0,.22.09.15a.76.76,0,0,1,.21,0l.24,0c.11,0,.06-.2,0-.18l-.1,0-.06-.33a.1.1,0,0,0,0-.06v0a1.22,1.22,0,0,0,.5-.21.06.06,0,0,0,0-.08A.42.42,0,0,0,84.1,103.89Zm-.46.66c0-.17-.07-.34-.1-.51h.13a.66.66,0,0,1,.14,0l.06.06a.35.35,0,0,1,.06.28.08.08,0,0,0,0,.08Z"/><path class="cls-25" d="M84.93,103.53h0a.67.67,0,0,0-.44.78.56.56,0,0,0,.26.45.91.91,0,0,0,.58.22.08.08,0,0,0,.07,0,.71.71,0,0,0,.38-.24.61.61,0,0,0,.07-.14A.73.73,0,0,0,84.93,103.53Zm.6,1.07c-.24.29-.6,0-.69-.24a.7.7,0,0,1,.06-.6l.08,0,.28,0a.39.39,0,0,1,.24.2A.68.68,0,0,1,85.53,104.6Z"/><path class="cls-25" d="M87.39,104.28h0a1.25,1.25,0,0,1-.22-.16,1.89,1.89,0,0,1-.2-.2v0l0,0a1.24,1.24,0,0,0,.17-.23.48.48,0,0,0,0-.29.35.35,0,0,0-.39-.24h0a1.37,1.37,0,0,0-.29,0l-.09,0a.58.58,0,0,0-.14,0l0,0h0a.09.09,0,0,0-.08,0l-.07,0a.09.09,0,0,0,0,.15h0a.08.08,0,0,0,.09,0h0a1.23,1.23,0,0,0,.08.39,5.12,5.12,0,0,0,.15.56s0,0,0,0h0s0,.1,0,.11l-.18.07c-.11.05,0,.21.09.16a.67.67,0,0,1,.12-.06h0a.11.11,0,0,0,.06,0,2.3,2.3,0,0,1,.28-.06c.11,0,.06-.2-.05-.17h-.07c0-.12-.07-.24-.1-.36h0l.08,0,0,0c.11.09.19.19.3.27a.91.91,0,0,0,.35.15.06.06,0,0,0,.06,0,.09.09,0,0,0,0-.09S87.44,104.29,87.39,104.28Zm-.61-.54a.41.41,0,0,1-.23.15l0,0c0-.18-.08-.35-.11-.53v0h.29a.08.08,0,0,0,0,0v0l0,.06,0,.11A.33.33,0,0,1,86.78,103.74Z"/><path class="cls-25" d="M88.28,103l0,0,0,.12c0,.11.21.06.17,0a2.86,2.86,0,0,1-.07-.28c0-.12-.19-.07-.17,0v0h0q-.42.06-.84.15c0-.07-.16,0-.17,0a.6.6,0,0,0,0,.35c0,.11.22.06.17,0a.53.53,0,0,1,0-.17l.26-.05v0c.1.34.19.69.26,1h0l-.11,0c-.09,0-.09.18,0,.17a2.12,2.12,0,0,0,.57-.08.09.09,0,0,0,0-.17.88.88,0,0,0-.17,0,.05.05,0,0,0,0,0s0,0,0,0c-.06-.32-.13-.64-.18-1v0Z"/><path class="cls-25" d="M85.54,108.83a1,1,0,0,0-1.42-.42,1.08,1.08,0,0,0-.39,1.35,1,1,0,0,0,1.39.49c.22-.14.5-.33.56-.6A1.3,1.3,0,0,0,85.54,108.83Zm-.47,1.33a.84.84,0,0,1-1-.07s0,0,0,0l.17-.28c0-.05,0-.1-.08-.05a2.61,2.61,0,0,0-.17.28,0,0,0,0,0,0,0l-.13-.15a0,0,0,0,0,.07,0,1.14,1.14,0,0,1,.3-.23s0-.11,0-.09a1.31,1.31,0,0,0-.32.25s0,0,0,0a.43.43,0,0,1,0-.07,1.13,1.13,0,0,1-.08-.22h0l.47,0a.05.05,0,1,0,0-.1l-.47,0h0a.87.87,0,0,1,.43-1l0,0h0l0,0h0a.75.75,0,0,1,.62,0,0,0,0,0,0,0,0,.66.66,0,0,1,0,.24c0,.06.08.09.1,0a1.24,1.24,0,0,0,0-.27s0,0,0,0h0l.16.07a.05.05,0,0,0,0,0l-.09.2c0,.06.07.08.1,0a1.42,1.42,0,0,1,.08-.18,0,0,0,0,0,0,0,.27.27,0,0,1,.12.09,0,0,0,0,0-.06,0l0,.06c0,.06.08.09.09,0l0-.07a0,0,0,0,0,0,0,.86.86,0,0,1,.19.31,3,3,0,0,1,.09.32.05.05,0,0,0,0,0l-.13,0a.05.05,0,0,0,0,.1l.11,0s0,0,0,0a.81.81,0,0,1,0,.22,0,0,0,0,0-.07,0h0a.06.06,0,0,0,.06.08C85.51,109.87,85.25,110,85.07,110.16Z"/><path class="cls-25" d="M84,115.52a1.9,1.9,0,0,0-.68-.73l-.58-.4a.05.05,0,0,0,0,0h0s0,0,0,0a2,2,0,0,1,0-.24c0-.06.1-.32.15-.17a.57.57,0,0,1,0,.29,1,1,0,0,1-.06.25.05.05,0,0,0,.1,0v0a0,0,0,0,0,.06,0l.09-.24a.39.39,0,0,1,.06-.11s0-.07,0,0a3.62,3.62,0,0,1-.12.52c-.07,0,0,.1,0,.09s.12-.26.14-.33,0-.19.07-.28a.17.17,0,0,0,0-.14.05.05,0,0,0,0,0c-.12,0-.19.11-.24.22V114c0-.09,0-.25-.1-.27s-.19.09-.23.24v-.1c0-.06,0-.21-.08-.25s-.25.36-.29.44c0-.14,0-.27,0-.4s0-.24-.07-.31a.09.09,0,0,0-.12,0,.48.48,0,0,0-.08-.43s0,0,0,0,0,0-.06,0a.89.89,0,0,0-.08.34l-.06-.18s-.09-.18-.16-.16-.06.2,0,.26a1,1,0,0,0,.2.41c-.15-.1-.38-.21-.4,0a.25.25,0,0,0,.13.23,1.14,1.14,0,0,0,.23.15c-.13,0-.24,0-.21.16a.2.2,0,0,0,.18.13.11.11,0,0,0,.08,0,.18.18,0,0,0,0,.17.17.17,0,0,0,.19.09h0a.17.17,0,0,0-.06.15c0,.09.09.1.17.09h.1a.28.28,0,0,0-.09.2c0,.13.16.09.23,0l.12-.09,0,.09c0,.09-.08.27,0,.36s.17,0,.23-.08c0,.08,0,.18.1.2s.22-.28.25-.51a.7.7,0,0,0,.14.16c.08.08.27.27.37.1s-.06-.11-.09,0-.23-.13-.25-.16a.64.64,0,0,1-.1-.13s0-.07,0-.1h0a0,0,0,0,0,0,0s0,0,0,0a1.92,1.92,0,0,1,.83.84s0,0,.07,0h0S84,115.53,84,115.52Zm-1.64-1.39v0a.05.05,0,0,0,.09,0,1.06,1.06,0,0,0,.06-.19.59.59,0,0,1,.06-.14c0-.06,0-.06.05,0a2.69,2.69,0,0,1,0,.57l-.3-.19Zm-.6-.89a.78.78,0,0,1,0-.16c0-.08,0,0,0,0s.07.24.11.36A1.24,1.24,0,0,1,81.76,113.24Zm0,.61a1,1,0,0,1-.21-.14s-.07-.11,0-.14.1,0,.12.05a1.13,1.13,0,0,1,.21.12s.08,0,.06-.06.07,0,.06-.06l0-.06s0,0,0,0a1.56,1.56,0,0,1,0-.52.62.62,0,0,1,0,.5,0,0,0,0,0,0,.06l-.06.17c0,.06.07.08.09,0l.09-.23s0-.11.06-.1,0,.15,0,.17,0,.3,0,.45a1.34,1.34,0,0,1-.2-.21s-.13,0-.09.05l.08.09h0Zm.26.58s0,0,0-.06-.05-.06,0-.06a.49.49,0,0,1,.17,0,0,0,0,0,0,0-.06s0-.07,0-.08H82a.62.62,0,0,1-.19,0,.09.09,0,0,1-.07,0l0-.06h.14a1.92,1.92,0,0,1,.24,0s0,0,0,0a3.38,3.38,0,0,0,.36.27H82.4a.87.87,0,0,0-.28,0Zm.13.24s0,0,0,0,0-.07,0-.08l.08,0a.28.28,0,0,1,.13,0h.11a0,0,0,0,0,0,0l.22.15h0l-.05.06h0s0,0,0,0h0c.07,0,0-.11,0-.1a.68.68,0,0,0-.27.13l-.12,0S82.2,114.68,82.18,114.67Zm.3.15-.12.09s-.1.06-.06,0a.55.55,0,0,1,.14-.17l.2,0Zm.53-.12a.1.1,0,0,0,0,.09c0,.11,0,.22,0,.33s-.06.27-.11.2,0-.26,0-.31h0c0-.12.06-.22.07-.25h0s0,0,0-.06-.07-.08-.09,0a1.84,1.84,0,0,0-.09.25.56.56,0,0,1,0,.12.59.59,0,0,1-.07.16c-.1.12-.11,0-.1-.07a1.42,1.42,0,0,1,.29-.54s0,0,0,0l0,0,.13.09Z"/><path class="cls-25" d="M84.46,113.42v0c0,.06.07.08.09,0v0C84.57,113.38,84.48,113.36,84.46,113.42Z"/><path class="cls-25" d="M84.46,114.32l0-.12a.05.05,0,0,0-.1,0l0,.13A.05.05,0,0,0,84.46,114.32Z"/><path class="cls-25" d="M87.21,114.06l0-.19c0-.06-.11,0-.1,0l.05.18C87.14,114.14,87.23,114.12,87.21,114.06Z"/><path class="cls-25" d="M88.87,111.69c-.09,0-.22.15-.28.21l0,0,0,0a1.72,1.72,0,0,0-.31.4,1.75,1.75,0,0,0-.12,1.17v0a.28.28,0,0,0-.22.1.05.05,0,0,0-.09,0l0,0s0,0-.05,0a2.09,2.09,0,0,1-.34.08,0,0,0,0,0,0,0l-.29-.24a.63.63,0,0,0-.58-.2h0l-.09-.43a0,0,0,0,0,0,0l0,0,.06.2c0,.06.12,0,.1,0l-.08-.23.06,0,.19.23h0l-.33.17c-.06,0,0,.12.05.09a3.13,3.13,0,0,0,.75-.49l0,0a1.6,1.6,0,0,0,.52-1,3.11,3.11,0,0,0-.11-1,2,2,0,0,1,.32-1.37s-.05-.1-.09,0a4.23,4.23,0,0,0-.27.57,0,0,0,0,0-.06,0,4.38,4.38,0,0,1-.85.54h0a2.37,2.37,0,0,1,.51-.49l.71-.66h0a0,0,0,0,0,0-.08c.06,0,.06-.11,0-.1a1.85,1.85,0,0,0-1.11.75,3.64,3.64,0,0,0-.66,1s-.08,0-.09,0c-.11.29-.23.57-.36.85l0,0h0a1.41,1.41,0,0,1,.38-.77c.06,0,0-.12,0-.09l-.06,0a.62.62,0,0,1,.08-.56.66.66,0,0,1,.45-.31,1.23,1.23,0,0,0,.51-.39.75.75,0,0,0,.21-.57.72.72,0,0,0-.39-.41.06.06,0,0,0-.07,0s0,0,0,0,0,0,0,0c.1.42-.19.58-.43.86a1.73,1.73,0,0,0-.19.28,2.05,2.05,0,0,1-.32.34c-.27.23-.42.59,0,.73.06,0,.08-.08,0-.1l-.1,0-.07-.3c0-.06.1-.13.15-.17l.21-.19a5.09,5.09,0,0,0,.34-.47.54.54,0,0,0,0,.21l0,0-.15.06a.77.77,0,0,0-.39.94l0,0a1.37,1.37,0,0,0-.26.56,1.58,1.58,0,0,0-.1-.43c0-.09-.07-.24-.17-.29s-.44.13-.54.25a.55.55,0,0,0-.09.19l-.47-.43a.9.9,0,0,0,.38,0,.92.92,0,0,0,.6-.19c.13-.1.22-.23.36-.33a.87.87,0,0,0,.21-.17,0,0,0,0,0,0-.07,1.73,1.73,0,0,0,.24-.69,2,2,0,0,0-.21-.84,1.33,1.33,0,0,0-.45-.49,1,1,0,0,0-.29-.16c-.16,0-.32,0-.48-.06s0,0,0,0h0l-.22,0h0a2.07,2.07,0,0,0-.7.34,1.66,1.66,0,0,0-.44.68c0,.12,0,.28,0,.4s0,.24,0,.37a.68.68,0,0,0,0,.28c.06.13.17.23.22.37a.06.06,0,0,0,.06,0l0,0a1.24,1.24,0,0,0-.43,0h0a.21.21,0,0,1-.14-.07s0-.1,0-.17a.42.42,0,0,0-.12-.24.87.87,0,0,0-.3-.16s-.14-.09-.2-.07-.16.36-.14.47a.38.38,0,0,0,.27.35h0a.13.13,0,0,0,0,.16,1.44,1.44,0,0,0-1-.09h0a0,0,0,0,0-.06.07.87.87,0,0,0,.36.18c-.1.14.06.25.19.28l.11,0-.06,0c-.07.07,0,.16,0,.22a.69.69,0,0,0,.25.1v0a0,0,0,0,0,0,0,2.29,2.29,0,0,0,.79,1.6,2.93,2.93,0,0,0,.76.45,1,1,0,0,0,.77.07,0,0,0,1,0,0-.08.55.55,0,0,1-.4,0s0,0,0,0a2.68,2.68,0,0,1,.07-.27h.12l0,.17c0,.06.09.06.1,0l0-.17.06,0c.06,0,0-.12,0-.09h0a.47.47,0,0,1,0-.17h0c.08.27.14.54.2.81a.26.26,0,0,0-.27,0,.05.05,0,0,0,0,0,1.17,1.17,0,0,0-.36.66h0a1.74,1.74,0,0,1-.45.17c-.06,0,0,.1,0,.09a1.72,1.72,0,0,0,.45-.16.48.48,0,0,0,0,.12c0,.18.24.14.37.11a.87.87,0,0,0,.55-.39s0,0,0-.06H85a.06.06,0,0,0,.08,0h.06l.06.16s0,0,0,0-.42.88-.2.9.15-.11.18-.19c0,.19,0,.45.12.35a.08.08,0,0,0,0,0c0,.07,0,.14.06.18a.11.11,0,0,0,.17-.06c0-.06-.07-.08-.09,0s0,0,0,0a.34.34,0,0,1,0-.1.06.06,0,0,0-.06-.06,2.83,2.83,0,0,0,.07-.28,2,2,0,0,0,0-.26,2.35,2.35,0,0,0,.13.88c.07.14.18.18.22,0s-.08-.08-.09,0-.1-.19-.11-.24,0-.24,0-.35a6,6,0,0,0,0-.61,0,0,0,0,0,0,0v0h.09s0,0,0,0a9.4,9.4,0,0,0,.2.92c0,.15.07.39.23.46l0,0c.11-.1,0-.43,0-.57s-.06-.52-.1-.78c.07.17.14.34.2.51s.23.56.05.52a0,0,0,1,0,0,.09c.15,0,.23-.09.21-.23a2.31,2.31,0,0,0-.24-.68l.07.07s.41.54.23.55-.06.1,0,.09.15-.13.12-.24h0a.1.1,0,0,0,.1,0s0-.07,0-.11a.69.69,0,0,0,0-.1.21.21,0,0,0,.2,0,0,0,0,0,0,0,0,.06.06,0,0,0,0-.08,1.69,1.69,0,0,0-.67-.54h0a.13.13,0,0,0,0-.2s-.12,0-.07.07-.18.14-.19.15l-.18,0-.42,0s0,0,0,.07,0,0,0,0l-.12.37s-.11.35-.16.36,0-.24.07-.28l.16-.4a.06.06,0,0,0,0-.08,1.34,1.34,0,0,1-.07-.18h0l1-.24s0,0,0,0h0c.18.35.77.21,1,0a.05.05,0,0,0,0,0s0,0,0,0l.22,0,0,0a.16.16,0,0,0,.07.13l0,0a1.09,1.09,0,0,0-.19.27s-.06.09-.09.15,0,0-.06,0-.1,0-.05-.09l.05,0,.07-.07.18-.18s0-.11-.07-.07l-.23.23a.39.39,0,0,0-.14.21.15.15,0,0,0,.22.13.11.11,0,0,0,0,.08.17.17,0,0,0,.21,0,.43.43,0,0,0,.1-.09.16.16,0,0,0,.07.16c.09.06.15,0,.19-.13,0,0,0,.08.08.08.22,0,.07-.5,0-.59s0,0-.08,0,0,0,0,0h0a.23.23,0,0,0,.12-.1.56.56,0,0,0,0-.53,0,0,0,0,0,.06,0,2.81,2.81,0,0,0,.64-1.11C89,112.39,89.1,111.7,88.87,111.69Zm-2.24-2.15a1.65,1.65,0,0,1,.36-.11c.06,0,0-.11,0-.09a1.18,1.18,0,0,0-.3.07.71.71,0,0,0,.23-.68c.19.11.36.29.28.52a.93.93,0,0,1-.21.36,1.16,1.16,0,0,1-.39.26,0,0,0,0,0,0,0,.74.74,0,0,1,0-.14C86.51,109.61,86.56,109.57,86.63,109.54Zm-.48,4.87a.08.08,0,0,0,0,0,1.49,1.49,0,0,1,.62.49h0c-.14.07-.32-.16-.4-.24a3.33,3.33,0,0,1-.25-.28Zm-.11,0h0a3.94,3.94,0,0,0,.44.47l0,0a.07.07,0,0,0,0,.06l.06.14s0,0,0,0,0,0,0,0l-.06,0h0c-.11-.23-.33-.4-.44-.63a.05.05,0,0,0,0,0Zm-.22,0v0c0,.24.07.47.1.71s0,.22,0,.34.06.3,0,.12a2.21,2.21,0,0,1-.14-.52c-.05-.2-.09-.41-.12-.61l0,0A1.2,1.2,0,0,0,85.82,114.5Zm-.59.53c0-.14.1-.28.14-.42a3.05,3.05,0,0,1-.06.6s-.06.25-.09.22,0-.28.06-.35S85.26,115,85.23,115Zm1.38-2.41,0,0s-.06-.12-.09-.09a0,0,0,0,0,0-.06s.05.08.08.11l.06.07Zm.23-1.57h0l.24,0a.28.28,0,0,0,0,.09h-.25a0,0,0,0,0,0,0c0-.07-.06-.15-.1-.23h0a0,0,0,0,0,0,0l.31-.11a.66.66,0,0,0,0,.14l-.27,0h0A.05.05,0,0,0,86.84,111.05Zm.11.74h0a.58.58,0,0,0,.11.15.74.74,0,0,1,0,.14.66.66,0,0,0-.24-.11l.06-.16a.88.88,0,0,0,0-.17.92.92,0,0,0,.23.09s0,.06,0,.08a.16.16,0,0,1,0-.07,0,0,0,0,0-.08,0,.06.06,0,0,0,0,0A0,0,0,0,0,87,111.79Zm0-.25s0,0,0,0a.76.76,0,0,0,0-.15l.09,0,.15,0v.19A.77.77,0,0,1,86.94,111.54Zm.1-.22-.09,0s0,0-.06,0,0,0,0,0a.14.14,0,0,1,0-.06s0,0,0,0h.25a.53.53,0,0,1,0,.13Zm0,.83,0,.09-.06,0a1.49,1.49,0,0,0-.12-.14h0A.77.77,0,0,1,87,112.15Zm-.11.16,0,0,0,0-.17-.12s-.1,0,0,.09l.15.1a.94.94,0,0,1-.1.1c-.06-.06-.1-.15-.17-.2a1,1,0,0,0,.2-.22C86.8,112.18,86.85,112.25,86.92,112.31Zm0,.66s0,0,0,0a2,2,0,0,0-.19-.22l0,0,.25.2a.05.05,0,0,0,0,0Zm.16-.1a0,0,0,0,0,0-.06,2.23,2.23,0,0,0-.24-.19,1.14,1.14,0,0,1,.11-.11l.3.23Zm.23-.2-.3-.23.05-.07a1.7,1.7,0,0,0,.35.19h0A.52.52,0,0,1,87.26,112.67Zm.16-.19h0a2.21,2.21,0,0,1-.34-.18h0l.05-.08.07.05a1.34,1.34,0,0,0,.3.12A.61.61,0,0,1,87.42,112.48Zm.12-.19h0a1.17,1.17,0,0,1-.36-.16l0-.11v0c.12.07.28.11.41.17S87.56,112.25,87.54,112.29Zm.12-1.36c0,.13,0,.27.07.4a1.41,1.41,0,0,1-.08.74,3.38,3.38,0,0,1-.44-.18s0-.09,0-.14a1.49,1.49,0,0,1,.39.13s.1-.06,0-.09a2.25,2.25,0,0,0-.44-.14v-.21l.43,0c.07,0,.07-.09,0-.1l-.42,0h0s0-.1,0-.15h.44a.05.05,0,0,0,0-.1H87.2a.31.31,0,0,0,0-.1l.44,0Zm0-.92a1.33,1.33,0,0,0-.05.19,2,2,0,0,0,0,.65h0l-.44.05v-.16l.3-.09a0,0,0,1,0,0-.09l-.26.08a.88.88,0,0,1,0-.16l.31-.1c.06,0,0-.12,0-.1l-.58.2A5.56,5.56,0,0,0,87.65,110Zm-.54.51s0,.1,0,.15a2.17,2.17,0,0,0-.36.12,0,0,0,0,0,0,0s0,0,0,0h0a0,0,0,0,0,0,0,.59.59,0,0,1,0-.23s0,.07.06,0ZM87,110a2,2,0,0,1,.94-.75c-.31.3-.62.58-.94.87a.82.82,0,0,0-.37.75s0,0,0,0a1.36,1.36,0,0,1,.16.88.93.93,0,0,1-.48.6s0,.1,0,.09a0,0,0,0,0,0,0l.08.27-.06,0h0c0-.08,0-.16,0-.25s0,0,0,0l0-.24c0-.06,0-.13,0-.2h0a.48.48,0,0,0,.41-.41.71.71,0,0,0-.35-.62h0A2.88,2.88,0,0,1,87,110Zm-.74,1a.14.14,0,0,1,0,.06.06.06,0,0,0,0,.06.76.76,0,0,1,.32.41.37.37,0,0,1-.34.45s0,0,0,0h0A.16.16,0,0,0,86,112h0l-.13-.18C86,111.55,86.11,111.29,86.21,111Zm-.54.69a.64.64,0,0,0,0,.2c0,.06.12,0,.1,0l0-.1a1.35,1.35,0,0,1,.16.19c-.21,0-.42.08-.63.12l-.08-.41h.07a2,2,0,0,0,.1.32s.11,0,.09,0a1.31,1.31,0,0,1-.09-.28h.07a2.45,2.45,0,0,0,.08.29c0,.06.11,0,.09,0s0-.17-.07-.26A.23.23,0,0,1,85.67,111.73Zm-1.19-.7a0,0,0,0,0,0,0l0,.42c0,.07.1.07.1,0l0-.41.06,0a0,0,0,0,0,0,0c0,.1,0,.21,0,.31s.1,0,.09,0l0-.27.07.06v0h0a0,0,0,0,0-.06.06l.06.27c0,.06.1,0,.09,0l-.06-.27h0a.74.74,0,0,0,.12.38s.09,0,.09,0-.13-.26-.1-.38a0,0,0,0,0,0,0,.37.37,0,0,1,.09-.19c.1-.11.33-.3.45-.13a1,1,0,0,1,.14.46c0,.15,0,.17-.15.19a1.55,1.55,0,0,1-.31,0,0,0,0,0,0,0,.09h0l.09.43-.1,0,0-.15s0-.11,0-.15a.07.07,0,0,0,0-.08h0a0,0,0,0,0-.05,0s0,0,0,0a.28.28,0,0,0-.11.08c-.12-.1-.14-.19-.32-.18s-.17,0-.25,0-.08-.1-.12-.13a1.38,1.38,0,0,0-.25-.17l.12-.09a0,0,0,0,0,0-.07.52.52,0,0,0-.11-.1s0,0,0,0l0-.41s0,0,0,0l.06,0s0,0,0,0l.07.47s0,0,.08,0,0,.22,0,.33.1,0,.09,0a5.06,5.06,0,0,1,0-.68Zm.46,1.07,0-.17a0,0,0,0,0,0,0,.18.18,0,0,1,.07,0s0,0,0,0a1.69,1.69,0,0,0,0,.23s0,0,0,0v.08h0l0,0h0v0l0,0A.07.07,0,0,0,84.94,112.1Zm-.07.12-.17,0a2.14,2.14,0,0,1,.1-.22v0l0,.12a.05.05,0,0,0,0,0A.07.07,0,0,0,84.87,112.22Zm-1-.62s0,0,0,0l-.15-.19h0a1,1,0,0,1,.35.23c.06.06.1.13.19.16a.75.75,0,0,0,.15,0c.22,0,.19,0,.31.14a1.42,1.42,0,0,0-.15.34s0,0,0,0l-.18,0a.06.06,0,0,0,0,.06h0a.14.14,0,0,0,0,.06c-.2,0-.45,0-.54-.2a.71.71,0,0,1,.1-.58S83.9,111.61,83.89,111.6Zm.18-.69,0-.24.06,0a0,0,0,0,0,0,.05Zm-.53-.71c-.07-.14-.2-.27-.21-.43s0-.45,0-.68a.75.75,0,0,1,.08-.38l.2-.3a1.55,1.55,0,0,1,.75-.44h0a.87.87,0,0,1,.22,0h0c.16.07.32,0,.5.06a1.28,1.28,0,0,1,.62.5,2.22,2.22,0,0,1,.24.74,1.42,1.42,0,0,1-.23.82.06.06,0,0,0,0,.07,1.84,1.84,0,0,1-.22.17,2,2,0,0,0-.21.2.9.9,0,0,1-.63.26,1,1,0,0,1-.64-.2c-.16-.1-.42-.16-.52-.32Zm0,.25a1.14,1.14,0,0,0,.07.41c0,.06.12,0,.1,0a.94.94,0,0,1-.07-.37l.06,0v0a1.87,1.87,0,0,0,.07.4c0,.06.11,0,.09,0a2.25,2.25,0,0,1-.06-.36l.07,0a0,0,0,0,0,0,0l0,.41v0a2.28,2.28,0,0,0-.56-.23s0,0,0,0a1.87,1.87,0,0,1-.08-.32A1.31,1.31,0,0,1,83.5,110.45Zm-1-.13a.05.05,0,0,0,0,.05.3.3,0,0,1-.18-.3.75.75,0,0,1,0-.17h0c.15,0,.26.18.41.22s.09-.08,0-.1-.26-.17-.41-.21c.11-.08.4.12.45.22s0,.25.09.34,0,0,0,0v0a1.11,1.11,0,0,0,.08.3s.11,0,.08,0a1,1,0,0,1-.06-.23l.11,0h0a2.21,2.21,0,0,0,.07.3h0c-.06,0-.09.08,0,.09a2,2,0,0,1,.74.33l-.14.1a.06.06,0,0,0,0,.07,2.18,2.18,0,0,0-.9-.59l-.1,0a.06.06,0,0,0,0-.06l0-.14s0-.12,0-.13h0v0c0,.1,0,.19.08.29s.11,0,.09,0-.05-.18-.07-.27.08-.09,0-.1A1,1,0,0,0,82.47,110.32Zm.07.17a.06.06,0,0,0,0-.08h0a.29.29,0,0,0,0,.09l0,.14h0s-.12-.06-.09-.11S82.54,110.5,82.54,110.49Zm-1,.12a2.35,2.35,0,0,1,1.26.26,2,2,0,0,1,1,.74h0a.82.82,0,0,0-.08.68c.12.24.39.25.63.22l0,.1,0,.15c-.28.13-.73-.2-.82-.45a4.45,4.45,0,0,1-.19-.82.06.06,0,0,0,0-.08,1.76,1.76,0,0,0-.79-.46c-.2-.07-.39-.13-.59-.18A2.24,2.24,0,0,1,81.54,110.61Zm1.94,1.84-.14.11,0-.06.12-.11s0-.11-.07-.07l-.1.09,0,0,.23-.12s0,0,0,0a.92.92,0,0,0,.18.34,0,0,0,0,0,0,0s0,0,0,0a1.34,1.34,0,0,1-.11.14l0,0-.06-.08.13-.09C83.59,112.51,83.54,112.43,83.48,112.45Zm-.19-.45-.22.07,0-.09.25,0a.05.05,0,0,0,0-.1l-.25,0s0,0,0-.07h.24c.06,0,.06-.11,0-.1H83a.17.17,0,0,1,0-.07s0,0,0,0l.38.1c0,.15,0,.3.09.44a0,0,0,0,0,0,0l-.23.12a1.17,1.17,0,0,1,0-.11l.2-.06C83.37,112.08,83.35,112,83.29,112Zm.39.64h0v0l.07.06a0,0,0,0,0,0,0l-.11.16a.27.27,0,0,1-.08-.07A.61.61,0,0,0,83.68,112.64Zm.15.11a0,0,0,0,1,0,0l.07,0h0l-.11.19-.08,0Zm.15.08v0l.06,0,0,0a2,2,0,0,0-.1.21l-.06,0A1.28,1.28,0,0,1,84,112.83Zm-2.14-2h0l.42.1a2.33,2.33,0,0,1,1,.51h0a6.42,6.42,0,0,0-.66-.3,1.58,1.58,0,0,0-.37-.11S81.72,110.94,81.84,110.84Zm.35.44c0-.11.07,0,.15,0s.07,0,.06-.07l.16,0a5.19,5.19,0,0,1,.68.3,0,0,0,0,0,.07,0s0,.06,0,.09q-.33-.09-.66-.15l-.34-.07C82.25,111.35,82.21,111.36,82.19,111.28Zm.18.41a.88.88,0,0,1,0-.16h0a0,0,0,0,0,0,0l.21,0,.34.07s0,0,0,0,0,0,0,.07l-.44,0a.05.05,0,0,0,0,0s0,0,0,0Zm0,.27a1.42,1.42,0,0,1,0-.2h0l.5,0a.29.29,0,0,1,0,.09h0c-.1,0-.3.07-.4,0A.05.05,0,0,0,82.42,112Zm.23.54a2.06,2.06,0,0,1-.21-.48h0a.69.69,0,0,0,.35,0l.16,0,0,.11a1.2,1.2,0,0,1-.38,0c-.07,0-.06.1,0,.1a1.51,1.51,0,0,0,.42,0,.61.61,0,0,0,0,.12,3,3,0,0,1-.41.18Zm0,.08a3.79,3.79,0,0,0,.42-.18s0,0,0,.08a2,2,0,0,1-.37.24Zm.16.22a2.82,2.82,0,0,0,.36-.24l0,.07,0,0a3.22,3.22,0,0,1-.28.24Zm.3.29L83,113l.23-.18.09-.09.09.09s0,0,0,0a1.21,1.21,0,0,0-.21.24Zm.21.16-.15-.1,0,0a2,2,0,0,1,.24-.26l.09.07-.2.27S83.37,113.23,83.37,113.25Zm.4.21-.14-.07-.19-.1h0l.21-.28.08.06c0,.07-.07.15-.1.23s.07.08.1,0a.88.88,0,0,1,.09-.2l0,0A2.83,2.83,0,0,0,83.77,113.46Zm.28.06a.07.07,0,0,0,0,0l-.2-.07a2.83,2.83,0,0,1,.11-.31l.15.06A2.68,2.68,0,0,0,84.05,113.52Zm.1-.36a.42.42,0,0,1-.14-.06c0-.07.07-.14.11-.2s0,0,0,0l.17,0,0,0C84.22,113,84.18,113.07,84.15,113.16Zm.25-.22a.56.56,0,0,0-.06.21v0h-.1a2.56,2.56,0,0,1,.11-.24s0-.06,0-.07a.31.31,0,0,0,.13,0l0,.08S84.41,112.9,84.4,112.94Zm.2.06-.09-.29s-.1-.25-.08-.28,0,0,0,0c.34,0,.67-.16,1-.22a2,2,0,0,1,.53-.08c.18,0,.15.12.17.25l0,.35,0,0c-.36.07-.75.11-1.12.2a.06.06,0,0,0-.07,0,1.9,1.9,0,0,0-.36.12Zm-.1,1.7a.56.56,0,0,1-.23.07.11.11,0,0,0,0,0s0,0,0-.06-.1,0-.09,0,0,0,0,.08a.14.14,0,0,1-.08-.14.65.65,0,0,1,0-.11s.08,0,.08,0a.64.64,0,0,0,0-.07l0,0a.61.61,0,0,1,0-.12l.12.38c0,.06.11,0,.09,0l-.15-.48a.83.83,0,0,1,.13-.18l.12.48c0,.06.11,0,.1,0s-.1-.34-.14-.51l.08,0a0,0,0,0,0,0,.06l.13.52c0,.06.11,0,.1,0l-.14-.52s0,0,0,0l0,0s0,0,0,0l.09.47a0,0,0,0,0,0,0A.78.78,0,0,1,84.5,114.7Zm.36-.39a9.87,9.87,0,0,0-.26-1.2h0l.08,0,.25,1.21Zm.18,0L84.78,113,85,113a8.46,8.46,0,0,0,.29,1.23Zm.31-.07h0a8.6,8.6,0,0,1-.29-1.24l.11,0h0a10.63,10.63,0,0,0,.25,1.25Zm.16,0a10.31,10.31,0,0,1-.25-1.23v0h0l.11,0a10.54,10.54,0,0,0,.27,1.24Zm.23,0a8.85,8.85,0,0,1-.27-1.24h.09c.18.39.2.82.34,1.21Zm.26-.06c-.15-.39-.17-.82-.34-1.21l.17,0,.24,1.21Zm.31-.06h0l-.1,0-.25-1.21.1,0c.1.4.19.79.29,1.17,0,0,0,0,0,0Zm.09-.09c-.1-.38-.19-.75-.28-1.13h.06s0,0,0,0l0,0c0,.18.07.37.1.56S86.48,113.75,86.4,113.91Zm0,.16.09,0a1.15,1.15,0,0,0,.06.17l0,0A.31.31,0,0,1,86.41,114.07Zm.94,0a0,0,0,0,0,0,0,1,1,0,0,1-.7.13,0,0,0,0,0,.05-.07.44.44,0,0,1-.06-.16s0,0,0,0a.51.51,0,0,0,0-.2l-.06-.32h.12c-.06,0,0,.11,0,.1s0,.26,0,.3l.09.34c0,.06.11,0,.1,0l-.11-.41a1.23,1.23,0,0,0-.09-.29h0a.34.34,0,0,1,.16,0l0,0a0,0,0,0,0,0,.06l.13.49a0,0,0,1,0,.09,0l-.12-.5.12.1,0,0a0,0,0,0,0,0,0v0s.1,0,.1,0l.14.13s0,0,0,.06v0c0,.06.11,0,.1,0a.19.19,0,0,1,0,.1.05.05,0,0,0,0,0S87.35,114.07,87.35,114.08Zm.3-.06s0,0-.05,0l-.16,0h0a.24.24,0,0,0-.07-.18,2.33,2.33,0,0,0,.36-.08A.87.87,0,0,0,87.65,114Zm.45.44s0,.07,0,.1,0,.19,0,.21,0-.2,0-.23v-.08Zm.3-2.21c0,.12,0,.23.07.35l-.08-.27s0,0,0,0Zm-.09.14.14.5c0-.12-.09-.24-.13-.37a.05.05,0,0,0-.07,0Zm-.49,2.17s0,0,0,0-.06.15-.11.17-.12,0-.08-.09l.05-.08c0-.09.11-.25.2-.29s0,0,0,0h0C87.87,114.37,87.84,114.46,87.82,114.56Zm.14.16s0,.08,0,.11,0,0,0-.06a2.16,2.16,0,0,1,.1-.44s0,.08,0,.12v0A1.57,1.57,0,0,1,88,114.72Zm.19-.66a.18.18,0,0,1-.22.12c-.08,0-.17-.05-.17-.16a.53.53,0,0,1,0-.2s0,0,0,0,.27-.28.35-.08A.53.53,0,0,1,88.15,114.06Zm.75-1.9a1.41,1.41,0,0,1-.11.54,3.14,3.14,0,0,1-.55.86,0,0,0,0,0,0,.06.13.13,0,0,0-.06-.05.05.05,0,0,0,0,0,4.36,4.36,0,0,1,0-.52,2.77,2.77,0,0,0,.1.26h0s-.1,0-.08.07l0,0s.1,0,.08,0l0,0h0a.05.05,0,0,0,.08-.06,1.66,1.66,0,0,1-.12-.31.05.05,0,0,0-.07,0,.8.8,0,0,1,0-.15v0c.06.16.12.31.17.47s.12,0,.1,0-.11-.31-.18-.46-.09,0-.09,0a.06.06,0,0,1,0,0,.58.58,0,0,1,0-.14c0,.16.1.31.16.47s.12,0,.1,0v0a0,0,0,0,0,.08,0l0-.08s.09,0,.08-.06a3.39,3.39,0,0,1-.12-.62h0l0-.06c0,.18,0,.35.08.52a0,0,0,1,0,.09,0c0-.2-.06-.39-.08-.59l0,0,0,.28c0,.06.1,0,.09,0l0-.28s0,0,0,0C88.91,111.77,88.91,112,88.9,112.16Z"/><path class="cls-25" d="M83.46,110.77a1.78,1.78,0,0,0-.12-.29c0-.06-.11,0-.08,0s.08.18.11.27A0,0,0,0,0,83.46,110.77Z"/><path class="cls-25" d="M84.3,110.9a.05.05,0,1,0-.1,0c0,.2,0,.41,0,.61s.11.06.1,0S84.3,111.1,84.3,110.9Z"/><path class="cls-25" d="M84.41,111c0-.07-.1-.07-.1,0s0,.35,0,.52.11.06.1,0A4.53,4.53,0,0,1,84.41,111Z"/><path class="cls-25" d="M84.39,109.68a.75.75,0,0,0-.07.18,1.23,1.23,0,0,1,0,.19c0,.06,0,.11.08,0a.41.41,0,0,0,0-.16.83.83,0,0,1,.06-.21C84.5,109.67,84.41,109.62,84.39,109.68Z"/><path class="cls-25" d="M85,109.89a1,1,0,0,1-.3-.23c0-.06-.06-.11-.09,0h0s-.08-.07-.1,0h0a0,0,0,0,0,0,.06v0a.05.05,0,0,0-.07,0l0,.48c0,.06.11.06.1,0l0-.48v0h0v0a3.9,3.9,0,0,0,.2.47c0,.06.11,0,.08,0s-.1-.24-.15-.36l.06,0c.07.06.17.17.27.15A.05.05,0,0,0,85,109.89Z"/><path class="cls-25" d="M85.46,109.59l-.16,0s0-.1,0-.08l-.09,0-.11,0c-.06,0-.08.07,0,.09l0,0a0,0,0,0,0,.06,0h0a1.38,1.38,0,0,0,.27.08C85.5,109.7,85.52,109.6,85.46,109.59Z"/><path class="cls-25" d="M84.44,109.36a.06.06,0,0,0,0,0,.06.06,0,0,0-.05,0l0,0s0,0,0,0h0l-.44-.15c-.06,0-.08.07,0,.09l.45.16h0a.06.06,0,0,0,.06,0,.09.09,0,0,0,.08,0A.1.1,0,0,0,84.44,109.36Z"/><path class="cls-25" d="M84.86,109.05a.11.11,0,0,0-.06-.16h0l-.11,0-.15,0a0,0,0,0,0,0,0,.06.06,0,0,0-.06,0h0l-.23.06,0,0s-.05,0-.06,0h0a0,0,0,0,0-.06,0,.08.08,0,0,0,.06.13h.08a.1.1,0,0,0,0-.08h0l.18-.05h0a.22.22,0,0,1,0,.08.05.05,0,0,0,.1,0h0c.07,0,.07-.1,0-.09h0a0,0,0,0,0,.05,0l.11,0,.07,0a.14.14,0,0,1,0,.06.05.05,0,0,0,0,0h0s.1,0,.09,0Z"/><path class="cls-25" d="M85.17,108.81a.12.12,0,0,0-.1.06.29.29,0,0,0-.13,0c-.07,0,0,.11,0,.1H85a.13.13,0,0,0,0,.06.07.07,0,0,0,.07,0,.05.05,0,0,0,0-.05s0,0,0,0,.08-.06.07-.11A.07.07,0,0,0,85.17,108.81Z"/><path class="cls-25" d="M84.72,109.23l0,0a.12.12,0,0,0-.15.06.14.14,0,1,0,.18,0Z"/><path class="cls-25" d="M85.16,109.23c0-.08-.13-.12-.21-.12a.05.05,0,0,0,0,0,.12.12,0,0,0,0,.08.13.13,0,0,0,.16.13C85.08,109.36,85.19,109.31,85.16,109.23Zm-.16,0h0s0,0,0,0a.08.08,0,0,0,.07,0h0l0,0h0Z"/><path class="cls-25" d="M84.28,108.79l-.25-.17s-.1,0,0,.08l.25.17A0,0,0,1,0,84.28,108.79Z"/><path class="cls-25" d="M84.14,108.9a.74.74,0,0,0-.19-.16,0,0,0,1,0,0,.08.8.8,0,0,1,.17.15A0,0,0,1,0,84.14,108.9Z"/><path class="cls-25" d="M84,109l-.13-.06c-.06,0-.08.07,0,.1l.1,0A0,0,0,0,0,84,109Z"/><path class="cls-25" d="M84.73,108.51c0-.06-.06-.11-.09-.05a.32.32,0,0,1-.21.2h0a0,0,0,0,0,0,0,.76.76,0,0,1-.11-.14,0,0,0,0,1,0,0h0a0,0,0,1,0-.07.06h0a1,1,0,0,0,.13.16,0,0,0,0,0,0,0s0,0,.06,0l.07,0h0a0,0,0,0,0,0,0,.25.25,0,0,1,0,.07s.12,0,.09,0a.08.08,0,0,1,0,0l0,0s0,0,0,0A.49.49,0,0,0,84.73,108.51Z"/><path class="cls-25" d="M85.34,108.92h0a.05.05,0,0,0,.1,0h0A.05.05,0,0,0,85.34,108.92Z"/><path class="cls-25" d="M85.48,109.08a.05.05,0,1,0,0,.1A.05.05,0,0,0,85.48,109.08Z"/><path class="cls-25" d="M85.4,109.83c-.15-.07-.29-.15-.43-.23a0,0,0,0,0,0,0v0a.05.05,0,0,0,0,0s0-.09,0-.09-.05.06,0,.08h0a0,0,0,0,0-.06,0s-.06.07,0,.09.39.21.59.31S85.46,109.85,85.4,109.83Z"/><path class="cls-13" d="M97.52,123.11c-.39-1.48-.75-3-1.11-4.46a8.3,8.3,0,0,1-.54-2L95.2,114s0,0,0,0c-.1-.4-.19-.8-.27-1.21l-.12-.49h0c-.17-.76-.33-1.53-.49-2.3a16.13,16.13,0,0,1-.65-3.22c-.61-2.62-1.21-5.25-1.81-7.87l0,0-.38,0-.59.11c-5.36,1.12-10.69,2.37-16,3.59a.22.22,0,0,0-.15.11.21.21,0,0,0-.11.21,1.5,1.5,0,0,0,0,.22.29.29,0,0,1,.07.17c.12.8.28,1.59.45,2.37a34.46,34.46,0,0,1,1.49,6.79q.67,3.07,1.38,6.16s0,0,0,0a1.05,1.05,0,0,1,0,.31.24.24,0,0,1,0,.08,8.2,8.2,0,0,1,.1.85l.06.27c.16-.1.32-.21.48-.3l-.12-.55h0a3.59,3.59,0,0,1-.11-1.18c-.75-3.27-1.47-6.55-2.19-9.83,0-.22-.07-.43-.11-.64s-.16-.67-.24-1-.13-.58-.19-.87a.2.2,0,0,0-.07-.12,16.14,16.14,0,0,1-.5-2.6c5.43-1.23,10.86-2.51,16.32-3.65l1.92,8.36v0l.15.82a2.66,2.66,0,0,0,.1.49c.23,1.22.49,2.44.77,3.65a.29.29,0,0,0,0,.16l1.32,5.22c.29,1.66.91,3.24,1.21,4.9a.2.2,0,0,0-.11,0c-.75.17-1.5.37-2.25.56a2,2,0,0,1,.21.41c.65-.16,1.3-.3,2-.41l.24-.05,0,0v0l.5-.16h0A.21.21,0,0,0,97.52,123.11Z"/></g></svg>