<svg id="Layer_1" data-name="Layer 1" xmlns="http://www.w3.org/2000/svg" viewBox="0 0 100 80"><defs><style>.cls-1{fill:#e6e6e6;}.cls-2{fill:#ccc;}.cls-3{fill:#999;}.cls-4{fill:#92d2f3;}.cls-5{fill:#666;}.cls-6{fill:#fff;}</style></defs><title>Artboard 2</title><path class="cls-1" d="M91.61,24a5.08,5.08,0,0,0-3.16-1.24l-4.38-.73a31.3,31.3,0,0,0-4.18-.56,27,27,0,0,0-8.25,1.4l-.42.13,2.1-4.4a1.52,1.52,0,0,0,.29-.41,1.46,1.46,0,0,0,0-1.39.74.74,0,0,0-.66-.37l-1.76.19a2.68,2.68,0,0,0-1.62.47.61.61,0,0,0,.32,1.12,3.78,3.78,0,0,1,.67.13q-3.11,3.18-6.1,6.44L62.9,26.05c-2.87.88-5.7,1.84-8.52,2.87-1,.35-2,.72-2.92,1.09-2,.5-4,1.21-5.9,1.86l-6,2-1,.33-.54.18-.52.17h0l-.25.08a14.44,14.44,0,0,1-1.89.63l-.79.17-1.35.5a8.74,8.74,0,0,1-1.72.59.11.11,0,0,1-.12-.09l-.22.08a12.33,12.33,0,0,1,.56-3.12c.15-.47-.48-1-.9-.67l-1.15.94a1.34,1.34,0,0,0-.41.15A3.48,3.48,0,0,0,28.07,35c-1.36,1.22-2.67,2.51-3.91,3.86a75.54,75.54,0,0,1-9.23-5.34,11.43,11.43,0,0,0-2-1.33,2.4,2.4,0,0,0-2.15.15,38.72,38.72,0,0,0-4.85,3,.58.58,0,0,0-.24.66.55.55,0,0,0,.19.85c1.64.83,3.26,1.71,4.84,2.64a22.29,22.29,0,0,0,3.2,2c.86.56,1.7,1.13,2.54,1.71.56.39,1.11.79,1.66,1.19a2.9,2.9,0,0,0,.54.31c-.52.57-1,1.16-1.5,1.76s-1.14,1.4-1.73,2.08a6.29,6.29,0,0,1-2.09,1.82.65.65,0,0,0-.36.83.54.54,0,0,0,.58.59,6.12,6.12,0,0,0,2.9-1.12c.94-.61,1.87-1.23,2.82-1.81s2-1.14,3-1.67a7.61,7.61,0,0,0,2.75,1,23.37,23.37,0,0,0,5.15.34,61.21,61.21,0,0,0,10.5-1.66L44.11,46l-5.93,5.85c-2.66,2.63-5.7,5.66-9.65,5.91a.58.58,0,0,0-.39.16.62.62,0,0,0,.16,1.2,52.71,52.71,0,0,0,7.43-.3A18.63,18.63,0,0,0,42,57.42a6.65,6.65,0,0,1,.58-.33h0l.07,0,.56-.38a21,21,0,0,0,2.51,0,11.78,11.78,0,0,0,4-.7,1.86,1.86,0,0,0,1-2.72c-.58-.87-1.55-1-2.42-1.36.88-.81,1.78-1.61,2.69-2.39a13.33,13.33,0,0,0,1.93.22,14.24,14.24,0,0,0,5.19-.66A5,5,0,0,0,60.24,48a2.57,2.57,0,0,0,.52-2,2.35,2.35,0,0,0-.33-1.23l.11,0c-.19-.45-.39-.89-.58-1.34v-.06a.1.1,0,0,1,.07-.17h.2s0-.15,0-.16a69.88,69.88,0,0,0,10.85-2.93l1-.39.33-.12.84-.37,6.91-3,1-.49a.09.09,0,0,1,.11,0l.77-.33c2.57-1.11,5.37-2.07,7.58-3.83,1.42-1.15,2.86-3.2,2.55-5.06A2.81,2.81,0,0,0,91.61,24Z"/><path class="cls-2" d="M62.58,37.16a2.2,2.2,0,0,0-2.07-.65c-1,.13-2,.35-3,.53a22.77,22.77,0,0,0-5.84,1.42,6.33,6.33,0,0,0-1,.56,10.05,10.05,0,0,0-3.42,3.07l-3.49,4a.74.74,0,0,0-.19.58C40.76,49.3,38,52,35.06,54.49a43.24,43.24,0,0,1-3.81,2.79,7.48,7.48,0,0,0-2.86.56.79.79,0,0,0-.17.14.67.67,0,0,0-.46,1,.64.64,0,0,0,.56.7,12,12,0,0,0,4-.1l4.58-.69a13.48,13.48,0,0,0,4-1l.13.06.7-.32a6.66,6.66,0,0,1,.85-.52h0l9.44-8.49L57.12,44a63.3,63.3,0,0,0,4.72-4.55.7.7,0,0,0,.19-.42C62.61,38.54,63.17,37.94,62.58,37.16Z"/><path class="cls-2" d="M69.48,17.15a.66.66,0,0,0,.52,1.2,1,1,0,0,1,.3,0c-.2.27-.38.56-.56.85a15.8,15.8,0,0,0-1.85,2.06,41,41,0,0,0-4.2,3.93.34.34,0,0,0,.33.55c1.87-.55,3.74-1.15,5.58-1.79l.33-.11c.11.13.85-.34,1-.55a.29.29,0,0,0,.34-.16,13.86,13.86,0,0,0,1-2.15l.24-.52a.3.3,0,0,0,0-.26c.09-.14.18-.28.26-.42.24-.4.47-.8.7-1.21A3.76,3.76,0,0,0,74,17.22C74.25,14.94,70.29,16.65,69.48,17.15Z"/><path class="cls-2" d="M31,32.45c-.4,0-.56.37-.76.66s-.59.51-.88.76l-1.75,1.51-3.26,2.81-.22.08c-.4.14-.22.77.18.63l.11,0a.39.39,0,0,0,.26-.09h0l6.12-2.11a.3.3,0,0,0,.19-.17.28.28,0,0,0,.22-.24l.3-1.84a3.75,3.75,0,0,0,.16-1.52A.62.62,0,0,0,31,32.45Z"/><path class="cls-2" d="M24.33,42.41l-2.4.51a4.42,4.42,0,0,1-1,.16c-.25,0-1,0-1,0-.34,0-.63.53-.67.59a5.18,5.18,0,0,1-1,1.42c-.55.55-1.36,1.63-1.88,2.21-.68.75-1.34,1.52-2,2.3l-.26.13a2,2,0,0,0-.28.19l-.13,0a1.39,1.39,0,0,0-.35.16,1,1,0,0,0-.49.62.65.65,0,0,0,0,.28.34.34,0,0,0,0,.1.54.54,0,0,0,.39.49.24.24,0,0,0,.17.21c.57.24,1.11-.13,1.62-.39a11.58,11.58,0,0,0,1.34-.84,33,33,0,0,0,3.74-2c.4-.26.8-.52,1.2-.8a4.94,4.94,0,0,0,.94-.71.79.79,0,0,0,.14-.23.25.25,0,0,0,.1-.08,14,14,0,0,0,1.78-2.9.34.34,0,0,0,.16-.39q.13-.3.24-.6C24.84,42.55,24.55,42.36,24.33,42.41Z"/><path class="cls-3" d="M50.33,52.85a2.13,2.13,0,0,0-.26-.26,1.52,1.52,0,0,0-.59-.28,2.38,2.38,0,0,0-.69-.25h0l-.11,0a.08.08,0,0,1,0,0,.18.18,0,0,0-.3,0,.25.25,0,0,0-.08,0l-.17.16a1.62,1.62,0,0,0-.28.2c-.53.42-1,.89-1.53,1.34-1,.91-2,1.84-3,2.77-.15.14.06.35.22.25a3.77,3.77,0,0,0,.75,0c.37,0,.73,0,1.1,0l.57-.07a4.94,4.94,0,0,0,1.43-.08c.3-.05.61-.11.91-.19a3.7,3.7,0,0,0,1.17-.32,2.11,2.11,0,0,0,1.2-.82A1.59,1.59,0,0,0,50.33,52.85Z"/><path class="cls-3" d="M92.05,26.05a56.51,56.51,0,0,1-11,5.67q-5.82,2.46-11.83,4.46c-2.15.72-4.32,1.39-6.49,2a.34.34,0,0,0-.43.13h0a.21.21,0,0,0-.06.1A25.14,25.14,0,0,1,60,41.36a.31.31,0,0,0-.23.09c-.41.38-.81.78-1.2,1.18v0a.26.26,0,0,0-.19.26h-.07a.14.14,0,0,0-.15.15h0c-1.84,1.57-3.74,3.08-5.43,4.82h0a17.61,17.61,0,0,0-1.57,1.43c-.16.13,0,.41.17.28l0,0a1.69,1.69,0,0,0,1,.18h0a5.82,5.82,0,0,0,2.24,0l.52-.07a6.17,6.17,0,0,0,2.41-.44L58,49.1a3.72,3.72,0,0,0,1.85-.67,1.88,1.88,0,0,0,.37-.43,1.39,1.39,0,0,0,.39-.51,2.67,2.67,0,0,0,.14-1.29,1.62,1.62,0,0,0,0-.22,2.54,2.54,0,0,0-.07-.47c0-.11,0-.21,0-.32h0a1.84,1.84,0,0,0,0-.25L60,43.38v-.06a.1.1,0,0,1,.07-.17h.2s0-.15,0-.16a69.88,69.88,0,0,0,10.85-2.93l1-.39,1.23-.45.42-.25.48-.1q3.54-1.44,6.93-3.17a.1.1,0,0,1,.13,0c.66-.27,1.33-.56,2-.85a.28.28,0,0,0,.2,0,29.29,29.29,0,0,0,5.28-2.57,8.45,8.45,0,0,0,1.93-1.7,6.61,6.61,0,0,0,.6-.89,3.41,3.41,0,0,0,.82-1.77v-.06a3.68,3.68,0,0,0,.18-1c0-.08,0-.16,0-.24a.36.36,0,0,0-.12-.32C92.37,26.18,92.21,25.93,92.05,26.05Z"/><path class="cls-3" d="M48.47,40.36l-.54.15a.3.3,0,0,0-.13,0,.24.24,0,0,0-.11.06q-6.9,1.88-13.84,3.59l-.93.23q-5.22,1.27-10.45,2.45c-.21,0-.12.37.09.32l.11,0a.27.27,0,0,0,.17.26,15.43,15.43,0,0,0,5.13,1,.27.27,0,0,0,.18,0,10.4,10.4,0,0,0,1.12.15,9.49,9.49,0,0,0,2.06-.16l.83-.12a34,34,0,0,0,6.54-1,18.8,18.8,0,0,0,3-.68L43,46.27a1.18,1.18,0,0,0,.63-.24.28.28,0,0,0,.27-.1c.69-.83,1.39-1.65,2.09-2.47l1-1.15a5.31,5.31,0,0,1,1.17-1.15.3.3,0,0,0,.13-.4l.28-.08C48.76,40.63,48.67,40.31,48.47,40.36Z"/><path class="cls-4" d="M85.85,22.32,83.56,22c-.36,0-.54,0-.67.15l-.08.05a1.16,1.16,0,0,0-.29.37L80.91,24l-.92.86c-.24.22-.58.46-.63.82s.46,1.09.79,1.41a1.73,1.73,0,0,0,1.64.48c1.28-.32,2.26-1.68,3-2.71.21-.31.41-.63.6-.95.07-.11.16-.23.24-.36s.33-.53.46-.78A.33.33,0,0,0,85.85,22.32Z"/><path class="cls-5" d="M51.15,34.67a.83.83,0,0,0-.87-.18.59.59,0,0,0-.29.67.74.74,0,0,0,0,.14.63.63,0,0,0,.18.54.69.69,0,0,0,.69.18A.8.8,0,0,0,51.15,34.67Z"/><path class="cls-5" d="M53.46,33.92a.28.28,0,0,0-.08-.15.34.34,0,0,0-.47,0,.79.79,0,0,0-.14.94c.15.28.57.69.91.62a.39.39,0,0,0,.3-.2.62.62,0,0,0,.23-.65A.78.78,0,0,0,53.46,33.92Z"/><path class="cls-5" d="M56.43,33.49a.35.35,0,0,0,0-.3.7.7,0,0,0-1.16,0,1,1,0,0,0,.12,1.32.7.7,0,0,0,1.13-.29.88.88,0,0,0,0-.27h0a.65.65,0,0,0,0-.21A.82.82,0,0,0,56.43,33.49Z"/><path class="cls-5" d="M58.89,32.83a1,1,0,0,0-.23-.43.34.34,0,0,0-.32-.35.71.71,0,0,0-.71.76,1,1,0,0,0,.58.94.57.57,0,0,0,.75-.61A.82.82,0,0,0,58.89,32.83Z"/><path class="cls-5" d="M61.54,31.71a.33.33,0,0,0-.24-.33.86.86,0,0,0-1,1.09.76.76,0,0,0,.48.49,1.35,1.35,0,0,0,.38.33.35.35,0,0,0,.4-.06A1,1,0,0,0,61.54,31.71Z"/><path class="cls-5" d="M64.06,31a.77.77,0,0,0-.59-.24A.46.46,0,0,0,63,31a.36.36,0,0,0-.09.23.9.9,0,0,0,0,.28.92.92,0,0,0,.21.47l0,.05a1,1,0,0,0,.32.34.56.56,0,0,0,.84-.33A1.27,1.27,0,0,0,64.06,31Z"/><path class="cls-5" d="M67,30.88a.49.49,0,0,0,0-.12h0a.5.5,0,0,0,0-.12,1,1,0,0,0-.19-.44.9.9,0,0,0-.44-.44.49.49,0,0,0-.18-.13.78.78,0,0,0-.87.29.77.77,0,0,0,.28,1.18,1.07,1.07,0,0,0,.44.35.92.92,0,0,0,.25.09.62.62,0,0,0,.43-.08.32.32,0,0,0,.31-.33A.49.49,0,0,0,67,31s0-.07,0-.1Z"/><path class="cls-5" d="M48.38,35.82l-.08-.08a.5.5,0,0,0-.42-.47.53.53,0,0,0-.51.14.54.54,0,0,0-.27.12.81.81,0,0,0,0,1.21.38.38,0,0,0,.18.21.77.77,0,0,0,.74.22.29.29,0,0,0,.23-.33.46.46,0,0,0,.28-.22A.72.72,0,0,0,48.38,35.82Z"/><path class="cls-5" d="M45.2,37.08,45.13,37a1,1,0,0,0-.4-.53.65.65,0,0,0-.28-.09.38.38,0,0,0-.33,0,.87.87,0,0,0-.3,1,.93.93,0,0,0,.46.66.51.51,0,0,0,.28.08l.14,0h0A.72.72,0,0,0,45.2,37.08Z"/><path class="cls-5" d="M41.71,37.53a.61.61,0,0,0-.84,0,.24.24,0,0,0-.06.11.28.28,0,0,0-.08.15,1,1,0,0,0,0,.51l0,.13a.76.76,0,0,0,.37.47.59.59,0,0,0,.58.09C42.47,38.79,42.21,37.86,41.71,37.53Z"/><path class="cls-5" d="M39.41,38.52c-.21-.27-.6-.49-.86-.17l0,.06,0,0,0,0a.49.49,0,0,0-.14.11.52.52,0,0,0,.06.76.89.89,0,0,0,.53.57.6.6,0,0,0,.72-.49A1.13,1.13,0,0,0,39.41,38.52Z"/><path class="cls-5" d="M37.1,39.6,37,39.47a.65.65,0,0,0-.25-.27.6.6,0,0,0-.39-.05h0c-.41-.09-.62.32-.53.67a1.26,1.26,0,0,0,.29.53,1.13,1.13,0,0,0,.1.13.56.56,0,0,0,.84,0A.69.69,0,0,0,37.1,39.6Z"/><path class="cls-5" d="M34.55,39.85l-.13,0-.05,0a.53.53,0,0,0-.63.2.35.35,0,0,0-.07.12,1,1,0,0,0,.39,1.18l.15.05a.41.41,0,0,0,.54.07.5.5,0,0,0,.22-.35,1,1,0,0,0,.09-.18A.81.81,0,0,0,34.55,39.85Z"/><path class="cls-6" d="M21.64,38.93a.15.15,0,0,0-.08-.16c-1.42-.78-2.81-1.61-4.16-2.51S15,34.37,13.66,33.59a3.43,3.43,0,0,0-1.61-.54,4.75,4.75,0,0,0-2,.53A15.14,15.14,0,0,0,6.32,35.9c-.16.13.08.36.24.22a14.76,14.76,0,0,1,3.88-2.34l.4-.15h0a4.49,4.49,0,0,1,.83.1.15.15,0,0,0,.09,0A8.91,8.91,0,0,1,14.42,35l0,0a.25.25,0,0,0,0,.08,33.18,33.18,0,0,0,3.38,2.77q.87.63,1.8,1.2a4.7,4.7,0,0,0,1.08.53.33.33,0,0,0,.1.06.41.41,0,0,0,.37,0h.15a.17.17,0,0,0,.14-.25l0-.06.08-.06a.17.17,0,0,0,0-.15v0A.15.15,0,0,0,21.64,38.93Zm-8.22-5.06-.06,0-.27-.16.45.24Z"/><path class="cls-6" d="M79.64,22.56a11.93,11.93,0,0,0-5.81.41c-.75.2-1.5.44-2.24.7-1.13.39-2.25.82-3.37,1.26-.88.32-1.75.66-2.62,1l-2.65,1c-.2.07-.11.39.09.32l.14-.06a.09.09,0,0,0,.09,0h.09c4-.92,7.83-3,11.88-3.91A21.21,21.21,0,0,1,79.31,23a.14.14,0,0,0,.15-.17l.09,0C79.76,22.92,79.84,22.6,79.64,22.56ZM68.11,25.35l-.77.29Z"/><path class="cls-6" d="M60.22,37.74l-.59.67a.17.17,0,0,0-.22,0,3.92,3.92,0,0,0-.78,1h-.07l-.92.32h-.09c-2.77.76-5.57,1.41-8.38,2l-.78.08a.12.12,0,0,0-.1,0l0,0h0c-.21,0-.21.35,0,.33h0a.16.16,0,0,0,.17.05h0l.8-.16c1.52-.17,3-.34,4.57-.54l2.76-.36.74-.11q-2,2.22-4.07,4.39c-.47.45-.93.92-1.36,1.41q-1.31,1.35-2.64,2.67a.14.14,0,0,0-.09,0,.14.14,0,0,0-.12-.17l-4.29-.53c-.18,0-.27.23-.13.31s0,0,0,.06a.4.4,0,0,0,.11.19.14.14,0,0,0,.1.1A7.78,7.78,0,0,0,47,50h0l.67.14a3,3,0,0,0,.61.32l-.07.07c-1.39,1.07-2.66,2.27-4,3.42a35.09,35.09,0,0,1-3.06,2.4l-.9.59a11.32,11.32,0,0,1-2.46.28c-1,.06-2.08.06-3.12,0a.19.19,0,0,0-.19-.09h0a.17.17,0,0,0-.11.12s0,0,0,0a.17.17,0,0,0,.11.24,2.28,2.28,0,0,0,.88.22,13.51,13.51,0,0,0,2.37.32c.21,0,.42,0,.63,0a2.9,2.9,0,0,0,.58.05.18.18,0,0,0,.16,0h0L39.4,58a.17.17,0,0,0,.21,0L40,57.9a.16.16,0,0,0,.23.07,81.09,81.09,0,0,0,8.89-7.44l2.63-2.48a.17.17,0,0,0,.1-.1l1.59-1.52c.76-.69,1.49-1.42,2.2-2.17s1.41-1.41,2.1-2.13a30.33,30.33,0,0,0,2.17-2.36,2.39,2.39,0,0,0,.64-2A.16.16,0,0,0,60.22,37.74ZM36.36,57.6l-.08,0-.14,0h.21S36.36,57.58,36.36,57.6Zm14-8.71L49.19,50h0l1.17-1.17A.15.15,0,0,0,50.33,48.89Z"/><path class="cls-6" d="M73,16.79c-.3-.45-.87-.2-1.22,0a.16.16,0,0,0,.17.28.72.72,0,0,1,.38.21.19.19,0,0,0,.07.22,2.18,2.18,0,0,1-.09.46s0,0,0,.05c-.08.23-.18.46-.27.69l-.24.65-.31.72-.93,2.33c-.06.13-.12.25-.19.37a.16.16,0,0,0,.27.18.13.13,0,0,0,.09-.07,33.94,33.94,0,0,0,2-4.54C72.88,18,73.33,17.21,73,16.79Z"/><path d="M72.05,28.15c-.21-.44-.39-1.22-.9-1.42s-1.06.23-1.46.45-1,.41-1,.89a.15.15,0,0,0-.09.19,13.25,13.25,0,0,0,.89,2c.25.45.53,1.15,1.1,1.25a4.28,4.28,0,0,0,1.9-.48c.35-.14.76-.24.62-.69A18.59,18.59,0,0,0,72.05,28.15Zm.58,2.06c.11.58-.63.68-1.06.81s-1.1.34-1.49-.29a12.17,12.17,0,0,1-1.18-2.47.12.12,0,0,0,.07-.14c0-.32,1-.69,1.18-.82a2.3,2.3,0,0,1,.57-.27c.45-.06.55.23.68.5.22.45.42.93.64,1.39A7.13,7.13,0,0,1,72.63,30.21Z"/><path d="M92.35,25.83a3.35,3.35,0,0,0-1.81-2.69.14.14,0,0,0-.14,0,49.55,49.55,0,0,0-9.05-1.74h-.07a20.39,20.39,0,0,0-9.21,1.26l-.6.22c.76-1.52,1.59-3,2.27-4.58a2.94,2.94,0,0,0,.39-1.82.89.89,0,0,0-1.06-.64,15.43,15.43,0,0,0-2.41.69,2.57,2.57,0,0,0-1.55.94c-.19.32-.31.84,0,1.1a.84.84,0,0,0,.58.16l-6.43,6.66a.17.17,0,0,0,0,.23c-.24.1-.48.2-.72.32a18.15,18.15,0,0,0-4.68,1.51,53.75,53.75,0,0,1-5.23,1.94c-3.21,1-6.48,1.83-9.66,2.93a.12.12,0,0,0-.14,0c-3.71,1.44-7.51,2.71-11.31,3.93.09-.6.17-1.2.25-1.79a4.88,4.88,0,0,0,.11-1.7c-.28-1.08-1.41-.18-1.88.2-1,.83-1.86,1.82-2.79,2.72S25.1,37.56,24,38.46c-1.82-.9-3.64-1.81-5.39-2.87S15.18,33,13.29,32.05a.19.19,0,0,0-.15,0,2.54,2.54,0,0,0-2.07.12C10,32.67,9,33.29,7.92,33.85A6.15,6.15,0,0,0,5.7,35.3c-.25.34-.41,1,0,1.23a.15.15,0,0,0,.08.12c2,1.36,4,2.69,6.11,4,1,.63,2.05,1.25,3.08,1.86l1.55.9.74.42c.23.13.85.36.93.65a.14.14,0,0,0,.19.1c-.58.8-1.13,1.62-1.75,2.4A15,15,0,0,1,13,50.18a.17.17,0,0,0-.07.15l0,0A1,1,0,0,0,13,51.61a1.43,1.43,0,0,0,1.55.19,17.49,17.49,0,0,0,2.21-1.1c.81-.44,1.62-.9,2.42-1.37a14.12,14.12,0,0,0,3.13-2.26l.05,0a.14.14,0,0,0,.06.15c1.22.94,2.9,1,4.38,1.17a32.77,32.77,0,0,0,5.86,0,73.11,73.11,0,0,0,11-2.06q-2.86,2.72-5.72,5.44c-1.95,1.85-3.88,3.91-6.41,5l0,0a16.23,16.23,0,0,1-2.5.59,2.11,2.11,0,0,0-1.49.86.14.14,0,0,0,0,.2c-.16.7,0,1.31.81,1.42a13.59,13.59,0,0,0,3.82-.13c2.62-.35,5.23-.83,7.84-1.26a.14.14,0,0,0,.11-.08,11.31,11.31,0,0,0,3-1.49c2.5.09,5.29.09,7.52-1.21a1.49,1.49,0,0,0,.74-1.94,4.65,4.65,0,0,0-2.48-2l.27-.25L51,49.76l.07,0a13.41,13.41,0,0,0,8.62-1c2.14-1.13,1.35-3.82.16-5.56,4.07-.85,8-2,12-3.27A.14.14,0,0,0,72,40,73.35,73.35,0,0,0,81.53,36l4.84-2.15a19.79,19.79,0,0,0,3.8-2l.06,0v0c.13-.09.25-.19.37-.29a.16.16,0,0,0,0-.18,8.26,8.26,0,0,0,1.74-5.15l0,0A.17.17,0,0,0,92.35,25.83Zm-9.18-3.89c1,.13,1.91.28,2.85.47a.16.16,0,0,0,.11.22s-.81,1.53-.93,1.7A9.89,9.89,0,0,1,84,25.77c-.81.79-2.24,2.2-3.46,1.52a2.34,2.34,0,0,1-1.07-1.36c-.08-.6.8-1,1.22-1.39a13.38,13.38,0,0,0,2.5-2.6ZM70.4,18.5l.09-.06c.17-.13,0-.41-.16-.29a.14.14,0,0,0-.1.05l0,0c-.33.18-1,.37-.93-.3a1,1,0,0,1,.34-.56,3.87,3.87,0,0,1,1.55-.64l1.43-.43c.41-.12,1-.39,1.22.27a1.3,1.3,0,0,1-.06.78,18.77,18.77,0,0,1-1.25,2.74l-1.38,2.75a.17.17,0,0,0,0,.17c-1.28.46-2.57.89-3.89,1.27s-2.39.71-3.55,1.17Zm-41.55,16c.36-.36.73-.73,1.12-1.07s1.37-1.36,1.64-.4a2,2,0,0,1-.06.73c0,.35-.08.69-.13,1-.07.52-.14,1-.22,1.56l-6.66,2.09A55.27,55.27,0,0,0,28.85,34.5ZM20.21,48.32c-1.09.69-2.22,1.33-3.35,2-.6.32-1.2.64-1.81.94a2.76,2.76,0,0,1-1.2.4.7.7,0,0,1-.66-1.07.16.16,0,0,0,0-.09,15.16,15.16,0,0,0,3.47-3.12c1.06-1.3,1.93-2.75,3-4a.16.16,0,0,0,0-.07,16.71,16.71,0,0,0,2.12-.34c.82-.14,1.65-.24,2.48-.31a16.8,16.8,0,0,1-1.39,3A8.32,8.32,0,0,1,20.21,48.32Zm12.86-.27a32.11,32.11,0,0,1-5.37.1c-.91-.06-1.83-.15-2.74-.29A5,5,0,0,1,22.65,47a60.62,60.62,0,0,1,6.24-1.58c2.24-.51,4.48-1,6.72-1.58q6.55-1.62,13-3.49c-.49.5-.95,1-1.39,1.57a46.15,46.15,0,0,1-3.47,4A75.43,75.43,0,0,1,33.07,48.05Zm18,5.74c.63,1.24-.84,1.83-1.76,2.16a15.73,15.73,0,0,1-5.71.65c.38-.28.74-.58,1.1-.9,1.35-1.21,2.66-2.47,4-3.71h0A4.67,4.67,0,0,1,51,53.79Zm-5.65.79a13.56,13.56,0,0,1-5.72,3.6l0,0-6.12,1a30.82,30.82,0,0,1-3.17.39q-.7,0-1.41,0c-.32,0-.87,0-1.08-.3s0-.68.05-1a.22.22,0,0,0,0-.08,2.79,2.79,0,0,1,1.77-.61,11.13,11.13,0,0,0,2-.53s.06,0,.07-.05c2.41-1,4.26-2.95,6.14-4.73l6.4-6.09a.16.16,0,0,0,.05-.1.23.23,0,0,0,0-.16c1.11-1.11,2.07-2.38,3.07-3.6a13.18,13.18,0,0,1,3.87-3.61,14.32,14.32,0,0,1,3-.88c1-.24,1.95-.47,2.93-.67s5.86-1.5,5.42.58a.15.15,0,0,0,.07.17l-.06.12a.14.14,0,0,0-.1.16,18.69,18.69,0,0,1-3.38,3.56l-4.58,4.28ZM60.67,46a2.79,2.79,0,0,1-.26,1.73,3.06,3.06,0,0,1-1.68,1.12,13.61,13.61,0,0,1-7.42.66l7.42-6.94.11-.1s0,0,0,0A6.06,6.06,0,0,1,60.67,46ZM90,31.55a19.14,19.14,0,0,1-4,2.12l-4.64,2.07a84.66,84.66,0,0,1-8.73,3.71.14.14,0,0,0-.17-.05,127.43,127.43,0,0,1-12.73,3.49s0,0-.06,0a6.46,6.46,0,0,0-.57-.66l0,0a19,19,0,0,0,3.67-3.87,67.48,67.48,0,0,0,11.8-3.84c3.76-1.49,7.52-3,11.16-4.8,1.94-.94,3.85-2,5.7-3.08a.14.14,0,0,0,.11,0l.56-.3A7.92,7.92,0,0,1,90,31.55ZM92,26l-.26.16a.15.15,0,0,0-.16,0,84.84,84.84,0,0,1-10.93,5.53c-3.71,1.59-7.48,3.13-11.28,4.51A46.58,46.58,0,0,1,63,38l.08-.14a.18.18,0,0,0-.16-.25c0-1.05-1.27-1.38-2.16-1.3a36.13,36.13,0,0,0-5.27.94c-.88.2-1.75.42-2.61.64a7,7,0,0,0-2.29.89,9.89,9.89,0,0,0-1.6,1.3.15.15,0,0,0-.18-.09q-6.59,1.91-13.24,3.55-3.3.81-6.62,1.56a63.26,63.26,0,0,0-6.24,1.57l.17-.22a15.65,15.65,0,0,0,1.93-4,.17.17,0,0,0-.16-.21c-.8.06-1.59.15-2.39.27a18,18,0,0,1-2.53.41.14.14,0,0,0-.15.13l0,0c-.37.42-.7.86-1,1.3v0c-.11-.4-.57-.54-.91-.73l-1.74-1q-1.7-1-3.36-2c-2.15-1.33-4.28-2.71-6.38-4.12A.16.16,0,0,0,6,36.3c-.52-.12.06-.87.22-1A3.52,3.52,0,0,1,7,34.72l1.93-1,1.86-1a2.44,2.44,0,0,1,2.39-.25.12.12,0,0,0,.13,0c1.81,1,3.38,2.38,5.14,3.44s3.81,2.09,5.75,3a.18.18,0,0,0,.25-.12h.06l6.74-2.12a.15.15,0,0,0,.24-.08c3.51-1.12,7-2.28,10.45-3.59a.11.11,0,0,0,.11,0c3.44-1.28,7-2.14,10.5-3.23a53.26,53.26,0,0,0,5-1.84,19.71,19.71,0,0,1,4.85-1.65.19.19,0,0,0,.15,0l.08,0,.33,0a.16.16,0,0,0,.15-.19,35.85,35.85,0,0,1,4.38-1.49c1.58-.45,3.1-1,4.64-1.57a20.1,20.1,0,0,1,9.47-1.2h.07l1.09.13A12.13,12.13,0,0,1,81,23.82c-.32.29-.65.56-1,.82a5.27,5.27,0,0,0-.82.66c-.3.39,0,.87.16,1.24a2.58,2.58,0,0,0,1.27,1.17c1.3.47,2.66-.82,3.51-1.65a10.77,10.77,0,0,0,1.44-1.72c.32-.47.89-1.25.8-1.86,1.38.28,2.75.62,4.1,1h0A3.09,3.09,0,0,1,92,26Z"/><path d="M32.65,40.89c-.09-.28-.15-.57-.25-.85s-.21-.5-.53-.54a3.08,3.08,0,0,0-1.59.4.51.51,0,0,0-.31.62l0,0A4.94,4.94,0,0,0,30.73,42c.2.27.45.61.82.65a2.19,2.19,0,0,0,1.1-.34.64.64,0,0,0,.29-.74C32.88,41.35,32.73,41.13,32.65,40.89ZM32,42.22c-.38.11-.59.12-.85-.18a4.28,4.28,0,0,1-.88-1.64c0-.24.65-.41.8-.45.4-.12.74-.27,1,.18a3.7,3.7,0,0,1,.21.76c.05.16.15.32.19.48C32.61,41.88,32.42,42.11,32,42.22Z"/><path d="M34.7,40a.16.16,0,0,0-.09-.24.9.9,0,0,0-1.09.58,1,1,0,0,0,.61,1.21.75.75,0,0,0,1-.41A1,1,0,0,0,34.7,40Zm.15.94a.42.42,0,0,1-.64.28A.6.6,0,0,1,34.36,40a.16.16,0,0,0,.07.15A.77.77,0,0,1,34.85,40.9Z"/><path d="M36.79,39.3l0,0h0l-.17-.16a.15.15,0,0,0-.21,0,.62.62,0,0,0-.62.29.79.79,0,0,0,.42,1.1c.34.16.91.34,1.07-.13S37.07,39.59,36.79,39.3Zm.15.86c0,.24-.28.14-.4.1a.73.73,0,0,1-.56-.43.33.33,0,0,1,.52-.35,3.47,3.47,0,0,1,.3.37C36.85,39.92,37,40.07,36.94,40.16Z"/><path d="M39.41,38.46a.18.18,0,0,0,0-.07.65.65,0,0,0-1-.2,1,1,0,0,0-.09,1.34c.26.34.8.74,1.21.39S39.58,38.9,39.41,38.46Zm0,.8a.47.47,0,0,1-.1.4c-.19.18-.47-.06-.6-.18a.76.76,0,0,1-.26-.84c.14-.29.51-.38.68,0l0,0A2.59,2.59,0,0,1,39.38,39.26Z"/><path d="M41.55,37.33a.18.18,0,0,0-.27.09.63.63,0,0,0-.51.27A1,1,0,0,0,41.12,39a.68.68,0,0,0,1.06-.33C42.38,38.14,42,37.67,41.55,37.33Zm.09,1.49c-.29.1-.58-.24-.65-.5s.23-.87.54-.47a.15.15,0,0,0,.16.06,1.53,1.53,0,0,1,.14.21C41.94,38.35,41.94,38.73,41.64,38.82Z"/><path d="M45.18,36.78A.79.79,0,0,0,44,36.37a1.16,1.16,0,0,0-.05,1.53.84.84,0,0,0,1.27.11.87.87,0,0,0,0-1.08A.13.13,0,0,0,45.18,36.78Zm-.18.84c-.09.4-.57.36-.79.12a1,1,0,0,1-.22-.83.43.43,0,0,1,.59-.33.17.17,0,0,0,0,.2C44.81,37,45.07,37.29,45,37.62Z"/><path d="M48.27,35.31a1.1,1.1,0,0,0-1.32.14A.93.93,0,0,0,47,36.67a1,1,0,0,0,1.24.24c.43-.34.22-.92,0-1.3h0A.16.16,0,0,0,48.27,35.31Zm-.17,1.31c-.24.23-.65,0-.83-.19a.59.59,0,0,1-.09-.73.69.69,0,0,1,.85-.13.14.14,0,0,0-.05.21C48.13,36,48.34,36.37,48.1,36.62Z"/><path d="M50.29,34.36a.17.17,0,0,0-.15.11,1.31,1.31,0,0,0-.27.89,1,1,0,0,0,1.08.9.75.75,0,0,0,.62-1A1.41,1.41,0,0,0,50.29,34.36Zm.87,1.46c-.25.25-.65.07-.83-.18a.79.79,0,0,1-.15-.42,3.24,3.24,0,0,1,.13-.48.14.14,0,0,0,.19,0C51,34.85,51.58,35.4,51.16,35.82Z"/><path d="M53.81,33.76a.79.79,0,0,0-1.09.21.15.15,0,0,0-.14.16s0,0,0,.06l0,.07a.18.18,0,0,0,.08.23,1.5,1.5,0,0,0,.77,1A.77.77,0,0,0,54.49,35,1.15,1.15,0,0,0,53.81,33.76ZM54.16,35c-.15.41-.57.36-.84.11a1.36,1.36,0,0,1-.4-.85.53.53,0,0,1,.2-.24.58.58,0,0,1,.57.07A.8.8,0,0,1,54.16,35Z"/><path d="M55.31,33h0l-.08.05a.15.15,0,0,0-.07.16,1.22,1.22,0,0,0,.24,1.29.73.73,0,0,0,1.2.1C57.19,33.78,56.24,32.54,55.31,33Zm1.11,1.18c-.05.19-.16.41-.42.37a.6.6,0,0,1-.38-.3.79.79,0,0,1-.13-1C56,33.06,56.56,33.64,56.42,34.21Z"/><path d="M58.12,32a.13.13,0,0,0-.15,0,1.1,1.1,0,0,0-.24,1.33.87.87,0,0,0,1.14.45c.42-.26.32-.83.21-1.22S58.58,31.86,58.12,32Zm.69.89c0,.25.1.66-.26.68s-.55-.29-.61-.56a.75.75,0,0,1,.16-.63h0c.29-.19.5-.14.62.2A1.77,1.77,0,0,1,58.81,32.93Z"/><path d="M61.39,31.74c.14-.1,0-.36-.13-.29s-.49,0-.72.1a.16.16,0,0,0-.17.11.78.78,0,0,0-.19.52,1.16,1.16,0,0,0,.87,1.13.6.6,0,0,0,.61-.17,1,1,0,0,0,.09-.72A1,1,0,0,0,61.39,31.74ZM61,33a.82.82,0,0,1-.49-.77.32.32,0,0,1,.1-.26,1.33,1.33,0,0,1,.53.06C61.51,32.18,61.6,33.22,61,33Z"/><path d="M63.91,31c.11-.12,0-.34-.22-.25s-.28-.1-.4-.11a.36.36,0,0,0-.24.07.81.81,0,0,0-.21.73,1.54,1.54,0,0,0,1,1.17c.45.09.68-.36.64-.75A1.31,1.31,0,0,0,63.91,31Zm.19,1.1c-.08.32-.4.13-.54,0s-.53-.64-.39-.92a.22.22,0,0,1,.11-.12h0a1.16,1.16,0,0,1,.78.73A.62.62,0,0,1,64.1,32.13Z"/><path d="M66.37,29.68a.18.18,0,0,0-.16-.22h-.16l-.1,0a.18.18,0,0,0-.25.12.86.86,0,0,0-.56.77,1.29,1.29,0,0,0,.93,1.26.68.68,0,0,0,1-.69A1.69,1.69,0,0,0,66.37,29.68Zm-.22,1.57a1,1,0,0,1-.68-.84.55.55,0,0,1,.51-.6,1.5,1.5,0,0,1,.53.53C66.71,30.68,66.86,31.46,66.15,31.25Z"/></svg>