<svg xmlns="http://www.w3.org/2000/svg" viewBox="0 0 162 168"><defs><style>.cls-1{fill:#92d2f3;}.cls-2{fill:#9eca73;}.cls-3{fill:#ceab89;}.cls-4{fill:#a67c52;}.cls-5{fill:red;}</style></defs><title>Artboard 3</title><g id="Layer_4" data-name="Layer 4"><path class="cls-1" d="M153.66,88.51c1.57-6.6.54-13.38-1.24-20.22-2.09-8.09-4.61-16.45-9.19-23.52a73.47,73.47,0,0,0-10.71-12.89c-3.43-4.54-7.54-8.15-12.74-10.13a59.33,59.33,0,0,0-10-4.94l-1.56-.61a65.7,65.7,0,0,0-13.53-4.27,61.87,61.87,0,0,0-36.31,3.45q-1.34.42-2.67.9a38.13,38.13,0,0,0-15.43,7.18A50.32,50.32,0,0,0,26.89,34.59a48.61,48.61,0,0,0-5.66,6.87,78.84,78.84,0,0,0-4.92,77.94c5.56,8,10.68,16.18,18.17,22.69,1.3,1.14,2.66,2.2,4,3.23a108.58,108.58,0,0,0,24.16,9.92c12.6,3.52,25.44,2,38.2.51q2.22-.85,4.39-1.81a57.71,57.71,0,0,0,15.53-7.22c9.77-6.44,19.64-15.12,25.42-25.64a32,32,0,0,0,5.52-10.57c2-6.82,2.19-14.55,1.94-21.59C153.67,88.78,153.66,88.65,153.66,88.51Z"/><path class="cls-2" d="M37.67,140.36A20.88,20.88,0,0,0,36.39,137a34.68,34.68,0,0,1-1.15-3.58,4.94,4.94,0,0,0-1.47-2.23l-.06,0a13.4,13.4,0,0,0,3.13-1.61,4,4,0,0,0,.7-2.52,10.28,10.28,0,0,0-.94-3.88,15.79,15.79,0,0,1-1.39-3.54c-.23-1.75.5-2.46.87-4.19.78-3.73-4.71-8.95-8.49-7.58-.18-.17-.36-.34-.56-.51a7.25,7.25,0,0,0-4.49-1.87,1.72,1.72,0,0,0-1.11.26,4.47,4.47,0,0,1-.31-.82,1.58,1.58,0,0,0-.51-.76,5.77,5.77,0,0,0-.77-2.6,10.4,10.4,0,0,0-3.06-2.77,4.34,4.34,0,0,0-1.38-.76h-.56c-.74-1.8-1.51-3.55-3.33-4.71A1.57,1.57,0,0,0,9,93.3a1.26,1.26,0,0,0-.9,1.37c.6,9.29,5,19.11,9.87,27,4.42,7.25,10.17,16.07,17.2,21a1.33,1.33,0,0,0,2.09-.82A1.32,1.32,0,0,0,37.67,140.36Z"/><path class="cls-2" d="M32.31,28.37l-1,1.1a.47.47,0,0,0-.37,0A10.16,10.16,0,0,0,28,33q-2.45,2.64-4.83,5.31a.5.5,0,0,0,0,.61,1.44,1.44,0,0,0-.65.53,30.49,30.49,0,0,0-2.06,3.45c-2.77,3.55-4.7,8-7.23,11.67a1.3,1.3,0,0,0,.11,1.64C10,63,7.21,70.89,8,78.38,8,79,9,79,9,78.38c-.73-7.28,2-15,5.19-21.67a1.36,1.36,0,0,0,1.09-.13c1.2-.7,3.35-1.48,4.21-2.63.38-.51.31-1.05.59-1.57,1.32-2.44,1.4-.85,2.56-1.86.92-.8.9-1.19,1-2.39a28.78,28.78,0,0,1,1.64-7.56,1.32,1.32,0,0,0-.2-1.29l1.71-2.57a.46.46,0,0,0,.5-.11l2.9-2.77a.53.53,0,0,0,.79-.08c.37-.53.36-.6.19-1.23a.47.47,0,0,0-.34-.33A17.28,17.28,0,0,0,33.1,29,.5.5,0,0,0,32.31,28.37Z"/><path class="cls-2" d="M63.07,18.24a7,7,0,0,0-.25-1.06,1.52,1.52,0,0,0-2.2-.89c-.57.27-3.59-.12-4.61,0-2.14.24-4.54,1.51-6.52,2.38A56.4,56.4,0,0,0,38.9,24.83a1.25,1.25,0,0,0-1.24.75,3.37,3.37,0,0,1-.19.32c-.29.22-.58.44-.86.67a1.17,1.17,0,0,0-.49,1.14,24.12,24.12,0,0,0-2.59,3c-1,1.52-1.82,4.26-.73,5.95s3.07.82,4.18-.33a13.86,13.86,0,0,1,6.5-4.24,1.53,1.53,0,0,0,.51-.26A4.24,4.24,0,0,0,46.25,31a21.61,21.61,0,0,0,7.54-3.14c1.24-.9,2.72-1.45,3.92-2.32,2.19-1.59,3.39-3.42,6.15-4.42C65.66,20.48,64.89,17.59,63.07,18.24Z"/><path class="cls-2" d="M60.75,29.74a10.6,10.6,0,0,1-4.25.87,1.47,1.47,0,0,0-.63-.34,1.86,1.86,0,0,0-2.37,1.35,1.39,1.39,0,0,0,.11,1.06,1.26,1.26,0,0,0,.68.66c2.8,1.27,5.39.3,8-1C64,31.44,62.48,29,60.75,29.74Z"/><path class="cls-2" d="M70.83,40.14a1.52,1.52,0,0,0-1-.18,1.87,1.87,0,0,0-.83-.18,2.6,2.6,0,0,0-1.75,1l-1.24,1.3a1.52,1.52,0,0,0,1.06,2.56,4.48,4.48,0,0,0,4.25-2.48A1.53,1.53,0,0,0,70.83,40.14Z"/><path class="cls-2" d="M149.89,57.14c-2.54-7.54-6-15.24-11.59-20.1A47.93,47.93,0,0,0,131,29.28a1.6,1.6,0,0,0-.6-.32,2.4,2.4,0,0,0-.82-.86c-1.29-.8-2.49.62-2.16,1.77a7.86,7.86,0,0,0-1,.17c-.79.12-1.57.28-2.35.44a1.5,1.5,0,0,0-1.28-.34c-.77.14-1.57-.08-2.36,0a9.51,9.51,0,0,0-2,.58,10.8,10.8,0,0,1-2.22.65,1.55,1.55,0,0,0-.6-2.59,16.69,16.69,0,0,0-3-.41,23.36,23.36,0,0,1-4.19-1.24,1.2,1.2,0,0,0-1.11.11,4.33,4.33,0,0,0-2.18-.47c-4.92-1-10.1-.17-13.24,4.08a56.13,56.13,0,0,0-6.1,2.43,1.52,1.52,0,0,0-.31,2.36,4.61,4.61,0,0,0,3.27,2.12C90,37.85,91,37,92.11,36.72c.5.82.89,1.83,1.31,2.62a1.37,1.37,0,0,0,2.16.4c2.72,0,5.65-3.06,3.91-5.53-.77-1.08-.9-.44.35-.81a2.14,2.14,0,0,0,1.57-1.4,2.85,2.85,0,0,0-.06-1.05h0c.68,0,1.6-.09,2.48-.06a1.87,1.87,0,0,0,.47.5,3,3,0,0,0-1.1,1,2.5,2.5,0,0,0,0,2.76c.71,1,1.83.9,2.93.88.26,0,3.39-.17,4.18-.06l.19.15,0,.13c-2.63.37-6.71.63-7.76,2.94-.13.3-.16,1.34-.29,1.45h0a1.31,1.31,0,0,0-1.15-.13.84.84,0,0,0-.14.06,4.69,4.69,0,0,0-.63-.13,8.1,8.1,0,0,0-3.58.71l-.19-.08a4.56,4.56,0,0,0-3.52.14,2.72,2.72,0,0,1-.52-.39c-.86-.81-.89-2.1-2.27-2.34a1.83,1.83,0,0,0-2.13,2.07,2.24,2.24,0,0,0,.56,1.13,5.07,5.07,0,0,0-2.09.14,31.71,31.71,0,0,0-4.28,1.64,6.28,6.28,0,0,0-1.64,1.1,1.77,1.77,0,0,0-.56-2c-.6-.43-.91-1.2-1.41-1.73a4.91,4.91,0,0,0-.87-.71c-.41-.25-.8-.24-.9-.49-.33-.79,0-1.3-.84-1.95s-1.61-.53-2.49-.83a1.4,1.4,0,0,0-.62-.08,2,2,0,0,0-2.65,2.4A3.34,3.34,0,0,0,73,41.44a6.79,6.79,0,0,0,.66.2,5.27,5.27,0,0,0-.61.5,1.51,1.51,0,0,0,.3,2.35c1.76,1.15,3.67.77,5.61.85a23.93,23.93,0,0,0-4.79.84c-1.13.33-1.59,2.2-.36,2.75a28.62,28.62,0,0,1,3.27,1.48c.08,1.47-2.94,2.29-4,2.22-2.33-.14-3.69-1.61-6-.47a1.24,1.24,0,0,0-.76,1.09,1.05,1.05,0,0,0-.05.19c-.22,1.15-.45,2.29-.66,3.44a2.72,2.72,0,0,0,.19,2.25,4.49,4.49,0,0,0,2,1.17L71,61.64a1.31,1.31,0,0,0,1.36-.31C74,61,76.19,60.4,77.15,59c.48-.66.39-1.32,1-1.92a14,14,0,0,1,3.07-2,1.32,1.32,0,0,0,1.14-.74c.23-.41.48-.93,1-1.05s1.4.31,1.95.4A3.56,3.56,0,0,0,88.3,53c1.66-.39,3.31-.81,4.63.1.92.64,1.48,1.79,2.42,2.46,1.17.83,3.34,1,4.12,2.23,1,1.61,3.65.11,2.59-1.52a6.08,6.08,0,0,0-2.9-2.29,11.5,11.5,0,0,1-3.1-1.84c-.12-.11-.23-.24-.34-.36a1.52,1.52,0,0,0-.36-1c.73.88,3.66,1.76,4.87,2.12a14.28,14.28,0,0,0,1.92.41l.32.4a1.18,1.18,0,0,0,.81.46,25,25,0,0,1,1.82,2.79c.8,1.26,1.62,3.32,2.94,4.12a1.9,1.9,0,0,0,2.82-1c.54-1.47,0-3.15-.53-4.57l0,0a3.06,3.06,0,0,0,1.76.75c.52.82.43,2.06,1,3a3.69,3.69,0,0,0,2,1.43A22.55,22.55,0,0,0,124.52,62a14.69,14.69,0,0,1,.26,2.48,8.34,8.34,0,0,1-.14,2.43c-.33.35-.62.14-1,.17a5.55,5.55,0,0,0-2.35.67,1.43,1.43,0,0,0-.15-.33,1.47,1.47,0,0,0-1.29-.74,4.9,4.9,0,0,0-2.32.75,1.19,1.19,0,0,0-.11-.26c-1.06-1.86-4.18-1.4-6-1.55-3.35-.29-4.27-.34-6.35,2-2.85-.91-5.78-1.24-8.62-2.44-.27-.12-3.13-1.14-3.15-1.23a13.81,13.81,0,0,0,.81-1.33,2.84,2.84,0,0,0-1.71-3.35,4.39,4.39,0,0,0-3.87.53,19.27,19.27,0,0,0-11.08,1.8c-3.75.18-8.07.31-10.82,2.67a7.85,7.85,0,0,0-2.74,5.85c-4,1.5-9.26,5.1-9.41,9.52a7.61,7.61,0,0,0,.5,2c.61,2.91-.65,2.43-1.33,4.55s.31,3.52,1.35,5.11a1.35,1.35,0,0,0,.4,1.24c1.48,1.53,3.74,1.27,5,3,1.07,1.53,1.45,3.08,3,4.32,1.2,1,2.79,1.91,4.4,1.59,1.15-.22,1.64-1.05,2.34-1.72a1.72,1.72,0,0,0,.42.11,22.73,22.73,0,0,0,6.84.11c2.71-.52,4.74-2.62,7.5-1.86,1,1.68,2.11,3.63,4.41,3.1.54-.13,2.38-1.58,2.94-1.47l0,0c1.79,2.42-.08,4.08-.9,6.46a3.22,3.22,0,0,0,.52,3.57,1.47,1.47,0,0,0,.34.67,17.79,17.79,0,0,1,3.07,4.94c.61,1.49,0,2.83.09,4.36a7.55,7.55,0,0,0-1.61,7.37c.54,1.88,1.93,3.27,2.66,5,.85,2.06,1,4.55,1.37,6.74a1.61,1.61,0,0,0,.1.35,1.67,1.67,0,0,0,1.32,2.26c5.76.68,11.86-3.91,15.51-8.26,2.89-.8,3.65-3.79,4.85-6.27a1.32,1.32,0,0,0,.61-.23c2.24-1.43,4.54-3,5.87-5.34a7.64,7.64,0,0,0,.94-2.78c.21-1.6-.56-3.48.16-5a1.38,1.38,0,0,0,.46-.77c1.09-4.6,6.49-6.75,9.33-10.33a32.7,32.7,0,0,0,5.38-10.4,1.52,1.52,0,0,0-1.85-1.85,29.12,29.12,0,0,1-4.29,1.59c-2.38.43-1.23.46-1.64-.49a.45.45,0,0,0,.25-.32,14.81,14.81,0,0,1,.39-1.49,2.09,2.09,0,0,0,.08-.23,1.29,1.29,0,0,0,1.47.43c3.61-1.08,7.76-2.45,9.78-5.86,1.56-2.62,2.86-6.63-.59-8.39a1.52,1.52,0,0,0-2,.63,5.69,5.69,0,0,0-.52.33c-.69-.9-1.26-2-1.87-2.87l-2-3a1.69,1.69,0,0,0,0-.39c0-.26-.26-1.17-.08-1.42.67-.93,1.38.34,1.65.79a12.14,12.14,0,0,0,1.45,2.65c.64.62,1.33.46,2,.88s1.16,1.25,1.93,1.68a1.4,1.4,0,0,0,.9.19,2,2,0,0,0,1,0c.16,0,1-.44,1.06-.44l.29-.28a1.72,1.72,0,0,0,.35,1.36c.31.85.79,1.66,1.12,2.51a15.14,15.14,0,0,1,1.11,4.87,1.41,1.41,0,0,0,.54,1.08c.16.64.35,1.28.46,1.93a37.69,37.69,0,0,1,.05,9.61c-.05.66.93.63,1,0a84.58,84.58,0,0,0,.86-12,1.54,1.54,0,0,0,.23-.74A59,59,0,0,0,149.89,57.14Zm-26.44-2.52a9.11,9.11,0,0,0-2.32.47c-1.95.37-3.83.22-5.78.81l-.06,0a1.46,1.46,0,0,0-.08-.27A5.77,5.77,0,0,0,114.15,54a12.73,12.73,0,0,0,1.9-2.91c.72-1.38,1.39-2.09,2.51-.71.41.5.5,1.15,1,1.58a1.61,1.61,0,0,0,1.82.24c1-.43,1.63-2.29,2.74-1.91a4.28,4.28,0,0,0,1.71,2.35c.79.57,3,1.07,3.48,2,.65,1.21-.67,1.06-1.55,1a16.54,16.54,0,0,1-2.09-.25l-.06,0A5.93,5.93,0,0,0,123.45,54.62Zm7.72,31.71c-2.4-5.16-4.79-10.38-8.08-15a1.59,1.59,0,0,0,.33.09c3.08.43,5.65,5.89,7.23,8.27a77.4,77.4,0,0,1,4,6.73,12.62,12.62,0,0,1-.52,1.25,4.79,4.79,0,0,0-1.23,1.1A6.82,6.82,0,0,0,131.17,86.33ZM139.36,61a4.51,4.51,0,0,1-2.05-1,4.76,4.76,0,0,1-1.06-1.5,1.48,1.48,0,0,0,.38-2.35l-4-3.7a1.5,1.5,0,0,0,.16-1c-.25-1.53.21-1.14,1.35-1.21a6.62,6.62,0,0,0,1.61-.45,4.64,4.64,0,0,1,.61-.17,1.68,1.68,0,0,0,.55.24,6.16,6.16,0,0,1,.35.64c.14.28.37.68.56,1.09a1.26,1.26,0,0,0-.24,1.78l.37.52a2.63,2.63,0,0,0,.54.63l0,0h0l.19.15a7.22,7.22,0,0,1,.43.77,1.26,1.26,0,0,0,0,1l1.06,3c.17.47.49,1.07.69,1.64A9,9,0,0,1,139.36,61Z"/><path class="cls-2" d="M132.23,119.38c-.37.53-.76,1-1.16,1.51-1.57,1.32-3.14,2.65-4.69,4a1.39,1.39,0,0,0,.05,2.11,25.14,25.14,0,0,0-2.66,3.66,1.5,1.5,0,0,0,2.59,1.51c2.1-3.64,5.51-6.34,7.65-10a1.5,1.5,0,0,0,.2-.51c.2-.27.42-.52.61-.8C135.92,119.31,133.32,117.8,132.23,119.38Z"/><path class="cls-2" d="M90.66,55.82a.61.61,0,0,0-.72.32.52.52,0,0,0,.08.6.82.82,0,0,0,1.4-.36A.52.52,0,0,0,90.66,55.82Z"/><path class="cls-2" d="M99.76,58.83c-.54-.27-1.08-.58-1.65-.82a1.77,1.77,0,0,0-2.41.65.52.52,0,0,0,.3.74,5,5,0,0,0,1.07.17,2.79,2.79,0,0,0,1.4.71c.56.11,2.18.4,2.12-.62C100.56,59.2,100.12,59,99.76,58.83Z"/><path class="cls-2" d="M124.31,27.85l-.9-.3c0-.55,0-1.09,0-1.63a.51.51,0,0,0-.06-.92.49.49,0,0,0-.53-.2,3.58,3.58,0,0,0-1.35.89c-.61.46-1.09,1.06-.8,1.72a2.44,2.44,0,0,0,1.38,1,5.53,5.53,0,0,0,2.09.42A.51.51,0,0,0,124.31,27.85Z"/><path d="M156.73,83.12a69.72,69.72,0,0,0-4.59-24,.87.87,0,0,0-.06-.44,78.59,78.59,0,0,0-14.77-24.14c-5.69-6.31-13.65-13.89-21.81-17.06a.92.92,0,0,0-.26-.21c-12-6.47-26.37-8.49-39.91-7-.86.19-1.72.38-2.59.55a34.4,34.4,0,0,0-5.17,1.07l0,.08-.69.21-.29.13a.79.79,0,0,1-.44.09c-13.66,4.14-27.37,9.26-37.64,19.45-6,6-10.56,13.32-14.17,21C10.83,60.14,7.19,68.1,6.87,76.35c0,0,0,0,0,0a97.7,97.7,0,0,0,.82,18.25A49.72,49.72,0,0,0,9.9,105.74a.82.82,0,0,0,0,.48c5.8,15.69,15.49,31.46,30.1,40.21a1,1,0,0,0,.5.13c4.93,2.88,10,6.29,15.31,8.17a42.57,42.57,0,0,0,10.52,2,48.74,48.74,0,0,0,11.29,1.38C92.45,160.21,109,154.79,121,147a4.2,4.2,0,0,0,.66-.21c1.38-.9,2.72-1.85,4-2.87,1.28-1.18,2.46-2.42,3.37-3.18a126.72,126.72,0,0,0,9.92-8.9c5.48-5.62,9.09-12.55,12.33-19.62a.91.91,0,0,0,.09-.17.65.65,0,0,0,0-.13c.14-.31.29-.62.43-.92a1,1,0,0,0,0-.65c.3-1,.56-2,.81-3,.85-2.72,1.42-5.55,2.05-8.31a84.25,84.25,0,0,0,2.17-15.41A.86.86,0,0,0,156.73,83.12Zm-8.57,31.25a.93.93,0,0,1-.24.3c-2.66,5.52-5.7,10.87-9.95,15.33a99.1,99.1,0,0,1-7.45,6.9c-1.44,1.24-2.91,2.46-4.38,3.67a48.7,48.7,0,0,1-4.6,4c-.48.41-1,.8-1.46,1.16-1.79,1.29-3.94,2-5.92,2.91h0c-9.71,5.06-21.38,8.37-32.4,7.81l-.07-.08a8.37,8.37,0,0,1-1.41-.11,34.11,34.11,0,0,1-6.06-.31,53.63,53.63,0,0,1-6.68-1c-.6-.08-1.19-.19-1.79-.33a1,1,0,0,0-.25.07,32.46,32.46,0,0,1-10.26-2.42c-5.29-2.38-10.34-5.62-15.41-8.44a.7.7,0,0,0-.22-.07C27.08,135.67,18.34,122,12.85,108.24c0,0,0-.06,0-.1-.35-.83-.65-1.67-.92-2.54C10.11,101,9.78,95.91,9.26,91A88.34,88.34,0,0,1,8.77,78.6a.83.83,0,0,0,.08-.43c-.2-9,4-18,7.92-25.9C20.43,44.83,25,37.75,31.1,32.07,42.42,21.54,57.62,16.89,72.18,12.66c13.72-2.13,28.76-.52,41.18,5.88a1,1,0,0,0,.55.46c8.27,2.81,16.23,10.55,22,16.93a75,75,0,0,1,13.29,21,1,1,0,0,0,.08.3,72.92,72.92,0,0,1,5.25,21.15,1,1,0,0,1,.1.37C155.21,91,153.39,103.19,148.16,114.37Z"/></g><g id="Layer_7" data-name="Layer 7"><path class="cls-3" d="M97.7,51.84a25.22,25.22,0,0,0-.49-3.78.83.83,0,0,0-.12-.25l-.19-2.76a.65.65,0,0,0-.75-.6c-.35-.14-.7-.26-1.06-.37l-.08,0a16.85,16.85,0,0,0-3.08-.55c-1.74-.23-3.48-.43-5.22-.54s-3.59-.11-5.39-.06L79,43a3.31,3.31,0,0,0-1.56.28,7.9,7.9,0,0,1-.5-1,4.43,4.43,0,0,0-.24-.92,1,1,0,0,0-.87-.68,12.7,12.7,0,0,1-.75-1.9c.28-.51-.26-1.26-.83-.86l0,0a.59.59,0,0,0-.35.24,9.64,9.64,0,0,0-2.09,2A5,5,0,0,0,71.14,43c-.15,1-.28,1.92-.4,2.88-.29,2.36-.5,4.72-.65,7.1a.69.69,0,0,0,0,.85.61.61,0,0,0,1,.44,20.67,20.67,0,0,0,5.47.8c2.21.06,4.43-.27,6.64-.09a31.45,31.45,0,0,0,6.06-.07h.14l4.08-.26,2-.15a5.41,5.41,0,0,0,1.75-.19C98.2,53.91,97.78,52.63,97.7,51.84Z"/><path class="cls-4" d="M74,43.52c-.05-.26-.22-.71-.54-.71s-.48.36-.52.63A8.34,8.34,0,0,0,73,45a.22.22,0,0,0,.39.11h.11l.18,0,.06,0a.21.21,0,0,0,.28-.19A5.7,5.7,0,0,0,74,43.52Z"/><path class="cls-4" d="M79.47,44.82a11.73,11.73,0,0,0-4,.11,1.26,1.26,0,0,0,.28-.11.23.23,0,0,0,.11-.2.08.08,0,0,1,0,0c.07-.57.46-2.55-.69-2.38s-.8,1.92-.77,2.62a.22.22,0,0,0,.35.16H75c-.76.1-1.58.19-2.38.34a.06.06,0,0,0,0,0c-.05-.51,0-1,0-1.53,0-.25-.11-.55-.4-.57-.75-.06-.52,1.59-.48,2a.22.22,0,0,0,.33.17h0l.16.07a8.46,8.46,0,0,0-1.68.54c-.24.11,0,.47.21.36a15.71,15.71,0,0,1,4.3-.91,13.3,13.3,0,0,1,4.31-.19C79.62,45.27,79.74,44.87,79.47,44.82Z"/><path class="cls-4" d="M71.57,44.08c0-.17-.08-.43-.29-.47a.21.21,0,0,0-.23.1,1.94,1.94,0,0,0-.14.76,6.54,6.54,0,0,0,0,1,.22.22,0,0,0,.42,0,.23.23,0,0,0,.23-.26C71.49,44.85,71.61,44.47,71.57,44.08Z"/><path class="cls-4" d="M76.6,41.46a3.06,3.06,0,0,0-2.24.29c-1.09.37-2.18.79-3.26,1.2-.25.09-.15.49.11.4l2.53-.94c.83-.3,1.89-.88,2.75-.55C76.74,42,76.85,41.55,76.6,41.46Z"/><path class="cls-4" d="M76.56,40.79a7.51,7.51,0,0,0-1.06,0,6.12,6.12,0,0,0-1.07.36V39.51a.19.19,0,0,0-.07-.16l0-.74a2.45,2.45,0,0,1,.48-.2A.21.21,0,0,0,74.7,38a6.46,6.46,0,0,0-1.9,1.17,6.06,6.06,0,0,0-1.52,1.38c-.15.23.21.44.36.21a2.88,2.88,0,0,1,.27-.34,4.73,4.73,0,0,0,0,.75,2,2,0,0,0,.09.73.16.16,0,0,0,.07.09c-.35.11-.71.2-1.07.28s-.15.46.11.4c1.87-.39,3.54-1.3,5.44-1.46C76.83,41.18,76.83,40.76,76.56,40.79ZM73,39.59a.19.19,0,0,0-.19.2,8.29,8.29,0,0,0,.13,1.93l-.45.15a.31.31,0,0,0,.07-.14,13.82,13.82,0,0,0,0-1.82s0,0,0,0l.45-.33Zm.5,1.94v0a22.25,22.25,0,0,1,0-2.31L73.7,39l0,1.28a2,2,0,0,0,.1,1.06l0,0Z"/><path class="cls-4" d="M71.46,41.06h0a.18.18,0,0,0-.12.19,4.28,4.28,0,0,1,0,.62c0,.24.37.29.41.06l.13-.77C71.91,40.91,71.51,40.8,71.46,41.06Z"/><path class="cls-4" d="M79.44,45.5a9.72,9.72,0,0,0-4.12.22c-1.51.34-3.07.24-4.54.74-.25.08-.14.49.11.4a24.79,24.79,0,0,1,3.83-.59,12.37,12.37,0,0,1,4.61-.37C79.6,46,79.71,45.55,79.44,45.5Z"/><path class="cls-4" d="M78.35,46.75a.69.69,0,0,0-.86-.56c-.6.1-.69.59-.72,1.12,0,.38,0,.76,0,1.13a1.63,1.63,0,0,0,.09.76.21.21,0,0,0,.31,0,.16.16,0,0,0,.15,0l.31-.08a.17.17,0,0,0,.18,0l.15-.06a1,1,0,0,1,.3.05.22.22,0,0,0,.27-.21A6.56,6.56,0,0,0,78.35,46.75Z"/><path class="cls-4" d="M75.63,46.8c-.37-.42-.86-.17-1.08.25a4.93,4.93,0,0,0-.2,2.23.21.21,0,0,0,.35.15h.07a4.42,4.42,0,0,1,.81-.06c.09,0,.25,0,.34,0s.14-.37.15-.55A3,3,0,0,0,75.63,46.8Z"/><path class="cls-4" d="M74,48.83a8.26,8.26,0,0,0-.11-1.22.81.81,0,0,0-.27-.61c-.54-.35-.75.56-.81.89A4.78,4.78,0,0,0,72.74,49c0,.2,0,.57.18.7a.21.21,0,0,0,.28-.08h0a.32.32,0,0,0,0-.09,1.12,1.12,0,0,0,.67-.11C74.07,49.25,74,49,74,48.83Z"/><path class="cls-4" d="M72.45,47.84c0-.24-.06-.65-.4-.62s-.33.5-.37.72a8.41,8.41,0,0,0-.12,1.58.21.21,0,0,0,.29.19.27.27,0,0,0,.23,0l.07-.07a.21.21,0,0,0,.35-.14A9.19,9.19,0,0,0,72.45,47.84Z"/><path class="cls-4" d="M71.28,47.57a.21.21,0,0,0-.4,0,3.7,3.7,0,0,0-.08,2.06.21.21,0,0,0,.39,0,.19.19,0,0,0,.12-.19c0-.36,0-.72,0-1.08A1.86,1.86,0,0,0,71.28,47.57Z"/><path class="cls-4" d="M82.28,49.43a8.19,8.19,0,0,0-2.52,0c-1.1,0-2.18,0-3.28.09a45.08,45.08,0,0,1-6,.57.21.21,0,0,0,0,.41A33,33,0,0,0,75.8,50,21,21,0,0,1,79,49.82a13.17,13.17,0,0,1,3.2,0A.21.21,0,0,0,82.28,49.43Z"/><path class="cls-4" d="M82.19,50a27.39,27.39,0,0,0-2.84.31c-1,.05-1.94.1-2.91.2a39.67,39.67,0,0,1-6.07.12c-.27,0-.27.4,0,.41a38.44,38.44,0,0,0,6.07-.11c1-.1,1.94-.15,2.91-.2s1.91-.36,2.84-.32C82.46,50.42,82.46,50,82.19,50Z"/><path class="cls-4" d="M71.07,51.69a.22.22,0,0,0-.37,0,1.74,1.74,0,0,0-.13,1c0,.45,0,.91,0,1.36a.18.18,0,0,0,.09.16c.1.13.33.15.36-.05A4.39,4.39,0,0,0,71.07,51.69Z"/><path class="cls-4" d="M72.37,52.67c0-.28,0-1-.4-1.06a.21.21,0,0,0-.23.09,1.84,1.84,0,0,0-.17,1c0,.22,0,.44,0,.66a1.16,1.16,0,0,0,.07.86v.05a.23.23,0,0,0,.4.11l0,0A3.37,3.37,0,0,0,72.37,52.67Z"/><path class="cls-4" d="M73.68,52.09c-.08-.28-.4-.72-.71-.44a.74.74,0,0,0-.17.5,8.93,8.93,0,0,0-.1,1.16c0,.32-.15,1.09.24,1.24a.16.16,0,0,0,.15,0l0,0,.08,0a.18.18,0,0,0,.23-.11.24.24,0,0,0,.28-.2A6.49,6.49,0,0,0,73.68,52.09Z"/><path class="cls-4" d="M75,51.29c-.53.13-.63.73-.68,1.19a11.9,11.9,0,0,0-.07,1.34,1.61,1.61,0,0,0,.11.87.22.22,0,0,0,.39-.08h.17a3.06,3.06,0,0,1,.73.15.22.22,0,0,0,.27-.2C76,53.92,76.45,50.91,75,51.29Z"/><path class="cls-4" d="M77.72,51.12c-1.29-.25-1,2.91-1,3.52a.21.21,0,0,0,.31.18,3.84,3.84,0,0,0,1.22,0c.08,0,.19-.06.2-.15C78.55,53.87,79,51.35,77.72,51.12Z"/><path class="cls-4" d="M81.24,52.32c-.08-.5-.22-1.16-.81-1.27s-.85.62-1,1.12a6.52,6.52,0,0,0,0,2.64c0,.23.36.17.4,0a2.12,2.12,0,0,0,1.45.2.21.21,0,0,0,.15-.15A7.12,7.12,0,0,0,81.24,52.32Z"/><path class="cls-4" d="M81.88,48.17c0-.25,0-1-.4-1.15a.71.71,0,0,0-.27-.21.31.31,0,0,0-.13-.06.19.19,0,0,0-.13,0,.8.8,0,0,0-.48.14.13.13,0,0,0-.06.07.18.18,0,0,0-.22.05c-.13.16-.09.27,0,.46s.24.63.36,1,.13.49.3.6.45.07.65.08a.2.2,0,0,0,.2-.21c0-.18,0-.35,0-.53A.2.2,0,0,0,81.88,48.17Z"/><path class="cls-4" d="M81,43.47c-1.17.05-.88,2-1,2.64,0,.21.22.25.35.13l0,0a4.63,4.63,0,0,0,1.18.05.23.23,0,0,0,.21-.21C81.92,45.44,82.24,43.42,81,43.47Z"/><path class="cls-4" d="M85.1,45.2a3.83,3.83,0,0,0-.08-.83,1.05,1.05,0,0,0-.84-.86c-1.19-.14-1.08,1.87-1.11,2.57a.19.19,0,0,0,.26.19.26.26,0,0,0,.13.1,2.48,2.48,0,0,0,.77,0,2.35,2.35,0,0,0,.75,0,.23.23,0,0,0,.15-.21A6.33,6.33,0,0,0,85.1,45.2Z"/><path class="cls-4" d="M85.27,49.79a6.85,6.85,0,0,0-.08-1.52c0-.09,0-.18,0-.27a1.17,1.17,0,0,0-.22-.85.93.93,0,0,0-.91-.34l-.15,0c-.46,0-.71.31-.83.72a8.38,8.38,0,0,0-.23,2.59.22.22,0,0,0,.4.1h.07a10.2,10.2,0,0,0,1.66.07c.14,0,.28-.18.18-.32h0A.25.25,0,0,0,85.27,49.79Z"/><path class="cls-4" d="M85.33,54.6c-.19-.91.19-1.89-.23-2.76a1.13,1.13,0,0,0-1.33-.68c-1.35.48-.65,3-.24,3.81A10306986784752.77,10306986784752.77,0,0,0,84,55l.24-.06a1.75,1.75,0,0,0,1-.1A.21.21,0,0,0,85.33,54.6Z"/><path class="cls-4" d="M88.28,44.84c0-.49-.09-1-.6-1.2-1.4-.53-1.35,1.78-1.25,2.52a.23.23,0,0,0,.36.15.44.44,0,0,0,.3.12,2.52,2.52,0,0,0,1-.06.28.28,0,0,0,.18-.24A4.63,4.63,0,0,0,88.28,44.84Z"/><path class="cls-4" d="M90.69,44.79c-.1-.59-.36-1.1-1-.84a.85.85,0,0,0-.5.67,3.36,3.36,0,0,0,0,1.84.21.21,0,0,0,.27.14.19.19,0,0,0,.1,0,3.94,3.94,0,0,1,1,0,.21.21,0,0,0,.26-.2A6.2,6.2,0,0,0,90.69,44.79Z"/><path class="cls-4" d="M88.28,48.11c0-.39-.07-.75-.43-.94a.89.89,0,0,0-.55-.28c-1.28-.18-1,2.51-.94,3.18a.23.23,0,0,0,.37.15.25.25,0,0,0,.13.05,9.33,9.33,0,0,0,1.06,0,.2.2,0,0,0,.19-.11.22.22,0,0,0,.12-.19c0-.24,0-.59,0-1A8.68,8.68,0,0,0,88.28,48.11Z"/><path class="cls-4" d="M88.08,51.52a.81.81,0,0,0-1.34,0,2,2,0,0,0-.23,1.21c0,.69,0,1.37,0,2.06,0,.22.28.26.39.1a.23.23,0,0,0,.2.07l.6-.09a1,1,0,0,0,.55-.09c.22-.13.15-.33.14-.55C88.33,53.34,88.67,52.3,88.08,51.52Z"/><path class="cls-4" d="M90.2,51.2c-.57,0-.67.53-.75,1a8.79,8.79,0,0,0-.09,2.66c0,.21.29.18.37,0h.07l.43-.12H91a.21.21,0,0,0,.21-.21C91.22,53.77,91.56,51.23,90.2,51.2Z"/><path class="cls-4" d="M90.9,48.15c-.08-.49-.3-1.12-.9-1.14-1.21,0-.92,2.47-.75,3.12a.21.21,0,0,0,.38.06.22.22,0,0,0,.12.05,4.5,4.5,0,0,0,1.1,0A.19.19,0,0,0,91,50.1,5.13,5.13,0,0,0,90.9,48.15Z"/><path class="cls-4" d="M92.27,44.18c-1,.12-.68,1.7-.62,2.33a.22.22,0,0,0,.32.18s0,0,0,0a.34.34,0,0,0,.2,0,1.58,1.58,0,0,1,.65,0,.21.21,0,0,0,.27-.2C93.07,45.94,93.37,44.05,92.27,44.18Z"/><path class="cls-4" d="M94.49,45.2c-.07-.23-.13-.55-.43-.54-.75,0-.31,1.68-.3,2.09a.21.21,0,0,0,.37.13h.08l.31-.06a.21.21,0,0,0,.15-.2A6.14,6.14,0,0,0,94.49,45.2Z"/><path class="cls-4" d="M95.71,45.44c0-.22-.14-.54-.42-.52-.62,0-.2,1.53-.17,1.86a.24.24,0,0,0,.31.19l.16,0a.2.2,0,0,0,.2-.21C95.77,46.34,95.76,45.88,95.71,45.44Z"/><path class="cls-4" d="M96.61,46.75a5.34,5.34,0,0,0-.12-1.5.21.21,0,0,0-.35-.09c-.2.17-.11.52-.09.75s.08.67.14,1,.41.16.4-.08A.29.29,0,0,0,96.61,46.75Z"/><path class="cls-4" d="M93.45,49.92c-.11-.57.12-2.94-1-2.76-.45.06-.56.63-.61,1a6.12,6.12,0,0,0,.1,2.09c0,.25.38.17.4,0h.08c.32-.1.61.09.93,0A.23.23,0,0,0,93.45,49.92Z"/><path class="cls-4" d="M95,49.35q0-.59-.12-1.17a.81.81,0,0,0-.19-.56c-.34-.31-.62.12-.68.42a6.23,6.23,0,0,0,0,1.22,2,2,0,0,0,.1.85.22.22,0,0,0,.24.09h0a.2.2,0,0,0,.08,0l0,0C95.07,50.32,95,49.82,95,49.35Z"/><path class="cls-4" d="M96,48.49c0-.22-.07-.53-.29-.65a.33.33,0,0,0-.45.16,2.28,2.28,0,0,0-.09,1,3,3,0,0,0,.18,1.11.21.21,0,0,0,.23.09h0a.26.26,0,0,0,.12-.09l.09,0c.19,0,.27-.14.29-.3A6.47,6.47,0,0,0,96,48.49Z"/><path class="cls-4" d="M97,50a.29.29,0,0,0,0-.09,4.6,4.6,0,0,0-.26-1.81.22.22,0,0,0-.39,0,3.93,3.93,0,0,0,.23,2c.06.26.47.15.4-.11Z"/><path class="cls-4" d="M93.52,52.15c-.06-.34-.38-.87-.79-.88s-.54.4-.6.74A11.53,11.53,0,0,0,92,54.57a.21.21,0,0,0,.37.13.36.36,0,0,0,.43,0,.1.1,0,0,0,0,0c.22,0,.42,0,.51,0a.22.22,0,0,0,.21-.21A16.51,16.51,0,0,0,93.52,52.15Z"/><path class="cls-4" d="M94.47,51.46c-.37.08-.42.73-.45,1a6.12,6.12,0,0,0,.21,2,.2.2,0,0,0,.39,0,1.31,1.31,0,0,0,.3.1c.12,0,.28-.06.27-.2C95.15,54,95.25,51.31,94.47,51.46Z"/><path class="cls-4" d="M96.4,54.09c-.08-.51-.05-1-.12-1.52,0-.26-.06-.72-.33-.85a.21.21,0,0,0-.31.12,6.11,6.11,0,0,0,0,2.52.23.23,0,0,0,.32.18.21.21,0,0,0,.3-.19v0h0A.22.22,0,0,0,96.4,54.09Z"/><path class="cls-4" d="M97.09,52.6c0-.26,0-.67-.25-.82a.21.21,0,0,0-.31.18l0,2.32a.22.22,0,0,0,.41.07.21.21,0,0,0,.26-.19A9.14,9.14,0,0,0,97.09,52.6Z"/><path d="M98,54a.16.16,0,0,0,0-.07c-.21-3.15-.53-6.3-1-9.43a.08.08,0,0,0-.08-.07.09.09,0,0,0-.08-.1A54.75,54.75,0,0,0,87.26,43a.1.1,0,0,0-.08,0,34,34,0,0,0-4.84-.08c-1.63,0-3.26.13-4.89.29-.17-.39-.32-.8-.46-1.22a0,0,0,0,0,0-.06,2.58,2.58,0,0,0-.09-1.11c-.13-.21-.44-.21-.66-.24s-.41,0-.53-.33-.15-.51-.23-.77c-.18-.57-.38-1.13-.59-1.69a.1.1,0,0,0-.08-.07c.06-.07,0-.2-.1-.16a8.54,8.54,0,0,0-2.77,2A3.41,3.41,0,0,0,71,42.12a.09.09,0,0,0-.06.08c-.09,1-.08,2.09-.27,3.08-.06.29-.26.39-.31.63a.7.7,0,0,0,0,.29,3.39,3.39,0,0,1,0,.54.07.07,0,0,0,0,.09c.19,1.48-.28,2.93-.18,4.41h0c0,1-.11,2-.24,3a.09.09,0,0,0,.12.09,21.76,21.76,0,0,0,3.12.36c1.14,0,2.27,0,3.41,0l6.88.48c.08,0,.11-.05.1-.11a.08.08,0,0,0,0-.05,12.72,12.72,0,0,1,2.31,0c.77,0,1.54-.15,2.31-.19s1.39.05,2.08.06,1.52,0,2.27-.07a8.7,8.7,0,0,0,1.12-.12c.44,0,.87,0,1.31,0a25.78,25.78,0,0,0,2.78-.37.06.06,0,0,0,.06,0c.07,0,.15,0,.14-.09Zm-21.15.57c-1.07-.07-2.13-.06-3.21-.06a20.75,20.75,0,0,1-3.42-.34c.12-1,.2-1.95.23-2.93v0c-.09-1.37.31-2.72.21-4.09v0c0-.36-.13-.93,0-1.23a.7.7,0,0,0,.19-.46c.09-1,.17-2,.26-3a.1.1,0,0,0,.08-.09,3.34,3.34,0,0,1,1-2.73,8.57,8.57,0,0,1,2.48-1.8s0,0,0,.06c.35.93.66,1.88.93,2.83a.1.1,0,0,0,.1.08l.34,0c.27,0,.44,0,.59.23a1.42,1.42,0,0,1,.14.82.09.09,0,0,0,0,.12,12.17,12.17,0,0,0,1.11,2.57.11.11,0,0,0,.12.16,2,2,0,0,1,1.42.18,4.2,4.2,0,0,1,.25,1.06c.08.35.16.7.25,1a17.58,17.58,0,0,0,.68,2.13l0,0c0,.07,0,.14.1.13A2.92,2.92,0,0,1,82,49.3c.54.21.41.91.45,1.37A14.63,14.63,0,0,0,82.82,53a.06.06,0,0,0,.05.06c.16.65.34,1.29.52,1.92Zm20.93-.41c-.91.15-1.81.3-2.73.36-.38,0-.76,0-1.14,0s-.8.14-1.18.13a0,0,0,0,0,0,0H92.6l-.11,0a.12.12,0,0,0-.09,0c-.72,0-1.45.08-2.18.06s-1.45-.09-2.18,0-1.54.16-2.32.18a10.3,10.3,0,0,0-2.15,0c-.23-.78-.44-1.57-.64-2.36,0,0,0,0,0-.05-.09-.46-.17-.93-.22-1.4s0-1-.09-1.47c-.15-.7-1.21-.65-1.8-.59h0a18.23,18.23,0,0,1-.73-2.31,8.44,8.44,0,0,0-.49-2,.08.08,0,0,0-.08,0,2.13,2.13,0,0,0-1.43-.2.11.11,0,0,0,0,0c-.19-.32-.35-.66-.51-1,1.6-.16,3.2-.23,4.8-.28a36.82,36.82,0,0,1,4.58,0,.09.09,0,0,0,.09.06,54.18,54.18,0,0,1,9.74,1.31h0v0c.44,3.16.77,6.34,1,9.52a.08.08,0,0,0,0,.08h0Z"/></g><g id="Layer_8" data-name="Layer 8"><path class="cls-5" d="M104.63,42.08a5.13,5.13,0,0,0-1-2.49,5.75,5.75,0,0,0-4.74-2.35,4.2,4.2,0,0,0-.7,0,6,6,0,0,0-3.88,2.35,5.18,5.18,0,0,0-.8,1.69,6,6,0,0,0,.15,3.91,38.78,38.78,0,0,0,5,9.54.35.35,0,0,0,.25.16.32.32,0,0,0,.46-.23v0a.39.39,0,0,0,.2-.14,37.44,37.44,0,0,0,3.77-6.89C104.06,46.11,105.4,43.79,104.63,42.08Zm-2.71,1.8a2.59,2.59,0,0,1-1.59,1.8,3.71,3.71,0,0,1-2.23.16,3.19,3.19,0,0,1-1.79-1.4c-.61-1.36-.53-3.09.9-3.89a3.75,3.75,0,0,1,2.62-.23A3,3,0,0,1,102,42a3.6,3.6,0,0,0,.12.44A3.27,3.27,0,0,1,101.92,43.88Z"/><path d="M102.19,42.64A3.22,3.22,0,0,0,98.41,40h0c-1.82.14-2.75,1.63-2.51,3.46a3,3,0,0,0,3.57,2.4,3.68,3.68,0,0,0,2.3-1.06A2.94,2.94,0,0,0,102.19,42.64Zm-.89,2a3.63,3.63,0,0,1-1.92.78,2.62,2.62,0,0,1-3-1.78,2.41,2.41,0,0,1,2.41-3.23.21.21,0,0,0,.15,0,2.79,2.79,0,0,1,2.86,2.25A2.46,2.46,0,0,1,101.3,44.67Z"/><path d="M104.12,39.74A6.06,6.06,0,0,0,97,37.44a7,7,0,0,0-3.21,2.46,5.45,5.45,0,0,0-.58,4.48,20.56,20.56,0,0,0,2.33,5.56,26,26,0,0,0,3.14,4.94l.08.06a.73.73,0,0,0,.57.2c.59,0,.89-.72,1.14-1.15,1-1.7,1.84-3.43,2.7-5.18C104.5,46,106,42.69,104.12,39.74Zm-2.24,10.6c-.38.74-.76,1.48-1.16,2.21-.19.37-.39.73-.6,1.1-.09.16-.18.32-.28.48l-.09.16c-.15.35-.42.4-.81.16a.17.17,0,0,0-.23-.15,19.62,19.62,0,0,1-2.11-3.22c-.68-1.24-1.38-2.48-2-3.75a12.26,12.26,0,0,1-1.23-4.44A4.52,4.52,0,0,1,95.11,39a5.88,5.88,0,0,1,7.1-.62c2.48,1.65,2.79,4.76,1.83,7.39A41.82,41.82,0,0,1,101.88,50.34Z"/></g></svg>