<svg xmlns="http://www.w3.org/2000/svg" viewBox="0 0 100.41 350"><defs><style>.cls-1{fill:#808285;}.cls-2{fill:#6d6e71;}.cls-3{fill:#58595b;}.cls-4{fill:#231f20;}</style></defs><title>Artboard 6</title><g id="Layer_2" data-name="Layer 2"><path class="cls-1" d="M83.06,192.64l0-3q-.44-7.62-.91-15.25c-.84-13.38-1.23-26.84.6-40.14q-.31-12.33-.47-24.67c.09-.71.21-1.41.33-2.12,0-1.22,0-2.45,0-3.67-1-5.82-2.15-11.8-.19-17.07a1.37,1.37,0,0,0-.29.07q0-23.89.71-47.78a2.82,2.82,0,0,0-3.55-2.83,2.73,2.73,0,0,0-.37-1.43L74,33.34c-6.4-1.49-12.77-3.14-19.11-4.88-2.65-.56-5.29-1.12-7.9-1.77-13.78-3.44-27.37-7.6-41.17-11q-1.68-.24-3.39-.42C-11.17,17.41-25,18.43-38.5,20.72c-5.15.87-10.35,1.37-15.54,1.83-1,.16-2,.34-3.06.49q-4.18.32-8.35.69C-71.28,25-77.17,26-83.09,26.92c-9,2-18.09,3.17-27.13,4.73-4,1-8,2-12,3.2a3.23,3.23,0,0,0-.19.7c-.16,1.14-.29,2.29-.43,3.43a219.83,219.83,0,0,1-.68,35.08q.11,6.34.08,12.69c-.11,26-.46,52.09-1.36,78.12.22,1.49.44,3,.65,4.48q-.49,35.47.35,71a176.2,176.2,0,0,1,1,28.18.06.06,0,0,1,0,0c1,18.4-.36,36.81-.84,55.21l.06,9.3a4.05,4.05,0,0,0-.21.35c0,1.75,0,3.5,0,5.25.08.14.14.29.23.42v1.07a2.79,2.79,0,0,0,.43,1.53c1.71,0,3.43.07,5.14,0a.56.56,0,0,1,.56.34l.57.05c3.75-.42,7.52-.63,11.29-.83l53.05-9.44c-.79-25.78-.64-51.57-.59-77.36,0-16,.09-32,1.45-47.84q.67-40.86,1.34-81.74a2.87,2.87,0,0,0-.22-1.21q1.08-21.27,1.17-42.59a3.42,3.42,0,0,1,0-2.34V77.48a2.22,2.22,0,0,0,.52.23c2.34-3.7,6.42-3.81,10.22-3.45,1.06-.24,2.13-.44,3.21-.62a4.23,4.23,0,0,1,3.72-4.39,76.25,76.25,0,0,0,10.89-2,3.3,3.3,0,0,1,2.41-2c1.76-.26,3.53-.38,5.31-.48l.73-.27a3.19,3.19,0,0,1,2.83.07c1.45-.09,2.9-.22,4.34-.45a4.2,4.2,0,0,1,.7,0c0-.88-.06-1.75-.11-2.62a2.21,2.21,0,0,1,.72-1.86,2.72,2.72,0,0,1,1.2-2.66,2.49,2.49,0,0,1,.17-.69A2.35,2.35,0,0,1-.11,54.45,2.41,2.41,0,0,1,2.36,56.9a3,3,0,0,1,.1.54c.47,5.93,1.3,11.74,1.23,17.7h0c.1,0,.21,0,.31-.09,0,.26,0,.51,0,.77l-.06,1a1.7,1.7,0,0,1,0,.22,12.48,12.48,0,0,1,.62,3.72c.19,6-.73,12.15-.69,18.19.09,16.42,1,32.82,1,49.24q0,16.56-.66,33.07c.8,15.54,1.51,31.07.35,46.59.33,9.44.78,18.89,1.4,28.32-.66,15.38-1.11,30.75-.1,46.13,0,.66.1,1.32.14,2-.2,1.84-.36,3.66-.48,5.47.07,1.08.12,2.16.18,3.24q.3,3.93.42,7.86Q6.55,330,7,339.21c.23,1.57.48,3.16.76,4.76a2.45,2.45,0,0,0,3,2.11l.09.62c4.85-.61,9.68-.68,14.63-.88,2.66-.11,5.32-.27,8-.44,6.14-1.14,12.26-2.42,18.43-3.45,10.22-1.7,20.56-2.15,30.85-3.16a3.19,3.19,0,0,0-.12-2,2.74,2.74,0,0,0,.54-1.18c.29-1.44.55-2.87.79-4.31C86,285.1,81.21,238.86,83.06,192.64ZM38.85,336.32l0-1.16a3.71,3.71,0,0,0,.57,1Z"/></g><g id="Layer_3" data-name="Layer 3"><path class="cls-2" d="M84.73,179.42c-.71-17-1.63-34.06-1.81-51.11-.06-6.06,0-12.13,0-18.18-.17-1.54-.28-3.08-.37-4.63-.24-3-.31-5.94-.33-8.93,0-4.39-.3-8.68.37-12.87,0-1.45.06-2.9.07-4.35a2.61,2.61,0,0,1-.08-.64c0-1.14,0-2.27,0-3.41,0-.76,0-1.52,0-2.28a2.64,2.64,0,0,1,.1-.82c.2-7.8.64-15.59,1.08-23.38,0-4.1,0-8.2.06-12.31a4.49,4.49,0,0,0-.44-.91C77.91,34,72.28,32.89,66.87,31c-.62-.22-1.25-.41-1.87-.62C57.57,29,50.15,27.42,43.22,24.64,36.77,23.35,30.35,21.83,24,20.15c-3.92-.78-7.83-1.52-11.76-2.13,3.46,11.24,3.32,23.22,2.62,34.84C14.28,62.27,13.6,71.6,13.23,81c0,2-.11,4-.2,6v.15c.92,12,1.41,24,1.6,36,.17,11,.55,21.79,1.75,32.78.79,7.34,1.45,14.77.67,22.09,1.48,8.46.93,17.38.54,25.86-.75,16.41,0,32.89.84,49.3.86,17.7,2.62,35.51,2.39,53.25-.1,8.11-.71,16.24-.51,24.35.12,5.1.87,10.38.18,15.47a75.09,75.09,0,0,1,9.64-.29h0c13.93-3.18,28.27-4.13,42.63-5.22q2.71-.6,5.45-1.13c3-.58,6-1.31,9.1-1.75a4.4,4.4,0,0,0,1-3.21q-2.76-43.87-4-87.84C86.17,224.44,85.67,201.88,84.73,179.42Z"/></g><g id="Layer_4" data-name="Layer 4"><path class="cls-3" d="M2.52,28l-.06-.18a2.8,2.8,0,0,0,0-.41,60.77,60.77,0,0,1-11.84.35h0C-39.2,31.17-68.6,38.13-97.93,44l-3.22.32a.51.51,0,0,0-.46.43l-.44,0a.5.5,0,0,0-.45.35.49.49,0,0,0,0,.95l.45.11q3.57,1.62,7.06,3.41a23.35,23.35,0,0,0,5.47,3.63A60,60,0,0,1-77.06,61c7.35,6.09,16.26,10,24.8,14.25a2,2,0,0,0,2.44,1.65q23.31-6,47.06-9.92a1.57,1.57,0,0,0,.23.09c1.93-.52,3.86-1,5.81-1.49-.11-1.33-.2-2.65-.28-4C2.6,50.39,5.22,39.15,2.52,28Z"/></g><g id="Layer_6" data-name="Layer 6"><path class="cls-4" d="M88.39,332.83c-1.38-10.6.3-21.4-.36-32.05-.58-9.51-1.17-18.9-1.22-28.4a1.33,1.33,0,0,0,.14-.19c-.06-2.15-.1-4.31-.1-6.46a712.92,712.92,0,0,1,.2-74,1.15,1.15,0,0,0,.23-.21c0-2.48,0-5,.07-7.46a.6.6,0,0,0-.13-.09q-1-18.06-1.77-36.12l-.36-8c0-.12,0-.24,0-.36-.07-1.52-.13-3-.18-4.55l.11,0c0-4,.26-8.1.56-12.15,0-3.79,0-7.58,0-11.38,0-2.58,0-5.2-.06-7.84-.07-.87-.14-1.75-.22-2.64a1.38,1.38,0,0,0,.17-.25c0-1.81,0-3.62,0-5.43-.13-3.38-.23-6.76-.28-10.14l0-.19a1.59,1.59,0,0,0,0-.76c-.21-16.14.38-32.29.89-48.43a1.3,1.3,0,0,0-.71-1.27,1.2,1.2,0,0,0-.36-.17,635.48,635.48,0,0,0-75.29-19A.57.57,0,0,1,9,15.6C3.65,13.76-2,14.24-7.55,13.39c-17.68,2-35.21,5.28-52.74,8.25l-55.86,9.46a2.11,2.11,0,0,1-.67.23c-.46.08-.94.15-1.41.21a2.32,2.32,0,0,1-.85.41c-1.87.51-3.8,1.31-5.77,1.72,0,0,0,.09,0,.14q-.41,20.2-.82,40.41a.24.24,0,0,0,0,.08c-1.53,15.56-.23,31.31.38,46.89a1.48,1.48,0,0,0,.28.84c-.46,17.71.26,35.57.63,53.31h-.18a163.62,163.62,0,0,1-.88,17.56.51.51,0,0,1,.07.36c-.13,1.07-.2,2.14-.24,3.2.17,2.44,0,4.91,0,7.36a.61.61,0,0,1-.07.28c-.15,3-.27,6-.22,8.9.1,7.77.55,15.52,1.27,23.25H-125a87,87,0,0,1-.33,12.51c.26,6.78.26,13.57.23,20.34l.22-.07c.13,23.7-.7,47.42.07,71.13a1.42,1.42,0,0,0,1.18,1.4c0,.08,0,.14.07.21,2.52.27,5,.44,7.57.62a44.47,44.47,0,0,1,9.08-.55h.23a1.42,1.42,0,0,0,.7.11,398,398,0,0,0,56.43-8.39,1.47,1.47,0,0,0,2.13-1.32c-.25-27.25-1.54-54.75,0-82a1.64,1.64,0,0,0,.3-.73,19.11,19.11,0,0,1-.42-2.57,25.44,25.44,0,0,1,0-3.6c0-1.18,0-2.37.09-3.55,0-.83,0-1.65,0-2.48a.62.62,0,0,1,.2-.49c.08-1.13.15-2.25.22-3.38-.17-2.37-.29-4.74-.32-7.12,0-3,.1-5.92.23-8.88a38.53,38.53,0,0,1-.21-11.19.6.6,0,0,1,.13-.3c-.38-12.79-.65-25.59-.88-38.38a1.3,1.3,0,0,0,.23-.15A51.82,51.82,0,0,1-48,155.23a.67.67,0,0,0-.11-.18q-1-15.42-1-30.87a2.22,2.22,0,0,0,0-.38q0-10.9.11-21.81c0-3.88.09-7.77.15-11.65s-.64-9,.24-13a1.64,1.64,0,0,0,.88-.51q25.07-4.07,49.84-9.65c.05,1.32.07,2.64.07,4a25.63,25.63,0,0,1,.4,7.41l.06,0c.49,7.55-.5,15.39-.55,22.87s.14,14.87.48,22.3a.74.74,0,0,0-.13.12,1.91,1.91,0,0,1,0,.48c-.08,1.26-.17,2.54-.26,3.82a2.47,2.47,0,0,1,.16.8c.15,5.55,0,11.09,0,16.64,0,3.39.29,6.75.19,10.11l.12.07q0,11.78-.06,23.56l-.09.1c0,1.13,0,2.26-.09,3.4s0,2.35-.08,3.52A2.39,2.39,0,0,1,2,187.42c.09,15.77,1.37,31.52,1.25,47.28a1.54,1.54,0,0,0-.33.88c-.76,10.36.56,20.49.55,30.73a1.39,1.39,0,0,0-.41,1q0,4,0,8.08l-.06.53a1.4,1.4,0,0,0,.06.59c0,20.38.81,40.75,1.45,61.11a1.41,1.41,0,0,0,.39,1,1.44,1.44,0,0,0-.4,1.45,17,17,0,0,1,1,3.83,2.12,2.12,0,0,0,.27.79,1.6,1.6,0,0,0,1.64,2.4,38.38,38.38,0,0,1,10.37-.49,2.76,2.76,0,0,1,2.3-.62,40.33,40.33,0,0,1,4.64,1c10.42-1.9,21.14-2.3,31.65-3.49s20.71-2.6,31-4.25a1.52,1.52,0,0,0,1.1-1.45c.11-1.29.21-2.58.32-3.87A1.25,1.25,0,0,0,88.39,332.83ZM-50.22,247.72c-1.75,27.54-.48,55.37-.19,82.94a391.24,391.24,0,0,1-55.54,8.27,1.61,1.61,0,0,0-.33.06l0,0c-2-20.29-2.19-40.8-2.69-61.21a1.45,1.45,0,0,0,.26-.81,612.42,612.42,0,0,0-2.36-76.86q1.17-37.22,1.47-74.43l.23-.11a59.71,59.71,0,0,1,.71-9.35q-.15-33.86.12-67.71,29.05,12.93,57.2,27.74c-.57,2.69-.37,5.5-.42,8.29q-.12,6.8-.21,13.59-.16,14.55-.16,29.11a1.61,1.61,0,0,0,.09.52q.15,16.85,1.44,33.65a1.32,1.32,0,0,0-.51,1.12c.31,17,.64,34,1.22,51-.69,5.33.12,10.64.07,16.07C-49.9,235.72-50.82,241.67-50.22,247.72ZM1.36,64.22c-2.28.52-4.56,1-6.84,1.49-.93.3-1.86.58-2.8.84a2.31,2.31,0,0,1-1.22,0q-19.28,4.08-38.73,7.26a1.09,1.09,0,0,0-.24-.24,3.69,3.69,0,0,1-.46-.08h-.75a2.2,2.2,0,0,1-1.57-.6Q-77.86,59-105.26,46.7C-70,42.3-35.59,31.22.18,30.76a1.71,1.71,0,0,0,.58-.12c1.77,7.91.37,15.47.6,23.53.1,3.36.36,6.7.56,10A1.79,1.79,0,0,0,1.36,64.22ZM19.33,327a2.32,2.32,0,0,1-.41,1.37q0,7.68.13,15.36a42.09,42.09,0,0,0-10.58.13,21,21,0,0,0-1.07-4.63,2.08,2.08,0,0,0-.32-.54,1.35,1.35,0,0,0,.43-1.08c-.66-20.73-1.44-41.47-1.45-62.22,1.2-11.36-.41-22.44-.34-33.74a1.4,1.4,0,0,0,.45-1C6.77,222.35,5,204.08,5,185.79a1.4,1.4,0,0,0,.51-1.11c.2-18.34.06-36.69,0-55a1.29,1.29,0,0,0,.26-.9C5.23,119,5,109.23,5.07,99.47c.09-8.48,1.25-17.23,0-25.64.32-7.19-.73-14.3-.76-21.51,0-8.17,1.16-15.71-1-23.75a1.49,1.49,0,0,0-2.47-.65,1.39,1.39,0,0,0-.7-.16q-3.63,0-7.23.23h-.08a2.85,2.85,0,0,0-.29,0C-42.4,29.86-76.16,40.79-111,44.35c-1.68.17-1.88,2.52-.59,2.93q-.28,33.84-.13,67.69v1.66l-.18.11c-.3,2.73-.56,5.45-.75,8.19q-.28,35.87-1.38,71.72l-.07.09a52.54,52.54,0,0,1,.11,5.76c0,1.18.08,2.36.16,3.54a2.2,2.2,0,0,0,.25.17,610.62,610.62,0,0,1,2,62.13,1.44,1.44,0,0,0-.25.18c0,.67.07,1.35.1,2s.09,1.63.08,2.46c.09,3.21.1,6.43-.1,9.64a.66.66,0,0,1-.18.43c.42,18.58.75,37.22,2.54,55.68-4.17.09-8.27,1.08-12.46,1-.81-25.72.22-51.45-.13-77.17-.2-3.13-.39-6.3-.45-9.48a46.52,46.52,0,0,1-.42-13.28c.28-3.4,0-7,.51-10.36-.43-6.13-.69-12.28-.74-18.43-.06-8.54,1.06-17.34.7-25.94l0,0a95.78,95.78,0,0,1,.47-15.92.65.65,0,0,1,.23-.44c-.33-13.74-.77-27.52-.59-41.24a.68.68,0,0,1-.14-.35c-.23-3.82.32-7.64-.19-11.45a.52.52,0,0,1,0-.31,1.1,1.1,0,0,0-.14-.09c-.57-12.37-1.3-24.81-.44-37.15a1.47,1.47,0,0,0,.27-.84q.44-21.37.88-42.75a1.51,1.51,0,0,0,1.27.34l59.21-10c18.33-3.1,36.66-6.52,55.15-8.61,1.7.11,3.42.19,5.15.28q3,.27,6,.69a1.29,1.29,0,0,0,.77.45c1.85.33,3.68.7,5.52,1.05,2.46,22.25.82,44.67,2.48,67-.31,12.52-1.6,24.93-.71,37.51,1.1,15.76,2.79,31.48,2.59,47.3a1.46,1.46,0,0,0,.06.44q.43,39.58,1.54,79.16a1.6,1.6,0,0,0,.2.72c-.1,10.43.05,20.85.51,31.27q.39,8.66,1,17.29c.41,5.47,1,10.88-.06,16.25A108.41,108.41,0,0,1,19.33,327Zm66.24,9.47q-16.48,2.61-33.07,4.41c-10.14,1.09-20.42,1.51-30.43,3.52q-.34-14.13,0-28.25a1.38,1.38,0,0,0-.18-.76c1.82-10.15-.49-21.31-1-31.41-.54-11.21-.71-22.43-.59-33.65-.23-1.69-.47-3.38-.6-5.07a15.31,15.31,0,0,1,.17-3.67q-.95-36.41-1.35-72.83a1.66,1.66,0,0,0,0-.32c0-15.14-1.53-30.19-2.59-45.28-.66-9.36-.12-18.62.33-27.91a2.61,2.61,0,0,1-.26-.91c-.52-5.65,0-11.27.21-16.92a2.28,2.28,0,0,1,.22-.94.19.19,0,0,1,0-.08,1.63,1.63,0,0,0-.33-.36c-.73-18.92.14-37.91-1.89-56.77A636.75,636.75,0,0,1,83,36.89C82.49,53,81.91,69.1,82.16,85.2A44.48,44.48,0,0,0,81.85,93c.15,3.91,0,7.88-.18,11.78q.43,7,1,13.89c-.27,3.69-.88,7.43-.88,11,0,6.75.43,13.52.73,20.26q.81,18.28,1.81,36.57s0,.06,0,.09a713.39,713.39,0,0,0-.41,80.76,1.79,1.79,0,0,0-.11.55c-.16,11.72.74,23.22,1.33,34.91.54,10.75-1.13,21.51.53,32.2,0,0,0,0,0,.06Z"/></g></svg>