<svg xmlns="http://www.w3.org/2000/svg" viewBox="0 0 135.13 350"><defs><style>.cls-1{fill:#808285;}.cls-2{fill:#6d6e71;}.cls-3{fill:#58595b;}.cls-4{fill:#ed1c24;}.cls-5{fill:#231f20;}</style></defs><title>Artboard 6</title><g id="Layer_2" data-name="Layer 2"><path class="cls-1" d="M217.65,192.64c0-1,0-2,0-3q-.44-7.62-.91-15.25c-.84-13.38-1.23-26.84.6-40.14q-.33-12.33-.48-24.67c.1-.71.22-1.41.33-2.12,0-1.22,0-2.45,0-3.67C216.17,98,215,92,217,86.76a1.43,1.43,0,0,0-.28.07q0-23.89.71-47.78a2.82,2.82,0,0,0-3.55-2.83,2.74,2.74,0,0,0-.38-1.43l-4.93-1.45c-6.4-1.49-12.77-3.14-19.12-4.88-2.64-.56-5.28-1.12-7.89-1.77-13.79-3.44-27.37-7.6-41.17-11-1.13-.16-2.26-.3-3.4-.42-13.57,2.13-27.37,3.15-40.9,5.44-5.16.87-10.35,1.37-15.55,1.83-1,.16-2,.34-3.05.49q-4.18.32-8.35.69C63.31,25,57.41,26,51.49,26.92c-9,2-18.08,3.17-27.12,4.73-4,1-8,2-12,3.2a3.23,3.23,0,0,0-.19.7c-.16,1.14-.29,2.29-.43,3.43a219.83,219.83,0,0,1-.68,35.08q.11,6.34.07,12.69c-.11,26-.45,52.09-1.36,78.12.22,1.49.45,3,.66,4.48q-.5,35.47.35,71a178.57,178.57,0,0,1,1,28.18v0c1,18.4-.36,36.81-.85,55.21L11,333a2.5,2.5,0,0,0-.21.35c0,1.75,0,3.5,0,5.25a3.42,3.42,0,0,0,.23.42v1.07a2.88,2.88,0,0,0,.44,1.53c1.71,0,3.42.07,5.14,0a.57.57,0,0,1,.56.34l.57.05c3.75-.42,7.52-.63,11.29-.83l53-9.44c-.79-25.78-.64-51.57-.58-77.36,0-16,.08-32,1.45-47.84q.66-40.86,1.34-81.74a2.87,2.87,0,0,0-.22-1.21q1.08-21.27,1.17-42.59a3.48,3.48,0,0,1,0-2.34c0-.42,0-.83,0-1.25a2.22,2.22,0,0,0,.52.23C88.11,74,92.19,73.9,96,74.26c1.06-.24,2.13-.44,3.21-.62a4.22,4.22,0,0,1,3.72-4.39,76.77,76.77,0,0,0,10.89-2,3.28,3.28,0,0,1,2.41-2c1.76-.26,3.53-.38,5.3-.48l.74-.27a3.19,3.19,0,0,1,2.83.07c1.45-.09,2.9-.22,4.33-.45a4.39,4.39,0,0,1,.71,0c0-.88-.06-1.75-.11-2.62a2.18,2.18,0,0,1,.72-1.86,2.73,2.73,0,0,1,1.19-2.66,2.5,2.5,0,0,1,.18-.69,2.35,2.35,0,0,1,2.37-1.78A2.41,2.41,0,0,1,137,56.9a3,3,0,0,1,.09.54c.48,5.93,1.3,11.74,1.24,17.7h0c.1,0,.21,0,.31-.09,0,.26,0,.51,0,.77l-.06,1c0,.07,0,.14,0,.22a12.48,12.48,0,0,1,.62,3.72c.19,6-.73,12.15-.69,18.19.09,16.42,1,32.82,1,49.24q0,16.56-.66,33.07c.8,15.54,1.51,31.07.35,46.59q.5,14.16,1.39,28.32c-.65,15.38-1.11,30.75-.1,46.13l.15,2c-.21,1.84-.36,3.66-.48,5.47l.18,3.24q.3,3.93.42,7.86.48,9.19.9,18.38c.24,1.57.49,3.16.77,4.76a2.45,2.45,0,0,0,3,2.11l.09.62c4.84-.61,9.68-.68,14.63-.88,2.66-.11,5.32-.27,8-.44,6.15-1.14,12.27-2.42,18.44-3.45,10.21-1.7,20.56-2.15,30.85-3.16a3.19,3.19,0,0,0-.12-2,2.73,2.73,0,0,0,.53-1.18c.3-1.44.56-2.87.79-4.31C220.63,285.1,215.8,238.86,217.65,192.64ZM173.44,336.32l0-1.16a4,4,0,0,0,.56,1Z"/></g><g id="Layer_3" data-name="Layer 3"><path class="cls-2" d="M85.4,312.38l-.69-5.24c.22-1.48.34-3,.42-4.48-.06-1.1-.13-2.19-.22-3.28-.34-4.1-.42-8.19-.36-12.27-.07-.78-.15-1.56-.22-2.34.1-.73.21-1.46.32-2.19.1-3,.24-5.95.37-8.93,0-1.42,0-2.83,0-4.24-.16-3.18-.3-6.37-.45-9.56a54.77,54.77,0,0,1,.17-9.59c.13-42.5.09-85-1.36-127.48.15-2.26.31-4.53.5-6.79.15-1.77.37-3.56.61-5.37-.24-10.07-.13-20.15-.12-30.23a2.35,2.35,0,0,1,.84-1.89s0-.11,0-.16a4.5,4.5,0,0,0-1.32-3.18,5.1,5.1,0,0,0-.74-.58,5.15,5.15,0,0,0-5.68-1.64l-5.52-3.23A225.41,225.41,0,0,0,48.77,54.27q-7.41-4.29-15.15-8c-.9-.44-1.82-.86-2.74-1.28-2.7.41-5.41.78-8.14,1.06,2.62,17.37-.18,35.73-1.5,53.1.83,26.44.66,52.91-.76,79.33.28,5.1.57,10.2.83,15.3,1.32,26,1.45,52.15,1.46,78.24a3.82,3.82,0,0,1,.6,2c.22,10.53-.05,21.08-.17,31.63a.67.67,0,0,1,.19.49v2.38a.61.61,0,0,1,.87.4c.92,3.74.26,7.61,0,11.41a151.86,151.86,0,0,1,1.07,19.07.69.69,0,0,1-1.25.34c.05.48.08.95.13,1.43,10.72-2.55,22.35-.86,33.23-2.68,7-1.17,13.9-2.72,20.81-4.23l.07-.06.07,0c2.23-.49,4.47-1,6.7-1.44a5,5,0,0,0,.52-.82C85.31,325.47,85.44,318.91,85.4,312.38Z"/><path class="cls-2" d="M10.88,334.26c0-2,0-4,0-6.05A45.26,45.26,0,0,0,10.88,334.26Z"/></g><g id="Layer_4" data-name="Layer 4"><path class="cls-3" d="M137.11,28l-.07-.18a1.89,1.89,0,0,0,0-.41,60.82,60.82,0,0,1-11.84.35h0C95.39,31.17,66,38.13,36.66,44l-3.23.32a.51.51,0,0,0-.45.43l-.44,0a.53.53,0,0,0-.46.35.49.49,0,0,0,0,.95l.44.11c2.38,1.08,4.73,2.22,7.07,3.41a23.35,23.35,0,0,0,5.47,3.63A60,60,0,0,1,57.53,61c7.35,6.09,16.26,10,24.8,14.25a2,2,0,0,0,2.44,1.65q23.31-6,47.06-9.92a1.57,1.57,0,0,0,.23.09q2.9-.78,5.8-1.49c-.1-1.33-.19-2.65-.27-4C137.19,50.39,139.81,39.15,137.11,28Z"/></g><g id="Layer_5" data-name="Layer 5"><path class="cls-3" d="M45.36,31,28.57,34.41c-3.15.64-1.82,5.46,1.33,4.82l16.79-3.38C49.84,35.21,48.51,30.39,45.36,31Z"/><path class="cls-3" d="M129.31,18.89q-12.33,1-24.61,2.5c-3.16.38-3.19,5.38,0,5q12.28-1.49,24.61-2.5C132.5,23.62,132.53,18.62,129.31,18.89Z"/><path class="cls-4" d="M61.16,31.74a3,3,0,0,0-.75-.67.41.41,0,0,0-.35-.42,5.67,5.67,0,0,0-.91-.07,3.12,3.12,0,0,0-.61,0,3.5,3.5,0,0,0-3.94,1.38.42.42,0,0,0,.09.58.55.55,0,0,0,.5.53l.65,0a1.46,1.46,0,0,0,1.21.07l3.76-.47A.51.51,0,0,0,61.16,31.74Z"/><path class="cls-4" d="M73.72,29.4a.47.47,0,0,0-.46-.56l-1.77-.14a.46.46,0,0,0-.21,0h-.11l-3.83-.31c-.43,0-.56.41-.41.72h-.17a.49.49,0,0,0-.7-.28l-.9.48a.45.45,0,0,0-.23.41l0,0a2.44,2.44,0,0,0-.3,2.1.51.51,0,0,0,.74.3c.37-.17.74-.32,1.12-.47a11.57,11.57,0,0,0,7.31-1.38A.5.5,0,0,0,73.72,29.4Z"/><path class="cls-4" d="M85.38,26.28a19.38,19.38,0,0,0-4.68.37c-.67.1-2,.12-1.86,1.13l-.55.21a.51.51,0,0,0-.22.84c1.76,1.73,5,.54,7-.2.63-.24,1.75-.48,1.73-1.33S86,26.34,85.38,26.28Z"/><path class="cls-4" d="M93.12,24.87c-.69.15-4.68,1.19-2.53,2.44a5.74,5.74,0,0,0,3.16.18,10.93,10.93,0,0,0,3-.85c.65-.08,1.4-.24,1.51-1C98.6,23.52,94.09,24.65,93.12,24.87Z"/></g><g id="Layer_6" data-name="Layer 6"><path class="cls-5" d="M223,332.83c-1.38-10.6.3-21.4-.36-32.05-.59-9.51-1.18-18.9-1.22-28.4l.14-.19c-.07-2.15-.1-4.31-.1-6.46a712.92,712.92,0,0,1,.2-74,1.51,1.51,0,0,0,.23-.21c-.06-2.48-.05-5,.07-7.46a1,1,0,0,0-.13-.09q-1-18.06-1.77-36.12c-.12-2.66-.25-5.33-.36-8,0-.12,0-.24,0-.36-.07-1.52-.14-3-.18-4.55l.11,0c0-4,.25-8.1.56-12.15,0-3.79,0-7.58,0-11.38,0-2.58,0-5.2-.06-7.84-.07-.87-.14-1.75-.22-2.64a2.2,2.2,0,0,0,.17-.25q0-2.72,0-5.43c-.13-3.38-.23-6.76-.28-10.14l0-.19a1.59,1.59,0,0,0-.05-.76c-.21-16.14.38-32.29.89-48.43a1.31,1.31,0,0,0-.71-1.27,1.33,1.33,0,0,0-.36-.17,635.15,635.15,0,0,0-75.3-19,.56.56,0,0,1-.68.21c-5.33-1.84-11-1.36-16.53-2.21-17.68,2-35.21,5.28-52.75,8.25L18.44,31.1a2.21,2.21,0,0,1-.67.23c-.46.08-.94.15-1.41.21a2.32,2.32,0,0,1-.85.41c-1.87.51-3.81,1.31-5.77,1.72,0,0,0,.09,0,.14Q9.3,54,8.89,74.22s0,0,0,.08c-1.53,15.56-.23,31.31.37,46.89a1.48,1.48,0,0,0,.29.84c-.46,17.71.26,35.57.62,53.31H10a158.6,158.6,0,0,1-.88,17.56.51.51,0,0,1,.08.36c-.13,1.07-.2,2.14-.25,3.2.18,2.44,0,4.91,0,7.36a.61.61,0,0,1-.07.28c-.16,3-.27,6-.23,8.9q.16,11.65,1.28,23.25H9.61a85.57,85.57,0,0,1-.32,12.51c.26,6.78.26,13.57.22,20.34l.23-.07c.13,23.7-.7,47.42.07,71.13a1.42,1.42,0,0,0,1.18,1.4c0,.08,0,.14.07.21,2.51.27,5,.44,7.57.62a44.47,44.47,0,0,1,9.08-.55h.23a1.38,1.38,0,0,0,.7.11,397.64,397.64,0,0,0,56.42-8.39,1.48,1.48,0,0,0,2.14-1.32c-.26-27.25-1.54-54.75,0-82a1.44,1.44,0,0,0,.3-.73,22.92,22.92,0,0,1-.42-2.57,25.44,25.44,0,0,1,0-3.6c0-1.18,0-2.37.09-3.55,0-.83,0-1.65,0-2.48a.66.66,0,0,1,.21-.49c.07-1.13.15-2.25.22-3.38-.17-2.37-.29-4.74-.32-7.12,0-3,.09-5.92.22-8.88a39.24,39.24,0,0,1-.21-11.19.6.6,0,0,1,.14-.3c-.38-12.79-.65-25.59-.89-38.38a1.94,1.94,0,0,0,.24-.15,51.82,51.82,0,0,1-.18-12.19.67.67,0,0,0-.11-.18q-1-15.42-1-30.87a2.22,2.22,0,0,0,0-.38q0-10.9.11-21.81c0-3.88.09-7.77.15-11.65s-.65-9,.24-13a1.61,1.61,0,0,0,.87-.51q25.07-4.07,49.85-9.65c.05,1.32.07,2.64.07,4a25.63,25.63,0,0,1,.4,7.41l.06,0c.49,7.55-.5,15.39-.55,22.87s.13,14.87.48,22.3a.74.74,0,0,0-.13.12,3.76,3.76,0,0,1,0,.48c-.08,1.26-.17,2.54-.26,3.82a2.47,2.47,0,0,1,.16.8c.15,5.55,0,11.09,0,16.64,0,3.39.29,6.75.19,10.11l.13.07q0,11.78-.06,23.56l-.09.1c0,1.13,0,2.26-.1,3.4s0,2.35-.07,3.52a2.53,2.53,0,0,1-.28,1.08c.08,15.77,1.37,31.52,1.25,47.28a1.55,1.55,0,0,0-.34.88c-.75,10.36.57,20.49.56,30.73a1.39,1.39,0,0,0-.42,1q0,4,0,8.08c0,.17,0,.35,0,.53a1.59,1.59,0,0,0,0,.59c0,20.38.81,40.75,1.46,61.11a1.37,1.37,0,0,0,.39,1,1.4,1.4,0,0,0-.4,1.45,17.5,17.5,0,0,1,1,3.83,2.12,2.12,0,0,0,.27.79,1.6,1.6,0,0,0,1.63,2.4,38.47,38.47,0,0,1,10.38-.49,2.75,2.75,0,0,1,2.3-.62,40.8,40.8,0,0,1,4.64,1c10.42-1.9,21.14-2.3,31.65-3.49s20.71-2.6,31-4.25a1.52,1.52,0,0,0,1.1-1.45c.11-1.29.21-2.58.32-3.87A1.28,1.28,0,0,0,223,332.83ZM84.37,247.72c-1.75,27.54-.49,55.37-.19,82.94a391.45,391.45,0,0,1-55.54,8.27,1.86,1.86,0,0,0-.34.06l0,0c-2-20.29-2.18-40.8-2.68-61.21a1.45,1.45,0,0,0,.26-.81,610.54,610.54,0,0,0-2.37-76.86q1.18-37.22,1.48-74.43l.23-.11a58.53,58.53,0,0,1,.71-9.35q-.16-33.86.12-67.71,29.06,12.93,57.2,27.74a43.08,43.08,0,0,0-.42,8.29c-.09,4.53-.15,9.06-.21,13.59q-.16,14.55-.16,29.11a1.61,1.61,0,0,0,.09.52q.14,16.85,1.43,33.65a1.34,1.34,0,0,0-.5,1.12c.31,17,.64,34,1.22,51-.7,5.33.12,10.64.07,16.07C84.68,235.72,83.77,241.67,84.37,247.72ZM136,64.22c-2.28.52-4.56,1-6.84,1.49-.93.3-1.86.58-2.8.84a2.35,2.35,0,0,1-1.23,0q-19.27,4.08-38.72,7.26a1.36,1.36,0,0,0-.24-.24,3.4,3.4,0,0,1-.46-.08h-.75a2.22,2.22,0,0,1-1.58-.6Q56.73,59,29.32,46.7C64.63,42.3,99,31.22,134.77,30.76a1.71,1.71,0,0,0,.58-.12c1.77,7.91.37,15.47.6,23.53.1,3.36.36,6.7.56,10A1.78,1.78,0,0,0,136,64.22Zm18,262.81a2.26,2.26,0,0,1-.42,1.37q0,7.68.14,15.36a42.09,42.09,0,0,0-10.58.13,20.5,20.5,0,0,0-1.08-4.63,1.81,1.81,0,0,0-.31-.54,1.35,1.35,0,0,0,.43-1.08c-.66-20.73-1.44-41.47-1.46-62.22,1.21-11.36-.4-22.44-.33-33.74a1.4,1.4,0,0,0,.45-1c.6-18.3-1.14-36.57-1.15-54.86a1.37,1.37,0,0,0,.51-1.11c.21-18.34.07-36.69,0-55a1.34,1.34,0,0,0,.26-.9c-.56-9.75-.82-19.51-.71-29.27.09-8.48,1.25-17.23,0-25.64.32-7.19-.73-14.3-.77-21.51,0-8.17,1.17-15.71-1-23.75a1.49,1.49,0,0,0-2.47-.65,1.42,1.42,0,0,0-.7-.16q-3.63,0-7.23.23h-.08a2.58,2.58,0,0,0-.29,0c-35,1.85-68.74,12.78-103.55,16.34-1.68.17-1.89,2.52-.59,2.93q-.3,33.84-.13,67.69v1.66a1.86,1.86,0,0,0-.19.11c-.29,2.73-.55,5.45-.74,8.19q-.28,35.87-1.38,71.72l-.07.09a50.17,50.17,0,0,1,.1,5.76c0,1.18.08,2.36.17,3.54l.24.17a610.62,610.62,0,0,1,2,62.13l-.24.18c0,.67.07,1.35.1,2S23,272.18,23,273c.09,3.21.1,6.43-.1,9.64a.62.62,0,0,1-.19.43c.43,18.58.75,37.22,2.55,55.68-4.17.09-8.28,1.08-12.46,1-.82-25.72.22-51.45-.14-77.17-.19-3.13-.38-6.3-.44-9.48a46.52,46.52,0,0,1-.42-13.28c.28-3.4,0-7,.51-10.36q-.66-9.19-.74-18.43c-.06-8.54,1.06-17.34.7-25.94l.05,0a94.71,94.71,0,0,1,.47-15.92.65.65,0,0,1,.23-.44c-.34-13.74-.77-27.52-.59-41.24a.68.68,0,0,1-.14-.35c-.23-3.82.31-7.64-.2-11.45a.75.75,0,0,1,0-.31.6.6,0,0,0-.13-.09c-.57-12.37-1.3-24.81-.44-37.15a1.47,1.47,0,0,0,.27-.84q.43-21.37.88-42.75a1.51,1.51,0,0,0,1.27.34l59.2-10c18.34-3.1,36.67-6.52,55.16-8.61,1.7.11,3.42.19,5.15.28q3,.27,6,.69a1.26,1.26,0,0,0,.77.45c1.84.33,3.68.7,5.52,1.05,2.46,22.25.82,44.67,2.48,67-.31,12.52-1.6,24.93-.72,37.51,1.11,15.76,2.8,31.48,2.6,47.3a1.2,1.2,0,0,0,.06.44q.43,39.58,1.54,79.16a1.48,1.48,0,0,0,.2.72c-.1,10.43,0,20.85.51,31.27q.39,8.66,1,17.29c.41,5.47,1,10.88-.07,16.25A108.42,108.42,0,0,1,153.92,327Zm66.24,9.47q-16.49,2.61-33.07,4.41c-10.14,1.09-20.42,1.51-30.44,3.52q-.33-14.13,0-28.25a1.47,1.47,0,0,0-.18-.76c1.82-10.15-.5-21.31-1-31.41-.54-11.21-.71-22.43-.59-33.65-.24-1.69-.47-3.38-.61-5.07a15.84,15.84,0,0,1,.18-3.67q-.94-36.41-1.35-72.83a1.65,1.65,0,0,0,0-.32c0-15.14-1.52-30.19-2.59-45.28-.66-9.36-.11-18.62.34-27.91a2.41,2.41,0,0,1-.26-.91c-.52-5.65,0-11.27.2-16.92a2.45,2.45,0,0,1,.23-.94v-.08a1.42,1.42,0,0,0-.33-.36c-.72-18.92.14-37.91-1.88-56.77a637.35,637.35,0,0,1,68.79,17.59c-.52,16.1-1.09,32.21-.84,48.31a43.53,43.53,0,0,0-.31,7.75c.15,3.91,0,7.88-.18,11.78.29,4.64.62,9.27,1,13.89-.27,3.69-.89,7.43-.88,11,0,6.75.43,13.52.72,20.26q.81,18.28,1.82,36.57a.29.29,0,0,1,0,.09,713.39,713.39,0,0,0-.4,80.76,1.54,1.54,0,0,0-.11.55c-.17,11.72.73,23.22,1.32,34.91.55,10.75-1.13,21.51.53,32.2l0,.06Z"/><path class="cls-5" d="M48.49,35.06a5.29,5.29,0,0,0,.07-2.1.37.37,0,0,0-.2-.07,2.62,2.62,0,0,0-2.11-2.38.3.3,0,0,0-.13,0l-.34,0a.45.45,0,0,0-.37.16q-7.95,1.48-15.85,3.19a.41.41,0,0,0,0-.16c-.67.13-1.36.21-2,.32-1.19.77-2.1,1.75-1.44,3.4.75,1.87,2.93,2.2,4.67,1.72a.42.42,0,0,0,.26-.2c4.18-.49,8.31-1.24,12.42-2.1C44.84,36.49,47.5,36.31,48.49,35.06Zm-1-1.42a1.78,1.78,0,0,1-1.73,1.74.41.41,0,0,1-.16,0,.7.7,0,0,1-.14,0h-.06l0,0c-.58.13-1.25.2-1.77.31-1.44.3-2.88.6-4.33.87C36.17,37.19,33,37.7,29.78,38a.46.46,0,0,0-.38.24A2.25,2.25,0,0,1,27,37c-.45-1.16.34-1.82,1.24-2.33a.49.49,0,0,0,.59.33q8.43-1.83,16.93-3.42a.48.48,0,0,1,.66-.17,4,4,0,0,1,.82.59.38.38,0,0,1,.12.17.5.5,0,0,1,.23.39c0,.24.08.47.1.72A.37.37,0,0,1,47.51,33.64Z"/><path class="cls-5" d="M62.73,31.16c-1.55-1.75-5-1.74-6.92-.83A2.18,2.18,0,0,0,54.34,32a1.39,1.39,0,0,0,.08.58h0a.5.5,0,0,0-.18,0c.13.33.27.66.41,1a19.66,19.66,0,0,0,4.9-.38c1-.21,2.82-.37,3.25-1.41A.51.51,0,0,0,62.73,31.16Zm-4.32,1.21a17,17,0,0,1-2.46.2.43.43,0,0,0-.24-.13c-.18-.67,0-1.07.53-1.19a3,3,0,0,1,.82-.3,6.2,6.2,0,0,1,4.61.6A9.47,9.47,0,0,1,58.41,32.37Z"/><path class="cls-5" d="M71.25,28c-2-.22-6.09.25-7.36,2.13a1.75,1.75,0,0,0-.25,1.33.49.49,0,0,0,.37.69.88.88,0,0,0,.15.12.37.37,0,0,1,.42-.21c.4,0,.8.07,1.19.09l0,0a32.11,32.11,0,0,0,3.37-.36c1.24-.21,3.3-.33,4.3-1.2C75.22,29,72.4,28.09,71.25,28Zm.8,2.08c-.67.61-2.91.67-3.77.79a29.26,29.26,0,0,1-3.09.26,1.4,1.4,0,0,1,1.07-1.32c.31-.11.62-.22.94-.31s.85-.24,1.28-.33C69.15,29,73.53,28.71,72.05,30Z"/><path class="cls-5" d="M84.23,25.84a13.58,13.58,0,0,0-4.16.39c-1,.22-2.39.47-3.08,1.39-1.09,1.46.22,2.46,1.69,2.3l.16-.05c2.28-.12,5.48.74,7.2-1.22C87.4,27.11,85.69,26,84.23,25.84Zm.26,2.57a5.63,5.63,0,0,1-1,.35,8.38,8.38,0,0,1-1.93.26c-1,0-2.05-.24-3.08-.12l-.15.05c-.11-.06-.12-.24,0-.57-.14-.64.18-.95.94-.94a10.64,10.64,0,0,1,1.09-.24,16,16,0,0,1,2.47-.38c.88-.05,1.8-.38,2,.73C85.18,28.07,85.07,28.36,84.49,28.41Z"/><path class="cls-5" d="M97,24.32c-1.74-.7-4.35.28-5.84,1.19-.47.28-1,.64-1,1.24a.84.84,0,0,0,.09.4.67.67,0,0,0-.06.12,2.86,2.86,0,0,1,.36.48.64.64,0,0,1,.06.18,10.25,10.25,0,0,0,6-.86C97.85,26.48,98.71,25,97,24.32Zm-2.9,2.57a9,9,0,0,1-2.48.15.42.42,0,0,0-.46-.39A5.75,5.75,0,0,0,92.3,26a8.22,8.22,0,0,1,1.61-.61,7.82,7.82,0,0,1,1.46-.25c.56,0,1.22-.26,1.21.43S94.85,26.73,94.13,26.89Z"/><path class="cls-5" d="M131.06,19a.4.4,0,0,0-.45-.25.48.48,0,0,0-.28-.11A103.85,103.85,0,0,0,108.5,20.5c-1.91.34-5.29.47-6,2.77a2.7,2.7,0,0,0,.75,2.83c.8.19,1.57.44,2.36.66l18.87-2.43c1.69-.22,5.09,0,6.51-1.17S131.63,20.32,131.06,19Zm-7.58,4.43-6.36.82-12.47,1.61,0,0c-3.41-1.63.19-3.59,1.75-4,.94-.22,1.92-.36,2.86-.53,2.51-.44,5-.83,7.55-1.12a91.57,91.57,0,0,1,13.45-.59C131.6,23.12,125.67,23.17,123.48,23.46Z"/></g></svg>