<svg xmlns="http://www.w3.org/2000/svg" viewBox="0 0 120 200"><defs><style>.cls-1{fill:#414042;}.cls-2{fill:#58595b;}.cls-3{fill:#808285;}.cls-4{fill:#231f20;}</style></defs><title>Artboard 2</title><g id="Layer_2" data-name="Layer 2"><path class="cls-1" d="M109.94,114.93a154.48,154.48,0,0,0-1-19.6c-.08-2.21-.18-4.41-.33-6.61,0-.52-.07-1-.11-1.55a104.93,104.93,0,0,0-1-13.91,40.12,40.12,0,0,0-1-4.79c-.25-1.4-.53-2.79-.86-4.16-1.35-5.7-3.91-10.89-8.9-14.06-2.83-2.6-6.15-4-9.89-3a48.62,48.62,0,0,0-13-1.78c-9.15-.19-18.13,1.81-27.2,2.61-7.78.69-16.19-1.19-23.42,2.31a.5.5,0,0,1-.07.8,40.57,40.57,0,0,0-3.5,2.3l-1.69,1.35c-.15.12-.28.26-.42.38-.72.88-1.41,1.77-2,2.71a.49.49,0,0,1-.53.21l-.09.14c-.28.42-.55.85-.79,1.3h0c-4.86,8.5-5.86,19.65-6.68,29.14a281.14,281.14,0,0,0-1.21,29,155,155,0,0,0,.32,22.8C7.08,147.25,7.7,156.77,11,164a5,5,0,0,1,.71,1.84l.06.1.46,1a7,7,0,0,1,.68,1.23c.22.53.43,1.07.63,1.61.06.14.12.27.19.4a15.9,15.9,0,0,0,5,4.24c5.25,3,10.51,6.39,16.27,8.3,11.46,7.17,26.31.84,39-.21a72,72,0,0,0,20.85-4.37c3.51-1.36,7.37-2.91,9.34-5.63a11.81,11.81,0,0,0,1.63-1.75c3.7-5,3-12.83,3.29-18.67a177.51,177.51,0,0,0,.17-18.88A165.8,165.8,0,0,0,109.94,114.93Z"/></g><g id="Layer_3" data-name="Layer 3"><path class="cls-2" d="M109.56,124.55c-.19-13.89-.71-27.85-2.09-41.67-.25-2.58-.58-5.16-1.06-7.71a43.65,43.65,0,0,0-2.9-14.31c-3.74-9.18-12.23-16.47-22.57-15.65a4.77,4.77,0,0,0-.71.12c-5.61-1-11.46-.86-17.13-.51-8.52.52-17,1.13-25.56,1.72q-4,.6-8,1.24c-.71.23-1.42.5-2.13.77A49.83,49.83,0,0,0,22.72,51c-.87.81-1.71,1.68-2.66,2.41-.31.24-.63.46-.94.69-1,1-2.05,2-3.15,2.88a.54.54,0,0,1-.26.11l-.56.75a5,5,0,0,0,1.74.29,30.08,30.08,0,0,1,22.33,9.45A206.8,206.8,0,0,1,39,89.84c1.35,16.62.64,33.18-.31,49.81-.7,12.48.37,25.18-.77,37.62-.1.12-.18.25-.28.37q.33,3.38.48,6.75a4.63,4.63,0,0,0,2,.77c13.18,2.12,27.05-.08,40.15-1.94L82,183a.48.48,0,0,1,.32-.37c2.54-.88,5.16-1.38,7.75-2,2.31-.58,4.51-1.45,6.76-2.21l.14-.13a.49.49,0,0,1,.52-.09L98,178a.44.44,0,0,1,.53.2,15.17,15.17,0,0,0,6.85-6.89,7.65,7.65,0,0,0,3.09-5c1.17-6.37.79-13.38,1-19.84Q109.71,135.49,109.56,124.55Z"/></g><g id="Layer_4" data-name="Layer 4"><path class="cls-3" d="M25.3,99.71a2,2,0,0,0-1.83-1.58A4.33,4.33,0,0,0,21,98.8a5.19,5.19,0,0,0-2.23,2.78c-4.41,7-4.45,17.43,1.13,23.54.81.89,2.72.25,2.56-1.06-1-7.83-1.8-15.88,3.05-22.66A1.28,1.28,0,0,0,25.3,99.71Z"/><path class="cls-3" d="M41,27.88c0-4,0-7.94,0-11.9,0-2,.23-3.45-1.33-4.79a1.49,1.49,0,0,0-1.3-.34,1.51,1.51,0,0,0-1.46,1.43c0,.28-.05.55-.08.83A1.31,1.31,0,0,0,36,14.43L36.2,23q-.27,7.41.1,14.81a86.12,86.12,0,0,0,.61,14.87v0h0l.06.4c.22,1.52,2.47,1.32,2.88,0a1.39,1.39,0,0,0,1.72-1.42Q41.15,39.78,41,27.88Z"/><path class="cls-3" d="M63.67,12.89a2.36,2.36,0,0,1,.14-.61c-.11-.52-.21-1-.28-1.57a1.49,1.49,0,0,0-.76,0,2.39,2.39,0,0,0-1.22.7,1.52,1.52,0,0,0-2,1.36q-.69,18.31-.92,36.64c1.48-.37,3-.73,4.48-1,0-.16-.07-.32-.1-.49a1.41,1.41,0,0,0,.83-1.28c.25-7,.26-14.08.09-21.12A51.32,51.32,0,0,1,63.67,12.89Z"/><path class="cls-3" d="M77.45,47.18a16.32,16.32,0,0,0-11.73-5.1A33.89,33.89,0,0,0,47.5,46.2a15.41,15.41,0,0,0-1.75,2.27,1.32,1.32,0,0,0-.16.61,8.07,8.07,0,0,0-.86,1.09c-.16.17-.33.33-.48.51a1.45,1.45,0,0,0-.39,1.16c0,.13-.11.24-.16.37-.47,1.37,1.57,2.63,2.51,1.46a27.19,27.19,0,0,1,4.31-4.27C56.5,47,62.64,45.23,69,47.1a1.29,1.29,0,0,0,.91.8l.46.1.19,0a22.28,22.28,0,0,1,3.91,1.26,1.54,1.54,0,0,0,2-.56l.6.28A1.51,1.51,0,0,0,79,48.64Z"/></g><g id="Layer_5" data-name="Layer 5"><path class="cls-1" d="M65.84,6.31C63.3,3.82,56.74,4.79,53.6,5c-5.72.3-12.26,0-17.85,1.2-2,.44-4.37,2.1-3.35,4.53a2.67,2.67,0,0,0,1.26,1.38,1.43,1.43,0,0,0,.64.32,13.76,13.76,0,0,0,1.43.24c.11.3.2.61.32.9a2.48,2.48,0,0,0,2.67,1.4,3,3,0,0,0,2.58-1.37,2.74,2.74,0,0,0,.33-1c2.07-.23,4.13-.58,6.09-.82,1.17,0,2.34,0,3.5,0,1.94,0,4.72.16,7.42,0a2.7,2.7,0,0,0,.08.41c.35,1.15,1.43,1.43,2.49,1.51a2.39,2.39,0,0,0,2.52-1,2.44,2.44,0,0,0,.2-1.36,2.6,2.6,0,0,1,0-.4,8,8,0,0,0,1.35-.59C67,9.35,67.27,7.71,65.84,6.31Z"/><path class="cls-1" d="M22.77,172a1.51,1.51,0,0,0-1.82-.23,5.45,5.45,0,0,0-.63.52,4.73,4.73,0,0,0-.31-.43,4.06,4.06,0,0,0-4-1.18,1.25,1.25,0,0,0-1,0A5.86,5.86,0,0,0,12,173.43a.54.54,0,0,1,.06.34,9,9,0,0,0,0,3.8c.13.48.28,1,.44,1.44a.42.42,0,0,1,0,.4,9.17,9.17,0,0,0,1,2q.22.31.45.6a5.5,5.5,0,0,0,1.2.44,6.64,6.64,0,0,0,6.79-3.16C23.12,177.39,24.61,173.88,22.77,172Z"/><path class="cls-1" d="M46.14,186h-.09a1.63,1.63,0,0,0-.69-.17,1.49,1.49,0,0,0-2-.21,1.32,1.32,0,0,0-.56,0h0a2.77,2.77,0,0,0-.6-.41,2.82,2.82,0,0,0-1-.24,11.41,11.41,0,0,0-1.87-.52,6.47,6.47,0,0,0-1.63-.72,1.49,1.49,0,0,0-2.33-1.81l-.67.65a1.38,1.38,0,0,0-.23.36,1.53,1.53,0,0,0-.29.5c-1.05,2.93,0,7.18,2.95,8.67a6.65,6.65,0,0,0,7-.74,3.93,3.93,0,0,0,1.43-1.38,5.52,5.52,0,0,0,1.61-2.11A1.51,1.51,0,0,0,46.14,186Z"/><path class="cls-1" d="M104.84,172.51a13.19,13.19,0,0,0-1.12.85.2.2,0,0,1-.09,0,.42.42,0,0,1-.12.51c-.21.18-.39.38-.59.56l0,.15,0,0-.8,1c-1.12,1-2.9,1.44-3.92,2.64a3.78,3.78,0,0,0-.58,1,.44.44,0,0,1,.4.47c0,.1,0,.2,0,.29a.61.61,0,0,1,.47.35,17.62,17.62,0,0,0,1.94,4.25,10.6,10.6,0,0,0,3.24,2.21,9.83,9.83,0,0,0,2-.12C112.51,185.55,111.28,172.72,104.84,172.51Z"/><path class="cls-1" d="M92.78,65.77c-1.46,0-2.92.13-4.37.25a.85.85,0,0,0-.89-.61,79.7,79.7,0,0,0-8.63,1.25.77.77,0,0,0-.85-.45l-.27,0h0c-7,.93-16.72,2.46-22.16,7.57-.08.07-.18.14-.26.22l-.08,0c-2.74,2-3.4,4.64-3.38,7.85a1,1,0,0,0-.8.91c-.35,4.25-1.18,12.29,1.9,15.89,1.28,1.51,3.23,2.16,4.63,1.21A1,1,0,0,0,58.8,99l0-.87a.94.94,0,0,0-.66-.91c-.41-1.07-.83-2.13-1.24-3.2a.35.35,0,0,0,0-.08c-.59-4.22-.88-8.47-1.1-12.72l.18-.55c.2-.54.42-1.08.65-1.61a.85.85,0,0,0,.08-.37c1.84-1.64,3.74-3.22,5.71-4.7a.88.88,0,0,0,.24-.27L74.51,70.5A77.34,77.34,0,0,1,88.64,68a1,1,0,0,0,.82.23l3.59-.51C94.17,67.57,93.89,65.73,92.78,65.77Z"/><path class="cls-1" d="M96.53,107c-1.67-3.57-3.59-4.31-7.35-3.67a127.35,127.35,0,0,0-13.52,3.3,74.71,74.71,0,0,0-12.38,2.54,1.07,1.07,0,0,0-1.08-.41,10,10,0,0,0-3.11,1.15,4.87,4.87,0,0,0-4.34.89,4.63,4.63,0,0,0-3.08,2.47,9,9,0,0,0-.48,3.9c0,2.38,0,4.77,0,7.16a.89.89,0,0,0,.19.55c-.6,3.4-.74,6.76.24,9.49a1.61,1.61,0,0,0,.15.26c0,1,0,2.07,0,3.11a.93.93,0,0,0-.13.52q.42,8,1.46,15.82a.8.8,0,0,0-.31,1c.71,1.83.21,3.68.27,5.59a21.52,21.52,0,0,0,1,5.4c.67,2.24,1.21,4.7,3.4,5.72a7.47,7.47,0,0,0,.54.85c.63.85,2.2.4,1.83-.77-.69-2.22-1.39-4.44-2.08-6.66,0-.06-.06-.09-.08-.14-.4-3.14-.78-6.27-1.13-9.41a.88.88,0,0,0,.07-.47l-.81-8a.85.85,0,0,0,.24-.69,159.06,159.06,0,0,1,0-24.21q.21-1.47.45-2.94c.39-1.22.73-2.46,1-3.71a17.69,17.69,0,0,1,2.76-2.71l9.87-2.48c7.55-.84,15.37-3.59,22.86-3.21h0a6.86,6.86,0,0,1,2.14,1.12C96.08,108.91,96.93,107.8,96.53,107Z"/></g><g id="Layer_6" data-name="Layer 6"><path class="cls-4" d="M105.8,172.37a15.5,15.5,0,0,0,2-3.53,12.79,12.79,0,0,0,1.28-3.43l.06,0c.11-.69.24-1.36.4-2h0q.9-25.44,1.09-50.89a11.06,11.06,0,0,1-.07-2.57.31.31,0,0,0-.09-.11,50,50,0,0,0-.2-8.47c-.82-7-1.72-13.75-1.92-20.73,0,0,0,0,0-.07a44,44,0,0,1,0-5.39,55.48,55.48,0,0,0-2.44-11.25c-.33-.62-.62-1.25-.89-1.89-.17-.39-.33-.77-.46-1.15-.61-1.35-1.23-2.7-1.85-4a.4.4,0,0,0-.36-.25c-.07-.12-.12-.25-.19-.37a.39.39,0,0,0-.22-.36,20.14,20.14,0,0,0-1.5-2.15c.33.31.65.65,1,1-.14-.18-.27-.37-.42-.54a18.5,18.5,0,0,1-1.39-1.66c-.17-.25-.32-.5-.48-.75l-.45-.52A22.5,22.5,0,0,0,90.92,47a.54.54,0,0,1-.23-.15c-5-1.58-10.58-2-15.67-2.49a.4.4,0,0,0-.45.29A21,21,0,0,0,64.64,42c-.2-5-.51-10-.58-15s.15-9.64-.13-14.51a2.64,2.64,0,0,0,.23-1.73l.29-.08a.47.47,0,0,0,.28-.25c1.71-.63,3.49-1.88,2-3.72A6.59,6.59,0,0,0,63,4.54l-.41,0a5.67,5.67,0,0,1-1.35-.17h0a12.37,12.37,0,0,1-1.61,0h0c-4,0-8,.7-12.05.67a72.9,72.9,0,0,0-10.77.46c-.77.26-1.54.56-2.29.87C33.08,7,31.87,7.9,31.91,9.7a3,3,0,0,0,1,2.3,2.48,2.48,0,0,0,1.62.72l.24,0a.55.55,0,0,1,.53.47,3,3,0,0,0,.42.51.49.49,0,0,0-.3.42,23.48,23.48,0,0,0,.35,3.64c.11,1.47,0,3,0,4.46l-.08,7.21a.48.48,0,0,1,0,.18c0,1.26-.1,2.52-.18,3.78.1,4.33.23,8.65.51,13a30.91,30.91,0,0,0-16.77,7c-.79.87-1.53,1.79-2.34,2.59a.49.49,0,0,1-.32.14c-.13.15-.27.3-.4.46l-.06,0A53.73,53.73,0,0,0,13,61c-3,6-4,12.71-5.33,19.37h0c-.17,1.74-.6,3.46-.63,5.22a.75.75,0,0,1,0,.16q-.43,5.86-.88,11.72a123,123,0,0,0-.6,15.1l0,0a36.33,36.33,0,0,1-.17,5.9.81.81,0,0,1-.07.22c-.11,2.85-.3,5.69-.37,8.54-.1,3.87.35,7.71.49,11.57,0,.35.09.7.13,1a15.13,15.13,0,0,1,.37,1.75c.08.61.12,1.23.14,1.85a123.55,123.55,0,0,0,3.28,17.87.64.64,0,0,1,.11.25c.23,1.11.73,2.16,1,3.26.17.61.37,1.21.58,1.81a29.77,29.77,0,0,0,1.89,3.63.66.66,0,0,1,.08.52l.09,0-.11.11a.76.76,0,0,1-.38.41,8.2,8.2,0,0,0-1.29,4c-.25,2.2.29,4.83,2.11,6.28,3.48,2.77,9,.27,9.24-4,.38.25.75.51,1.13.73a78.52,78.52,0,0,0,9.92,4.37c-.91,1.58-.15,4.2.44,5.73A7.5,7.5,0,0,0,38.41,193c4.24,1.53,9.91-1.89,8.73-6.7l0-.08c6.33.7,12.8.07,19.15-.79,9.52-1.3,19.06-2.79,28.28-5.55a11.3,11.3,0,0,0,1.86-1,.34.34,0,0,1,.12-.06.49.49,0,0,1,.52,0,.45.45,0,0,0,0-.2l.67-.29a6.89,6.89,0,0,0,2.58,6.88c2,1.58,5.38,2.45,7.63.8C111.73,183.16,111.3,172.77,105.8,172.37ZM77.45,48.81a12.39,12.39,0,0,1-5-1,28,28,0,0,0-4-1.6,21.17,21.17,0,0,0-8.67-.66c-5.09.67-10.32,3.26-13.39,7.47a.49.49,0,0,0-.22.33.44.44,0,0,0,0,.15A7.55,7.55,0,0,1,44,53.09c2.41-6.66,8.1-9.56,14.69-10.05a9.41,9.41,0,0,1,2.75-.19C67.38,42.88,73.92,43.53,77.45,48.81ZM63.31,48c-.5.41-1.52.3-2.16.34a5.42,5.42,0,0,1-1.69.09C59,48.16,59,47.22,59,46.68a20.44,20.44,0,0,1,3.87-.33l.79,0C63.68,47,63.76,47.58,63.31,48ZM41.6,24.27c.12-1.56-.14-3-.16-4.58a23.21,23.21,0,0,0-.18-4.93.43.43,0,0,0-.44-.35A4.65,4.65,0,0,0,42,13.19a.67.67,0,0,0,.06-.12,84.32,84.32,0,0,1,16.18-1.29,2.59,2.59,0,0,0,.67,1.16c-.1,2.91-.17,5.83-.24,8.75h0c0,.31,0,.63-.05.94a9.07,9.07,0,0,1,0,1c0,.55-.11,1.09-.18,1.64l0,1.14a.49.49,0,0,0,0,.17l-.21,15a.43.43,0,0,0,.26.43A17.45,17.45,0,0,0,49,44.94l-.3.23a.47.47,0,0,0-.09,0,.54.54,0,0,1-.26.17,9.13,9.13,0,0,1-3,.32c-1,.07-1.94.12-2.92.1h0a.55.55,0,0,1-.37-.14.38.38,0,0,0-.3.08c-.11-2.88-.24-5.77-.4-8.65a.41.41,0,0,0,.07-.28A96.11,96.11,0,0,1,41.6,24.27Zm-4.79-6.18c-.05-1.31-.43-2.6-.36-3.9a5.44,5.44,0,0,0,2,.64,3.66,3.66,0,0,0,1.89-.18.48.48,0,0,0-.06.38c.41,1.84.05,3.61.16,5.46a30.7,30.7,0,0,1,.07,4.6,85.38,85.38,0,0,0-.1,11.31.31.31,0,0,0-.06.13,16.14,16.14,0,0,1,.07,2q.38,6.86.56,13.72a7.68,7.68,0,0,1-3.24,1.46h0c-.83-7.06-1-14.16-1.19-21.26a.38.38,0,0,0,.09-.13c0-.51,0-1,.06-1.52l.1-8.6C36.8,20.82,36.86,19.45,36.81,18.09Zm5.11,28.64a35,35,0,0,0,5.22-.26,16.16,16.16,0,0,0-3.67,5.3s0-.06,0-.09c-.21-.5-.75-.52-1.14-.81a.42.42,0,0,0-.36-.08c0-1.37-.09-2.73-.14-4.1C41.85,46.7,41.87,46.73,41.92,46.73ZM63.18,11.49a2.12,2.12,0,0,1-.2.6l0,0a1.71,1.71,0,0,1-.13.23,2.31,2.31,0,0,1-1.54.53,2.45,2.45,0,0,1-.72-.09l-.13,0h0a.38.38,0,0,1-.22,0,1.19,1.19,0,0,1-.44-.21.47.47,0,0,1-.22-.4h0a1.71,1.71,0,0,1-.29-.59,28,28,0,0,0,4-.54h0S63.16,11.16,63.18,11.49ZM59.43,25l0,0a15.06,15.06,0,0,1,.21-2.75c0-.12,0-.25,0-.37.07-2.75.14-5.51.23-8.26a3.45,3.45,0,0,0,1.92.23A3.74,3.74,0,0,0,63,13.45c.19,4.53,0,9,.09,13.52.07,5,.38,10,.58,14.93-1.34-.06-2.67-.06-4,0a.44.44,0,0,0-.34.15H59a.46.46,0,0,0,.23-.4Zm-25-13.31a1.55,1.55,0,0,1-.61-.24,2.16,2.16,0,0,1-1-1.94c0-1.7,2.16-2.45,3.51-2.94a.47.47,0,0,0,.21-.15,39.61,39.61,0,0,1,6.42-.67c1.83,0,3.65.23,5.49.18,3.64-.08,7.24-.68,10.88-.67a11.52,11.52,0,0,1,1.66,0,.36.36,0,0,0,.17-.07,12.47,12.47,0,0,1,3.18.84A3.46,3.46,0,0,1,66.2,7.59c.27.82-.48,1.33-1.25,1.67a.57.57,0,0,1-.21.15c-.31.12-.62.22-.93.31l-.08.08a22.64,22.64,0,0,1-4.48.73,13.68,13.68,0,0,1-1.68.18l-.07.07a85.57,85.57,0,0,0-16,1.38.43.43,0,0,0-.33.58,2.6,2.6,0,0,1-2.91,1A3.35,3.35,0,0,1,36.52,13c.78,0,1.56,0,2.35,0s.64-1,0-1-1.16,0-1.74,0a.49.49,0,0,1-.27,0l-.12,0c-.21,0-.43,0-.64,0l0,0A3.62,3.62,0,0,1,34.48,11.7Zm1.66,35.61c.11,1.53.23,3.07.39,4.6-1.49.37-2.89,1.57-1.64,3.17.93,1.19,3,1.39,4.71,1a3.27,3.27,0,0,0,2.31-.28,3.66,3.66,0,0,0,.52-.28,8.32,8.32,0,0,0,1,.23c1.08.2,3.2.44,4.16-.29S48,54,47.43,53.35A18.31,18.31,0,0,1,58,46.88c0,.1,0,.2,0,.31-1.16.26-2.67,1.27-2.07,2.65.78,1.79,4,1.72,5.52,1.55s4.39-.37,5.07-2c.54-1.33-.69-2.25-1.86-2.37,0-.18,0-.35,0-.5A23.22,23.22,0,0,1,72,48.66l.06,0a3.21,3.21,0,0,0-.64.78.29.29,0,0,0,0,.1.63.63,0,0,0-.1.12c-1.1,2.12,5,1.65,5.81,1.53s2.71-.29,2.85-1.54c.11-1-.83-1.38-1.65-1.44a12.31,12.31,0,0,0-2.61-2.8c5.33.47,11.26,1,16.27,2.89h0l.14.05h0l.24.07a12.67,12.67,0,0,1,3.12,1.34,49,49,0,0,1,5,5.72c-10.87-1.9-21.84-.09-32.63,1.71-10.18,1.7-20.52,3.71-29.32,9.39a.63.63,0,0,0-.27,0c-5.13-6.28-13.77-8.72-21.66-8.93C21.28,51.46,28.47,48.24,36.14,47.31Zm-22.58,133a6.11,6.11,0,0,1-1.3-4c0-1.34.34-4.07,1.74-4.87a13.81,13.81,0,0,0,1.58,1.18c-.72,2.08-1.29,4.86-.46,7a5.18,5.18,0,0,0,1.6,2.18A4.24,4.24,0,0,1,13.56,180.31Zm5.23,1a.43.43,0,0,0-.24,0c-2,.25-2.71-2.6-2.75-3.93a11.39,11.39,0,0,1,.31-3,.35.35,0,0,0,0,.13c.83,2.1,1.71,5,3.87,6.11A5.12,5.12,0,0,1,18.79,181.34Zm6.3-3.44A47.19,47.19,0,0,1,19.47,174c-1.54-1.12-3.28-2-4.71-3.22a3.08,3.08,0,0,0-.2-.47,36.16,36.16,0,0,1-3.39-6.15c-2.75-8.45-3.79-17.36-4.77-26.19,0,0,0-.07,0-.11-.17-3.51-.54-7-.45-10.55.12-4.56.55-9.1.42-13.67,0,0,0,0,.08-.07s0-.11,0-.17a9.26,9.26,0,0,1-.07-1.05c0-1,.09-2,.12-3,0-4,.38-7.88.67-11.83L8.31,82a.49.49,0,0,0,.12-.24c1.61-7.6,2.45-15.29,6.43-22,.16-.55.56-1.16,1.17-1.11l.18,0c7.74.14,16.62,2.48,21.53,8.85a.54.54,0,0,0,.28.18c1.54,4.32,1,9.58.69,14.28a.45.45,0,0,0-.08.26c0,.34,0,.68,0,1s0,.67,0,1a.51.51,0,0,0,0,.22c0,5.19-.07,10.42.32,15.59a114.49,114.49,0,0,1,.52,15.7.53.53,0,0,0-.19.36c-1.15,12.6-1.2,25.24-1.22,37.87a.48.48,0,0,0,.05.22q-.09,14.59-.48,29.17h0C33.56,181.34,29.11,180,25.09,177.9Zm16.15,14.33c-3.87-.64-4.81-4.58-3.7-7.83a.46.46,0,0,0,.47-.09.42.42,0,0,0,.12,0,.41.41,0,0,0,.28-.1,38.31,38.31,0,0,0,7.88,1.83.47.47,0,0,0-.12.45C47,189.7,44.15,191.93,41.24,192.23Zm56.11-14.9A11.11,11.11,0,0,1,94,178.76a.41.41,0,0,0,0,.19,181.16,181.16,0,0,1-26.23,5.22c-9.68,1.37-19.68,2.41-29.1-.9q.42-15.35.5-30.7a.53.53,0,0,0-.06-.24c0-11.51.11-23,1.07-34.5a.51.51,0,0,0,.21-.37c.54-5.89,0-11.56-.4-17.42-.42-5.57-.28-11.22-.33-16.81.22-5.08,1.06-10.91-.63-15.73C47.5,62,57.45,60,67.28,58.34c11.18-1.88,22.63-3.88,33.91-1.69l.11.21,0,0a4,4,0,0,1,1.15,2l1.5,3.29a3.42,3.42,0,0,1,.54,1.1l.06.08a54.37,54.37,0,0,1,2.89,14.34.44.44,0,0,0-.21.39c0,7.88,1.07,15.43,2,23.23a61.1,61.1,0,0,1,0,11.79c0,1.18,0,2.35,0,3.53a31.6,31.6,0,0,1,.2,8l.06,0q-.28,19.7-1,39.38l-.12,0a7.61,7.61,0,0,1-.92,3.35c-.38.87-.83,1.7-1.06,2.17a11.89,11.89,0,0,1-3.67,4.36A30,30,0,0,1,97.35,177.33Zm8.82,8.39-.18,0a.5.5,0,0,0-.39-.25c-4.87-.53-5.28-6.76-3.15-10a25.56,25.56,0,0,0,2.63-2.27s0,0,0,0a.48.48,0,0,0,.38.2c2.87,0,3.8,4.19,3.9,6.31C109.51,182,108.68,185,106.17,185.72Z"/><path class="cls-4" d="M25.36,102.69c1.47.29,2.29-.94,2.2-2.32a6.49,6.49,0,0,0-2-4.08,2.63,2.63,0,0,0-3.47-.53c-.6.45-1.33,1.73-.66,2.35-4.5,3.06-5.89,9.08-6.44,14.19-.4,3.74.83,11.35,4.73,13.47-.32,1-.09,2.18,1.17,2.39,1.46.24,3.17-1.31,4.05-2.32s1.6-2.78.8-4.13c-.7-1.16-1.75-.69-2.61,0a24.12,24.12,0,0,1,2.1-19.08A.51.51,0,0,0,25.36,102.69Zm-3,19.88a.43.43,0,0,0,.1.29c.08.24.16.47.25.71a4.56,4.56,0,0,1-1.87,1.64h0c-2.74-.84-3.68-4.86-4.26-7.24a16.73,16.73,0,0,1-.33-7.11c.73-4.17,1.72-8.77,5.19-11.49a.55.55,0,0,0,.24-.07h0a.51.51,0,0,1,.13-.09c.34-.3.69-.61,1.15-.47s.54.46.83.74.64.42.79.77a2.44,2.44,0,0,1,0,1.14.43.43,0,0,0,.06.28A25,25,0,0,0,22.35,122.57Z"/><path class="cls-4" d="M98,72.72c-.71-3.63-2.47-6.87-6.39-7.57-4.75-.86-10.49.69-15.16,1.58-6,1.12-12.28,2.34-17.88,4.72a13.41,13.41,0,0,0-6.58,5.46h0c-.3,1.14-.63,2.25-1,3.37a10.67,10.67,0,0,0,0,1.14,67.71,67.71,0,0,0,.27,12.82c.43,3.29,1.88,6.15,5.5,6.41a38.28,38.28,0,0,0,7.54-.71c2.74-.36,5.48-.79,8.2-1.29a164.82,164.82,0,0,0,17.29-4.17c4.15-1.24,7.55-2.59,8.48-7.24A38.7,38.7,0,0,0,98,72.72ZM97.5,84.57c-.24,2.57-.63,5.1-2.79,6.77-1.84,1.42-4.48,1.94-6.68,2.58A163.67,163.67,0,0,1,61.8,99.23c-2.29.27-5.14,1-7.21-.27S52.2,95.09,52,92.85a89.73,89.73,0,0,1,0-13.32c.77-3.87,4.45-6.28,8.1-7.63a94.67,94.67,0,0,1,12.74-3.44,132.22,132.22,0,0,1,13.7-2.28,12.75,12.75,0,0,1,6.17.36,5.85,5.85,0,0,1,.71.35c-5.35,1.22-10.88,1-16.22,2.47-5,1.39-10.4,2.56-15.25,4.56-3.78,1.56-6.21,4.18-6.33,8.4a56.54,56.54,0,0,0,2.42,16.85.5.5,0,0,0,1-.26A61.92,61.92,0,0,1,56.67,83.6c-.12-3.07.61-5.74,3.28-7.52a20.48,20.48,0,0,1,5.85-2.39c4.7-1.39,9.42-2.93,14.21-4s9.62-.78,14.33-2a.45.45,0,0,0,.14-.06,8.47,8.47,0,0,1,2.27,4.28A38.84,38.84,0,0,1,97.5,84.57Z"/><path class="cls-4" d="M100.88,146.61c-.49-8.44-1.56-16.87-2.42-25.29-.38-3.75-.62-7.55-1.18-11.27-.34-2.21-1-4.69-3-6-2.79-1.75-6.7-.35-9.65.21L70.43,107c-4.56.87-9.15,1.66-13.69,2.6a9.37,9.37,0,0,0-4.4,1.85h0a6.27,6.27,0,0,0-1.12,2.1l0,.24a.15.15,0,0,0,.05.07,302.73,302.73,0,0,0,1.43,46.54c.58,5.33.64,11.79,6.73,13.14v0l.2,0a.56.56,0,0,1,.23-.06,10.39,10.39,0,0,1,3.29.29h0l.26,0c2.25-.05,4.53-.37,6.72-.6q5.52-.57,11-1.41A113.1,113.1,0,0,0,93,169.7a8.93,8.93,0,0,0,5.57-3.94C101.93,160.4,101.23,152.61,100.88,146.61Zm-46.2,21.17c-.9-3.43-1-7.26-1.36-10.78a303,303,0,0,1-1-43.86c1.32-2.6,5.71-2.76,8.16-3.22l10.26-2L81,106c3.2-.6,7.19-2,10.45-1.73a4.73,4.73,0,0,1,4.33,3.58c-2.86-1.16-5.86-.91-8.9-.42-4.76.78-9.5,1.68-14.25,2.51-3.94.7-8.7.8-12.33,2.54-2.62,1.25-3.54,3.81-3.93,6.52-1.31,9-1.16,18.48-.63,27.55a174.47,174.47,0,0,0,3.47,25.86A6.13,6.13,0,0,1,54.68,167.78Zm44.24-5.19a8.64,8.64,0,0,1-6.58,6.23c-3.15.75-6.39,1.24-9.59,1.76-6.65,1.06-13.64,2.29-20.39,2.26a13,13,0,0,1-2.11-.18,173.91,173.91,0,0,1-3.47-47.36c.23-3.6-.17-9.22,3.21-11.54,1.58-1.08,3.82-1.25,5.65-1.57l6.25-1.1,11.55-2c4.09-.72,8.58-2,12.51,0a.5.5,0,0,0,.13,0,37.29,37.29,0,0,1,.53,3.91l1,10.31c.69,6.81,1.49,13.62,2,20.45C100.16,149.76,100.87,156.74,98.92,162.59Z"/></g></svg>