<svg xmlns="http://www.w3.org/2000/svg" viewBox="0 0 162 162"><defs><style>.cls-1{fill:#92d2f3;}.cls-2{fill:#9eca73;}.cls-3{fill:#ceab89;}.cls-4{fill:#a67c52;}.cls-5{fill:#ccc;}.cls-6{fill:#fff;}.cls-7{fill:red;}</style></defs><title>Artboard 6</title><g id="Layer_4" data-name="Layer 4"><path class="cls-1" d="M151.66,88.09c1.57-6.59.54-13.38-1.24-20.22-2.09-8.09-4.61-16.45-9.19-23.51a73.17,73.17,0,0,0-10.71-12.9,29.09,29.09,0,0,0-12.74-10.13,60.1,60.1,0,0,0-10-4.94l-1.56-.61a65.67,65.67,0,0,0-13.53-4.26A61.79,61.79,0,0,0,56.37,15c-.89.29-1.78.59-2.67.91a37.87,37.87,0,0,0-15.43,7.18A50.1,50.1,0,0,0,24.89,34.17a48.69,48.69,0,0,0-5.66,6.88A78.82,78.82,0,0,0,14.31,119c5.56,8,10.68,16.18,18.17,22.69,1.3,1.14,2.66,2.2,4,3.23a109.1,109.1,0,0,0,24.16,9.93c12.6,3.52,25.44,2,38.2.5,1.48-.56,2.94-1.17,4.39-1.81a57.41,57.41,0,0,0,15.53-7.22c9.77-6.44,19.64-15.11,25.42-25.64a32,32,0,0,0,5.52-10.57c2-6.82,2.19-14.54,1.94-21.59C151.67,88.37,151.66,88.23,151.66,88.09Z"/><path class="cls-2" d="M98.74,135.25a4.15,4.15,0,0,0-1.3-2.85,25.29,25.29,0,0,1-5.61-8.07,1.71,1.71,0,0,0-.39-.54l-.27-1.45a.41.41,0,0,0-.54-.34c-.16-.4-.32-.8-.5-1.19s-.8-.26-.92.12a14.52,14.52,0,0,0-.42,1.82,2.75,2.75,0,0,0-.27,1.44,1.77,1.77,0,0,0-.35,1.68,2.16,2.16,0,0,1-.86,2.54,1.33,1.33,0,0,0-.17.16A14.15,14.15,0,0,1,83.69,127a15.76,15.76,0,0,0-1.73-1.1,4.67,4.67,0,0,0-.62-.24c0-.3.07-.56.09-.81l.07-.14a4.16,4.16,0,0,0,.62-1.27.77.77,0,0,0-.33-.79,2.42,2.42,0,0,0-.79-.11.49.49,0,0,0-.74.07,4.38,4.38,0,0,0-1.12-.34,6.66,6.66,0,0,0-2.35-.21,3.12,3.12,0,0,0-1.21.69h0c-2.16-.87-3.44,1.33-3.75,3.18l-.24-.09a3.26,3.26,0,0,0-2.35-1.55l-.17,0c-.89-.12-1.62,1-2.07,1.72-2.83,1.57-3.87,4.43-7.54,5.16a1.45,1.45,0,0,0-.47.19,1.88,1.88,0,0,0-1-.21,3.17,3.17,0,0,0-2.92,4.6,30.61,30.61,0,0,0,2.4,3.28,32.71,32.71,0,0,1,2.11,3.68,1.82,1.82,0,0,0,.88.88,1.81,1.81,0,0,0,1.8,1.23,9.85,9.85,0,0,0,5-1.56c.81-.48,1.64-1.08,2.52-1.56a.54.54,0,0,0,.41.12c.83-.15,1.66-.29,2.5-.41,1.68-.26,2.32-.48,3.89.44A9,9,0,0,1,79.37,144a.5.5,0,0,0,.78.1c.28-.31.53-.64.79-1a3.69,3.69,0,0,0,1.24-.54,1.53,1.53,0,0,0,.11.16,16.94,16.94,0,0,0,2.54,2.41,2.16,2.16,0,0,0,1,1.17,3.22,3.22,0,0,0,2.57.76c0,.13.07.26.1.39-.3,1.23-.2,2.92,1.18,2.85.74,0,1.05-.72,1.22-1.34a15.12,15.12,0,0,0,.43-2.61l.42-.15a10.85,10.85,0,0,0,6-5.33,1.76,1.76,0,0,0,.68-2.06C98,137.72,98.79,136.43,98.74,135.25Z"/><path class="cls-2" d="M143.42,47c-1.14-.94-1.49-2.63-2.44-3.78-1.17-1.43-2.4-2.82-3.6-4.22a.51.51,0,0,0-.14-.31L135.75,37a.36.36,0,0,0-.24-.13,11,11,0,0,0-4.07-5.11.51.51,0,0,0-.76.43c0,.08,0,.14,0,.19l-.11-.14a7,7,0,0,0-2.2-2,.51.51,0,0,0-.35-.6,1.28,1.28,0,0,0-1.45.63c-.23-.05-.44-.1-.68-.13-.41,0-.58.45-.43.76,0,.09.1.19.15.28h0A.51.51,0,0,0,126,32h.17a2.46,2.46,0,0,0,1.55.73,4,4,0,0,0,.37.67,8.16,8.16,0,0,0-1.41-.26c-.47-.05-.61.55-.35.85a2,2,0,0,0,1.79.78,3.77,3.77,0,0,0,1.42.17c.38.44.74.9,1.11,1.36,0,0,0,.06,0,.1s0,.1,0,.15l0,0-.33-.18h0a.43.43,0,0,0-.26-.13l-.18-.1a.51.51,0,0,0-.63.49,6,6,0,0,0,.2,1.09c.16,1,.76,1.78,1.89,1.4h.13c.18.08.37.17.58.25l.27.29a.56.56,0,0,0,.66,0,7.71,7.71,0,0,1,1.82.71,4.64,4.64,0,0,0,.51,1.05c0,.07,0,.13.07.2a3,3,0,0,1-.15.83c-.28.81-1.63,1.85-2.21,2.5a.51.51,0,0,0,.61.79A9.7,9.7,0,0,0,137,42.81s0-.08,0-.13l.26.09a.51.51,0,0,0,.57-.74,18.79,18.79,0,0,1-1.06-2.22c1.18,1.36,2.38,2.7,3.51,4.1.95,1.19,1.24,2.8,2.43,3.79C143.21,48.1,143.92,47.4,143.42,47Z"/><path class="cls-2" d="M122.74,32c-.6-2.44-2.59-2.91-4.84-2.72-2,.17-3.85-.16-5.81-.1s-4.68,1-6.36-.57a1.87,1.87,0,0,0-2.09-.4c-3.56-1.51-7.11-1.65-11-1.88-1.68-.09-3.43-.46-5.12-.51a2.13,2.13,0,0,1-.15-.82c.38-.09.76-.19,1.16-.25.57-.1.41-1-.14-1q-2.53,0-5.07.09a.51.51,0,0,0-.44.75,1.32,1.32,0,0,0,1.15.76c.33,0,.66-.05,1,0a.46.46,0,0,0,.29.23,2.39,2.39,0,0,1,.37.15,1,1,0,0,1,.12.17,6.55,6.55,0,0,0-2.13.68c-1.73,0-3.49.08-5.2-.05-1.86-.14-2.59-.84-4.11-1.52a4.55,4.55,0,0,0-3-.33,39.6,39.6,0,0,1-6.94.63,1.69,1.69,0,0,0-1.19-.78c-5.81-1.1-11.37-.3-16.9,1.13a1.81,1.81,0,0,0-1.13,0c-4,1.16-8.67,2.41-12.57,4.6l.71-.73a.47.47,0,0,0,.13-.35c.79-.59,1.59-1.14,2.3-1.7.45-.35-.06-.9-.48-.84-1.66.24-2.73,1.24-3.94,2.31-1.71,1.52-3.39,3.06-5,4.74a.5.5,0,0,0,.1.76A67.07,67.07,0,0,0,5.1,76,1.54,1.54,0,0,0,6,77.74C10.74,82,11,89.57,11.68,95.53a2.32,2.32,0,0,0,2,2,1.91,1.91,0,0,0,.58,1c.56.52,1.38.62,1.93,1.15a.51.51,0,0,0,.84-.49,9.58,9.58,0,0,0-1.43-3.07h0a8.85,8.85,0,0,0,.19-2,2,2,0,0,0-.41-1.17c0-.42-.09-.84-.13-1.26a1.88,1.88,0,0,0-.13-2,6.4,6.4,0,0,1,1.7-4.67,2.15,2.15,0,0,0,.64-.48c1.31-1.42,4.1-3.22,6.17-3s3.42,3.7,3.1,5.58c-.43,2.45,3.22,3.53,3.81,1.23l.07,0c0,.33.12.76.12,1,0,1.16,0,2.32,0,3.48,0,2.57,4,2.58,4,0,0-.2,0-.4,0-.61l.16,0a2,2,0,0,0,.55,1.25l2.07,2.26a2.1,2.1,0,0,0,3.45,1.57c1.17-1,3.3-2.34,4.06-3.73s.09-2.06-.55-3.15a58.72,58.72,0,0,0-4.38-6.85,17.07,17.07,0,0,1,2.6-2.06,2,2,0,0,0,.62.1A1.84,1.84,0,0,0,44.5,81h.06a.11.11,0,0,0,0,.06A7.06,7.06,0,0,1,44,83.17a4.39,4.39,0,0,0-.6,1.43A1.17,1.17,0,0,0,44.52,86l.23,0a.57.57,0,0,0,.54-.22l.08-.13a2.06,2.06,0,0,0,.76-1.17,1.2,1.2,0,0,0-.27-1,.82.82,0,0,0-.48-.26c0-.45.07-.89.13-1.34A8.14,8.14,0,0,1,46,81c.59,0,1.17-.06,1.73-.13l.25,0c4.36-.67,7.92-3,11.49-6a6.57,6.57,0,0,0,1.12-1h0l0,0,.09-.09a1.92,1.92,0,0,0,.31-.41,4.26,4.26,0,0,0,.6-3.62,47.29,47.29,0,0,0-2.43-5.24,12.16,12.16,0,0,0,3.38-1,1.31,1.31,0,0,0,.73-1.58c-.76-2.08-3.78-.25-5.48-.84a11.56,11.56,0,0,1-.29-1.16l.19-.06c1.34-.67,2.84-1.52,4.36-2.16a1.75,1.75,0,0,0,2.32,1.2c.44-.18,1.48-.78,2.45-1.22a5.42,5.42,0,0,0,.25,1.87c.19.61,1.17,2.71,2,2.51l0,0a2,2,0,0,0,1.14,3.65,2.5,2.5,0,0,0,2.21-1.24A3.5,3.5,0,0,0,73,60.9c-.35-.88-1.13-1.33-1.63-2.07a5.1,5.1,0,0,0,3-2.89c.09,0,.16-.08.25-.12l0,0c2.09-1.12,4.57,0,6.71-1.49a49.25,49.25,0,0,0,7.08-6.62,3.56,3.56,0,0,0,1.19-3,1,1,0,0,0,.35.4l0,.06a.49.49,0,0,0,.24.49c.06.11.11.22.17.32l.39,4.93a.5.5,0,0,0,.93.25,2.92,2.92,0,0,0,.34-2.24,4.81,4.81,0,0,0-.19-.61l.13,0a.52.52,0,0,0,.61-.35,1,1,0,0,0,0-.67s0-.06,0-.11c.09-.71-.63-1.22-1.06-1.7a.4.4,0,0,0-.26-.14l0-.46a.57.57,0,0,0-.08-.23.51.51,0,0,0,.3-.59c-.26-.84-1.44-1.14-1.73-.21a.47.47,0,0,0-.32.46,2.46,2.46,0,0,0-.71-.92,3.84,3.84,0,0,0-2.11-.63A19.94,19.94,0,0,1,82.42,42a2.31,2.31,0,0,0,.92-.79l0,0a18,18,0,0,1,12.47-3.41c3.63.26,6.22,2.36,9.25-.54h0a1.88,1.88,0,0,0,.57-.71c.31-.63.47-1.35,1.26-1.11s1.17,1.3,1.83,1.8a2,2,0,0,0,.32.17,2.77,2.77,0,0,0-.28.54,1.93,1.93,0,0,0-1.13.49h0a3,3,0,0,0-2,2.24,3.92,3.92,0,0,0,.08,1.77c.08.25.17.5.27.74,0,.06,0,.08,0,.13-.81,1.19,0,3.36,1.64,3.14,1.87-.24,2.91-1.55,4.06-3a3.65,3.65,0,0,0,1-3.56,3.11,3.11,0,0,0-.11-.41,1.9,1.9,0,0,0,0-2.49,5.06,5.06,0,0,1,1.78-.54,5.14,5.14,0,0,1,2.08.76,5.34,5.34,0,0,0,3.57.19,3.79,3.79,0,0,0,2.57-2.13,2.36,2.36,0,0,0-.08-1.83A1.81,1.81,0,0,0,122.74,32Z"/><path class="cls-2" d="M95.25,53.88a11.26,11.26,0,0,0-2.66-.15,2.74,2.74,0,0,1-.92-.25l-.32-.17a2.41,2.41,0,0,0-1.5-.45,1,1,0,0,0-.87,1L89,54a3.07,3.07,0,0,0-1.28,1.17.5.5,0,0,0,.43.75l5-.42c.86-.07,2.09.07,2.5-.86A.5.5,0,0,0,95.25,53.88Z"/><path class="cls-2" d="M90,58.87c-.26-.55-.52-1.1-.77-1.65s-.79-.25-.92.12a20.81,20.81,0,0,1-.49,2.3,5.49,5.49,0,0,1-2.51,2.18c-1.75.87-3.14,2-5.2,2-2.38,0-4-.1-5.7,1.52-.19-.52-1.06-.26-.94.34a5.78,5.78,0,0,0,1.65,3c.47.44,1.17-.26.71-.71a2.34,2.34,0,0,1-.25-.3l0,0,.18-.14A1.07,1.07,0,0,0,76.89,67l.2-.08c.79-.18,1.6-.12,2.46-.35a2.37,2.37,0,0,0,.8-.24c.66-.41.32-.73,1.24-.88s1.4.47,2.33.34a11.59,11.59,0,0,0,4.5-1.93c1.3-1,1.53-2.86,2-4.34A.46.46,0,0,0,90,58.87ZM76.28,65.22a.45.45,0,0,0,.13.11,5.33,5.33,0,0,0-1.54,1.24l0,0c0-.06-.07-.12-.1-.19A5,5,0,0,1,76.28,65.22Z"/><path class="cls-2" d="M56.78,103.17a.49.49,0,0,0,.18-.68c-.48-.67-1.3-2.78-2.42-2.54s-.24,1.68-1.08,2.26c-.22.15-1.19,0-1.57.21a5.15,5.15,0,0,0-1.28,1.1,10.26,10.26,0,0,1-2.52,1.39c-.33.19-1.16,1.44-1.49,1.31l-.1,0c-.24-.5-1.07-.14-.91.4.54,1.78,1,3.51,2.54,4.66a7,7,0,0,0,4.9,1.08.48.48,0,0,0,.5.2l1.34-.26a.5.5,0,0,0,.35-.61c-.52-1.77.25-2.43,1.34-3.67.42-.48.44-.25.6-.71C57.63,106,54.93,104.25,56.78,103.17Z"/><path class="cls-2" d="M39.67,105.58a33.45,33.45,0,0,0-3.73-5.45A21.93,21.93,0,0,0,33.25,96a.51.51,0,0,0-.28-.16.84.84,0,0,0-1.08.14c-.79.81.32,2.23.78,2.85,1.54,2.07,2.61,4.89,4.66,6.53.05.11.09.21.14.31a.43.43,0,0,0,.59.21,5.91,5.91,0,0,0,1,.48A.5.5,0,0,0,39.67,105.58Z"/><path class="cls-2" d="M47.2,116.75c-.85-1.14-2.12-1.08-3.31-1.48a2.6,2.6,0,0,0-.64-.26h0a.45.45,0,0,0-.62,0c.08-1.39.46-3.21.09-4.49-.28-1-.93-1.22-1.79-1.74a79.29,79.29,0,0,1-10.55-7.63s0,0,0,0a.51.51,0,0,0-1,.19,3.37,3.37,0,0,0,1.35,2.86c1.45,1.3,2.78,2,3.7,3.75a.56.56,0,0,0,.09.54l.59.72c1.65,2.72,4,4.42,6.65,6.46a.54.54,0,0,0,.76-.07.35.35,0,0,0,.08.13c1.15,1.16,2.6,2.37,4.34,1.74A.52.52,0,0,0,47.2,116.75Z"/><path class="cls-2" d="M54.21,117.47a9.43,9.43,0,0,0-4.78-.91.43.43,0,0,0-.46-.34l-.37,0a.51.51,0,0,0-.48.64c.58,2.17,4.18,1.64,5.83,1.52C54.4,118.37,54.69,117.7,54.21,117.47Z"/><path class="cls-2" d="M61.66,89.63a.41.41,0,0,0-.36.12,1.67,1.67,0,0,1-.58-.84c-.07-.76.46-.79.91-1a1.94,1.94,0,0,0,.88-.58,1.92,1.92,0,0,0-.25-2.27c-1.09-1-1.93.28-2.39,1.61-1,.63-2.07,1.42-1.4,2.67a2.75,2.75,0,0,0,1.47,1.12c1,.47.94.61.27,1.37L59,93.23c-.43.48.27,1.19.7.71,0-.06.12-.12.19-.19a.54.54,0,0,0,.22-.08,8.08,8.08,0,0,0,1.26-1.08c.36-.39.69-1.08,1.29-1.12s1.66,1.18,2.28.24C66.06,90,62.44,89.73,61.66,89.63Z"/><path class="cls-2" d="M65.47,95.34a8.46,8.46,0,0,0-2.24-.92.56.56,0,0,0-.26,0,1.65,1.65,0,0,0-.49,0,1,1,0,0,0-.86,1c0,.56.58.75,1.07.77.84.05,1.69,0,2.53,0A.5.5,0,0,0,65.47,95.34Z"/><path class="cls-2" d="M68.08,96.92c-1.15-.49-2.19.14-3,.87h0a5.32,5.32,0,0,0-2.71-.26.51.51,0,0,0-.3.74c.79,1.33,2.57.91,3.68,1.85.46.4.63.74,1.29.62a3.53,3.53,0,0,0,1.77-1.25A1.67,1.67,0,0,0,68.08,96.92Z"/><path class="cls-2" d="M67,106.56a.5.5,0,0,0-.56-.23c-.89.23-1.78.43-2.68.58s-2,.45-2.81,0c-.54-.35-1,.52-.5.86l.15.07a.47.47,0,0,0,.47.6,29.88,29.88,0,0,0,5-.21C66.91,108,67.39,107.38,67,106.56Z"/><path class="cls-2" d="M62.56,111a6.75,6.75,0,0,0,1.68-.83c.39-.36,0-.92-.49-.83l-1.82.31a.4.4,0,0,0-.29,0l-.1-.05a.42.42,0,0,0-.41-.06s0,0-.06,0c-.72-.18-1.59-.49-2,.37a5.7,5.7,0,0,0-.25,1.54,5.34,5.34,0,0,0-.15,1.54.94.94,0,0,0,1.38.63c.44-.2.67-.82,1.19-.85.68,0,1.13.8,1.43,1.29a.46.46,0,0,0,.47.23s0,0,.06.07a2.81,2.81,0,0,0,1.08.6.51.51,0,0,0,.63-.48A3.33,3.33,0,0,0,62.56,111Z"/><path class="cls-2" d="M60.28,119.48a1.2,1.2,0,0,0-.34-.17.5.5,0,0,0-.1-.46.7.7,0,0,0-1.18.32.78.78,0,0,0,.25.76c.25.23.59.23.86.41C60.31,120.7,60.81,119.83,60.28,119.48Z"/><path class="cls-2" d="M69.67,117.82a4.15,4.15,0,0,0-1.16-.15c-1.41-.39-2.51.94-2.73,2.24a.51.51,0,0,0,.62.62,20.15,20.15,0,0,0,2.31-.62,1,1,0,0,0,.65-.9l.43-.28A.5.5,0,0,0,69.67,117.82Z"/><path class="cls-2" d="M100.69,119.21c-2.4-3.32-5.22-6.27-9.09-7.81a25.89,25.89,0,0,0-6.72-1.63c-1.44-.16-2.88-.12-4.3-.42a5.75,5.75,0,0,0-2.55-.28.43.43,0,0,0-.12.05,1.2,1.2,0,0,0-1.21-.73c-.53,0-1.36.36-1.4,1-.11,1.55,2.75.71,3.59,1.48-.58.47-2.31,1.66-1.06,2.32.57.3,1.68-.24,2.57-.39a3.89,3.89,0,0,0,1.35.82.47.47,0,0,0,.45.14,11.85,11.85,0,0,0,1.37.26c.33,0,.66.08,1,.14.88.92,3.65,2.47,1.54,3.1h0l-.12,0c-.52.22-.15,1.07.39.91l.45-.14a2.1,2.1,0,0,1,1.92.47c.31.28.44.74.82.94a1.08,1.08,0,0,0,.45.12.44.44,0,0,0,.35.46,1.65,1.65,0,0,0,1.69-.66,15.23,15.23,0,0,0,1.1-1.5,1.89,1.89,0,0,1,1.49-.36l.18.11a.5.5,0,0,0,.35.06c1.69.77,3.14,3.39,5.33,2.19A.51.51,0,0,0,100.69,119.21Z"/><path class="cls-2" d="M114.86,130.62l-.24-.2-.06,0c0-.58-1-.57-1,.05s-.1,1.61.64,2A.51.51,0,0,0,115,132a2.39,2.39,0,0,0,0-.76A.4.4,0,0,0,114.86,130.62Z"/><path class="cls-2" d="M114.15,146.49c.93-1,.7-2.39.76-3.65a.5.5,0,0,0-.93-.25,26.15,26.15,0,0,1-1.62,2.92,17.42,17.42,0,0,0-1.78,1,2.38,2.38,0,0,0-1.4.6l-.23.1a.46.46,0,0,0-.6-.11l-3.53,2c-.7.39-1.33.72-1.57,1.54a.5.5,0,0,0,.73.56c.33.82,1.74.16,2.28-.15a2.62,2.62,0,0,0,1.23-.63,12.8,12.8,0,0,0,1.93-1.82l.18-.11a8.67,8.67,0,0,0,2.81-1.1A2.84,2.84,0,0,0,114.15,146.49Z"/><path class="cls-2" d="M129,125.33l-1.5,1a.48.48,0,0,0-.21.46.52.52,0,0,0,.72.64,4.38,4.38,0,0,0,1.67-1.44A.5.5,0,0,0,129,125.33Z"/><path class="cls-2" d="M130.26,46.57a.8.8,0,0,0,0-.49.89.89,0,0,0-1.35-.46.54.54,0,0,0-.06.81.45.45,0,0,0,0,.46.87.87,0,0,0,1.08.41A.53.53,0,0,0,130.26,46.57Z"/><path d="M153.73,82.7a69.72,69.72,0,0,0-4.59-24,.88.88,0,0,0-.06-.44A78.71,78.71,0,0,0,134.31,34.1c-5.69-6.3-13.65-13.88-21.81-17a1,1,0,0,0-.26-.22c-12-6.47-26.37-8.48-39.91-7-.86.19-1.72.37-2.59.54a37.08,37.08,0,0,0-5.17,1.07l0,.09-.69.2-.29.13a.91.91,0,0,1-.44.1C49.46,16.09,35.75,21.22,25.48,31.4c-6,6-10.56,13.33-14.17,21C7.83,59.72,4.19,67.68,3.87,75.93v0a97.74,97.74,0,0,0,.82,18.25A49.63,49.63,0,0,0,6.9,105.32a.84.84,0,0,0,0,.49C12.74,121.5,22.43,137.27,37,146a1,1,0,0,0,.5.13c4.93,2.88,10,6.3,15.31,8.17a42.11,42.11,0,0,0,10.52,2,48.74,48.74,0,0,0,11.29,1.39c14.79,2.06,31.35-3.36,43.32-11.12a4.15,4.15,0,0,0,.66-.2q2.07-1.35,4-2.88c1.28-1.18,2.46-2.42,3.37-3.17a130.88,130.88,0,0,0,9.92-8.9c5.48-5.63,9.09-12.55,12.33-19.63a.91.91,0,0,0,.09-.17.5.5,0,0,0,0-.13c.14-.3.29-.61.43-.92a1,1,0,0,0,0-.64c.3-1,.56-2,.81-3,.85-2.71,1.42-5.54,2.05-8.3a84.49,84.49,0,0,0,2.17-15.41A.89.89,0,0,0,153.73,82.7ZM145.16,114a.88.88,0,0,1-.24.31c-2.66,5.52-5.7,10.86-9.95,15.33-2.33,2.45-4.89,4.69-7.45,6.9-1.44,1.24-2.91,2.45-4.38,3.66a47.31,47.31,0,0,1-4.6,4c-.48.41-1,.8-1.46,1.16-1.79,1.3-3.94,2-5.92,2.91h0c-9.71,5.06-21.38,8.37-32.4,7.81l-.07-.08a8.36,8.36,0,0,1-1.41-.1,34.11,34.11,0,0,1-6.06-.32,51.83,51.83,0,0,1-6.68-1c-.6-.08-1.19-.19-1.79-.32a1,1,0,0,0-.25.06,32.45,32.45,0,0,1-10.26-2.41c-5.29-2.39-10.34-5.63-15.41-8.45a1.11,1.11,0,0,0-.22-.07c-12.53-8.1-21.27-21.75-26.76-35.53,0,0,0-.07,0-.1-.35-.83-.65-1.68-.92-2.54-1.84-4.62-2.17-9.7-2.69-14.63a88.26,88.26,0,0,1-.49-12.37.87.87,0,0,0,.08-.43c-.2-9,4-18,7.92-25.91C17.43,44.41,22,37.33,28.1,31.66,39.42,21.13,54.62,16.47,69.18,12.25c13.72-2.14,28.76-.53,41.18,5.87a1,1,0,0,0,.55.46c8.27,2.81,16.23,10.56,22,16.94a75,75,0,0,1,13.29,21,1,1,0,0,0,.08.31,72.93,72.93,0,0,1,5.25,21.14,1.06,1.06,0,0,1,.1.37C152.21,90.58,150.39,102.77,145.16,114Z"/></g><g id="Layer_9" data-name="Layer 9"><path class="cls-3" d="M100.67,136.3c-.31-.28-.55-.5-.77-.67a.42.42,0,0,0-.36-.6q-3.57-.21-7.14-.24a.36.36,0,0,0-.35.22c-1.15-.08-2.32-.13-3.49-.14a38,38,0,0,0-5.54.07c-1.89.17-3.73-.05-5.6,0-.48,0-1,0-1.44,0h0a40,40,0,0,0-6.57.08q-3.12-.09-6.24-.14a.4.4,0,0,0-.17,0,35,35,0,0,0-5.22-.18c-2.26.07-4.67.49-6.92.13l-.11,0-.32-.05a.43.43,0,0,0-.44.66l-1.08,1.09a.41.41,0,0,0,.5.65c.14-.07.3-.12.45-.18a6.15,6.15,0,0,0,2.4.15l5.63-.08q6.06-.09,12.13-.22a.39.39,0,0,0,.39-.36l1.21,0a.37.37,0,0,0,.28.12.4.4,0,0,0,.31-.14l.57,0a.41.41,0,0,0,.48.29c2.41-.43,4.77,0,7.19,0,1.69.07,3.46.11,5.18.08a.4.4,0,0,0,.34.08l.71-.11H87a.31.31,0,0,0,.13,0c1.5-.13,3.1,0,4.56-.15a16.68,16.68,0,0,1,2,0l1.36.1.48.05h.09l.81.09a.38.38,0,0,0,.19,0c1.27.08,2.53.16,3.78.19A.42.42,0,0,0,100.67,136.3Z"/><path class="cls-4" d="M57.7,134.37a1,1,0,0,0,0-.12,5.27,5.27,0,0,0-.92-2c-.54-1-1.12-1.91-1.7-2.84a16,16,0,0,0-2.79-3.71l-.07-.14a.32.32,0,0,0-.37-.21c-.4-.23-.76.44-.36.75l.11.1,1.52,3.51-2.92,4.46a.38.38,0,0,0,.16.56.39.39,0,0,0,.49.29,12,12,0,0,1,3.54.1,14.7,14.7,0,0,0,3.11-.1C57.89,135,57.89,134.59,57.7,134.37Z"/><path class="cls-4" d="M64.18,134.18a12.48,12.48,0,0,0-5-1.85.44.44,0,0,0-.53.4c0,.52,0,1-.08,1.54,0,.3.21.42.45.39l.1,0c1.6.15,3.21.24,4.82.27A.41.41,0,0,0,64.18,134.18Z"/><path class="cls-4" d="M59.38,123.49c-.56-.72-1.13-1.42-1.71-2.11a.33.33,0,0,0-.28-.13c-.3-.15-.73.07-.59.45A10.86,10.86,0,0,0,58,124.21c.39.56,1,1.55,1.67,1.66a.59.59,0,0,0,.19,0,.45.45,0,0,0,.55-.5A4.62,4.62,0,0,0,59.38,123.49Z"/><path class="cls-4" d="M66.05,122.18A18.24,18.24,0,0,1,65,120.3a.38.38,0,0,0-.09-.12c-.08-.52-.87-.3-.8.22a3,3,0,0,0,.39,1.41,3.89,3.89,0,0,0,1,.94A.42.42,0,0,0,66.05,122.18Z"/><path class="cls-4" d="M66.63,119c-.76-1.81-2-3.38-2.85-5.13-.24-.47-1-.05-.71.42a2.12,2.12,0,0,0,.11.21v0l.9,3.39c.15.54.19,1.44.84,1.63a.35.35,0,0,0,.11,0,2.55,2.55,0,0,0,1.25,0A.42.42,0,0,0,66.63,119Z"/><path class="cls-4" d="M69.77,133.94c-.27-.54-1.08-.75-1.59-1a27.85,27.85,0,0,0-2.67-.89.42.42,0,0,0-.52.4c0,.73,0,1.45-.07,2.18a.4.4,0,0,0,.59.35c.43.29,1.55.13,2,.12C68.19,135.13,70.41,135.23,69.77,133.94Z"/><path class="cls-4" d="M80.75,133.65c-.33-.83-2.51-1.42-3.31-1.56-1.47-.25-2.27,1-3.29,1.92a.47.47,0,0,0-.09.12l-.33,0c-.53.06-.54.89,0,.83a57.64,57.64,0,0,1,5.88-.09C80.26,134.9,81.13,134.6,80.75,133.65Z"/><path class="cls-4" d="M88.05,134.33a6.7,6.7,0,0,0-.85-1.52c-.19-.37-.22-.64-.62-.75a4.82,4.82,0,0,0-1.91.38,28.55,28.55,0,0,0-2.86.87.39.39,0,0,0-.28.41.34.34,0,0,0,0,.18,7.89,7.89,0,0,0,.1.85.42.42,0,0,0,.46.3.46.46,0,0,0,.21,0l2.82-.17c.43,0,.85-.06,1.28,0a2.92,2.92,0,0,0,.93,0,.37.37,0,0,0,.17-.1A.43.43,0,0,0,88.05,134.33Z"/><path class="cls-5" d="M63.94,133.15l-.14-.3c-.7-2.54-1.31-5.15-3-7.21-.33-.39-.87.13-.62.53l0,.08a51.12,51.12,0,0,1-1.44,5.7.42.42,0,0,0,.29.51,16.07,16.07,0,0,1,4.21,1.18.42.42,0,0,0,.62.05A.41.41,0,0,0,63.94,133.15Z"/><path class="cls-5" d="M67.12,119.75a.44.44,0,0,0-.78.15h0a.42.42,0,0,0-.25.61,37.61,37.61,0,0,1,3.38,9.33h0c.11.94.19,1.87.25,2.76l0,0a.35.35,0,0,0,0-.25q-1.4-5-3.27-9.8c-.19-.5-1-.28-.8.22l.06.15a81.4,81.4,0,0,1-.32,9,.42.42,0,0,0,.3.4c1.17.29,2.3.64,3.43,1,.38.14.59-.27.47-.56a.48.48,0,0,0,.09-.11.38.38,0,0,0,0,.28,3.19,3.19,0,0,1,.18.8c.07.46.84.35.81-.11C70.37,129.2,69.7,123.55,67.12,119.75Z"/><path class="cls-5" d="M86.6,132.38a30.45,30.45,0,0,0-6.33-6.19h0l0-.09a.43.43,0,0,0-.68,0,.36.36,0,0,0-.43.28c0,.19-.08.37-.13.55a.43.43,0,0,0-.31.38c0,.45-.1.89-.18,1.33a9.17,9.17,0,0,1-1.69,3.13.42.42,0,0,0,.29.71,3.9,3.9,0,0,1,2.58.81.38.38,0,0,0,.33.24.41.41,0,0,0,.56-.55c-.05-.11-.1-.21-.14-.32-.16-1.74-.35-3.46-.6-5.19h0s0-.07,0-.11a.33.33,0,0,0-.05-.12.83.83,0,0,1,0-.15c1,1.86.93,3.85,1.32,5.89a.36.36,0,0,0,.49.28.67.67,0,0,0,.2,0,15.1,15.1,0,0,1,4.45-.19A.43.43,0,0,0,86.6,132.38Z"/><path class="cls-5" d="M99.44,132.24c-.45-.71-.91-1.4-1.39-2.08C97.8,129.8,97.47,129,97,129s-.73.56-.93.88a15.69,15.69,0,0,0-1.19,2.26.41.41,0,0,0,0,.39.43.43,0,0,0,.52.45c1.27-.24,2.53.23,3.79-.12A.41.41,0,0,0,99.44,132.24Z"/><path class="cls-6" d="M105,126.11a11.46,11.46,0,0,0-7.58,2.5c-.32.26,0,.66.29.68a.43.43,0,0,0,.11.21c.16.17.38.47.63.8a.43.43,0,0,0,.4.54h0c.63.73,1.39,1.36,2,.85a18.41,18.41,0,0,0,1.94-2.49,24.72,24.72,0,0,1,2.43-2.37A.42.42,0,0,0,105,126.11Z"/><path class="cls-6" d="M65.49,122.38a.54.54,0,0,0-.24-.16s0,0,0,0c-2-1.61-5.29-1.78-7.78-1.92a.34.34,0,0,0-.39.35.37.37,0,0,0,0,.56c3.7,3.47,5.43,8.17,7,12.87a.37.37,0,0,0,0,.32l.19.34a.42.42,0,0,0,.76-.1.41.41,0,0,0,.46-.4l.16-6.94C65.69,126,66.28,123.46,65.49,122.38Z"/><path class="cls-6" d="M96.19,128.65a12,12,0,0,1-2.54-.58,11,11,0,0,0-2.36-.18.42.42,0,0,0-.16,0l.08-.24c.61-1.79,1.51-3.52,1.63-5.42a.41.41,0,0,0-.41-.41c-3.61,0-8,.08-11.2,2.08a2.18,2.18,0,0,0-1.26-1,2,2,0,0,0-1.88.3c-.45-.61-.94-1.2-1.28-1.69-.71-1-1.4-2-2.19-3a9.18,9.18,0,0,0-2.48-2.06,21.73,21.73,0,0,0-6.68-3.17,1,1,0,0,0-.46,0,2,2,0,0,0-1.74,0,.42.42,0,0,0-.09.65l.25.22a2.57,2.57,0,0,0,.19.47.89.89,0,0,0,.2.48l.11.15a3.58,3.58,0,0,0,.74,1.17.54.54,0,0,0,.18.1c.63.91,1.22,1.84,1.77,2.8a.88.88,0,0,0-.1.22c-.49-.07-1-.14-1.46-.17a.35.35,0,0,0-.37.22.45.45,0,0,0-.09.64,6,6,0,0,1,.46.66,2.55,2.55,0,0,1,.17.33,1.5,1.5,0,0,1,.09.18.4.4,0,0,0,.19.42.34.34,0,0,0,.12.06c.63,1.57,1.26,3.14,1.84,4.73.34.95.66,1.92.94,2.89.23.79,1,2.62.93,3.57a.36.36,0,0,0,0,.33v.05a.45.45,0,0,0,.42.29,1,1,0,0,0,.91,1.43,7.45,7.45,0,0,0,2.94-.28,8.71,8.71,0,0,0,2.1-2.3,28.67,28.67,0,0,0,3.57-5.26,1.83,1.83,0,0,0,1.41-.47,17.94,17.94,0,0,1,6.47,6.81.89.89,0,0,0,1,.49.4.4,0,0,0,.54,0,.41.41,0,0,0,.73-.12c.43-1.87.94-3.71,1.52-5.54a.47.47,0,0,0,.06.09,30.15,30.15,0,0,0,3,3.24l.09.06c0,.38.55.64.77.24a30.69,30.69,0,0,1,1.74-2.86A.42.42,0,0,0,96.19,128.65Zm-26,4.6a6,6,0,0,0-.34-1.67c-.32-1.4-.72-2.78-1.18-4.15-.65-1.92-1.41-3.82-2.17-5.71,0-.22,0-.43,0-.65s0-.26-.07-.4a3.12,3.12,0,0,1,.43-.15,21.29,21.29,0,0,1,3.77,12.54s0,0,0,.06A1,1,0,0,0,70.14,133.25Z"/><path class="cls-6" d="M59.88,125.75c-.89-.79-2.75-1-3.71-1.3a5.66,5.66,0,0,0-4.35,0c-.33-.12-.77.22-.51.58,2.15,3,5,5.6,6.32,9.15a.4.4,0,0,0,.29.26.41.41,0,0,0,.73-.25,16.43,16.43,0,0,1,1.74-7.82A.44.44,0,0,0,59.88,125.75Z"/><path d="M105.78,126.17a.21.21,0,0,0-.1-.23c-1.1-.67-3.45.16-4.54.52a10,10,0,0,0-4.24,2.42s0,0,0,0c-1.33-1.46-3.33-1.28-5.15-1.37a20.66,20.66,0,0,0,.89-2.58,8.45,8.45,0,0,0,.64-3,.19.19,0,0,0-.15-.19.23.23,0,0,0-.19-.19,19.26,19.26,0,0,0-11.71,2.14,3,3,0,0,0-3-.81,10.35,10.35,0,0,0-1-1.66,19.38,19.38,0,0,0-1.6-2.31,12.33,12.33,0,0,0-4-3.18.1.1,0,0,0-.07-.07,21.86,21.86,0,0,0-4.7-2.26,6,6,0,0,0-3.87-.1c-.14-.09-.38,0-.32.22q.85,3,1.64,6c-.38.12-.31.47-.27.85s.05.54.08.81a1,1,0,0,0,0,.17,13.36,13.36,0,0,0-3.5-1.06,7.15,7.15,0,0,0-3.64-.12l0,0a.21.21,0,0,0-.31.12,2,2,0,0,0,0,1.14.17.17,0,0,0,0,.17,13.12,13.12,0,0,0,1.52,3.1,12.58,12.58,0,0,0-4.17-.91c-.75,0-2.51,0-2.93.77a.2.2,0,0,0-.08.22,48.66,48.66,0,0,0,1.65,4.66.17.17,0,0,0,0,.14c.2.5-.59,1.44-.84,1.87l-1.09,1.91L48.6,137a.2.2,0,0,0,0,.26.19.19,0,0,0,.2.21q7.8-.24,15.6-.15a.17.17,0,0,0,.13,0,.21.21,0,0,0,.11,0,16.85,16.85,0,0,1,3.48-.08c1.13,0,2.25-.18,3.38-.22,2.2-.07,4.42.1,6.62.16a.17.17,0,0,0,.17-.1c2.89-.14,5.8.17,8.68,0h.18a.17.17,0,0,0,.12-.05,11.33,11.33,0,0,1,2.18,0c.69,0,1.38-.06,2.07-.06,1.29,0,2.65.29,3.94.23a.17.17,0,0,0,.1,0c1.93,0,3.67-.36,5.61,0a.21.21,0,0,0,.21-.34.2.2,0,0,0-.09-.21,4.83,4.83,0,0,1-.76-.92l-.7-.87v0c-.07-.63-.1-1.26-.11-1.89,2.16-1.72,3.59-4.15,5.67-6a.18.18,0,0,0,.06-.2A1.47,1.47,0,0,0,105.78,126.17Zm-.75.48a.17.17,0,0,0,0,.11c-1.94,1.73-3.33,4-5.32,5.64a.21.21,0,0,0-.33.16,20.13,20.13,0,0,0,.12,2.2.14.14,0,0,0,0,.06.18.18,0,0,0,0,.18l.85,1.07c.15.18.29.39.45.57a12.93,12.93,0,0,0-2.16-.16c-.83,0-1.66.16-2.49.21a.15.15,0,0,0-.15-.05c-1.57.21-3.27-.21-4.87-.18-.72,0-1.45.07-2.18.07a6.16,6.16,0,0,0-1.92.08c-3,.17-5.92-.17-8.87,0a.2.2,0,0,0-.16.09c-2.28-.07-4.6-.26-6.88-.13-1.13.06-2.25.19-3.38.21a14.15,14.15,0,0,0-3.19.08l-.08,0h0q-7.7-.1-15.4.14,1.25-2.18,2.48-4.35c.4-.69.81-1.38,1.19-2.08a1.58,1.58,0,0,0,.34-.94.14.14,0,0,0,0-.14c-.49-1.61-1.31-3.1-1.69-4.75h0c.22-.43,1.39-.48,1.77-.52a7.22,7.22,0,0,1,2,0,25.7,25.7,0,0,1,3.19.91c.19.06.3-.16.23-.3a.23.23,0,0,0,0-.3,10.07,10.07,0,0,1-1.32-2.49.21.21,0,0,0,0-.19,2.56,2.56,0,0,1-.29-1.35.12.12,0,0,0,.08,0,7.45,7.45,0,0,1,3.8.19,11.42,11.42,0,0,1,3.43,1.17.21.21,0,0,0,.24-.33h0a.19.19,0,0,0,0-.2,1.31,1.31,0,0,0,0-.28c0-.15,0-.31,0-.47s0-.27,0-.41-.08-.3.07-.34a.21.21,0,0,0,.27-.24c-.52-2-1.07-4-1.63-5.93,1.2-.61,3.14-.09,4.31.35a25.44,25.44,0,0,1,3.42,1.72.21.21,0,0,0,.13.15,11.64,11.64,0,0,1,4.22,3.17,17.1,17.1,0,0,1,1.46,2.06l.54.89a5.93,5.93,0,0,1,.67,1.08h0a.22.22,0,0,0,.15.26h0a.25.25,0,0,0,.21-.07h0a2.69,2.69,0,0,1,2.78.78.21.21,0,0,0,.29,0l.1,0A18.83,18.83,0,0,1,92.84,122a8.07,8.07,0,0,1-.62,2.91,17.49,17.49,0,0,1-.91,2.61.18.18,0,0,0,0,.14.22.22,0,0,0,.16.34c1.79.12,3.85-.19,5.17,1.29a.19.19,0,0,0,.32-.05.18.18,0,0,0,.26,0,9.49,9.49,0,0,1,3.88-2.26,14.39,14.39,0,0,1,2-.53,5.12,5.12,0,0,1,1.39-.19C104.81,126.23,105.41,126.11,105,126.65Z"/><path d="M95,134.44c-.14-.5,0-1.06-.21-1.54A3.47,3.47,0,0,0,94,132a29.7,29.7,0,0,1-2.76-3.17.22.22,0,0,0-.27-.06c-.09-.15-.34-.18-.38,0a13.56,13.56,0,0,1-.29,1.67c-.19.61-.38,1.2-.53,1.82a11.25,11.25,0,0,1-.62,1.8c-.07.18-.21.36-.14.55.2.51,1.63.42,2,.45a14.12,14.12,0,0,0,3.73-.17.2.2,0,0,0,.14-.27A.19.19,0,0,0,95,134.44Zm-3.59.28c-.39,0-.79-.05-1.17-.1-1-.11-.73-.1-.5-.78a33.65,33.65,0,0,0,1.21-4.69,29.78,29.78,0,0,0,2,2.36,13.24,13.24,0,0,1,1.18,1.19,4.33,4.33,0,0,1,.46,1.73.24.24,0,0,0-.14.14A13.88,13.88,0,0,1,91.38,134.72Z"/><path class="cls-7" d="M99.63,131.08a5.13,5.13,0,0,0-1-2.49,5.75,5.75,0,0,0-4.74-2.35,4.2,4.2,0,0,0-.7.05,6,6,0,0,0-3.88,2.35,5.18,5.18,0,0,0-.8,1.69,6,6,0,0,0,.15,3.91,38.78,38.78,0,0,0,5,9.54.35.35,0,0,0,.25.16.32.32,0,0,0,.46-.23s0,0,0,0a.39.39,0,0,0,.2-.14,37.44,37.44,0,0,0,3.77-6.89C99.06,135.11,100.4,132.79,99.63,131.08Zm-2.71,1.8a2.59,2.59,0,0,1-1.59,1.8,3.71,3.71,0,0,1-2.23.16,3.19,3.19,0,0,1-1.79-1.4c-.61-1.36-.53-3.09.9-3.89a3.75,3.75,0,0,1,2.62-.23A3,3,0,0,1,97,131a3.6,3.6,0,0,0,.12.44A3.27,3.27,0,0,1,96.92,132.88Z"/><path d="M97.19,131.64A3.22,3.22,0,0,0,93.41,129h0c-1.82.14-2.75,1.63-2.51,3.46a3,3,0,0,0,3.57,2.4,3.68,3.68,0,0,0,2.3-1.06A2.94,2.94,0,0,0,97.19,131.64Zm-.89,2a3.63,3.63,0,0,1-1.92.78,2.62,2.62,0,0,1-3-1.78,2.41,2.41,0,0,1,2.41-3.23.21.21,0,0,0,.15-.05,2.79,2.79,0,0,1,2.86,2.25A2.46,2.46,0,0,1,96.3,133.67Z"/><path d="M99.12,128.74a6.06,6.06,0,0,0-7.17-2.3,7,7,0,0,0-3.21,2.46,5.45,5.45,0,0,0-.58,4.48,20.56,20.56,0,0,0,2.33,5.56,26,26,0,0,0,3.14,4.94l.08.06a.73.73,0,0,0,.57.2c.59,0,.89-.72,1.14-1.15,1-1.7,1.84-3.43,2.7-5.18C99.5,135,101,131.69,99.12,128.74Zm-2.24,10.6c-.38.74-.76,1.48-1.16,2.21-.19.37-.39.73-.6,1.1-.09.16-.18.32-.28.48l-.09.16c-.15.35-.42.4-.81.16a.17.17,0,0,0-.23-.15,19.62,19.62,0,0,1-2.11-3.22c-.68-1.24-1.38-2.48-2-3.75a12.26,12.26,0,0,1-1.23-4.44A4.52,4.52,0,0,1,90.11,128a5.88,5.88,0,0,1,7.1-.62c2.48,1.65,2.79,4.76,1.83,7.39A41.82,41.82,0,0,1,96.88,139.34Z"/></g></svg>