<svg xmlns="http://www.w3.org/2000/svg" viewBox="0 0 163 171"><defs><style>.cls-1{fill:#9eca73;}.cls-2{fill:#ceab89;}.cls-3{fill:#a67c52;}.cls-4{fill:#fff;}.cls-5{fill:red;}</style></defs><title>Artboard 10</title><g id="Layer_11" data-name="Layer 11"><path class="cls-1" d="M63.1,87.81l0-.07a.67.67,0,0,0-.14-.15c0-.22,0-.63,0-1a.59.59,0,0,0,0-.45.59.59,0,0,1,0-.13.5.5,0,0,0,0-.48,2,2,0,0,0-.14-.25c0-.13,0-.26-.05-.38-.11-.54-.27-1.71-.9-1.93s-1.57.47-2.08.68c-.3.13-.63.23-.94.36A3.55,3.55,0,0,1,60,82.59c.56-.37,1.1-.86.81-1.6-.16-.42-.84-.53-1,0l-.08,0a.44.44,0,0,0-.23-.28,2.68,2.68,0,0,0-1.3-2.65A.59.59,0,0,0,58,78a1.47,1.47,0,0,1,.08-.35.49.49,0,0,0-.46-.63,1,1,0,0,0,0-.16.45.45,0,0,0-.21-.37c-.33-.53.17-.89.23-1.45a1.17,1.17,0,0,0-.49-1,1.37,1.37,0,0,0-1-.4c-.31,0-.59.32-.92.25s-.56-.45-.74-.68a.54.54,0,0,0-.94.14l-.19,0c-.35,0-.67-.19-1-.22a1.07,1.07,0,0,0-.94.38l-.34.33a2.11,2.11,0,0,0-.67.44.86.86,0,0,0-.81,0l-.08,0-.2.17-.69-.13a.52.52,0,0,0-.62.35,2.29,2.29,0,0,1-2.5,1.55.48.48,0,0,0-.83-.32,5,5,0,0,0-.75,1.58,12.72,12.72,0,0,0-.94,1.7c-.16.57-.56.85-.75,1.35a1.3,1.3,0,0,0,0,.78A2.88,2.88,0,0,0,40.4,82a.8.8,0,0,0-.15.17l-.76-.22a.51.51,0,0,0-.62.35.87.87,0,0,0,.48,1c.16.09,1.37.15,1.18.51,0,0,0,0,0,.06A4.21,4.21,0,0,0,40,84a1.49,1.49,0,0,0-.62.52,1.69,1.69,0,0,0-.26.6,1.54,1.54,0,0,1-.77,0,.52.52,0,0,0-.46-.16.51.51,0,0,0-.61.5,1.47,1.47,0,0,1-.5.32,1.45,1.45,0,0,0-.72.36,1.15,1.15,0,0,0,.12,1.37,1.28,1.28,0,0,0,.56.41,1.58,1.58,0,0,1,.71.48,1.07,1.07,0,0,0,.6.32.46.46,0,0,0,.22.28c.57.34.2.86.48,1.32s.73.24,1.17.35a.75.75,0,0,0,.15,0c.45.24.87,1.09,1.27,1.33a1.6,1.6,0,0,0,.64.2c.3,0,.72-.2,1.07-.21a1.27,1.27,0,0,0,1.11.23,1,1,0,0,0,.74-.91A.82.82,0,0,0,45,91l.06,0a1.45,1.45,0,0,0,.35-.12.79.79,0,0,0,.42-.49c.09-.29,0-.44-.21-.67a1.49,1.49,0,0,1-.12-.2,4.28,4.28,0,0,0,.61-.5,4.67,4.67,0,0,0,1.08-1.66v0a2.28,2.28,0,0,1,.66.45c.33.55.68,1.07,1,1.55l.14.39A.56.56,0,0,0,49,90c.08,1.31,2.13,1.35,2.1,2.58a1.5,1.5,0,0,0-.17.69.51.51,0,0,0,.5.5,7.48,7.48,0,0,0,1.7-.16c.25-.06.51-.14.77-.22a4.23,4.23,0,0,0,1.42,0,6.12,6.12,0,0,1,1.27.65.93.93,0,0,0,1.15,0c.19-.15.29-.37.47-.52s.43-.21.59-.39c.37-.44.26-1.31.3-1.83a.4.4,0,0,0-.1-.31s0,0,0,0v-.09a.4.4,0,0,0,.12-.1h0a.53.53,0,0,0,.37,0,2.79,2.79,0,0,1,.47-.14l.2,0c.24.19.48.46.66.49.52.1,1-.42,1.26-.84a1.09,1.09,0,0,0-.16-1.32.93.93,0,0,0-.61-.23,1.51,1.51,0,0,0-.41.09l-.1,0h0a3.35,3.35,0,0,0,.47-1.84,4.13,4.13,0,0,0-.34-.93c-.16-.5.08-.88.59-.66a.82.82,0,0,1,.35.34c0,.37.07.73.09,1,0,.56-.13,1.29.27,1.74a.49.49,0,0,0,.6.08l.09-.06A.5.5,0,0,0,63.1,87.81Zm-9.39-1.53a2.37,2.37,0,0,0-1.35-.66c-.1-.16-.19-.32-.28-.49a3.64,3.64,0,0,0,.41-.92,4.17,4.17,0,0,0,.12-.94c0-.09.06-1.1.13-1a.47.47,0,0,0,.35.23,1.09,1.09,0,0,0,.45.4.84.84,0,0,0,.71,0c.14-.06.68-.47.74-.35s-.62,1-.54,1.36a.86.86,0,0,0,.33.45h0a5.93,5.93,0,0,0-.49.79.08.08,0,0,1,0,0s0,0,0,0A6.85,6.85,0,0,1,53.71,86.28Z"/><path class="cls-1" d="M66.59,67.82c-.08-.52-.11-1.58-.61-2h0a.94.94,0,0,0-1.51.14,1.81,1.81,0,0,0-.18,2c.39.76,0,1.79.78,2.43a1,1,0,0,0,1.59-.2C67,69.56,66.7,68.51,66.59,67.82Z"/><path class="cls-1" d="M67.5,63.37c0-.55-.87-.76-1-.16a.91.91,0,0,0,.44,1A.5.5,0,0,0,67.5,63.37Z"/><path class="cls-1" d="M61.17,58.38a.5.5,0,0,0-.35-.35c-1-.21-1.94,1.13-2.3,1.91a.5.5,0,0,0,.56.73l.05,0-.08.13,0,0h-.61a.46.46,0,0,0-.37.18,1.72,1.72,0,0,0-.72,2.18.79.79,0,0,0,1,.52,1.38,1.38,0,0,0,.64-.9c.48-.73.94-1.47,1.37-2.23C60.66,60,61.4,59.09,61.17,58.38Z"/><path class="cls-1" d="M57.84,64.82a6.42,6.42,0,0,0-.59-1.34.47.47,0,0,0-.36-.23,2.48,2.48,0,0,1,0-.82.36.36,0,0,0-.06-.23.51.51,0,0,0-.84-.51l-.64.57-.22.19a.44.44,0,0,0-.16.12c-.24-.25-.79-.23-.87.16a.74.74,0,0,0-.25.22,1.78,1.78,0,0,0-.21.85c0,.32.06.8-.29,1-.57.29-.07,1.15.51.87a1.42,1.42,0,0,0,.73-1.1,3.84,3.84,0,0,0,.08-.65.52.52,0,0,0,.3-.13.43.43,0,0,0,.23.19,1.29,1.29,0,0,0,.26.45.91.91,0,0,0-.32,1,.44.44,0,0,0,.49.34c0,.39-.21.52-.48.77a.72.72,0,0,0-.2.71c.19.67.93.61,1.37.25a.41.41,0,0,0,0-.63.51.51,0,0,0,.38,0l.55-.15a.51.51,0,0,0,.5-.5,2.21,2.21,0,0,0-.09-.49,1.06,1.06,0,0,0,.07-.37A.41.41,0,0,0,57.84,64.82Z"/><path class="cls-1" d="M61.43,52.39a2.49,2.49,0,0,0-1.51-1,1.39,1.39,0,0,0-.64.09,20.13,20.13,0,0,0-1.49-1.7c-.23-.28-.45-.52-.56-.66a.38.38,0,0,0-.51-.12.53.53,0,0,0-.43.47s0,.08,0,.12a1.07,1.07,0,0,0-.82.12.51.51,0,0,0-.18.69c.5.81,1.68,1.71,2.71,1.4l.19-.08.16.21a2.48,2.48,0,0,1-1.44.74c-.55.09-.43,1,.14,1a5.89,5.89,0,0,1,1.11,0c-.6.44-2,1.4-2.5.83s-1.14.23-.71.71c1,1.14,2.92-.11,3.87-.78a.5.5,0,0,0,.18-.26,2.57,2.57,0,0,1,.74.58.52.52,0,0,0,.71,0l.3-.26c.29-.24.13-.6-.13-.77a2.59,2.59,0,0,1,.7-.53A.51.51,0,0,0,61.43,52.39Z"/><path class="cls-1" d="M61.31,38.39a.42.42,0,0,0-.41-.23,1.56,1.56,0,0,0-.65.24c-.34.06-.65.07-.78-.28a.54.54,0,0,0-.9-.15.49.49,0,0,0-.24,0,.7.7,0,0,0-.45,0c0-.34-.19-.72-.58-.55l-.08,0s0-.1,0-.15a.44.44,0,0,0,.29-.7l0,0a36.3,36.3,0,0,0-.3-3.62c-.1-.69-.36-1.83-1.22-1.89-1.26-.11-.85,1.6-.33,3l-.17.1a.53.53,0,0,0-.17.16c-.24-.2-.47-.42-.73-.61a.45.45,0,0,0-.65.16.73.73,0,0,0-.82,0,.62.62,0,0,0-.28.59l-.07-.09a.5.5,0,0,0-.91.12c-.13.77.37,2.44,1.47,2.08.22-.07.3-.24.45-.37s0-.27.37-.22c.15,0,.39.29.5.38a4.63,4.63,0,0,1,.92,1.2c-.31,0-.61-.12-.92-.2a.51.51,0,0,0-.39.92,7.51,7.51,0,0,0,1.05.47.55.55,0,0,0,.34.66,1.71,1.71,0,0,0,1.35,0,2,2,0,0,0,.25-.14l0,0a6.2,6.2,0,0,0,.13.79c.1.58.95.4,1-.14a3.53,3.53,0,0,0,0-.84h0l.92.74a.5.5,0,0,0,.24.1l-.06.11a.48.48,0,0,0,0,.42h0a2,2,0,0,0-.93,1.37.51.51,0,0,0,.74.57,2.12,2.12,0,0,0,1.08-1.23s0-.08,0-.12h0l.24-.51a.46.46,0,0,0,0-.41,2.07,2.07,0,0,1,.15-.25,1.11,1.11,0,0,0,.38-.18C61.42,39.29,61.83,38.71,61.31,38.39Z"/><path class="cls-1" d="M57,21.16c-.3.28-.6.18-.91,0a3.89,3.89,0,0,1,.39-.47,3.1,3.1,0,0,0,1.16-2.34c0-.61,0-1.47-.8-1.54s-1.44.94-2,1.39a12.81,12.81,0,0,1-1.64,1.17c-.33.19-.91.39-1.11.74A1,1,0,0,0,52,21c0,.15.18.27.23.41.32.18.36.45.11.8a.82.82,0,0,1,0,.39c0-.49-.32-1-.91-.78s-.5.75-.45,1.28c-.24-.52-.28-1.39-.46-1.75a.49.49,0,0,0-.68-.18,2.13,2.13,0,0,0-.9,1.76A2.29,2.29,0,0,0,50,24.52c-.22.12-.43.23-.64.36a.5.5,0,0,0,.12.91,8.16,8.16,0,0,1,1.69.79s0,.06,0,.08a1.64,1.64,0,0,0,.14.22.59.59,0,0,0-.47,0,.5.5,0,0,0-.28.14c-.51.53-1.91,1.55-1.19,2.4a.88.88,0,0,0,1,.17c.18-.08.91-.88.77-.95.35.17.9-.11.73-.56-.12-.3-.23-.61-.35-.91a.87.87,0,0,0,.9.15c.32-.11.54-.57.22-.83a5.09,5.09,0,0,0-.47-.34A3.09,3.09,0,0,0,52.53,25a1.39,1.39,0,0,1,.33-.1,1,1,0,0,0-.25.58,1.09,1.09,0,0,0,.72,1,1.06,1.06,0,0,0,1.15-.35A1.72,1.72,0,0,0,54.7,25c.57,0,1.14-.22.89-.89a.73.73,0,0,0-.65-.48,4.94,4.94,0,0,0,.64-.35.52.52,0,0,0,.23-.57,2,2,0,0,1-.15-.62,3.2,3.2,0,0,0,.88.28,1.66,1.66,0,0,0,1.16-.47C58.17,21.43,57.46,20.72,57,21.16Z"/><path class="cls-1" d="M48.42,31.23a.91.91,0,0,0-1.09-.31,4.81,4.81,0,0,0-1.69-.06c-.58.11-1.46.42-1.32,1.17a.87.87,0,0,0,.52.63,1.16,1.16,0,0,0,.56.09l.31,0c.07,0,.12,0,.14,0-.07.91.91,1.31,1.71,1.12a.51.51,0,0,0,.31-.7.53.53,0,0,0,.37-.52l0,0a.46.46,0,0,0,.06-.6A.53.53,0,0,0,48.42,31.23Z"/><path class="cls-1" d="M47.35,34.84c-.14-.11-.27-.21-.42-.31a.34.34,0,0,0-.09-.13.73.73,0,0,0-.46-.19l-.06,0a.52.52,0,0,0-.69.69.43.43,0,0,0,.13.31A1.75,1.75,0,0,0,47,35.7C47.4,35.7,47.69,35.12,47.35,34.84Z"/><path class="cls-1" d="M47,38a.48.48,0,0,0,.38-.62,2.44,2.44,0,0,0-1.08-1.29.44.44,0,0,0-.49,0,.49.49,0,0,0-.59.71c.1.15.22.31.34.47a.86.86,0,0,0-.37.26,1,1,0,0,0-.18.75c0,.21.15.36.18.56s-.07.4-.06.62a1,1,0,0,0,.07.18,1,1,0,0,0,.09.68c.31.6.72.43,1.19.3a.5.5,0,0,0,.47-.87.74.74,0,0,0-.39-.16h0a1.48,1.48,0,0,0,.18-1.18A.42.42,0,0,0,47,38Z"/><path class="cls-1" d="M44.66,42.15a2,2,0,0,0-.8,1.05c-.22.61.74.87,1,.27a.89.89,0,0,1,.35-.46C45.7,42.65,45.2,41.78,44.66,42.15Z"/><path class="cls-1" d="M84.49,10.91a6.73,6.73,0,0,0-.36-.71A.43.43,0,0,0,84,9.79l-.39-.34a.5.5,0,0,0-.82.23c-.37.07-.65.52-.29.82a15.46,15.46,0,0,0,1.28,1C84.09,11.71,84.66,11.31,84.49,10.91Z"/><path class="cls-1" d="M87.76,8.89c-.14,0-.22-.08-.3-.17a.49.49,0,0,0-.14-.11.53.53,0,0,0-.2-.57A3.21,3.21,0,0,0,86,7.57c-.32-.09-.39,0-.39-.34,0-.18.15-.4.18-.58a1.13,1.13,0,0,0-1-1.38,1.25,1.25,0,0,0-1.18,1.84.52.52,0,0,0-.65.32,1.24,1.24,0,0,0,.1,1.09.52.52,0,0,0,.44.24,1.26,1.26,0,0,0,.5-.12l.13-.07a1.26,1.26,0,0,0,.5.68,1.35,1.35,0,0,0,1,.23c.28,0,.73-.49,1-.52a.51.51,0,0,0,.09.47A1.33,1.33,0,0,0,88,9.86C88.66,9.77,88.39,8.8,87.76,8.89Z"/><path class="cls-1" d="M77.09,107.06c-.22,0-.88.17-1.07.07s-.18-.25-.27-.51a2.42,2.42,0,0,0-.85-1.16,1.21,1.21,0,0,0-1.26-.1,2.7,2.7,0,0,0-1.39.6c-.37.49-.1,1.28.25,1.93a1.73,1.73,0,0,0,.3,1.58,1.13,1.13,0,0,0,.56.32,3.82,3.82,0,0,1,.59.35.63.63,0,0,0,.85-.26.43.43,0,0,0,.18-.06,15.1,15.1,0,0,0,2.47-1.91A.5.5,0,0,0,77.09,107.06Z"/><path class="cls-1" d="M108.78,151a3.61,3.61,0,0,0-2.28.67.46.46,0,0,0-.56.43.5.5,0,0,0,0,1,.46.46,0,0,0,.43-.28c.76.6,1.64,1.34,2.64,1a1.42,1.42,0,0,0,.89-.87c.18-.35.6-.46.74-.84C111.06,151.14,109.36,151,108.78,151Z"/><path class="cls-1" d="M139.35,117.8a4.43,4.43,0,0,0-.62-1.82.5.5,0,0,0-.1-.43c-2.41-3-4.64-4.49-8.45-4.66-1.14,0-2.61-.41-3.72.08s-1.45,1.88-2.27,2.81c-.3.23-.74.67-1.08.56a6.94,6.94,0,0,1-.74-.85,2.06,2.06,0,0,0-1.22-.66c-.31-.07-.49.18-.42-.31,0-.28.8-.85,1-1.06a9.4,9.4,0,0,0,1-1.34.5.5,0,0,0,.25-.19c1.15-1.85.71-3-.37-4.7-.67-1.08-1.05-2.75-2.39-3l0,0a6.29,6.29,0,0,0-1.24-.7A5.1,5.1,0,0,1,117.5,100a2.22,2.22,0,0,0-2.42-.73.44.44,0,0,0-.33.27,6.75,6.75,0,0,1-1.43-.32c-.07,0-.9-.35-.58-.64,0,0,.69.17.76.17a2.4,2.4,0,0,0,1.32-.26c.21-.11.37-.32.63-.29s.42.25.64.29a.47.47,0,0,0,.29,0,.48.48,0,0,0,.13.16c.17.13.34.28.51.43a9.85,9.85,0,0,1,1.26,1.24,1,1,0,0,0,1.35,0c.43,0,.86,0,1.22,0a.5.5,0,0,0,.14-1c-.79-.2-1.42-1-1.94-1.63a19.77,19.77,0,0,1-1.67-2.19.47.47,0,0,0-.24-.19c-.36-.92-.07-1.14.09-2.69.06-.64.36-.43.12-1.08s-1-1-1.54-1.52c-.94-.91-1.37-2.12-2.24-3.08a.46.46,0,0,0-.22-.13,2.25,2.25,0,0,0-.12-.21,5.8,5.8,0,0,0-1.17-1.15c-.79-.59-2.09-1.57-3.12-1.34h0a13.71,13.71,0,0,0-1.72-.69,3,3,0,0,0-.7-.11h0c-.27-.31-.18-.61-.29-1a3.51,3.51,0,0,0-1.05-1.31c-.55-1.43-1-2.93-1.57-4.36a.52.52,0,0,0-.29-.29c-.23-.56-.45-1.12-.65-1.69a37.84,37.84,0,0,0-1.1-5.45,7.77,7.77,0,0,0-.85-2.3l0,0a.45.45,0,0,0-.22-.37c-1.3-.88-3.1-1.75-3.38-3.46a.38.38,0,0,0-.39-.34,3.91,3.91,0,0,0-.69-.9,1,1,0,0,1-.09-.13.6.6,0,0,0-.18-.15.5.5,0,0,0-.29-.28,14.38,14.38,0,0,1-2.29-1.14,2.54,2.54,0,0,0-.93-.64,3.78,3.78,0,0,0-1.42-.66c-1.46-.26-1.76.65-2.6,1.56a.44.44,0,0,0-.12.29,1.57,1.57,0,0,1-.61.09c-1.48-.07-3-.17-4.44-.26a.43.43,0,0,0-.43.26,4.79,4.79,0,0,1-1.91-1.24l0,0a3.74,3.74,0,0,1,1.93.12,2.08,2.08,0,0,0,1.4.18c.78-.23,2-.86,2.25-1.7a.46.46,0,0,0,0-.26.3.3,0,0,0,0-.08c.2-.49.23-.83.87-1a5.13,5.13,0,0,1,1.24,0c1.14,0,2.33-.44,2.51-1.71a.52.52,0,0,0-.23-.56A4.72,4.72,0,0,1,89,52.79a.48.48,0,0,0-.64-.18.49.49,0,0,0-.56-.08,8.93,8.93,0,0,0-1.43.92c-.15.11-1.55.86-1.5.48,0-.16.8-.6.94-.7l.69-.49c.26-.17.53-.32.8-.47l.74-.23c2.48.72,3.77-2.34,4.79-4.13a.47.47,0,0,0,0-.56c.64-1,1.7-1.78,1.95-3,.13-.6.13-1.18.26-1.75a2.74,2.74,0,0,0,.29-.83,5.36,5.36,0,0,0,.52-1.52.53.53,0,0,0-.14-.45,10.89,10.89,0,0,0,.09-1.17,3.38,3.38,0,0,1,1.06-2.12.49.49,0,0,0,.49-.47.36.36,0,0,1,0-.11h0a.52.52,0,0,0,.12-.38c.28-.57.9-.92,1-1.61s-.51-1.4-.8-2.11a.35.35,0,0,0-.07-.27c-.64-1-1.77-1-2.86-1.15a12.25,12.25,0,0,0-3.91.59.45.45,0,0,0-.29.2,7.36,7.36,0,0,0-2.44-.87c-1.12-.1-2,.71-3.17.53h0c-1.91-.75-4.09.56-5.8,1.53h0a.45.45,0,0,0-.46.36c-.35,0-.7,0-1.05,0a.51.51,0,0,0-.43.76c.08.18-.61.72-1.13,1.1a5.87,5.87,0,0,0-1.25-.05,2.36,2.36,0,0,0-.38.1l.13-.22A14.38,14.38,0,0,0,76.85,32a.51.51,0,0,0-.48-.84,5,5,0,0,0-1.21.57,3.23,3.23,0,0,1-1.3.28,3.37,3.37,0,0,1,.69-.89c.48-.46,1-.4,1.64-.58a2.48,2.48,0,0,0,.75-.36.48.48,0,0,0,.77.1l1.12-1.23c.37-.41-.1-1.1-.6-.79l-.42.26c-.47-.11-.93-.21-1.4-.28h-.08a1.31,1.31,0,0,0-.28-.09,2.74,2.74,0,0,0-.64,0,1.6,1.6,0,0,1-.39-.11,0,0,0,0,0,0,0,5.29,5.29,0,0,0,1.37-.34,3,3,0,0,0,1.07-1.13,9.52,9.52,0,0,1,1.72-1.76,8.67,8.67,0,0,0,1.31-1c.35-.27.71-.54,1-.81a.37.37,0,0,0,.15-.26c.66-.55,1.35-1,2-1.59a7.39,7.39,0,0,0,1.65-2.18,2.29,2.29,0,0,0,.39-.8s-.12-1.15-.23-.94a.48.48,0,0,0-.18-.65,1.7,1.7,0,0,1,.31-1,.41.41,0,0,0,0-.09,4.46,4.46,0,0,0,.31-.62.52.52,0,0,0-.35-.62,10.09,10.09,0,0,0-2.25-.32.5.5,0,0,0-.35.85l.12.13-.07,0-.39.05c-.36,0-.74-.19-1.11-.22a1.6,1.6,0,0,0-.9.16.46.46,0,0,0-.5.1c-1,1-2.76.06-4,.59a9,9,0,0,1-1.43.55,1,1,0,0,0-.73.36.38.38,0,0,0-.23.11l-.32.26h0a.91.91,0,0,0,.08-.56.85.85,0,0,0-.83-.67,1.27,1.27,0,0,0-1,.62,3.48,3.48,0,0,1-.95.89c0-.29,0-.57.07-.86,0-.57-.83-.65-1-.13.11-.4-.3-.74-.54-1.08a.51.51,0,0,0-.87,0,8.92,8.92,0,0,0-.91,1.83c-.15.39.27.66.6.62h0c-.4.08-1.19,1.47-1.22,1.93-.06.75.77,1.47,1,2.14a4.91,4.91,0,0,0-2.58,0,.51.51,0,0,0-.22.84,1.24,1.24,0,0,1,.43.86c0,.18.16,1-.11,1.1a.42.42,0,0,0-.26-.08H65a.5.5,0,0,0-.48.63c.12.65.7.71,1.18,1a2.45,2.45,0,0,1,.78.88l.21.41c.18.38.42.56-.21.59a.59.59,0,0,0-.47.38h0a.46.46,0,0,0-.55,0h0a1.06,1.06,0,0,1-.6-.5.51.51,0,0,0-.79-.1c-.09.1-.42.51-.54.28-.25-.51-1.05-.15-.91.39.07.28.14.57.2.86a.55.55,0,0,1-.81-.18c-.22-.43-.22-.85-.56-1.22a.51.51,0,0,0-.84.22,1.83,1.83,0,0,0,.21,1.39c.17.3.42.58.57.89a.42.42,0,0,0,0,.43l.12.18a.29.29,0,0,0,0,.09.5.5,0,0,0-.62.71,3.41,3.41,0,0,0,.52.68.73.73,0,0,0,.32.87.72.72,0,0,0,.9-.15c.17.05.35.18.34.32s0,.06,0,.09v0h0a.9.9,0,0,1-.24.12c-.14,0-.28-.09-.42-.12a.83.83,0,0,0-.58.06h0a5.71,5.71,0,0,1-1-.6c-.38-.27-.82.17-.73.56l.4,1.76c.09.37.11.95.4,1.24s.81.17,1.25-.12a.58.58,0,0,0,.64.14,9.93,9.93,0,0,1,1-.69A1.82,1.82,0,0,1,62,37a.5.5,0,0,0,0,1,4.4,4.4,0,0,0,1.25-.09,2.11,2.11,0,0,0,.31-.13.62.62,0,0,0,0,.27,2,2,0,0,0,.42.83,3.79,3.79,0,0,1-1.2-.37.49.49,0,0,0-.6.08,1.07,1.07,0,0,0,0,1.46c.35.44,1,.52,1.33.92a3.22,3.22,0,0,1-1-.1,2.62,2.62,0,0,0-.84,0,.76.76,0,0,0-.54.16.5.5,0,0,0,.5.87,5.84,5.84,0,0,0,.55.86l.3.27c-.59,0-1.16-.63-1.78-.35a1.88,1.88,0,0,0-.87,1.74.51.51,0,0,0,.86.36c.05-.06.29-.34.39-.29s.15.28.23.34a.77.77,0,0,0,.4.16,1.45,1.45,0,0,0,.17.18l-.46.14a1.3,1.3,0,0,0-.31.16l-.69.22c-.36.12-.54.74-.12.92a2.42,2.42,0,0,1-.39.16l-.07,0a.43.43,0,0,0-.38-.22,4.31,4.31,0,0,0-2.73.61c-.31.22-.35.84.12.92.91.14,2.23.65,3.09.13.3-.18.44-.41.82-.5s.51,0,.76.35a1.43,1.43,0,0,0-1.11.09.9.9,0,0,0-.38.6,1,1,0,0,1-.49,0,.51.51,0,0,0-.61.35c-.43,1.09,1.33,1.75,2.34,2a.52.52,0,0,0,.18.21.45.45,0,0,0,.67,0,50.75,50.75,0,0,0,3.79-4.24,1.14,1.14,0,0,0-.15-1.78.38.38,0,0,1,.37,0,.89.89,0,0,1,.23.28,2.83,2.83,0,0,1,.34.75.69.69,0,0,1-.35.85.51.51,0,0,0,.25.94h.22c-.44.17-1,.25-1.32.43-.59.29-1.23.93-.95,1.65a.51.51,0,0,0,.58.31.41.41,0,0,0,0,.09,2.19,2.19,0,0,1-.44.42c-.22.14-.44.24-.53.5a.63.63,0,0,0,.57.87,2.38,2.38,0,0,0,1.42-.5c.23-.16.48-.4.74-.6a2.69,2.69,0,0,1-.6,1,2.14,2.14,0,0,1-1.55.35.52.52,0,0,0-.23.06.84.84,0,0,0-.82.11c-.43.3-.36.73-.57,1.15s-.55.58-.5,1.07a.61.61,0,0,0,.3.5.78.78,0,0,0-.2.47.5.5,0,0,0,0,.13.47.47,0,0,0,.05.3,1.31,1.31,0,0,0,.27.34,1.63,1.63,0,0,0-.42.61,1.13,1.13,0,0,0,.23,1,7.85,7.85,0,0,0-1.45,1.43l0,0h0l-.09.1c-.27.35.06.68.41.71-.32.38-.59.81-.43,1.19a.57.57,0,0,0,.78.34,3.19,3.19,0,0,0-.51,1.4.5.5,0,0,0,.75.43,7.17,7.17,0,0,0,.9-.73h0a3.12,3.12,0,0,1,0,.43,4.25,4.25,0,0,0-2,3.15,2.69,2.69,0,0,0-.39,1.1,4.4,4.4,0,0,0,.1,1.2c-.54.81-1.38,1.61-1.25,2.48s1.1,1.1,1.83.8c1.42-.57.77-1.3,1.13-2.49a7.61,7.61,0,0,0,.44-1.27c.1-.9-.23-1.81.16-2.67v0l.44-.75a5.58,5.58,0,0,1,.39-.46.69.69,0,0,0,.17-1.35,1.86,1.86,0,0,1,0-.22c0-1-.66-2.41.21-3.44.18-.22.55-.44.77-.65s.57-.6.82-.89c0,0,0,.11-.08.17s-.28.38-.41.58a4,4,0,0,0-.88,3.16.49.49,0,0,0,.73.29,7.26,7.26,0,0,0,1.15-1.07c.18-.16.37-.41.58-.63l.09.87a.37.37,0,0,0,0,.11l0,.29c.07.63,1.07.64,1,0l0-.35a8.39,8.39,0,0,0,.45-1.79c0-.36,0-2.21.68-2a.47.47,0,0,0,.31,0A2.42,2.42,0,0,0,69.34,60c.1.38.74.53.91.12,0-.05,0-.09,0-.13a11.64,11.64,0,0,1,1.08,1c.35.31.78.61,1.12,1a2.83,2.83,0,0,1-1.17-.2,1.44,1.44,0,0,0-.55-.25,5.27,5.27,0,0,0-1-.39.47.47,0,0,0-.51.19.45.45,0,0,0-.3.44c0,1.21-.36,2.79,0,4s1.8,1.39,2.26,2.59-.47,1.62-1.15,2.5a3.84,3.84,0,0,0-.72,2.49.44.44,0,0,0-.24.31c-.12.61-.75.83-1.15,1.22A2.65,2.65,0,0,0,67.28,76a3.81,3.81,0,0,0,.39,2.86.87.87,0,0,0,.12.14.51.51,0,0,0-.1.24,4.1,4.1,0,0,1-.91-1.53.5.5,0,0,0-1,0c-.36,1.36.4,2.31,1.11,3.4s.6,2.22,1.57,2.92a.5.5,0,0,0,.73-.57c0-.16-.11-.31-.16-.47a.48.48,0,0,0-.45-.34c-.21-.44-.32-1-.49-1.44a.58.58,0,0,0,.17-.33c0-.18.48-.23.58-.24a1.55,1.55,0,0,1,.74.14.5.5,0,0,0,.34,0A4.66,4.66,0,0,1,72,82.11c.42.45,1,1.23,1.7,1.23s.77-.48.72-1a11.77,11.77,0,0,0-.78-2.61l1.89,1.39a.41.41,0,0,0,.4.07,1.27,1.27,0,0,0,.84,0,1.16,1.16,0,0,0,.45-.24l.06-.06a1.31,1.31,0,0,0,.59.54.74.74,0,0,0,.84-.19.41.41,0,0,0,.07-.11.49.49,0,0,0,.22-.06,1,1,0,0,0,.45-.59c.1-.32,0-.51.32-.45a1.81,1.81,0,0,0,1.26,0,.61.61,0,0,0,.18.08,1,1,0,0,0,1.27-1c0-.27-.19-.62-.13-.87s.53-.06.74,0a.38.38,0,0,0,.43-.07,13.14,13.14,0,0,0,3.65-.15,1.07,1.07,0,0,1-.5.63c-.3.13-.58-.12-.89-.09a.88.88,0,0,0-.8.83c-.2-.16-.37-.35-.74-.18s-.55.8-.63,1.23c-.29,1.68-1.36,3-1.66,4.7-1,1,.27,1.75.9,2.68s.83,3.08,1.92,3.71a.53.53,0,0,0,.61-.08l.07-.06a.4.4,0,0,0,.07-.6l.09-.16c.07.16.14.32.2.48.2.54,0,.7-.24,1.14a1,1,0,0,0,.34,1.32c1,.52,1.58-.62,1.93-1.66a.69.69,0,0,0,1,.28c.34-.14.49-.47.7-.76a4,4,0,0,1,.37-.45s0,0,0-.05l.21,2.26a3,3,0,0,0-.5.89,6.17,6.17,0,0,0,0,.86c0,.5-.29.68-.78.72-.77.06-1.67.6-1.3,1.51a.51.51,0,0,0,.26.28c-.06.55-.31,1.4.11,1.86a.67.67,0,0,0,.64.2,5.29,5.29,0,0,1,.57-.15l0,.22a6.23,6.23,0,0,1-1.27,2.22,1.68,1.68,0,0,0-.38,1.43,4.18,4.18,0,0,0,1.77,2.79.42.42,0,0,0,0,.1,1.34,1.34,0,0,0,.94.68,1.62,1.62,0,0,0,.58,0l.28-.08-.48.55a.87.87,0,0,1-.79.19c-.2-.07-.39-.33-.52-.48-.34-.42-.59-.89-.89-1.34s-.8-1-1.35-.52-.29,1.23,0,1.74.41.74.63,1.11a11.28,11.28,0,0,1-1.33-1,2.27,2.27,0,0,0-1.05-.55c-1.78-.28-2.7,1.85-4.72.87a.52.52,0,0,0-.7.25,1.72,1.72,0,0,0-.87.11c-.44.24-.68.58-1.21.68a.39.39,0,0,0-.35.47,7.62,7.62,0,0,0-1.74,1,3.75,3.75,0,0,0-1.15,2,1.81,1.81,0,0,1-.2.33,3.63,3.63,0,0,1-1.2,1,15.81,15.81,0,0,0-2.26,1.66c-.33.3-.76.76-.43,1.24.49.68,1.31-.34,1.72.11A.5.5,0,0,0,73,116a2.6,2.6,0,0,1,.27-.58l.06,0a3.39,3.39,0,0,1,1.47-.84c.21,0,.43,0,.65-.06a2.47,2.47,0,0,0,.42-.17H76a.47.47,0,0,0,.51.19,1.76,1.76,0,0,1,.31,0c-.41,1.21-.17,2.89,1.23,3.13a9.18,9.18,0,0,1-.87,1,1.69,1.69,0,0,0-.18,1.26,1.54,1.54,0,0,0,.7.92.73.73,0,0,0,.22.09,1.18,1.18,0,0,0-.2.23,1.93,1.93,0,0,0-.2.41l-.06.09a5.89,5.89,0,0,0-.53,2.37A7.57,7.57,0,0,1,76.2,125a.47.47,0,0,0-.45.22,4.61,4.61,0,0,1-.85,1.06c-.91.72-.35.11-.85.31a1.15,1.15,0,0,0-.7.62,1.85,1.85,0,0,1-.34.41,2.19,2.19,0,0,0-1.6.31l-.13.08a1.64,1.64,0,0,0-1.07.51.47.47,0,0,0-.16.36c-1,.65-2,1.51-2.92,1a.5.5,0,0,0-.6.08c-.33.26-.22.38-.44.75-.41.69-1,.83-1.7,1.14-.5.22-.19.9.25.93a6.77,6.77,0,0,1,1,.14c.19.22.41.42.37.71-.1.62-1.33.5-1.19,1.33.1.57.72.61,1.17.46s.59-.27.89-.4l.1.05a3.25,3.25,0,0,0,1.56-.17,1.41,1.41,0,0,0,.22.06,1,1,0,0,0-.23.11c-.47.28-.78.61-1.39.52-.44-.06-.91.47-.49.84a1.85,1.85,0,0,0,1.38.5c.57,0,.85-.45,1.33-.65s.92.16,1.33-.22a.76.76,0,0,0,.21-.68,5.44,5.44,0,0,1,1.61-.29,4,4,0,0,0,1.47-.76.52.52,0,0,0,.44,0h0a1.11,1.11,0,0,0-.08.6.94.94,0,0,0,.48.59,4.25,4.25,0,0,0,1.12.26l1.41.25a.53.53,0,0,0,.06.1.56.56,0,0,0,.11.11.14.14,0,0,0,0,.07l-.16,0a3.54,3.54,0,0,1-.71.13c-.33,0-.67,0-1,0a.7.7,0,0,0-.48,1.18,1,1,0,0,0,.75.27c.49,0,1,0,1.47,0a1.52,1.52,0,0,0,.87-.1,1.38,1.38,0,0,0,.41-.9c.26,0,.52,0,.79,0a6.27,6.27,0,0,1,1.18.1c0,.17-.08.36-.09.46a.51.51,0,0,0,.21.51,2.6,2.6,0,0,0,.2.81,1.29,1.29,0,0,0,.87.65,1.21,1.21,0,0,1,.49.22,4.57,4.57,0,0,0,.44.44,1,1,0,0,0,.63.22,2.74,2.74,0,0,0,2.1.34,3.23,3.23,0,0,0,1.72-.5,1.82,1.82,0,0,0,.47-.76l.06-.07c.46-1,2.38-1.32,3.32-1.84a6.38,6.38,0,0,0,2.33-2.34,0,0,0,0,0,0,0,6.4,6.4,0,0,0,.84-.39,5.48,5.48,0,0,0,.6-.38.75.75,0,0,0,.14-.12c-.33.57-.78,1.09-1.13,1.62-.52.79-1,1.6-1.43,2.44a.49.49,0,0,0,0,.16,7.71,7.71,0,0,0-1.38.69,3,3,0,0,0-.33.51,5.13,5.13,0,0,1-.74.8,2.34,2.34,0,0,0-.71,1.2c-.16.57-.12,1.31-.51,1.77a.57.57,0,0,0-.14,0,38.34,38.34,0,0,1-5.36.09,46.16,46.16,0,0,0-5,.4c-2.17.11-2.53.73-2.4,2.86a.25.25,0,0,0,0,.07,2.72,2.72,0,0,1-1.54.66c-.42,0-.88-.23-1.28-.14-.6.14-.59.58-.64,1.11s-.11,1.19-.17,1.78a4.39,4.39,0,0,1-.11,1.09c-.1.24-.34.38-.47.58a1.12,1.12,0,0,0-.22.68,1.65,1.65,0,0,1-.44.26,1.41,1.41,0,0,0-.69.42,2.61,2.61,0,0,0-.42,1.81,2.09,2.09,0,0,0-1.14,0,.86.86,0,0,0-.42.4.77.77,0,0,0-.07.26.34.34,0,0,0,0,.1,1.14,1.14,0,0,0-1.08.14c-.34.3-.25.62-.22,1,0,0,0,0,0,.06v.21a.28.28,0,0,1,0,.09.59.59,0,0,0,0,.23.85.85,0,0,1-.1.33,1.22,1.22,0,0,0-1.19.55c-.16.28-.14.66-.38.88a6.4,6.4,0,0,1-1.25.71.46.46,0,0,0-.23.49,4.08,4.08,0,0,1-1.21.88,8.59,8.59,0,0,1-1.54.11A1.92,1.92,0,0,0,59.33,163c-.1.52.06,1.37.7,1.43s1.14-.58,1.41-1.13a4.84,4.84,0,0,1,.65.19,3.27,3.27,0,0,0,1.15.23.9.9,0,0,0,.4,0s.07,0,.11,0c.64.08.34,1.31.55,1.72a.86.86,0,0,0,1.27.34.82.82,0,0,0,.28-.67v0a.83.83,0,0,0,.81-1.08.47.47,0,0,0-.18-.28.37.37,0,0,0-.06-.26c-.19-.34,0-.81.12-1.15,0-.12.06-.29.09-.45A.46.46,0,0,0,67,162a.44.44,0,0,0,.21.08,1,1,0,0,0,1-.32c.12-.13.18-.32.3-.44s.22-.1.42-.1c1,0,1-1,1.18-1.72h.11a3.64,3.64,0,0,1,1.27-.13,5.18,5.18,0,0,0,1.1.14,3.54,3.54,0,0,0,1.45-.75,1.77,1.77,0,0,1,1,0c.25.12.4.34.68.42a1.09,1.09,0,0,0,1.07-.3c.55.06.64.63,1.13.9s1.09.05,1.65,0h0c.44.25.51.57.75,1a.62.62,0,0,0,.47.28c.27,0,.48-.15.75-.12s.71.23,1-.19a1.22,1.22,0,0,0,.1-.85.52.52,0,0,0,0-.31c-.1-.46.11-.23.43-.36a1,1,0,0,0,.55-1.17c0-.18-.21-.29-.27-.44s-.1-.12.1-.46a4.16,4.16,0,0,0,.54-1.55.49.49,0,0,0,0-.21,4.65,4.65,0,0,0,.52-1.82,1.74,1.74,0,0,0,1.88.19,6.71,6.71,0,0,1,1.84-.85c.79-.16,1.6-.28,2.39-.42a.48.48,0,0,0,.44.11,2.25,2.25,0,0,1,2.34.31,4,4,0,0,0,1.33,1,.42.42,0,0,0,.33,0,1.74,1.74,0,0,0,.68,0c.66-.13.91-.49,1.7-.27.46.13.8.49,1.24.65a2.32,2.32,0,0,0,2.47-.85.52.52,0,0,0-.4-.86c-.15-.2-.28-.42-.23-.5a7.12,7.12,0,0,1,.87.16.43.43,0,0,0,.46-.34c.81-.06,1.44-.68,2.21-.38a1.62,1.62,0,0,0,1.79-.12c1.11-.83,2.24-1.86,1.11-2.93l.08-.18.1.05a6.48,6.48,0,0,1,.81.56.49.49,0,0,0,.21.22,16.05,16.05,0,0,0,1.83,1.09,2.38,2.38,0,0,0,.88.13,4,4,0,0,1,1.57.32.51.51,0,0,0,.6-.13c.9.2,1.6-.43,2.58-.68.68-.17,1.44-.08,2.14-.21,1.13-.21,2.19-.61,3.34-.72,1.14.82,2.88,1.7,4.17,1.07a.42.42,0,0,0,.34-.16,2.81,2.81,0,0,1,1.8-1.19c.52,0,.94.16,1.45-.09.78-.38,1.49-2.26,2.37-2.23a5.67,5.67,0,0,0,1.15.51.42.42,0,0,0,.49-.14.52.52,0,0,0,.28-.55c-.23-1.37,1.23-1.87,2.12-2.55a6.64,6.64,0,0,0,1.05-1,.54.54,0,0,0,.73-.27,7.3,7.3,0,0,0,.15-2.34.78.78,0,0,0,.12-.67,1.31,1.31,0,0,1,.22-.4.5.5,0,0,0-.3-.74c-1.35-.32-2.65.18-4,.45a9.61,9.61,0,0,1-1.37.16.47.47,0,0,0-.33-.62,10.92,10.92,0,0,1-1.34-.42c-.46-.17-.84.52-.48.84l.12.11-1.88-.19c.42-.25.84-.48,1.28-.69a.51.51,0,0,0-.12-.92,2.15,2.15,0,0,0-1.55.23,8.28,8.28,0,0,1-1.3.5,1.23,1.23,0,0,1,.71-.71,1,1,0,0,0,.61-.07c.25-.11.48-.26.72-.39a14.7,14.7,0,0,0,2-.51,3.79,3.79,0,0,0,1.73-2.52.53.53,0,0,0-.33-.57.48.48,0,0,0-.8-.17,1.21,1.21,0,0,1-.55.33h-.17c.18-.17.35-.34.52-.52a1.86,1.86,0,0,0,.33-.19,3,3,0,0,0,.61-.63,3.17,3.17,0,0,1,.69-.29,1.67,1.67,0,0,0,1.07.37c.8-.05.9-.78,1.54-1.09a.51.51,0,0,0,.1-.79l-.33-.23a.51.51,0,0,0,.07-.59.78.78,0,0,0-.46-.41c-.06,0-1.05-.2-1.05-.29a2.45,2.45,0,0,0,.34-.06c.14-.17.33-.24.39-.5a1.06,1.06,0,0,0,0-.43s0,0,0-.07l.35-.15a1.25,1.25,0,0,1,.38.2,2,2,0,0,1,.27.23c.07.07.15.2.19.2a.5.5,0,0,0,.13.25.29.29,0,0,0,.14.08.46.46,0,0,0,.78-.06,8,8,0,0,1,1.06-1.63.41.41,0,0,0,.11-.19,2.32,2.32,0,0,0,.92-1.3,13.9,13.9,0,0,0,.22-2.58.53.53,0,0,0,.17-.34C138.9,120.62,139.49,119.24,139.35,117.8ZM73.27,37.62a10.65,10.65,0,0,1-.78,1.68,3.18,3.18,0,0,1-1.19,1,26.92,26.92,0,0,1,1.25-2.6.54.54,0,0,0,.3-.2c0-.05.64-.78.72-.62S73.34,37.45,73.27,37.62Z"/><path class="cls-2" d="M128.94,110.78c0-1.7,0-3.42,0-5.12,0-.85.08-1.47-.76-1.88l-.25-.09c0-.2,0-.41,0-.61a6.2,6.2,0,0,0,0-2,15,15,0,0,0-1-3s0-.08,0-.12a44.25,44.25,0,0,0,.1-6.41.89.89,0,0,0-.08-.29.18.18,0,0,0,0-.1c-1.43-2.92-2.1-6.17-3-9.29,0-.14,0-.29.06-.43s-.35-.24-.38,0l0,.2a.19.19,0,0,0-.06.19l0,.07a36.13,36.13,0,0,1-2.9,9,.21.21,0,0,0,.19.29.53.53,0,0,0,0,.22c.06,1.74.13,3.47.19,5.21a0,0,0,0,0,0,0,21.67,21.67,0,0,0-1.25,4,.86.86,0,0,0,0,.32,10.59,10.59,0,0,0-.08,2.39.67.67,0,0,0-.8.73,80.24,80.24,0,0,1,.09,9.93.7.7,0,0,0,.75.74c0,.29,0,.59,0,.88-.44,5,0,10.26,0,15.31v3.73c0,.74-.31,2.23.17,2.89s1.63.64,2.68.52a26,26,0,0,0,2.65.21,3.19,3.19,0,0,0,1.86-.2.7.7,0,0,0,1-.67c-.2-4.21-.29-8.43-.24-12.65q0-3,.16-6a20.85,20.85,0,0,0,0-3.54l.36-.07a.75.75,0,0,0,.53-.53A16.6,16.6,0,0,0,128.94,110.78Zm-1.57,2.6a1.12,1.12,0,0,0-.2-.18.6.6,0,0,0,.23-.22C127.39,113.14,127.38,113.27,127.37,113.38Z"/><path class="cls-3" d="M128.1,100.11a17,17,0,0,1-.95-2.31,1,1,0,0,0-.55-.69,1.18,1.18,0,0,0-.4-.09.49.49,0,0,0,0-.12.2.2,0,0,0,.14-.18,12,12,0,0,0-.06-1.47,7.55,7.55,0,0,0,.1-1.15c0-.32-.26-.57-.58-.44a.22.22,0,0,0-.09.33s0,0,0,0v0a.18.18,0,0,0-.11.17v1.21a8.12,8.12,0,0,0,0,1.56c-.14,0-.27,0-.41,0a8.41,8.41,0,0,0,0-2.35v-.61a.18.18,0,0,0-.27-.16.2.2,0,0,0-.31.15l0,.75c-.08.75-.1,1.51-.11,2.28h-.2a6.39,6.39,0,0,0-.13-3A.14.14,0,0,0,124,94a.19.19,0,0,0-.29-.17.18.18,0,0,0-.31.13,21.8,21.8,0,0,0,0,3.13H123a9.18,9.18,0,0,0-.06-3.18c0-.15-.24-.17-.33-.07a.16.16,0,0,0-.19.13s0,.06,0,.09a.15.15,0,0,0-.09.17c0,.1,0,.21,0,.31a9.62,9.62,0,0,0,0,2.57l-.42,0c0-1,.41-2.11-.18-3v0a.15.15,0,0,0-.16-.18.19.19,0,0,0-.21,0,.2.2,0,0,0-.26.18c0,1,0,1.92,0,2.89a.52.52,0,0,0-.46.39,13.08,13.08,0,0,1-1,2.51c-.18.36,0,.91.5.87a31.12,31.12,0,0,1,4.21-.1.51.51,0,0,0,.31.11c1,0,2,.08,3,.19A.58.58,0,0,0,128.1,100.11Z"/><path class="cls-3" d="M121.27,103.37a5.52,5.52,0,0,0,0-1.07.41.41,0,0,0-.46-.39.55.55,0,0,0-.44.47,2.51,2.51,0,0,0,0,.55,1.91,1.91,0,0,1-.12.64c-.09.22.25.32.35.13a.68.68,0,0,0,.49.06.2.2,0,0,0,.13-.24Z"/><path class="cls-3" d="M122.66,103.37a8.38,8.38,0,0,0,.13-.83c0-.27-.17-.33-.25-.55a.19.19,0,0,0-.28-.11.55.55,0,0,0-.26.32.18.18,0,0,0-.07.15v1.28a.19.19,0,0,0,.36.08h0a.37.37,0,0,0,.21,0,.19.19,0,0,0,.18-.24S122.67,103.4,122.66,103.37Z"/><path class="cls-3" d="M123.74,102a.3.3,0,0,0-.36.2.17.17,0,0,0-.07.14,7.07,7.07,0,0,0,0,1.38.2.2,0,0,0,.37.08.17.17,0,0,0,.23-.08l0,0a.19.19,0,0,0,.33-.17C124.22,103,124.5,102.06,123.74,102Z"/><path class="cls-3" d="M125.66,102.87a1.76,1.76,0,0,0-.23-1,.21.21,0,0,0-.31,0,.83.83,0,0,0-.2.3.26.26,0,0,0,0,.09,4,4,0,0,0-.09,1.38.19.19,0,0,0,.24.19c.34-.08.73-.07.7-.5A3.62,3.62,0,0,0,125.66,102.87Z"/><path class="cls-3" d="M127.1,102.85l0-.75a.18.18,0,0,0-.09-.16.28.28,0,0,0-.39.1.15.15,0,0,0-.07.1v0a4,4,0,0,0-.17,1.52c0,.19.3.26.36.07,0,0,.07,0,.09,0a.27.27,0,0,0,.13,0,.25.25,0,0,0,.14-.2.49.49,0,0,0,0-.11A2.18,2.18,0,0,0,127.1,102.85Z"/><path class="cls-3" d="M126.71,91c0-.1-.07-.21-.11-.31a.22.22,0,0,0,0-.16c-.08-.18-.18-.37-.26-.55a48.69,48.69,0,0,1-2.2-8.5c0-.19-.27-.16-.35,0a.21.21,0,0,0-.13.17,31.64,31.64,0,0,1-2.64,9.3.18.18,0,0,0-.08.29v0c0,.11,0,.23.18.21.71-.07,1.42-.13,2.13-.17a1.63,1.63,0,0,0,.31,0,.19.19,0,0,0,.13,0c.47-.08,1,0,1.49,0s.87-.08,1.3-.12C126.61,91.22,126.78,91.12,126.71,91Z"/><path class="cls-3" d="M126.48,91.69c-1.85,0-3.7,0-5.55,0a.2.2,0,0,0,0,.39c1.85,0,3.7.06,5.55,0A.19.19,0,0,0,126.48,91.69Z"/><path class="cls-3" d="M121,112.94c-.1.06-.22,0-.32.1a.2.2,0,0,0-.32.19,4,4,0,0,1,.08.46,1.51,1.51,0,0,0,0,.37c.06.19.35.25.52.27s.3-.18.31-.38,0-.57,0-.85A.19.19,0,0,0,121,112.94Z"/><path class="cls-3" d="M122.66,113A1.39,1.39,0,0,0,122,113a.17.17,0,0,0-.18.13.22.22,0,0,0,0,.08l0,.73c0,.16,0,.36.15.44a1.1,1.1,0,0,0,.54,0c.19,0,.22-.19.21-.35s0-.3,0-.45a.22.22,0,0,0,.08-.2c0,.05,0,0,0,0a.49.49,0,0,0,0-.12A.26.26,0,0,0,122.66,113Z"/><path class="cls-3" d="M124.17,113.33c0-.22-.11-.31-.33-.35a.29.29,0,0,0-.25.06c-.1,0-.21,0-.23.12a2.86,2.86,0,0,0,0,1,.26.26,0,0,0,.18.22c.14,0,.31-.06.44,0a.19.19,0,0,0,.28-.22A3,3,0,0,1,124.17,113.33Z"/><path class="cls-3" d="M125.73,114a2.69,2.69,0,0,1,0-.57c0-.14,0-.27-.14-.34a.59.59,0,0,0-.45,0,.15.15,0,0,0-.07,0,.18.18,0,0,0-.26.17l0,.58a.52.52,0,0,0,.08.37.79.79,0,0,0,.45.13c.12,0,.24,0,.34,0A.33.33,0,0,0,125.73,114Z"/><path class="cls-3" d="M127.19,113.33a.36.36,0,0,0-.26-.34.28.28,0,0,0-.29.08.18.18,0,0,0-.32.07,3.62,3.62,0,0,0,0,.57,2.47,2.47,0,0,0,0,.47c.11.32.55.14.78.1a.2.2,0,0,0,.14-.19C127.22,113.84,127.22,113.58,127.19,113.33Z"/><path class="cls-3" d="M127.62,105.21v0a.22.22,0,0,0-.07-.09.23.23,0,0,0-.17-.11h0a.19.19,0,0,0-.13,0,.72.72,0,0,0-.35,0c-1-.09-2-.15-2.93-.15a14.82,14.82,0,0,1-3.46,0,.18.18,0,0,0-.22.11.14.14,0,0,0-.14.18A33.79,33.79,0,0,1,120,109c0,.67,0,1.34,0,2a4.8,4.8,0,0,0,0,1.07.18.18,0,0,0,.12.26h0a.16.16,0,0,0,.12,0,16.26,16.26,0,0,0,3,.12c1.26,0,2.51,0,3.77-.07h0a.19.19,0,0,0,.25-.07,2,2,0,0,0,.07-.89l0-2c0-1.13,0-2.26,0-3.4,0-.2,0-.4,0-.6l0,0A.19.19,0,0,0,127.62,105.21Zm-4,6.88c-.34,0-.7,0-1.06,0a.13.13,0,0,0-.06,0l-.09-.06s0,0,0,0a.2.2,0,0,0,0-.37,2.59,2.59,0,0,1-1.23-.94,6.79,6.79,0,0,0-.42-.67.18.18,0,0,0-.27,0l0,0a.23.23,0,0,0-.07-.07c0-.46,0-.92,0-1.39s0-1,.08-1.5h0a.22.22,0,0,1,0,.08c0,.24.35.24.38,0a.2.2,0,0,0,.36,0c0-.15.06-.33.08-.51a.21.21,0,0,0,.27-.18h0a.2.2,0,0,0,.22-.09,1.31,1.31,0,0,0,.09-.34l0-.13a.48.48,0,0,0,.18-.07l.07,0c.16.19.31.38.46.59s.48,0,.33-.2-.41-.55-.63-.81l0,0c.41,0,.83-.07,1.23-.07.61,0,1.23,0,1.84,0h0a.16.16,0,0,0,.06.26l.28.15a3.8,3.8,0,0,0,.64.75s0,0,0,0,.09.27.11.37,0,0,0,0v.29a4.37,4.37,0,0,0,.24,1.84v0a.2.2,0,0,0,0,.38h0a9.63,9.63,0,0,1,0,1.2,5.41,5.41,0,0,1-1,1,.2.2,0,0,0-.08.17c-.25.1-.5.17-.65.22a.19.19,0,0,0-.13.14Z"/><path class="cls-3" d="M120.93,121.83c-.13-2,.27-4.09,0-6.14,0-.24-.42-.24-.39,0,.25,2-.15,4.09,0,6.14.12,1.76.12,3.5.09,5.26a.17.17,0,0,0-.1.16l0,10.57a.19.19,0,0,0,.38,0l0-9.92a.15.15,0,0,0,.1-.15C121.06,125.76,121.07,123.81,120.93,121.83Z"/><path class="cls-3" d="M123.11,129c0-.24,0-.48,0-.72,0,0,0-.08,0-.12a.3.3,0,0,0,0-.1c-.09-2-.14-4-.12-5.92a50.16,50.16,0,0,0,0-6.37c0-.24-.41-.24-.39,0a52.09,52.09,0,0,1,0,6.37c0,2,0,4.09.13,6.14-.23,3.2-.13,6.39,0,9.59,0,.24.39.24.38,0-.07-2.91-.15-5.81,0-8.71A.17.17,0,0,0,123.11,129Z"/><path class="cls-3" d="M124.94,127c-.08-1.94-.11-3.88-.07-5.82s.26-3.66.15-5.48c0-.24-.4-.25-.38,0,.11,1.82-.12,3.66-.15,5.48s0,3.71.06,5.56a.13.13,0,0,0,0,.06c0,1.78.11,3.59,0,5.37s-.12,3.64-.09,5.49a.2.2,0,0,0,.39,0c0-1.85,0-3.65.09-5.49.06-1.68,0-3.39,0-5.08A.14.14,0,0,0,124.94,127Z"/><path class="cls-3" d="M127,132.88a12.82,12.82,0,0,0,0-2c-.05-.84.08-1.68,0-2.52a.21.21,0,0,0,0-.11c-.08-4.18.15-8.36.08-12.55a.19.19,0,0,0-.38,0c.07,4.56-.22,9.11-.06,13.67a.17.17,0,0,0,0,.1c0,.43,0,.85,0,1.28a18.22,18.22,0,0,1,0,2.09,27.59,27.59,0,0,0,0,4.81c0,.25.41.25.39,0A26.64,26.64,0,0,1,127,132.88Z"/><path class="cls-4" d="M127.31,109.51a3.83,3.83,0,0,0-.17-2.27,3.47,3.47,0,0,0-2.73-2.27,2.18,2.18,0,0,0-.51,0,3,3,0,0,0-1.12,0,3.35,3.35,0,0,0-2,1.51,3.2,3.2,0,0,0-.74,1.69,3.59,3.59,0,0,0,1.82,3.48l.1.05a3.59,3.59,0,0,0,.69.43,3.24,3.24,0,0,0,2.55-.22,3,3,0,0,0,1.61-1.31h0a2.29,2.29,0,0,0,.33-.64A3.23,3.23,0,0,0,127.31,109.51Z"/><path d="M139.35,116.52a.45.45,0,0,0,0-.22,8.81,8.81,0,0,0-3.39-4.25c-2.11-1.35-4.4-1.14-6.74-1.73a.46.46,0,0,0-.29,0c0-2.16.05-4.31.12-6.47a.19.19,0,0,0-.27-.17.17.17,0,0,0-.17-.14h-.31a.15.15,0,0,0-.11-.06,5.73,5.73,0,0,0,0-1.25,13,13,0,0,1,.05-1.39.14.14,0,0,0-.07-.14.13.13,0,0,0,0-.06c-.45-1.21-.88-2.42-1.28-3.65.13-1.9.18-3.8.15-5.71a.17.17,0,0,0,0-.13v0c-.63-1.73-1.29-3.43-1.81-5.19-.24-.84-.51-1.67-.73-2.51a15.78,15.78,0,0,0-.55-2.23h0v0c0-.24-.36-.24-.38,0a29.51,29.51,0,0,1-2.83,9.8.17.17,0,0,0-.12.17c0,1.92,0,3.83,0,5.75,0,0,0,0,0,0l-1,3.56a.17.17,0,0,0-.17.19,21.32,21.32,0,0,1,.11,2.77l-.28,0a.17.17,0,0,0-.14.06.19.19,0,0,0-.18.19l-.12,10.65s0,0,0,0a3.09,3.09,0,0,0,0,.43.23.23,0,0,0,.06.12.19.19,0,0,0,.15.11l.55.09c0,1.12,0,2.24,0,3.36a26.3,26.3,0,0,1,0,3.2.17.17,0,0,0-.1.16c0,.09,0,.18,0,.27s0,.07,0,.1a.18.18,0,0,0,0,.16,120,120,0,0,1,0,15.64.18.18,0,0,0,.13.18l.08,0a.14.14,0,0,0,.17.13,62.09,62.09,0,0,1,8.07-.15.22.22,0,0,0,.14,0h0l.09,0c-.35.39.15.94.59.75l.09,0a1.48,1.48,0,0,0,.88.07.49.49,0,0,0,.3-.28.42.42,0,0,0,0-.55c-.13-.19.07-.09.1-.1a1.67,1.67,0,0,1,.63,0,9.67,9.67,0,0,1,.94.24.38.38,0,0,0,.13.49.41.41,0,0,0,.46.34c1.3-.11,2.54-.53,3.83-.7a.54.54,0,0,0,.45,0,.67.67,0,0,1,.57,0c.29.16.16.31,0,.56a3.07,3.07,0,0,0-.29,1.33.52.52,0,0,0,.13.31c0,.21,0,.43-.07.64a1.76,1.76,0,0,1-.28.95.56.56,0,0,0-.05.08h0a.5.5,0,0,0-.43.25c-.68,1-1.9,1.22-2.62,2.13-.24.3-.3.71-.51,1-.63.85-1.16.52-2,.59-.64.05-.65,1.05,0,1,1.2-.1,2.17.35,2.83-1a3.2,3.2,0,0,1,.94-1.44c.29-.21.63-.37.94-.57a4.09,4.09,0,0,0,1.06-1h0a.39.39,0,0,0,.29-.09l.08,0h0a.42.42,0,0,0,.24-.42,5.42,5.42,0,0,0,.57-2.69.4.4,0,0,0-.09-.3c.08-.25.2-.48.32-.76a1,1,0,0,0-.19-1.09,1.66,1.66,0,0,0-1.64-.47.49.49,0,0,0-.25,0c-1.19.15-2.34.51-3.52.66-.16-.71-1.44-1-2.05-1a3.72,3.72,0,0,0-.66,0,.58.58,0,0,0,0-.19,3.63,3.63,0,0,0,.9-.27,2.67,2.67,0,0,0,1-1.27,6.76,6.76,0,0,0,.7-1.72,1.57,1.57,0,0,0-.37-1.27.89.89,0,0,1,.51,0c.33.1.51.31.91.22.83-.19,1.55-1.22,2-1.9a.43.43,0,0,0,.16-.5,4.12,4.12,0,0,0-.44-1.42,2,2,0,0,0-.7-.54c.43.1,1,.47,1.22.51a1.09,1.09,0,0,0,1.08-.45,10.16,10.16,0,0,0,1-1.38c.25-.38.61-.69.84-1.08a.58.58,0,0,0,.17-.23c.6-1.69.48-3.58.85-5.34A6,6,0,0,0,139.35,116.52Zm-11.57-1.77a27.87,27.87,0,0,0-.06,3.88c0,1.35-.12,2.69,0,4a.2.2,0,0,0,0,.09,88.79,88.79,0,0,1,0,9.23c0,1-.08,2,0,3s.18,1.91.11,2.85a60.41,60.41,0,0,0-8,.16l0,0a120.88,120.88,0,0,0-.06-15.81,17.09,17.09,0,0,0,.1-3.28c0-1.28,0-2.57,0-3.86a.17.17,0,0,0-.14-.17.14.14,0,0,0-.1-.06l-.52-.08v-.1a.11.11,0,0,0,0-.06l.12-10.69a1.87,1.87,0,0,0,.34,0,.21.21,0,0,0,.27-.18,23.65,23.65,0,0,0-.1-2.79.18.18,0,0,0,.1-.12c.34-1.16.67-2.32,1-3.49a.16.16,0,0,0,.08-.15c.06-1.94.06-3.87,0-5.81l0,0a29.49,29.49,0,0,0,2.8-9.17c.15.59.22,1.22.39,1.8.24.86.5,1.71.75,2.56.46,1.57,1.06,3.1,1.63,4.64a.13.13,0,0,0,0,.08l0,.11a.25.25,0,0,0,0,.07c0,1.89,0,3.79-.15,5.68v.08a.17.17,0,0,0,.06.14c.39,1.19.8,2.37,1.24,3.54a.19.19,0,0,0,.07.08v0a15.31,15.31,0,0,0,0,2.14,4.67,4.67,0,0,0,0,.6.18.18,0,0,0,.09.3,3.57,3.57,0,0,0,.65.06h.05c-.1,3.56-.2,7.12,0,10.69a2.18,2.18,0,0,0-.57,0A.16.16,0,0,0,127.78,114.75Zm.39,23.35a.21.21,0,0,0,0-.2,7.51,7.51,0,0,0,0-1,.49.49,0,0,0,.48.18l.3,0a0,0,0,0,0,0,0C129.06,137.35,128.4,137.9,128.17,138.1Zm10.29-16.52a23.85,23.85,0,0,1-.46,3.58s0,0,0,.06a13.58,13.58,0,0,1-1,1.34,4.9,4.9,0,0,1-.65.94c-.13.3-.34.34-.63.14l-.38-.18c-.9-.41-1.73-.36-2.1.67a.4.4,0,0,0,.09.45.41.41,0,0,0,.25.3c.3.14.77.26,1,.54a1.73,1.73,0,0,1,.22.8,6,6,0,0,1-1,1.12c-.52.46-.54.1-1.06,0-.81-.19-1.67.58-2.32,1s0,1.2.51.86l.36-.24c.44.75,0,1.51-.43,2.24-.51.91-1.55.87-2.49,1a.41.41,0,0,0-.25.14c0-.45-.07-.9-.08-1.34,0-.92,0-1.85,0-2.77h0a1.34,1.34,0,0,1,0-.2,1.62,1.62,0,0,1,0-.22,0,0,0,0,0,0,0c.1-2.91.17-5.83,0-8.73a.29.29,0,0,0,0-.09,34.7,34.7,0,0,1,0-4,35.36,35.36,0,0,1,0-4,1.56,1.56,0,0,1,.53,0,.2.2,0,0,0,.24-.2.15.15,0,0,0,.06-.15c-.05-1.13-.07-2.27-.07-3.41l0,0c1.68.42,3.47.3,5.09.91a7.57,7.57,0,0,1,4.27,4.2.59.59,0,0,0,0,.22C139.2,118.52,138.74,119.67,138.46,121.58Z"/><path d="M127.36,108.45h-.54a3.2,3.2,0,0,0-.75-1.81,1.94,1.94,0,0,1,.37-.33c.19-.15,0-.48-.2-.34a3.31,3.31,0,0,0-.44.4,2.94,2.94,0,0,0-1.72-.75c0-.19,0-.38,0-.57a.19.19,0,0,0-.34-.11.16.16,0,0,0-.16.18c0,.17,0,.33,0,.49h-.15l0,0a2.16,2.16,0,0,0-1.6.68l0,0a2.28,2.28,0,0,1-.46-.36c-.18-.17-.45.1-.28.27a3.07,3.07,0,0,0,.5.39,3.42,3.42,0,0,0-.84,1.62c0,.1,0,.2,0,.3h-.26a1.55,1.55,0,0,1-.22,0c-.11-.1-.34-.06-.32.13,0,.37.54.24.8.23h0a3.51,3.51,0,0,0,.87,1.74.15.15,0,0,0-.11,0L121,111c-.19.16.08.43.27.27l.44-.37a.24.24,0,0,0,.06-.09,2.91,2.91,0,0,0,1.74.82,2.73,2.73,0,0,0,0,.7c0,.24.41.14.37-.1a2.07,2.07,0,0,1,0-.61,3.34,3.34,0,0,0,1.85-.74,2.77,2.77,0,0,0,.4.36c.2.15.39-.18.19-.33a2.2,2.2,0,0,1-.31-.3,2.78,2.78,0,0,0,.76-1.8h.54A.19.19,0,0,0,127.36,108.45Zm-3.29-1.32a1.59,1.59,0,0,1,1,2.42l-.09,0c-.29-.37-.59-.72-.91-1.06C124,108,124.06,107.57,124.07,107.13Zm-.44.19,0,.77a.17.17,0,0,0-.2.18.43.43,0,0,0,0,0,.16.16,0,0,0,0,.26l.17.17,0,.42a.05.05,0,0,0,0,0,.25.25,0,0,0,0,.07h0v0a.39.39,0,0,0,0,.15.29.29,0,0,0,.17.38.2.2,0,0,0,.2,0l.07,0a.25.25,0,0,0,0-.39.15.15,0,0,0,0-.07v-.06l.28.33a4.36,4.36,0,0,0,.32.37c-1.6,1.07-3.24-1.67-1.68-2.57h0a1.51,1.51,0,0,1,.69-.29Zm.9,3.77a2.74,2.74,0,0,1-3.4-2,2.36,2.36,0,0,1,.66-2.16c.36-.38,1.23-1,1.82-.8,0,.21,0,.42,0,.63a1.87,1.87,0,0,0-.86.34h0a2,2,0,0,0-.51,2.68,1.86,1.86,0,0,0,2.66.5h0a.47.47,0,0,0,.32.07.22.22,0,0,0,.14-.14.44.44,0,0,0-.06-.31,2,2,0,0,0-1.23-3.11V106a2.62,2.62,0,0,1,2.3,2.07A2.49,2.49,0,0,1,124.53,111.09Z"/><path class="cls-5" d="M123.63,121.08a5.13,5.13,0,0,0-1-2.49,5.75,5.75,0,0,0-4.74-2.35,4.2,4.2,0,0,0-.7.05,6,6,0,0,0-3.88,2.35,5.18,5.18,0,0,0-.8,1.69,6,6,0,0,0,.15,3.91,38.78,38.78,0,0,0,5,9.54.35.35,0,0,0,.25.16.32.32,0,0,0,.46-.23s0,0,0,0a.39.39,0,0,0,.2-.14,37.44,37.44,0,0,0,3.77-6.89C123.06,125.11,124.4,122.79,123.63,121.08Zm-2.71,1.8a2.59,2.59,0,0,1-1.59,1.8,3.71,3.71,0,0,1-2.23.16,3.19,3.19,0,0,1-1.79-1.4c-.61-1.36-.53-3.09.9-3.89a3.75,3.75,0,0,1,2.62-.23A3,3,0,0,1,121,121a3.6,3.6,0,0,0,.12.44A3.27,3.27,0,0,1,120.92,122.88Z"/><path d="M121.19,121.64a3.22,3.22,0,0,0-3.78-2.63h0c-1.82.14-2.75,1.63-2.51,3.46a3,3,0,0,0,3.57,2.4,3.68,3.68,0,0,0,2.3-1.06A2.94,2.94,0,0,0,121.19,121.64Zm-.89,2a3.63,3.63,0,0,1-1.92.78,2.62,2.62,0,0,1-3-1.78,2.41,2.41,0,0,1,2.41-3.23.21.21,0,0,0,.15,0,2.79,2.79,0,0,1,2.86,2.25A2.46,2.46,0,0,1,120.3,123.67Z"/><path d="M123.12,118.74a6.06,6.06,0,0,0-7.17-2.3,7,7,0,0,0-3.21,2.46,5.45,5.45,0,0,0-.58,4.48,20.56,20.56,0,0,0,2.33,5.56,26,26,0,0,0,3.14,4.94l.08.06a.73.73,0,0,0,.57.2c.59,0,.89-.72,1.14-1.15,1-1.7,1.84-3.43,2.7-5.18C123.5,125,125,121.69,123.12,118.74Zm-2.24,10.6c-.38.74-.76,1.48-1.16,2.21-.19.37-.39.73-.6,1.1-.09.16-.18.32-.28.48l-.09.16c-.15.35-.42.4-.81.16a.17.17,0,0,0-.23-.15,19.62,19.62,0,0,1-2.11-3.22c-.68-1.24-1.38-2.48-2-3.75a12.26,12.26,0,0,1-1.23-4.44,4.52,4.52,0,0,1,1.73-3.86,5.88,5.88,0,0,1,7.1-.62c2.48,1.65,2.79,4.76,1.83,7.39A41.82,41.82,0,0,1,120.88,129.34Z"/><path d="M58.17,20.53a1.14,1.14,0,0,0-.51-.17c.77-1.1,1.26-2.69.28-3.67a1.62,1.62,0,0,0-2.14,0c-.54.36-1,.78-1.55,1.17S53.13,19,52.63,19a.41.41,0,0,0-.31.21,2.2,2.2,0,0,0-1,1.32,1.24,1.24,0,0,0,.15.82l-.19,0a1.28,1.28,0,0,0-.7-.95,1.44,1.44,0,0,0-1.65.66A2.84,2.84,0,0,0,49,24.33a1,1,0,0,0-.37,1.27c.24.54.81.78,1.32,1.07a2.47,2.47,0,0,0-1.23,2.74c.48,1.5,3,.21,3.69-.44a.48.48,0,0,0,.11-.15.5.5,0,0,0,.17-.65h0a.88.88,0,0,0,.51-.45,1.25,1.25,0,0,0,.1-.71l.31.05a1.57,1.57,0,0,0,1.13-.39,2.24,2.24,0,0,0,.41-.51c.07-.12.11-.35.2-.48a1.43,1.43,0,0,0,.77-1.77.54.54,0,0,0,.1-.2c0-.18.07-.37.1-.55a2.29,2.29,0,0,0,2.3-1.25A1.17,1.17,0,0,0,58.17,20.53Zm-.71,1.29a1.53,1.53,0,0,1-1.41.3.48.48,0,0,0-.61.48.14.14,0,0,0,0,.06c0,.19-.07.38-.11.57a.48.48,0,0,0-.25.82.47.47,0,0,1,0,.7c-.2.15-.35.09-.51.35s-.2.7-.53.88-.82-.15-.79-.59a.49.49,0,0,0-.89-.28.51.51,0,0,0-.21.36,3.61,3.61,0,0,0,0,.87c0,.08.24.9.09.84a.51.51,0,0,0-.74.56,5,5,0,0,0,.21.54,3.18,3.18,0,0,1-1,.56,3.35,3.35,0,0,1-.61.2c-.31.07-.37.13-.4-.12-.13-.81.69-1.48,1.37-1.66a.44.44,0,0,0,.34-.51.41.41,0,0,0-.14-.41,4.57,4.57,0,0,0-1-.68c-.14-.08-.3-.14-.45-.22a3.35,3.35,0,0,1-.32-.28.46.46,0,0,0,.33-.16.54.54,0,0,0,.2-.95,1.92,1.92,0,0,1-.54-1.88c.07-.29.39-1,.75-.57a2.61,2.61,0,0,1,.18.89c.1.53.81.4,1,0l.31,0a.47.47,0,0,0,.67,0,.45.45,0,0,0,.36-.6c-.1-.31-.32-.56-.43-.86s.23-.67.54-.89L53,20a3.43,3.43,0,0,0,1.18-.75L55.84,18c.48-.36.48-.51,1.11-.22s.56.38.42,1a3.41,3.41,0,0,1-1.11,1.75l0,0h0c-.64.09-.37,1.05.26,1a5.14,5.14,0,0,1,1-.12C57.81,21.38,57.7,21.62,57.46,21.82Z"/><path d="M49,30.8a.52.52,0,0,0-.25-.2.49.49,0,0,0-.36-.19A10.77,10.77,0,0,0,45,30.6a.44.44,0,0,0-.39.06c-.63.42-1.18,1.11-.78,1.89a1.47,1.47,0,0,0,1.45.75,1,1,0,0,0,0,.1l.25.32a.27.27,0,0,0-.12,0,1,1,0,0,0-.36,1.31,1.53,1.53,0,0,0,.44.59,1,1,0,0,0-.74.45,1.82,1.82,0,0,0,0,1.26,2.42,2.42,0,0,0-.23,2,.41.41,0,0,0-.17.52c.47,1.2,1.62,1.88,2.79,1.1a.38.38,0,0,0,.11-.11.48.48,0,0,0,.47-.34,1.78,1.78,0,0,0,.15-.94,1.61,1.61,0,0,0-.15-.36.71.71,0,0,1-.1-.42.29.29,0,0,0,0-.1.47.47,0,0,0,.06-.09c.18-.49.64-1.21.4-1.73a1.47,1.47,0,0,0-.44-.49,1.66,1.66,0,0,0-.24-.16A.86.86,0,0,0,48,36c.31-.43.09-1.08-.11-1.53a1.7,1.7,0,0,0,.39-.25A2.93,2.93,0,0,0,49,30.8Zm-3.53,9.11a.43.43,0,0,0,.11-.43c-.09-.43-.34-1.24.06-1.56a.39.39,0,0,0,.13-.49.52.52,0,0,0,0-.25.88.88,0,0,1-.06-.42c0-.17-.22-.12.16-.14a.41.41,0,0,0,.27-.1,5.78,5.78,0,0,0,.86.69l.12.13a1.18,1.18,0,0,0-.09.23l-.31.83a.51.51,0,0,0,0,.24.48.48,0,0,0,0,.22,1.74,1.74,0,0,0,.11.75c0,.1.14.18.16.29a.45.45,0,0,1-.05.18.64.64,0,0,0-.2.08A.76.76,0,0,1,45.43,39.91ZM47,34.84a1.57,1.57,0,0,1,.11.35v.12a1.65,1.65,0,0,1-.41-.13,1.42,1.42,0,0,1-.48-.27.81.81,0,0,1-.17-.24.29.29,0,0,0,0-.08.42.42,0,0,0,.22-.35,1.93,1.93,0,0,0,.72.28A.51.51,0,0,0,47,34.84Zm.83-1.68c-.48.71-1.21.3-1.59-.26l0,0a.44.44,0,0,0-.45-.6c-.26,0-.62.12-.85,0s-.08-.48.14-.65h.13a9.16,9.16,0,0,1,3-.19A2,2,0,0,1,47.78,33.16Z"/><path d="M45.35,41.41a.41.41,0,0,0-.5.14.65.65,0,0,0-.24,0,2,2,0,0,0-1.52,1.51A1.23,1.23,0,0,0,44.3,44.6a1.75,1.75,0,0,0,1-.49,5.17,5.17,0,0,0,.9-.91C46.77,42.36,46.14,41.72,45.35,41.41Zm-.17,1.46a2.79,2.79,0,0,1-.78.68c-.42.15-.37-.29-.23-.54a1,1,0,0,1,.71-.5.42.42,0,0,0,.22-.12c.08,0,.36.15.36.23S45.24,42.82,45.18,42.87Z"/><path d="M89.08,9.05a1.6,1.6,0,0,0-.8-.64.5.5,0,0,0-.21-.33c-.09-.06-.13-.34-.21-.45a1.2,1.2,0,0,0-.46-.34,3.19,3.19,0,0,0-1-.26c-.1-.57.24-1.1-.11-1.66a1.75,1.75,0,0,0-1.39-.72,2,2,0,0,0-2,1.8c-.89.25-1,1.88-.39,2.56-.69.36-1.32,1.07-.82,1.84a2.79,2.79,0,0,0,1.07.82,10.92,10.92,0,0,0,1.39.63.4.4,0,0,0,.34,0,.49.49,0,0,0,.4-.2,1.81,1.81,0,0,0,.12-1.9h.11A2.21,2.21,0,0,0,86,10a2,2,0,0,0,1.39.48,2.82,2.82,0,0,0,1.4-.34A.85.85,0,0,0,89.08,9.05Zm-4.92,2.19A10.52,10.52,0,0,1,83,10.67c-.18-.1-.52-.24-.47-.45s.44-.35.62-.43a.34.34,0,0,0,.16.06c.35,0,.63.53.78.81A.76.76,0,0,1,84.16,11.24Zm3.65-1.82a1.69,1.69,0,0,1-.92,0c.36-.42-.29-1-.76-.64A1.39,1.39,0,0,1,84.52,9L84.4,9c.12-.42-.5-.74-.86-.41a.39.39,0,0,0-.3-.23c-.18,0-.19-.93,0-.91a.38.38,0,0,0,.38-.17.4.4,0,0,0,.26-.44,1,1,0,0,1,1.2-1.13c.42.12.41.37.36.75a2.29,2.29,0,0,0,0,.94.6.6,0,0,0,.06.11A.51.51,0,0,0,86,8c.3,0,.93,0,1.13.31.06.07.08.23.13.32l.07.08a.45.45,0,0,0,.34.53,1.73,1.73,0,0,1,.37.16Z"/><path d="M72.92,36.81c-.69.91-1,2-1.59,3-.37.54.5,1,.86.51.64-.94.9-2.07,1.59-3C74.17,36.8,73.3,36.3,72.92,36.81Z"/><path d="M119.42,100.6a3.06,3.06,0,0,1-.58-.27,1.66,1.66,0,0,1-.43-.59l0,0a.44.44,0,0,0-.46-.37h0a4.37,4.37,0,0,0-2-1.11,1.67,1.67,0,0,0-1,.15c-.68.33-.9.54-1.6,0-.52-.37-1,.49-.5.87a2,2,0,0,0,1.8.41c.5-.16.8-.55,1.4-.4a4.16,4.16,0,0,1,1.61,1.08.47.47,0,0,0,.09.06,2.45,2.45,0,0,0,.48.63,3,3,0,0,0,.79.42C119.5,101.74,120,100.88,119.42,100.6Z"/><path d="M130.82,146.51a6.08,6.08,0,0,0-1.33,1.15,2,2,0,0,1-.94.59c-.3.06-.59.08-.89.16a.46.46,0,0,0-.2,0c-.93.28-1.25.92-2.06,1.36-1,.56-2.6-.15-3.51-.86a.51.51,0,0,0-.6-.4c-.77.16-1.51.39-2.27.56s-1.82.12-2.73.26c-.63.11-1.17.44-1.78.58s-1.24.11-1.85.29a5.59,5.59,0,0,1-2.59-.38,11,11,0,0,1-2.57-1.74c-.47-.44-1.18.27-.71.71l.16.13a.27.27,0,0,0,0,.09c.31,1.76-2,2-3,2.07-.46,0-2.61.8-2.68.67a.5.5,0,0,0-.91.37.39.39,0,0,0,.14.49,2.37,2.37,0,0,1,.38.33c.21.24.21.23.06.43a4.24,4.24,0,0,1-1.18.6c-.81.3-1.63-.27-2.41-.56a.44.44,0,0,0-.47-.13c-1.72.46-2.44-.45-3.86-1a5.28,5.28,0,0,0-3,0,.53.53,0,0,0-.2.09,9.31,9.31,0,0,0-2.14.53c-1,.41-1.82,1-2.93.4a.44.44,0,0,0-.43,0,.41.41,0,0,0-.41.48,3.57,3.57,0,0,1-.39,2.1,3.62,3.62,0,0,0-.34,1.65.37.37,0,0,0,0,.25l0,.05h0c.19.5.3,1-.29,1.16a.49.49,0,0,0-.68.45c0,.34.15.73.12,1s0,.24-.36.23a2.43,2.43,0,0,0-.47,0c-.26,0-.49.23-.74.19s-.55-.54-.76-.77a.4.4,0,0,0-.24-.14.47.47,0,0,0-.47-.41,2.82,2.82,0,0,1-1.9-.53,1.23,1.23,0,0,0-.77-.29c-.42,0-.76.24-1.19.15a3.81,3.81,0,0,0-1.3-.26.28.28,0,0,0-.12,0,.49.49,0,0,0-.28.06,3.23,3.23,0,0,1-1.84.52,10.44,10.44,0,0,0-1.77-.05.38.38,0,0,0-.31.2.4.4,0,0,0-.19.31c-.06.43-.19,1.31-.81,1.23a.37.37,0,0,0-.3.08.43.43,0,0,0-.35.14c-.17.17-.31.48-.54.57a.81.81,0,0,1-.67-.13.47.47,0,0,0-.64.16l-.08.05A1.32,1.32,0,0,0,66,163a2.14,2.14,0,0,0,.28.7c.05.08.61.85.14.78a.53.53,0,0,0-.59.36.51.51,0,0,0-.21.37c0,.35-.44.31-.64.16a1,1,0,0,1-.31-.84,1.18,1.18,0,0,0-.3-.83.43.43,0,0,0-.46-.33,5.43,5.43,0,0,1-1.45-.1c-.29-.09-.63-.36-1-.34-.67,0-.63,1.22-1.29,1.16-.26,0-.49-.7-.5-.93a1.22,1.22,0,0,1,.15-.7,1.65,1.65,0,0,1,1.43-.59,4.23,4.23,0,0,0,2.14-.79,6.42,6.42,0,0,0,.6-.42,9.94,9.94,0,0,1,1-.59.46.46,0,0,0,.19-.2.47.47,0,0,0,.17-.15,4.74,4.74,0,0,0,.44-.87c.08-.21.11-.28.33-.35s.3,0,.43-.06a.44.44,0,0,0,.32-.23.48.48,0,0,0,.27-.42c0-.37,0-.76.06-1.12s.06-.28.32-.3a1.07,1.07,0,0,0,.39-.07c.26-.13.26-.38.46-.57s.59-.09.93-.09a.56.56,0,0,0,.23-.05.47.47,0,0,0,.34-.33,11.93,11.93,0,0,1,.44-1.27c.12-.27.4-.9.75-.94a.53.53,0,0,0,.47-.52,3.72,3.72,0,0,0,.82-1.2,15.76,15.76,0,0,0,.29-2.39c.12-.78.19-1.32,1.13-1.21a3.32,3.32,0,0,0,2-.43l.08-.07a.47.47,0,0,0,.33-.45c0-1.5.41-2.16,2-2.5.6-.13,1.31-.07,1.93-.14a27.18,27.18,0,0,1,4.32-.28.66.66,0,0,0,.2.06,11.45,11.45,0,0,0,1.85-.15,16.61,16.61,0,0,1,1.87-.06l.11,0a.43.43,0,0,0,.5-.24,7.54,7.54,0,0,0,.55-1.19,5.82,5.82,0,0,1,.49-1.42c.23-.35.61-.55.88-.86a2.7,2.7,0,0,1,1.34-1,.47.47,0,0,0,.34-.42,12.84,12.84,0,0,1,1.22-1.79A10.28,10.28,0,0,0,95,135.21a.48.48,0,0,0,0-.33l.14-.12c.44-.46-.27-1.17-.71-.7-.61.63-1.42,1-2,1.67a5.14,5.14,0,0,1-2,1.76,10.73,10.73,0,0,0-1.88.88,9.66,9.66,0,0,0-1.43,1.57c0,.05-.06.1-.09.14-.51.14-1,.27-1.54.36a3,3,0,0,1-2.49-.71c-.84-.54-2-1.41-1.91-2.54a.42.42,0,0,0-.11-.3.53.53,0,0,0-.57-.35c-.51.07-1-.12-1.53-.08a.5.5,0,0,0-.41.28.54.54,0,0,0-.1.2c-.13.54-.22.67-.79.78a3.36,3.36,0,0,1-1.57-.13,5.52,5.52,0,0,1-.54-.16c-.37-.18-.26-.1,0-.27a4,4,0,0,1,1.65-.38.51.51,0,0,0,.22-.06.5.5,0,0,0,.1-1,14.35,14.35,0,0,0-1.85-.34,2,2,0,0,1-.43,0c-.19-.08-.16-.14-.19-.28s0-.43-.17-.66a.53.53,0,0,0-.31-.21.45.45,0,0,0-.43-.08,6.12,6.12,0,0,0-1.27.72,2.43,2.43,0,0,1-1.56.29.41.41,0,0,0-.48.45c-.17.58-.88.37-1.37.46a2.34,2.34,0,0,0-.94.45,1.37,1.37,0,0,1-1.21.17,7,7,0,0,0-.6-.43c.05-.19,1.53-.62,1.77-.71.6-.22.34-1.19-.27-1l-.69.23a.44.44,0,0,0-.37,0l-.06,0,0,0a.53.53,0,0,0-.28,0c-.22.08-1.44.45-1.4-.1,0-.2.48-.3.65-.41a1,1,0,0,0,.38-.46c.35-.92-.81-1.19-1.49-1.38a.71.71,0,0,0-.09-.07c-.07,0-.23-.07-.24-.14s.34-.29.42-.34a6.67,6.67,0,0,0,.94-.53.5.5,0,0,0,.21-.35l.09-.08c.58-.84,2.27-.92,3.23-1.43a5.33,5.33,0,0,0,1-.73,4.2,4.2,0,0,1,2.28-1h0a.52.52,0,0,0,.41-.21c.48-.65,1.2-.76,1.8-1.22.28-.22.49-.52.76-.75a4.45,4.45,0,0,0,.79-.71.48.48,0,0,0,.09-.21,3.56,3.56,0,0,0,.75-1.22,8.09,8.09,0,0,1,.69-2,.46.46,0,0,0,0-.42.43.43,0,0,0,0-.25c-.13-.48-.63-.64-.71-1.16a1.63,1.63,0,0,1,.73-1.47.4.4,0,0,0,.06-.6.48.48,0,0,0-.48-.51c-.61,0-.79-1.17-.81-1.63s.22-.84.1-1.26a.45.45,0,0,0-.53-.34.44.44,0,0,0-.28,0,7.17,7.17,0,0,0-3.43,1.78.51.51,0,0,0-.1.44l-.06,0c-.08,0-.1,0-.18-.07A1.88,1.88,0,0,0,72,116a.49.49,0,0,0-.5,0c-.42.22-1.15.38-.86-.36a2.58,2.58,0,0,1,1-1,.53.53,0,0,0,.18-.25,9.77,9.77,0,0,0,2.74-2.38.48.48,0,0,0,.09-.11l0-.06h0c.93-1.88,3.48-3.38,5.39-4h0c1.36.48,2.63-.21,3.91-.64a.46.46,0,0,0,.23-.17A3.06,3.06,0,0,1,87,108c.43.46,1.12-.21.73-.68,0,0,0-.05,0-.07a4.21,4.21,0,0,1-.34-.52,2.62,2.62,0,0,1-.19-.46l.3-.32c.19,0,.87.65,1.06.77s.42.25.65.37a.45.45,0,0,0,.12.31,1.08,1.08,0,0,0,1.65,0,.48.48,0,0,0,.09-.56.42.42,0,0,0-.47-.39,1.57,1.57,0,0,1-.71-.12.4.4,0,0,0-.2-.23,4.79,4.79,0,0,1-1.75-1.77c-.57-.93,0-1.69.4-2.56a.5.5,0,0,0,0-.33c.2-.47.53-.88.74-1.34,0,0,0-.06,0-.09l.07,0c.59-.26.08-1.12-.5-.86-.31.14-.57.27-.68-.13a1.88,1.88,0,0,1,.06-1,.52.52,0,0,0,0-.25.46.46,0,0,0-.22-.54c-.42-.24-.12-.74.18-.95a4.6,4.6,0,0,1,1-.32,1.35,1.35,0,0,0,.88-1.23s0,0,0,0a.41.41,0,0,0,0-.2c0-.48.33-.8.37-1.28s0-1.18,0-1.77a.5.5,0,0,0-.9-.41c-.18.29-.68,1.06-1.08.82h0a.49.49,0,0,0-.82.21A2.77,2.77,0,0,1,87,93.2c-.24.27-.84.73-1.12.27-.18-.29.15-.9.21-1.22a4.14,4.14,0,0,0,.06-1.11c0-.64-1-.65-1,0v.09c-1.18-.77-1.68-2.58-2.22-3.8a.41.41,0,0,0-.26-.23c-.32-.5-.68-.84-.52-1.58s.45-1.23.56-1.89a.34.34,0,0,0,0-.1c.32-.84.64-1.69,1-2.53.2-.52.33-1.21.86-1.51a8,8,0,0,1,.82-.3.54.54,0,0,0,.18-.14h0L87,78.8c.62-.15.36-1.1-.27-1a12.22,12.22,0,0,1-2.1.07c-.65,0-1.31.07-2,.13a.52.52,0,0,0-.69.69c.8,1.54-1.88,1.1-2.6,1.24h0a.47.47,0,0,0-.52.48c0,.54-.74.69-1.13.53a.46.46,0,0,0-.7-.29c-.87.58-2.19-.48-2.68-1.15-.37-.51-1.24,0-.86.5,0,.06.09.11.13.16a.43.43,0,0,0-.06.57,2.76,2.76,0,0,1,.47,1.1,2.39,2.39,0,0,1,0,1.21.62.62,0,0,0-.16-.1c-1.26-.47-1.94-1.77-3.15-2.28a.46.46,0,0,0-.07-.07,2.31,2.31,0,0,0-2.26-.15.41.41,0,0,0-.39.25c-.3.62.16,1.26.52,1.74.15.19.79,1,.19.93-.29,0-.57-.4-.76-.72a.36.36,0,0,0-.22-.39h0c.09,0,0,0,0-.11s-.13-.29-.2-.44L67.1,81a.44.44,0,0,0-.12-.22,3.67,3.67,0,0,1-1.09-1.58c0-.14-.07-1.94.34-1.69a.37.37,0,0,0,.24.07c.12.19.23.38.34.57a3.75,3.75,0,0,0,.19.41,2.06,2.06,0,0,1,.12.26.58.58,0,0,0,.16.21c.38.4,1.12-.06.8-.58l-.22-.38a1.42,1.42,0,0,0-.08-.18A2.43,2.43,0,0,1,68.33,75a5.54,5.54,0,0,0,1.17-1.5.46.46,0,0,0,.33-.46c0-2.17,3.1-3.85,1-5.9a.49.49,0,0,0-.23-.13,6.8,6.8,0,0,1-1.05-1.41,6.74,6.74,0,0,1-.3-3,.46.46,0,0,0-.21-.39l0-.1a.45.45,0,0,0,.25-.21c.15-.27.13-.46.47-.49s.6.25.81.35a7,7,0,0,0,1.48.5.5.5,0,0,0,.39-.91c-.5-.32-.89-.76-1.38-1.08a1.77,1.77,0,0,0-.64-.24c-.17,0-.71,0-.79-.2a.49.49,0,0,0-.28-.3,1.9,1.9,0,0,1,.36-1.16.5.5,0,0,0,.1-.24.48.48,0,0,0-.37-.62.37.37,0,0,0-.29,0,.48.48,0,0,0-.25.29c-.69,1-.5,2.2-.68,3.39,0,0,0,0,0,.07l0,0c-.08.24-.15.47-.21.72a.43.43,0,0,0-.34-.21.83.83,0,0,0,0-.15,2.52,2.52,0,0,1-.14-.54.44.44,0,0,0-.11-.25.45.45,0,0,0-.44-.31.47.47,0,0,0-.45.63h0a6.38,6.38,0,0,1-1,.74c-.14.22-.29.24-.46.08a2,2,0,0,1,0-.93,4.21,4.21,0,0,1,1-2.17c.46-.46-.25-1.17-.7-.71a4.74,4.74,0,0,0-1.27,3.93.34.34,0,0,0-.06.16,1.94,1.94,0,0,0,.3,1.59c.22.26.41.22.11.43a2,2,0,0,0-.37.33l-.08,0c-1.44,1-1.28,2.63-1.25,4.21a7.94,7.94,0,0,0-.44,1.18,8.87,8.87,0,0,0,0,1.71c-.45.52-1.26,1-1.86.79-1-.4.06-1.61.34-2.19,0,0,0-.06,0-.09a1.86,1.86,0,0,0,.35-.63.4.4,0,0,0,.23-.42,6.27,6.27,0,0,1,2.07-5.13c.47-.44-.24-1.15-.7-.71a5,5,0,0,0-.39.41.68.68,0,0,0-.23.05c-.14.07,0-.46,0-.49a2.67,2.67,0,0,1,.33-.68.39.39,0,0,0,.06-.25.47.47,0,0,0-.59-.6c-.25.07-.4.19-.37-.15a.45.45,0,0,1,.26-.43.53.53,0,0,0,.07-1,.44.44,0,0,0-.27-.25.75.75,0,0,1,.14-.17q.17-.19.36-.39a6.51,6.51,0,0,1,.79-.69.36.36,0,0,0,.12-.16.52.52,0,0,0,.1-.75c-.15-.17.07-.41.17-.52a.46.46,0,0,0,.11-.45.48.48,0,0,0-.19-.58s-.1-.2,0-.26a.58.58,0,0,0,.12-.32.44.44,0,0,0,0-.41c-.08-.12-.32-.34-.33-.48s.24-.38.3-.49a8.5,8.5,0,0,0,.54-1.19s0,0,0,0a0,0,0,0,0,0,0c.15-.22.7,0,.91,0a2.34,2.34,0,0,0,.87-.1A4.48,4.48,0,0,0,67,52.08c.5-.42-.21-1.12-.7-.71a3.34,3.34,0,0,1-1.06.69,1.44,1.44,0,0,1-.54,0,.43.43,0,0,0-.32-.26c-.32-.07.42-.52.49-.56a.67.67,0,0,0,.15-.14c.54-.15.53-1-.08-1a1,1,0,0,1-.29,0s.1-.24.11-.26a1.61,1.61,0,0,1,.45-.59,2.8,2.8,0,0,1,1.33-.64c.62-.14.37-1.07-.24-1,.67-1,1.19-2.19-.21-2.78-.58-.25-1.09.61-.5.86s.32.76,0,1.18-.41.56-.62.83a.44.44,0,0,0-.16.14.42.42,0,0,0-.14.09,21.29,21.29,0,0,1-2.18,2.54c-.46.35-.74.14-1.28.06-.33-.05-.74,0-1.09,0a.44.44,0,0,0-.25-.29,1.41,1.41,0,0,1-.68-.62c-.19-.39.19-.33.49-.47a1.87,1.87,0,0,0,.63-.45c.26-.27.33-.48.77-.37.62.15.89-.82.26-1a1.43,1.43,0,0,0-1.43.29l-.26.28a.4.4,0,0,0-.25.06,2.71,2.71,0,0,1-1.44.08c-.24,0-1.34-.45-.71-.8a.42.42,0,0,0,.23-.38,5.66,5.66,0,0,1,1.16,0c.42,0,.84,0,1.25.06a.42.42,0,0,0,.48-.45.43.43,0,0,0,.12-.48h0l.2-.08L61,46a1.68,1.68,0,0,0,.62-.36c.35-.37.2-.77-.13-1.08a.58.58,0,0,0-.19-.1.52.52,0,0,0-.58,0,.44.44,0,0,1-.63.07,2.62,2.62,0,0,1,0-.56c0-.32.1-.78.41-1s1,.27,1.51.31a.5.5,0,0,0,.25-.93,2.56,2.56,0,0,1-1.11-1.1.33.33,0,0,0-.12-.14l0,0a.48.48,0,0,0,.41-.13,2.67,2.67,0,0,1,.6.11l1,.21a.5.5,0,0,0,.38-.92,3,3,0,0,1-1.23-1.24s0-.06-.07-.1a.42.42,0,0,0,0-.1.5.5,0,0,0,.17-.1c.12-.11.69.17.85.2a.89.89,0,0,0,.64-.08A.5.5,0,0,0,64,38.4a1.55,1.55,0,0,0-.25-.41.42.42,0,0,0-.66,0l-.19,0a2.77,2.77,0,0,0-.48-.11,1.29,1.29,0,0,0-.45.07.32.32,0,0,0-.15-.06.29.29,0,0,0,0-.1s1.63-1.1,1.77-1.21c.52-.38,0-1.25-.5-.86-.15.11-.31.2-.47.3h0c-.42.12-1.34.55-1.74.29a.38.38,0,0,0,0-.1,5.29,5.29,0,0,1-.4-1.8c0-.21-.05-.43-.06-.65s.06-.7,0-.7.36.25.42.28.37.21.56.29a3.3,3.3,0,0,0,1.36.19.5.5,0,0,0,0-1,2.43,2.43,0,0,1-1-.14.45.45,0,0,0-.07-.26,5.58,5.58,0,0,0-.39-.56l-.24-.32c-.1,0-.11,0,0-.05s.33-.15.4-.22a.69.69,0,0,0,.24-.44s0,0,0,0a.38.38,0,0,0,0-.52c-.37-.51-1.05-1.37-.85-2.05.13-.46.42.06.54.27a3.6,3.6,0,0,0,.63.86c.46.42,1.12-.21.75-.65a.48.48,0,0,0,.18-.36A.53.53,0,0,1,63,28l.08,0c.2,0,.32.1.53,0s.49-.43.78-.55a2.53,2.53,0,0,0,1.13.64c.44.07,1.19-.2,1.29-.67s-.42-1-.72-1.39a4.18,4.18,0,0,0-.6-.59,6.6,6.6,0,0,1-.7-.43.49.49,0,0,0,.1-.3c0-.24-.21-.17,0-.18a1.15,1.15,0,0,0,.37,0,.67.67,0,0,0,.46-.58,1.73,1.73,0,0,0-.42-1.69.74.74,0,0,1,.68-.76,8,8,0,0,1,1.53.17.49.49,0,0,0,.27,0,.5.5,0,0,0,.38-.85c-.4-.4-.93-.86-.9-1.48s.53-1,.86-1.35c0,0,0,0,0-.06a.5.5,0,0,0-.36-.92,4.9,4.9,0,0,0,.3-.51c.1-.18.21-.35.32-.52s.49-.9.75-.89l.14,0a.71.71,0,0,1,.28.46.49.49,0,0,0,.28.4.51.51,0,0,0,.44.13l.24,0c.09,0,.1,0,0,.07a1.35,1.35,0,0,1,0,.49.43.43,0,0,0,0,.11.5.5,0,0,0,.9.41,3.2,3.2,0,0,1,1.21-1.1h0a.47.47,0,0,0,.19-.11c.08-.08.5-.15.43,0a.49.49,0,0,0,0,.26.51.51,0,0,0,.69.68,13.52,13.52,0,0,1,2.94-1.22.57.57,0,0,0,.19-.1h.08c.49-.22,1.24,0,1.79-.11A8.72,8.72,0,0,0,80.21,15a.4.4,0,0,0,.15,0,1.55,1.55,0,0,1,.23-.08l.17,0a.43.43,0,0,0,.12-.05,2.58,2.58,0,0,1,1.61.23.5.5,0,0,0,.29,0c.38.13.69-.3.57-.66,0,0,0,0,.06,0h.27l.49,0c.37,0,.75.06,1.12.11a.47.47,0,0,0,.24,0,.56.56,0,0,1,0,.1,1.54,1.54,0,0,1-.13.5,6.38,6.38,0,0,0-.19.72s0,0,0,.06c-.27.59.06,1.14.11,1.73-.41,2.33-2.42,3.61-4,5.14h0A34,34,0,0,0,77.77,26a.41.41,0,0,0-.07.11c-.4.23-.59.65-1,.94s-1,.27-1.53.46-.34,1.18.27,1l.18-.05.08,0c.58,0,1.17.1,1.74.09a3.81,3.81,0,0,0,1-.22c.37.26-.22.88-.41,1.15a8,8,0,0,1-.62.82.27.27,0,0,0-.08-.07.86.86,0,0,0-.38-.1,5.45,5.45,0,0,0-1.32.34c-.85.24-1.66.41-2,1.28-.19.46.34.72.7.54a.31.31,0,0,0,.14,0,4.8,4.8,0,0,0,1.81-.54l.16-.08a2.48,2.48,0,0,1-.41.64.46.46,0,0,0-.14.33,10.26,10.26,0,0,0-1.48,1.54c-.25.32.09.73.43.75a2.93,2.93,0,0,0,1.43-.22,2.53,2.53,0,0,0,.89-1,.48.48,0,0,0,.06-.25c.15-.21.35-.53.61-.56a3.05,3.05,0,0,1,.52,0,.38.38,0,0,0,.52,0c.65-.49,1.4-.88,2.09-1.31,1-.62,2.11-1.22,3.25-.57a.5.5,0,0,0,.39,0,3,3,0,0,0,2-.28,2.68,2.68,0,0,1,1.73-.22,10,10,0,0,1,1.81.87.5.5,0,0,0,.29.05.38.38,0,0,0,.39,0,19.79,19.79,0,0,1,3-.83,2.9,2.9,0,0,1,3.72,1.86.56.56,0,0,0,.23.25,1.83,1.83,0,0,1,.06,1.77.51.51,0,0,0-.07.22,12,12,0,0,1-1.07,1.66,2.81,2.81,0,0,0-.63.87l0,0a4.87,4.87,0,0,0-.66,3.48.35.35,0,0,0,0,.08c-.25.67-.45,1.34-.63,2,0,0,0,0,0,0a3.72,3.72,0,0,0-.23,1.09,3.52,3.52,0,0,1-.55,1.57c-.29.45-.68.8-1,1.22a.43.43,0,0,0-.25.31A8.28,8.28,0,0,1,90.41,51a.72.72,0,0,0-.11.15h0c-.85.45-1.83.33-2.71.71a15.06,15.06,0,0,0-2.67,1.54c-.53.37,0,1.23.5.86a10.44,10.44,0,0,1,3-1.63.4.4,0,0,0,.16.12,5.59,5.59,0,0,1,1.17,1,4.67,4.67,0,0,1,.7.51c.94,1.13-1,2-1.85,2.11-1.33.1-2.35-.1-2.89,1.32a.33.33,0,0,0,0,.06,2.27,2.27,0,0,1-2.28,1.6c-.73,0-1.4-.31-2.13-.35a.41.41,0,0,0-.4.19.47.47,0,0,0-.16.79c1.11,1,1.74.76,3.09.78,1.19,0,3,.53,4.1,0a.52.52,0,0,0,.6-.18,2.76,2.76,0,0,1,1.92-1.37.47.47,0,0,0,.19-.08c.81.07,1.47.77,2.14,1.2a26.73,26.73,0,0,1,2.36,1.41h0a7.9,7.9,0,0,1,1.34,1,5.23,5.23,0,0,1,.87,1.54A7.32,7.32,0,0,0,99,66.39a.46.46,0,0,0,.35.47c1.15.3,1.34,1.21,1.61,2.22.18.69.39,1.38.61,2.06a.46.46,0,0,0,0,.2,9.7,9.7,0,0,0,.94,3.47,8.75,8.75,0,0,0,.82,2.22.37.37,0,0,0,0,.21.06.06,0,0,0,0,.05.4.4,0,0,0,.24.29l.13.13a4.84,4.84,0,0,1,.86,2.12,3.77,3.77,0,0,0,.54,1.33c.41.58.9,1,.9,1.77a.47.47,0,0,0,.13.32.45.45,0,0,0,.32.32,21,21,0,0,0,2.46.93,7,7,0,0,1,1.35.09,5.83,5.83,0,0,1,1.47.89.51.51,0,0,0,.22.09c.89,1.09,1.82,2.14,2.65,3.28a14.72,14.72,0,0,0,1.09,1.5A14.57,14.57,0,0,1,117,91.7a8.28,8.28,0,0,0,.09,3.71,21.54,21.54,0,0,0,2.12,3.19c.34.54,1.2,0,.86-.51-.58-.92-1.36-1.78-1.89-2.73a6,6,0,0,1-.2-3.45.47.47,0,0,0,0-.5l0,0s0,0,0-.06a4.46,4.46,0,0,0-1-1.14A13.4,13.4,0,0,1,115.13,88c-.93-1.21-1.95-2.36-2.9-3.55a.39.39,0,0,0-.52-.12,4,4,0,0,0-2.09-.81,3,3,0,0,1-1.4-.29,9.87,9.87,0,0,0-1.28-.48c-.13-1.15-1-1.88-1.41-3-.23-.65-.28-1.35-.55-2a1.83,1.83,0,0,0-.3-.55.81.81,0,0,0-.21-.15.38.38,0,0,0-.17-.36c-.58-.46-.81-1.89-1-2.54a13.4,13.4,0,0,1-.72-2.22.43.43,0,0,0,.13-.49c-.59-1.79-.72-4.43-2.56-5.33A1,1,0,0,0,100,66a10.73,10.73,0,0,1-1.38-1.4,12.74,12.74,0,0,1-.93-1.75,6.19,6.19,0,0,0-2.14-2l-.06,0c-.84-.62-1.79-1-2.67-1.62s-1.5-1.25-2.62-1.12a.55.55,0,0,0-.31.16,3.69,3.69,0,0,0-2.13,1.49.45.45,0,0,0-.33.06,4.66,4.66,0,0,1-2.39.09,3,3,0,0,0,1.5-1.86v0c.32-.9,2.55-.61,3.36-1a2.79,2.79,0,0,0,1.53-1.63,1.51,1.51,0,0,0-.17-1.7c-.34-.36-.82-.58-1.19-.91-.16-.14-.3-.29-.45-.44a3.84,3.84,0,0,0,1.12-.36A.44.44,0,0,0,91,51.8a.49.49,0,0,0,.11-.07,9.31,9.31,0,0,0,2.43-4,.33.33,0,0,0,.06-.1c.16-.39.59-.68.85-1a6.92,6.92,0,0,0,.62-1,9.9,9.9,0,0,0,.48-2,.15.15,0,0,0,0-.07c.16-.65.36-1.28.58-1.91a.4.4,0,0,0,.24-.43,7.56,7.56,0,0,1,0-2.37.53.53,0,0,0,.42-.46c.09-.76.51-1,.92-1.54a18.22,18.22,0,0,1,1-1.59.44.44,0,0,0,.13-.39,3.54,3.54,0,0,0-.31-2.79.48.48,0,0,0-.27-.3,3.28,3.28,0,0,0-2.54-2,4.87,4.87,0,0,0-2.15.06,25,25,0,0,0-3,.82,8,8,0,0,0-2.69-1.14c-.91-.09-2.26,1.18-3,.66a.45.45,0,0,0-.43,0,3.33,3.33,0,0,0-2.66,0A15.16,15.16,0,0,0,78.54,32a.62.62,0,0,0-.24,0c-.29.05-.54-.06-.82,0a1.83,1.83,0,0,0,.15-.59.5.5,0,0,0,.32-.11,4.76,4.76,0,0,0,.8-1,7.68,7.68,0,0,0,.78-1.17,1.22,1.22,0,0,0-.42-1.53.48.48,0,0,0-.55-.28c-.3.06-.55.16-.82.22a1.81,1.81,0,0,1,.5-.53.47.47,0,0,0,.2-.22l0,0a29.41,29.41,0,0,1,3.11-2.9.48.48,0,0,0,.17-.12l.23-.22h0c1.63-1.59,3.63-2.95,4.18-5.28a.54.54,0,0,0,.12-.29,2.71,2.71,0,0,0-.09-.85,3.31,3.31,0,0,1-.17-.65.38.38,0,0,0,0-.1.52.52,0,0,0,.11-.26,7.78,7.78,0,0,0,.35-1.59,1.05,1.05,0,0,0-.67-.92.5.5,0,0,0-.49,0c-.44-.05-.87-.1-1.31-.13a3,3,0,0,0-1.19.05.93.93,0,0,0-.49.42,3.4,3.4,0,0,0-1.87,0h0a18.32,18.32,0,0,1-2.23.61,4.42,4.42,0,0,0-1.66.17l0,0h0a14.08,14.08,0,0,0-2.36.92,1.3,1.3,0,0,0-2-.44.29.29,0,0,0-.1,0,4.76,4.76,0,0,0-.67.48,1,1,0,0,0-.19-.32,1,1,0,0,0-.85-.25,1.85,1.85,0,0,0-.67-.86.51.51,0,0,0-.54-.07l-.08,0c-.54,0-.84.31-1.14.72a12.55,12.55,0,0,0-1,1.53,1.18,1.18,0,0,0-.1,1.25l.12.12a2.55,2.55,0,0,0-.79,1.63,2.13,2.13,0,0,0,.37,1.21,2.18,2.18,0,0,0-1.54.24,2,2,0,0,0-.75,2,.4.4,0,0,0,.36.35.9.9,0,0,1,.09.4h-.07a.74.74,0,0,0-.45.2,1.19,1.19,0,0,0-.33,1,.24.24,0,0,0,0,.08.47.47,0,0,0-.12.44c.11.56.63.66,1,1a3.18,3.18,0,0,1,.55.55,3,3,0,0,1,.28.33,2.05,2.05,0,0,1-.81-.55.46.46,0,0,0-.56-.08.22.22,0,0,0-.08,0,1.73,1.73,0,0,0-.73.42c-.2.18-.06.08-.27.06a1.53,1.53,0,0,0-.37,0,1,1,0,0,0-.76.67,1.76,1.76,0,0,0-.49-.53,1,1,0,0,0-1.37.15c-.86.95-.14,2.34.49,3.24a2.82,2.82,0,0,0-.42.23.91.91,0,0,0-.25.64,1.28,1.28,0,0,0,.19.59.69.69,0,0,0-.64.47,3.78,3.78,0,0,0-.13,2A6.46,6.46,0,0,0,60,36.65a.46.46,0,0,0,.19.2.59.59,0,0,0,.17.26,1.25,1.25,0,0,0,.61.22.92.92,0,0,0-.09.28c-.27,0-.52,0-.8,0a1.24,1.24,0,0,0-.64-.46c-.26-.08-1,.12-1.07-.16,0,0,0,0,0-.08a1.63,1.63,0,0,0,.11-.23.4.4,0,0,0,0-.26.43.43,0,0,0,0-.11,28.67,28.67,0,0,0-.42-3.46.43.43,0,0,0-.13-.24A3.06,3.06,0,0,0,57,30.79a1.93,1.93,0,0,0-1.91-.46.52.52,0,0,0-.24.22.46.46,0,0,0-.15.16,2.89,2.89,0,0,0-.31,2.06,1.51,1.51,0,0,0-.61.17,1.09,1.09,0,0,0-1.47.48.83.83,0,0,0-1,.49,2.94,2.94,0,0,0,1,3.1,1.14,1.14,0,0,0,1,.05,1,1,0,0,0-.18.38,1.74,1.74,0,0,0,1.26,1.78,1.62,1.62,0,0,0,.81.84,2.32,2.32,0,0,0,1.45,0,1.34,1.34,0,0,0,1.1.88l.12,0a2.4,2.4,0,0,0-.15.94.5.5,0,0,0,0,.12v0a.46.46,0,0,0,.14.33,1.27,1.27,0,0,0,.31.43.51.51,0,0,0,.41.12.44.44,0,0,0,.22.09,1.43,1.43,0,0,0,.55,0,3.4,3.4,0,0,0-.22.78,1.86,1.86,0,0,0,.46,1.82l.07,0a.92.92,0,0,0-.21.46,13.64,13.64,0,0,0-1.69,0,1.43,1.43,0,0,0-1.24.56.38.38,0,0,0-.08.23,1.32,1.32,0,0,0,0,1.66,3.68,3.68,0,0,0-1.35.88,1.05,1.05,0,0,0-.17,1.31A.42.42,0,0,0,55,51a3.47,3.47,0,0,0,1.38,1.2,1,1,0,0,0-.65.91.87.87,0,0,0,.56.93h-.21c-.5,0-.87-.29-1.37-.12a.48.48,0,0,0-.24.17.43.43,0,0,0-.43.35c-.29,1.28,1.33,1.77,2.3,1.88a4.21,4.21,0,0,0,3-1,1.56,1.56,0,0,0,1.07.3,1.92,1.92,0,0,0,1.48-1.24.43.43,0,0,0-.06-.42,1.49,1.49,0,0,0,.53-1.05,1.32,1.32,0,0,0-.42-1,1.1,1.1,0,0,0,.48,0c.56-.15,1-.76,1.32-1.16l.06-.08a.71.71,0,0,0,.07.09,1.52,1.52,0,0,0-.6.82.86.86,0,0,0,.09.59,1.22,1.22,0,0,0-.48.43.49.49,0,0,0-.08.22s0,0,0,.08c-.22.56-.61,1-.82,1.61a1.14,1.14,0,0,0,.29,1.14,1.2,1.2,0,0,0,.14,1.22,1.4,1.4,0,0,0-.27,1.23l-.11.09a1.17,1.17,0,0,0-.06-.2,1.28,1.28,0,0,0-1.14-.59A3.1,3.1,0,0,0,58.27,59a2.26,2.26,0,0,0-.61,1.4s0,.06,0,.1a2.15,2.15,0,0,0-.58.65c-.77-.64-1.73,0-2.34.68-1.07-.39-1.75,1.67-2.14,2.59a.48.48,0,0,0-.19.26c-.26.86.07,2,1.17,1.89a1.3,1.3,0,0,0,1-.62l.09,0c-.46.72-.76,1.6,0,2.28a1.2,1.2,0,0,0,1.27.22,2.49,2.49,0,0,0,1-1,1.53,1.53,0,0,0,1.45-.85,3.66,3.66,0,0,0,.12-1.15,7.62,7.62,0,0,0,0-1.17.44.44,0,0,0-.06-.16,3.55,3.55,0,0,0,1.4-1.1,6.09,6.09,0,0,0,.67-.93,1.06,1.06,0,0,0,.5.67l.15.05a1.63,1.63,0,0,0,0,1.3,1.12,1.12,0,0,0,.47.51,6.9,6.9,0,0,0-1.26,4.23.46.46,0,0,0-.1.21c0,.07-.08.4-.15.44h0a.56.56,0,0,0-.28.4,5.36,5.36,0,0,0-.85,1.81,1.67,1.67,0,0,0,.87,1.62c1.2.66,3-.38,3.53-1.49a.48.48,0,0,0-.11-.59,3.75,3.75,0,0,1,.08-1.21,3.69,3.69,0,0,1,.24-.61.46.46,0,0,0,.19-.39s0,0,0-.08a1.92,1.92,0,0,0,.09-.32.48.48,0,0,0-.12-.44c0-.2,0-.41,0-.63,0,.21.06.41.11.62.28,1.24.36,2.91,2,3,2.64.24,1.82-5.67,0-6.31a1.47,1.47,0,0,1-.61,0,1.09,1.09,0,0,0,.51-1,.94.94,0,0,0-.3-.56,2,2,0,0,1-.24-.3,1.06,1.06,0,0,0,.52-.09l0,.11a.53.53,0,0,0,.27.55.61.61,0,0,0,0,.11A2.52,2.52,0,0,0,67.36,65a.79.79,0,0,0,.94-.37,4.16,4.16,0,0,0,.25,1.14A13.85,13.85,0,0,0,70.11,68a.47.47,0,0,0,.3.21c.54,1-.6,1.91-1,2.72a4.33,4.33,0,0,0-.52,1.75.49.49,0,0,0-.18.24c-.41,1.26-1.8,1.75-2.11,3.12a3.17,3.17,0,0,0,0,.53c-1-.39-1.56.75-1.67,1.62a3.87,3.87,0,0,0,1.37,3.24v0l.48,1.05a2.76,2.76,0,0,0,.18.39c.46.9,1.68,2.13,2.7,1.25a1.25,1.25,0,0,0,.18-1.56,6.32,6.32,0,0,0-.47-.68c-.1-.13-.2-.26-.29-.4l-.07-.18a1,1,0,0,1,.49-.07.38.38,0,0,0,.32.22c1.56.22,2.36,1.94,3.82,2.48a.41.41,0,0,0,.21,0,.53.53,0,0,0,.2.09c.76.15,1-.8,1.08-1.38a3.6,3.6,0,0,0-.14-1.35,2.61,2.61,0,0,0,2.17.41l.11.08a1.91,1.91,0,0,0,2.6-.92c.91-.13,1.89.22,2.69-.42a1.63,1.63,0,0,0,.6-1.49l.65-.05a1.85,1.85,0,0,0-.67.89c-.49,1.19-.94,2.4-1.39,3.61a.54.54,0,0,0,0,.25A9.94,9.94,0,0,0,81.06,86c0,.88.58,1.29.91,2a.36.36,0,0,0,.21.21A22.74,22.74,0,0,0,83.5,91,3.11,3.11,0,0,0,85,92.29c-.19,1-.4,2,.83,2.3s2.06-.69,2.49-1.71a1.33,1.33,0,0,0,1.06-.28,2.38,2.38,0,0,1-.09.62c-.14.47-.4.74-.35,1.27l0,.07a.37.37,0,0,0,0,.15c0,.43-1,.44-1.27.63a2,2,0,0,0-.78.81,1.39,1.39,0,0,0,.26,1.7,2.42,2.42,0,0,0,.26,2,1.09,1.09,0,0,0,.54.4,6.3,6.3,0,0,0-.54,1,.41.41,0,0,0,0,.24c-.48.89-1,1.81-.54,2.82.08.17.18.33.28.5l-.19,0a1,1,0,0,0-.72,1.29,3.08,3.08,0,0,0-2.28-.18.6.6,0,0,0-.23.18c-1.07.38-2.16,1-3.3.58a.47.47,0,0,0-.31,0,.65.65,0,0,0-.19,0,14.9,14.9,0,0,0-1.56.65.53.53,0,0,0,0-.13c-.07-.64-.69-.7-1.21-.84a2,2,0,0,1-1.14-.57,6.2,6.2,0,0,0-.54-.61,2.11,2.11,0,0,0-1.69-.36c-1.71.21-2.58,1.21-2.09,2.87,0,0,0,0,0,0a2.48,2.48,0,0,0,1.77,2.63h0a.51.51,0,0,0,.3.15,2,2,0,0,0,.55,0,4.82,4.82,0,0,0-.41.69h0A9.29,9.29,0,0,1,71,113.7a.5.5,0,0,0-.23.33,2.31,2.31,0,0,0-1.12,2.22c.21,1.06,1.32,1,2.14.69.12,0,.24.15.36.19a.94.94,0,0,0,.47.08,1.33,1.33,0,0,0,.91-.55.49.49,0,0,0,.12-.4,5.68,5.68,0,0,1,2.27-1.19,3.87,3.87,0,0,0,0,.48,4.43,4.43,0,0,0,.27,1.31A2,2,0,0,0,77,118a2.46,2.46,0,0,0-.64,1.48,2,2,0,0,0,.18,1,1.51,1.51,0,0,0,.25.42c.06.08.33.29.34.34h0a4.94,4.94,0,0,0-.57,1.48,3.19,3.19,0,0,1-.87,1.65.48.48,0,0,0-.13.27c-.22.22-.53.4-.74.61a3.07,3.07,0,0,1-.93.71,3.91,3.91,0,0,0-1.38,1h-.06a5.46,5.46,0,0,0-2.15.71,12.8,12.8,0,0,1-1.57,1.17c-.75.34-1.59.07-2.29.36-.51.21-.84.92-1.13,1.33a.71.71,0,0,0-.07.16c-.56.38-1.27.55-1.61,1.2a1.06,1.06,0,0,0-.08.87,1.13,1.13,0,0,0,.67.56.4.4,0,0,0,.22.15c.17.05.42.18.64.24a1.58,1.58,0,0,0-.26.13,1.08,1.08,0,0,0-.53,1.23,1.34,1.34,0,0,0,1.33,1c-.17.75.79,1.41,1.38,1.64,1.16.44,1.93-.53,3-.65.9-.09,1.39-.1,1.65-.87a3.05,3.05,0,0,0,1.19-.21,10.21,10.21,0,0,0,1.15-.68,1.26,1.26,0,0,0,0,.52,1,1,0,0,0,.6.5,1.83,1.83,0,0,0,.25.06,1.87,1.87,0,0,0-.4.27,1,1,0,0,0,.25,1.61,5,5,0,0,0,2.85.52c1-.15,1.44-.41,1.7-1.27.29,0,.57,0,.85.06a3.84,3.84,0,0,0,.75,1.81c.41.67.78.77,1.47,1.15a6.08,6.08,0,0,0,1.89,1.05,8.23,8.23,0,0,0,3.28-.54.42.42,0,0,0,.33-.34,6.9,6.9,0,0,1,1.92-1.81,19.44,19.44,0,0,0,2-.9l.1-.07a1.74,1.74,0,0,0-.11.18.32.32,0,0,0,0,.09,6.75,6.75,0,0,0-2.1,1.69c-.79.78-.92,1.92-1.36,2.89a16.57,16.57,0,0,0-1.73.06,15.88,15.88,0,0,1-1.68.15.65.65,0,0,0-.21-.06,23.18,23.18,0,0,0-4.16.24,32.44,32.44,0,0,0-3.29.24c-1.53.34-1.9,1.75-2,3.13a2.87,2.87,0,0,1-1.81.14,1.49,1.49,0,0,0-.47,0,1.29,1.29,0,0,0-.92.82c-.68,1.53-.12,3.18-1.26,4.56a.43.43,0,0,0-.1.22c-.89.39-1.29,1.51-1.58,2.44a1.24,1.24,0,0,0-.95.09,2,2,0,0,0-.65.66,1.15,1.15,0,0,0-.45,0,1.14,1.14,0,0,0-.56.5,3.32,3.32,0,0,0-.26,1.61,1.33,1.33,0,0,0-1,.43,13.93,13.93,0,0,0-.67,1.27h0c-.28.16-.57.32-.84.5s-.32.27-.5.38a.75.75,0,0,0-.13.06l0,0-.06,0a.4.4,0,0,0-.32.24,2.85,2.85,0,0,1-.74.37,8.49,8.49,0,0,1-1.12.11,2.64,2.64,0,0,0-1.39.6A2.29,2.29,0,0,0,59,164.2a1.4,1.4,0,0,0,2.17.56,2.53,2.53,0,0,0,.57-.69l.08,0c.19.32,1.18.31,1.77.29h0c.2,0,.09,0,.1.07s0,.26,0,.4a2.5,2.5,0,0,0,.17.65,1.72,1.72,0,0,0,.93.89,1.34,1.34,0,0,0,1.8-1,1.12,1.12,0,0,0,1-1,1.42,1.42,0,0,0-.28-1,2.14,2.14,0,0,1-.42-.87,1.6,1.6,0,0,0,.84.07c.52-.11.73-.45,1.06-.79h0c1,.13,1.57-.92,1.73-1.78.7-.05,1.39.15,2.09,0a4.09,4.09,0,0,0,1.55-.57c.5,0,.89.27,1.38.33s.72-.16,1.07-.1.72.47,1.14.6a5.11,5.11,0,0,0,1.41.11.43.43,0,0,0,.11.24c.36.39.58.89,1.1,1.08a1,1,0,0,0,.74,0,1.78,1.78,0,0,1,.92-.16,1.07,1.07,0,0,0,1.14-.45,2.13,2.13,0,0,0,.06-1.37,1.53,1.53,0,0,0,1-.84,2,2,0,0,0-.11-1.53,5.31,5.31,0,0,1,.55-1.91,3.33,3.33,0,0,0,.2-1.16,2.64,2.64,0,0,0,1.85-.07,17.88,17.88,0,0,1,3.62-1.12.44.44,0,0,0,.21-.08,3.72,3.72,0,0,1,2.32.24c.52.25.95.63,1.5.84a3.85,3.85,0,0,0,2.44.09.52.52,0,0,0,.11.07,8.79,8.79,0,0,0,2.11.82,4.15,4.15,0,0,0,1.91-.75c.45-.23,1-.48,1.07-1.07a1.18,1.18,0,0,0-.22-.72h0c.63-.1,1.15-.42,1.78-.47a12.51,12.51,0,0,0,1.5,0,.44.44,0,0,0-.14.45c.24,1.17,2.7,1.74,3.67,1.86a1.52,1.52,0,0,0,1.38-.49,7,7,0,0,0,1.31-1.57,1.2,1.2,0,0,0-.06-1.25c.58,0,1.16,0,1.78.07a.39.39,0,0,0,.41-.2,10.72,10.72,0,0,0,1.25-.17,14.9,14.9,0,0,1,2.67-.56,23.31,23.31,0,0,0,3.7-.74,6.33,6.33,0,0,0,2.91,1.35,2.87,2.87,0,0,0,1.48-.12c.84-.31,1.27-1.1,2.14-1.39h.1c.71-.25,1.33-.15,2-.63a14.28,14.28,0,0,1,1.6-1.41C131.89,147.06,131.38,146.2,130.82,146.51ZM59,42a.44.44,0,0,0-.2,0c-.24-.25-.1-.71.09-1.09a.39.39,0,0,0,.23-.21c.12-.26.4-.54.4-.84s-.37-.58-.61-.79a.51.51,0,0,0-.77.12.41.41,0,0,0-.24.41c0,.18-.08.32-.22.26s-.25-.46-.27-.64c-.06-.46-.57-.44-.83-.17h-.16a1.45,1.45,0,0,1-.87.07c-.25-.1-.32-.39-.44-.61a.43.43,0,0,0-.43-.24l0,0c-.31-.12-.88-.73-.22-.71a2.94,2.94,0,0,1,.45,0c.43.25,1-.27.68-.67l0,0a.2.2,0,0,0-.06-.07l0,0-.07-.07c-.33-.29-.67-.59-1-.87a.51.51,0,0,0-.48-.09.43.43,0,0,0-.29,0c-.21.09-.6.36-.81.31s-.37-.44-.44-.59a2,2,0,0,1-.19-.71.93.93,0,0,1,0-.41c0-.09.08,0,.26.06a.48.48,0,0,0,.61-.5c.06-.16.14-.24.25-.12a.43.43,0,0,0,.53.11.54.54,0,0,0,.22-.08c.05,0,.35-.25.43-.15a.42.42,0,0,0,.21.17c0,.1.08.21.13.31.26.58,1.13.07.86-.51a2.73,2.73,0,0,1-.19-2.45,1.12,1.12,0,0,1,1,.44A2.57,2.57,0,0,1,57,33.06a.42.42,0,0,0,.12.23,24.49,24.49,0,0,1,.37,3.07.14.14,0,0,0,0,.07l0,0c0,.15-.22.29-.28.45a.4.4,0,0,0,.26.57,1.19,1.19,0,0,0,.63.62,1.38,1.38,0,0,0,.6.1c.22,0,.47-.15.64.08a.59.59,0,0,0,.24.18.45.45,0,0,0,.38.2c.41,0,.76-.16,1.16,0,0,0,.07,0,.1,0l-.09.17c-.09.13-.19.25-.28.37a2.63,2.63,0,0,0-.45.86.48.48,0,0,0,0,.12l0,.05a4,4,0,0,1-.55,1C59.65,41.43,59.38,42.05,59,42Zm1.68,11.48a.5.5,0,0,0-.18.68.94.94,0,0,0,.14.19.75.75,0,0,1-.59.22,1.28,1.28,0,0,1-.65-.5c-.35-.41-.9,0-.82.47a4.07,4.07,0,0,1-1.63.77c-.22,0-1.71-.08-2-.47a3.39,3.39,0,0,1,.83.16,3.46,3.46,0,0,0,2.34-.75.5.5,0,0,0,0-.72.47.47,0,0,0-.41-.27c-.21,0-1.43-.07-.75-.34a6.67,6.67,0,0,0,1.14-.39.47.47,0,0,0,.11-.74.46.46,0,0,0-.44-.29,2.33,2.33,0,0,1-1.71-.74.48.48,0,0,0-.09-.21c-.06-.07-.22-.24-.23-.34s.19-.29.33-.39a1.37,1.37,0,0,1,.93-.43l.13,0c.56.67,1.13,1.33,1.74,2a.43.43,0,0,0,.53.11,2.76,2.76,0,0,0,1,.23l.14,0a.46.46,0,0,0,.14.41c.17.17.57.39.64.63S61,53.34,60.72,53.48Zm-3.21,12c0,.54,0,1-.65,1h0a.38.38,0,0,0-.5.13c-.17.21-.63,1.08-1,.9s.21-1.12.38-1.32a.53.53,0,0,0,0-.6.5.5,0,0,0-.22-.33.65.65,0,0,0-.22-.11c-.15,0-.17,0,0-.07a1.34,1.34,0,0,1,.25-.59A.52.52,0,0,0,55,63.8a.49.49,0,0,0-.71.29,3.91,3.91,0,0,1-.51,1.23c-.1.15-.28.4-.45.16a.35.35,0,0,1,0-.27.5.5,0,0,0,.1-.14l.67-1.49a5,5,0,0,1,.29-.62.55.55,0,0,1,.18-.22c-.09.08-.07.14,0,.2a.5.5,0,0,0,.84-.38c.28-.3.8-1,1.16-.51a.47.47,0,0,0,.12.09,1.69,1.69,0,0,0,.76,2,.48.48,0,0,0,0,.21A7.62,7.62,0,0,1,57.51,65.52Zm3.34-6.61a.46.46,0,0,0,0,.36,1.93,1.93,0,0,0-.35.62.73.73,0,0,0,0,.25.35.35,0,0,0,0,.08A7.81,7.81,0,0,1,59,62.56a5.18,5.18,0,0,1-.41.4c-.2.16-.6.33-.8,0s.15-1.74.71-1.75a.43.43,0,0,0,.17,0h0c.62.06.63-.87,0-1a.26.26,0,0,0,0-.15,1.68,1.68,0,0,1,.3-.45l0,0,0,0a2.46,2.46,0,0,1,.93-.91C60.42,58.42,61.17,58.23,60.85,58.91Zm4.56,7,.06,0c.64.23.85,2,.89,2.54a2.61,2.61,0,0,1,0,1.08c-.26.64-.89.94-1.24,0a12.92,12.92,0,0,1-.29-1.43C64.58,67.24,64.46,66.39,65.41,65.93Zm1.88-2a1.7,1.7,0,0,1-.54-.59.58.58,0,0,0-.13-.14,1.8,1.8,0,0,1,.06-.22v0c.38-.3.71.71.79.93a.58.58,0,0,0,0,.18Zm6.57,45.66a.56.56,0,0,0-.2-.12,1.48,1.48,0,0,1-1-1.61.43.43,0,0,0,0-.25A1.47,1.47,0,0,1,74.69,106c.32.18.49.6.72.87a1.79,1.79,0,0,0,1.18.55c.5.09.73,0,.3.45a5.49,5.49,0,0,1-1,.7A4.06,4.06,0,0,1,73.86,109.59Zm34,40.09a13.18,13.18,0,0,0,1.12.71,6,6,0,0,0-1.58.29A2.75,2.75,0,0,0,107.87,149.68Zm2,3a4.59,4.59,0,0,1-.52.63,1.62,1.62,0,0,1-1.31,0,5.51,5.51,0,0,1-2-.77s0,0,.07,0a4,4,0,0,1,2-1,4.5,4.5,0,0,1,1.38-.1l.64.95C110.1,152.45,110,152.55,109.89,152.66Z"/><path d="M63.67,86.92a.4.4,0,0,0,0-.22c-.08-1.28,0-3.51-1.21-4.32a1.84,1.84,0,0,0-.86-.29,1.9,1.9,0,0,0,.21-1.36,1.21,1.21,0,0,0-1.55-.86,2.13,2.13,0,0,0-.25-1A3.56,3.56,0,0,0,59,77.83a1.79,1.79,0,0,0-.14-.94,5.66,5.66,0,0,0-.67-.86c.06-.13.14-.25.18-.37a1.67,1.67,0,0,0-.41-1.74,2.57,2.57,0,0,0-1.08-.76,2.48,2.48,0,0,0-.66-.12c-.25,0-.52.11-.77.11a1.84,1.84,0,0,0-1-.83,1,1,0,0,0-.95.24,3,3,0,0,0-2.87.7.33.33,0,0,0-.1.14l-.1,0c-.19.15-.55,0-.8.07s-.25.15-.37.19a.93.93,0,0,1-.57,0H48.4a.42.42,0,0,0-.12,0,.41.41,0,0,0-.29.07c-.46.27-.62.79-1,1.15a4.09,4.09,0,0,1-1.19.74,4.27,4.27,0,0,0-.3-.44.52.52,0,0,0-.17-.13.5.5,0,0,0-.45-.15c-.6.09-1,.67-1.35,1.21a.39.39,0,0,0-.21.21c0,.11-.09.21-.13.32a.43.43,0,0,0,0,.07.38.38,0,0,0-.08.23,11.13,11.13,0,0,1-.75,1.69,6,6,0,0,0-.73,2,2.8,2.8,0,0,0-1.45.6s0,0,0,0a1.37,1.37,0,0,0-1-.15,1.43,1.43,0,0,0-1.08,1.05A1.48,1.48,0,0,0,39,83.89a2.22,2.22,0,0,0-.23.43l-.37-.07a3.77,3.77,0,0,0-.58,0,.51.51,0,0,0-.21-.1c-.55-.11-.65.31-.92.67s-1,.44-1.32,1.11c-.64,1.44.66,2.65,1.84,3.2a.61.61,0,0,0,.13,0l.05,0a2.44,2.44,0,0,1,.63.92.58.58,0,0,0,.1.12,1.31,1.31,0,0,0,.43.9,2.14,2.14,0,0,0,1.35.34A3.39,3.39,0,0,0,41,92.65a2.33,2.33,0,0,0,1.83.1l.09.08a1.16,1.16,0,0,0,.41.13A2,2,0,0,0,44,93a.47.47,0,0,0,.42.12c.84-.14,1.1-.75,1.33-1.46a1.32,1.32,0,0,0,.82-1.86,5.22,5.22,0,0,0,1-1c.27.51.54,1,.77,1.56a4.1,4.1,0,0,0,.9,1.55.46.46,0,0,0,.27.12l.15.09c.16.08.42.12.52.27s.11.15.06.26a.39.39,0,0,0,0,.3,1.22,1.22,0,0,0,.46,1.15,2.38,2.38,0,0,0,1.43.37.39.39,0,0,0,.47.11,4.15,4.15,0,0,1,2.32-.5.44.44,0,0,0,.38-.06c.68.26,1.15.91,1.93,1a2.41,2.41,0,0,0,1.64-.87.49.49,0,0,0,.24-.17,4.46,4.46,0,0,0,.76-2.58,3.42,3.42,0,0,1,.4.26,1.32,1.32,0,0,0,.8.18h0a.28.28,0,0,0,.13,0,2.22,2.22,0,0,0,1.85-2,2.42,2.42,0,0,0,0-.38C64.13,89.22,63.74,87.8,63.67,86.92Zm-1.43.88a.53.53,0,0,0-.21-.5,11.63,11.63,0,0,0-.2-1.85c-.1-.64-1.07-.37-1,.26a5.34,5.34,0,0,1,.06,2.45.49.49,0,0,0,0,.12c-.27.31-.17.89.32.83s.89.18.76.74c-.09.36-.45.88-.84.92h0l-.12,0c-.36,0-.5-.29-.82-.39a1.58,1.58,0,0,0-.86,0,.44.44,0,0,0-.33.3.51.51,0,0,0-.17.36,4.24,4.24,0,0,1-.54,2.23.33.33,0,0,0-.1.06c-.48.42-.81.83-1.47.46A7.25,7.25,0,0,0,55.49,93a.42.42,0,0,0-.42.06,4.48,4.48,0,0,0-2.59.43.52.52,0,0,0-.23-.07c-.38,0-1.29,0-1-.57a.4.4,0,0,0,0-.34,1.23,1.23,0,0,0-.18-.61l0,0,0,0,0,0,0,0a1.31,1.31,0,0,0-.45-.39c-.22-.12-.47-.15-.63-.36a.5.5,0,0,0-.19-.15A8.69,8.69,0,0,1,49,89.47c-.32-.67-.69-1.33-1-2a.45.45,0,0,0-.66-.17.42.42,0,0,0-.34.33,3.17,3.17,0,0,1-1.31,1.58.38.38,0,0,0-.16.38.37.37,0,0,0,.06.42c.13.18.31.62-.08.66a.49.49,0,0,0-.3.16.43.43,0,0,0-.33.32,1.69,1.69,0,0,1-.37.81.39.39,0,0,0-.41,0,.82.82,0,0,1-.75,0,2.37,2.37,0,0,0-.5-.32.4.4,0,0,0-.57.29,1.08,1.08,0,0,1-.94-.2,2.86,2.86,0,0,1-.38-.4.47.47,0,0,0-.18-.29c0-.08-.1-.15-.14-.23a.43.43,0,0,0-.34-.25.49.49,0,0,0-.25,0,1.73,1.73,0,0,1-.78-.06c-.23-.11-.19-.39-.21-.63a.5.5,0,0,0-.31-.42,2.13,2.13,0,0,0-.3-.53,3,3,0,0,0-.57-.49.51.51,0,0,0-.17-.08h0c-.76-.35-2.32-1.5-1-2.23a2.06,2.06,0,0,0,.61-.35,1.29,1.29,0,0,0,.22-.35s0-.05,0-.07h0a3.23,3.23,0,0,1,1,.08.91.91,0,0,0,.67,0c.47-.22.3-1.11,1-.91a.5.5,0,0,0,.58-.71.39.39,0,0,0-.36-.4c-.43-.06-1.09-.1-1.31-.55a.45.45,0,0,1,.1-.58c.24-.18.5,0,.69.15a.52.52,0,0,0,.84-.26c.31-.21.68-.49,1-.35a.6.6,0,0,0,.7-.4A6.57,6.57,0,0,1,43.33,79a15,15,0,0,0,.73-1.75l.48-.7a2.89,2.89,0,0,1,.33-.45,2.4,2.4,0,0,1,.23.38.4.4,0,0,0,.51.22.52.52,0,0,0,.44,0,6.37,6.37,0,0,0,1.41-.81,3.51,3.51,0,0,0,.54-.55,3,3,0,0,1,.48-.65,1.64,1.64,0,0,0,1.23-.09c.37-.19.81,0,1.18-.27a.48.48,0,0,0,.16-.22.54.54,0,0,0,.24-.12,1.91,1.91,0,0,1,1.39-.56c.29,0,.56.18.84.18s.27-.1.42-.14a.33.33,0,0,1,.28-.11,1.2,1.2,0,0,1,.5.61.44.44,0,0,0,.62.19c.25,0,.48-.07.75-.09a1.33,1.33,0,0,1,1,.46.8.8,0,0,1,.25.93,2.22,2.22,0,0,0-.25.83.48.48,0,0,0,.34.45c.29.33.63.64.52,1.11a.58.58,0,0,0,0,.3.53.53,0,0,0,.21.39,4,4,0,0,1,.93.76,1.46,1.46,0,0,1,.15,1.12.49.49,0,0,0,.2.52.41.41,0,0,0,.64.14c.28-.21.8-.48.79.12a1.21,1.21,0,0,1-.65,1,.46.46,0,0,0-.36.43,10,10,0,0,0-1.17.82c-.5.4.21,1.1.71.7.67-.53,2.14-1.64,2.79-.56a6.82,6.82,0,0,1,.48,2.94.85.85,0,0,0,0,.17c0,.51.13,1,.16,1.46C62.87,88.81,62.19,88.1,62.24,87.8Z"/><path d="M54.86,82.17c-.25.1-.47.32-.72.39s-.51-.19-.63-.47a.41.41,0,0,0-.5-.24.52.52,0,0,0-.79.41,6.58,6.58,0,0,1-.44,2.64.5.5,0,0,0,0,.43.45.45,0,0,0,.35.51,3.18,3.18,0,0,1,1.09.54.38.38,0,0,0,.41.06A.42.42,0,0,0,54,86.2c.3-.54.59-1.08.88-1.63a.53.53,0,0,0,0-.32.55.55,0,0,0-.1-.45c-.21-.25.34-.67.48-.79A.51.51,0,0,0,54.86,82.17Zm-1.47,3.14a4.73,4.73,0,0,0-.6-.29,7.29,7.29,0,0,0,.37-1.74,1.25,1.25,0,0,0,.52.28l.18,0a1.23,1.23,0,0,0,.11.64Z"/></g></svg>