<svg xmlns="http://www.w3.org/2000/svg" viewBox="0 0 163 171"><defs><style>.cls-1{fill:#9eca73;}.cls-2{fill:#6f9e32;}.cls-3{fill:red;}</style></defs><title>Artboard 13</title><g id="Layer_11" data-name="Layer 11"><path class="cls-1" d="M158.31,61.41c-.38-.75-1.52-1.1-2.09-1.7a10.11,10.11,0,0,1-1.95-3.66,5,5,0,0,0-.38-1.84,1.32,1.32,0,0,0-2-.44,10,10,0,0,0-.81.62,1.36,1.36,0,0,0-.4-.35,1.31,1.31,0,0,0-1.91.75.85.85,0,0,0,0,.72,8.29,8.29,0,0,0-.5,3.79,3.68,3.68,0,0,1,0,2.18,5,5,0,0,1-.72,1,.76.76,0,0,0-.2.06c-1.25.51-2,1.85-3.28,2.08-1.78.34-3.59.55-5.38.94a.93.93,0,0,0-.43.22,5.44,5.44,0,0,0-2.56,2.48,7.81,7.81,0,0,0-1.15,2c-.2.81.21,1.49.09,2.27a8.64,8.64,0,0,1-2,1.68c-.76.33-1.48-.34-2.28-.23-1.5.2-2.11,1.64-2.39,2.94a1.06,1.06,0,0,0,0,.57c-.27.27-.56.52-.82.8a11,11,0,0,0-.82,1,1,1,0,0,0-.43.07,16,16,0,0,0-4.24,2.69A3.7,3.7,0,0,1,118,83a1.46,1.46,0,0,1-.76-.52,19.22,19.22,0,0,0,.57-3.2,7.12,7.12,0,0,0,.6-2.28,3.67,3.67,0,0,0-1.26-3,1,1,0,0,0-1.57.2c-.16.27-.34.53-.52.79H115c.39-2.13.6-4.64-1.32-6.13a2.47,2.47,0,0,0-3.52.13c-.45.5-.68,1.34-1.11,1.88a14.25,14.25,0,0,0-1.3,1.39,5.89,5.89,0,0,0-.83,2.64,9.93,9.93,0,0,0,.34,3.3c.48,1.91-.08,3.2-.66,4.92a1.63,1.63,0,0,1-2.18-1,12.13,12.13,0,0,1-.46-2.5,10.81,10.81,0,0,1,0-5,.85.85,0,0,0,.53-1.12c0-.08,0-.14,0-.21s.18-.42.29-.63a1,1,0,0,0-.13-1.1,3.78,3.78,0,0,0,.53-2.12c1.39-1.5,4-2.13,6.12-2.5a1,1,0,0,0,.23-1.82c-2.79-1.27-5.51.83-8.5.12-.94-.23-1.88-.9-2.85-.89-1.29,0-2.92.9-4.1,1.32a.91.91,0,0,0-.54.47c-.6-.08-1.27-.35-1.78-.46l-.43-.09a3.87,3.87,0,0,0,.5-2,14.74,14.74,0,0,1,2.38-1.75c1.23,0,1.21-1.92,0-2a23.89,23.89,0,0,1-5.18-.88c-1.51-.42-5.44,0-5.77-1.91-.18-1-1.48-.85-1.84-.07-3.6-.57-7.11-.13-10.75-.22-3.88-.09-7.58-.77-11.43-.38a1,1,0,0,0-.91-.73c-8.75-.77-17.36-2.31-26-3.8a1,1,0,0,0-.59.08l-5.17-1.31-1.16-.26c-3-.9-6.1-1.32-9-2.6a1,1,0,0,0-.87,0A7,7,0,0,1,16.32,47a1.05,1.05,0,0,0-1.71.9,1,1,0,0,0,0,.61,7,7,0,0,1,0,3.12l-.13.09a3.16,3.16,0,0,0-.4-.42.81.81,0,0,0-.14-.42,1,1,0,0,0-.61-1.34c-.54-.19-1-.09-1.46-.47a6.79,6.79,0,0,0-.92-.86,1.28,1.28,0,0,0-1.79.24c-.5.73,0,1.9,0,2.7a7.37,7.37,0,0,1-.66,4.19,1,1,0,0,0,.18,1.17L5,63.74A1.66,1.66,0,0,0,5,64s0,.06-.06.1a17.82,17.82,0,0,0-1.78,4.89c-.29,2-.48,4.08-.69,6.13-.9,1-1.62,2-1.29,3.5a6.52,6.52,0,0,1,.3,3.07,5.77,5.77,0,0,0,.06,2.58.9.9,0,0,0,.49.62,4.48,4.48,0,0,0,.36,2,1.29,1.29,0,0,0,1.1.73A1.27,1.27,0,0,0,4,87.41c0,.13,0,.26,0,.38-1.2.46-.83,3-.47,4a1.28,1.28,0,0,0,.22.36,5.88,5.88,0,0,0,.46,3.3c.62,1.34,1.75,2.47,1.64,4a1,1,0,0,0,0,.19,1.11,1.11,0,0,0-.15.4c-.21,1.32.61,1.88,1.72,2.34a6.51,6.51,0,0,1,2.79,2.16,1,1,0,0,0,.5.38,0,0,0,0,1,0,0A7.5,7.5,0,0,0,12.48,107l1.43,1.33c0,.73.12,1.46.18,2.18h0A1,1,0,0,0,15,112a16.06,16.06,0,0,1,7.47,2.14c1.75,1,3.15,2.43,5.06,3.17a.85.85,0,0,0,.54,0A32.88,32.88,0,0,0,33,119.84a46.35,46.35,0,0,0,6.38,1.55,1,1,0,0,0,1.11-.54.92.92,0,0,0,.43-.25c1.08-1.06,3.16,0,4.59,0,.6,0,1.32-.1,2-.06a.65.65,0,0,0,.06.23,10.43,10.43,0,0,0,1.91,2.9,15.18,15.18,0,0,1,1.51,1.25,7,7,0,0,1,.85,2.08,9.8,9.8,0,0,0,.78,1.66,1.07,1.07,0,0,0,.07.41,4.38,4.38,0,0,0,3,2.69c1.39.16,2.28-1.08,3-2.13a7.63,7.63,0,0,1,2.71-.29c1.08.3,1.63,1.29,2.21,2.13.78,1.14,1.51,2.32,2.29,3.47s1.69,2.26,2.49,3.42a.88.88,0,0,0-.07.29,4.65,4.65,0,0,0,2.14,3.8,9.92,9.92,0,0,0,2.06,1.16c.78.34,1.74.32,2.34.94.85.87,2.12-.32,1.53-1.24a.33.33,0,0,0,0-.1,8.54,8.54,0,0,1-.17-3.54,21.9,21.9,0,0,1,1.74-3.54,6.36,6.36,0,0,0,1.06-.81,3,3,0,0,1,1.41-1c.36-.08.78,0,1.16-.08a3.57,3.57,0,0,0,1.84-1.1c.39-.42.76-1.53,1.21-2.2l.08,0a.94.94,0,0,0,.79-.09c1.73-1,3.86-.55,5.69-.22a2.34,2.34,0,0,0,2.68-1.19l.22,0c.89.4,1.47,1.44,2.34,1.91a2.7,2.7,0,0,0,1.3.33c.47,0,1.69-.47,2-.16a1,1,0,0,0,1.13.15,2.1,2.1,0,0,1,.54.57,1,1,0,0,0,1.73-1,3.71,3.71,0,0,0-.73-.94l-.45-.35a.5.5,0,0,0-.13-.1,1,1,0,0,0-.72-1.08,5.57,5.57,0,0,0-1.52-.15c-.76-.1-.17-.71.2-.86a.85.85,0,0,0,.59.22,1,1,0,0,0,1.31-.83c.77-.3,1.83.09,2.59.06,1,0,1.44-.71,2.3-1h0a1.88,1.88,0,0,0,1.28.78,3.72,3.72,0,0,0,1.52-.13,5.15,5.15,0,0,1,4,.66c1,.54,2,1.31,3.22,1.26s2.72-1.1,3.87-1.77a10.9,10.9,0,0,1,2.15,1.52c.24.46.48.94.69,1.42.67,1.52,1.39,3,2.19,4.41.17.36.34.71.53,1.07.52,1,.61,2.22,1.23,3.16a6,6,0,0,0,1.43,1.28,3.63,3.63,0,0,0,.26.74l.21.4a2.72,2.72,0,0,0,1.7,1.33c1.33,1.79,3,3,3.78-.46a6.38,6.38,0,0,0,.06-2.14,3.39,3.39,0,0,0-.36-1.76l-.14-.27q-.14-.41-.3-.81a2.74,2.74,0,0,0-.53-1.33l-.24-.35-.42-.8c-2.09-3.93-4.32-7.06-5-11.41a2.85,2.85,0,0,0,.69-1.29c.4-1.55.78-3.12,1.29-4.65a.93.93,0,0,0,.28-.39c.12-.32.62-.51.89-.67a7.46,7.46,0,0,0,1.2-.89,6.86,6.86,0,0,0,1.69-2.56s0,0,0,0a15.51,15.51,0,0,1,2.59-3.53,17.47,17.47,0,0,0,3.39-2.61c.69-.87,0-2.64,1.5-2.8a1,1,0,0,0,.51-1.86c-.59-.34-1.21-.43-.83-1.1a.86.86,0,0,0,.37-1c-.09-.29-.14-.58-.2-.87a.86.86,0,0,0,0-1l-.19-.28c0-.07,0-.14,0-.21a.94.94,0,0,0-.73-.92A11.28,11.28,0,0,1,139.05,94a2.79,2.79,0,0,0-.55-1.24,1.64,1.64,0,0,0-.4-.28.84.84,0,0,0,.14-.56,6.94,6.94,0,0,1,.15-2.5,2.43,2.43,0,0,0,.21.68c.57,1.15,1.48,1.79,1.55,3a6.51,6.51,0,0,1,0,.75c-.19,1.24,1.68,1.81,1.93.53,0-.3.08-.61.1-.91a.76.76,0,0,0,0-.15A6.92,6.92,0,0,0,142,91a35.44,35.44,0,0,1-1.27-3.63,4.81,4.81,0,0,1,.5.26,1.31,1.31,0,0,0,1.68-.16,4.06,4.06,0,0,0,.75-1.71c0-.18.08-.36.12-.54a.69.69,0,0,0,.07-.29c.08-.4.15-.81.2-1.22a.89.89,0,0,0-.49-.83,3.54,3.54,0,0,0-.16-.34,4.19,4.19,0,0,0-.26-.33.91.91,0,0,0,.25-.29,9,9,0,0,1,4.36-3.52c1-.45,2.12-.81,2.65-1.66h.05a4.78,4.78,0,0,0,.65.07,1.8,1.8,0,0,0,1.32-.57,1,1,0,0,0-.2-1.57l-1.29-.64h0v0a2.88,2.88,0,0,0-.21-2.38,1,1,0,0,0-.25-.31,5.64,5.64,0,0,1-.13-1.2c0-.93.69-1.36,1.35-1.88a22.44,22.44,0,0,0,2-1.77.94.94,0,0,0,.6-.24c1.13-1,2.93-2.14,3.79-3.39C158.38,62.38,158.6,62,158.31,61.41Z"/><path class="cls-1" d="M144.06,54.06l.49-.9a4.53,4.53,0,0,0,.65-1.3c.07-.8-.47-1-.95-1.4l-.08-.08-.06,0a.23.23,0,0,0-.33.24.19.19,0,0,0-.17.15l0,.08,0,0a11.45,11.45,0,0,0-1.05,1.92,21.86,21.86,0,0,0-.12-3.34,3.55,3.55,0,0,0-.26-1.6,2.92,2.92,0,0,0-.86-1.14,2.24,2.24,0,0,0-.92-.26.21.21,0,0,0,.1-.19c0-.61-.08-1.22-.16-1.83a.14.14,0,0,0,0-.06l0-1.39a.28.28,0,0,0,.2,0,.61.61,0,0,0,.27-.88.53.53,0,0,0-.45-.21c0-.76,0-1.51.05-2.26,0-1,.15-1.55-.82-2a5.05,5.05,0,0,0-1.88-.26,1.31,1.31,0,0,0-.56,0c-1,.11-1.95.5-1.81,1.41a.16.16,0,0,0,.12.15,2.94,2.94,0,0,0,0,.42s0,0,0,.06a9.65,9.65,0,0,0,.05,2.34.17.17,0,0,0-.15,0,.54.54,0,0,0-.26.49h0a.48.48,0,0,0,.24.52v.09a16.52,16.52,0,0,0,.09,2.24c0,.27,0,.54,0,.82s0,.57,0,.86a.18.18,0,0,0-.1-.13,5.26,5.26,0,0,1-1.71-1.61l-.79-1.22c-.23-.38-.45-.75-.67-1.1-.45-.73-.91-1.45-1.37-2.18-.32-.52-.57-1.12-1.14-1.38h0c-.09-.36-.17-.73-.25-1.09a10.6,10.6,0,0,0-.15-1.78.57.57,0,0,0-.29-.39c-.19-1-.36-2-.5-3a.2.2,0,0,0-.06-.12c0-.2,0-.41,0-.61a6.1,6.1,0,0,0,.12-1.13.69.69,0,0,0-.46-.59,5.62,5.62,0,0,1,.09-.57,5.65,5.65,0,0,0,1.35-.15.22.22,0,0,0,.17-.21,10.9,10.9,0,0,0,0-1.4,1.22,1.22,0,0,0-.39-.73,6.73,6.73,0,0,0,.54-1.86,2.8,2.8,0,0,0,0-.5,5.29,5.29,0,0,0-.05-.56.45.45,0,0,0-.12-.25c-.08-.25-.16-.49-.25-.73s-.32-.24-.41-.05a4.27,4.27,0,0,0-.27.67.73.73,0,0,0-.25.7h0c-.3-.91.13-2.11.26-3a7.65,7.65,0,0,0,.08-1.05l0-.09a.62.62,0,0,0-.05-.45,4.05,4.05,0,0,0-.16-.9c-.06-.17-.33-.24-.42-.05a2.43,2.43,0,0,1-.49.71l-.08.09a4.54,4.54,0,0,1-.77.6.81.81,0,0,0-.35.16,2.7,2.7,0,0,0-.31.28,4,4,0,0,0-1.14,1c-.65.91-.2,1.93.32,2.79a.84.84,0,0,0-.27-.13,4.31,4.31,0,0,1-.79-.7.23.23,0,0,0-.38.16c0,.1,0,.21,0,.31a.18.18,0,0,0-.06.13,3.73,3.73,0,0,0,1.5,2.87.14.14,0,0,0-.1,0c-.23.19-.47.15-.52.5a3.74,3.74,0,0,0,0,.58,4.85,4.85,0,0,0,0,.66c0,.29.23.33.49.33h1.17l0,.86c-.34.2-.3.83-.32,1.17a1.1,1.1,0,0,0,.45,1.09l.06.14a1.27,1.27,0,0,1,0,.34.78.78,0,0,0-.06.4c0,.2.2.2.34.25l0,.15q.15,3.44.44,6.84v0a2.08,2.08,0,0,0-.55,1.25c0,.5.34.67.75.66a31.59,31.59,0,0,0,2.82,4.52c.68,1,1.36,2,2.11,3,.09.21.19.42.29.62s.14.29.22.44a20.31,20.31,0,0,0-.54,3.1,1.23,1.23,0,0,0,.34,1.25c0,.88,0,1.74,0,2.61a23.52,23.52,0,0,0-.26,3c0,.24-.05.47-.07.7-.14,1.46-.29,3.1.48,4.4,0,.19,0,.38,0,.57a13.91,13.91,0,0,0-.06,1.43c-.11,3.2-.26,6.41-.47,9.6a.22.22,0,0,0-.07.16,7.08,7.08,0,0,0,.47,3.71.23.23,0,0,0,.36,0l.09-.08a14,14,0,0,1-.28,2.34,1.8,1.8,0,0,1-.82,1.28,2.36,2.36,0,0,0-.68.47c-.19.22.12.53.32.32a1.14,1.14,0,0,1,.11-.11l.07,0c1.64,0,3.29,0,4.92-.11h4.3a20.62,20.62,0,0,0,3,.22c.28,0,.16-.47-.12-.43h-.06a.72.72,0,0,0-.07-.25.17.17,0,0,0-.11-.1l-.83-1a2.94,2.94,0,0,1-.67-.94s0,0,0-.06c-.11-1.48-.16-3-.18-4.46v-.06c0-.07,0-.18,0-.3s0-.38,0-.57c.55-.32,1.42-.67,1.74-1.22s0-1.74-.1-2.4a61.47,61.47,0,0,1-.42-6.21c0-.28,0-.55.05-.82a.24.24,0,0,0,.41,0c.67-1,.1-2.24-.14-3.32a26,26,0,0,1-.65-5.64.22.22,0,0,0-.2-.21v-.08a.28.28,0,0,1,.08-.18l0,0a3.8,3.8,0,0,0,1.73-2,2.16,2.16,0,0,0-.21-1.54A1.53,1.53,0,0,0,144.06,54.06Z"/><path class="cls-2" d="M138.09,33.35a.31.31,0,0,0,0-.1c0-.2-.18-.25-.32-.18a.19.19,0,0,0-.14.21v.07a17.38,17.38,0,0,0-.18,3.53c0,.5.38.55.8.27a.22.22,0,0,0,.12-.19C138.24,35.76,138.15,34.56,138.09,33.35Z"/><path class="cls-2" d="M140.82,34c-.83,1-1.24,2.23-2.14,3.16-.2.2.12.52.32.31,0,0,0,0,.05-.05a.42.42,0,0,0,.22.25.23.23,0,0,0,.3-.08,5.72,5.72,0,0,0,.65-1.34c.27-.68.63-1.33,1-2C141.29,34,141,33.74,140.82,34Z"/><path class="cls-2" d="M143,36.29c-.29.22-.58.42-.89.62a.17.17,0,0,0-.25,0c-.34.25-.73.48-1.07.75l-.35.16a.25.25,0,0,0-.12.35,1.11,1.11,0,0,0,0,.42.23.23,0,0,0,.38.09l2.52-2C143.45,36.49,143.18,36.14,143,36.29Z"/><path class="cls-2" d="M137.06,37.18c-.6-.86-1.16-1.74-1.69-2.64a.17.17,0,0,0-.12-.1L135,34c-.13-.26-.52,0-.39.23l1.56,3.29a.21.21,0,0,0,.19.11l.48-.06C137,37.5,137.17,37.33,137.06,37.18Z"/><path class="cls-2" d="M135.49,37.82l-2-1.17a.18.18,0,0,0-.2,0l-.57-.45c-.23-.17-.46.22-.23.39.77.59,1.51,1.21,2.24,1.85.48.42.68.22.81-.36A.21.21,0,0,0,135.49,37.82Z"/><path class="cls-2" d="M143.73,39.61h-.07a4.23,4.23,0,0,0-.63-.05l-1.32-.12a9.92,9.92,0,0,0-1.33-.1c-.37-1.91-3.61-1.37-4.81-.61a.19.19,0,0,0-.1.23.34.34,0,0,0-.13.38h-.07c-.91,0-1.8.2-2.7.23a.17.17,0,0,0-.1,0l-.34,0c-.29,0-.28.44,0,.45a16.68,16.68,0,0,1,2,.16,2.71,2.71,0,0,0,1.26.08.26.26,0,0,0,.17-.22,2.64,2.64,0,0,0,0-.28.27.27,0,0,0,.25-.1,1.29,1.29,0,0,1,.41-.36,4.3,4.3,0,0,1,3.83.41.21.21,0,0,0,.21.08h.06a.27.27,0,0,0,0,.18v0c0,.1.12.15.21.16a1.94,1.94,0,0,0,.74-.1h0l.77,0c.31,0,.63,0,1,0l.68.06C143.92,40.08,144,39.66,143.73,39.61Z"/><path class="cls-2" d="M139.9,40.21a2.44,2.44,0,0,0-1.72-.93h0a.19.19,0,0,0-.27,0,.21.21,0,0,0-.13,0A3.3,3.3,0,0,0,136,40a2.12,2.12,0,0,0-.55.81c-.17.45-.08.91-.22,1.35-.09.28.35.4.43.12.21-.65,0-1.29.54-1.85h0a.18.18,0,0,0,.16,0c.3-.1,1.34-.3,1.6-.73a1.33,1.33,0,0,0,.41.37c.26.12.54.1.78.27a.21.21,0,0,0,.26,0,2,2,0,0,1,.29.41,3.42,3.42,0,0,1,.26,1.52c0,.28.46.29.45,0A3.37,3.37,0,0,0,139.9,40.21Z"/><path class="cls-2" d="M140.35,44l.05-.07a.21.21,0,0,0,0-.26,1.27,1.27,0,0,0,0-.2c0-.25-.38-.3-.44,0a5,5,0,0,0-.11.56,2.16,2.16,0,0,0-.49.95,3.56,3.56,0,0,0,.09,1.34l-.08,0a3.09,3.09,0,0,0-1.2.23,1.43,1.43,0,0,1-1.46-.18,1,1,0,0,0-.22-.19l-.08,0a1.24,1.24,0,0,0,0-.54c0-.35,0-.73-.05-1.08s-.19-.37-.38-.55v0a.21.21,0,0,0-.23-.22c0-.12,0-.25,0-.37,0-.29-.46-.29-.45,0a27.86,27.86,0,0,1,0,2.89.22.22,0,0,0,.34.19,1.27,1.27,0,0,1,.36-.08.17.17,0,0,0,0,.12l0,.07,0,.06c.3.6.38,1.28.74,1.86a.22.22,0,0,0,.35.05,15.12,15.12,0,0,1,2.29-1.78.21.21,0,0,0,.1-.25.21.21,0,0,0,.29-.12c.24.15.49,0,.55-.3a5.26,5.26,0,0,0-.06-1.12C140.34,44.55,140.34,44.26,140.35,44Z"/><path class="cls-2" d="M141.39,46.77c-.25-.17-.69-.38-1-.22s-.57,1.06-.64,1.44a.2.2,0,0,0,.07.21.23.23,0,0,0-.26.21.22.22,0,0,0-.05.08v0a.18.18,0,0,0-.16,0,47.48,47.48,0,0,1-6.27,2.91.24.24,0,0,0-.1.38,23.71,23.71,0,0,0-.54,3.71.23.23,0,0,0,.45,0,7.13,7.13,0,0,1,0-.79l0,0c1.72-1.58,3.48-3.11,5.24-4.66l-.19.29a.1.1,0,0,0-.05,0c-1.72,1.94-3.42,3.89-5.12,5.84,0,0,0,0,0,0a.22.22,0,0,0-.08.18c0,.79.05,1.58.05,2.37a20.77,20.77,0,0,0-.21,3.36,28.8,28.8,0,0,0-.1,4.25h0a.13.13,0,0,1,0,.06c0,.25.47.2.44-.06s0-.51,0-.77a.19.19,0,0,0,.12-.2,3.83,3.83,0,0,1,0-.68.23.23,0,0,0,.06-.12c.21-1.33.66-2.66.85-4h0a4.42,4.42,0,0,1,.14-.52h0a12.6,12.6,0,0,1,1-2.44,2.42,2.42,0,0,0,.52-.93v0c.35-.61.71-1.22,1-1.8a37.68,37.68,0,0,0,2-4.11c.13-.24.26-.48.38-.72,0,.07,0,.15-.05.22a.23.23,0,0,0-.09.12c-.33,1.08-.62,2.16-.91,3.25a.19.19,0,0,0-.18.16c0,.16-.07.33-.1.49s-.16.44-.23.66c-.5,1.29-.95,2.6-1.37,3.93l-.33,1c-.88,1.72-1.36,3.66-2.13,5.43a9.07,9.07,0,0,0-.88,3.8c0,.64,0,1.28,0,1.92a28.83,28.83,0,0,0-.35,4c-.07,1.35-.09,2.71-.07,4.07a5.61,5.61,0,0,0,.07,2.16c0,.25.46.19.45-.06,0-.69-.06-1.38-.07-2.07h0a.18.18,0,0,0,.24-.05c1.32-1.68,1.79-3.86,2.34-5.88A38.37,38.37,0,0,0,137,66a.25.25,0,0,0,0-.09c.14-.49.27-1,.38-1.46.24-1.05.44-2.11.63-3.17.14-.62.28-1.23.4-1.85s.22-1.5.35-2.25l.12-.52c0,.5-.07,1-.07,1.51a.18.18,0,0,0-.07.15l0,.47,0,.08a.22.22,0,0,0,0,.14c0,.19,0,.38,0,.56,0,0,0,0,0,0-.1.57-.17,1.13-.24,1.7a.22.22,0,0,0-.12.18c-.23,3.49-.48,7-.84,10.44-.14.86-.28,1.72-.39,2.58a23.53,23.53,0,0,1-.54,3.75.23.23,0,0,0,.33.25c.33-.16.9-.34,1.35-.56,0,.33,0,.67,0,1,0,.67.09,1.35.17,2h0c0,.33,0,.66.05,1,0,.16,0,.31,0,.47a.17.17,0,0,0,0,.1v0a.14.14,0,0,0,0,.07.22.22,0,0,0,0,.26q.91,1.71,1.86,3.39a.23.23,0,0,0,.42-.11V86a2,2,0,0,0,.28.2c.18.11.46-.12.31-.3-.41-.54-.81-1.08-1.19-1.64-.2-.28-.39-.55-.57-.84a4,4,0,0,1-.49-.75.21.21,0,0,0,0-.15v0a.21.21,0,0,0-.11-.1l.15-5.56s0,0,0-.07a28.43,28.43,0,0,0,.31-4.69c.07-1.5.17-3,.3-4.51a35.26,35.26,0,0,0-.08-5.14.22.22,0,0,0,.07-.16c0-.84,0-1.69,0-2.53a1.06,1.06,0,0,0-.45-1c.1-.18.23-.33.33-.51a.2.2,0,0,0,0-.13s0,0,0,0a4.42,4.42,0,0,0,.23-2.26,24.71,24.71,0,0,0-.07-3c.05-.45.1-.9.13-1.35.13,1.26.28,2.52.34,3.79,0,.1,0,.21.05.31l0,0a1.81,1.81,0,0,0,0,.23h0l.12.84c.26-.74,1-1.4,1.16-2.13a2.05,2.05,0,0,0-.15-1.06c-.46-1.73-.94-3.45-1.41-5.18a.31.31,0,0,0-.05-.1.18.18,0,0,0,.2-.08.21.21,0,0,0,.22.06c.23-.06.47-.12.7-.16a1,1,0,0,1,.76.58,5.81,5.81,0,0,1,.27,1c.07.29.48.16.44-.12C142.42,48.58,142.25,47.35,141.39,46.77Z"/><path class="cls-2" d="M135.34,46.67a1.48,1.48,0,0,0-.85-.62.22.22,0,0,0-.11,0c0-.2-.3-.33-.41-.11a28.73,28.73,0,0,0-1.32,4.16c-.07.26-.24,1.1.36.81.11,0,.21-.34.25-.39a4.26,4.26,0,0,1,.75-.78,3.91,3.91,0,0,0,1.18-1.18A3.34,3.34,0,0,0,135.34,46.67Z"/><path class="cls-2" d="M132.3,42.92a.26.26,0,0,0-.2,0,8.65,8.65,0,0,0-2.46,2.58c-.17.35-.1.32,0,.63A8.86,8.86,0,0,0,130.88,48c.11.17.44.13.42-.11a5,5,0,0,1,0-1,.25.25,0,0,0,.18-.14c.45-1.19.65-2.44,1.14-3.63C132.72,43,132.47,42.84,132.3,42.92Z"/><path class="cls-2" d="M129.8,39.35a.35.35,0,0,0-.6,0c-.24.33-.28.73-.6,1-.11.1-.76.66-1,.62a.23.23,0,0,0-.42-.15,1.92,1.92,0,0,0-.25.85.75.75,0,0,0,.18.9c.75.49,1.57-.3,2-.82a4,4,0,0,0,.81-1.41A.91.91,0,0,0,129.8,39.35Z"/><path class="cls-2" d="M127.79,29.45a8.21,8.21,0,0,0-1.3.22.23.23,0,0,0-.16.22c0,.33.15.41.45.5s.66,0,.67.52,0,1-.64,1.2a.27.27,0,0,0-.12.09.29.29,0,0,0-.07.08,2.18,2.18,0,0,0-.09,1.11.47.47,0,0,0,.07.19h0a.23.23,0,0,0,.21.29c.33,0,.76.14.94-.21a1.84,1.84,0,0,0,0-.66,3.26,3.26,0,0,0,0-.88h0c.05-.31.11-.61.14-.92a10.08,10.08,0,0,1,0-1.46A.24.24,0,0,0,127.79,29.45Z"/><path class="cls-2" d="M125.14,28a.25.25,0,0,0-.34.2v.1a.2.2,0,0,0,0,.17c0,.12,0,.24,0,.37a.21.21,0,0,0,0,.18l0,0a.24.24,0,0,0,.39.09l.07,0a3.76,3.76,0,0,1,4,.06c.15.1.32,0,.34-.2C129.88,26.75,126.51,27.12,125.14,28Z"/><path class="cls-2" d="M129.19,23.43c-.07-.18-.4-.25-.44,0a10.53,10.53,0,0,0-.1,1.25h0c0-.08-.16-.25-.16-.33a.17.17,0,0,0-.09-.18c.32-1.55.8-3.24.18-4.64h0a.63.63,0,0,0-.25-.36.23.23,0,0,0-.31.08c-.59,1.2-1.74,1.69-2.68,2.55a2,2,0,0,0-.46,2.24.21.21,0,0,0,.07.11,1.08,1.08,0,0,0,0,.39.22.22,0,0,0,.43-.12c-.19-.68,1.11-1.1,1.52-1.42a2.05,2.05,0,0,0,.51-.55s.2-.44.23-.44c.21,0,.32.44.34.55a.2.2,0,0,0,.13.15c0,.11,0,.22-.07.32a22.49,22.49,0,0,0-.33,2.43c0,.29.43.29.46,0a4.7,4.7,0,0,1,.06-.51l.11.2.25.5a1.08,1.08,0,0,0,.15.28c-.05.32-.1.64-.18,1a.21.21,0,0,0,.09.24v0a.22.22,0,0,0,.41.17,3.49,3.49,0,0,0,.66-1.77A5.7,5.7,0,0,0,129.19,23.43Z"/><path class="cls-2" d="M125.84,25.58a2.74,2.74,0,0,0-.61-.74,4.36,4.36,0,0,1-1-.71l0,0c-.08-.18-.37-.22-.41,0A3.31,3.31,0,0,0,125,27.3a.25.25,0,0,0,.37-.08.2.2,0,0,0,0-.31,2.8,2.8,0,0,1-.69-1.54,5.6,5.6,0,0,0,.81.52C125.71,26,126,25.78,125.84,25.58Z"/><path class="cls-2" d="M144.88,51c-.11-.27-.55-.15-.44.12a.93.93,0,0,0,.05.1l-1.18,1.87c-.13.2.11.39.28.31l.15.55a.23.23,0,0,0,.45-.06c0-.11,0-.23.06-.34a14.23,14.23,0,0,0,.81-1.41C145.26,51.73,145,51.4,144.88,51Z"/><path class="cls-2" d="M142.69,55.08v0c.11-.27-.33-.39-.43-.12a31,31,0,0,1-1.84,3.91l-.14,0c-.26.11-.14.55.12.43a3.93,3.93,0,0,0,1.11-.48,3.47,3.47,0,0,0,.48-1A6.44,6.44,0,0,0,143,55.3.22.22,0,0,0,142.69,55.08Z"/><path class="cls-2" d="M146.78,66.27a.23.23,0,0,0,0,.45A.23.23,0,0,0,146.78,66.27Z"/><path class="cls-2" d="M137.22,78.57l-.65.64h0l-.08.08a.21.21,0,0,0,0,.32v.13h-.12a.22.22,0,0,0-.31-.28.22.22,0,0,0-.27.15l0,.17-.07.06a.18.18,0,0,0-.24.1.75.75,0,0,0-.06.13l-.46.35a.25.25,0,0,0,0,.35c-.1.82-.19,1.65-.27,2.48a31.47,31.47,0,0,1-2,2.77c-.13.17,0,.45.22.38.57-.18,1.22-.08,1.48-.67.39-.84.72-1.72,1.08-2.58a.13.13,0,0,0,0-.06.13.13,0,0,0,0-.09c.26-1,.49-2,.7-3l0,0a.22.22,0,0,0,.22.23h0c0,.11,0,.23,0,.35a16.32,16.32,0,0,0-.09,2.1.21.21,0,0,0,.09.17.28.28,0,0,0-.05.08c-.13.33-.27.66-.41,1-.11.13-.23.26-.33.39A21.38,21.38,0,0,0,134.46,86c-.13.2.12.4.31.31s.74-.13,1-.33.19-.39.25-.6a7.31,7.31,0,0,0,1.42-2.72.22.22,0,0,0-.14-.26,14.31,14.31,0,0,1,.33-3.64C137.67,78.57,137.37,78.42,137.22,78.57Z"/><path class="cls-2" d="M144,86.05a13.6,13.6,0,0,0-2.39-3,.2.2,0,0,0-.18,0l-.05-.06a2.26,2.26,0,0,0,0-.26,74.79,74.79,0,0,0,.27-7.48.21.21,0,0,0-.06-.15.22.22,0,0,0-.08-.14.24.24,0,0,0-.31-.09,1.69,1.69,0,0,0-.32.19.2.2,0,0,0-.2.27v0a.27.27,0,0,0,.08.1.08.08,0,0,0,0,0c0,1.42.05,2.85.07,4.27h0c0,.08,0,.15,0,.22a.21.21,0,0,0,.05.16c0,.85,0,1.72.06,2.57,0,.06,0,.12,0,.18a.3.3,0,0,0,0,.1v.13a.2.2,0,0,0,0,.21,25.35,25.35,0,0,0,2,3,.23.23,0,0,0,.42-.11.21.21,0,0,0,.19,0l.09.13C143.73,86.52,144.12,86.29,144,86.05Z"/><path class="cls-2" d="M143.33,63.38c-.32-1.71-.71-3.4-.89-5.13,0-.23-.4-.33-.45-.06a1.38,1.38,0,0,1-1,1.15c-.09-.21-.45-.09-.41.17.14.91.31,1.81.45,2.72.05.7.13,1.4.24,2.09,0,.41,0,.81,0,1.22a.23.23,0,0,0,.23.22,1.71,1.71,0,0,1,1.19.17c.56.3.5.66.51,1.26,0,.24.4.32.44.06a.13.13,0,0,0,0-.06h0A11.91,11.91,0,0,0,143.33,63.38Z"/><path class="cls-2" d="M144.3,54.3c-.06-.29-.48-.16-.44.12a1.74,1.74,0,0,1-.11.89.23.23,0,0,0-.19.1c-.08.09-.25.34-.39.32l-.11,0a.23.23,0,0,0-.19.21c0,.62,0,1.24,0,1.86a.23.23,0,0,0,.45.06c0-.15.19-.29.27-.42a.36.36,0,0,0,0-.09.09.09,0,0,0,.06,0C144.48,56.71,144.49,55.21,144.3,54.3Z"/><path d="M155.67,58.54c-.87-1.84.3-3.9-1.87-5.1-.57-.31-1.07.55-.51.86,2,1.08.62,4.09,2,5.62.37.41.7.42,1.11.7a1.25,1.25,0,0,1,.92.71c.71.35.74.74.11,1.15a7.36,7.36,0,0,1-1.58,1.67c-1.64,1.48-3.78,2.63-5.15,4.39a2.93,2.93,0,0,0-.74,1.4c-.17,1.24,1.11,2.35.45,3.61a.49.49,0,0,0,.18.65.45.45,0,0,0,.23.46c.1.07.95.64,1.33.85l-.17.17-.31.26a.49.49,0,0,0-.46,0c-3.18,1.49-6.86,2.86-8.32,6.28a.51.51,0,0,0-.18.45.43.43,0,0,0,.36.58,2.72,2.72,0,0,1,.49,1.33.48.48,0,0,0,.06.18.18.18,0,0,1-.05-.07c-.31-.36-.67-.71-.95-1.1a.16.16,0,0,0,0-.1q-.09-1.32-.09-2.64c0-.79-.13-1.63-.1-2.41a9.18,9.18,0,0,0,1.54-1,.24.24,0,0,0,.07-.32.12.12,0,0,0,0-.1c0-.52,0-1,0-1.54a8.71,8.71,0,0,0-.05-1c-.14-2.07-.06-4.2-.36-6.25h0c.92-1.33.43-2.65.18-4.07a.2.2,0,0,0,0-.16,35.52,35.52,0,0,1-.66-5.53l.07-.06a1.8,1.8,0,0,0,.21-.19,3.48,3.48,0,0,0,.43-.58,16.82,16.82,0,0,0,.93-1.72.22.22,0,0,0,0-.25,1.83,1.83,0,0,0-.39-1.51c.45-.75.88-1.51,1.28-2.29a.24.24,0,0,0-.14-.33,7.05,7.05,0,0,0-.61-1,1,1,0,0,0-.32-.25,4,4,0,0,1-.51-.27.23.23,0,0,0-.4-.13.24.24,0,0,0-.14.09,9.57,9.57,0,0,0-.81,1.43c0-.38-.1-.77-.17-1.15a.22.22,0,0,0,.12-.13,2,2,0,0,0,.1-1.54,3.58,3.58,0,0,1-.11-.35.24.24,0,0,0,.13-.32,2.74,2.74,0,0,0-.5-.74.05.05,0,0,0,0,0,.21.21,0,0,0-.11-.1,5.44,5.44,0,0,0-.91-.65c-.6-.36-.55-.74-.53-1.42s0-1.09,0-1.63a.9.9,0,0,0,.48-1,1.4,1.4,0,0,0-.27-.61.86.86,0,0,1-.19-.46,4.1,4.1,0,0,1,0-.7,18.35,18.35,0,0,0,3.3-.39.22.22,0,0,0,.1-.36.21.21,0,0,0-.12-.33,17,17,0,0,0-3.25-.37,3.93,3.93,0,0,1,.83-.72l1.05-.83c.27-.23,1.14-.74.94-1.17a.18.18,0,0,0-.2-.12.24.24,0,0,0-.3-.1,28.35,28.35,0,0,0-3,1.53l-.07,0c.28-.66.57-1.31.84-2a4.52,4.52,0,0,0,.59-1.72.23.23,0,0,0-.39-.15.2.2,0,0,0-.32,0,10.87,10.87,0,0,0-1.1,1.58c-.28.46-.62.88-.93,1.32a23.82,23.82,0,0,0-.21-2.67c-.11-.69-.19-1.28-1-1.16a.18.18,0,0,0-.15.25.24.24,0,0,0-.06.19,7.6,7.6,0,0,1-.17,2.07c-.05.45-.09.89-.12,1.34-.31-.45-.56-.95-.88-1.39s-.74-1-1.06-1.57l0,0a.19.19,0,0,0-.16-.14c-.61-.08-.36.67-.27,1a16.16,16.16,0,0,0,1.11,3c-.51,0-1-.53-1.44-.76a8.45,8.45,0,0,1-1.45-.7.23.23,0,0,0-.33,0c-.16-.08-.41,0-.33.24.2.53.88.87,1.28,1.23s.6.52.89.79.52.38.61.69a18.8,18.8,0,0,0-3.08.48.22.22,0,0,0-.09.37.24.24,0,0,0,.33.28c.15-.07.72.12.89.14l.53.07c.51.07,1,.12,1.54.16,0,.31,0,.63,0,1-.51.29-.46,1-.22,1.53a.17.17,0,0,0,.14.11c0,.95,0,1.88,0,2.82A4.77,4.77,0,0,1,133.27,44a6.1,6.1,0,0,0-1-1.53l-.05,0c-.42-.84-1-1.52-1.52-2.33-.3-.5-.43-.94-.91-1.19v0c-.29-.89-.37-1.82-.59-2.73a11.87,11.87,0,0,1-.56-3.07,3.7,3.7,0,0,0,.25-1.5,3.32,3.32,0,0,0-.57-1.34c0-.08,0-.15,0-.23a4.93,4.93,0,0,1,1.33-.05.21.21,0,0,0,.21-.2.18.18,0,0,0,.09-.18c0-.76.19-1.82-.51-2.3a3.27,3.27,0,0,0,.52-1.06,2.52,2.52,0,0,0,0-1.56.19.19,0,0,0-.13-.14,3.55,3.55,0,0,1-.55-1.43.22.22,0,0,0-.41-.12.21.21,0,0,0-.18.16,3.57,3.57,0,0,0-.11.47c.08-.91.62-1.79.66-2.72a2.5,2.5,0,0,0-.85-2,.22.22,0,0,0-.37.1.26.26,0,0,0-.13.1,5.13,5.13,0,0,1-2.23,1.81.23.23,0,0,0-.11.13,2.47,2.47,0,0,0-1.26,1.7,3.37,3.37,0,0,0,0,1l-.13-.23c-.11-.25-.48,0-.39.21a.21.21,0,0,0-.11.08,2.38,2.38,0,0,0,.45,3l0,0h0a2.55,2.55,0,0,0,.35.38l.14.11a1.29,1.29,0,0,0-.21.19.18.18,0,0,0-.06.13.18.18,0,0,0,0,.11c0,.63,0,1.25,0,1.88a.22.22,0,0,0,.09.16.17.17,0,0,0,.14.14c.45.09.88,0,1.32.12h0a2.11,2.11,0,0,1,0,.26l0,0a1.72,1.72,0,0,0-.18,1.39,2.76,2.76,0,0,0,.37,1.42c0,.26.09.53.14.79a.18.18,0,0,0,.21.16c.19,2.13.46,4.26.7,6.39l0,0c-.32.49-.75,1-.64,1.61a1.36,1.36,0,0,0,.9,1h0a2,2,0,0,1,.41.66c.13.24.27.47.42.7s.38.57.59.85a.19.19,0,0,0,0,.12c.59,1,1.2,2,1.84,3,.3.47.61.93.92,1.39a13.1,13.1,0,0,1,1,1.38.19.19,0,0,0,0,.19c0,.07-.08.34-.1.42s-.07.34-.1.51-.1.57-.14.86a.21.21,0,0,0,0,.14c-.06.52-.1,1-.12,1.57a1.56,1.56,0,0,0,.26,1.07l0,0c0,.64,0,1.28,0,1.91a.2.2,0,0,0-.05.15,23.76,23.76,0,0,1-.21,3c-.07,1,.11,2.07,0,3.14a.15.15,0,0,0,.07.17,8.16,8.16,0,0,0,0,1.71,1,1,0,0,0,.17.48c.07.1.14.16.15.27a2.09,2.09,0,0,1-.08.5.24.24,0,0,0,.12.24l-.32,6.05a.18.18,0,0,0,0,.11c0,.1,0,.2,0,.29a.55.55,0,0,0-.28-.24c-1.21-.33-2.64-.56-3.51.56a7.24,7.24,0,0,0-.81,2,4.27,4.27,0,0,1-2.2,2.28c-.58.28-.07,1.15.5.87a5.22,5.22,0,0,0,2.48-2.43c.22-.46.32-1,.5-1.43a1.53,1.53,0,0,1,1.48-1.11,3.51,3.51,0,0,1,1,.17c.07.44.56.44.81.18a16.26,16.26,0,0,0-.09,1.85,19.67,19.67,0,0,1-.24,3.51.19.19,0,0,0,0,.15s0,0,0,0q.16,1,.36,1.92a.18.18,0,0,0,.11.15.25.25,0,0,0,.35,0l.05,0c-.09.64-.12,1.28-.25,1.91l-.06,0c-.52.52-1,1-1.53,1.58a.23.23,0,0,0,.11.37.18.18,0,0,0,.22.07,7.47,7.47,0,0,1,2.36,0,23.56,23.56,0,0,0,2.38.06.27.27,0,0,0,.17-.08c1.27,0,2.54-.09,3.81-.06a.25.25,0,0,0,.16.05,3.87,3.87,0,0,1,.48,0H141l1.51,0c.64,0,1.27-.07,1.91,0a.22.22,0,0,0,.21-.29.23.23,0,0,0,0-.11v0a.23.23,0,0,0-.15-.21,2.9,2.9,0,0,1-.41-.53l-.33-.39c.31.23.84.11.79-.36a3.87,3.87,0,0,0-.75-2c1.26-3,4.64-4.31,7.46-5.6a.52.52,0,0,0,.7,0c.45-.4,1.54-1,1.34-1.76-.08-.31-.37-.47-.62-.63-.44-.26-.88-.52-1.31-.79.33-.77.12-1.17,0-2.08-.19-2.45.59-3.23,2.35-4.64,1.39-1.11,5.2-3.4,5.3-5.48S156.37,60,155.67,58.54ZM143.83,85.71l.22.32c-.52,0-1,.06-1.55,0s-1.17,0-1.75,0c-1.68-.08-3.36,0-5,0a.27.27,0,0,0-.17.08c-.71,0-1.42-.06-2.14-.08a12.7,12.7,0,0,0-1.63-.07l1.13-1.17a0,0,0,0,0,0,0,.19.19,0,0,0,.16-.16c.18-.87.17-1.77.37-2.64a.23.23,0,0,0-.38-.22,2.35,2.35,0,0,1-.29.26c-.11-.57-.21-1.13-.31-1.7,0,0,0,0,0-.05a16.92,16.92,0,0,0,.25-3.1c0-1.2.17-2.38.15-3.57a.2.2,0,0,0,0-.09c.11-2,.21-4,.32-6a.19.19,0,0,0-.11-.18,1.25,1.25,0,0,0,0-.79,2.54,2.54,0,0,1-.22-1.2c0-.39,0-.77,0-1.16a.17.17,0,0,0-.07-.17c.07-1-.07-1.9,0-2.86s.21-1.75.21-2.63a.21.21,0,0,0,.05-.13c0-.82,0-1.63,0-2.45a.26.26,0,0,0-.12-.19,1.88,1.88,0,0,1-.15-1.24c0-.5.08-1,.13-1.48a.19.19,0,0,0,0-.11c0-.31.1-.61.16-.92a1.45,1.45,0,0,0,.1-.61c0-.22-.12-.33-.25-.52-.44-.64-.88-1.26-1.31-1.9-.74-1.12-1.44-2.27-2.11-3.44a.21.21,0,0,0,0-.2,14.66,14.66,0,0,1-.95-1.38,6.61,6.61,0,0,0-.57-1,.22.22,0,0,0-.16-.21.91.91,0,0,1-.74-1,3.26,3.26,0,0,1,.55-.93.19.19,0,0,0,.14-.21c-.26-2.22-.54-4.45-.73-6.69a.24.24,0,0,0-.24-.21l-.12-.67a.2.2,0,0,0-.08-.14l0,0a2.43,2.43,0,0,1-.23-1,1.53,1.53,0,0,1,.11-1.24.14.14,0,0,0,0-.06.19.19,0,0,0,.07-.13c0-.23.12-.74-.19-.82a.18.18,0,0,0-.19.05c-.39-.06-.77,0-1.15-.1,0-.58,0-1.15,0-1.72a1.12,1.12,0,0,1,.33-.24.23.23,0,0,0,0-.35c-.1-.12-.24-.2-.35-.31a3.06,3.06,0,0,1-.35-.37.13.13,0,0,0-.07-.06,2,2,0,0,1-.42-2.34,2.58,2.58,0,0,0,.72.68,1,1,0,0,0,.3.25c.25.14.48-.25.23-.39,0,0-.06-.05-.09-.07a.23.23,0,0,0-.11-.13h0a2.65,2.65,0,0,1-.24-1.87,2.47,2.47,0,0,1,1.29-1.33.2.2,0,0,0,.09-.09,5.42,5.42,0,0,0,2.07-1.76c1.41,1.67-.75,3.66.14,5.54a.19.19,0,0,0,.31.07.22.22,0,0,0,.17-.21,6.74,6.74,0,0,1,.14-1,9.89,9.89,0,0,1,.55,1.19.31.31,0,0,0,0,.1,2.53,2.53,0,0,1-.66,2,.19.19,0,0,0,0,.23.21.21,0,0,0,.22.27.86.86,0,0,1,.33.8c0,.36,0,.72,0,1.08a4.33,4.33,0,0,0-1.35.09h-.05a.19.19,0,0,0-.2.16c0,.13,0,.25,0,.38a.18.18,0,0,0,0,.21h0a.18.18,0,0,0,.12.2,2.76,2.76,0,0,1,.46,1.09,3.14,3.14,0,0,1-.2,1.21.18.18,0,0,0-.05.12v0h0a.28.28,0,0,0,0,.13,11.25,11.25,0,0,0,.48,2.75c.25,1,.36,2,.65,2.94a.23.23,0,0,0,.07.4c.64.18.95,1.15,1.33,1.67a12.9,12.9,0,0,1,1.14,1.79.18.18,0,0,0,.12.11,3.81,3.81,0,0,1,.67,1,12.85,12.85,0,0,0,.84,1.24A3.31,3.31,0,0,0,135,46.42a.2.2,0,0,0,.1,0c.11.18.44.15.42-.1-.1-1.16,0-2.29-.06-3.45a.21.21,0,0,0-.24-.21c-.1-.28-.17-.73.16-.84a.24.24,0,0,0,.17-.22c0-.44,0-.89,0-1.34a.23.23,0,0,0-.32-.2l0,0h0c-.69-.06-1.39-.13-2.08-.23a3.68,3.68,0,0,1-.41-.08c.84-.17,1.73-.23,2.57-.34a.25.25,0,0,0,.17-.39V39c-.09-.59-.74-1-1.16-1.33l-.89-.78h0a9.26,9.26,0,0,1,1.26.63c.55.38,1,.69,1.63.32a.22.22,0,0,0-.09-.41v0a16.75,16.75,0,0,1-.77-1.85c0-.14-.12-.54-.23-.91l.7,1c.36.51.63,1.09,1,1.57a.21.21,0,0,0,.17.08.22.22,0,0,0,.37-.16,28.49,28.49,0,0,0,.32-3.9c.52.32.52,3.44.54,3.89a.23.23,0,0,0,.33.2.21.21,0,0,0,.22-.1c.33-.53.75-1,1.09-1.52A14.17,14.17,0,0,1,141,34.11a8.62,8.62,0,0,1-.74,1.8c-.23.56-.47,1.1-.71,1.65a.26.26,0,0,0,.21.35h0l.13.08a.2.2,0,0,0,.29.08,27.53,27.53,0,0,1,2.64-1.37c-.2.17-.41.38-.47.44-.29.24-.59.47-.89.7s-1.11.73-1.23,1.3a.24.24,0,0,0,.16.27.21.21,0,0,0,.12,0,15.79,15.79,0,0,1,2.92.28,18.62,18.62,0,0,1-2.89.29.22.22,0,0,0-.2.32.17.17,0,0,0,0,.1,2.83,2.83,0,0,0,0,1.23c.07.15.23.19.32.33a.74.74,0,0,1,0,.77.23.23,0,0,0-.41.13c0,.68.07,1.34,0,2,0,.38-.14,1.14.09,1.48.08.12.12.12.24.2.38.26.78.24,1.16.58a1.36,1.36,0,0,1,.12.12h0a9.69,9.69,0,0,1,.38,1.19,1.76,1.76,0,0,1,0,1.47.09.09,0,0,1,0,.05.23.23,0,0,0-.12.25,15.27,15.27,0,0,1,.25,2l0,.11a.19.19,0,0,0,.12.25.21.21,0,0,0,.38-.14s0-.1,0-.15a8.62,8.62,0,0,1,1-2,2.1,2.1,0,0,0,.54.31c.37.2.57.78.77,1.13l0,0c-.38.74-.78,1.46-1.21,2.16a.52.52,0,0,0,0,.37,1.41,1.41,0,0,1,.31,1.51.19.19,0,0,0,0,.15,14.62,14.62,0,0,1-.77,1.4,2.37,2.37,0,0,1-.56.66h0a.2.2,0,0,0-.21.2l0,.07a.2.2,0,0,0,0,.2,43,43,0,0,0,.54,5v0c.15,1.49.88,2.92.09,4.29a.24.24,0,0,0-.21.28,45,45,0,0,1,.33,5.47h0c0,.31,0,.61.05.92a.28.28,0,0,1,0,.09h0a7.16,7.16,0,0,1,0,.92c0,.52,0,1,0,1.54a.3.3,0,0,0,0,.1,9.29,9.29,0,0,1-1.36.88.24.24,0,0,0-.3.21c-.08.86.09,1.76.09,2.63s0,1.71.09,2.57a.19.19,0,0,0,0,.27A14.19,14.19,0,0,0,143.24,85Z"/><path class="cls-3" d="M149.89,65.48a5.18,5.18,0,0,0-1-2.49,5.74,5.74,0,0,0-4.74-2.35,5.48,5.48,0,0,0-.7,0A6,6,0,0,0,139.57,63a5,5,0,0,0-.81,1.68,6,6,0,0,0,.15,3.92A38.78,38.78,0,0,0,144,78.18a.39.39,0,0,0,.25.16.32.32,0,0,0,.46-.23l0,0a.43.43,0,0,0,.19-.14A36.29,36.29,0,0,0,148.65,71C149.32,69.51,150.66,67.18,149.89,65.48Zm-2.7,1.8a2.64,2.64,0,0,1-1.59,1.8,3.74,3.74,0,0,1-2.24.16,3.19,3.19,0,0,1-1.79-1.4c-.61-1.36-.53-3.09.9-3.89a3.75,3.75,0,0,1,2.62-.23,3,3,0,0,1,2.12,1.72c0,.14.07.29.12.43A3.14,3.14,0,0,1,147.19,67.28Z"/><path d="M147.45,66a3.21,3.21,0,0,0-3.77-2.63h0c-1.81.14-2.75,1.63-2.5,3.46a3,3,0,0,0,3.56,2.4A3.81,3.81,0,0,0,147,68.22,3,3,0,0,0,147.45,66Zm-.88,2a3.63,3.63,0,0,1-1.93.78,2.63,2.63,0,0,1-3-1.79A2.41,2.41,0,0,1,144,63.84a.2.2,0,0,0,.15-.06,3,3,0,0,1,1.14.21l-1.38.47c-.61.2-.35,1.17.26,1l1.49-.5a.49.49,0,0,0,.33-.54A2.63,2.63,0,0,1,147,66,2.47,2.47,0,0,1,146.57,68.07Z"/><path d="M153.61,53.5c-.6-.18-1.1-.12-1.75-.29a8,8,0,0,0-1.1-.39,2.26,2.26,0,0,0-2,.52,6.36,6.36,0,0,0-1.08,3.31c-.21,1.59.34,3.31.12,4.85a6.11,6.11,0,0,0-5.54-.66A6.89,6.89,0,0,0,139,63.3a5.45,5.45,0,0,0-.59,4.48,20.4,20.4,0,0,0,2.34,5.55,24.81,24.81,0,0,0,3.14,5,.16.16,0,0,0,.08.06.71.71,0,0,0,.57.2c.59,0,.89-.72,1.14-1.16,1-1.69,1.83-3.43,2.69-5.17,1.38-2.79,2.88-6.12,1-9.07a5.13,5.13,0,0,0-.78-1,.53.53,0,0,0,.09-.2,7.55,7.55,0,0,0-.09-2.37,11.32,11.32,0,0,1,.25-4c.18-.73.27-1.28,1-1.63s1.17.1,1.84.29,1.14,0,1.68.2A.5.5,0,0,0,153.61,53.5Zm-4.3,15.7a42.75,42.75,0,0,1-2.17,4.53c-.37.75-.76,1.49-1.15,2.22l-.61,1.1-.27.48-.1.16c-.15.35-.42.4-.8.16a.18.18,0,0,0-.24-.15,19.62,19.62,0,0,1-2.11-3.22c-.68-1.24-1.38-2.48-2-3.75a12.46,12.46,0,0,1-1.23-4.44,4.52,4.52,0,0,1,1.73-3.86,5.88,5.88,0,0,1,7.1-.63c.12.08.2.18.31.26a.55.55,0,0,0,.32.26C150,64.05,150.17,66.82,149.31,69.2Z"/><path d="M142.62,86.37a1.89,1.89,0,0,1-.37.87c-.15.14-.39.22-.49,0a.48.48,0,0,0-.88.1.53.53,0,0,0-.54.75,12.9,12.9,0,0,1,1.22,4.21,6.2,6.2,0,0,1,.07,1.55q.18,1.27-1.17,0c0-.34-.07-.67-.09-1a4.63,4.63,0,0,0-2.18-3.55c-.53-.34-1,.49-.53.85a.5.5,0,0,0-.41.6,15.61,15.61,0,0,0,.5,3.07c.5,1.16,1.66,1.8,2.33,2.84s.46,2,.53,3.24a5.11,5.11,0,0,0-.05.78c.18.81,1.44,1.57-.23,2.38a.4.4,0,0,0-.24.47.49.49,0,0,0-.13.12c-.47.72-.3,1.58-.76,2.32a8.13,8.13,0,0,1-2.44,2.07,7.31,7.31,0,0,0-2.25,2.39.47.47,0,0,0-.5.22c-1.31,2.06-2.73,3.94-4.17,5.89-1.3,1.78-1.54,4.16-2.75,6a.43.43,0,0,0,.06.58.44.44,0,0,0,0,.38,70.58,70.58,0,0,0,3.38,7.67l1.9,4a20.83,20.83,0,0,1,1.17,2.75c.07.28.15.56.23.83.61,1.67-.06,2.85-2,3.54-.29-.37-.74-.08-.81.29a13,13,0,0,1-1.54-2.84c-.74-1.26-1.62-2.38-2.25-3.71-1-2.15-1.8-4.28-3.69-5.81-.72-1.31-1.4-2.76-2.88-3.29a2.57,2.57,0,0,0-2,.08c-1.26.53-1.93,1.26-3.41,1.2-1-.83-2.53-2.31-3.87-2.1a2.65,2.65,0,0,0-1,.5c-.81.43-.86.33-1.64-.17-.3-.19-.59-.38-.9-.56a.45.45,0,0,0-.66-.19,5.39,5.39,0,0,1-3.24.8,2.07,2.07,0,0,0-1.33.35c-.39.29-.39.43-.92.54a3.8,3.8,0,0,1-1,0,1.69,1.69,0,0,0-1.28.27.49.49,0,0,0-.13.49l0,.09a.51.51,0,0,0,.25.29.49.49,0,0,0,.34.49,7.09,7.09,0,0,1,1.72.74c.34.22,1.4,1.18,1.26,1.63-.41,1.35-2.06,0-2.66-.21a2.89,2.89,0,0,0-1.43,0,3.84,3.84,0,0,1-3.47-1.67l-.1-.07a.48.48,0,0,0-.62-.14c-2.75,1.34-5.32.56-8.16,1.09-1.94.37-2.84,1.41-3.86,2.91a.45.45,0,0,0-.36.23c-.63,1.08-2,.82-2.9,1.42a7.38,7.38,0,0,0-2.06,2.66,14.21,14.21,0,0,0-1.61,6.11,37.84,37.84,0,0,1-4.06-2,5.16,5.16,0,0,1-2.5-3.4,17.12,17.12,0,0,0-3.09-4.9c-1.1-1.42-4.34-5.66-6.46-3.87-.46.21-.79.53-1.26.73-3.63,1.55-4.54-1.38-5.51-3.76a4.24,4.24,0,0,0-1.38-1.8,16.14,16.14,0,0,1-3.61-4,.49.49,0,0,0-.16-.16.48.48,0,0,0-.2-.14,1.86,1.86,0,0,0-1.12,0,8.68,8.68,0,0,1-3-.25c-1.46-.25-2.55.5-4,.5a.41.41,0,0,0-.25.08l-.07,0c-4.61-.09-9.3-2.43-13.25-4.67-2.69-1.53-5.14-3.63-8.33-3.75l-.05,0a20.64,20.64,0,0,1-2.59-.58c-1.09-.41-.7-1.3-.8-2.22-.16-1.55-1.17-2.35-2-3.56a.59.59,0,0,0-.24-.18,12.39,12.39,0,0,0-2.92-2.95,17.14,17.14,0,0,0-1.78-.86c-1.25-.65-1.27-1.74-1.13-3h0a.47.47,0,0,0,0-.46C5,96.86,5,95.12,4.53,93.4,4,91.42,3.11,90,4.48,88a.42.42,0,0,0-.13-.62A.47.47,0,0,0,4,87c-2.22-.72-1.71-3.59-1.94-5.36-.13-1-.41-2-.52-3a.37.37,0,0,0,.3-.34c.94-5.45,1.94-10.92,4.4-15.92a30.53,30.53,0,0,0,2.49-5.86,18,18,0,0,0,.52-3.18c.05-.76-.43-5.14,1.41-5.2a2.08,2.08,0,0,0,1.52,1.31c.47.09,1-.12,1.27.35a3.09,3.09,0,0,1,.31,1.49l0,0a.5.5,0,0,0,.69.71.44.44,0,0,0,.29-.3.4.4,0,0,0,.24-.33l.27-1.86c.06-.41,0-1.52.51-1.64.35-.09,1.2.38,1.56.5l1.9.61a.47.47,0,0,0,.39,0c9.85,2.57,20.09,3.82,30.12,5.49,5,.84,10.07,1.73,15.11,2.5a60.68,60.68,0,0,0,14.19.2.48.48,0,0,0,.34-.16c1,0,1.81.7,2.8.56.41-.05.79-.5,1.14-.53.69-.06,1.14.43,1.57.91a.4.4,0,0,0,.25.4l.23.08a.12.12,0,0,0,0,0,.55.55,0,0,0,.39.12c1.38.51,2.88.82,4.27,1.3a9,9,0,0,0,2.46.49c.48,0,1.13-.13,1.58,0l.46-.05c.53-.09.69.34.51,1.29a.41.41,0,0,0-.33.07c-1.27.81-2.64,2.8-1.59,4.29a1.65,1.65,0,0,0,1.93.57,20.73,20.73,0,0,0,3-1.42.54.54,0,0,0,.29,0c2.15-.42,4.07.44,6.19.5,1.9.06,4.8-1.39,6.32,0-1,1-2.62.87-3.81,1.36a6.08,6.08,0,0,0-2.24,1.51,3,3,0,0,0-.74,1.75,26.24,26.24,0,0,1-.59,3.27.39.39,0,0,0-.16.26c-.53,2.65-1,5.64.62,8,.56.82,2,1.82,2.74,1.19a.46.46,0,0,0,.29-.23,7.49,7.49,0,0,0,.66-4.78,15.64,15.64,0,0,1-.26-2.9c.13-1.56.89-2.49,1.58-3.79a.5.5,0,0,0,0-.33c1-1.44,2.59-3.22,4.25-1.86,1.34,1.1,1.82,4.05,1.4,5.65a.53.53,0,0,0,0,.25l-.11.24c-.26.58.6,1.09.87.5s.84-2.35,1.86-1.37c.75.73.29,2.42.12,3.27a41.54,41.54,0,0,0-.65,4.57.47.47,0,0,0,0,.83,5.23,5.23,0,0,0,4.47.28c2-.82,2.86-3.56,5.12-3.63.64,0,.64-1,0-1a4.36,4.36,0,0,0-3.17,1.66c-1.54,1.65-3.2,2.92-5.43,2.05.16-1.9.6-3.7.86-5.57a4.61,4.61,0,0,0-.58-3.17,1.31,1.31,0,0,0-2.21-.27,10.68,10.68,0,0,0-.55-2.8,4.06,4.06,0,0,0-1.76-2.65c-2.51-1.28-4.58,1.28-5.75,3.14a.43.43,0,0,0,0,.42,7.07,7.07,0,0,0-1.32,3.58c-.07,2.21.79,4.37,0,6.47a.41.41,0,0,0-.25.32c-.21,1.06-1.74-1.21-1.77-1.27a6.49,6.49,0,0,1-.57-2.38,14.09,14.09,0,0,1,.36-3.66l.05-.07a12.66,12.66,0,0,0,.71-2.85c.22-1.79.69-2.94,2.45-3.68,1.43-.6,2.92-.51,4-1.5.28.55,1.11,0,.85-.52-.8-1.77-2.6-2.07-4.39-1.82a20,20,0,0,1-6.41,0,9.82,9.82,0,0,0-3.29,0,.49.49,0,0,0-.46,0l-1.6.78c-.43.21-1.4.87-1.9.7-.74-.27-.42-1.39-.18-1.87A3.12,3.12,0,0,1,95,62.62a.4.4,0,0,0,.51,0c1.11-.79,2.9-2.63.64-3.43a2.89,2.89,0,0,0-1.06-.06,13.22,13.22,0,0,1-4,0c-.83-.21-1.57-.65-2.38-.9s-1.91-.36-2.82-.7c-.76-.73-1.42-1.88-2.65-1.6-.28.07-.5.32-.76.41a2,2,0,0,1-1.54,0,3.72,3.72,0,0,0-1.77-.32.49.49,0,0,0-.33.18,62.31,62.31,0,0,1-15-.38C58.88,54.93,54,54.08,49,53.26c-9.85-1.64-19.89-2.86-29.56-5.43a.46.46,0,0,0-.33,0l-2.42-.78c-.52-.17-1.13-.47-1.66-.21s-.53.72-.61,1.21-.1.71-.15,1.06a1.58,1.58,0,0,0-.22-.33c-.65-.66-1.74-.14-2.29-.8a.54.54,0,0,0-.24-.82c-1.55-.57-2.8.49-3.18,2a18.31,18.31,0,0,0-.07,3.63,17.2,17.2,0,0,1-1.63,6.45,65.42,65.42,0,0,0-3.54,8.31,77.4,77.4,0,0,0-2,9.18.51.51,0,0,0-.6.47,11.25,11.25,0,0,0,.37,3.32c.27,1.26.23,2.5.39,3.76.2,1.55.75,2.87,2.19,3.48a5,5,0,0,0-.36,4.64c.7,1.9.82,4,1.63,5.84a.51.51,0,0,0,.2.79c-.15,1.4,0,2.74,1.3,3.55.73.44,1.55.64,2.25,1.14A12.09,12.09,0,0,1,11,106.32a.48.48,0,0,0,.22.16A8.69,8.69,0,0,1,12.91,109c.26.86-.14,1.84.25,2.66.56,1.16,2.41,1.3,3.62,1.51a.48.48,0,0,0,.29.1c4-.07,7.88,3.62,11.41,5.28,3.33,1.56,6.82,3.09,10.55,3.16a.42.42,0,0,0,.26-.07h.06a5.66,5.66,0,0,0,1.68-.3,5,5,0,0,1,2.74-.09,9,9,0,0,0,1.54.26,12.26,12.26,0,0,1,1.68-.17,16.68,16.68,0,0,0,3.18,3.78c1.58,1.38,1.48,2,2.22,3.65a4.62,4.62,0,0,0,.65,1.12,6.16,6.16,0,0,0,3.36,2c1.6.27,2.14-.91,3.43-1.4l.14-.05.18-.07a.43.43,0,0,0,.29-.21c1.55-.47,4.56,3.6,5.18,4.44a17.32,17.32,0,0,1,2.76,5.28c.89,2.77,4.9,3.92,7.36,4.92a.39.39,0,0,0,.54-.21.46.46,0,0,0,.32-.45,12.86,12.86,0,0,1,2-6.92c1-1.44,2-1.47,3.4-2.18a2,2,0,0,0,.87-.76.47.47,0,0,0,.33-.22c.81-1.21,1.64-2.34,3.14-2.7a17.31,17.31,0,0,1,3.94-.12,10.65,10.65,0,0,0,4.4-1,5.37,5.37,0,0,0,3.68,2c.6,0,1.07-.31,1.7-.11a9.85,9.85,0,0,1,1.07.55,2.68,2.68,0,0,0,1.56.37c1.28-.2,1.4-1.46,1-2.49a4.21,4.21,0,0,0-2.27-2.12l.07,0a2.09,2.09,0,0,0,.5,0c.6-.12.86-.62,1.39-.85.68-.3,1.45,0,2.19-.11a5.4,5.4,0,0,0,1.76-.76c.83.5,1.68,1.57,2.73,1.22.81-.26,1.41-.87,2.36-.53a13.76,13.76,0,0,1,2.56,1.83.42.42,0,0,0,.59-.08,6.39,6.39,0,0,0,2.92-.94c2.26-1.16,3.22.8,4.16,2.48v0c.14.25.28.5.43.73a.48.48,0,0,0,.53.22c1.75,1.93,2.39,4.59,3.79,6.79a36.39,36.39,0,0,1,2,3.59,3.42,3.42,0,0,0,1.64,1.81.5.5,0,0,0,.69-.24c1.92,1.28,3.36-2.65,3.17-4.33-.29-2.42-1.69-4.74-2.71-6.9a85.34,85.34,0,0,1-4.13-9.22.56.56,0,0,0-.12-.2c1.39-2.15,1.8-4.74,3.4-6.71a46.81,46.81,0,0,0,3-4.46.53.53,0,0,0,.62-.32c.8-1.93,2.44-2.63,3.94-3.89a5,5,0,0,0,1.2-1.4c.35-.64.27-1.55.66-2.13a.49.49,0,0,0,.07-.27c.72-.35,1.57-.83,1.58-1.77,0-.37-.24-.66-.34-1a7.27,7.27,0,0,1-.21-2.15,4.53,4.53,0,0,0-1-3c-.47-.59-1.13-1-1.56-1.63-1-1.36-.83-2.41-1.1-3.78a3.47,3.47,0,0,1,1.1,2.11,5.5,5.5,0,0,0,.35,1.93c.39.72,1.49,1.46,2.32,1,1-.55.64-2.45.55-3.3a13.65,13.65,0,0,0-1.07-4,1.35,1.35,0,0,0,.93,0c.71-.24,1-1,1.17-1.66A.5.5,0,0,0,142.62,86.37Z"/></g></svg>